<?xml version="1.0" encoding="utf-8"?>
<!-- Generator: Adobe Illustrator 25.1.0, SVG Export Plug-In . SVG Version: 6.00 Build 0)  -->
<svg version="1.1" id="Слой_1" xmlns="http://www.w3.org/2000/svg" xmlns:xlink="http://www.w3.org/1999/xlink" x="0px" y="0px"
	 width="50px" height="50px" viewBox="0 0 50 50" enable-background="new 0 0 50 50" xml:space="preserve">
<g>
	<path fill="#F7F8F8" d="M25,0L25,0C11.193,0,0,11.193,0,25l0,0c0,13.807,11.193,25,25,25l0,0c13.807,0,25-11.193,25-25l0,0
		C50,11.193,38.807,0,25,0z"/>
	<path fill="none" stroke="#D7DADD" d="M25,0.5L25,0.5C11.469,0.5,0.5,11.469,0.5,25l0,0c0,13.531,10.969,24.5,24.5,24.5l0,0
		c13.531,0,24.5-10.969,24.5-24.5l0,0C49.5,11.469,38.531,0.5,25,0.5z"/>
	<path fill="#383B42" d="M36.003,21.889l-14.717-8.503c-0.421-0.249-0.9-0.382-1.389-0.386c-0.768,0-1.505,0.305-2.049,0.849
		C17.305,14.392,17,15.129,17,15.897v18.249c0,0.51,0.137,1.011,0.396,1.45c0.259,0.439,0.631,0.801,1.077,1.048
		c0.446,0.247,0.95,0.369,1.46,0.355c0.51-0.014,1.006-0.165,1.438-0.436l14.735-9.309c0.458-0.287,0.834-0.687,1.092-1.163
		c0.257-0.475,0.387-1.009,0.377-1.549c-0.01-0.54-0.161-1.069-0.436-1.534C36.863,22.544,36.472,22.158,36.003,21.889z"/>
</g>
</svg>
