<svg width="46" height="46" viewBox="0 0 46 46" fill="none" xmlns="http://www.w3.org/2000/svg">
<path d="M27.75 19C27.75 17.9645 26.9105 17.125 25.875 17.125H20.875V12.125C20.875 11.0895 20.0355 10.25 19 10.25C17.9644 10.25 17.125 11.0895 17.125 12.125V17.125H12.125C11.0894 17.125 10.25 17.9645 10.25 19C10.25 20.0355 11.0894 20.875 12.125 20.875H17.125V25.875C17.125 26.9105 17.9644 27.75 19 27.75C20.0355 27.75 20.875 26.9105 20.875 25.875V20.875H25.875C26.9105 20.875 27.75 20.0355 27.75 19ZM19 0.875C29.0102 0.875 37.125 8.98985 37.125 19C37.125 23.3297 35.6068 27.3048 33.0738 30.422L45.3258 42.6742C46.058 43.4065 46.058 44.5935 45.3258 45.3258C44.6603 45.9915 43.6185 46.052 42.8845 45.5072L42.6742 45.3258L30.422 33.0738C27.3048 35.6068 23.3297 37.125 19 37.125C8.98983 37.125 0.875 29.0102 0.875 19C0.875 8.98985 8.98983 0.875 19 0.875ZM19 4.625C11.0609 4.625 4.625 11.0609 4.625 19C4.625 26.939 11.0609 33.375 19 33.375C26.939 33.375 33.375 26.939 33.375 19C33.375 11.0609 26.939 4.625 19 4.625Z" fill="white"/>
</svg>
