<svg width="101" height="85" viewBox="0 0 101 85" fill="none" xmlns="http://www.w3.org/2000/svg">
<path d="M21.9788 25.5649L78.9249 25.5649V76.9999C78.9249 80.8659 75.7909 83.9999 71.9249 83.9999H28.9788C25.1128 83.9999 21.9788 80.8659 21.9788 76.9999L21.9788 25.5649Z" fill="#ECEDF1" stroke="#303030"/>
<path d="M99.3652 6.95517C99.3652 3.66622 96.699 1.00001 93.41 1.00001L7.46309 1C4.17415 1 1.50793 3.66622 1.50793 6.95516V77C1.50793 80.866 4.64195 84 8.50794 84H14.9788C18.8448 84 21.9788 80.866 21.9788 77V25.565L78.8943 25.565V77C78.8943 80.866 82.0284 84 85.8943 84H92.3652C96.2312 84 99.3652 80.866 99.3652 77V8.00001C99.3652 7.99304 99.3652 7.98608 99.3652 7.97912V6.95517Z" fill="white" stroke="#303030"/>
<path d="M21.9909 29.7194C21.9927 32.1962 24.2209 33.5354 26.1473 34.2694C28.385 35.1219 30.7835 35.4895 33.1368 35.7559C35.5694 36.0312 38.0182 36.167 40.4634 36.2382C43.2141 36.3182 45.9654 36.3152 48.7167 36.3312C51.2354 36.3459 53.7538 36.3217 56.2725 36.3071C58.5363 36.294 60.8013 36.2545 63.0623 36.1272C65.5457 35.9874 68.0292 35.7925 70.486 35.3674C72.6324 34.9962 74.9292 34.4882 76.7967 33.2426C77.7274 32.6216 78.5508 31.7423 78.8113 30.5718C78.993 29.755 78.9026 28.828 78.9026 27.9896C78.9026 24.8161 78.9091 21.6422 78.9026 18.4687C78.9008 17.5434 78.8003 16.6034 78.4034 15.7672C77.9784 14.871 77.2484 14.2216 76.4179 13.773C74.3561 12.659 71.8583 12.4432 69.5896 12.2535C67.0323 12.0397 64.4679 11.9877 61.9042 11.9368C59.2813 11.8846 56.6559 11.9074 54.0327 11.8973C52.0184 11.8895 50.0044 11.8849 47.9898 11.8927C45.1423 11.9038 42.2938 11.8924 39.4463 11.926C36.9965 11.9551 34.5428 12.0152 32.0979 12.1869C29.7723 12.3505 27.3139 12.5314 25.1225 13.4433C24.2197 13.8191 23.35 14.3712 22.78 15.2266C22.2275 16.0556 22.028 17.0703 21.9955 18.071C21.9612 19.1243 21.9903 20.1828 21.9903 21.2364C21.9903 23.1562 21.9903 25.0763 21.9903 26.9961C21.9909 27.9044 21.993 28.812 21.9909 29.7194Z" fill="white" stroke="#303030" stroke-miterlimit="10" stroke-linecap="round" stroke-linejoin="round"/>
<path d="M12.0826 35.5033C13.3323 44.7378 15.5919 48.9846 22.5186 55.015C32.0762 51.7528 36.6257 49.2789 41.6469 42.4133C41.0981 32.5363 39.0096 28.8246 33.8673 23.6603C23.7234 25.4716 19.0389 28.2112 12.0826 35.5033Z" fill="white"/>
<path d="M41.6469 42.4133C41.0981 32.5363 39.0096 28.8246 33.8673 23.6603M41.6469 42.4133C36.6257 49.2789 32.0762 51.7528 22.5186 55.015M41.6469 42.4133C39.2188 39.9774 35.8226 38.5449 32.3353 39.2254M22.5186 55.015C15.5919 48.9846 13.3323 44.7378 12.0826 35.5033M22.5186 55.015C21.6882 52.3031 22.2124 44.4893 25.8566 42.1177M12.0826 35.5033C13.9017 34.7318 23.4317 35.7915 24.8732 37.143M12.0826 35.5033C19.0389 28.2112 23.7234 25.4716 33.8673 23.6603M33.8673 23.6603C32.3503 24.6269 29.3273 32.6889 29.3273 35.5033" stroke="#303030" stroke-linecap="round"/>
<path d="M30.1689 38.6208C30.4089 39.2558 30.0241 40.1199 29.1047 40.4675C28.1853 40.8151 27.325 40.4216 27.085 39.7866C26.8449 39.1516 27.2297 38.2875 28.1492 37.9399C29.0686 37.5923 29.9288 37.9858 30.1689 38.6208Z" fill="white" stroke="#303030"/>
<path d="M35.6528 20.3092C36.2373 20.6546 36.4774 21.5696 35.9774 22.4158C35.7348 22.8263 35.2397 23.2641 34.6947 23.5358C34.1197 23.8226 33.6849 23.8338 33.4749 23.7097C33.2895 23.6002 33.1312 23.2809 33.1634 22.6782C33.1937 22.1124 33.3903 21.4822 33.651 21.041C34.1511 20.1948 35.0684 19.9638 35.6528 20.3092Z" fill="white" stroke="#303030"/>
<path d="M45.4476 43.3845C45.2938 44.0457 44.4932 44.5496 43.5359 44.3268C43.0714 44.2188 42.5051 43.8781 42.0822 43.44C41.636 42.9776 41.4946 42.5663 41.5499 42.3287C41.5987 42.1189 41.8557 41.872 42.4402 41.7217C42.9889 41.5806 43.6491 41.5788 44.1482 41.695C45.1056 41.9177 45.6015 42.7232 45.4476 43.3845Z" fill="white" stroke="#303030"/>
<path d="M21.0281 58.6236C20.3761 58.4347 19.9157 57.6083 20.1892 56.6643C20.322 56.2063 20.6924 55.6589 21.1525 55.2601C21.638 54.8392 22.0563 54.72 22.2906 54.7879C22.4975 54.8478 22.7303 55.1176 22.8492 55.7093C22.9607 56.2648 22.9273 56.9241 22.7846 57.4163C22.5111 58.3604 21.6802 58.8126 21.0281 58.6236Z" fill="white" stroke="#303030"/>
<path d="M7.96581 35.286C7.97665 34.6072 8.65283 33.9457 9.63562 33.9614C10.1124 33.969 10.7379 34.1825 11.2437 34.5215C11.7774 34.8792 12.0024 35.2515 11.9986 35.4954C11.9951 35.7107 11.7961 36.0063 11.2564 36.2766C10.7498 36.5303 10.1049 36.6714 9.59248 36.6632C8.6097 36.6475 7.95497 35.9648 7.96581 35.286Z" fill="white" stroke="#303030"/>
</svg>
