<svg width="152" height="100" viewBox="0 0 152 100" fill="none" xmlns="http://www.w3.org/2000/svg">
<path d="M75.9994 99C86.7148 98.9818 97.6503 98.4544 108.22 96.6194C118.419 94.8002 129.139 91.6549 137.248 84.9792C141.961 81.0951 145.378 76.1836 147.471 70.4592C149.024 66.2359 149.833 61.7488 150.213 57.2765C150.553 53.126 150.58 48.8236 150.352 44.6657C149.75 34.2449 147.067 24.3904 139.36 16.9161C135.844 13.4857 131.583 10.8518 127.109 8.84972C121.74 6.45375 115.996 4.87741 110.233 3.75264C99.0197 1.60325 87.4004 1.02343 75.9997 1.00001C64.5986 1.02467 52.9796 1.60295 41.7659 3.75264C31.3293 5.80739 20.416 9.3759 12.6397 16.9161C4.935 24.3879 2.24911 34.244 1.64788 44.666C1.42192 48.8239 1.4448 53.126 1.78668 57.2768C2.16658 61.7488 2.97553 66.2365 4.52852 70.4595C6.62184 76.1839 10.0369 81.0945 14.7518 84.9796C18.6176 88.1804 23.1393 90.5646 27.8135 92.3641C32.9509 94.336 38.3657 95.6648 43.7801 96.6198C54.3481 98.4535 65.2839 98.983 75.9994 99Z" fill="white" stroke="#303030" stroke-miterlimit="10" stroke-linecap="round" stroke-linejoin="round"/>
<path d="M9.50001 50.0004C9.49845 50.6617 9.72465 51.3214 10.1326 51.8422C10.5382 52.3647 11.1217 52.7468 11.7636 52.9074C13.6676 53.3878 15.5155 51.9374 15.4999 49.9739C15.482 48.0323 13.6466 46.617 11.7636 47.0927C11.1217 47.2533 10.5382 47.6354 10.1326 48.1578C9.72465 48.6795 9.49845 49.3392 9.50001 50.0004Z" stroke="#303030" stroke-miterlimit="10" stroke-linecap="round" stroke-linejoin="round"/>
<path d="M75.5262 8.00367C74.8649 8.00211 74.2052 8.22831 73.6844 8.63626C73.1619 9.04187 72.7798 9.62533 72.6192 10.2673C72.1388 12.1713 73.5892 14.0192 75.5527 14.0036C77.4943 13.9856 78.9096 12.1502 78.434 10.2673C78.2733 9.62533 77.8912 9.04187 77.3688 8.63626C76.8471 8.22831 76.1874 8.00211 75.5262 8.00367Z" stroke="#303030" stroke-miterlimit="10" stroke-linecap="round" stroke-linejoin="round"/>
<path d="M136.095 50.7387C136.094 51.4 136.32 52.0596 136.728 52.5805C137.134 53.103 137.717 53.4851 138.359 53.6457C140.263 54.1261 142.111 52.6757 142.095 50.7122C142.077 48.7706 140.242 47.3553 138.359 47.8309C137.717 47.9916 137.134 48.3737 136.728 48.8961C136.32 49.4178 136.094 50.0775 136.095 50.7387Z" stroke="#303030" stroke-miterlimit="10" stroke-linecap="round" stroke-linejoin="round"/>
<path d="M75.5262 84.5C74.8649 84.4984 74.2052 84.7247 73.6844 85.1326C73.1619 85.5382 72.7798 86.1217 72.6192 86.7636C72.1388 88.6676 73.5892 90.5155 75.5527 90.4999C77.4943 90.482 78.9096 88.6466 78.434 86.7636C78.2733 86.1217 77.8912 85.5382 77.3688 85.1326C76.8471 84.7247 76.1874 84.4984 75.5262 84.5Z" stroke="#303030" stroke-miterlimit="10" stroke-linecap="round" stroke-linejoin="round"/>
<path d="M75.9994 99C86.7148 98.9818 97.6503 98.4544 108.22 96.6194C118.419 94.8002 129.139 91.6549 137.248 84.9792C141.961 81.0951 145.378 76.1836 147.471 70.4592C149.024 66.2359 149.833 61.7488 150.213 57.2765C150.553 53.126 150.58 48.8236 150.352 44.6657C149.75 34.2449 147.067 24.3904 139.36 16.9161C135.844 13.4857 131.583 10.8518 127.109 8.84972C121.741 6.45375 115.996 4.87741 110.233 3.75263C99.0197 1.60326 87.4004 1.02343 75.9997 1.00001C64.5986 1.02467 52.9796 1.60295 41.7659 3.75264C31.3293 5.80738 20.416 9.3759 12.6397 16.9161C4.935 24.3879 2.24911 34.244 1.64788 44.666C1.42192 48.8239 1.4448 53.126 1.78668 57.2768C2.16658 61.7488 2.97553 66.2366 4.52852 70.4595C6.62184 76.1839 10.0369 81.0945 14.7518 84.9796C18.6176 88.1804 23.1393 90.5646 27.8135 92.3641C32.9509 94.336 38.3657 95.6648 43.7801 96.6198C54.3481 98.4535 65.2839 98.983 75.9994 99Z" stroke="#303030" stroke-miterlimit="10" stroke-linecap="round" stroke-linejoin="round"/>
<path d="M116.025 45.1193C116.025 50.9173 111.294 55.6229 105.451 55.6229C99.6082 55.6229 94.8773 50.9173 94.8773 45.1193C94.8773 39.3213 99.6082 34.6157 105.451 34.6157C111.294 34.6157 116.025 39.3213 116.025 45.1193Z" stroke="#303030"/>
<path d="M112.116 45.1192C112.116 48.7724 109.135 51.7392 105.451 51.7392C101.767 51.7392 98.7856 48.7724 98.7856 45.1192C98.7856 41.4661 101.767 38.4993 105.451 38.4993C109.135 38.4993 112.116 41.4661 112.116 45.1192Z" fill="#ECEDF1" stroke="#303030"/>
<path d="M113.185 37.8926C113.046 37.6601 113.122 37.3549 113.38 37.2104L113.136 36.7739L113.38 37.2104L117.044 35.1636C117.312 35.0139 117.647 35.109 117.792 35.3517L120.208 39.4008C120.347 39.6334 120.272 39.9385 120.013 40.083L116.349 42.1299C116.081 42.2795 115.746 42.1844 115.601 41.9418L113.185 37.8926Z" fill="white" stroke="#303030"/>
<rect x="0.220964" y="0.669795" width="21.6758" height="27.9438" rx="0.5" transform="matrix(0.894183 0.447702 -0.452256 0.891888 50.2141 46.9208)" fill="#ECEDF1" stroke="#303030"/>
<rect x="0.00958961" y="0.704795" width="21.635" height="27.9961" rx="0.5" transform="matrix(0.71887 0.695145 -0.699691 0.714446 40.008 40.3638)" fill="white" stroke="#303030"/>
</svg>
