<svg width="214" height="213" viewBox="0 0 214 213" fill="none" xmlns="http://www.w3.org/2000/svg">
<g filter="url(#filter0_d_585_20636)">
<mask id="path-1-inside-1_585_20636" fill="white">
<path fill-rule="evenodd" clip-rule="evenodd" d="M4.51468 197.298C4.50499 197.2 4.50002 197.101 4.50002 197L4.50001 3C4.50001 1.34314 5.84315 0 7.50001 0H18.5L18.5074 8.97336e-06L201.499 1.92003e-07C201.499 6.40048e-08 201.5 0 201.5 0H205.5C207.157 0 208.5 1.34315 208.5 3V14V79C208.5 80.6569 207.157 82 205.5 82H201.5C199.843 82 198.5 80.6569 198.5 79V17L21.5 17L21.5 194.597H83.5C85.1569 194.597 86.5 195.94 86.5 197.597V201.597C86.5 203.254 85.1569 204.597 83.5 204.597H7.50002C5.84316 204.597 4.50002 203.254 4.50002 201.597V197.597C4.50002 197.496 4.50498 197.397 4.51468 197.298Z"/>
</mask>
<path fill-rule="evenodd" clip-rule="evenodd" d="M4.51468 197.298C4.50499 197.2 4.50002 197.101 4.50002 197L4.50001 3C4.50001 1.34314 5.84315 0 7.50001 0H18.5L18.5074 8.97336e-06L201.499 1.92003e-07C201.499 6.40048e-08 201.5 0 201.5 0H205.5C207.157 0 208.5 1.34315 208.5 3V14V79C208.5 80.6569 207.157 82 205.5 82H201.5C199.843 82 198.5 80.6569 198.5 79V17L21.5 17L21.5 194.597H83.5C85.1569 194.597 86.5 195.94 86.5 197.597V201.597C86.5 203.254 85.1569 204.597 83.5 204.597H7.50002C5.84316 204.597 4.50002 203.254 4.50002 201.597V197.597C4.50002 197.496 4.50498 197.397 4.51468 197.298Z" fill="white"/>
<path d="M4.50002 197H3.50002H4.50002ZM4.51468 197.298L5.50984 197.397L5.51955 197.298L5.50984 197.2L4.51468 197.298ZM4.50001 3H5.50001H4.50001ZM18.5 0L18.5012 -1H18.5V0ZM18.5074 8.97336e-06L18.5062 1.00001H18.5074V8.97336e-06ZM201.499 1.92003e-07V1L201.499 1L201.499 1.92003e-07ZM198.5 17H199.5V16H198.5V17ZM21.5 17V16H20.5V17H21.5ZM21.5 194.597H20.5V195.597H21.5V194.597ZM3.50002 197C3.50002 197.134 3.50661 197.266 3.51952 197.397L5.50984 197.2C5.50337 197.135 5.50002 197.068 5.50002 197H3.50002ZM3.50001 3L3.50002 197H5.50002L5.50001 3H3.50001ZM7.50001 -1C5.29087 -1 3.50001 0.790859 3.50001 3H5.50001C5.50001 1.89543 6.39544 1 7.50001 1V-1ZM18.5 -1H7.50001V1H18.5V-1ZM18.5086 -0.99999L18.5012 -0.999999L18.4988 0.999999L18.5062 1.00001L18.5086 -0.99999ZM201.499 -1L18.5074 -0.999991V1.00001L201.499 1V-1ZM201.499 1C201.5 1 201.5 1 201.5 1V-1C201.5 -1 201.499 -1 201.499 -1L201.499 1ZM205.5 -1H201.5V1H205.5V-1ZM209.5 3C209.5 0.79086 207.709 -1 205.5 -1V1C206.605 1 207.5 1.89543 207.5 3H209.5ZM207.5 3V14H209.5V3H207.5ZM207.5 14V79H209.5V14H207.5ZM207.5 79C207.5 80.1046 206.605 81 205.5 81V83C207.709 83 209.5 81.2091 209.5 79H207.5ZM205.5 81H201.5V83H205.5V81ZM201.5 81C200.395 81 199.5 80.1046 199.5 79H197.5C197.5 81.2091 199.291 83 201.5 83V81ZM199.5 79V17H197.5V79H199.5ZM21.5 18L198.5 18V16L21.5 16V18ZM22.5 194.597L22.5 17H20.5L20.5 194.597H22.5ZM83.5 193.597H21.5V195.597H83.5V193.597ZM87.5 197.597C87.5 195.388 85.7092 193.597 83.5 193.597V195.597C84.6046 195.597 85.5 196.492 85.5 197.597H87.5ZM87.5 201.597V197.597H85.5V201.597H87.5ZM83.5 205.597C85.7092 205.597 87.5 203.806 87.5 201.597H85.5C85.5 202.701 84.6046 203.597 83.5 203.597V205.597ZM7.50002 205.597H83.5V203.597H7.50002V205.597ZM3.50002 201.597C3.50002 203.806 5.29088 205.597 7.50002 205.597V203.597C6.39545 203.597 5.50002 202.701 5.50002 201.597H3.50002ZM3.50002 197.597V201.597H5.50002V197.597H3.50002ZM3.51952 197.2C3.5066 197.331 3.50002 197.463 3.50002 197.597H5.50002C5.50002 197.529 5.50336 197.462 5.50984 197.397L3.51952 197.2Z" fill="#303030" mask="url(#path-1-inside-1_585_20636)"/>
<path d="M15.1411 16L84.917 16L84.917 74C84.917 77.866 81.783 81 77.917 81L22.1411 81C18.2751 81 15.1411 77.866 15.1411 74L15.1411 16Z" fill="#ECEDF1" stroke="#303030"/>
<path d="M84.917 22.5649L141.863 22.5649V73.9999C141.863 77.8659 138.729 80.9999 134.863 80.9999H91.917C88.051 80.9999 84.917 77.8659 84.917 73.9999L84.917 22.5649Z" fill="#ECEDF1" stroke="#303030"/>
<path d="M141.863 22.5649L198.809 22.5649V73.9999C198.809 77.8659 195.675 80.9999 191.809 80.9999H148.863C144.997 80.9999 141.863 77.8659 141.863 73.9999V22.5649Z" fill="#ECEDF1" stroke="#303030"/>
<path d="M141.875 26.7194C141.877 29.1962 144.105 30.5354 146.032 31.2694C148.269 32.1219 150.668 32.4895 153.021 32.7559C155.454 33.0312 157.903 33.167 160.348 33.2382C163.099 33.3182 165.85 33.3152 168.601 33.3312C171.12 33.3459 173.638 33.3217 176.157 33.3071C178.421 33.294 180.686 33.2545 182.947 33.1272C185.43 32.9874 187.914 32.7925 190.37 32.3674C192.517 31.9962 194.814 31.4882 196.681 30.2426C197.612 29.6216 198.435 28.7423 198.696 27.5718C198.877 26.755 198.787 25.828 198.787 24.9896C198.787 21.8161 198.793 18.6422 198.787 15.4687C198.785 14.5434 198.685 13.6034 198.288 12.7672C197.863 11.871 197.133 11.2216 196.302 10.773C194.241 9.65902 191.743 9.4432 189.474 9.25351C186.917 9.03966 184.352 8.98774 181.789 8.93681C179.166 8.88457 176.54 8.90743 173.917 8.8973C171.903 8.88947 169.889 8.8849 167.874 8.89274C165.027 8.90384 162.178 8.89241 159.331 8.92604C156.881 8.9551 154.427 9.01518 151.982 9.18691C149.657 9.35049 147.198 9.53136 145.007 10.4433C144.104 10.8191 143.234 11.3712 142.664 12.2266C142.112 13.0556 141.912 14.0703 141.88 15.071C141.846 16.1243 141.875 17.1828 141.875 18.2364C141.875 20.1562 141.875 22.0763 141.875 23.9961C141.875 24.9044 141.877 25.812 141.875 26.7194Z" fill="white" stroke="#303030" stroke-miterlimit="10" stroke-linecap="round" stroke-linejoin="round"/>
<path d="M84.9291 26.7194C84.931 29.1962 87.1592 30.5354 89.0855 31.2694C91.3232 32.1219 93.7218 32.4895 96.075 32.7559C98.5076 33.0312 100.956 33.167 103.402 33.2382C106.152 33.3182 108.904 33.3152 111.655 33.3312C114.174 33.3459 116.692 33.3217 119.211 33.3071C121.475 33.294 123.74 33.2545 126 33.1272C128.484 32.9874 130.967 32.7925 133.424 32.3674C135.571 31.9962 137.867 31.4882 139.735 30.2426C140.666 29.6216 141.489 28.7423 141.75 27.5718C141.931 26.755 141.841 25.828 141.841 24.9896C141.841 21.8161 141.847 18.6422 141.841 15.4687C141.839 14.5434 141.739 13.6034 141.342 12.7672C140.917 11.871 140.187 11.2216 139.356 10.773C137.294 9.65902 134.797 9.4432 132.528 9.25351C129.971 9.03966 127.406 8.98774 124.842 8.93681C122.219 8.88457 119.594 8.90743 116.971 8.8973C114.957 8.88947 112.943 8.8849 110.928 8.89274C108.081 8.90384 105.232 8.89241 102.385 8.92604C99.9347 8.9551 97.481 9.01518 95.0361 9.18691C92.7105 9.35049 90.2522 9.53136 88.0607 10.4433C87.1579 10.8191 86.2882 11.3712 85.7182 12.2266C85.1657 13.0556 84.9662 14.0703 84.9337 15.071C84.8994 16.1243 84.9285 17.1828 84.9285 18.2364C84.9285 20.1562 84.9285 22.0763 84.9285 23.9961C84.9291 24.9044 84.9313 25.812 84.9291 26.7194Z" fill="white" stroke="#303030" stroke-miterlimit="10" stroke-linecap="round" stroke-linejoin="round"/>
<path d="M40.7828 34.1134C43.3821 34.1285 58.7918 34.0991 61.3911 34.0839C63.7273 34.0705 66.0648 34.0297 68.3981 33.8983C70.9611 33.7541 73.524 33.5529 76.0595 33.1142C78.2746 32.7311 80.6449 32.2068 82.5722 30.9214C83.5327 30.2805 84.3824 29.3731 84.6513 28.1652C84.8388 27.3221 84.7455 26.3655 84.7455 25.5003C84.7455 22.2251 84.7522 18.9497 84.7455 15.6746C84.7436 14.7197 84.6399 13.7496 84.2303 12.8867C83.7917 11.9618 83.0383 11.2916 82.1813 10.8287C80.0535 9.67899 77.4757 9.45628 75.1344 9.26051C72.4952 9.03981 69.8488 8.98624 67.203 8.93367C64.4961 8.87976 61.7867 8.90335 59.0796 8.8929C57.0008 8.88482 42.1117 8.88458 40.0326 8.89267C37.0939 8.90412 34.1543 8.89233 31.2156 8.92703C28.6874 8.95702 26.1552 9.01902 23.632 9.19626C21.232 9.36506 18.695 9.55173 16.4334 10.4928C8.55513 37.0235 26.3684 34.0295 40.7828 34.1134Z" fill="white" stroke="#303030" stroke-miterlimit="10" stroke-linecap="round" stroke-linejoin="round"/>
<path d="M37.2483 34.3619C37.263 36.8806 37.2389 55.9299 37.2242 58.4486C37.2111 60.7123 37.1716 62.9773 37.0443 65.2383C36.9045 67.7218 36.7096 70.2052 36.2845 72.662C35.9133 74.8084 35.4053 77.1052 34.1597 78.9728C33.5387 79.9034 32.6595 80.7269 31.489 80.9873C30.6721 81.1691 29.7452 81.0787 28.9067 81.0787C25.7332 81.0787 22.5593 81.0851 19.3858 81.0787C18.4605 81.0768 17.5205 80.9763 16.6844 80.5794C15.7881 80.1544 15.1387 79.4244 14.6901 78.594C13.5761 76.5322 13.3603 74.0343 13.1706 71.7656C12.9568 69.2083 12.9049 66.644 12.8539 64.0802C12.8017 61.4573 12.8245 58.8319 12.8144 41.7253C12.8066 39.711 12.802 37.697 12.8099 35.6824C12.821 32.8349 12.8095 29.9865 12.8432 27.1389C12.8722 24.6892 12.9323 22.2354 13.104 19.7906C13.2676 17.4649 13.4485 15.0066 14.3604 12.8152C14.7362 11.9124 15.2883 11.0427 16.1437 10.4727C28.3599 23.8276 32.1757 28.1771 37.2483 34.3619Z" fill="white" stroke="#303030" stroke-miterlimit="10" stroke-linecap="round" stroke-linejoin="round"/>
<path d="M26.4821 194.986L26.4821 138.04L77.917 138.04C81.783 138.04 84.917 141.174 84.917 145.04L84.917 187.986C84.917 191.852 81.783 194.986 77.917 194.986L26.4821 194.986Z" fill="#ECEDF1" stroke="#303030"/>
<path d="M26.4821 138.04L26.4821 81.0936L77.917 81.0936C81.783 81.0936 84.917 84.2276 84.917 88.0936L84.917 131.04C84.917 134.906 81.783 138.04 77.917 138.04L26.4821 138.04Z" fill="#ECEDF1" stroke="#303030"/>
<path d="M30.6365 138.028C33.1133 138.026 34.4526 135.798 35.1865 133.871C36.039 131.634 36.4066 129.235 36.673 126.882C36.9483 124.449 37.0841 122 37.1553 119.555C37.2353 116.804 37.2323 114.053 37.2483 111.302C37.263 108.783 37.2389 106.265 37.2242 103.746C37.2111 101.482 37.1716 99.2173 37.0443 96.9563C36.9045 94.4728 36.7096 91.9894 36.2845 89.5326C35.9133 87.3862 35.4053 85.0893 34.1597 83.2218C33.5387 82.2911 32.6594 81.4677 31.489 81.2072C30.6721 81.0255 29.7451 81.1159 28.9067 81.1159C25.7332 81.1159 22.5593 81.1095 19.3858 81.1159C18.4605 81.1178 17.5205 81.2183 16.6844 81.6151C15.7881 82.0402 15.1387 82.7701 14.6901 83.6006C13.5761 85.6624 13.3603 88.1603 13.1706 90.4289C12.9568 92.9863 12.9049 95.5506 12.8539 98.1144C12.8017 100.737 12.8245 103.363 12.8144 105.986C12.8066 108 12.802 110.014 12.8099 112.029C12.821 114.876 12.8095 117.725 12.8432 120.572C12.8722 123.022 12.9323 125.476 13.104 127.921C13.2676 130.246 13.4485 132.705 14.3604 134.896C14.7362 135.799 15.2883 136.669 16.1437 137.239C16.9727 137.791 17.9874 137.991 18.9881 138.023C20.0414 138.057 21.0999 138.028 22.1535 138.028C24.0733 138.028 25.9934 138.028 27.9132 138.028C28.8215 138.028 29.7291 138.026 30.6365 138.028Z" fill="white" stroke="#303030" stroke-miterlimit="10" stroke-linecap="round" stroke-linejoin="round"/>
<path d="M30.6365 194.974C33.1133 194.972 34.4526 192.744 35.1865 190.818C36.039 188.58 36.4066 186.181 36.673 183.828C36.9483 181.395 37.0841 178.947 37.1553 176.501C37.2353 173.751 37.2323 170.999 37.2483 168.248C37.263 165.729 37.2389 163.211 37.2242 160.692C37.2111 158.429 37.1716 156.164 37.0443 153.903C36.9045 151.419 36.7096 148.936 36.2845 146.479C35.9133 144.332 35.4053 142.036 34.1597 140.168C33.5387 139.237 32.6594 138.414 31.489 138.154C30.6721 137.972 29.7451 138.062 28.9067 138.062C25.7332 138.062 22.5593 138.056 19.3858 138.062C18.4605 138.064 17.5205 138.165 16.6844 138.561C15.7881 138.986 15.1387 139.716 14.6901 140.547C13.5761 142.609 13.3603 145.107 13.1706 147.375C12.9568 149.933 12.9049 152.497 12.8539 155.061C12.8017 157.684 12.8245 160.309 12.8144 162.932C12.8066 164.946 12.802 166.96 12.8099 168.975C12.821 171.823 12.8095 174.671 12.8432 177.519C12.8722 179.968 12.9323 182.422 13.104 184.867C13.2676 187.193 13.4485 189.651 14.3604 191.842C14.7362 192.745 15.2883 193.615 16.1437 194.185C16.9727 194.737 17.9874 194.937 18.9881 194.969C20.0414 195.004 21.0999 194.975 22.1535 194.975C24.0733 194.975 25.9934 194.975 27.9132 194.975C28.8215 194.974 29.7291 194.972 30.6365 194.974Z" fill="white" stroke="#303030" stroke-miterlimit="10" stroke-linecap="round" stroke-linejoin="round"/>
<path d="M29.1124 31.0666C39.892 26.099 45.666 22.7872 53.2012 16.8156C53.7167 16.4071 54.4844 16.5954 54.7486 17.1976C58.787 26.4036 59.1312 27.8905 70.4229 35.2094C71.1427 35.6759 70.9929 36.7852 70.1754 37.0448C59.3082 40.4947 55.3894 43.9793 46.387 54.3493C45.8699 54.9451 44.8904 54.7345 44.6507 53.9829C40.955 42.3972 38.4715 41.9157 28.8345 32.6943C28.326 32.2078 28.4733 31.3611 29.1124 31.0666Z" fill="white" stroke="#303030"/>
<path d="M33.5089 200.453C28.0971 193.223 24.5903 192.29 18.8933 187.697C18.3813 187.285 18.4217 186.494 18.9636 186.121C25.3768 181.712 26.5763 181.076 30.4916 171.49C30.8159 170.696 31.9313 170.64 32.3446 171.392C36.5869 179.105 39.9603 181.715 49.1688 187.068C49.8508 187.465 49.8304 188.462 49.1266 188.819C40.9093 192.98 40.7894 191.975 35.185 200.412C34.7956 200.998 33.9306 201.017 33.5089 200.453Z" fill="white" stroke="#303030"/>
<path d="M209.001 31.2041C200.495 39.3273 201.113 41.7174 197.173 54.0123C196.959 54.6824 196.134 54.9231 195.59 54.4774C190.222 50.0851 186.147 47.02 181.915 44.3938C179.13 42.6654 176.278 41.1271 172.944 39.5257C172.351 39.2409 172.186 38.4687 172.612 37.9676C178.91 30.5578 180.068 29.6016 181.655 16.6915C181.759 15.8402 182.822 15.4891 183.413 16.1102C189.267 22.2547 193.409 24.8234 200.858 27.2497C203.089 27.9763 205.617 28.6902 208.575 29.4836C209.337 29.6879 209.572 30.6592 209.001 31.2041Z" fill="white"/>
<path d="M181.915 44.3938C179.13 42.6654 176.278 41.1271 172.944 39.5257C172.351 39.2409 172.186 38.4687 172.612 37.9676C178.91 30.5578 180.068 29.6016 181.655 16.6915C181.759 15.8402 182.822 15.4891 183.413 16.1102C189.267 22.2547 193.409 24.8234 200.858 27.2497M181.915 44.3938C186.147 47.02 190.222 50.0851 195.59 54.4774C196.134 54.9231 196.959 54.6824 197.173 54.0123C201.113 41.7174 200.495 39.3273 209.001 31.2041C209.572 30.6592 209.337 29.6879 208.575 29.4836C205.617 28.6902 203.089 27.9763 200.858 27.2497M181.915 44.3938C184.12 45.0192 189.136 46.3459 191.561 46.649M200.858 27.2497C198.358 26.777 189.338 24.6881 187.076 25.4731" stroke="#303030" stroke-linecap="round"/>
</g>
<defs>
<filter id="filter0_d_585_20636" x="0.5" y="0" width="214" height="213" filterUnits="userSpaceOnUse" color-interpolation-filters="sRGB">
<feFlood flood-opacity="0" result="BackgroundImageFix"/>
<feColorMatrix in="SourceAlpha" type="matrix" values="0 0 0 0 0 0 0 0 0 0 0 0 0 0 0 0 0 0 127 0" result="hardAlpha"/>
<feOffset dy="4"/>
<feGaussianBlur stdDeviation="2"/>
<feComposite in2="hardAlpha" operator="out"/>
<feColorMatrix type="matrix" values="0 0 0 0 0 0 0 0 0 0 0 0 0 0 0 0 0 0 0.25 0"/>
<feBlend mode="normal" in2="BackgroundImageFix" result="effect1_dropShadow_585_20636"/>
<feBlend mode="normal" in="SourceGraphic" in2="effect1_dropShadow_585_20636" result="shape"/>
</filter>
</defs>
</svg>
