<svg width="158" height="85" viewBox="0 0 158 85" fill="none" xmlns="http://www.w3.org/2000/svg">
<path d="M21.9708 25.5649L78.917 25.5649V76.9999C78.917 80.8659 75.783 83.9999 71.917 83.9999H28.9708C25.1048 83.9999 21.9708 80.8659 21.9708 76.9999L21.9708 25.5649Z" fill="#ECEDF1" stroke="#303030"/>
<path d="M78.917 25.5649L135.863 25.5649V76.9999C135.863 80.8659 132.729 83.9999 128.863 83.9999H85.917C82.051 83.9999 78.917 80.8659 78.917 76.9999L78.917 25.5649Z" fill="#ECEDF1" stroke="#303030"/>
<path d="M156.326 6.95517C156.326 3.66622 153.66 1.00001 150.371 1.00001L7.45516 1C4.16621 1 1.5 3.66622 1.5 6.95516V77C1.5 80.866 4.63401 84 8.50001 84H14.9709C18.8368 84 21.9709 80.866 21.9709 77V25.565L135.856 25.565V77C135.856 80.866 138.99 84 142.856 84H149.326C153.192 84 156.326 80.866 156.326 77V8.00001C156.326 7.99304 156.326 7.98608 156.326 7.97912V6.95517Z" fill="white" stroke="#303030"/>
<path d="M78.9291 29.7194C78.931 32.1962 81.1592 33.5354 83.0855 34.2694C85.3232 35.1219 87.7218 35.4895 90.075 35.7559C92.5076 36.0312 94.9565 36.167 97.4016 36.2382C100.152 36.3182 102.904 36.3152 105.655 36.3312C108.174 36.3459 110.692 36.3217 113.211 36.3071C115.475 36.294 117.739 36.2545 120 36.1272C122.484 35.9874 124.967 35.7925 127.424 35.3674C129.571 34.9962 131.867 34.4882 133.735 33.2426C134.666 32.6216 135.489 31.7423 135.75 30.5718C135.931 29.755 135.841 28.828 135.841 27.9896C135.841 24.8161 135.847 21.6422 135.841 18.4687C135.839 17.5434 135.739 16.6034 135.342 15.7672C134.917 14.871 134.187 14.2216 133.356 13.773C131.294 12.659 128.796 12.4432 126.528 12.2535C123.971 12.0397 121.406 11.9877 118.842 11.9368C116.219 11.8846 113.594 11.9074 110.971 11.8973C108.957 11.8895 106.943 11.8849 104.928 11.8927C102.08 11.9038 99.232 11.8924 96.3845 11.926C93.9347 11.9551 91.481 12.0152 89.0361 12.1869C86.7105 12.3505 84.2522 12.5314 82.0607 13.4433C81.1579 13.8191 80.2882 14.3712 79.7182 15.2266C79.1657 16.0556 78.9662 17.0703 78.9337 18.071C78.8994 19.1243 78.9285 20.1828 78.9285 21.2364C78.9285 23.1562 78.9285 25.0763 78.9285 26.9961C78.9291 27.9044 78.9313 28.812 78.9291 29.7194Z" fill="white" stroke="#303030" stroke-miterlimit="10" stroke-linecap="round" stroke-linejoin="round"/>
<path d="M21.983 29.7194C21.9848 32.1962 24.213 33.5354 26.1393 34.2694C28.377 35.1219 30.7756 35.4895 33.1288 35.7559C35.5614 36.0312 38.0103 36.167 40.4555 36.2382C43.2062 36.3182 45.9575 36.3152 48.7088 36.3312C51.2275 36.3459 53.7459 36.3217 56.2646 36.3071C58.5284 36.294 60.7933 36.2545 63.0543 36.1272C65.5378 35.9874 68.0213 35.7925 70.4781 35.3674C72.6244 34.9962 74.9213 34.4882 76.7888 33.2426C77.7195 32.6216 78.5429 31.7423 78.8034 30.5718C78.9851 29.755 78.8947 28.828 78.8947 27.9896C78.8947 24.8161 78.9011 21.6422 78.8947 18.4687C78.8929 17.5434 78.7923 16.6034 78.3955 15.7672C77.9704 14.871 77.2405 14.2216 76.41 13.773C74.3482 12.659 71.8503 12.4432 69.5817 12.2535C67.0244 12.0397 64.46 11.9877 61.8962 11.9368C59.2733 11.8846 56.648 11.9074 54.0247 11.8973C52.0105 11.8895 49.9965 11.8849 47.9819 11.8927C45.1343 11.9038 42.2859 11.8924 39.4383 11.926C36.9886 11.9551 34.5348 12.0152 32.09 12.1869C29.7643 12.3505 27.306 12.5314 25.1146 13.4433C24.2118 13.8191 23.3421 14.3712 22.7721 15.2266C22.2195 16.0556 22.02 17.0703 21.9876 18.071C21.9532 19.1243 21.9823 20.1828 21.9823 21.2364C21.9823 23.1562 21.9823 25.0763 21.9823 26.9961C21.983 27.9044 21.9851 28.812 21.983 29.7194Z" fill="white" stroke="#303030" stroke-miterlimit="10" stroke-linecap="round" stroke-linejoin="round"/>
<path d="M134.713 69.552C122.868 59.8409 115.896 55.0982 104.718 49.7579C104.125 49.4744 103.957 48.7052 104.383 48.2038C112.862 38.2137 114.303 37.2215 116.419 19.7176C116.522 18.8661 117.587 18.5202 118.175 19.1445C128.387 29.9824 134.446 32.4518 151.708 37.0624C152.471 37.266 152.708 38.2344 152.135 38.7768C140.615 49.6864 141.606 52.6231 136.299 69.0843C136.083 69.754 135.257 69.9981 134.713 69.552Z" fill="white" stroke="#303030"/>
</svg>
