<svg width="215" height="85" viewBox="0 0 215 85" fill="none" xmlns="http://www.w3.org/2000/svg">
<path d="M21.9708 25.5649L78.917 25.5649V76.9999C78.917 80.8659 75.783 83.9999 71.917 83.9999H28.9708C25.1048 83.9999 21.9708 80.8659 21.9708 76.9999L21.9708 25.5649Z" fill="#ECEDF1" stroke="#303030"/>
<path d="M78.917 25.5649L135.863 25.5649V76.9999C135.863 80.8659 132.729 83.9999 128.863 83.9999H85.917C82.051 83.9999 78.917 80.8659 78.917 76.9999L78.917 25.5649Z" fill="#ECEDF1" stroke="#303030"/>
<path d="M135.863 25.5649L192.809 25.5649V76.9999C192.809 80.8659 189.675 83.9999 185.809 83.9999H142.863C138.997 83.9999 135.863 80.8659 135.863 76.9999V25.5649Z" fill="#ECEDF1" stroke="#303030"/>
<path d="M213.28 6.95517C213.28 3.66622 210.614 1.00001 207.325 1.00001L7.45516 1C4.16621 1 1.5 3.66622 1.5 6.95516V77C1.5 80.866 4.63401 84 8.50001 84H14.9709C18.8368 84 21.9709 80.866 21.9709 77V25.565L192.809 25.565V77C192.809 80.866 195.943 84 199.809 84H206.28C210.146 84 213.28 80.866 213.28 77V8.00001C213.28 7.99304 213.28 7.98608 213.28 7.97912V6.95517Z" fill="white" stroke="#303030"/>
<path d="M135.875 29.7194C135.877 32.1962 138.105 33.5354 140.032 34.2694C142.269 35.1219 144.668 35.4895 147.021 35.7559C149.454 36.0312 151.903 36.167 154.348 36.2382C157.098 36.3182 159.85 36.3152 162.601 36.3312C165.12 36.3459 167.638 36.3217 170.157 36.3071C172.421 36.294 174.686 36.2545 176.947 36.1272C179.43 35.9874 181.914 35.7925 184.37 35.3674C186.517 34.9962 188.814 34.4882 190.681 33.2426C191.612 32.6216 192.435 31.7423 192.696 30.5718C192.877 29.755 192.787 28.828 192.787 27.9896C192.787 24.8161 192.793 21.6422 192.787 18.4687C192.785 17.5434 192.685 16.6034 192.288 15.7672C191.863 14.871 191.133 14.2216 190.302 13.773C188.241 12.659 185.743 12.4432 183.474 12.2535C180.917 12.0397 178.352 11.9877 175.789 11.9368C173.166 11.8846 170.54 11.9074 167.917 11.8973C165.903 11.8895 163.889 11.8849 161.874 11.8927C159.027 11.9038 156.178 11.8924 153.331 11.926C150.881 11.9551 148.427 12.0152 145.982 12.1869C143.657 12.3505 141.198 12.5314 139.007 13.4433C138.104 13.8191 137.234 14.3712 136.664 15.2266C136.112 16.0556 135.912 17.0703 135.88 18.071C135.846 19.1243 135.875 20.1828 135.875 21.2364C135.875 23.1562 135.875 25.0763 135.875 26.9961C135.875 27.9044 135.877 28.812 135.875 29.7194Z" fill="white" stroke="#303030" stroke-miterlimit="10" stroke-linecap="round" stroke-linejoin="round"/>
<path d="M78.9291 29.7194C78.931 32.1962 81.1592 33.5354 83.0855 34.2694C85.3232 35.1219 87.7218 35.4895 90.075 35.7559C92.5076 36.0312 94.9565 36.167 97.4016 36.2382C100.152 36.3182 102.904 36.3152 105.655 36.3312C108.174 36.3459 110.692 36.3217 113.211 36.3071C115.475 36.294 117.739 36.2545 120 36.1272C122.484 35.9874 124.967 35.7925 127.424 35.3674C129.571 34.9962 131.867 34.4882 133.735 33.2426C134.666 32.6216 135.489 31.7423 135.75 30.5718C135.931 29.755 135.841 28.828 135.841 27.9896C135.841 24.8161 135.847 21.6422 135.841 18.4687C135.839 17.5434 135.739 16.6034 135.342 15.7672C134.917 14.871 134.187 14.2216 133.356 13.773C131.294 12.659 128.796 12.4432 126.528 12.2535C123.971 12.0397 121.406 11.9877 118.842 11.9368C116.219 11.8846 113.594 11.9074 110.971 11.8973C108.957 11.8895 106.943 11.8849 104.928 11.8927C102.08 11.9038 99.232 11.8924 96.3845 11.926C93.9347 11.9551 91.481 12.0152 89.0361 12.1869C86.7105 12.3505 84.2522 12.5314 82.0607 13.4433C81.1579 13.8191 80.2882 14.3712 79.7182 15.2266C79.1657 16.0556 78.9662 17.0703 78.9337 18.071C78.8994 19.1243 78.9285 20.1828 78.9285 21.2364C78.9285 23.1562 78.9285 25.0763 78.9285 26.9961C78.9291 27.9044 78.9313 28.812 78.9291 29.7194Z" fill="white" stroke="#303030" stroke-miterlimit="10" stroke-linecap="round" stroke-linejoin="round"/>
<path d="M21.983 29.7194C21.9848 32.1962 24.213 33.5354 26.1393 34.2694C28.377 35.1219 30.7756 35.4895 33.1288 35.7559C35.5614 36.0312 38.0103 36.167 40.4555 36.2382C43.2062 36.3182 45.9575 36.3152 48.7088 36.3312C51.2275 36.3459 53.7459 36.3217 56.2646 36.3071C58.5284 36.294 60.7933 36.2545 63.0543 36.1272C65.5378 35.9874 68.0213 35.7925 70.4781 35.3674C72.6244 34.9962 74.9213 34.4882 76.7888 33.2426C77.7195 32.6216 78.5429 31.7423 78.8034 30.5718C78.9851 29.755 78.8947 28.828 78.8947 27.9896C78.8947 24.8161 78.9011 21.6422 78.8947 18.4687C78.8929 17.5434 78.7923 16.6034 78.3955 15.7672C77.9704 14.871 77.2405 14.2216 76.41 13.773C74.3482 12.659 71.8503 12.4432 69.5817 12.2535C67.0244 12.0397 64.46 11.9877 61.8962 11.9368C59.2733 11.8846 56.648 11.9074 54.0247 11.8973C52.0105 11.8895 49.9965 11.8849 47.9819 11.8927C45.1343 11.9038 42.2859 11.8924 39.4383 11.926C36.9886 11.9551 34.5348 12.0152 32.09 12.1869C29.7643 12.3505 27.306 12.5314 25.1146 13.4433C24.2118 13.8191 23.3421 14.3712 22.7721 15.2266C22.2195 16.0556 22.02 17.0703 21.9876 18.071C21.9532 19.1243 21.9823 20.1828 21.9823 21.2364C21.9823 23.1562 21.9823 25.0763 21.9823 26.9961C21.983 27.9044 21.9851 28.812 21.983 29.7194Z" fill="white" stroke="#303030" stroke-miterlimit="10" stroke-linecap="round" stroke-linejoin="round"/>
<path d="M11.8314 37.1199C25.7474 30.7209 33.0635 26.528 42.7577 18.8154C43.2723 18.406 44.0374 18.5919 44.3019 19.194C49.5725 31.1909 49.8339 32.9206 64.6455 42.4853C65.3661 42.9506 65.2111 44.059 64.3924 44.3146C50.1776 48.7529 45.3054 53.1194 33.6039 66.622C33.0873 67.2182 32.1126 67.0079 31.8756 66.2554C27.1094 51.1218 24.0353 50.7272 11.5575 38.7509C11.0498 38.2637 11.192 37.4139 11.8314 37.1199Z" fill="white" stroke="#303030"/>
</svg>
