<svg width="204" height="39" viewBox="0 0 204 39" fill="none" xmlns="http://www.w3.org/2000/svg">
<path d="M202.5 1H1.5V38H202.5V1Z" fill="white" stroke="#303030" stroke-miterlimit="10" stroke-linecap="round" stroke-linejoin="round"/>
<path d="M202.5 1H1.5V38H202.5V1Z" stroke="#303030" stroke-miterlimit="10" stroke-linecap="round" stroke-linejoin="round"/>
<path d="M51.5 35H1.5V38H51.5V35Z" fill="#ECEDF1" stroke="#303030" stroke-miterlimit="10" stroke-linecap="round" stroke-linejoin="round"/>
<path d="M101.5 35H51.5V38H101.5V35Z" fill="#ECEDF1" stroke="#303030" stroke-miterlimit="10" stroke-linecap="round" stroke-linejoin="round"/>
<path d="M152.5 35H101.5V38H152.5V35Z" fill="#ECEDF1" stroke="#303030" stroke-miterlimit="10" stroke-linecap="round" stroke-linejoin="round"/>
<path d="M202.5 35H152.5V38H202.5V35Z" fill="#ECEDF1" stroke="#303030" stroke-miterlimit="10" stroke-linecap="round" stroke-linejoin="round"/>
<path d="M176.595 18.4062H26.4048V20.2188H176.595V18.4062Z" fill="#ECEDF1" stroke="#303030" stroke-miterlimit="10" stroke-linecap="round" stroke-linejoin="round"/>
<path d="M110.014 18.4061C109.195 18.4061 108.375 18.4061 107.556 18.4061C105.72 18.4061 103.883 18.4061 102.047 18.4061C100.12 18.4061 98.1941 18.4061 96.2675 18.4061C95.2031 18.4061 94.1384 18.4061 93.074 18.4061C92.8803 18.4061 92.687 18.4061 92.4933 18.4061C91.8868 18.4061 91.2806 18.4061 90.674 18.4061C89.6793 18.4061 88.6848 18.4061 87.69 18.4061C86.3685 18.4061 85.0467 18.4061 83.7252 18.4061C82.1309 18.4061 80.5368 18.4061 78.9425 18.4061C77.1501 18.4061 75.358 18.4061 73.5656 18.4061C71.6306 18.4061 69.6953 18.4061 67.7603 18.4061C65.7436 18.4061 63.727 18.4061 61.7103 18.4061C59.6735 18.4061 57.6367 18.4061 55.5999 18.4061C53.6042 18.4061 51.6085 18.4061 49.613 18.4061C47.7198 18.4061 45.8263 18.4061 43.9331 18.4061C42.2037 18.4061 40.474 18.4061 38.7446 18.4061C37.2401 18.4061 35.7356 18.4061 34.2309 18.4061C33.0127 18.4061 31.7947 18.4061 30.5764 18.4061C29.7031 18.4061 28.8298 18.4061 27.9565 18.4061C27.4966 18.4061 27.0369 18.4061 26.577 18.4061C26.5198 18.4061 26.4623 18.4061 26.4048 18.4061C27.5158 18.0544 28.6524 17.7625 29.8034 17.5023C30.9373 17.246 32.0869 17.0279 33.2404 16.8333C34.4843 16.6234 35.7342 16.4408 36.9875 16.2692C38.194 16.1041 39.4066 15.9619 40.6196 15.8289C41.8095 15.6984 43.0028 15.5815 44.1964 15.4732C45.458 15.3586 46.7218 15.2579 47.9856 15.1603C49.0605 15.0772 50.1366 15.0064 51.2135 14.9401C52.4049 14.8668 53.596 14.7839 54.7886 14.7244C56.1987 14.654 57.6084 14.5768 59.019 14.5134C60.3669 14.4527 61.7161 14.4064 63.0642 14.3529C64.1078 14.3115 65.1518 14.2812 66.1958 14.2493C67.3033 14.2155 68.4108 14.1756 69.5188 14.1507C71.0892 14.1153 72.6596 14.0801 74.2301 14.0447C75.2743 14.0212 76.3194 14.0097 77.3639 13.9939C78.4318 13.9776 79.5003 13.9529 80.5684 13.9461C81.7058 13.9387 82.8434 13.9333 83.9808 13.9268C85.7889 13.9165 87.5967 13.9064 89.4048 13.8961C90.5598 13.8895 91.7146 13.8829 92.8696 13.8765C93.3793 13.8735 93.889 13.8759 94.3987 13.8759C95.8845 13.8759 97.3706 13.8759 98.8563 13.8759C100.682 13.8759 102.508 13.8759 104.333 13.8759C105.799 13.8759 107.264 13.8759 108.73 13.8759C109.212 13.8759 109.695 13.8741 110.177 13.8768C111.378 13.8837 112.578 13.8905 113.778 13.8973C115.585 13.9074 117.392 13.9177 119.199 13.928C120.289 13.9342 121.378 13.9379 122.468 13.9465C123.598 13.9554 124.728 13.9803 125.858 13.9974C126.868 14.0128 127.878 14.0249 128.888 14.0476C130.452 14.0828 132.017 14.118 133.581 14.153C134.721 14.1787 135.86 14.2205 137 14.2553C138.032 14.2868 139.064 14.3183 140.096 14.3594C141.4 14.4111 142.705 14.4547 144.008 14.5148C145.445 14.5811 146.882 14.6581 148.318 14.7299C149.532 14.7904 150.745 14.8761 151.958 14.9508C153.011 15.0156 154.064 15.0856 155.115 15.1684C156.358 15.2663 157.602 15.3629 158.843 15.4771C160.046 15.5878 161.25 15.7021 162.45 15.8369C163.7 15.9775 164.949 16.1238 166.193 16.2941C167.436 16.4641 168.674 16.6473 169.906 16.8581C171.073 17.0579 172.232 17.2843 173.379 17.5437C174.469 17.7901 175.544 18.0735 176.595 18.4062C176.002 18.4062 175.408 18.4062 174.814 18.4062C173.199 18.4062 171.583 18.4062 169.967 18.4062C167.578 18.4062 165.189 18.4062 162.799 18.4062C159.883 18.4062 156.968 18.4062 154.053 18.4062C150.86 18.4062 147.667 18.4062 144.473 18.4062C141.25 18.4062 138.027 18.4062 134.805 18.4062C131.8 18.4062 128.796 18.4062 125.791 18.4062C123.253 18.4062 120.715 18.4062 118.176 18.4062C116.353 18.4062 114.529 18.4062 112.705 18.4062C111.845 18.4062 110.986 18.4062 110.126 18.4062C110.089 18.4061 110.052 18.4061 110.014 18.4061Z" fill="#ECEDF1" stroke="#303030" stroke-miterlimit="10" stroke-linecap="round" stroke-linejoin="round"/>
<path d="M50.144 14.7398C49.5937 13.381 49.0435 12.0225 48.4934 10.6637C47.7181 8.74963 46.9431 6.83535 46.1678 4.92127C46.0218 4.56084 45.9029 3.98773 45.448 3.92276C45.1054 3.87371 44.692 3.91751 44.5416 4.28149C44.465 4.46685 44.5059 4.6393 44.57 4.81661C45.1778 6.4974 45.7861 8.17838 46.3941 9.85917C46.9916 11.5108 47.589 13.1623 48.1865 14.8139C48.1972 14.8439 48.208 14.8736 48.219 14.9036" fill="#ECEDF1"/>
<path d="M50.144 14.7398C49.5937 13.381 49.0435 12.0225 48.4934 10.6637C47.7181 8.74963 46.9431 6.83535 46.1678 4.92127C46.0218 4.56084 45.9029 3.98773 45.448 3.92276C45.1054 3.87371 44.692 3.91751 44.5416 4.28149C44.465 4.46685 44.5059 4.6393 44.57 4.81661C45.1778 6.4974 45.7861 8.17838 46.3941 9.85917C46.9916 11.5108 47.589 13.1623 48.1865 14.8139C48.1972 14.8439 48.208 14.8736 48.219 14.9036" stroke="#303030" stroke-miterlimit="10" stroke-linecap="round" stroke-linejoin="round"/>
<path d="M50.3363 20.6836C49.7726 22.0755 49.2088 23.4676 48.6452 24.8594C47.833 26.8649 47.0209 28.8703 46.2087 30.8758C46.0679 31.2235 45.9384 31.8402 45.5279 31.9586C45.194 32.0548 44.7279 31.9955 44.5585 31.6541C44.4647 31.465 44.4987 31.2795 44.5661 31.0928C45.192 29.3622 45.8181 27.6318 46.4441 25.9012C47.0627 24.191 47.6814 22.481 48.3 20.7708C48.3106 20.7418 48.321 20.7128 48.3316 20.6836" fill="#ECEDF1"/>
<path d="M50.3363 20.6836C49.7726 22.0755 49.2088 23.4676 48.6452 24.8594C47.833 26.8649 47.0209 28.8703 46.2087 30.8758C46.0679 31.2235 45.9384 31.8402 45.5279 31.9586C45.194 32.0548 44.7279 31.9955 44.5585 31.6541C44.4647 31.465 44.4987 31.2795 44.5661 31.0928C45.192 29.3622 45.8181 27.6318 46.4441 25.9012C47.0627 24.191 47.6814 22.481 48.3 20.7708C48.3106 20.7418 48.321 20.7128 48.3316 20.6836" stroke="#303030" stroke-miterlimit="10" stroke-linecap="round" stroke-linejoin="round"/>
<path d="M149.452 20.3411C150.016 21.733 150.58 23.125 151.144 24.5169C151.956 26.5224 152.768 28.5278 153.58 30.5333C153.721 30.881 153.85 31.4977 154.261 31.616C154.595 31.7123 155.061 31.6529 155.23 31.3116C155.324 31.1225 155.29 30.9369 155.223 30.7503C154.597 29.0197 153.971 27.2893 153.345 25.5587C152.726 23.8485 152.107 22.1385 151.489 20.4283C151.478 20.3993 151.468 20.3703 151.457 20.3411" fill="#ECEDF1"/>
<path d="M149.452 20.3411C150.016 21.733 150.58 23.125 151.144 24.5169C151.956 26.5224 152.768 28.5278 153.58 30.5333C153.721 30.881 153.85 31.4977 154.261 31.616C154.595 31.7123 155.061 31.6529 155.23 31.3116C155.324 31.1225 155.29 30.9369 155.223 30.7503C154.597 29.0197 153.971 27.2893 153.345 25.5587C152.726 23.8485 152.107 22.1385 151.489 20.4283C151.478 20.3993 151.468 20.3703 151.457 20.3411" stroke="#303030" stroke-miterlimit="10" stroke-linecap="round" stroke-linejoin="round"/>
<path d="M149.645 14.7398C150.195 13.381 150.745 12.0225 151.295 10.6637C152.071 8.74963 152.846 6.83535 153.621 4.92127C153.767 4.56084 153.886 3.98773 154.341 3.92276C154.683 3.87371 155.097 3.91751 155.247 4.28149C155.324 4.46685 155.283 4.6393 155.219 4.81661C154.611 6.4974 154.003 8.17838 153.395 9.85917C152.797 11.5108 152.2 13.1623 151.602 14.8139C151.591 14.8439 151.581 14.8736 151.57 14.9036" fill="#ECEDF1"/>
<path d="M149.645 14.7398C150.195 13.381 150.745 12.0225 151.295 10.6637C152.071 8.74963 152.846 6.83535 153.621 4.92127C153.767 4.56084 153.886 3.98773 154.341 3.92276C154.683 3.87371 155.097 3.91751 155.247 4.28149C155.324 4.46685 155.283 4.6393 155.219 4.81661C154.611 6.4974 154.003 8.17838 153.395 9.85917C152.797 11.5108 152.2 13.1623 151.602 14.8139C151.591 14.8439 151.581 14.8736 151.57 14.9036" stroke="#303030" stroke-miterlimit="10" stroke-linecap="round" stroke-linejoin="round"/>
</svg>
