<svg width="138" height="66" viewBox="0 0 138 66" fill="none" xmlns="http://www.w3.org/2000/svg">
<path d="M136.3 62.1091L136.3 1L1.5007 0.999994L1.5007 62.1091L136.3 62.1091Z" fill="#ECEDF1" stroke="#303030" stroke-miterlimit="10" stroke-linecap="round" stroke-linejoin="round"/>
<path d="M86.2595 59.1091H18.8601V62.1091H86.2595V59.1091Z" fill="white" stroke="#303030" stroke-miterlimit="10" stroke-linecap="round" stroke-linejoin="round"/>
<path d="M136.3 62.1091H68.9001V65.1091H136.3V62.1091Z" fill="white" stroke="#303030" stroke-miterlimit="10" stroke-linecap="round" stroke-linejoin="round"/>
<path d="M131.747 31.4307L6.05298 31.4307" stroke="#303030" stroke-linecap="round" stroke-linejoin="round" stroke-dasharray="3.03 8.04"/>
<path d="M53.9114 46.8235L57.3449 16.037" stroke="#303030" stroke-miterlimit="10" stroke-linecap="round" stroke-linejoin="round"/>
<path d="M26.3357 46.8235L29.7689 16.037" stroke="#303030" stroke-miterlimit="10" stroke-linecap="round" stroke-linejoin="round"/>
<path d="M18.8601 46.8826L18.8601 15.9784" stroke="#303030" stroke-miterlimit="10" stroke-linecap="round" stroke-linejoin="round"/>
<path d="M48.153 46.8235L44.7195 16.037" stroke="#303030" stroke-miterlimit="10" stroke-linecap="round" stroke-linejoin="round"/>
<path d="M74.012 46.8826L74.012 15.9784" stroke="#303030" stroke-miterlimit="10" stroke-linecap="round" stroke-linejoin="round"/>
<path d="M83.2043 46.8826L83.2043 15.9784" stroke="#303030" stroke-miterlimit="10" stroke-linecap="round" stroke-linejoin="round"/>
<path d="M94.113 46.8235L90.6794 16.037" stroke="#303030" stroke-miterlimit="10" stroke-linecap="round" stroke-linejoin="round"/>
<path d="M66.5373 46.8235L63.1038 16.037" stroke="#303030" stroke-miterlimit="10" stroke-linecap="round" stroke-linejoin="round"/>
<path d="M101.588 46.8826L101.588 15.9784" stroke="#303030" stroke-miterlimit="10" stroke-linecap="round" stroke-linejoin="round"/>
<path d="M109.063 46.8235L112.497 16.037" stroke="#303030" stroke-miterlimit="10" stroke-linecap="round" stroke-linejoin="round"/>
<path d="M121.689 46.8235L118.255 16.037" stroke="#303030" stroke-miterlimit="10" stroke-linecap="round" stroke-linejoin="round"/>
<path d="M129.164 46.8826L129.164 15.9784" stroke="#303030" stroke-miterlimit="10" stroke-linecap="round" stroke-linejoin="round"/>
<path d="M37.2441 46.8826L37.2441 15.9784" stroke="#303030" stroke-miterlimit="10" stroke-linecap="round" stroke-linejoin="round"/>
<path d="M9.66821 46.8826L9.66821 15.9784" stroke="#303030" stroke-miterlimit="10" stroke-linecap="round" stroke-linejoin="round"/>
<path d="M136.3 59.1091L1.5007 59.1091" stroke="#303030" stroke-miterlimit="10" stroke-linecap="round" stroke-linejoin="round" stroke-dasharray="2 2"/>
</svg>
