<svg width="150" height="113" viewBox="0 0 150 113" fill="none" xmlns="http://www.w3.org/2000/svg">
<path d="M99.4219 63.0681C99.4238 63.307 99.4271 63.5454 99.4324 63.7843" stroke="#303030" stroke-linecap="round" stroke-linejoin="round"/>
<path d="M99.5305 66.1709C99.623 67.6423 99.7772 69.1089 100.006 70.5698C100.393 73.0377 100.975 75.4727 101.733 77.8528C102.485 80.2106 103.431 82.5006 104.528 84.7186C105.628 86.94 106.916 89.0699 108.346 91.0953C109.777 93.1197 111.364 95.0379 113.092 96.8173C114.813 98.5905 116.659 100.244 118.632 101.737C120.623 103.244 122.72 104.61 124.919 105.8C127.125 106.994 129.422 108.024 131.786 108.869C134.162 109.718 136.604 110.383 139.083 110.859C141.498 111.323 143.949 111.6 146.406 111.698" stroke="#303030" stroke-linecap="round" stroke-linejoin="round" stroke-dasharray="3.01 5.01"/>
<path d="M147.607 111.729C147.846 111.732 148.086 111.734 148.325 111.736C148.325 111.498 148.325 111.259 148.325 111.021" stroke="#303030" stroke-linecap="round" stroke-linejoin="round"/>
<path d="M148.325 108.682C148.325 108.084 148.325 107.486 148.325 106.887C148.325 103.007 148.325 99.1266 148.325 95.2459C148.325 90.5686 148.325 85.8913 148.325 81.2139C148.325 77.1688 148.325 73.1237 148.325 69.0786C148.325 67.7035 148.325 66.328 148.325 64.9529" stroke="#303030" stroke-linecap="round" stroke-linejoin="round" stroke-dasharray="2.94 4.9"/>
<path d="M148.325 63.7833C148.325 63.5716 148.325 63.3599 148.325 63.1478C148.325 63.1211 148.325 63.0943 148.325 63.0681" stroke="#303030" stroke-linecap="round" stroke-linejoin="round"/>
<path d="M50.5183 63.0681C50.5202 63.307 50.524 63.5454 50.5288 63.7843" stroke="#303030" stroke-linecap="round" stroke-linejoin="round"/>
<path d="M50.627 66.1709C50.7194 67.6423 50.8737 69.1089 51.1027 70.5698C51.4893 73.0377 52.0714 75.4727 52.8298 77.8528C53.5811 80.2106 54.5278 82.5006 55.6249 84.7186C56.724 86.94 58.0127 89.0699 59.4433 91.0953C60.8734 93.1197 62.4612 95.0379 64.1888 96.8173C65.9098 98.5905 67.7562 100.244 69.7287 101.737C71.7198 103.244 73.8173 104.61 76.0154 105.8C78.2221 106.994 80.5194 108.024 82.8833 108.869C85.2587 109.718 87.7011 110.383 90.1795 110.859C92.5946 111.323 95.0457 111.6 97.503 111.698" stroke="#303030" stroke-linecap="round" stroke-linejoin="round" stroke-dasharray="3.01 5.01"/>
<path d="M98.7031 111.729C98.9427 111.732 99.1822 111.734 99.4218 111.736C99.4218 111.498 99.4218 111.259 99.4218 111.021" stroke="#303030" stroke-linecap="round" stroke-linejoin="round"/>
<path d="M99.4219 108.682C99.4219 108.084 99.4219 107.486 99.4219 106.887C99.4219 103.007 99.4219 99.1266 99.4219 95.2459C99.4219 90.5686 99.4219 85.8913 99.4219 81.2139C99.4219 77.1688 99.4219 73.1237 99.4219 69.0786C99.4219 67.7035 99.4219 66.328 99.4219 64.9529" stroke="#303030" stroke-linecap="round" stroke-linejoin="round" stroke-dasharray="2.94 4.9"/>
<path d="M99.4219 63.7833C99.4219 63.5716 99.4219 63.3599 99.4219 63.1478C99.4219 63.1211 99.4219 63.0943 99.4219 63.0681" stroke="#303030" stroke-linecap="round" stroke-linejoin="round"/>
<path d="M50.5181 63.0681C50.5162 63.307 50.5128 63.5454 50.5076 63.7843" stroke="#303030" stroke-linecap="round" stroke-linejoin="round"/>
<path d="M50.4093 66.1709C50.3168 67.6423 50.1621 69.1089 49.9335 70.5698C49.5469 73.0377 48.9648 75.4727 48.2064 77.8528C47.4552 80.2106 46.5085 82.5006 45.4113 84.7186C44.3123 86.94 43.0235 89.0699 41.5929 91.0953C40.1628 93.1197 38.575 95.0379 36.8474 96.8173C35.1265 98.5905 33.28 100.244 31.3076 101.737C29.3164 103.244 27.2189 104.61 25.0208 105.8C22.8141 106.994 20.5168 108.024 18.1529 108.869C15.7776 109.718 13.3351 110.383 10.8567 110.859C8.44158 111.323 5.99051 111.6 3.5332 111.698" stroke="#303030" stroke-linecap="round" stroke-linejoin="round" stroke-dasharray="3.01 5.01"/>
<path d="M2.33364 111.729C2.09409 111.732 1.85454 111.734 1.61499 111.736C1.61499 111.498 1.61499 111.259 1.61499 111.021" stroke="#303030" stroke-linecap="round" stroke-linejoin="round"/>
<path d="M1.61499 108.682C1.61499 108.084 1.61499 107.486 1.61499 106.887C1.61499 103.007 1.61499 99.1266 1.61499 95.2459C1.61499 90.5686 1.61499 85.8913 1.61499 81.2139C1.61499 77.1688 1.61499 73.1237 1.61499 69.0786C1.61499 67.7035 1.61499 66.328 1.61499 64.9529" stroke="#303030" stroke-linecap="round" stroke-linejoin="round" stroke-dasharray="2.94 4.9"/>
<path d="M1.61499 63.7833C1.61499 63.5716 1.61499 63.3599 1.61499 63.1478C1.61499 63.1211 1.61499 63.0943 1.61499 63.0681" stroke="#303030" stroke-linecap="round" stroke-linejoin="round"/>
<path d="M148.325 1.01636H1.61499V60.0681H148.325V1.01636Z" fill="#ECEDF1" stroke="#303030" stroke-miterlimit="10" stroke-linecap="round" stroke-linejoin="round"/>
<path d="M148.325 1.01636H1.61499V51.7263H148.325V1.01636Z" fill="#ECEDF1" stroke="#303030" stroke-miterlimit="10" stroke-linecap="round" stroke-linejoin="round"/>
<path d="M45.8721 63.0681L45.8721 64.4482C45.8896 64.4584 45.9067 64.469 45.9067 64.469C45.9241 64.4795 45.9412 64.4905 45.9412 64.4905C45.9583 64.5015 45.9753 64.5128 45.9753 64.5128C45.9924 64.5242 46.0095 64.5356 46.0095 64.5356C46.0265 64.5474 46.0432 64.5591 46.0432 64.5591C46.0598 64.5713 46.0765 64.5835 46.0765 64.5835C46.0931 64.5961 46.1098 64.6087 46.1098 64.6087C46.1265 64.6217 46.1427 64.6347 46.1427 64.6347C46.159 64.6481 46.1752 64.6615 46.1752 64.6615C46.1915 64.6753 46.2073 64.6892 46.2073 64.6892C46.2232 64.7034 46.239 64.7176 46.239 64.7176C46.2548 64.7322 46.2703 64.7468 46.2703 64.7468C46.2857 64.7619 46.3012 64.7769 46.3012 64.7769C46.3162 64.7924 46.3316 64.8078 46.3316 64.8078C46.3467 64.8236 46.3613 64.8391 46.3613 64.8391C46.3759 64.8549 46.3905 64.8712 46.3905 64.8712C46.4048 64.8874 46.4194 64.9041 46.4194 64.9041C46.4336 64.9207 46.4474 64.9378 46.4474 64.9378C46.4612 64.9549 46.475 64.9719 46.475 64.9719C46.4885 64.9894 46.5019 65.0069 46.5019 65.0069C46.5149 65.0247 46.5279 65.0426 46.5279 65.0426C46.5409 65.0605 46.5535 65.0788 46.5535 65.0788C46.5661 65.0971 46.5782 65.1157 46.5782 65.1157C46.5904 65.1344 46.6022 65.1531 46.6022 65.1531C46.614 65.1722 46.6254 65.1913 46.6254 65.1913C46.6367 65.2104 46.6477 65.2299 46.6477 65.2299C46.6587 65.2494 46.6692 65.2689 46.6692 65.2689C46.6798 65.2888 46.69 65.3083 46.69 65.3083C46.7001 65.3282 46.7099 65.3485 46.7099 65.3485C46.7196 65.3689 46.729 65.3892 46.729 65.3892C46.7383 65.4095 46.7473 65.4302 46.7473 65.4302C46.7562 65.4509 46.7647 65.4716 46.7647 65.4716C46.7733 65.4924 46.7814 65.5131 46.7814 65.5131C46.7895 65.5342 46.7972 65.5549 46.7972 65.5549C46.8049 65.5761 46.8123 65.5972 46.8123 65.5972C46.8192 65.6183 46.8261 65.6398 46.8261 65.6398C46.8326 65.6614 46.8391 65.6825 46.8391 65.6825C46.8452 65.704 46.8513 65.7256 46.8513 65.7256C46.857 65.7471 46.8626 65.7686 46.8626 65.7686C46.8679 65.7902 46.8728 65.8121 46.8728 65.8121C46.8777 65.8336 46.8821 65.8556 46.8821 65.8556C46.8866 65.8775 46.8907 65.899 46.8907 65.899C46.8943 65.921 46.898 65.9425 46.898 65.9425C46.9012 65.9644 46.9045 65.986 46.9045 65.986C46.9073 66.0079 46.9102 66.0299 46.9102 66.0299C46.9126 66.0518 46.915 66.0733 46.915 66.0733C46.9171 66.0953 46.9187 66.1168 46.9187 66.1168C46.9203 66.1387 46.9215 66.1603 46.9215 66.1603C46.9228 66.1818 46.9236 66.2037 46.9236 66.2037C46.9244 66.2253 46.9248 66.2472 46.9248 66.2472C46.9248 66.2688 46.9248 66.2903 46.9248 66.2903C46.9244 66.3118 46.924 66.3334 46.924 66.3334C46.9232 66.3549 46.9224 66.376 46.9224 66.376C46.9211 66.3971 46.9199 66.4187 46.9199 66.4187C46.9183 66.4398 46.9167 66.4609 46.9167 66.4609C46.9146 66.482 46.9126 66.5028 46.9126 66.5028C46.9102 66.5235 46.9077 66.5446 46.9077 66.5446C46.9049 66.5653 46.9021 66.5861 46.9021 66.5861C46.8988 66.6068 46.8955 66.6271 46.8955 66.6271C46.8919 66.6474 46.8882 66.6677 46.8882 66.6677C46.8842 66.688 46.8801 66.708 46.8801 66.708C46.876 66.7279 46.8716 66.7478 46.8716 66.7478C46.8671 66.7677 46.8622 66.7872 46.8622 66.7872C46.8574 66.8067 46.8521 66.8262 46.8521 66.8262C46.8468 66.8457 46.8411 66.8652 46.8411 66.8652C46.8354 66.8847 46.8293 66.9042 46.8293 66.9042C46.8232 66.9237 46.8167 66.9432 46.8167 66.9432C46.8102 66.9627 46.8033 66.9822 46.8033 66.9822C46.7964 67.0017 46.7891 67.0212 46.7891 67.0212C46.7818 67.0407 46.7741 67.0598 46.7741 67.0598C46.7664 67.0793 46.7582 67.0984 46.7582 67.0984C46.7501 67.1175 46.7416 67.137 46.7416 67.137C46.733 67.1561 46.7241 67.1752 46.7241 67.1752C46.7152 67.1943 46.7058 67.2133 46.7058 67.2133C46.6965 67.2324 46.6867 67.2516 46.6867 67.2516C46.677 67.2706 46.6668 67.2893 46.6668 67.2893C46.6563 67.308 46.6457 67.3267 46.6457 67.3267C46.6347 67.3454 46.6237 67.3641 46.6237 67.3641C46.6124 67.3828 46.601 67.4011 46.601 67.4011C46.5892 67.4193 46.5774 67.4376 46.5774 67.4376C46.5652 67.4559 46.5531 67.4738 46.5531 67.4738C46.5405 67.4917 46.5279 67.5095 46.5279 67.5095C46.5149 67.5274 46.5019 67.5449 46.5019 67.5449C46.4885 67.5624 46.475 67.5798 46.475 67.5798C46.4612 67.5973 46.4474 67.6143 46.4474 67.6143C46.4332 67.6314 46.419 67.6485 46.419 67.6485C46.4044 67.6651 46.3897 67.6818 46.3897 67.6818C46.3747 67.6984 46.3597 67.7147 46.3597 67.7147C46.3446 67.7309 46.3292 67.7472 46.3292 67.7472C46.3138 67.763 46.2979 67.7789 46.2979 67.7789C46.2821 67.7943 46.2658 67.8102 46.2658 67.8102C46.2496 67.8256 46.2329 67.8406 46.2329 67.8406C46.2163 67.8557 46.1996 67.8703 46.1996 67.8703C46.1825 67.8849 46.1655 67.8996 46.1655 67.8996C46.1484 67.9138 46.1309 67.928 46.1309 67.928C46.1135 67.9418 46.0956 67.9556 46.0956 67.9556C46.0777 67.969 46.0598 67.9824 46.0598 67.9824C46.0415 67.9954 46.0233 68.0084 46.0233 68.0084C46.005 68.021 45.9863 68.0336 45.9863 68.0336C45.9676 68.0458 45.9489 68.058 45.9489 68.058C45.9298 68.0698 45.9111 68.0816 45.9111 68.0816C45.892 68.0929 45.8729 68.1043 45.8729 68.1043C45.8534 68.1153 45.8343 68.1263 45.8343 68.1263C45.8148 68.1368 45.7953 68.1474 45.7953 68.1474C45.7754 68.1575 45.7559 68.1677 45.7559 68.1677C45.736 68.1774 45.7161 68.1872 45.7161 68.1872C45.6962 68.1965 45.6759 68.2059 45.6759 68.2059C45.6556 68.2148 45.6353 68.2234 45.6353 68.2234C45.615 68.2319 45.5946 68.24 45.5946 68.24C45.5743 68.2481 45.5536 68.2559 45.5536 68.2559C45.5329 68.2636 45.5126 68.2709 45.5126 68.2709C45.4919 68.2782 45.4711 68.2851 45.4711 68.2851C45.4504 68.2916 45.4297 68.2981 45.4297 68.2981C45.409 68.3042 45.3883 68.3103 45.3883 68.3103C45.3675 68.316 45.3468 68.3217 45.3468 68.3217C45.3261 68.327 45.305 68.3322 45.305 68.3322C45.2842 68.3371 45.2631 68.342 45.2631 68.342C45.2424 68.3465 45.2213 68.3505 45.2213 68.3505C45.2006 68.3546 45.1794 68.3583 45.1794 68.3583C45.1587 68.3619 45.138 68.3651 45.138 68.3651C45.1173 68.3684 45.0966 68.3712 45.0966 68.3712C45.0758 68.3741 45.0551 68.3765 45.0551 68.3765C45.0344 68.379 45.0137 68.381 45.0137 68.381C44.993 68.383 44.9726 68.3847 44.9726 68.3847C44.9519 68.3863 44.9316 68.3875 44.9316 68.3875C44.9113 68.3887 44.891 68.3895 44.891 68.3895C44.8707 68.3903 44.8503 68.3907 44.8503 68.3907C44.83 68.3911 44.8101 68.3912 44.8101 68.3912C44.7898 68.3912 44.7699 68.3907 44.7699 68.3907C44.7496 68.3903 44.7293 68.3895 44.7293 68.3895C44.709 68.3887 44.6886 68.3875 44.6886 68.3875C44.6683 68.3863 44.6476 68.3847 44.6476 68.3847C44.6269 68.383 44.6066 68.381 44.6066 68.381C44.5859 68.379 44.5651 68.3765 44.5651 68.3765C44.5444 68.3741 44.5237 68.3712 44.5237 68.3712C44.503 68.3684 44.4823 68.3651 44.4823 68.3651C44.4615 68.3619 44.4408 68.3583 44.4408 68.3583C44.4201 68.3546 44.399 68.3505 44.399 68.3505C44.3783 68.3465 44.3571 68.342 44.3571 68.342C44.3364 68.3371 44.3153 68.3322 44.3153 68.3322C44.2946 68.327 44.2734 68.3217 44.2734 68.3217C44.2527 68.316 44.232 68.3103 44.232 68.3103C44.2113 68.3042 44.1906 68.2981 44.1906 68.2981C44.1698 68.2916 44.1491 68.2851 44.1491 68.2851C44.1284 68.2782 44.1077 68.2709 44.1077 68.2709C44.0869 68.2636 44.0666 68.2559 44.0666 68.2559C44.0463 68.2481 44.0256 68.24 44.0256 68.24C44.0053 68.2319 43.985 68.2234 43.985 68.2234C43.9647 68.2148 43.9443 68.2059 43.9443 68.2059C43.924 68.1966 43.9041 68.1872 43.9041 68.1872C43.8842 68.1775 43.8643 68.1677 43.8643 68.1677C43.8444 68.1575 43.8249 68.1474 43.8249 68.1474C43.8054 68.1368 43.7859 68.1263 43.7859 68.1263C43.7664 68.1153 43.7473 68.1043 43.7473 68.1043C43.7282 68.093 43.7091 68.0816 43.7091 68.0816C43.69 68.0698 43.6713 68.058 43.6713 68.058C43.6526 68.0458 43.634 68.0336 43.634 68.0336C43.6153 68.021 43.597 68.0084 43.597 68.0084C43.5787 67.9954 43.5604 67.9824 43.5604 67.9824C43.5425 67.969 43.5247 67.9556 43.5247 67.9556C43.5068 67.9418 43.4893 67.928 43.4893 67.928C43.4718 67.9138 43.4548 67.8996 43.4548 67.8996C43.4377 67.8849 43.4207 67.8703 43.4207 67.8703C43.404 67.8557 43.3873 67.8406 43.3873 67.8406C43.3711 67.8256 43.3544 67.8102 43.3544 67.8102C43.3382 67.7947 43.3223 67.7789 43.3223 67.7789C43.3065 67.763 43.2911 67.7472 43.2911 67.7472C43.2756 67.731 43.2606 67.7147 43.2606 67.7147C43.2455 67.6984 43.2305 67.6818 43.2305 67.6818C43.2159 67.6651 43.2013 67.6485 43.2013 67.6485C43.187 67.6314 43.1728 67.6143 43.1728 67.6143C43.159 67.5973 43.1452 67.5798 43.1452 67.5798C43.1318 67.5624 43.1184 67.5449 43.1184 67.5449C43.1054 67.5274 43.0924 67.5095 43.0924 67.5095C43.0798 67.4916 43.0672 67.4738 43.0672 67.4738C43.055 67.4559 43.0428 67.4376 43.0428 67.4376C43.031 67.4193 43.0193 67.4011 43.0193 67.4011C43.0079 67.3828 42.9965 67.3641 42.9965 67.3641C42.9855 67.3454 42.9746 67.3267 42.9746 67.3267C42.964 67.308 42.9534 67.2893 42.9534 67.2893C42.9433 67.2706 42.9335 67.2516 42.9335 67.2516C42.9238 67.2325 42.9144 67.2133 42.9144 67.2133C42.9051 67.1942 42.8961 67.1752 42.8961 67.1752C42.8872 67.1561 42.8787 67.137 42.8787 67.137C42.8701 67.1179 42.862 67.0984 42.862 67.0984C42.8539 67.0789 42.8462 67.0598 42.8462 67.0598C42.8385 67.0403 42.8311 67.0212 42.8311 67.0212C42.8238 67.0017 42.8169 66.9822 42.8169 66.9822C42.81 66.9627 42.8035 66.9432 42.8035 66.9432C42.797 66.9237 42.7909 66.9042 42.7909 66.9042C42.7848 66.8847 42.7791 66.8652 42.7791 66.8652C42.7735 66.8457 42.7682 66.8262 42.7682 66.8262C42.7629 66.8067 42.758 66.7872 42.758 66.7872C42.7531 66.7677 42.7487 66.7477 42.7487 66.7477C42.7442 66.7278 42.7401 66.708 42.7401 66.708C42.7361 66.688 42.732 66.6677 42.732 66.6677C42.7284 66.6474 42.7247 66.6271 42.7247 66.6271C42.7215 66.6068 42.7182 66.5861 42.7182 66.5861C42.7154 66.5654 42.7125 66.5446 42.7125 66.5446C42.7101 66.5239 42.7076 66.5028 42.7076 66.5028C42.7056 66.4817 42.7036 66.4609 42.7036 66.4609C42.7019 66.4398 42.7003 66.4187 42.7003 66.4187C42.6991 66.3975 42.6979 66.376 42.6979 66.376C42.6971 66.3545 42.6963 66.3334 42.6963 66.3334C42.6959 66.3118 42.6955 66.2903 42.6955 66.2903C42.6955 66.2688 42.6955 66.2472 42.6955 66.2472C42.6959 66.2257 42.6967 66.2037 42.6967 66.2037C42.6975 66.1822 42.6987 66.1603 42.6987 66.1603C42.6999 66.1383 42.7015 66.1168 42.7015 66.1168C42.7032 66.0949 42.7052 66.0733 42.7052 66.0733C42.7072 66.0514 42.7101 66.0299 42.7101 66.0299C42.7129 66.0079 42.7158 65.986 42.7158 65.986C42.719 65.964 42.7223 65.9425 42.7223 65.9425C42.7259 65.9206 42.7296 65.899 42.7296 65.899C42.7336 65.8771 42.7381 65.8556 42.7381 65.8556C42.7426 65.8336 42.7475 65.8121 42.7475 65.8121C42.7523 65.7906 42.7576 65.7686 42.7576 65.7686C42.7629 65.7471 42.769 65.7256 42.769 65.7256C42.7751 65.704 42.7812 65.6825 42.7812 65.6825C42.7877 65.661 42.7942 65.6398 42.7942 65.6398C42.8011 65.6187 42.808 65.5972 42.808 65.5972C42.8153 65.5761 42.823 65.5549 42.823 65.5549C42.8307 65.5338 42.8389 65.5131 42.8389 65.5131C42.847 65.4924 42.8555 65.4716 42.8555 65.4716C42.8641 65.4509 42.873 65.4302 42.873 65.4302C42.8819 65.4099 42.8913 65.3892 42.8913 65.3892C42.9006 65.3688 42.9104 65.3485 42.9104 65.3485C42.9201 65.3286 42.9303 65.3083 42.9303 65.3083C42.9404 65.2884 42.951 65.2689 42.951 65.2689C42.9616 65.2494 42.9725 65.2299 42.9725 65.2299C42.9835 65.2104 42.9949 65.1913 42.9949 65.1913C43.0063 65.1722 43.018 65.1531 43.018 65.1531C43.0298 65.1344 43.042 65.1157 43.042 65.1157C43.0542 65.0975 43.0668 65.0788 43.0668 65.0788C43.0794 65.0605 43.0924 65.0426 43.0924 65.0426C43.1054 65.0247 43.1184 65.0069 43.1184 65.0069C43.1318 64.9894 43.1452 64.9719 43.1452 64.9719C43.159 64.9549 43.1728 64.9378 43.1728 64.9378C43.1866 64.9207 43.2009 64.9041 43.2009 64.9041C43.2151 64.8874 43.2297 64.8712 43.2297 64.8712C43.2443 64.8549 43.259 64.8391 43.259 64.8391C43.2736 64.8232 43.2886 64.8078 43.2886 64.8078C43.3036 64.7924 43.3191 64.7769 43.3191 64.7769C43.3345 64.7619 43.35 64.7468 43.35 64.7468C43.3654 64.7322 43.3812 64.7176 43.3812 64.7176C43.3971 64.7034 43.4129 64.6892 43.4129 64.6892C43.4288 64.6753 43.445 64.6615 43.445 64.6615C43.4613 64.6481 43.4775 64.6347 43.4775 64.6347C43.4938 64.6217 43.5104 64.6087 43.5104 64.6087C43.5271 64.5961 43.5438 64.5835 43.5438 64.5835C43.5604 64.5713 43.5771 64.5591 43.5771 64.5591C43.5941 64.5474 43.6108 64.5356 43.6108 64.5356C43.6279 64.5242 43.6449 64.5128 43.6449 64.5128C43.662 64.5015 43.679 64.4905 43.679 64.4905C43.6961 64.4799 43.7136 64.469 43.7136 64.469C43.731 64.4584 43.7481 64.4482 43.7481 64.4482L43.7481 63.0681L45.8721 63.0681Z" fill="white" stroke="#303030" stroke-miterlimit="10" stroke-linecap="round" stroke-linejoin="round"/>
<path d="M57.2882 63.0681L57.2882 64.4482C57.3056 64.4584 57.3227 64.469 57.3227 64.469C57.3402 64.4795 57.3572 64.4905 57.3572 64.4905C57.3743 64.5015 57.3913 64.5128 57.3913 64.5128C57.4084 64.5242 57.4255 64.5356 57.4255 64.5356C57.4425 64.5474 57.4592 64.5591 57.4592 64.5591C57.4758 64.5713 57.4925 64.5835 57.4925 64.5835C57.5092 64.5961 57.5258 64.6087 57.5258 64.6087C57.5425 64.6217 57.5587 64.6347 57.5587 64.6347C57.575 64.6481 57.5912 64.6615 57.5912 64.6615C57.6075 64.6753 57.6233 64.6892 57.6233 64.6892C57.6392 64.7034 57.655 64.7176 57.655 64.7176C57.6709 64.7322 57.6863 64.7468 57.6863 64.7468C57.7017 64.7619 57.7172 64.7769 57.7172 64.7769C57.7322 64.7924 57.7476 64.8078 57.7476 64.8078C57.7627 64.8236 57.7773 64.8391 57.7773 64.8391C57.7919 64.8549 57.8066 64.8712 57.8066 64.8712C57.8208 64.8874 57.8354 64.9041 57.8354 64.9041C57.8496 64.9207 57.8634 64.9378 57.8634 64.9378C57.8772 64.9549 57.8911 64.9719 57.8911 64.9719C57.9045 64.9894 57.9179 65.0069 57.9179 65.0069C57.9309 65.0247 57.9439 65.0426 57.9439 65.0426C57.9569 65.0605 57.9695 65.0788 57.9695 65.0788C57.9821 65.0971 57.9943 65.1157 57.9943 65.1157C58.0064 65.1344 58.0182 65.1531 58.0182 65.1531C58.03 65.1722 58.0414 65.1913 58.0414 65.1913C58.0528 65.2104 58.0637 65.2299 58.0637 65.2299C58.0747 65.2494 58.0853 65.2689 58.0853 65.2689C58.0958 65.2888 58.106 65.3083 58.106 65.3083C58.1161 65.3282 58.1259 65.3485 58.1259 65.3485C58.1356 65.3689 58.145 65.3892 58.145 65.3892C58.1543 65.4095 58.1633 65.4302 58.1633 65.4302C58.1722 65.4509 58.1807 65.4716 58.1807 65.4716C58.1893 65.4924 58.1974 65.5131 58.1974 65.5131C58.2055 65.5342 58.2132 65.5549 58.2132 65.5549C58.221 65.5761 58.2283 65.5972 58.2283 65.5972C58.2352 65.6183 58.2421 65.6398 58.2421 65.6398C58.2486 65.6614 58.2551 65.6825 58.2551 65.6825C58.2612 65.704 58.2673 65.7256 58.2673 65.7256C58.273 65.7471 58.2787 65.7686 58.2787 65.7686C58.2839 65.7902 58.2888 65.8121 58.2888 65.8121C58.2937 65.8336 58.2982 65.8556 58.2982 65.8556C58.3026 65.8775 58.3067 65.899 58.3067 65.899C58.3103 65.921 58.314 65.9425 58.314 65.9425C58.3173 65.9644 58.3205 65.986 58.3205 65.986C58.3233 66.0079 58.3262 66.0299 58.3262 66.0299C58.3286 66.0518 58.3311 66.0733 58.3311 66.0733C58.3331 66.0953 58.3347 66.1168 58.3347 66.1168C58.3363 66.1387 58.3376 66.1603 58.3376 66.1603C58.3388 66.1818 58.3396 66.2037 58.3396 66.2037C58.3404 66.2253 58.3408 66.2472 58.3408 66.2472C58.3408 66.2688 58.3408 66.2903 58.3408 66.2903C58.3404 66.3118 58.34 66.3334 58.34 66.3334C58.3392 66.3549 58.3384 66.376 58.3384 66.376C58.3372 66.3971 58.3359 66.4187 58.3359 66.4187C58.3343 66.4398 58.3327 66.4609 58.3327 66.4609C58.3307 66.482 58.3286 66.5028 58.3286 66.5028C58.3262 66.5235 58.3237 66.5446 58.3237 66.5446C58.3209 66.5653 58.3181 66.5861 58.3181 66.5861C58.3148 66.6068 58.3116 66.6271 58.3116 66.6271C58.3079 66.6474 58.3042 66.6677 58.3042 66.6677C58.3002 66.688 58.2961 66.708 58.2961 66.708C58.2921 66.7279 58.2876 66.7478 58.2876 66.7478C58.2831 66.7677 58.2782 66.7872 58.2782 66.7872C58.2734 66.8067 58.2681 66.8262 58.2681 66.8262C58.2628 66.8457 58.2571 66.8652 58.2571 66.8652C58.2514 66.8847 58.2453 66.9042 58.2453 66.9042C58.2392 66.9237 58.2327 66.9432 58.2327 66.9432C58.2262 66.9627 58.2193 66.9822 58.2193 66.9822C58.2124 67.0017 58.2051 67.0212 58.2051 67.0212C58.1978 67.0407 58.1901 67.0598 58.1901 67.0598C58.1824 67.0793 58.1742 67.0984 58.1742 67.0984C58.1661 67.1175 58.1576 67.137 58.1576 67.137C58.149 67.1561 58.1401 67.1752 58.1401 67.1752C58.1312 67.1943 58.1218 67.2133 58.1218 67.2133C58.1125 67.2324 58.1027 67.2516 58.1027 67.2516C58.093 67.2706 58.0828 67.2893 58.0828 67.2893C58.0723 67.308 58.0617 67.3267 58.0617 67.3267C58.0507 67.3454 58.0398 67.3641 58.0398 67.3641C58.0284 67.3828 58.017 67.4011 58.017 67.4011C58.0052 67.4193 57.9934 67.4376 57.9934 67.4376C57.9813 67.4559 57.9691 67.4738 57.9691 67.4738C57.9565 67.4917 57.9439 67.5095 57.9439 67.5095C57.9309 67.5274 57.9179 67.5449 57.9179 67.5449C57.9045 67.5624 57.8911 67.5798 57.8911 67.5798C57.8772 67.5973 57.8634 67.6143 57.8634 67.6143C57.8492 67.6314 57.835 67.6485 57.835 67.6485C57.8204 67.6651 57.8057 67.6818 57.8057 67.6818C57.7907 67.6984 57.7757 67.7147 57.7757 67.7147C57.7606 67.7309 57.7452 67.7472 57.7452 67.7472C57.7298 67.763 57.7139 67.7789 57.7139 67.7789C57.6981 67.7943 57.6818 67.8102 57.6818 67.8102C57.6656 67.8256 57.6489 67.8406 57.6489 67.8406C57.6323 67.8557 57.6156 67.8703 57.6156 67.8703C57.5985 67.8849 57.5815 67.8996 57.5815 67.8996C57.5644 67.9138 57.5469 67.928 57.5469 67.928C57.5295 67.9418 57.5116 67.9556 57.5116 67.9556C57.4937 67.969 57.4758 67.9824 57.4758 67.9824C57.4576 67.9954 57.4393 68.0084 57.4393 68.0084C57.421 68.021 57.4023 68.0336 57.4023 68.0336C57.3836 68.0458 57.3649 68.058 57.3649 68.058C57.3458 68.0698 57.3271 68.0816 57.3271 68.0816C57.3081 68.0929 57.289 68.1043 57.289 68.1043C57.2695 68.1153 57.2504 68.1263 57.2504 68.1263C57.2309 68.1368 57.2114 68.1474 57.2114 68.1474C57.1914 68.1575 57.172 68.1677 57.172 68.1677C57.152 68.1774 57.1321 68.1872 57.1321 68.1872C57.1122 68.1965 57.0919 68.2059 57.0919 68.2059C57.0716 68.2148 57.0513 68.2234 57.0513 68.2234C57.031 68.2319 57.0107 68.24 57.0107 68.24C56.9903 68.2481 56.9696 68.2559 56.9696 68.2559C56.9489 68.2636 56.9286 68.2709 56.9286 68.2709C56.9079 68.2782 56.8872 68.2851 56.8872 68.2851C56.8664 68.2916 56.8457 68.2981 56.8457 68.2981C56.825 68.3042 56.8043 68.3103 56.8043 68.3103C56.7836 68.316 56.7628 68.3217 56.7628 68.3217C56.7421 68.327 56.721 68.3322 56.721 68.3322C56.7003 68.3371 56.6791 68.342 56.6791 68.342C56.6584 68.3465 56.6373 68.3505 56.6373 68.3505C56.6166 68.3546 56.5954 68.3583 56.5954 68.3583C56.5747 68.3619 56.554 68.3651 56.554 68.3651C56.5333 68.3684 56.5126 68.3712 56.5126 68.3712C56.4919 68.3741 56.4711 68.3765 56.4711 68.3765C56.4504 68.379 56.4297 68.381 56.4297 68.381C56.409 68.383 56.3886 68.3847 56.3886 68.3847C56.3679 68.3863 56.3476 68.3875 56.3476 68.3875C56.3273 68.3887 56.307 68.3895 56.307 68.3895C56.2867 68.3903 56.2664 68.3907 56.2664 68.3907C56.246 68.3911 56.2261 68.3912 56.2261 68.3912C56.2058 68.3912 56.1859 68.3907 56.1859 68.3907C56.1656 68.3903 56.1453 68.3895 56.1453 68.3895C56.125 68.3887 56.1047 68.3875 56.1047 68.3875C56.0843 68.3863 56.0636 68.3847 56.0636 68.3847C56.0429 68.383 56.0226 68.381 56.0226 68.381C56.0019 68.379 55.9812 68.3765 55.9812 68.3765C55.9604 68.3741 55.9397 68.3712 55.9397 68.3712C55.919 68.3684 55.8983 68.3651 55.8983 68.3651C55.8775 68.3619 55.8568 68.3583 55.8568 68.3583C55.8361 68.3546 55.815 68.3505 55.815 68.3505C55.7943 68.3465 55.7731 68.342 55.7731 68.342C55.7524 68.3371 55.7313 68.3322 55.7313 68.3322C55.7106 68.327 55.6895 68.3217 55.6895 68.3217C55.6687 68.316 55.648 68.3103 55.648 68.3103C55.6273 68.3042 55.6066 68.2981 55.6066 68.2981C55.5858 68.2916 55.5651 68.2851 55.5651 68.2851C55.5444 68.2782 55.5237 68.2709 55.5237 68.2709C55.503 68.2636 55.4827 68.2559 55.4827 68.2559C55.4623 68.2481 55.4416 68.24 55.4416 68.24C55.4213 68.2319 55.401 68.2234 55.401 68.2234C55.3807 68.2148 55.3604 68.2059 55.3604 68.2059C55.34 68.1966 55.3201 68.1872 55.3201 68.1872C55.3002 68.1775 55.2803 68.1677 55.2803 68.1677C55.2604 68.1575 55.2409 68.1474 55.2409 68.1474C55.2214 68.1368 55.2019 68.1263 55.2019 68.1263C55.1824 68.1153 55.1633 68.1043 55.1633 68.1043C55.1442 68.093 55.1251 68.0816 55.1251 68.0816C55.106 68.0698 55.0873 68.058 55.0873 68.058C55.0686 68.0458 55.05 68.0336 55.05 68.0336C55.0313 68.021 55.013 68.0084 55.013 68.0084C54.9947 67.9954 54.9764 67.9824 54.9764 67.9824C54.9586 67.969 54.9407 67.9556 54.9407 67.9556C54.9228 67.9418 54.9053 67.928 54.9053 67.928C54.8879 67.9138 54.8708 67.8996 54.8708 67.8996C54.8537 67.8849 54.8367 67.8703 54.8367 67.8703C54.82 67.8557 54.8034 67.8406 54.8034 67.8406C54.7871 67.8256 54.7704 67.8102 54.7704 67.8102C54.7542 67.7947 54.7384 67.7789 54.7384 67.7789C54.7225 67.763 54.7071 67.7472 54.7071 67.7472C54.6916 67.731 54.6766 67.7147 54.6766 67.7147C54.6616 67.6984 54.6465 67.6818 54.6465 67.6818C54.6319 67.6651 54.6173 67.6485 54.6173 67.6485C54.6031 67.6314 54.5888 67.6143 54.5888 67.6143C54.575 67.5973 54.5612 67.5798 54.5612 67.5798C54.5478 67.5624 54.5344 67.5449 54.5344 67.5449C54.5214 67.5274 54.5084 67.5095 54.5084 67.5095C54.4958 67.4916 54.4832 67.4738 54.4832 67.4738C54.471 67.4559 54.4588 67.4376 54.4588 67.4376C54.447 67.4193 54.4353 67.4011 54.4353 67.4011C54.4239 67.3828 54.4125 67.3641 54.4125 67.3641C54.4015 67.3454 54.3906 67.3267 54.3906 67.3267C54.38 67.308 54.3694 67.2893 54.3694 67.2893C54.3593 67.2706 54.3495 67.2516 54.3495 67.2516C54.3398 67.2325 54.3305 67.2133 54.3305 67.2133C54.3211 67.1942 54.3122 67.1752 54.3122 67.1752C54.3032 67.1561 54.2947 67.137 54.2947 67.137C54.2862 67.1179 54.278 67.0984 54.278 67.0984C54.2699 67.0789 54.2622 67.0598 54.2622 67.0598C54.2545 67.0403 54.2472 67.0212 54.2472 67.0212C54.2398 67.0017 54.2329 66.9822 54.2329 66.9822C54.226 66.9627 54.2195 66.9432 54.2195 66.9432C54.213 66.9237 54.2069 66.9042 54.2069 66.9042C54.2008 66.8847 54.1952 66.8652 54.1952 66.8652C54.1895 66.8457 54.1842 66.8262 54.1842 66.8262C54.1789 66.8067 54.174 66.7872 54.174 66.7872C54.1692 66.7677 54.1647 66.7477 54.1647 66.7477C54.1602 66.7278 54.1562 66.708 54.1562 66.708C54.1521 66.688 54.148 66.6677 54.148 66.6677C54.1444 66.6474 54.1407 66.6271 54.1407 66.6271C54.1375 66.6068 54.1342 66.5861 54.1342 66.5861C54.1314 66.5654 54.1285 66.5446 54.1285 66.5446C54.1261 66.5239 54.1237 66.5028 54.1237 66.5028C54.1216 66.4817 54.1196 66.4609 54.1196 66.4609C54.118 66.4398 54.1163 66.4187 54.1163 66.4187C54.1151 66.3975 54.1139 66.376 54.1139 66.376C54.1131 66.3545 54.1123 66.3334 54.1123 66.3334C54.1119 66.3118 54.1115 66.2903 54.1115 66.2903C54.1115 66.2688 54.1115 66.2472 54.1115 66.2472C54.1119 66.2257 54.1127 66.2037 54.1127 66.2037C54.1135 66.1822 54.1147 66.1603 54.1147 66.1603C54.1159 66.1383 54.1176 66.1168 54.1176 66.1168C54.1192 66.0949 54.1212 66.0733 54.1212 66.0733C54.1232 66.0514 54.1261 66.0299 54.1261 66.0299C54.1289 66.0079 54.1318 65.986 54.1318 65.986C54.135 65.964 54.1383 65.9425 54.1383 65.9425C54.1419 65.9206 54.1456 65.899 54.1456 65.899C54.1497 65.8771 54.1541 65.8556 54.1541 65.8556C54.1586 65.8336 54.1635 65.8121 54.1635 65.8121C54.1683 65.7906 54.1736 65.7686 54.1736 65.7686C54.1789 65.7471 54.185 65.7256 54.185 65.7256C54.1911 65.704 54.1972 65.6825 54.1972 65.6825C54.2037 65.661 54.2102 65.6398 54.2102 65.6398C54.2171 65.6187 54.224 65.5972 54.224 65.5972C54.2313 65.5761 54.239 65.5549 54.239 65.5549C54.2468 65.5338 54.2549 65.5131 54.2549 65.5131C54.263 65.4924 54.2715 65.4716 54.2715 65.4716C54.2801 65.4509 54.289 65.4302 54.289 65.4302C54.2979 65.4099 54.3073 65.3892 54.3073 65.3892C54.3166 65.3688 54.3264 65.3485 54.3264 65.3485C54.3361 65.3286 54.3463 65.3083 54.3463 65.3083C54.3565 65.2884 54.367 65.2689 54.367 65.2689C54.3776 65.2494 54.3885 65.2299 54.3885 65.2299C54.3995 65.2104 54.4109 65.1913 54.4109 65.1913C54.4223 65.1722 54.434 65.1531 54.434 65.1531C54.4458 65.1344 54.458 65.1157 54.458 65.1157C54.4702 65.0975 54.4828 65.0788 54.4828 65.0788C54.4954 65.0605 54.5084 65.0426 54.5084 65.0426C54.5214 65.0247 54.5344 65.0069 54.5344 65.0069C54.5478 64.9894 54.5612 64.9719 54.5612 64.9719C54.575 64.9549 54.5888 64.9378 54.5888 64.9378C54.6027 64.9207 54.6169 64.9041 54.6169 64.9041C54.6311 64.8874 54.6457 64.8712 54.6457 64.8712C54.6604 64.8549 54.675 64.8391 54.675 64.8391C54.6896 64.8232 54.7046 64.8078 54.7046 64.8078C54.7197 64.7924 54.7351 64.7769 54.7351 64.7769C54.7505 64.7619 54.766 64.7468 54.766 64.7468C54.7814 64.7322 54.7973 64.7176 54.7973 64.7176C54.8131 64.7034 54.829 64.6892 54.829 64.6892C54.8448 64.6753 54.8611 64.6615 54.8611 64.6615C54.8773 64.6481 54.8935 64.6347 54.8935 64.6347C54.9098 64.6217 54.9265 64.6087 54.9265 64.6087C54.9431 64.5961 54.9598 64.5835 54.9598 64.5835C54.9764 64.5713 54.9931 64.5591 54.9931 64.5591C55.0101 64.5474 55.0268 64.5356 55.0268 64.5356C55.0439 64.5242 55.0609 64.5128 55.0609 64.5128C55.078 64.5015 55.0951 64.4905 55.0951 64.4905C55.1121 64.4799 55.1296 64.469 55.1296 64.469C55.1471 64.4584 55.1641 64.4482 55.1641 64.4482L55.1641 63.0681L57.2882 63.0681Z" fill="white" stroke="#303030" stroke-miterlimit="10" stroke-linecap="round" stroke-linejoin="round"/>
<path d="M106.192 63.0681L106.192 64.4482C106.209 64.4584 106.226 64.469 106.226 64.469C106.244 64.4795 106.261 64.4905 106.261 64.4905C106.278 64.5015 106.295 64.5128 106.295 64.5128C106.312 64.5242 106.329 64.5356 106.329 64.5356C106.346 64.5474 106.363 64.5591 106.363 64.5591C106.38 64.5713 106.396 64.5835 106.396 64.5835C106.413 64.5961 106.43 64.6087 106.43 64.6087C106.446 64.6217 106.463 64.6347 106.463 64.6347C106.479 64.6481 106.495 64.6615 106.495 64.6615C106.511 64.6753 106.527 64.6892 106.527 64.6892C106.543 64.7034 106.559 64.7176 106.559 64.7176C106.575 64.7322 106.59 64.7468 106.59 64.7468C106.606 64.7619 106.621 64.7769 106.621 64.7769C106.636 64.7924 106.651 64.8078 106.651 64.8078C106.666 64.8236 106.681 64.8391 106.681 64.8391C106.696 64.8549 106.71 64.8712 106.71 64.8712C106.725 64.8874 106.739 64.9041 106.739 64.9041C106.753 64.9207 106.767 64.9378 106.767 64.9378C106.781 64.9549 106.795 64.9719 106.795 64.9719C106.808 64.9894 106.822 65.0069 106.822 65.0069C106.835 65.0247 106.848 65.0426 106.848 65.0426C106.861 65.0605 106.873 65.0788 106.873 65.0788C106.886 65.0971 106.898 65.1157 106.898 65.1157C106.91 65.1344 106.922 65.1531 106.922 65.1531C106.934 65.1722 106.945 65.1913 106.945 65.1913C106.957 65.2104 106.968 65.2299 106.968 65.2299C106.979 65.2494 106.989 65.2689 106.989 65.2689C107 65.2888 107.01 65.3083 107.01 65.3083C107.02 65.3282 107.03 65.3485 107.03 65.3485C107.039 65.3689 107.049 65.3892 107.049 65.3892C107.058 65.4095 107.067 65.4302 107.067 65.4302C107.076 65.4509 107.085 65.4716 107.085 65.4716C107.093 65.4924 107.101 65.5131 107.101 65.5131C107.109 65.5342 107.117 65.5549 107.117 65.5549C107.125 65.5761 107.132 65.5972 107.132 65.5972C107.139 65.6183 107.146 65.6398 107.146 65.6398C107.152 65.6614 107.159 65.6825 107.159 65.6825C107.165 65.704 107.171 65.7256 107.171 65.7256C107.177 65.7471 107.182 65.7686 107.182 65.7686C107.188 65.7902 107.193 65.8121 107.193 65.8121C107.197 65.8336 107.202 65.8556 107.202 65.8556C107.206 65.8775 107.21 65.899 107.21 65.899C107.214 65.921 107.218 65.9425 107.218 65.9425C107.221 65.9644 107.224 65.986 107.224 65.986C107.227 66.0079 107.23 66.0299 107.23 66.0299C107.232 66.0518 107.235 66.0733 107.235 66.0733C107.237 66.0953 107.239 66.1168 107.239 66.1168C107.24 66.1387 107.241 66.1603 107.241 66.1603C107.243 66.1818 107.243 66.2037 107.243 66.2037C107.244 66.2253 107.245 66.2472 107.245 66.2472C107.245 66.2688 107.245 66.2903 107.245 66.2903C107.244 66.3118 107.244 66.3334 107.244 66.3334C107.243 66.3549 107.242 66.376 107.242 66.376C107.241 66.3971 107.24 66.4187 107.24 66.4187C107.238 66.4398 107.236 66.4609 107.236 66.4609C107.234 66.482 107.232 66.5028 107.232 66.5028C107.23 66.5235 107.228 66.5446 107.228 66.5446C107.225 66.5653 107.222 66.5861 107.222 66.5861C107.219 66.6068 107.215 66.6271 107.215 66.6271C107.212 66.6474 107.208 66.6677 107.208 66.6677C107.204 66.688 107.2 66.708 107.2 66.708C107.196 66.7279 107.191 66.7478 107.191 66.7478C107.187 66.7677 107.182 66.7872 107.182 66.7872C107.177 66.8067 107.172 66.8262 107.172 66.8262C107.167 66.8457 107.161 66.8652 107.161 66.8652C107.155 66.8847 107.149 66.9042 107.149 66.9042C107.143 66.9237 107.137 66.9432 107.137 66.9432C107.13 66.9627 107.123 66.9822 107.123 66.9822C107.116 67.0017 107.109 67.0212 107.109 67.0212C107.102 67.0407 107.094 67.0598 107.094 67.0598C107.086 67.0793 107.078 67.0984 107.078 67.0984C107.07 67.1175 107.061 67.137 107.061 67.137C107.053 67.1561 107.044 67.1752 107.044 67.1752C107.035 67.1943 107.026 67.2133 107.026 67.2133C107.016 67.2324 107.007 67.2516 107.007 67.2516C106.997 67.2706 106.987 67.2893 106.987 67.2893C106.976 67.308 106.966 67.3267 106.966 67.3267C106.955 67.3454 106.944 67.3641 106.944 67.3641C106.932 67.3828 106.921 67.4011 106.921 67.4011C106.909 67.4193 106.897 67.4376 106.897 67.4376C106.885 67.4559 106.873 67.4738 106.873 67.4738C106.86 67.4917 106.848 67.5095 106.848 67.5095C106.835 67.5274 106.822 67.5449 106.822 67.5449C106.808 67.5624 106.795 67.5798 106.795 67.5798C106.781 67.5973 106.767 67.6143 106.767 67.6143C106.753 67.6314 106.739 67.6485 106.739 67.6485C106.724 67.6651 106.71 67.6818 106.71 67.6818C106.695 67.6984 106.679 67.7147 106.679 67.7147C106.664 67.7309 106.649 67.7472 106.649 67.7472C106.634 67.763 106.618 67.7789 106.618 67.7789C106.602 67.7943 106.586 67.8102 106.586 67.8102C106.569 67.8256 106.553 67.8406 106.553 67.8406C106.536 67.8557 106.519 67.8703 106.519 67.8703C106.502 67.8849 106.485 67.8996 106.485 67.8996C106.468 67.9138 106.451 67.928 106.451 67.928C106.433 67.9418 106.415 67.9556 106.415 67.9556C106.398 67.969 106.38 67.9824 106.38 67.9824C106.361 67.9954 106.343 68.0084 106.343 68.0084C106.325 68.021 106.306 68.0336 106.306 68.0336C106.287 68.0458 106.269 68.058 106.269 68.058C106.25 68.0698 106.231 68.0816 106.231 68.0816C106.212 68.0929 106.193 68.1043 106.193 68.1043C106.173 68.1153 106.154 68.1263 106.154 68.1263C106.135 68.1368 106.115 68.1474 106.115 68.1474C106.095 68.1575 106.076 68.1677 106.076 68.1677C106.056 68.1774 106.036 68.1872 106.036 68.1872C106.016 68.1965 105.996 68.2059 105.996 68.2059C105.975 68.2148 105.955 68.2234 105.955 68.2234C105.935 68.2319 105.914 68.24 105.914 68.24C105.894 68.2481 105.873 68.2559 105.873 68.2559C105.853 68.2636 105.832 68.2709 105.832 68.2709C105.812 68.2782 105.791 68.2851 105.791 68.2851C105.77 68.2916 105.75 68.2981 105.75 68.2981C105.729 68.3042 105.708 68.3103 105.708 68.3103C105.687 68.316 105.667 68.3217 105.667 68.3217C105.646 68.327 105.625 68.3322 105.625 68.3322C105.604 68.3371 105.583 68.342 105.583 68.342C105.562 68.3465 105.541 68.3505 105.541 68.3505C105.52 68.3546 105.499 68.3583 105.499 68.3583C105.479 68.3619 105.458 68.3651 105.458 68.3651C105.437 68.3684 105.416 68.3712 105.416 68.3712C105.396 68.3741 105.375 68.3765 105.375 68.3765C105.354 68.379 105.333 68.381 105.333 68.381C105.313 68.383 105.292 68.3847 105.292 68.3847C105.272 68.3863 105.251 68.3875 105.251 68.3875C105.231 68.3887 105.211 68.3895 105.211 68.3895C105.19 68.3903 105.17 68.3907 105.17 68.3907C105.15 68.3911 105.13 68.3912 105.13 68.3912C105.11 68.3912 105.09 68.3907 105.09 68.3907C105.069 68.3903 105.049 68.3895 105.049 68.3895C105.029 68.3887 105.008 68.3875 105.008 68.3875C104.988 68.3863 104.967 68.3847 104.967 68.3847C104.947 68.383 104.926 68.381 104.926 68.381C104.906 68.379 104.885 68.3765 104.885 68.3765C104.864 68.3741 104.844 68.3712 104.844 68.3712C104.823 68.3684 104.802 68.3651 104.802 68.3651C104.781 68.3619 104.761 68.3583 104.761 68.3583C104.74 68.3546 104.719 68.3505 104.719 68.3505C104.698 68.3465 104.677 68.342 104.677 68.342C104.656 68.3371 104.635 68.3322 104.635 68.3322C104.614 68.327 104.593 68.3217 104.593 68.3217C104.573 68.316 104.552 68.3103 104.552 68.3103C104.531 68.3042 104.51 68.2981 104.51 68.2981C104.49 68.2916 104.469 68.2851 104.469 68.2851C104.448 68.2782 104.427 68.2709 104.427 68.2709C104.407 68.2636 104.386 68.2559 104.386 68.2559C104.366 68.2481 104.345 68.24 104.345 68.24C104.325 68.2319 104.305 68.2234 104.305 68.2234C104.284 68.2148 104.264 68.2059 104.264 68.2059C104.244 68.1966 104.224 68.1872 104.224 68.1872C104.204 68.1775 104.184 68.1677 104.184 68.1677C104.164 68.1575 104.145 68.1474 104.145 68.1474C104.125 68.1368 104.106 68.1263 104.106 68.1263C104.086 68.1153 104.067 68.1043 104.067 68.1043C104.048 68.093 104.029 68.0816 104.029 68.0816C104.01 68.0698 103.991 68.058 103.991 68.058C103.972 68.0458 103.954 68.0336 103.954 68.0336C103.935 68.021 103.917 68.0084 103.917 68.0084C103.899 67.9954 103.88 67.9824 103.88 67.9824C103.862 67.969 103.844 67.9556 103.844 67.9556C103.827 67.9418 103.809 67.928 103.809 67.928C103.792 67.9138 103.775 67.8996 103.775 67.8996C103.758 67.8849 103.74 67.8703 103.74 67.8703C103.724 67.8557 103.707 67.8406 103.707 67.8406C103.691 67.8256 103.674 67.8102 103.674 67.8102C103.658 67.7947 103.642 67.7789 103.642 67.7789C103.626 67.763 103.611 67.7472 103.611 67.7472C103.595 67.731 103.58 67.7147 103.58 67.7147C103.565 67.6984 103.55 67.6818 103.55 67.6818C103.536 67.6651 103.521 67.6485 103.521 67.6485C103.507 67.6314 103.493 67.6143 103.493 67.6143C103.479 67.5973 103.465 67.5798 103.465 67.5798C103.452 67.5624 103.438 67.5449 103.438 67.5449C103.425 67.5274 103.412 67.5095 103.412 67.5095C103.4 67.4916 103.387 67.4738 103.387 67.4738C103.375 67.4559 103.363 67.4376 103.363 67.4376C103.351 67.4193 103.339 67.4011 103.339 67.4011C103.328 67.3828 103.316 67.3641 103.316 67.3641C103.305 67.3454 103.294 67.3267 103.294 67.3267C103.284 67.308 103.273 67.2893 103.273 67.2893C103.263 67.2706 103.253 67.2516 103.253 67.2516C103.244 67.2325 103.234 67.2133 103.234 67.2133C103.225 67.1942 103.216 67.1752 103.216 67.1752C103.207 67.1561 103.199 67.137 103.199 67.137C103.19 67.1179 103.182 67.0984 103.182 67.0984C103.174 67.0789 103.166 67.0598 103.166 67.0598C103.158 67.0403 103.151 67.0212 103.151 67.0212C103.144 67.0017 103.137 66.9822 103.137 66.9822C103.13 66.9627 103.123 66.9432 103.123 66.9432C103.117 66.9237 103.111 66.9042 103.111 66.9042C103.105 66.8847 103.099 66.8652 103.099 66.8652C103.093 66.8457 103.088 66.8262 103.088 66.8262C103.083 66.8067 103.078 66.7872 103.078 66.7872C103.073 66.7677 103.068 66.7477 103.068 66.7477C103.064 66.7278 103.06 66.708 103.06 66.708C103.056 66.688 103.052 66.6677 103.052 66.6677C103.048 66.6474 103.045 66.6271 103.045 66.6271C103.041 66.6068 103.038 66.5861 103.038 66.5861C103.035 66.5654 103.032 66.5446 103.032 66.5446C103.03 66.5239 103.027 66.5028 103.027 66.5028C103.025 66.4817 103.023 66.4609 103.023 66.4609C103.022 66.4398 103.02 66.4187 103.02 66.4187C103.019 66.3975 103.018 66.376 103.018 66.376C103.017 66.3545 103.016 66.3334 103.016 66.3334C103.016 66.3118 103.015 66.2903 103.015 66.2903C103.015 66.2688 103.015 66.2472 103.015 66.2472C103.016 66.2257 103.016 66.2037 103.016 66.2037C103.017 66.1822 103.019 66.1603 103.019 66.1603C103.02 66.1383 103.021 66.1168 103.021 66.1168C103.023 66.0949 103.025 66.0733 103.025 66.0733C103.027 66.0514 103.03 66.0299 103.03 66.0299C103.033 66.0079 103.036 65.986 103.036 65.986C103.039 65.964 103.042 65.9425 103.042 65.9425C103.046 65.9206 103.049 65.899 103.049 65.899C103.053 65.8771 103.058 65.8556 103.058 65.8556C103.062 65.8336 103.067 65.8121 103.067 65.8121C103.072 65.7906 103.077 65.7686 103.077 65.7686C103.083 65.7471 103.089 65.7256 103.089 65.7256C103.095 65.704 103.101 65.6825 103.101 65.6825C103.108 65.661 103.114 65.6398 103.114 65.6398C103.121 65.6187 103.128 65.5972 103.128 65.5972C103.135 65.5761 103.143 65.5549 103.143 65.5549C103.151 65.5338 103.159 65.5131 103.159 65.5131C103.167 65.4924 103.175 65.4716 103.175 65.4716C103.184 65.4509 103.193 65.4302 103.193 65.4302C103.202 65.4099 103.211 65.3892 103.211 65.3892C103.22 65.3688 103.23 65.3485 103.23 65.3485C103.24 65.3286 103.25 65.3083 103.25 65.3083C103.26 65.2884 103.271 65.2689 103.271 65.2689C103.281 65.2494 103.292 65.2299 103.292 65.2299C103.303 65.2104 103.315 65.1913 103.315 65.1913C103.326 65.1722 103.338 65.1531 103.338 65.1531C103.35 65.1344 103.362 65.1157 103.362 65.1157C103.374 65.0975 103.387 65.0788 103.387 65.0788C103.399 65.0605 103.412 65.0426 103.412 65.0426C103.425 65.0247 103.438 65.0069 103.438 65.0069C103.452 64.9894 103.465 64.9719 103.465 64.9719C103.479 64.9549 103.493 64.9378 103.493 64.9378C103.506 64.9207 103.521 64.9041 103.521 64.9041C103.535 64.8874 103.55 64.8712 103.55 64.8712C103.564 64.8549 103.579 64.8391 103.579 64.8391C103.593 64.8232 103.608 64.8078 103.608 64.8078C103.623 64.7924 103.639 64.7769 103.639 64.7769C103.654 64.7619 103.67 64.7468 103.67 64.7468C103.685 64.7322 103.701 64.7176 103.701 64.7176C103.717 64.7034 103.733 64.6892 103.733 64.6892C103.749 64.6753 103.765 64.6615 103.765 64.6615C103.781 64.6481 103.797 64.6347 103.797 64.6347C103.814 64.6217 103.83 64.6087 103.83 64.6087C103.847 64.5961 103.864 64.5835 103.864 64.5835C103.88 64.5713 103.897 64.5591 103.897 64.5591C103.914 64.5474 103.931 64.5356 103.931 64.5356C103.948 64.5242 103.965 64.5128 103.965 64.5128C103.982 64.5015 103.999 64.4905 103.999 64.4905C104.016 64.4799 104.033 64.469 104.033 64.469C104.051 64.4584 104.068 64.4482 104.068 64.4482L104.068 63.0681L106.192 63.0681Z" fill="white" stroke="#303030" stroke-miterlimit="10" stroke-linecap="round" stroke-linejoin="round"/>
<path d="M50.5728 60.0681H1.61499V63.0681H50.5728V60.0681Z" fill="white" stroke="#303030" stroke-miterlimit="10" stroke-linecap="round" stroke-linejoin="round"/>
<path d="M99.5305 60.0681H50.5728V63.0681H99.5305V60.0681Z" fill="white" stroke="#303030" stroke-miterlimit="10" stroke-linecap="round" stroke-linejoin="round"/>
<path d="M148.325 60.0681H99.3677V63.0681H148.325V60.0681Z" fill="white" stroke="#303030" stroke-miterlimit="10" stroke-linecap="round" stroke-linejoin="round"/>
<line x1="99.3972" y1="59.7039" x2="99.3972" y2="1.01636" stroke="#303030"/>
<path d="M91.584 26.3716L9.23438 26.3716" stroke="#303030" stroke-linecap="round" stroke-linejoin="round" stroke-dasharray="3.03 8.04"/>
<path d="M141.569 26.3716L105.13 26.3716" stroke="#303030" stroke-linecap="round" stroke-linejoin="round" stroke-dasharray="3.03 8.04"/>
<path d="M57.0928 41.7644L60.5263 10.9779" stroke="#303030" stroke-miterlimit="10" stroke-linecap="round" stroke-linejoin="round"/>
<path d="M136 41.7644L139.434 10.9779" stroke="#303030" stroke-miterlimit="10" stroke-linecap="round" stroke-linejoin="round"/>
<path d="M29.5171 41.7644L32.9503 10.9779" stroke="#303030" stroke-miterlimit="10" stroke-linecap="round" stroke-linejoin="round"/>
<path d="M108.424 41.7644L111.858 10.9779" stroke="#303030" stroke-miterlimit="10" stroke-linecap="round" stroke-linejoin="round"/>
<path d="M22.0415 41.8235L22.0415 10.9193" stroke="#303030" stroke-miterlimit="10" stroke-linecap="round" stroke-linejoin="round"/>
<path d="M51.3344 41.7644L47.9009 10.9779" stroke="#303030" stroke-miterlimit="10" stroke-linecap="round" stroke-linejoin="round"/>
<path d="M130.242 41.7644L126.808 10.9779" stroke="#303030" stroke-miterlimit="10" stroke-linecap="round" stroke-linejoin="round"/>
<path d="M77.1934 41.8235L77.1934 10.9193" stroke="#303030" stroke-miterlimit="10" stroke-linecap="round" stroke-linejoin="round"/>
<path d="M86.3857 41.8235L86.3857 10.9193" stroke="#303030" stroke-miterlimit="10" stroke-linecap="round" stroke-linejoin="round"/>
<path d="M69.7187 41.7644L66.2852 10.9779" stroke="#303030" stroke-miterlimit="10" stroke-linecap="round" stroke-linejoin="round"/>
<path d="M40.4255 41.8235L40.4255 10.9193" stroke="#303030" stroke-miterlimit="10" stroke-linecap="round" stroke-linejoin="round"/>
<path d="M119.333 41.8235L119.333 10.9193" stroke="#303030" stroke-miterlimit="10" stroke-linecap="round" stroke-linejoin="round"/>
<path d="M12.8496 41.8235L12.8496 10.9193" stroke="#303030" stroke-miterlimit="10" stroke-linecap="round" stroke-linejoin="round"/>
</svg>
