<svg width="81" height="83" viewBox="0 0 81 83" fill="none" xmlns="http://www.w3.org/2000/svg">
<path d="M3.69727 76.3377C3.69867 77.3392 3.9666 78.3334 4.47292 79.1979C5.0134 80.1208 5.81577 80.8814 6.76689 81.3712C7.57028 81.7847 8.46251 81.9957 9.36499 81.9995C9.59533 82.0006 9.82588 81.9995 10.0562 81.9995C10.6383 81.9995 11.2204 81.9995 11.8027 81.9995C12.6947 81.9995 13.5867 81.9995 14.479 81.9995C15.6333 81.9995 16.7874 81.9995 17.9418 81.9995C19.3065 81.9995 20.6713 81.9995 22.0361 81.9995C23.5697 81.9995 25.1031 81.9995 26.6367 81.9995C28.2997 81.9995 29.963 81.9995 31.626 81.9995C33.3605 81.9995 35.0947 81.9995 36.8291 81.9995C38.6017 81.9995 40.3745 81.9995 42.147 81.9995C43.8989 81.9995 45.6506 81.9995 47.4025 81.9995C49.0945 81.9995 50.7865 81.9995 52.4785 81.9995C54.0708 81.9995 55.6631 81.9995 57.2554 81.9995C58.6901 81.9995 60.1249 81.9995 61.5596 81.9995C62.8017 81.9995 64.0437 81.9995 65.2857 81.9995C66.2798 81.9995 67.2741 81.9995 68.2683 81.9995C68.974 81.9995 69.6799 81.9995 70.3856 81.9995C70.758 81.9995 71.1305 81.9995 71.5029 81.9995C72.0541 81.9995 72.5984 81.9453 73.1318 81.7996C74.1488 81.5216 75.0799 80.9568 75.7958 80.1829C76.5043 79.4171 76.9926 78.4574 77.1946 77.4339C77.2808 76.9969 77.3017 76.557 77.3017 76.1136C77.3017 75.6949 77.3017 75.2762 77.3017 74.8577C77.3017 74.1076 77.3017 73.3577 77.3017 72.6076C77.3017 71.5777 77.3017 70.5476 77.3017 69.5177C77.3017 68.2512 77.3017 66.9845 77.3017 65.718C77.3017 64.2548 77.3017 62.7915 77.3017 61.3283C77.3017 59.7189 77.3017 58.1095 77.3017 56.4999C77.3017 54.7971 77.3017 53.0942 77.3017 51.3914C77.3017 49.6349 77.3017 47.8786 77.3017 46.122C77.3017 44.3511 77.3017 42.5799 77.3017 40.8089C77.3017 39.0823 77.3017 37.356 77.3017 35.6294C77.3017 33.9804 77.3017 32.3315 77.3017 30.6825C77.3017 29.1692 77.3017 27.6561 77.3017 26.1428C77.3017 24.8045 77.3017 23.4663 77.3017 22.1281C77.3017 21.0067 77.3017 19.8854 77.3017 18.764C77.3017 17.9112 77.3017 17.0581 77.3017 16.2053C77.3017 15.6684 77.3017 15.1316 77.3017 14.5947C77.3017 14.379 77.3047 14.1634 77.3005 13.9477C77.2808 12.9411 76.9889 11.9466 76.4613 11.0889C75.9009 10.1782 75.0819 9.43634 74.1209 8.96762C73.3445 8.58894 72.4914 8.3986 71.6287 8.39498C71.3841 8.39397 71.1395 8.39498 70.8951 8.39498C70.3006 8.39498 69.706 8.39498 69.1115 8.39498C68.2086 8.39498 67.3059 8.39498 66.403 8.39498C65.2447 8.39498 64.0861 8.39498 62.9278 8.39498C61.5509 8.39498 60.1741 8.39498 58.7973 8.39498C57.2582 8.39498 55.7192 8.39498 54.1802 8.39498C52.5197 8.39498 50.8593 8.39498 49.1988 8.39498C47.456 8.39498 45.7131 8.39498 43.9703 8.39498C42.1973 8.39498 40.4243 8.39498 38.6513 8.39498C36.9008 8.39498 35.1505 8.39498 33.4 8.39498C31.7113 8.39498 30.0223 8.39498 28.3335 8.39498C26.7462 8.39498 25.1588 8.39498 23.5715 8.39498C22.1434 8.39498 20.7153 8.39498 19.2872 8.39498C18.0535 8.39498 16.82 8.39498 15.5863 8.39498C14.6022 8.39498 13.6181 8.39498 12.634 8.39498C11.94 8.39498 11.2461 8.39498 10.5521 8.39498C10.1933 8.39498 9.83452 8.39498 9.47553 8.39498C8.89103 8.39498 8.31437 8.46151 7.75238 8.62793C6.73855 8.92802 5.81819 9.51453 5.11772 10.3065C4.4289 11.0851 3.96339 12.0517 3.78309 13.0754C3.71093 13.4846 3.69727 13.8955 3.69727 14.3095C3.69727 14.7414 3.69727 15.1732 3.69727 15.6051C3.69727 16.3667 3.69727 17.1283 3.69727 17.8899C3.69727 18.9296 3.69727 19.9694 3.69727 21.0091C3.69727 22.2836 3.69727 23.5584 3.69727 24.8329C3.69727 26.3026 3.69727 27.7721 3.69727 29.2417C3.69727 30.8558 3.69727 32.4698 3.69727 34.0838C3.69727 35.7894 3.69727 37.4953 3.69727 39.2009C3.69727 40.9584 3.69727 42.7162 3.69727 44.4737C3.69727 46.2374 3.69727 48.0014 3.69727 49.7651C3.69727 51.4959 3.69727 53.2267 3.69727 54.9575C3.69727 56.6024 3.69727 58.2472 3.69727 59.8921C3.69727 61.3996 3.69727 62.9071 3.69727 64.4144C3.69727 65.7452 3.69727 67.0758 3.69727 68.4066C3.69727 69.5187 3.69727 70.6306 3.69727 71.7427C3.69727 72.5819 3.69727 73.4212 3.69727 74.2604C3.69727 74.7872 3.69727 75.3138 3.69727 75.8406C3.69727 76.0064 3.69727 76.1721 3.69727 76.3377Z" fill="#ECEDF1" stroke="#303030" stroke-miterlimit="10" stroke-linecap="round" stroke-linejoin="round"/>
<path d="M1.40918 73.0766C1.41067 74.1405 1.69526 75.1964 2.23306 76.1146C2.80714 77.095 3.6594 77.9029 4.66966 78.4231C5.52299 78.8623 6.4707 79.0865 7.42929 79.0905C7.67395 79.0916 7.91884 79.0905 8.1635 79.0905C8.78178 79.0905 9.40005 79.0905 10.0185 79.0905C10.966 79.0905 11.9135 79.0905 12.8612 79.0905C14.0873 79.0905 15.3132 79.0905 16.5393 79.0905C17.9889 79.0905 19.4386 79.0905 20.8882 79.0905C22.5171 79.0905 24.1459 79.0905 25.7748 79.0905C27.5413 79.0905 29.308 79.0905 31.0744 79.0905C32.9166 79.0905 34.7587 79.0905 36.6009 79.0905C38.4837 79.0905 40.3667 79.0905 42.2495 79.0905C44.1104 79.0905 45.971 79.0905 47.8318 79.0905C49.629 79.0905 51.4262 79.0905 53.2234 79.0905C54.9147 79.0905 56.606 79.0905 58.2973 79.0905C59.8212 79.0905 61.3451 79.0905 62.869 79.0905C64.1884 79.0905 65.5076 79.0905 66.8268 79.0905C67.8827 79.0905 68.9389 79.0905 69.9948 79.0905C70.7444 79.0905 71.4942 79.0905 72.2438 79.0905C72.6394 79.0905 73.035 79.0905 73.4306 79.0905C74.016 79.0905 74.5941 79.0329 75.1607 78.8781C76.241 78.5828 77.2299 77.9829 77.9904 77.161C78.743 76.3476 79.2615 75.3281 79.4761 74.241C79.5677 73.7769 79.5899 73.3095 79.5899 72.8386C79.5899 72.3939 79.5899 71.9492 79.5899 71.5047C79.5899 70.7079 79.5899 69.9114 79.5899 69.1146C79.5899 68.0207 79.5899 66.9265 79.5899 65.8326C79.5899 64.4874 79.5899 63.1419 79.5899 61.7967C79.5899 60.2425 79.5899 58.6882 79.5899 57.134C79.5899 55.4246 79.5899 53.7151 79.5899 52.0055C79.5899 50.1967 79.5899 48.388 79.5899 46.5793C79.5899 44.7136 79.5899 42.8481 79.5899 40.9824C79.5899 39.1013 79.5899 37.22 79.5899 35.3389C79.5899 33.505 79.5899 31.6713 79.5899 29.8374C79.5899 28.0859 79.5899 26.3344 79.5899 24.5829C79.5899 22.9755 79.5899 21.3683 79.5899 19.7609C79.5899 18.3395 79.5899 16.918 79.5899 15.4966C79.5899 14.3055 79.5899 13.1144 79.5899 11.9234C79.5899 11.0175 79.5899 10.1114 79.5899 9.20558C79.5899 8.63534 79.5899 8.0651 79.5899 7.49486C79.5899 7.26578 79.5931 7.0367 79.5886 6.80762C79.5677 5.73845 79.2577 4.68208 78.6973 3.77111C78.1021 2.80377 77.2321 2.01576 76.2113 1.5179C75.3866 1.11568 74.4805 0.913497 73.5642 0.909654C73.3044 0.908587 73.0446 0.909654 72.785 0.909654C72.1535 0.909654 71.5219 0.909654 70.8904 0.909654C69.9314 0.909654 68.9726 0.909654 68.0136 0.909654C66.7832 0.909654 65.5526 0.909654 64.3223 0.909654C62.8598 0.909654 61.3974 0.909654 59.935 0.909654C58.3003 0.909654 56.6655 0.909654 55.0308 0.909654C53.2671 0.909654 51.5034 0.909654 49.7398 0.909654C47.8886 0.909654 46.0374 0.909654 44.1861 0.909654C42.3029 0.909654 40.4197 0.909654 38.5365 0.909654C36.6771 0.909654 34.818 0.909654 32.9587 0.909654C31.1649 0.909654 29.3709 0.909654 27.5772 0.909654C25.8912 0.909654 24.205 0.909654 22.5191 0.909654C21.0022 0.909654 19.4853 0.909654 17.9684 0.909654C16.658 0.909654 15.3478 0.909654 14.0374 0.909654C12.9921 0.909654 11.9468 0.909654 10.9016 0.909654C10.1644 0.909654 9.42738 0.909654 8.69019 0.909654C8.3091 0.909654 7.92801 0.909654 7.54671 0.909654C6.92587 0.909654 6.31335 0.980321 5.71642 1.15709C4.63956 1.47584 3.66197 2.09881 2.91795 2.93998C2.1863 3.76705 1.69185 4.79374 1.50034 5.88106C1.4237 6.31573 1.40918 6.75211 1.40918 7.19191C1.40918 7.65071 1.40918 8.10929 1.40918 8.56809C1.40918 9.37702 1.40918 10.1859 1.40918 10.9949C1.40918 12.0993 1.40918 13.2037 1.40918 14.3081C1.40918 15.6618 1.40918 17.0158 1.40918 18.3696C1.40918 19.9306 1.40918 21.4915 1.40918 23.0526C1.40918 24.7669 1.40918 26.4813 1.40918 28.1956C1.40918 30.0073 1.40918 31.8192 1.40918 33.6309C1.40918 35.4977 1.40918 37.3647 1.40918 39.2315C1.40918 41.1049 1.40918 42.9785 1.40918 44.8519C1.40918 46.6903 1.40918 48.5287 1.40918 50.3671C1.40918 52.1143 1.40918 53.8614 1.40918 55.6086C1.40918 57.2098 1.40918 58.811 1.40918 60.412C1.40918 61.8255 1.40918 63.2388 1.40918 64.6524C1.40918 65.8336 1.40918 67.0147 1.40918 68.196C1.40918 69.0873 1.40918 69.9788 1.40918 70.8702C1.40918 71.4297 1.40918 71.9891 1.40918 72.5487C1.40918 72.7248 1.40918 72.9007 1.40918 73.0766Z" fill="white" stroke="#303030" stroke-miterlimit="10" stroke-linecap="round" stroke-linejoin="round"/>
<circle cx="24.8776" cy="26.1572" r="2.48017" stroke="#303030"/>
<path d="M26.7305 24.2499C27.7041 21.0292 32.3479 19.1567 32.3479 19.1567" stroke="#303030" stroke-linecap="round"/>
<path d="M23.0679 24.2499C22.0942 21.0292 17.4505 19.1567 17.4505 19.1567" stroke="#303030" stroke-linecap="round"/>
<path d="M22.7866 27.9274C21.016 27.5883 17.1782 30.3476 17.1782 30.3476" stroke="#303030" stroke-linecap="round"/>
<path d="M26.8914 27.9274C28.6619 27.5883 32.4998 30.3476 32.4998 30.3476" stroke="#303030" stroke-linecap="round"/>
<circle cx="24.8776" cy="55.0004" r="2.48017" stroke="#303030"/>
<path d="M26.7305 53.0931C27.7041 49.8725 32.3479 48 32.3479 48" stroke="#303030" stroke-linecap="round"/>
<path d="M23.0679 53.0931C22.0942 49.8725 17.4505 48 17.4505 48" stroke="#303030" stroke-linecap="round"/>
<path d="M22.7866 56.7706C21.016 56.4316 17.1782 59.1908 17.1782 59.1908" stroke="#303030" stroke-linecap="round"/>
<path d="M26.8914 56.7706C28.6619 56.4316 32.4998 59.1908 32.4998 59.1908" stroke="#303030" stroke-linecap="round"/>
<circle cx="56.1994" cy="26.1572" r="2.48017" stroke="#303030"/>
<path d="M58.0522 24.2499C59.0259 21.0292 63.6697 19.1567 63.6697 19.1567" stroke="#303030" stroke-linecap="round"/>
<path d="M54.3896 24.2499C53.416 21.0292 48.7722 19.1567 48.7722 19.1567" stroke="#303030" stroke-linecap="round"/>
<path d="M54.1084 27.9274C52.3378 27.5883 48.5 30.3476 48.5 30.3476" stroke="#303030" stroke-linecap="round"/>
<path d="M58.2132 27.9274C59.9837 27.5883 63.8216 30.3476 63.8216 30.3476" stroke="#303030" stroke-linecap="round"/>
<circle cx="56.1994" cy="55.0004" r="2.48017" stroke="#303030"/>
<path d="M58.0522 53.0931C59.0259 49.8725 63.6697 48 63.6697 48" stroke="#303030" stroke-linecap="round"/>
<path d="M54.3896 53.0931C53.416 49.8725 48.7722 48 48.7722 48" stroke="#303030" stroke-linecap="round"/>
<path d="M54.1084 56.7706C52.3378 56.4316 48.5 59.1908 48.5 59.1908" stroke="#303030" stroke-linecap="round"/>
<path d="M58.2132 56.7706C59.9837 56.4316 63.8216 59.1908 63.8216 59.1908" stroke="#303030" stroke-linecap="round"/>
</svg>
