<svg width="119" height="50" viewBox="0 0 119 50" fill="none" xmlns="http://www.w3.org/2000/svg">
<path d="M1.06104 5.3172V0.567383H5.75815V1.99224H113.236V0.567383H117.933V5.3172V43.6892V48.439H113.236V47.0142H5.75815V48.439H1.06104V43.6892V5.3172Z" fill="#ECEDF1" stroke="#303030" stroke-miterlimit="10" stroke-linecap="round" stroke-linejoin="round"/>
<path d="M5.75815 0.567383H1.06104V5.3172H5.75815V0.567383Z" stroke="#303030" stroke-miterlimit="10" stroke-linecap="round" stroke-linejoin="round"/>
<path d="M117.933 0.567383H113.236V5.3172H117.933V0.567383Z" stroke="#303030" stroke-miterlimit="10" stroke-linecap="round" stroke-linejoin="round"/>
<path d="M117.933 43.6892H113.236V48.439H117.933V43.6892Z" stroke="#303030" stroke-miterlimit="10" stroke-linecap="round" stroke-linejoin="round"/>
<path d="M5.75815 43.6892H1.06104V48.439H5.75815V43.6892Z" stroke="#303030" stroke-miterlimit="10" stroke-linecap="round" stroke-linejoin="round"/>
<path d="M5.75815 5.31714H1.06104V43.6894H5.75815V5.31714Z" fill="white" stroke="#303030" stroke-miterlimit="10" stroke-linecap="round" stroke-linejoin="round"/>
<path d="M5.75815 0.567383H1.06104V5.74707H5.75815V0.567383Z" fill="white" stroke="#303030" stroke-miterlimit="10" stroke-linecap="round" stroke-linejoin="round"/>
<path d="M117.933 0.567383H113.236V5.74707H117.933V0.567383Z" fill="white" stroke="#303030" stroke-miterlimit="10" stroke-linecap="round" stroke-linejoin="round"/>
<path d="M5.75815 43.6892H1.06104V48.8689H5.75815V43.6892Z" fill="white" stroke="#303030" stroke-miterlimit="10" stroke-linecap="round" stroke-linejoin="round"/>
<path d="M117.933 43.6892H113.236V48.8689H117.933V43.6892Z" fill="white" stroke="#303030" stroke-miterlimit="10" stroke-linecap="round" stroke-linejoin="round"/>
<path d="M117.933 5.31714H113.236V43.6894H117.933V5.31714Z" fill="white" stroke="#303030" stroke-miterlimit="10" stroke-linecap="round" stroke-linejoin="round"/>
<path d="M113.236 1.99219H5.75806V3.89207H113.236V1.99219Z" stroke="#303030" stroke-miterlimit="10" stroke-linecap="round" stroke-linejoin="round"/>
<path d="M113.236 45.1143H5.75806V47.0141H113.236V45.1143Z" stroke="#303030" stroke-miterlimit="10" stroke-linecap="round" stroke-linejoin="round"/>
<path d="M113.236 12.7727H5.75806V14.6726H113.236V12.7727Z" stroke="#303030" stroke-miterlimit="10" stroke-linecap="round" stroke-linejoin="round"/>
<path d="M113.236 23.5532H5.75806V25.4531H113.236V23.5532Z" stroke="#303030" stroke-miterlimit="10" stroke-linecap="round" stroke-linejoin="round"/>
<path d="M113.236 34.3337H5.75806V36.2336H113.236V34.3337Z" stroke="#303030" stroke-miterlimit="10" stroke-linecap="round" stroke-linejoin="round"/>
<path d="M105.578 10.7231C105.35 10.1061 104.976 9.61765 104.386 9.31702C103.303 8.76614 101.917 8.61028 100.726 8.75203C99.9984 8.83836 99.2546 9.07013 98.7064 9.57936C97.9579 10.2747 97.6496 11.3388 97.4584 12.3106C97.1754 13.7483 97.1173 15.2246 96.98 16.6804C96.8467 18.0982 96.6181 19.4999 96.3769 20.9023C96.1103 22.4532 95.8199 24.0021 95.6439 25.5667C95.4805 27.0185 95.4227 28.479 95.4725 29.9392C95.5236 31.4386 95.6769 32.9368 95.9499 34.412C96.2058 35.795 96.56 37.1722 97.1036 38.4711C97.5941 39.6438 98.2553 40.8224 99.2673 41.6175C99.7712 42.0132 100.358 42.2887 100.989 42.3968C102.184 42.6017 103.415 42.2158 104.338 41.4405C105.289 40.6414 105.919 39.4976 106.416 38.3754C107.038 36.971 107.469 35.495 107.877 34.0167C108.243 32.6895 108.551 31.3385 108.699 29.968C108.844 28.6244 108.806 27.2761 108.611 25.9395C108.397 24.475 108.029 23.0414 107.684 21.6037C107.33 20.1254 106.959 18.6508 106.699 17.1516C106.439 15.6522 106.28 14.1372 106.03 12.6368C105.923 11.9922 105.803 11.3392 105.578 10.7231Z" fill="white" stroke="#303030" stroke-miterlimit="10" stroke-linecap="round" stroke-linejoin="round"/>
<path d="M83.8625 10.7231C84.0904 10.1061 84.4639 9.61765 85.0546 9.31702C86.1368 8.76614 87.5231 8.61028 88.7142 8.75203C89.4419 8.83836 90.1856 9.07013 90.7339 9.57936C91.4823 10.2747 91.7907 11.3388 91.9818 12.3106C92.2648 13.7483 92.323 15.2246 92.4603 16.6804C92.5936 18.0982 92.8221 19.4999 93.0634 20.9023C93.33 22.4532 93.6203 24.0021 93.7964 25.5667C93.9598 27.0185 94.0176 28.479 93.9678 29.9392C93.9167 31.4386 93.7633 32.9368 93.4904 34.4121C93.2344 35.795 92.8803 37.1722 92.3367 38.4711C91.8462 39.6438 91.185 40.8224 90.1729 41.6175C89.6691 42.0132 89.0824 42.2887 88.4509 42.3968C87.2564 42.6017 86.0249 42.2158 85.1024 41.4405C84.1512 40.6414 83.521 39.4976 83.0242 38.3754C82.4024 36.971 81.9714 35.495 81.5634 34.0167C81.1972 32.6895 80.8889 31.3385 80.7412 29.968C80.5965 28.6244 80.6339 27.2761 80.8294 25.9395C81.0436 24.475 81.4114 23.0414 81.7559 21.6037C82.1104 20.1254 82.4809 18.6508 82.7412 17.1516C83.0015 15.6522 83.1598 14.1372 83.4104 12.6368C83.5177 11.9922 83.637 11.3392 83.8625 10.7231Z" fill="white" stroke="#303030" stroke-miterlimit="10" stroke-linecap="round" stroke-linejoin="round"/>
<path d="M70.0219 10.7231C69.794 10.1061 69.4205 9.61765 68.8298 9.31702C67.7476 8.76614 66.3613 8.61028 65.1702 8.75203C64.4425 8.83836 63.6987 9.07013 63.1505 9.57936C62.402 10.2747 62.0936 11.3388 61.9025 12.3106C61.6195 13.7483 61.5614 15.2246 61.4241 16.6804C61.2908 18.0982 61.0622 19.4999 60.821 20.9023C60.5544 22.4532 60.264 24.0021 60.088 25.5667C59.9246 27.0185 59.8668 28.479 59.9166 29.9392C59.9677 31.4386 60.121 32.9368 60.394 34.412C60.6499 35.795 61.0041 37.1722 61.5477 38.4711C62.0382 39.6438 62.6994 40.8224 63.7114 41.6175C64.2153 42.0132 64.802 42.2887 65.4335 42.3968C66.6279 42.6017 67.8595 42.2158 68.782 41.4405C69.7332 40.6414 70.3633 39.4976 70.8602 38.3754C71.482 36.971 71.913 35.495 72.3209 34.0167C72.6871 32.6895 72.9955 31.3385 73.1432 29.968C73.2879 28.6244 73.2504 27.2761 73.055 25.9395C72.8408 24.475 72.4729 23.0414 72.1285 21.6037C71.774 20.1254 71.4034 18.6508 71.1432 17.1516C70.8829 15.6522 70.7245 14.1372 70.4739 12.6368C70.3667 11.9922 70.2474 11.3392 70.0219 10.7231Z" fill="white" stroke="#303030" stroke-miterlimit="10" stroke-linecap="round" stroke-linejoin="round"/>
<path d="M48.3066 10.7231C48.5344 10.1061 48.908 9.61765 49.4987 9.31702C50.5809 8.76614 51.9671 8.61028 53.1583 8.75203C53.886 8.83836 54.6297 9.07013 55.178 9.57936C55.9264 10.2747 56.2348 11.3388 56.4259 12.3106C56.7089 13.7483 56.767 15.2246 56.9044 16.6804C57.0377 18.0982 57.2662 19.4999 57.5074 20.9023C57.7741 22.4532 58.0644 24.0021 58.2405 25.5667C58.4039 27.0185 58.4617 28.479 58.4119 29.9392C58.3608 31.4386 58.2074 32.9368 57.9344 34.4121C57.6785 35.795 57.3243 37.1722 56.7807 38.4711C56.2903 39.6438 55.629 40.8224 54.617 41.6175C54.1132 42.0132 53.5265 42.2887 52.895 42.3968C51.7005 42.6017 50.469 42.2158 49.5465 41.4405C48.5953 40.6414 47.9651 39.4976 47.4683 38.3754C46.8465 36.971 46.4155 35.495 46.0075 34.0167C45.6413 32.6895 45.3329 31.3385 45.1853 29.968C45.0406 28.6244 45.078 27.2761 45.2735 25.9395C45.4876 24.475 45.8555 23.0414 46.2 21.6037C46.5545 20.1254 46.925 18.6508 47.1853 17.1516C47.4456 15.6522 47.6039 14.1372 47.8545 12.6368C47.9614 11.9922 48.0807 11.3392 48.3066 10.7231Z" fill="white" stroke="#303030" stroke-miterlimit="10" stroke-linecap="round" stroke-linejoin="round"/>
<path d="M35.1371 10.7231C34.9092 10.1061 34.5357 9.61765 33.945 9.31702C32.8628 8.76614 31.4765 8.61028 30.2854 8.75203C29.5577 8.83836 28.814 9.07013 28.2657 9.57936C27.5173 10.2747 27.2089 11.3388 27.0178 12.3106C26.7348 13.7483 26.6766 15.2246 26.5393 16.6804C26.406 18.0982 26.1775 19.4999 25.9362 20.9023C25.6696 22.4532 25.3793 24.0021 25.2032 25.5667C25.0398 27.0185 24.982 28.479 25.0318 29.9392C25.0829 31.4386 25.2363 32.9368 25.5092 34.412C25.7652 35.795 26.1197 37.1722 26.6629 38.4711C27.1534 39.6438 27.8146 40.8224 28.8267 41.6175C29.3305 42.0132 29.9172 42.2887 30.5487 42.3968C31.7432 42.6017 32.9747 42.2158 33.8972 41.4405C34.8484 40.6414 35.4786 39.4976 35.9754 38.3754C36.5972 36.971 37.0282 35.495 37.4362 34.0167C37.8023 32.6895 38.1107 31.3385 38.2584 29.968C38.4031 28.6244 38.3657 27.2761 38.1702 25.9395C37.956 24.475 37.5882 23.0414 37.2437 21.6037C36.8892 20.1254 36.5187 18.6508 36.2584 17.1516C35.9981 15.6522 35.8398 14.1372 35.5892 12.6368C35.4819 11.9922 35.3626 11.3392 35.1371 10.7231Z" fill="white" stroke="#303030" stroke-miterlimit="10" stroke-linecap="round" stroke-linejoin="round"/>
<path d="M13.4225 10.7231C13.6504 10.1061 14.024 9.61765 14.6147 9.31702C15.6969 8.76614 17.0831 8.61028 18.2742 8.75203C19.0019 8.83836 19.7457 9.07013 20.294 9.57936C21.0424 10.2747 21.3508 11.3388 21.5419 12.3106C21.8249 13.7483 21.883 15.2246 22.0203 16.6804C22.1536 18.0982 22.3822 19.4999 22.6234 20.9023C22.89 22.4532 23.1804 24.0021 23.3565 25.5667C23.5198 27.0185 23.5776 28.479 23.5279 29.9392C23.4767 31.4386 23.3234 32.9368 23.0504 34.4121C22.7945 35.795 22.4403 37.1722 21.8967 38.4711C21.4062 39.6438 20.745 40.8224 19.733 41.6175C19.2291 42.0132 18.6424 42.2887 18.011 42.3968C16.8165 42.6017 15.5849 42.2158 14.6624 41.4405C13.7112 40.6414 13.0811 39.4976 12.5842 38.3754C11.9625 36.971 11.5314 35.495 11.1235 34.0167C10.7573 32.6895 10.4489 31.3385 10.3012 29.968C10.1566 28.6244 10.194 27.2761 10.3894 25.9395C10.6036 24.475 10.9715 23.0414 11.3159 21.6037C11.6704 20.1254 12.041 18.6508 12.3012 17.1516C12.5615 15.6522 12.7199 14.1372 12.9705 12.6368C13.0774 11.9922 13.1967 11.3392 13.4225 10.7231Z" fill="white" stroke="#303030" stroke-miterlimit="10" stroke-linecap="round" stroke-linejoin="round"/>
<path d="M104.381 12.1033C104.198 11.4791 103.912 10.8719 103.344 10.5173C102.782 10.1654 102.057 10.0326 101.402 10.0589C100.594 10.0913 99.9376 10.4468 99.5468 11.1773C99.0203 12.1611 98.8469 13.3739 98.6843 14.4645C98.5121 15.6192 98.3965 16.8072 98.4801 17.9748C98.5397 18.808 98.7222 19.6815 99.5239 20.1045C100.318 20.5237 101.344 20.5588 102.219 20.4895C103.072 20.4219 104.013 20.2202 104.428 19.3785C104.842 18.5401 104.854 17.4789 104.868 16.5653C104.885 15.3165 104.799 14.0486 104.554 12.8228C104.506 12.5806 104.45 12.3402 104.381 12.1033Z" fill="white" stroke="#303030" stroke-miterlimit="10" stroke-linecap="round" stroke-linejoin="round"/>
<path d="M85.0592 12.1033C85.242 11.4791 85.5284 10.8719 86.0957 10.5173C86.6585 10.1654 87.383 10.0326 88.0376 10.0589C88.8458 10.0913 89.5025 10.4468 89.8933 11.1773C90.4198 12.1611 90.5932 13.3739 90.7557 14.4645C90.928 15.6192 91.0436 16.8072 90.96 17.9748C90.9004 18.808 90.7179 19.6815 89.9162 20.1045C89.1219 20.5237 88.0957 20.5588 87.2213 20.4895C86.3683 20.4219 85.4269 20.2202 85.012 19.3785C84.5985 18.5401 84.5856 17.4789 84.5724 16.5653C84.5548 15.3165 84.6411 14.0486 84.8858 12.8228C84.9342 12.5806 84.9906 12.3402 85.0592 12.1033Z" fill="white" stroke="#303030" stroke-miterlimit="10" stroke-linecap="round" stroke-linejoin="round"/>
<path d="M68.8252 12.1033C68.6424 11.4791 68.356 10.8719 67.7888 10.5173C67.226 10.1654 66.5015 10.0326 65.8468 10.0589C65.0387 10.0913 64.382 10.4468 63.9911 11.1773C63.4647 12.1611 63.2912 13.3739 63.1287 14.4645C62.9564 15.6192 62.8408 16.8072 62.9244 17.9748C62.984 18.808 63.1665 19.6815 63.9682 20.1045C64.7625 20.5237 65.7887 20.5588 66.6631 20.4895C67.5162 20.4219 68.4575 20.2202 68.8724 19.3785C69.2859 18.5401 69.2988 17.4789 69.312 16.5653C69.3296 15.3165 69.2433 14.0486 68.9986 12.8228C68.9502 12.5806 68.8939 12.3402 68.8252 12.1033Z" fill="white" stroke="#303030" stroke-miterlimit="10" stroke-linecap="round" stroke-linejoin="round"/>
<path d="M49.5033 12.1033C49.6861 11.4791 49.9725 10.8719 50.5397 10.5173C51.1025 10.1654 51.827 10.0326 52.4817 10.0589C53.2898 10.0913 53.9465 10.4468 54.3374 11.1773C54.8638 12.1611 55.0372 13.3739 55.2001 14.4645C55.3723 15.6192 55.4879 16.8072 55.4043 17.9748C55.3447 18.808 55.1622 19.6815 54.3605 20.1045C53.5662 20.5237 52.5401 20.5588 51.6656 20.4895C50.8126 20.4219 49.8712 20.2202 49.4563 19.3785C49.0429 18.5401 49.03 17.4789 49.0167 16.5653C48.9991 15.3165 49.0854 14.0486 49.3301 12.8228C49.3783 12.5806 49.4346 12.3402 49.5033 12.1033Z" fill="white" stroke="#303030" stroke-miterlimit="10" stroke-linecap="round" stroke-linejoin="round"/>
<path d="M33.9405 12.1033C33.7577 11.4791 33.4713 10.8719 32.904 10.5173C32.3412 10.1654 31.6167 10.0326 30.9621 10.0589C30.1539 10.0913 29.4972 10.4468 29.1064 11.1773C28.5799 12.1611 28.4065 13.3739 28.2437 14.4645C28.0714 15.6192 27.9558 16.8072 28.0394 17.9748C28.099 18.808 28.2815 19.6815 29.0832 20.1045C29.8775 20.5237 30.9037 20.5588 31.7781 20.4895C32.6312 20.4219 33.5725 20.2202 33.9874 19.3785C34.4009 18.5401 34.4138 17.4789 34.427 16.5653C34.4446 15.3165 34.3583 14.0486 34.1136 12.8228C34.0655 12.5806 34.0091 12.3402 33.9405 12.1033Z" fill="white" stroke="#303030" stroke-miterlimit="10" stroke-linecap="round" stroke-linejoin="round"/>
<path d="M14.6188 12.1033C14.8016 11.4791 15.088 10.8719 15.6552 10.5173C16.218 10.1654 16.9425 10.0326 17.5971 10.0589C18.4053 10.0913 19.062 10.4468 19.4528 11.1773C19.9793 12.1611 20.1527 13.3739 20.3156 14.4645C20.4878 15.6192 20.6034 16.8072 20.5198 17.9748C20.4602 18.808 20.2777 19.6815 19.476 20.1045C18.6817 20.5237 17.6555 20.5588 16.7811 20.4895C15.9281 20.4219 14.9867 20.2202 14.5718 19.3785C14.1583 18.5401 14.1454 17.4789 14.1322 16.5653C14.1146 15.3165 14.2009 14.0486 14.4456 12.8228C14.494 12.5806 14.5501 12.3402 14.6188 12.1033Z" fill="white" stroke="#303030" stroke-miterlimit="10" stroke-linecap="round" stroke-linejoin="round"/>
</svg>
