<svg width="159" height="220" viewBox="0 0 159 220" fill="none" xmlns="http://www.w3.org/2000/svg">
<path d="M6.52919 1.0996L152.561 1.09961L152.614 1.09961L152.667 1.10058L152.72 1.10203L152.773 1.10397L152.826 1.10688L152.88 1.11027L152.934 1.11415L152.988 1.11851L153.042 1.12384L153.096 1.12965L153.151 1.13595L153.206 1.14322L153.26 1.15097L153.315 1.1597L153.37 1.16891L153.425 1.1786L153.48 1.18926L153.536 1.2004L153.591 1.21203L153.646 1.22463L153.702 1.2382L153.757 1.25225L153.812 1.26679L153.868 1.2823L153.923 1.29829L153.979 1.31525L154.034 1.33269L154.089 1.35111L154.144 1.37049L154.199 1.38987L154.254 1.41071L154.309 1.43203L154.364 1.45384L154.419 1.47661L154.473 1.49987L154.527 1.5241L154.582 1.5493L154.635 1.57498L154.689 1.60115L154.742 1.62829L154.795 1.65591L154.848 1.6845L154.901 1.71406L154.953 1.7441L155.005 1.77463L155.057 1.80613L155.109 1.83811L155.16 1.87106L155.211 1.9045L155.261 1.9389L155.311 1.97379L155.36 2.00917L155.409 2.04551L155.459 2.08234L155.507 2.12014L155.554 2.15793L155.602 2.19719L155.649 2.23644L155.695 2.27666L155.741 2.31736L155.786 2.35855L155.831 2.40023L155.876 2.44287L155.919 2.486L155.962 2.52961L156.005 2.57371L156.047 2.61829L156.089 2.66384L156.129 2.70939L156.169 2.75542L156.209 2.80243L156.248 2.84943L156.286 2.89741L156.324 2.94538L156.361 2.99384L156.397 3.04278L156.433 3.09221L156.468 3.14212L156.502 3.19203L156.536 3.24291L156.569 3.29379L156.601 3.34516L156.633 3.39652L156.664 3.44838L156.694 3.50071L156.723 3.55305L156.752 3.60586L156.779 3.65917L156.807 3.71247L156.833 3.76578L156.859 3.81956L156.884 3.87335L156.908 3.92763L156.932 3.9819L156.954 4.03617L156.977 4.09093L156.998 4.14521L157.019 4.19996L157.039 4.2552L157.057 4.30996L157.076 4.3652L157.093 4.42044L157.11 4.47521L157.127 4.53045L157.142 4.58569L157.157 4.64093L157.171 4.69617L157.184 4.75142L157.197 4.80666L157.209 4.8619L157.22 4.91666L157.231 4.9719L157.241 5.02666L157.25 5.08142L157.258 5.13617L157.266 5.19093L157.273 5.2452L157.28 5.29948L157.285 5.35375L157.291 5.40802L157.296 5.46181L157.3 5.51512L157.303 5.5689L157.305 5.62221L157.307 5.67503L157.309 5.72785L157.31 5.78067L157.31 5.833L157.31 20.0341L157.31 214.113L157.31 214.166L157.309 214.219L157.307 214.271L157.305 214.325L157.303 214.378L157.3 214.431L157.296 214.485L157.291 214.539L157.285 214.593L157.28 214.647L157.273 214.702L157.266 214.756L157.258 214.811L157.25 214.865L157.241 214.92L157.231 214.975L157.22 215.03L157.209 215.085L157.197 215.14L157.184 215.195L157.171 215.25L157.157 215.305L157.142 215.361L157.127 215.416L157.11 215.471L157.093 215.526L157.076 215.582L157.057 215.636L157.039 215.692L157.019 215.746L156.998 215.801L156.977 215.856L156.954 215.911L156.932 215.965L156.908 216.019L156.884 216.074L156.859 216.127L156.833 216.181L156.807 216.234L156.779 216.288L156.752 216.341L156.723 216.393L156.694 216.446L156.664 216.498L156.633 216.55L156.601 216.602L156.569 216.653L156.536 216.704L156.502 216.754L156.468 216.805L156.433 216.855L156.397 216.904L156.361 216.953L156.324 217.001L156.286 217.049L156.248 217.097L156.209 217.144L156.169 217.191L156.129 217.237L156.089 217.283L156.047 217.328L156.005 217.373L155.962 217.417L155.919 217.461L155.876 217.504L155.831 217.546L155.786 217.588L155.741 217.63L155.695 217.67L155.649 217.71L155.602 217.75L155.554 217.788L155.507 217.827L155.459 217.865L155.409 217.901L155.36 217.937L155.311 217.973L155.261 218.008L155.211 218.042L155.16 218.076L155.109 218.108L155.057 218.141L155.005 218.172L154.953 218.203L154.901 218.233L154.848 218.262L154.795 218.29L154.742 218.319L154.689 218.346L154.635 218.372L154.582 218.398L154.527 218.422L154.473 218.447L154.419 218.47L154.364 218.493L154.309 218.515L154.254 218.536L154.199 218.557L154.144 218.576L154.089 218.596L154.034 218.614L153.979 218.632L153.923 218.649L153.868 218.665L153.812 218.68L153.757 218.695L153.702 218.709L153.646 218.722L153.591 218.734L153.536 218.746L153.48 218.758L153.425 218.768L153.37 218.778L153.315 218.787L153.26 218.796L153.206 218.804L153.151 218.81L153.096 218.817L153.042 218.823L152.988 218.828L152.934 218.833L152.88 218.837L152.826 218.84L152.773 218.842L152.72 218.845L152.667 218.846L152.614 218.847L152.561 218.847L6.52918 218.847L6.47666 218.847L6.42367 218.846L6.3707 218.845L6.31771 218.842L6.26421 218.84L6.21026 218.837L6.15629 218.833L6.10235 218.828L6.04838 218.823L5.99392 218.817L5.93947 218.81L5.88454 218.804L5.8301 218.796L5.77515 218.787L5.72022 218.778L5.6648 218.768L5.60987 218.758L5.55445 218.746L5.49949 218.734L5.4441 218.722L5.38866 218.709L5.33323 218.695L5.27781 218.68L5.2224 218.665L5.16698 218.649L5.11155 218.632L5.05663 218.614L5.0012 218.596L4.94578 218.576L4.89084 218.557L4.8359 218.536L4.78097 218.515L4.72652 218.493L4.67159 218.47L4.61715 218.447L4.56318 218.422L4.50872 218.398L4.45525 218.372L4.40128 218.346L4.34781 218.319L4.29482 218.29L4.24183 218.262L4.18934 218.233L4.13682 218.203L4.0848 218.172L4.03278 218.141L3.98174 218.108L3.93067 218.076L3.87964 218.042L3.82955 218.008L3.7795 217.973L3.72991 217.937L3.68081 217.901L3.63219 217.865L3.58356 217.827L3.53591 217.788L3.48829 217.75L3.44161 217.71L3.39544 217.67L3.34925 217.63L3.30402 217.588L3.25931 217.546L3.21506 217.504L3.1713 217.461L3.12804 217.417L3.08527 217.373L3.04343 217.328L3.00162 217.283L2.96081 217.237L2.92095 217.191L2.88108 217.144L2.8422 217.097L2.80378 217.049L2.76636 217.001L2.72939 216.953L2.69295 216.904L2.65746 216.855L2.62244 216.805L2.58794 216.754L2.55437 216.704L2.52132 216.653L2.48925 216.602L2.45765 216.55L2.42702 216.498L2.39687 216.446L2.36721 216.393L2.33854 216.341L2.31083 216.288L2.28359 216.234L2.25686 216.181L2.2311 216.127L2.20629 216.074L2.18198 216.019L2.15867 215.965L2.13582 215.911L2.11344 215.856L2.09205 215.801L2.07163 215.746L2.0517 215.692L2.03274 215.636L2.01427 215.582L1.99677 215.526L1.97974 215.471L1.96372 215.416L1.94814 215.361L1.93307 215.305L1.91897 215.25L1.90586 215.195L1.89321 215.14L1.88105 215.085L1.86989 215.03L1.85966 214.975L1.84945 214.92L1.84022 214.865L1.83198 214.811L1.82416 214.756L1.8169 214.702L1.81058 214.647L1.80474 214.593L1.79938 214.539L1.795 214.485L1.79064 214.431L1.78773 214.378L1.7848 214.325L1.78286 214.271L1.78141 214.219L1.78043 214.166L1.77993 214.113L1.77994 20.0341L1.77994 5.83299L1.78044 5.78066L1.78142 5.72784L1.78287 5.67502L1.78481 5.6222L1.78773 5.5689L1.79065 5.51511L1.79501 5.4618L1.79939 5.40802L1.80475 5.35374L1.81059 5.29947L1.81691 5.2452L1.82417 5.19092L1.83199 5.13617L1.84023 5.08141L1.84946 5.02665L1.85966 4.97189L1.8699 4.91665L1.88106 4.86189L1.89322 4.80665L1.90587 4.75141L1.91898 4.69616L1.93307 4.64092L1.94815 4.58568L1.96373 4.53044L1.97975 4.4752L1.99678 4.42044L2.01428 4.3652L2.03275 4.30995L2.05171 4.2552L2.07164 4.19996L2.09206 4.1452L2.11345 4.09092L2.13583 4.03617L2.15868 3.98189L2.18199 3.92762L2.2063 3.87335L2.23111 3.81956L2.25687 3.76577L2.2836 3.71246L2.31084 3.65916L2.33855 3.60586L2.36722 3.55304L2.39688 3.5007L2.42703 3.44837L2.45766 3.39652L2.48926 3.34515L2.52133 3.29379L2.55438 3.2429L2.58795 3.19203L2.62245 3.14212L2.65747 3.0922L2.69296 3.04278L2.7294 2.99383L2.76637 2.94537L2.80379 2.8974L2.84221 2.84943L2.88109 2.80242L2.92096 2.75542L2.96082 2.70938L3.00163 2.66383L3.04344 2.61828L3.08528 2.5737L3.12805 2.5296L3.17131 2.48599L3.21507 2.44286L3.25932 2.40022L3.30403 2.35855L3.34926 2.31736L3.39545 2.27665L3.44162 2.23643L3.4883 2.19718L3.53592 2.15793L3.58357 2.12013L3.6322 2.08233L3.68082 2.04551L3.72992 2.00916L3.77951 1.97379L3.82956 1.9389L3.87965 1.90449L3.93068 1.87106L3.98175 1.83811L4.03279 1.80612L4.08481 1.77463L4.13683 1.7441L4.18935 1.71405L4.24184 1.68449L4.29483 1.6559L4.34782 1.62828L4.40129 1.60114L4.45526 1.57498L4.50873 1.54929L4.56319 1.5241L4.61716 1.49987L4.6716 1.47661L4.72653 1.45383L4.78098 1.43203L4.83591 1.4107L4.89085 1.38987L4.94579 1.37048L5.00121 1.3511L5.05664 1.33269L5.11156 1.31524L5.16699 1.29828L5.22241 1.28229L5.27782 1.26678L5.33324 1.25225L5.38867 1.23819L5.44411 1.22462L5.4995 1.21202L5.55446 1.2004L5.60988 1.18925L5.66481 1.17859L5.72023 1.1689L5.77516 1.15969L5.83011 1.15097L5.88455 1.14322L5.93948 1.13595L5.99393 1.12965L6.04839 1.12383L6.10236 1.1185L6.1563 1.11414L6.21027 1.11026L6.26422 1.10687L6.31772 1.10396L6.37071 1.10203L6.42368 1.10057L6.47667 1.0996L6.52919 1.0996Z" fill="white" stroke="#303030" stroke-miterlimit="10" stroke-linecap="round" stroke-linejoin="round"/>
<path d="M8.31007 28.3169L8.31105 28.2355L8.31301 28.1536L8.31639 28.0722L8.32126 27.9903L8.32808 27.9089L8.33586 27.8275L8.34461 27.7465L8.35529 27.6656L8.36746 27.5847L8.38057 27.5042L8.39565 27.4238L8.4117 27.3434L8.42918 27.2639L8.44814 27.1844L8.46858 27.1049L8.48995 27.0264L8.5133 26.9479L8.5376 26.8699L8.56336 26.7924L8.5906 26.7153L8.61878 26.6383L8.64846 26.5622L8.67955 26.4866L8.71213 26.4115L8.74566 26.3374L8.78068 26.2632L8.81664 26.1901L8.85409 26.1174L8.89299 26.0452L8.93284 25.9739L8.97417 25.9032L9.01645 25.8334L9.06022 25.7641L9.10494 25.6958L9.15063 25.6279L9.19781 25.5611L9.24642 25.4952L9.29552 25.4302L9.34609 25.3658L9.3981 25.3023L9.45059 25.2398L9.50457 25.1782L9.55949 25.1172L9.61539 25.0576L9.67228 24.999L9.73014 24.9413L9.78895 24.8841L9.84924 24.8284L9.91001 24.7741L9.97176 24.7203L10.0345 24.6675L10.0982 24.6161L10.1628 24.5657L10.228 24.5163L10.2946 24.4683L10.3617 24.4213L10.4292 24.3753L10.4978 24.3307L10.5673 24.2876L10.6373 24.2449L10.7083 24.2042L10.7797 24.164L10.8522 24.1257L10.9251 24.0884L10.9985 24.0521L11.0729 24.0172L11.1478 23.9838L11.2231 23.9518L11.299 23.9208L11.3753 23.8912L11.4521 23.8626L11.5294 23.836L11.6072 23.8103L11.6854 23.7856L11.7642 23.7628L11.8434 23.741L11.9227 23.7211L12.0024 23.7022L12.0826 23.6848L12.1629 23.6683L12.2435 23.6538L12.3243 23.6402L12.4054 23.6286L12.4866 23.6179L12.5683 23.6087L12.65 23.6009L12.7317 23.5946L12.8133 23.5898L12.8955 23.5864L12.9772 23.584L13.0593 23.5835L146.031 23.5835L146.113 23.584L146.195 23.5864L146.277 23.5898L146.359 23.5946L146.44 23.6009L146.522 23.6087L146.604 23.6179L146.685 23.6286L146.766 23.6402L146.847 23.6538L146.928 23.6683L147.008 23.6848L147.088 23.7022L147.168 23.7211L147.248 23.741L147.326 23.7628L147.405 23.7856L147.483 23.8103L147.561 23.836L147.638 23.8626L147.715 23.8912L147.792 23.9208L147.868 23.9518L147.943 23.9838L148.018 24.0172L148.092 24.0521L148.165 24.0884L148.238 24.1257L148.311 24.164L148.382 24.2042L148.453 24.2449L148.523 24.2876L148.593 24.3307L148.661 24.3753L148.729 24.4213L148.796 24.4683L148.863 24.5163L148.928 24.5657L148.992 24.6161L149.056 24.6675L149.119 24.7203L149.18 24.7741L149.241 24.8284L149.302 24.8841L149.36 24.9413L149.418 24.999L149.475 25.0576L149.531 25.1172L149.586 25.1783L149.64 25.2398L149.693 25.3023L149.744 25.3658L149.795 25.4302L149.844 25.4952L149.893 25.5611L149.94 25.6279L149.986 25.6958L150.031 25.7641L150.074 25.8334L150.116 25.9032L150.158 25.9739L150.197 26.0452L150.236 26.1174L150.274 26.1901L150.31 26.2632L150.345 26.3374L150.379 26.4115L150.411 26.4866L150.442 26.5622L150.472 26.6383L150.5 26.7153L150.527 26.7924L150.553 26.8699L150.577 26.9479L150.601 27.0264L150.622 27.1049L150.642 27.1844L150.661 27.2639L150.679 27.3434L150.695 27.4238L150.71 27.5042L150.723 27.5847L150.735 27.6656L150.746 27.7465L150.755 27.8275L150.763 27.9089L150.769 27.9903L150.774 28.0722L150.777 28.1536L150.78 28.2355L150.78 28.3169L150.78 208.195L150.78 208.277L150.777 208.359L150.774 208.441L150.769 208.522L150.763 208.603L150.755 208.685L150.746 208.766L150.735 208.847L150.723 208.928L150.71 209.009L150.695 209.089L150.679 209.169L150.661 209.249L150.642 209.328L150.622 209.407L150.601 209.486L150.577 209.565L150.553 209.643L150.527 209.72L150.5 209.797L150.472 209.874L150.442 209.95L150.411 210.026L150.379 210.101L150.345 210.175L150.31 210.25L150.274 210.323L150.236 210.395L150.197 210.468L150.158 210.539L150.116 210.61L150.074 210.679L150.031 210.749L149.986 210.817L149.94 210.885L149.893 210.951L149.844 211.018L149.795 211.083L149.744 211.147L149.693 211.211L149.64 211.273L149.586 211.335L149.531 211.395L149.475 211.455L149.418 211.514L149.36 211.572L149.301 211.628L149.241 211.684L149.18 211.739L149.119 211.792L149.056 211.845L148.992 211.897L148.928 211.947L148.863 211.996L148.796 212.044L148.729 212.091L148.661 212.137L148.593 212.182L148.523 212.225L148.453 212.267L148.382 212.309L148.311 212.348L148.238 212.387L148.165 212.424L148.092 212.461L148.018 212.495L147.943 212.529L147.868 212.561L147.792 212.592L147.715 212.622L147.638 212.65L147.561 212.677L147.483 212.703L147.405 212.727L147.326 212.75L147.248 212.771L147.168 212.792L147.088 212.811L147.008 212.828L146.928 212.844L146.847 212.859L146.766 212.872L146.685 212.884L146.604 212.895L146.522 212.904L146.44 212.912L146.359 212.918L146.277 212.923L146.195 212.926L146.113 212.928L146.031 212.929L13.0593 212.929L12.9772 212.928L12.8955 212.926L12.8133 212.923L12.7316 212.918L12.65 212.912L12.5683 212.904L12.4866 212.895L12.4054 212.884L12.3242 212.872L12.2435 212.859L12.1629 212.844L12.0826 212.828L12.0024 212.811L11.9227 212.792L11.8434 212.771L11.7642 212.75L11.6854 212.727L11.6072 212.703L11.5294 212.677L11.4521 212.65L11.3753 212.622L11.2989 212.592L11.2231 212.561L11.1478 212.529L11.0729 212.495L10.9985 212.461L10.9251 212.424L10.8522 212.387L10.7797 212.348L10.7083 212.309L10.6373 212.267L10.5673 212.225L10.4978 212.182L10.4292 212.137L10.3616 212.091L10.2946 212.044L10.2279 211.996L10.1628 211.947L10.0982 211.897L10.0345 211.845L9.97175 211.792L9.91 211.739L9.84923 211.684L9.78894 211.628L9.73013 211.572L9.67227 211.514L9.61539 211.455L9.55948 211.395L9.50456 211.335L9.45058 211.273L9.39809 211.211L9.34608 211.147L9.29552 211.083L9.24641 211.018L9.1978 210.951L9.15063 210.885L9.10493 210.817L9.06021 210.749L9.01645 210.679L8.97416 210.61L8.93283 210.539L8.89298 210.468L8.85408 210.395L8.81663 210.323L8.78067 210.25L8.74566 210.175L8.71213 210.101L8.67955 210.026L8.64845 209.95L8.61878 209.874L8.59059 209.797L8.56335 209.72L8.53759 209.643L8.51329 209.565L8.48994 209.486L8.46857 209.407L8.44813 209.328L8.42917 209.249L8.41169 209.169L8.39564 209.089L8.38057 209.009L8.36745 208.928L8.35528 208.847L8.3446 208.766L8.33585 208.685L8.32808 208.603L8.32125 208.522L8.31638 208.441L8.313 208.359L8.31104 208.277L8.31006 208.195L8.31007 28.3169Z" stroke="#303030" stroke-miterlimit="10" stroke-linecap="round" stroke-linejoin="round"/>
<path d="M157.311 20.0342L1.78018 20.0342" stroke="#303030" stroke-miterlimit="10" stroke-linecap="round" stroke-linejoin="round"/>
<path d="M51.9932 32.5874C59.7333 30.9692 69.2996 31.5657 73.829 31.0148C74.4727 30.9366 75.0841 31.4241 75.0808 32.0725C75.0631 35.5766 74.9007 39.4634 73.416 43.725C73.9268 51.1251 77.2176 53.6215 78.3888 67.0264C78.4436 67.6537 77.9035 68.1702 77.2777 68.1001C55.7937 65.6946 35.754 68.3736 18.2038 68.2506C17.6567 68.2468 17.2178 67.7988 17.2276 67.2518C17.4271 56.0752 20.9657 52.3817 20.2931 43.725C17.4177 40.3067 17.2317 36.246 17.2197 31.7403C17.2183 31.2116 17.6343 30.7733 18.1624 30.7461C32.6237 30.0003 41.4995 32.5874 51.9932 32.5874Z" fill="white"/>
<path d="M51.9932 32.5874C59.7333 30.9692 69.2996 31.5657 73.829 31.0148C74.4727 30.9366 75.0841 31.4241 75.0808 32.0725C75.0631 35.5766 74.9007 39.4634 73.416 43.725M51.9932 32.5874C41.4995 32.5874 32.6237 30.0003 18.1624 30.7461C17.6343 30.7733 17.2182 31.2116 17.2197 31.7403C17.2317 36.246 17.4177 40.3067 20.2931 43.725M51.9932 32.5874C49.5707 33.3668 38.8112 35.7638 35.7937 38.9402M20.2931 43.725C20.9657 52.3817 17.4271 56.0752 17.2276 67.2518C17.2178 67.7988 17.6567 68.2468 18.2038 68.2506C35.754 68.3736 55.7937 65.6946 77.2777 68.1001C77.9035 68.1702 78.4436 67.6537 78.3888 67.0264C77.2176 53.6215 73.9268 51.1251 73.416 43.725M20.2931 43.725C21.2316 48.2795 23.4634 57.2757 26.9747 59.207M73.416 43.725C73.0533 45.2899 71.9195 51.4821 69.1104 53.7644" stroke="#303030" stroke-linecap="round"/>
<path d="M109.649 32.5874C101.908 30.9692 92.3422 31.5657 87.8127 31.0148C87.169 30.9366 86.5576 31.4241 86.5609 32.0725C86.5787 35.5766 86.741 39.4634 88.2257 43.725C87.7149 51.1251 84.4241 53.6215 83.2529 67.0264C83.1981 67.6537 83.7382 68.1702 84.364 68.1001C105.848 65.6946 125.888 68.3736 143.438 68.2506C143.985 68.2468 144.424 67.7988 144.414 67.2518C144.215 56.0752 140.676 52.3817 141.349 43.725C144.224 40.3067 144.41 36.246 144.422 31.7403C144.423 31.2116 144.007 30.7733 143.479 30.7461C129.018 30.0003 120.142 32.5874 109.649 32.5874Z" fill="white"/>
<path d="M109.649 32.5874C101.908 30.9692 92.3422 31.5657 87.8127 31.0148C87.1691 30.9366 86.5576 31.4241 86.5609 32.0725C86.5787 35.5766 86.741 39.4634 88.2257 43.725M109.649 32.5874C120.142 32.5874 129.018 30.0003 143.479 30.7461C144.007 30.7733 144.423 31.2116 144.422 31.7403C144.41 36.246 144.224 40.3067 141.349 43.725M109.649 32.5874C112.071 33.3668 122.83 35.7638 125.848 38.9402M141.349 43.725C140.676 52.3817 144.215 56.0752 144.414 67.2518C144.424 67.7988 143.985 68.2468 143.438 68.2506C125.888 68.3736 105.848 65.6946 84.364 68.1001C83.7382 68.1702 83.1981 67.6537 83.2529 67.0264C84.4241 53.6215 87.7149 51.1251 88.2257 43.725M141.349 43.725C140.41 48.2795 138.178 57.2757 134.667 59.207M88.2257 43.725C88.5884 45.2899 89.7222 51.4821 92.5313 53.7644" stroke="#303030" stroke-linecap="round"/>
<path d="M59.2572 78.0343C90.5816 78.0343 140.477 48.1025 151.971 73.7312C160.544 92.8464 153.102 120.511 151.172 138.632C150.515 144.807 150.497 149.874 151.971 153.117C157.771 165.878 155.974 210.016 149.014 211.563C142.054 213.11 123.43 204.216 97.1651 211.563C70.9002 218.91 5.45013 217.849 3.13001 207.795C0.809894 197.741 11.5265 164.464 15.0067 150.93C16.3522 145.697 15.6912 140.683 14.0612 135.786C11.4752 128.018 6.45055 120.543 3.13001 112.953C8.74615 98.3957 33.068 84.7099 59.2572 78.0343Z" fill="white"/>
<path d="M97.1651 211.563C70.9002 218.91 5.45013 217.849 3.13001 207.795C0.809894 197.741 11.5265 164.464 15.0067 150.93C16.3522 145.697 15.6912 140.683 14.0612 135.786M97.1651 211.563C123.43 204.216 142.054 213.11 149.014 211.563C155.974 210.016 157.771 165.878 151.971 153.117C150.497 149.874 150.515 144.807 151.172 138.632M97.1651 211.563C106.656 207.695 113.64 202.814 119.924 196.53M151.172 138.632C153.102 120.511 160.544 92.8464 151.971 73.7312C140.477 48.1025 90.5816 78.0343 59.2572 78.0343C33.068 84.7099 8.74615 98.3957 3.13001 112.953C6.45055 120.543 11.4752 128.018 14.0612 135.786M151.172 138.632C150.241 144.816 147.269 158.466 142.828 163.591M14.0612 135.786C18.0167 143.273 27.7863 151.385 35.7475 150.93" stroke="#303030" stroke-linecap="round"/>
<path d="M59.2572 78.0343C90.5816 78.0343 140.477 48.1025 151.971 73.7312C154.343 79.0193 139.114 84.2572 117.126 78.0343C95.1392 71.8113 65.5065 91.3402 50.3547 97.5548C38.2197 102.532 62.8545 134.093 47.4702 129.606C32.0858 125.118 10.8363 134.388 3.13 112.953C8.74614 98.3957 33.068 84.7099 59.2572 78.0343Z" fill="#ECEDF1"/>
<path d="M50.3547 97.5548C38.2197 102.532 62.8545 134.093 47.4702 129.606C32.0858 125.118 10.8363 134.388 3.13 112.953C8.74614 98.3957 33.068 84.7099 59.2572 78.0343C90.5816 78.0343 140.477 48.1025 151.971 73.7312C154.343 79.0193 139.114 84.2572 117.126 78.0343C95.1392 71.8113 65.5065 91.3402 50.3547 97.5548ZM50.3547 97.5548C44.456 98.6752 35.6182 104.087 34.27 110.558" stroke="#303030" stroke-linecap="round"/>
<path d="M64.0187 112.481C70.9909 119.671 81.831 134.409 69.4133 135.842" stroke="#303030" stroke-linecap="round"/>
</svg>
