<svg width="196" height="60" viewBox="0 0 196 60" fill="none" xmlns="http://www.w3.org/2000/svg">
<g filter="url(#filter0_d_560_19093)">
<path d="M191.5 1H4.5V48H191.5V1Z" fill="white" stroke="#303030" stroke-miterlimit="10" stroke-linecap="round" stroke-linejoin="round"/>
<path d="M191.5 1H4.5V13.1707H191.5V1Z" fill="white" stroke="#303030" stroke-miterlimit="10" stroke-linecap="round" stroke-linejoin="round"/>
<path d="M188.477 3.98877H7.52332V10.1819H188.477V3.98877Z" fill="#ECEDF1" stroke="#303030" stroke-miterlimit="10" stroke-linecap="round" stroke-linejoin="round"/>
<path d="M97.5 45H4.5V48H97.5V45Z" stroke="#303030" stroke-miterlimit="10" stroke-linecap="round" stroke-linejoin="round"/>
<path d="M62.1525 48H39.5V50.5125H62.1525V48Z" fill="white" stroke="#303030" stroke-miterlimit="10" stroke-linecap="round" stroke-linejoin="round"/>
<path d="M156.153 48H133.5V50.5125H156.153V48Z" fill="white" stroke="#303030" stroke-miterlimit="10" stroke-linecap="round" stroke-linejoin="round"/>
<path d="M191.5 45H97.5V48H191.5V45Z" stroke="#303030" stroke-miterlimit="10" stroke-linecap="round" stroke-linejoin="round"/>
<path d="M78.5115 7.09711L86.3378 6.40128M87.399 7.87026L107.617 6.14355M109.988 8.02696L117.488 7.35689" stroke="#303030" stroke-linecap="round"/>
</g>
<defs>
<filter id="filter0_d_560_19093" x="-1.5" y="0" width="198" height="59.0125" filterUnits="userSpaceOnUse" color-interpolation-filters="sRGB">
<feFlood flood-opacity="0" result="BackgroundImageFix"/>
<feColorMatrix in="SourceAlpha" type="matrix" values="0 0 0 0 0 0 0 0 0 0 0 0 0 0 0 0 0 0 127 0" result="hardAlpha"/>
<feOffset dy="4"/>
<feGaussianBlur stdDeviation="2"/>
<feComposite in2="hardAlpha" operator="out"/>
<feColorMatrix type="matrix" values="0 0 0 0 0 0 0 0 0 0 0 0 0 0 0 0 0 0 0.25 0"/>
<feBlend mode="normal" in2="BackgroundImageFix" result="effect1_dropShadow_560_19093"/>
<feBlend mode="normal" in="SourceGraphic" in2="effect1_dropShadow_560_19093" result="shape"/>
</filter>
</defs>
</svg>
