<svg width="107" height="32" viewBox="0 0 107 32" fill="none" xmlns="http://www.w3.org/2000/svg">
<path d="M103.5 28L103.5 1L3.5 0.999998L3.5 28L103.5 28Z" fill="#ECEDF1" stroke="#303030" stroke-miterlimit="10" stroke-linecap="round" stroke-linejoin="round"/>
<path d="M1.5 28L1.5 1L3.5 1L3.5 28L1.5 28Z" fill="white" stroke="#303030" stroke-miterlimit="10" stroke-linecap="round" stroke-linejoin="round"/>
<path d="M103.5 28L103.5 1L105.5 1L105.5 28L103.5 28Z" fill="white" stroke="#303030" stroke-miterlimit="10" stroke-linecap="round" stroke-linejoin="round"/>
<path d="M103.5 3L103.5 1L105.5 1L105.5 3L103.5 3Z" fill="white" stroke="#303030" stroke-miterlimit="10" stroke-linecap="round" stroke-linejoin="round"/>
<path d="M1.5 3L1.5 1L3.5 1L3.5 3L1.5 3Z" fill="white" stroke="#303030" stroke-miterlimit="10" stroke-linecap="round" stroke-linejoin="round"/>
<path d="M103.5 28L103.5 26L105.5 26L105.5 28L103.5 28Z" fill="white" stroke="#303030" stroke-miterlimit="10" stroke-linecap="round" stroke-linejoin="round"/>
<path d="M1.5 28L1.5 26L3.5 26L3.5 28L1.5 28Z" fill="white" stroke="#303030" stroke-miterlimit="10" stroke-linecap="round" stroke-linejoin="round"/>
<rect x="0.439141" y="0.552321" width="22.5154" height="13.9968" rx="0.5" transform="matrix(0.993783 0.111335 -0.1155 0.993307 74.3415 5.69748)" fill="white" stroke="#303030"/>
<circle cx="18.4144" cy="14.5191" r="9.41608" fill="white" stroke="#303030"/>
<circle cx="18.4144" cy="14.5192" r="6.49335" fill="white" stroke="#303030"/>
<mask id="path-11-inside-1_560_19358" fill="white">
<path fill-rule="evenodd" clip-rule="evenodd" d="M11.028 5.15507C11.2423 5.83872 11.421 6.32676 11.421 6.32676C11.421 6.32676 11.8431 6.02726 12.387 5.56148C14.4627 6.30603 16.2201 7.54017 16.9954 9.08925C18.7815 11.4633 18.5638 14.0059 16.5092 14.7682C14.4547 15.5306 11.9779 13.5664 9.90536 11.765C9.7027 11.5889 9.50804 11.397 9.321 11.1928C9.24606 10.7901 9.18127 10.5324 9.18127 10.5324C9.18127 10.5324 9.06175 10.573 8.86264 10.6501C7.78376 9.27168 6.98482 7.52671 6.37811 6.2016C6.16288 5.73152 5.97184 5.31428 5.80108 4.98499C7.4311 4.64642 9.28611 4.73277 11.028 5.15507Z"/>
</mask>
<path fill-rule="evenodd" clip-rule="evenodd" d="M11.028 5.15507C11.2423 5.83872 11.421 6.32676 11.421 6.32676C11.421 6.32676 11.8431 6.02726 12.387 5.56148C14.4627 6.30603 16.2201 7.54017 16.9954 9.08925C18.7815 11.4633 18.5638 14.0059 16.5092 14.7682C14.4547 15.5306 11.9779 13.5664 9.90536 11.765C9.7027 11.5889 9.50804 11.397 9.321 11.1928C9.24606 10.7901 9.18127 10.5324 9.18127 10.5324C9.18127 10.5324 9.06175 10.573 8.86264 10.6501C7.78376 9.27168 6.98482 7.52671 6.37811 6.2016C6.16288 5.73152 5.97184 5.31428 5.80108 4.98499C7.4311 4.64642 9.28611 4.73277 11.028 5.15507Z" fill="white"/>
<path d="M11.421 6.32676L10.3966 6.42288L10.9606 7.96303L12.2068 7.07885L11.421 6.32676ZM11.028 5.15507L12.0666 5.10055L11.8656 4.45939L11.1125 4.27681L11.028 5.15507ZM12.387 5.56148L12.6169 4.72685L11.9655 4.4932L11.5475 4.8512L12.387 5.56148ZM16.9954 9.08925L16.0153 9.28795L16.0595 9.37623L16.1217 9.45896L16.9954 9.08925ZM16.5092 14.7682L15.9163 13.9152L15.9163 13.9152L16.5092 14.7682ZM9.90536 11.765L10.5946 11.1984L10.5946 11.1984L9.90536 11.765ZM9.321 11.1928L8.25711 11.1461L8.30783 11.4186L8.52369 11.6543L9.321 11.1928ZM9.18127 10.5324L10.2338 10.5272L9.90795 9.23135L8.61302 9.6706L9.18127 10.5324ZM8.86264 10.6501L8.003 11.038L8.6203 11.8267L9.46762 11.4986L8.86264 10.6501ZM6.37811 6.2016L5.38273 6.36836L5.38273 6.36836L6.37811 6.2016ZM5.80108 4.98499L5.34869 4.09173L4.36102 4.29688L4.82779 5.197L5.80108 4.98499ZM11.421 6.32676C12.4455 6.23065 12.4455 6.23068 12.4455 6.2307C12.4455 6.23071 12.4455 6.23073 12.4455 6.23074C12.4455 6.23076 12.4455 6.23078 12.4455 6.23079C12.4455 6.2308 12.4455 6.23079 12.4455 6.23075C12.4455 6.23066 12.4454 6.23046 12.4453 6.23014C12.4451 6.22951 12.4447 6.2284 12.4441 6.22685C12.443 6.22373 12.4412 6.21879 12.4388 6.21211C12.4339 6.19873 12.4266 6.17835 12.417 6.15154C12.3979 6.09792 12.37 6.01864 12.3354 5.91824C12.2661 5.71727 12.1707 5.43267 12.0666 5.10055L9.98937 5.20959C10.0996 5.56112 10.2006 5.86236 10.2743 6.07632C10.3112 6.1834 10.3413 6.26886 10.3625 6.3281C10.373 6.35773 10.3813 6.38083 10.3871 6.39681C10.39 6.4048 10.3922 6.41101 10.3938 6.41538C10.3946 6.41757 10.3952 6.41929 10.3957 6.42054C10.3959 6.42117 10.3961 6.42167 10.3963 6.42206C10.3963 6.42226 10.3964 6.42242 10.3964 6.42256C10.3965 6.42263 10.3965 6.42269 10.3965 6.42274C10.3965 6.42277 10.3965 6.4228 10.3965 6.42281C10.3965 6.42284 10.3966 6.42288 11.421 6.32676ZM11.5475 4.8512C11.2875 5.07394 11.0566 5.25685 10.8915 5.38345C10.8091 5.44667 10.7435 5.49561 10.6991 5.52821C10.677 5.54451 10.6602 5.5567 10.6493 5.56454C10.6439 5.56845 10.64 5.57128 10.6376 5.57298C10.6364 5.57383 10.6356 5.5744 10.6352 5.57468C10.635 5.57483 10.6349 5.5749 10.6349 5.5749C10.6349 5.5749 10.6349 5.57488 10.635 5.57484C10.635 5.57482 10.635 5.5748 10.6351 5.57477C10.6351 5.57476 10.6351 5.57473 10.6351 5.57473C10.6352 5.5747 10.6352 5.57468 11.421 6.32676C12.2068 7.07885 12.2069 7.07882 12.2069 7.07879C12.2069 7.07878 12.207 7.07875 12.207 7.07873C12.2071 7.07868 12.2071 7.07863 12.2072 7.07857C12.2074 7.07847 12.2076 7.07834 12.2078 7.07819C12.2082 7.0779 12.2087 7.07753 12.2093 7.07709C12.2105 7.07622 12.2122 7.07505 12.2142 7.07359C12.2183 7.07068 12.2239 7.06661 12.2311 7.06143C12.2455 7.05107 12.2659 7.03623 12.2918 7.01717C12.3436 6.97906 12.4175 6.92401 12.5086 6.85413C12.6906 6.71454 12.9426 6.5148 13.2264 6.27175L11.5475 4.8512ZM12.157 6.3961C14.0315 7.06845 15.4283 8.11502 16.0153 9.28795L17.9755 8.89055C17.0119 6.96532 14.8939 5.5436 12.6169 4.72685L12.157 6.3961ZM16.1217 9.45896C17.6914 11.5453 17.2766 13.4104 15.9163 13.9152L17.1022 15.6213C19.851 14.6013 19.8715 11.3812 17.869 8.71954L16.1217 9.45896ZM15.9163 13.9152C15.317 14.1376 14.6101 14.0111 13.652 13.487C12.6695 12.9495 11.6354 12.103 10.5946 11.1984L9.21612 12.3317C10.2478 13.2284 11.4884 14.2647 12.776 14.9691C14.0881 15.6869 15.6469 16.1613 17.1022 15.6213L15.9163 13.9152ZM10.5946 11.1984C10.4355 11.0601 10.2766 10.9041 10.1183 10.7313L8.52369 11.6543C8.7395 11.8899 8.96995 12.1177 9.21612 12.3317L10.5946 11.1984ZM10.3849 11.2396C10.3454 11.0273 10.3084 10.8524 10.281 10.7292C10.2672 10.6676 10.2559 10.6187 10.2477 10.5845C10.2436 10.5674 10.2404 10.5539 10.238 10.5443C10.2368 10.5395 10.2359 10.5356 10.2352 10.5328C10.2348 10.5313 10.2345 10.5302 10.2343 10.5292C10.2342 10.5288 10.2341 10.5284 10.234 10.528C10.234 10.5279 10.2339 10.5277 10.2339 10.5276C10.2339 10.5275 10.2338 10.5274 10.2338 10.5274C10.2338 10.5273 10.2338 10.5273 10.2338 10.5273C10.2338 10.5272 10.2338 10.5272 9.18127 10.5324C8.12875 10.5376 8.12874 10.5376 8.12873 10.5376C8.12872 10.5376 8.12872 10.5375 8.12871 10.5375C8.1287 10.5375 8.12869 10.5374 8.12868 10.5374C8.12866 10.5373 8.12864 10.5372 8.12863 10.5372C8.12861 10.5371 8.12861 10.5371 8.12861 10.5371C8.12863 10.5372 8.12871 10.5375 8.12885 10.5381C8.12913 10.5392 8.12964 10.5413 8.13038 10.5443C8.13186 10.5503 8.13424 10.5601 8.13741 10.5735C8.14376 10.6001 8.15327 10.6409 8.1651 10.694C8.18879 10.8004 8.22168 10.9556 8.25711 11.1461L10.3849 11.2396ZM9.18127 10.5324C8.61302 9.6706 8.61298 9.67061 8.61295 9.67062C8.61294 9.67063 8.61291 9.67064 8.61289 9.67065C8.61284 9.67066 8.61279 9.67068 8.61274 9.67069C8.61265 9.67073 8.61254 9.67076 8.61243 9.6708C8.61221 9.67088 8.61195 9.67096 8.61167 9.67106C8.6111 9.67125 8.61042 9.67149 8.60962 9.67176C8.60802 9.67231 8.60596 9.67301 8.60345 9.67388C8.59842 9.67561 8.59158 9.67798 8.583 9.68098C8.56585 9.68697 8.54174 9.6955 8.51131 9.70648C8.45048 9.72845 8.36424 9.76031 8.25765 9.80159L9.46762 11.4986C9.56015 11.4627 9.63322 11.4358 9.68193 11.4182C9.70627 11.4094 9.72448 11.403 9.73596 11.3989C9.7417 11.3969 9.74575 11.3955 9.74804 11.3948C9.74918 11.3944 9.74988 11.3941 9.75013 11.394C9.75026 11.394 9.75027 11.394 9.75017 11.394C9.75012 11.394 9.75004 11.3941 9.74993 11.3941C9.74987 11.3941 9.74981 11.3941 9.74974 11.3942C9.74971 11.3942 9.74967 11.3942 9.74964 11.3942C9.74962 11.3942 9.74959 11.3942 9.74958 11.3942C9.74955 11.3942 9.74952 11.3942 9.18127 10.5324ZM9.72227 10.2621C8.7417 9.00931 7.99213 7.38604 7.37348 6.03485L5.38273 6.36836C5.9775 7.66738 6.82583 9.53405 8.003 11.038L9.72227 10.2621ZM7.37348 6.03485C7.16199 5.57295 6.9594 5.1298 6.77436 4.77297L4.82779 5.197C4.98428 5.49876 5.16376 5.89009 5.38273 6.36836L7.37348 6.03485ZM6.25347 5.87824C7.70296 5.57717 9.37129 5.65217 10.9435 6.03333L11.1125 4.27681C9.20092 3.81338 7.15924 3.71567 5.34869 4.09173L6.25347 5.87824Z" fill="#303030" mask="url(#path-11-inside-1_560_19358)"/>
<mask id="path-13-inside-2_560_19358" fill="white">
<path fill-rule="evenodd" clip-rule="evenodd" d="M6.7669 15.7812C8.15828 15.9769 9.15328 16.0772 9.15328 16.0772C9.15328 16.0772 8.77123 15.2536 8.13003 14.1096C9.1554 13.1711 10.4101 12.6185 11.8952 12.6185C17.2887 11.6687 22.2136 14.0366 22.8952 17.9073C22.963 18.2921 22.976 18.6622 22.94 19.0184C20.9057 18.996 19.2489 19.2177 19.2489 19.2177C19.2489 19.2177 19.9825 20.5756 21.1336 22.1897C19.589 23.6072 17.2704 24.7414 14.9994 25.7268C13.945 25.7861 13.2404 25.8804 13.2404 25.8804C13.2404 25.8804 13.3375 26.0602 13.5166 26.3668C9.713 28.0531 7.93996 29.3825 5.84676 31.259C4.76444 28.3833 4.43461 24.8194 4.86314 21.5804C5.17426 21.5494 5.35199 21.5292 5.35199 21.5292C5.35199 21.5292 5.20635 21.3367 4.94615 21.0154C5.26477 19.046 5.87123 17.2223 6.7669 15.7812Z"/>
</mask>
<path fill-rule="evenodd" clip-rule="evenodd" d="M6.7669 15.7812C8.15828 15.9769 9.15328 16.0772 9.15328 16.0772C9.15328 16.0772 8.77123 15.2536 8.13003 14.1096C9.1554 13.1711 10.4101 12.6185 11.8952 12.6185C17.2887 11.6687 22.2136 14.0366 22.8952 17.9073C22.963 18.2921 22.976 18.6622 22.94 19.0184C20.9057 18.996 19.2489 19.2177 19.2489 19.2177C19.2489 19.2177 19.9825 20.5756 21.1336 22.1897C19.589 23.6072 17.2704 24.7414 14.9994 25.7268C13.945 25.7861 13.2404 25.8804 13.2404 25.8804C13.2404 25.8804 13.3375 26.0602 13.5166 26.3668C9.713 28.0531 7.93996 29.3825 5.84676 31.259C4.76444 28.3833 4.43461 24.8194 4.86314 21.5804C5.17426 21.5494 5.35199 21.5292 5.35199 21.5292C5.35199 21.5292 5.20635 21.3367 4.94615 21.0154C5.26477 19.046 5.87123 17.2223 6.7669 15.7812Z" fill="white"/>
<path d="M9.15328 16.0772L9.05304 17.0721L10.7988 17.248L10.0604 15.6563L9.15328 16.0772ZM6.7669 15.7812L6.90619 14.791L6.26134 14.7003L5.91758 15.2533L6.7669 15.7812ZM8.13003 14.1096L7.45484 13.372L6.87017 13.9072L7.2577 14.5986L8.13003 14.1096ZM11.8952 12.6185L11.8952 13.6185L11.9826 13.6185L12.0686 13.6034L11.8952 12.6185ZM22.8952 17.9073L21.9104 18.0807V18.0807L22.8952 17.9073ZM22.94 19.0184L22.929 20.0183L23.8433 20.0284L23.935 19.1187L22.94 19.0184ZM19.2489 19.2177L19.1163 18.2265L17.6807 18.4187L18.3691 19.693L19.2489 19.2177ZM21.1336 22.1897L21.8097 22.9265L22.461 22.3288L21.9478 21.6091L21.1336 22.1897ZM14.9994 25.7268L15.0556 26.7252L15.2337 26.7151L15.3974 26.6441L14.9994 25.7268ZM13.2404 25.8804L13.1078 24.8893L11.6721 25.0814L12.3606 26.3557L13.2404 25.8804ZM13.5166 26.3668L13.9219 27.281L14.944 26.8278L14.3801 25.8624L13.5166 26.3668ZM5.84676 31.259L4.91085 31.6113L5.42578 32.9795L6.51427 32.0036L5.84676 31.259ZM4.86314 21.5804L4.76394 20.5853L3.97568 20.6639L3.87178 21.4492L4.86314 21.5804ZM5.35199 21.5292L5.46449 22.5229L7.208 22.3255L6.14957 20.926L5.35199 21.5292ZM4.94615 21.0154L3.95899 20.8557L3.88755 21.2972L4.16906 21.6448L4.94615 21.0154ZM9.15328 16.0772C9.25352 15.0822 9.25355 15.0822 9.25357 15.0822C9.25357 15.0822 9.25358 15.0822 9.25359 15.0822C9.25359 15.0822 9.25358 15.0822 9.25356 15.0822C9.25351 15.0822 9.2534 15.0822 9.25323 15.0822C9.25289 15.0821 9.25231 15.0821 9.25149 15.082C9.24986 15.0818 9.24728 15.0816 9.24376 15.0812C9.23673 15.0805 9.22597 15.0794 9.21162 15.0779C9.18293 15.0749 9.13991 15.0703 9.08374 15.0643C8.97137 15.0521 8.80643 15.0338 8.59823 15.0094C8.18168 14.9606 7.59286 14.8876 6.90619 14.791L6.62761 16.7715C7.33232 16.8706 7.93669 16.9455 8.36548 16.9958C8.57996 17.0209 8.75073 17.0399 8.86841 17.0526C8.92725 17.059 8.97284 17.0638 9.004 17.0671C9.01958 17.0687 9.03155 17.0699 9.03977 17.0708C9.04388 17.0712 9.04706 17.0715 9.04927 17.0718C9.05038 17.0719 9.05125 17.072 9.05188 17.072C9.05219 17.0721 9.05245 17.0721 9.05264 17.0721C9.05274 17.0721 9.05282 17.0721 9.05288 17.0721C9.05292 17.0721 9.05296 17.0721 9.05297 17.0721C9.05301 17.0721 9.05304 17.0721 9.15328 16.0772ZM7.2577 14.5986C7.56986 15.1555 7.81871 15.6341 7.98893 15.9721C8.07398 16.141 8.13924 16.2746 8.18277 16.3649C8.20454 16.41 8.22086 16.4443 8.23151 16.4669C8.23683 16.4781 8.24073 16.4864 8.24318 16.4917C8.24441 16.4943 8.24527 16.4961 8.24576 16.4972C8.24601 16.4977 8.24617 16.4981 8.24623 16.4982C8.24626 16.4983 8.24627 16.4983 8.24626 16.4983C8.24625 16.4982 8.24624 16.4982 8.24622 16.4982C8.24621 16.4982 8.24619 16.4981 8.24619 16.4981C8.24617 16.4981 8.24615 16.498 9.15328 16.0772C10.0604 15.6563 10.0604 15.6563 10.0604 15.6562C10.0604 15.6562 10.0603 15.6561 10.0603 15.6561C10.0603 15.656 10.0602 15.6559 10.0602 15.6558C10.0601 15.6556 10.0599 15.6553 10.0598 15.6549C10.0595 15.6543 10.0591 15.6534 10.0586 15.6524C10.0576 15.6502 10.0562 15.6473 10.0545 15.6436C10.051 15.6362 10.0461 15.6257 10.0397 15.6122C10.027 15.5853 10.0084 15.5463 9.98436 15.4964C9.93622 15.3965 9.86589 15.2527 9.77528 15.0727C9.59417 14.713 9.3314 14.2078 9.00235 13.6207L7.2577 14.5986ZM8.80521 14.8473C9.66348 14.0617 10.6825 13.6185 11.8952 13.6185L11.8952 11.6185C10.1377 11.6185 8.64731 12.2805 7.45484 13.372L8.80521 14.8473ZM12.0686 13.6034C14.5828 13.1606 16.9471 13.4998 18.7289 14.3565C20.5124 15.214 21.6397 16.5439 21.9104 18.0807L23.8801 17.7338C23.4691 15.4 21.7931 13.6106 19.5955 12.554C17.396 11.4965 14.6012 11.1266 11.7218 11.6337L12.0686 13.6034ZM21.9104 18.0807C21.9627 18.378 21.9715 18.6559 21.9451 18.9181L23.935 19.1187C23.9804 18.6684 23.9632 18.2063 23.8801 17.7338L21.9104 18.0807ZM22.951 18.0185C21.8963 18.0069 20.9426 18.0585 20.2531 18.1127C19.9077 18.1399 19.627 18.1679 19.431 18.1893C19.333 18.2 19.2561 18.2091 19.2029 18.2156C19.1762 18.2189 19.1555 18.2215 19.141 18.2233C19.1337 18.2243 19.128 18.225 19.1239 18.2255C19.1218 18.2258 19.1201 18.226 19.1189 18.2262C19.1183 18.2263 19.1177 18.2264 19.1173 18.2264C19.1171 18.2264 19.1169 18.2265 19.1167 18.2265C19.1166 18.2265 19.1165 18.2265 19.1165 18.2265C19.1164 18.2265 19.1163 18.2265 19.2489 19.2177C19.3816 20.2089 19.3815 20.2089 19.3814 20.2089C19.3814 20.2089 19.3813 20.2089 19.3813 20.2089C19.3812 20.2089 19.3812 20.2089 19.3812 20.2089C19.3812 20.2089 19.3812 20.2089 19.3814 20.2089C19.3818 20.2089 19.3825 20.2088 19.3836 20.2086C19.3859 20.2083 19.3898 20.2078 19.3951 20.2071C19.4059 20.2057 19.4227 20.2036 19.4453 20.2009C19.4906 20.1953 19.5591 20.1872 19.6482 20.1775C19.8264 20.158 20.087 20.132 20.4101 20.1066C21.0575 20.0556 21.9494 20.0076 22.929 20.0183L22.951 18.0185ZM19.2489 19.2177C18.3691 19.693 18.3692 19.6931 18.3692 19.6932C18.3692 19.6932 18.3693 19.6933 18.3693 19.6934C18.3694 19.6935 18.3695 19.6936 18.3696 19.6938C18.3697 19.6942 18.37 19.6946 18.3703 19.6951C18.3708 19.6961 18.3716 19.6975 18.3725 19.6992C18.3743 19.7025 18.3768 19.7072 18.3801 19.7131C18.3866 19.725 18.3959 19.7419 18.4079 19.7637C18.432 19.8071 18.467 19.8698 18.5123 19.9495C18.603 20.109 18.7352 20.3369 18.9039 20.6159C19.2409 21.1731 19.7259 21.9381 20.3194 22.7703L21.9478 21.6091C21.3902 20.8273 20.9329 20.1062 20.6153 19.581C20.4568 19.3187 20.3336 19.1063 20.2508 18.9607C20.2094 18.8879 20.1781 18.8319 20.1575 18.7948C20.1473 18.7762 20.1397 18.7624 20.1349 18.7536C20.1324 18.7492 20.1307 18.746 20.1297 18.7441C20.1292 18.7432 20.1289 18.7426 20.1287 18.7423C20.1286 18.7421 20.1286 18.7421 20.1286 18.7421C20.1286 18.7421 20.1286 18.7421 20.1286 18.7422C20.1287 18.7422 20.1287 18.7423 20.1287 18.7423C20.1287 18.7423 20.1288 18.7424 19.2489 19.2177ZM20.4574 21.4529C19.0506 22.744 16.8769 23.8221 14.6013 24.8094L15.3974 26.6441C17.6638 25.6608 20.1273 24.4704 21.8097 22.9265L20.4574 21.4529ZM14.9431 24.7283C14.399 24.759 13.9445 24.7987 13.6243 24.8309C13.4642 24.847 13.3373 24.8613 13.2494 24.8717C13.2055 24.8769 13.1712 24.8811 13.1474 24.8841C13.1355 24.8856 13.1262 24.8868 13.1195 24.8877C13.1162 24.8881 13.1136 24.8885 13.1116 24.8888C13.1106 24.8889 13.1098 24.889 13.1092 24.8891C13.1089 24.8891 13.1086 24.8892 13.1083 24.8892C13.1082 24.8892 13.1081 24.8892 13.108 24.8892C13.108 24.8892 13.1079 24.8892 13.1079 24.8892C13.1078 24.8893 13.1078 24.8893 13.2404 25.8804C13.373 26.8716 13.373 26.8716 13.3729 26.8716C13.3729 26.8716 13.3729 26.8716 13.3728 26.8716C13.3728 26.8716 13.3727 26.8716 13.3727 26.8716C13.3727 26.8716 13.3726 26.8716 13.3727 26.8716C13.3727 26.8716 13.3729 26.8716 13.3733 26.8716C13.3741 26.8715 13.3755 26.8713 13.3776 26.871C13.3818 26.8704 13.3887 26.8696 13.3981 26.8684C13.4169 26.866 13.4459 26.8624 13.4845 26.8578C13.5616 26.8487 13.6769 26.8357 13.8246 26.8208C14.1204 26.7911 14.5453 26.7539 15.0556 26.7252L14.9431 24.7283ZM13.2404 25.8804C12.3606 26.3557 12.3606 26.3558 12.3606 26.3558C12.3606 26.3558 12.3606 26.3558 12.3606 26.3558C12.3607 26.3559 12.3607 26.3559 12.3607 26.356C12.3608 26.3561 12.3608 26.3562 12.3609 26.3563C12.361 26.3565 12.3611 26.3568 12.3613 26.3571C12.3616 26.3577 12.3621 26.3585 12.3626 26.3594C12.3636 26.3614 12.3651 26.364 12.3669 26.3673C12.3705 26.3739 12.3756 26.3832 12.3821 26.3952C12.3953 26.4191 12.4143 26.4535 12.439 26.4975C12.4884 26.5856 12.5604 26.7124 12.6531 26.8712L14.3801 25.8624C14.2938 25.7146 14.2277 25.5982 14.1837 25.5198C14.1617 25.4805 14.1453 25.4508 14.1346 25.4314C14.1293 25.4217 14.1254 25.4146 14.123 25.4102C14.1218 25.408 14.1209 25.4065 14.1205 25.4056C14.1203 25.4052 14.1201 25.4049 14.1201 25.4048C14.12 25.4048 14.12 25.4048 14.1201 25.4048C14.1201 25.4049 14.1201 25.4049 14.1201 25.4049C14.1201 25.405 14.1202 25.405 14.1202 25.405C14.1202 25.405 14.1202 25.4051 14.1202 25.4051C14.1202 25.4051 14.1202 25.4051 13.2404 25.8804ZM13.1113 25.4526C9.20175 27.1859 7.34166 28.5759 5.17924 30.5144L6.51427 32.0036C8.53827 30.1892 10.2243 28.9203 13.9219 27.281L13.1113 25.4526ZM6.78266 30.9068C5.76556 28.2043 5.44472 24.8088 5.85451 21.7115L3.87178 21.4492C3.42451 24.8299 3.76332 28.5623 4.91085 31.6113L6.78266 30.9068ZM4.96235 22.5755C5.12044 22.5597 5.24502 22.5467 5.33054 22.5375C5.3733 22.5329 5.40631 22.5293 5.42886 22.5269C5.44014 22.5256 5.4488 22.5247 5.45477 22.524C5.45775 22.5237 5.46006 22.5234 5.46169 22.5232C5.4625 22.5231 5.46314 22.5231 5.46361 22.523C5.46384 22.523 5.46403 22.5229 5.46418 22.5229C5.46425 22.5229 5.46431 22.5229 5.46437 22.5229C5.46439 22.5229 5.46442 22.5229 5.46444 22.5229C5.46445 22.5229 5.46446 22.5229 5.46446 22.5229C5.46448 22.5229 5.46449 22.5229 5.35199 21.5292C5.2395 20.5356 5.23951 20.5356 5.23952 20.5356C5.23952 20.5356 5.23953 20.5356 5.23953 20.5356C5.23954 20.5356 5.23955 20.5356 5.23956 20.5356C5.23956 20.5356 5.23956 20.5356 5.23955 20.5356C5.23952 20.5356 5.23945 20.5356 5.23934 20.5356C5.23912 20.5356 5.23872 20.5357 5.23816 20.5357C5.23702 20.5359 5.23521 20.5361 5.23273 20.5364C5.22776 20.5369 5.22011 20.5378 5.20986 20.5389C5.18937 20.5411 5.1585 20.5445 5.11794 20.5488C5.03681 20.5575 4.91697 20.5701 4.76394 20.5853L4.96235 22.5755ZM5.35199 21.5292C6.14957 20.926 6.14956 20.926 6.14954 20.926C6.14953 20.926 6.14951 20.926 6.1495 20.9259C6.14947 20.9259 6.14944 20.9259 6.14941 20.9258C6.14935 20.9257 6.14928 20.9256 6.1492 20.9255C6.14904 20.9253 6.14884 20.9251 6.14861 20.9248C6.14814 20.9241 6.14754 20.9233 6.14679 20.9224C6.1453 20.9204 6.14324 20.9177 6.14062 20.9142C6.13538 20.9074 6.12791 20.8976 6.11828 20.8851C6.09901 20.86 6.07105 20.8237 6.03488 20.7774C5.96258 20.6848 5.85739 20.5517 5.72324 20.386L4.16906 21.6448C4.29511 21.8004 4.39285 21.9242 4.45841 22.0082C4.49119 22.0502 4.5159 22.0822 4.53207 22.1032C4.54015 22.1137 4.54609 22.1215 4.54984 22.1264C4.55171 22.1289 4.55303 22.1306 4.5538 22.1316C4.55418 22.1322 4.55442 22.1325 4.55453 22.1326C4.55458 22.1327 4.55459 22.1327 4.55458 22.1327C4.55457 22.1327 4.55455 22.1326 4.55452 22.1326C4.55451 22.1326 4.55449 22.1326 4.55447 22.1325C4.55446 22.1325 4.55445 22.1325 4.55444 22.1325C4.55443 22.1325 4.55441 22.1325 5.35199 21.5292ZM5.93332 21.1751C6.23706 19.2976 6.80849 17.6087 7.61622 16.3091L5.91758 15.2533C4.93397 16.8359 4.29248 18.7943 3.95899 20.8557L5.93332 21.1751Z" fill="#303030" mask="url(#path-13-inside-2_560_19358)"/>
<path d="M18.9618 13.8341C14.54 13.4228 6.23995 21.669 6.0564 29.9274" stroke="#303030"/>
<mask id="path-16-inside-3_560_19358" fill="white">
<path fill-rule="evenodd" clip-rule="evenodd" d="M25.7341 5.14108C25.1584 6.18733 24.7101 6.92011 24.7101 6.92011C24.7101 6.92011 24.1579 6.33418 23.4509 5.44318C22.0275 5.79414 20.8355 6.45482 20.0283 7.49057C16.2201 10.8836 15.7278 15.237 18.9288 17.2142C19.2471 17.4108 19.5814 17.5634 19.9296 17.6766C21.0148 16.2492 22.1198 15.1799 22.1198 15.1799C22.1198 15.1799 22.974 16.2183 23.8376 17.6472C25.9851 17.12 28.2921 15.9431 30.4358 14.7415C31.0638 14.0291 31.5338 13.5743 31.5338 13.5743C31.5338 13.5743 31.647 13.7118 31.8325 13.9556C35.4561 11.9572 37.6465 11.2364 40.5159 10.5046C38.4508 8.63407 35.3416 7.02125 32.12 6.06341C31.9223 6.26836 31.8071 6.3845 31.8071 6.3845C31.8071 6.3845 31.7086 6.20821 31.5536 5.9021C29.5632 5.36016 27.5507 5.07554 25.7341 5.14108Z"/>
</mask>
<path fill-rule="evenodd" clip-rule="evenodd" d="M25.7341 5.14108C25.1584 6.18733 24.7101 6.92011 24.7101 6.92011C24.7101 6.92011 24.1579 6.33418 23.4509 5.44318C22.0275 5.79414 20.8355 6.45482 20.0283 7.49057C16.2201 10.8836 15.7278 15.237 18.9288 17.2142C19.2471 17.4108 19.5814 17.5634 19.9296 17.6766C21.0148 16.2492 22.1198 15.1799 22.1198 15.1799C22.1198 15.1799 22.974 16.2183 23.8376 17.6472C25.9851 17.12 28.2921 15.9431 30.4358 14.7415C31.0638 14.0291 31.5338 13.5743 31.5338 13.5743C31.5338 13.5743 31.647 13.7118 31.8325 13.9556C35.4561 11.9572 37.6465 11.2364 40.5159 10.5046C38.4508 8.63407 35.3416 7.02125 32.12 6.06341C31.9223 6.26836 31.8071 6.3845 31.8071 6.3845C31.8071 6.3845 31.7086 6.20821 31.5536 5.9021C29.5632 5.36016 27.5507 5.07554 25.7341 5.14108Z" fill="white"/>
<path d="M24.7101 6.92011L25.6956 7.21586L24.8396 8.61497L23.7917 7.50293L24.7101 6.92011ZM25.7341 5.14108L24.7271 4.8823L25.0524 4.29119L25.8293 4.26316L25.7341 5.14108ZM23.4509 5.44318L23.2531 4.60647L24.0211 4.41712L24.4109 4.90834L23.4509 5.44318ZM20.0283 7.49057L20.9501 7.87817L20.8894 7.95603L20.8121 8.02491L20.0283 7.49057ZM18.9288 17.2142L18.1797 17.934L18.1797 17.934L18.9288 17.2142ZM19.9296 17.6766L20.859 18.0544L20.3002 18.7894L19.3991 18.4966L19.9296 17.6766ZM22.1198 15.1799L21.3005 14.6785L22.3066 13.7048L23.0717 14.635L22.1198 15.1799ZM23.8376 17.6472L24.0339 18.4843L23.1802 18.6939L22.8261 18.108L23.8376 17.6472ZM30.4358 14.7415L31.3166 15.1785L31.1829 15.3303L30.9922 15.4371L30.4358 14.7415ZM31.5338 13.5743L30.7145 13.0729L31.7206 12.0992L32.4857 13.0294L31.5338 13.5743ZM31.8325 13.9556L32.3806 14.6559L31.4069 15.1929L30.8635 14.4788L31.8325 13.9556ZM40.5159 10.5046L41.3901 9.8785L42.5017 10.8854L40.725 11.3385L40.5159 10.5046ZM32.12 6.06341L31.273 5.58978L31.8401 5.00205L32.6236 5.23502L32.12 6.06341ZM31.8071 6.3845L32.6433 6.86924L31.4699 8.05255L30.7839 6.82499L31.8071 6.3845ZM31.5536 5.9021L32.0318 5.06647L32.4327 5.17564L32.59 5.4862L31.5536 5.9021ZM24.7101 6.92011C23.7245 6.62436 23.7245 6.62438 23.7245 6.6244C23.7245 6.62441 23.7245 6.62442 23.7245 6.62443C23.7245 6.62444 23.7245 6.62444 23.7245 6.62443C23.7245 6.62441 23.7245 6.62434 23.7246 6.62423C23.7247 6.62401 23.725 6.62361 23.7253 6.62304C23.726 6.6219 23.7272 6.62005 23.7287 6.61752C23.7318 6.61246 23.7365 6.60464 23.7429 6.59418C23.7556 6.57326 23.7746 6.54176 23.7993 6.5005C23.8489 6.41795 23.9213 6.29641 24.0116 6.14239C24.1922 5.8342 24.444 5.39682 24.7271 4.8823L26.7411 5.39986C26.4485 5.93159 26.1883 6.38373 26.0009 6.70349C25.9071 6.86345 25.8314 6.99049 25.7789 7.07804C25.7526 7.12182 25.7321 7.15574 25.718 7.17898C25.711 7.1906 25.7056 7.19955 25.7018 7.20573C25.6999 7.20882 25.6984 7.21122 25.6974 7.21291C25.6969 7.21376 25.6965 7.21443 25.6962 7.21492C25.696 7.21517 25.6959 7.21537 25.6958 7.21553C25.6958 7.2156 25.6957 7.21567 25.6957 7.21573C25.6957 7.21575 25.6957 7.21579 25.6956 7.2158C25.6956 7.21583 25.6956 7.21586 24.7101 6.92011ZM24.4109 4.90834C24.7555 5.34262 25.0621 5.70233 25.2819 5.95265C25.3918 6.07772 25.4797 6.17524 25.5395 6.24085C25.5694 6.27365 25.5923 6.29845 25.6074 6.31471C25.615 6.32284 25.6205 6.32883 25.6241 6.33262C25.6259 6.33451 25.6271 6.33586 25.6279 6.33664C25.6282 6.33703 25.6285 6.33728 25.6286 6.33739C25.6286 6.33744 25.6286 6.33746 25.6286 6.33745C25.6286 6.33744 25.6286 6.33742 25.6286 6.3374C25.6286 6.33738 25.6285 6.33736 25.6285 6.33735C25.6285 6.33732 25.6285 6.33729 24.7101 6.92011C23.7917 7.50293 23.7916 7.5029 23.7916 7.50286C23.7916 7.50284 23.7915 7.50281 23.7915 7.50277C23.7915 7.50271 23.7914 7.50264 23.7913 7.50256C23.7912 7.5024 23.791 7.50221 23.7908 7.50198C23.7903 7.50152 23.7898 7.50092 23.7891 7.50017C23.7877 7.49868 23.7857 7.49662 23.7833 7.49401C23.7784 7.48878 23.7714 7.48131 23.7625 7.47168C23.7446 7.45241 23.7189 7.42448 23.686 7.38842C23.6202 7.31633 23.5259 7.21168 23.4093 7.07889C23.1763 6.81349 22.8534 6.43473 22.491 5.97801L24.4109 4.90834ZM23.6487 6.27989C22.4716 6.57011 21.5645 7.08984 20.9501 7.87817L19.1065 7.10297C20.1065 5.8198 21.5834 5.01817 23.2531 4.60647L23.6487 6.27989ZM20.8121 8.02491C17.2727 11.1785 17.107 14.9064 19.6779 16.4945L18.1797 17.934C14.3486 15.5676 15.1675 10.5887 19.2444 6.95624L20.8121 8.02491ZM19.6779 16.4945C19.9318 16.6513 20.1932 16.7698 20.4602 16.8566L19.3991 18.4966C18.9697 18.357 18.5623 18.1703 18.1797 17.934L19.6779 16.4945ZM19.0002 17.2988C19.5684 16.5514 20.1396 15.9005 20.5681 15.4368C20.7828 15.2044 20.963 15.0177 21.0908 14.8878C21.1547 14.8228 21.2056 14.7719 21.2413 14.7366C21.2591 14.7189 21.2732 14.7051 21.2831 14.6954C21.2881 14.6905 21.292 14.6867 21.295 14.6838C21.2964 14.6824 21.2976 14.6813 21.2985 14.6804C21.299 14.6799 21.2994 14.6795 21.2997 14.6792C21.2999 14.6791 21.3 14.6789 21.3001 14.6788C21.3002 14.6787 21.3003 14.6787 21.3003 14.6786C21.3004 14.6786 21.3005 14.6785 22.1198 15.1799C22.9392 15.6812 22.9393 15.6812 22.9393 15.6811C22.9393 15.6811 22.9394 15.681 22.9394 15.681C22.9395 15.6809 22.9395 15.6809 22.9396 15.6809C22.9396 15.6808 22.9396 15.6808 22.9395 15.6809C22.9394 15.681 22.939 15.6814 22.9383 15.6821C22.937 15.6834 22.9346 15.6857 22.9312 15.689C22.9244 15.6956 22.9137 15.7062 22.8992 15.7206C22.8702 15.7493 22.8263 15.7931 22.7696 15.8507C22.6563 15.9659 22.4924 16.1357 22.2953 16.349C21.8999 16.7769 21.376 17.3744 20.859 18.0544L19.0002 17.2988ZM22.1198 15.1799C23.0717 14.635 23.0717 14.635 23.0718 14.6351C23.0718 14.6351 23.0718 14.6352 23.0719 14.6352C23.072 14.6353 23.072 14.6354 23.0722 14.6356C23.0724 14.6358 23.0726 14.6362 23.0729 14.6365C23.0736 14.6373 23.0744 14.6383 23.0755 14.6396C23.0776 14.6422 23.0805 14.6457 23.0841 14.6503C23.0915 14.6593 23.102 14.6723 23.1155 14.6891C23.1424 14.7226 23.1811 14.7713 23.23 14.8337C23.3276 14.9586 23.4659 15.139 23.6314 15.3646C23.9621 15.8153 24.4039 16.45 24.8491 17.1865L22.8261 18.108C22.4076 17.4155 21.9906 16.8165 21.6783 16.3907C21.5223 16.1782 21.3931 16.0096 21.3036 15.8951C21.2588 15.8379 21.2241 15.7943 21.2009 15.7654C21.1893 15.751 21.1807 15.7403 21.1751 15.7335C21.1723 15.73 21.1703 15.7276 21.1691 15.7261C21.1685 15.7254 21.1681 15.7249 21.168 15.7247C21.1679 15.7246 21.1678 15.7245 21.1678 15.7245C21.1678 15.7245 21.1678 15.7245 21.1679 15.7246C21.1679 15.7246 21.1679 15.7246 21.1679 15.7246C21.168 15.7247 21.168 15.7247 22.1198 15.1799ZM23.6412 16.8102C25.578 16.3347 27.7356 15.2475 29.8794 14.0459L30.9922 15.4371C28.8486 16.6386 26.3923 17.9053 24.0339 18.4843L23.6412 16.8102ZM29.5549 14.3045C29.8818 13.9337 30.1681 13.6293 30.374 13.4163C30.477 13.3097 30.5602 13.2258 30.6185 13.1675C30.6477 13.1384 30.6707 13.1157 30.6869 13.0998C30.695 13.0919 30.7014 13.0856 30.706 13.0811C30.7083 13.0789 30.7102 13.077 30.7116 13.0757C30.7123 13.075 30.7129 13.0744 30.7134 13.0739C30.7136 13.0737 30.7138 13.0735 30.714 13.0733C30.7141 13.0732 30.7142 13.0732 30.7143 13.0731C30.7143 13.073 30.7144 13.073 30.7144 13.073C30.7144 13.0729 30.7145 13.0729 31.5338 13.5743C32.3532 14.0756 32.3532 14.0756 32.3533 14.0755C32.3533 14.0755 32.3533 14.0755 32.3534 14.0755C32.3534 14.0754 32.3534 14.0754 32.3535 14.0753C32.3535 14.0753 32.3536 14.0752 32.3536 14.0752C32.3536 14.0752 32.3535 14.0753 32.3533 14.0755C32.3529 14.0759 32.3521 14.0767 32.3508 14.078C32.3482 14.0805 32.3439 14.0847 32.3379 14.0906C32.3259 14.1023 32.3073 14.1207 32.2826 14.1454C32.2332 14.1947 32.1596 14.269 32.0666 14.3651C31.8805 14.5577 31.6178 14.8369 31.3166 15.1785L29.5549 14.3045ZM31.5338 13.5743C32.4857 13.0294 32.4857 13.0294 32.4857 13.0294C32.4857 13.0294 32.4857 13.0295 32.4857 13.0295C32.4858 13.0295 32.4858 13.0295 32.4858 13.0296C32.4859 13.0296 32.4859 13.0297 32.486 13.0298C32.4861 13.0299 32.4863 13.0301 32.4865 13.0304C32.4869 13.0308 32.4873 13.0314 32.4879 13.0322C32.4891 13.0336 32.4908 13.0356 32.4928 13.0381C32.4969 13.0432 32.5027 13.0503 32.5102 13.0595C32.525 13.0779 32.5463 13.1044 32.5735 13.1386C32.6278 13.2071 32.7055 13.3063 32.8015 13.4325L30.8635 14.4788C30.7739 14.3611 30.7023 14.2696 30.6537 14.2084C30.6293 14.1777 30.6108 14.1546 30.5986 14.1396C30.5926 14.1321 30.5881 14.1266 30.5853 14.1231C30.5839 14.1214 30.5829 14.1202 30.5823 14.1195C30.5821 14.1192 30.5819 14.119 30.5818 14.1189C30.5818 14.1189 30.5818 14.1189 30.5818 14.1189C30.5818 14.1189 30.5819 14.119 30.5819 14.119C30.5819 14.119 30.5819 14.119 30.5819 14.119C30.5819 14.1191 30.582 14.1191 30.582 14.1191C30.582 14.1191 30.582 14.1191 31.5338 13.5743ZM31.2844 13.2554C35.0282 11.1906 37.3364 10.4283 40.3067 9.67078L40.725 11.3385C37.9567 12.0445 35.8839 12.7237 32.3806 14.6559L31.2844 13.2554ZM39.6417 11.1308C37.6896 9.36261 34.7143 7.81287 31.6165 6.8918L32.6236 5.23502C35.9688 6.22962 39.2119 7.90552 41.3901 9.8785L39.6417 11.1308ZM32.9671 6.53704C32.8662 6.64163 32.786 6.72389 32.7307 6.78038C32.7031 6.80863 32.6816 6.83044 32.6669 6.84539C32.6595 6.85287 32.6538 6.85863 32.6499 6.86262C32.6479 6.86462 32.6464 6.86617 32.6453 6.86728C32.6447 6.86783 32.6443 6.86827 32.644 6.8686C32.6438 6.86876 32.6437 6.8689 32.6436 6.869C32.6435 6.86906 32.6435 6.8691 32.6434 6.86914C32.6434 6.86916 32.6434 6.86918 32.6434 6.8692C32.6434 6.8692 32.6433 6.86921 32.6433 6.86922C32.6433 6.86923 32.6433 6.86924 31.8071 6.3845C30.9709 5.89976 30.9709 5.89977 30.9709 5.89978C30.9709 5.89978 30.9709 5.89979 30.9709 5.8998C30.9709 5.8998 30.9709 5.89981 30.9709 5.89982C30.9709 5.89983 30.9709 5.89983 30.9709 5.89983C30.9709 5.89982 30.9709 5.89979 30.971 5.89973C30.9711 5.8996 30.9713 5.89937 30.9717 5.89902C30.9724 5.89832 30.9735 5.89718 30.9751 5.8956C30.9782 5.89244 30.983 5.88752 30.9896 5.88091C31.0026 5.86768 31.0223 5.84765 31.0482 5.82124C31.0999 5.76842 31.1762 5.69013 31.273 5.58978L32.9671 6.53704ZM31.8071 6.3845C30.7839 6.82499 30.7839 6.82496 30.7838 6.82494C30.7838 6.82493 30.7838 6.82491 30.7838 6.8249C30.7838 6.82486 30.7838 6.82483 30.7838 6.82479C30.7837 6.82471 30.7837 6.82463 30.7836 6.82453C30.7835 6.82434 30.7834 6.8241 30.7832 6.82382C30.7829 6.82326 30.7825 6.82252 30.782 6.82162C30.781 6.81981 30.7796 6.81732 30.7779 6.81416C30.7744 6.80784 30.7694 6.79884 30.7631 6.78725C30.7504 6.76407 30.7322 6.73051 30.7091 6.68731C30.6629 6.60093 30.5972 6.47587 30.5173 6.31799L32.59 5.4862C32.665 5.63444 32.7261 5.75058 32.7679 5.82887C32.7888 5.86801 32.8049 5.89766 32.8156 5.91709C32.8209 5.92681 32.8248 5.93397 32.8273 5.93849C32.8286 5.94075 32.8295 5.94235 32.83 5.94327C32.8302 5.94374 32.8304 5.94403 32.8305 5.94415C32.8305 5.94422 32.8305 5.94424 32.8305 5.94421C32.8305 5.9442 32.8305 5.94418 32.8305 5.94415C32.8305 5.94413 32.8304 5.94411 32.8304 5.94409C32.8304 5.94408 32.8304 5.94406 32.8304 5.94406C32.8304 5.94404 32.8304 5.94402 31.8071 6.3845ZM31.0755 6.73773C29.1659 6.21781 27.2851 5.95961 25.6389 6.019L25.8293 4.26316C27.8164 4.19147 29.9604 4.5025 32.0318 5.06647L31.0755 6.73773Z" fill="#303030" mask="url(#path-16-inside-3_560_19358)"/>
<path d="M17.3086 12.8905C19.3327 9.64708 31.4533 7.0579 39.1732 10.1341" stroke="#303030"/>
</svg>
