<svg width="90" height="212" viewBox="0 0 90 212" fill="none" xmlns="http://www.w3.org/2000/svg">
<path d="M4.36813 1.19091L86.8186 1.19092L86.8482 1.19092L86.8781 1.19185L86.908 1.19325L86.9382 1.19512L86.9684 1.19791L86.9986 1.20118L87.0291 1.20491L87.0595 1.20911L87.09 1.21424L87.1208 1.21984L87.1515 1.2259L87.1825 1.2329L87.2133 1.24037L87.2443 1.24876L87.2753 1.25763L87.3066 1.26696L87.3376 1.27722L87.3689 1.28795L87.4002 1.29914L87.4312 1.31127L87.4625 1.32433L87.4938 1.33786L87.5251 1.35186L87.5564 1.36678L87.5877 1.38218L87.6189 1.39851L87.6502 1.4153L87.6813 1.43303L87.7125 1.45169L87.7436 1.47034L87.7746 1.4904L87.8056 1.51093L87.8363 1.53192L87.8674 1.55385L87.8981 1.57624L87.9286 1.59956L87.9593 1.62382L87.9895 1.64854L88.02 1.67373L88.0502 1.69986L88.0801 1.72645L88.11 1.75397L88.1396 1.78243L88.1693 1.81135L88.1987 1.84074L88.228 1.87106L88.2571 1.90185L88.286 1.93357L88.3145 1.96576L88.3428 1.99888L88.371 2.03247L88.399 2.06652L88.4268 2.10151L88.4545 2.13696L88.4817 2.17335L88.5086 2.20973L88.5355 2.24752L88.5618 2.2853L88.5882 2.32402L88.614 2.36321L88.6395 2.40286L88.6647 2.44297L88.69 2.48403L88.7147 2.52554L88.7388 2.56753L88.763 2.60998L88.7866 2.6529L88.8102 2.69674L88.8333 2.7406L88.8558 2.78491L88.8783 2.83016L88.9002 2.87541L88.9219 2.92159L88.9431 2.96778L88.9639 3.01442L88.9845 3.06154L89.0048 3.10912L89.0246 3.15717L89.0438 3.20522L89.0627 3.2542L89.0814 3.30318L89.0995 3.35263L89.1174 3.40208L89.1349 3.45199L89.152 3.50237L89.1684 3.55276L89.1846 3.6036L89.2003 3.65491L89.2156 3.70623L89.2307 3.75754L89.2453 3.80932L89.2593 3.8611L89.273 3.91335L89.2864 3.9656L89.2991 4.01784L89.3117 4.07056L89.3238 4.12281L89.3353 4.17552L89.3466 4.2287L89.3573 4.28141L89.3677 4.33459L89.3776 4.38777L89.3872 4.44049L89.3965 4.49366L89.405 4.54684L89.4135 4.60002L89.4215 4.6532L89.4289 4.70638L89.436 4.75956L89.4429 4.81274L89.4492 4.86545L89.4553 4.91863L89.4607 4.97135L89.466 5.02406L89.4706 5.07678L89.475 5.12949L89.4791 5.18174L89.4827 5.23398L89.486 5.28623L89.489 5.33848L89.4918 5.39026L89.494 5.44157L89.4956 5.49335L89.4973 5.54466L89.4983 5.59551L89.4992 5.64636L89.4997 5.69721L89.5 5.74759L89.5 19.4185L89.5 206.252L89.4997 206.303L89.4992 206.353L89.4983 206.404L89.4972 206.455L89.4956 206.506L89.494 206.558L89.4918 206.61L89.489 206.661L89.486 206.714L89.4827 206.765L89.4791 206.818L89.475 206.87L89.4706 206.923L89.466 206.976L89.4607 207.028L89.4552 207.081L89.4492 207.134L89.4429 207.187L89.436 207.24L89.4289 207.293L89.4215 207.346L89.4135 207.399L89.405 207.452L89.3965 207.506L89.3872 207.559L89.3776 207.612L89.3677 207.665L89.3573 207.718L89.3466 207.771L89.3353 207.824L89.3238 207.877L89.3117 207.929L89.2991 207.982L89.2864 208.034L89.273 208.086L89.2593 208.139L89.2453 208.19L89.2307 208.242L89.2156 208.294L89.2003 208.345L89.1846 208.396L89.1684 208.447L89.1519 208.497L89.1349 208.547L89.1174 208.598L89.0995 208.647L89.0814 208.697L89.0627 208.746L89.0438 208.794L89.0246 208.843L89.0048 208.891L88.9845 208.938L88.9639 208.985L88.9431 209.032L88.9219 209.078L88.9002 209.124L88.8783 209.17L88.8558 209.214L88.8333 209.259L88.8102 209.303L88.7866 209.346L88.763 209.39L88.7388 209.432L88.7147 209.474L88.69 209.516L88.6647 209.556L88.6395 209.597L88.6139 209.637L88.5881 209.676L88.5618 209.715L88.5355 209.752L88.5086 209.79L88.4816 209.826L88.4545 209.863L88.4268 209.898L88.399 209.933L88.371 209.967L88.3428 210.001L88.3145 210.034L88.2859 210.066L88.2571 210.097L88.228 210.129L88.1987 210.159L88.1693 210.188L88.1396 210.217L88.11 210.245L88.0801 210.273L88.0502 210.3L88.02 210.326L87.9895 210.351L87.9593 210.376L87.9286 210.4L87.8981 210.423L87.8673 210.446L87.8363 210.468L87.8056 210.489L87.7746 210.509L87.7436 210.529L87.7125 210.548L87.6813 210.567L87.6502 210.584L87.6189 210.601L87.5877 210.618L87.5564 210.633L87.5251 210.648L87.4938 210.662L87.4625 210.675L87.4312 210.688L87.4002 210.7L87.3689 210.712L87.3376 210.723L87.3066 210.733L87.2753 210.742L87.2443 210.751L87.2133 210.759L87.1825 210.767L87.1515 210.773L87.1207 210.78L87.09 210.786L87.0595 210.79L87.0291 210.795L86.9986 210.799L86.9684 210.802L86.9382 210.804L86.908 210.807L86.8781 210.808L86.8482 210.808L86.8185 210.809L4.36813 210.809L4.33847 210.808L4.30855 210.808L4.27864 210.807L4.24873 210.804L4.21852 210.802L4.18806 210.799L4.15759 210.795L4.12713 210.79L4.09666 210.786L4.06591 210.78L4.03517 210.773L4.00416 210.767L3.97342 210.759L3.94239 210.751L3.91138 210.742L3.88008 210.733L3.84908 210.723L3.81778 210.712L3.78675 210.7L3.75547 210.688L3.72418 210.675L3.69289 210.662L3.66159 210.648L3.63031 210.633L3.59902 210.618L3.56772 210.601L3.53672 210.584L3.50542 210.567L3.47412 210.548L3.44311 210.529L3.41208 210.509L3.38108 210.489L3.35033 210.468L3.31932 210.446L3.28858 210.423L3.2581 210.4L3.22737 210.376L3.19718 210.351L3.1667 210.326L3.13651 210.3L3.10659 210.273L3.07667 210.245L3.04703 210.217L3.01738 210.188L2.98801 210.159L2.95864 210.129L2.92983 210.097L2.901 210.066L2.87218 210.034L2.8439 210.001L2.81564 209.967L2.78764 209.933L2.75991 209.898L2.73247 209.863L2.70501 209.826L2.67811 209.79L2.65122 209.752L2.62487 209.715L2.5988 209.676L2.57271 209.637L2.54718 209.597L2.52194 209.556L2.49696 209.516L2.47225 209.474L2.44782 209.432L2.42368 209.39L2.40006 209.346L2.37645 209.303L2.3534 209.259L2.3309 209.214L2.30838 209.17L2.28643 209.124L2.26474 209.078L2.24362 209.032L2.22274 208.985L2.20217 208.938L2.18213 208.891L2.16236 208.843L2.14288 208.794L2.12393 208.746L2.10527 208.697L2.08715 208.647L2.06932 208.598L2.05202 208.547L2.035 208.497L2.01824 208.447L2.00206 208.396L1.98641 208.345L1.97104 208.294L1.95594 208.242L1.9414 208.19L1.92739 208.139L1.91368 208.086L1.90051 208.034L1.88761 207.982L1.87497 207.929L1.86289 207.877L1.85137 207.824L1.84011 207.771L1.82941 207.718L1.81899 207.665L1.8091 207.612L1.79949 207.559L1.79044 207.506L1.78164 207.452L1.77313 207.399L1.76518 207.346L1.75777 207.293L1.75063 207.24L1.74376 207.187L1.73747 207.134L1.73168 207.081L1.72592 207.028L1.72071 206.976L1.71605 206.923L1.71165 206.87L1.70754 206.818L1.70397 206.765L1.70067 206.714L1.69766 206.661L1.69518 206.61L1.69271 206.558L1.69107 206.506L1.68942 206.455L1.68833 206.404L1.6875 206.353L1.68695 206.303L1.68667 206.252L1.68668 19.4185L1.68668 5.74758L1.68696 5.6972L1.68751 5.64635L1.68833 5.59551L1.68942 5.54466L1.69108 5.49334L1.69272 5.44156L1.69518 5.39025L1.69766 5.33847L1.70068 5.28622L1.70398 5.23398L1.70755 5.18173L1.71165 5.12948L1.71606 5.07677L1.72072 5.02406L1.72593 4.97134L1.73169 4.91863L1.73747 4.86545L1.74377 4.81274L1.75063 4.75956L1.75777 4.70638L1.76518 4.65319L1.77314 4.60002L1.78165 4.54684L1.79044 4.49366L1.79949 4.44048L1.8091 4.38776L1.81899 4.33458L1.82941 4.2814L1.84012 4.22869L1.85137 4.17551L1.8629 4.1228L1.87498 4.07055L1.88761 4.01784L1.90051 3.96559L1.91368 3.91334L1.9274 3.8611L1.94141 3.80932L1.95595 3.75754L1.97105 3.70622L1.98642 3.65491L2.00207 3.60359L2.01825 3.55275L2.035 3.50237L2.05202 3.45199L2.06932 3.40207L2.08716 3.35262L2.10527 3.30318L2.12393 3.25419L2.14288 3.20521L2.16236 3.15717L2.18214 3.10912L2.20217 3.06153L2.22274 3.01442L2.24362 2.96777L2.26475 2.92159L2.28644 2.8754L2.30839 2.83016L2.3309 2.78491L2.3534 2.74059L2.37646 2.69674L2.40006 2.65289L2.42368 2.60997L2.44782 2.56752L2.47225 2.52554L2.49696 2.48402L2.52194 2.44297L2.54719 2.40285L2.57272 2.3632L2.5988 2.32401L2.62487 2.2853L2.65122 2.24751L2.67812 2.20972L2.70502 2.17334L2.73248 2.13695L2.75992 2.1015L2.78764 2.06651L2.81564 2.03246L2.8439 1.99887L2.87218 1.96575L2.901 1.93356L2.92983 1.90184L2.95865 1.87105L2.98801 1.84073L3.01739 1.81134L3.04704 1.78242L3.07668 1.75396L3.1066 1.72644L3.13651 1.69985L3.1667 1.67373L3.19718 1.64854L3.22737 1.62381L3.25811 1.59956L3.28858 1.57623L3.31933 1.55384L3.35033 1.53191L3.38108 1.51092L3.41209 1.4904L3.44312 1.47034L3.47413 1.45168L3.50542 1.43302L3.53672 1.41529L3.56773 1.3985L3.59902 1.38217L3.63032 1.36678L3.6616 1.35185L3.69289 1.33785L3.72419 1.32433L3.75548 1.31127L3.78676 1.29914L3.81779 1.28794L3.84908 1.27721L3.88009 1.26695L3.91138 1.25762L3.9424 1.24876L3.97343 1.24036L4.00417 1.2329L4.03518 1.2259L4.06592 1.21983L4.09666 1.21424L4.12714 1.20911L4.15759 1.20491L4.18806 1.20117L4.21852 1.19791L4.24873 1.19511L4.27865 1.19324L4.30856 1.19184L4.33848 1.19091L4.36813 1.19091Z" fill="white" stroke="#303030" stroke-miterlimit="10" stroke-linecap="round" stroke-linejoin="round"/>
<path d="M5.24662 20.2172L5.24718 20.1357L5.24829 20.0538L5.2502 19.9724L5.25296 19.8905L5.25682 19.8091L5.26123 19.7277L5.26618 19.6467L5.27223 19.5658L5.27912 19.4849L5.28655 19.4044L5.29509 19.324L5.30418 19.2435L5.31408 19.164L5.32482 19.0845L5.3364 19.0051L5.3485 18.9266L5.36173 18.848L5.37549 18.77L5.39008 18.6925L5.40551 18.6154L5.42147 18.5384L5.43828 18.4623L5.45589 18.3867L5.47434 18.3115L5.49334 18.2374L5.51317 18.1632L5.53354 18.0901L5.55474 18.0174L5.57678 17.9451L5.59935 17.8739L5.62276 17.8031L5.64671 17.7334L5.6715 17.6641L5.69682 17.5957L5.7227 17.5279L5.74943 17.461L5.77695 17.3951L5.80477 17.3301L5.83341 17.2657L5.86287 17.2022L5.8926 17.1397L5.92317 17.0781L5.95428 17.0171L5.98594 16.9574L6.01816 16.8988L6.05093 16.8411L6.08424 16.7839L6.11839 16.7282L6.15281 16.6739L6.18778 16.6201L6.22329 16.5673L6.25937 16.5159L6.29599 16.4655L6.33288 16.4161L6.37061 16.3681L6.40861 16.3211L6.44688 16.2751L6.4857 16.2305L6.52508 16.1873L6.56474 16.1447L6.60494 16.104L6.64541 16.0638L6.68643 16.0255L6.72774 15.9881L6.76932 15.9518L6.81145 15.9169L6.85386 15.8835L6.89653 15.8515L6.93948 15.8205L6.98271 15.7909L7.02622 15.7623L7.07 15.7356L7.11407 15.71L7.15838 15.6852L7.203 15.6625L7.24788 15.6407L7.29276 15.6208L7.33792 15.6019L7.38335 15.5844L7.42879 15.568L7.47449 15.5534L7.5202 15.5399L7.56618 15.5282L7.61216 15.5176L7.65843 15.5083L7.70468 15.5006L7.75095 15.4943L7.7972 15.4894L7.84374 15.4861L7.89 15.4836L7.93654 15.4831L83.25 15.4832L83.2966 15.4836L83.3431 15.4861L83.3894 15.4895L83.4356 15.4943L83.4819 15.5006L83.5281 15.5084L83.5744 15.5176L83.6204 15.5282L83.6664 15.5399L83.7121 15.5534L83.7578 15.568L83.8032 15.5844L83.8486 15.6019L83.8938 15.6208L83.939 15.6407L83.9836 15.6625L84.0282 15.6853L84.0725 15.71L84.1166 15.7357L84.1603 15.7623L84.2039 15.7909L84.2474 15.8205L84.2903 15.8515L84.333 15.8835L84.3751 15.9169L84.4172 15.9518L84.4588 15.9882L84.5001 16.0255L84.5412 16.0638L84.5816 16.104L84.6218 16.1447L84.6615 16.1873L84.7009 16.2305L84.7397 16.2751L84.7782 16.3211L84.8162 16.3681L84.8537 16.4161L84.8906 16.4655L84.9272 16.5159L84.9633 16.5673L84.9988 16.6201L85.0338 16.6739L85.0682 16.7282L85.1023 16.7839L85.1356 16.8411L85.1684 16.8988L85.2006 16.9574L85.2323 17.0171L85.2634 17.0781L85.294 17.1397L85.324 17.2022L85.3532 17.2657L85.3818 17.3301L85.4096 17.3951L85.4371 17.461L85.4639 17.5279L85.4897 17.5957L85.5153 17.6641L85.5399 17.7334L85.5638 17.8031L85.5872 17.8739L85.6098 17.9452L85.6318 18.0174L85.653 18.0901L85.6737 18.1632L85.6932 18.2374L85.7125 18.3115L85.7307 18.3867L85.7483 18.4623L85.7651 18.5384L85.7813 18.6154L85.7965 18.6925L85.8111 18.77L85.8248 18.848L85.8381 18.9266L85.8502 19.0051L85.8617 19.0846L85.8725 19.164L85.8824 19.2435L85.8915 19.324L85.9 19.4044L85.9074 19.4849L85.9143 19.5658L85.9204 19.6467L85.9256 19.7277L85.93 19.8091L85.9336 19.8905L85.9364 19.9724L85.9383 20.0538L85.9397 20.1357L85.9399 20.2172L85.9399 200.119L85.9397 200.201L85.9383 200.283L85.9364 200.365L85.9336 200.446L85.93 200.528L85.9256 200.609L85.9204 200.69L85.9143 200.771L85.9074 200.852L85.9 200.933L85.8915 201.013L85.8824 201.093L85.8725 201.173L85.8617 201.253L85.8502 201.332L85.8381 201.411L85.8248 201.489L85.8111 201.567L85.7965 201.645L85.7813 201.722L85.7651 201.798L85.7483 201.874L85.7307 201.95L85.7125 202.025L85.6932 202.1L85.6737 202.174L85.653 202.247L85.6318 202.32L85.6098 202.392L85.5872 202.463L85.5638 202.534L85.5399 202.604L85.5153 202.673L85.4897 202.741L85.4639 202.809L85.4371 202.876L85.4096 202.942L85.3818 203.007L85.3532 203.071L85.324 203.135L85.294 203.197L85.2634 203.259L85.2323 203.32L85.2006 203.38L85.1684 203.438L85.1356 203.496L85.1023 203.553L85.0682 203.608L85.0338 203.663L84.9988 203.717L84.9633 203.769L84.9272 203.821L84.8906 203.872L84.8537 203.921L84.8162 203.969L84.7782 204.016L84.7397 204.062L84.7009 204.106L84.6615 204.15L84.6218 204.192L84.5816 204.233L84.5411 204.273L84.5001 204.312L84.4588 204.349L84.4172 204.385L84.3751 204.42L84.333 204.454L84.2903 204.486L84.2474 204.517L84.2038 204.546L84.1603 204.575L84.1166 204.601L84.0725 204.627L84.0282 204.651L83.9836 204.675L83.939 204.696L83.8938 204.716L83.8486 204.735L83.8032 204.753L83.7578 204.769L83.7121 204.784L83.6664 204.797L83.6204 204.809L83.5744 204.82L83.5281 204.829L83.4819 204.836L83.4356 204.843L83.3894 204.848L83.3431 204.851L83.2966 204.853L83.25 204.854L7.93653 204.854L7.89 204.853L7.84373 204.851L7.79719 204.848L7.75094 204.843L7.70468 204.836L7.65843 204.829L7.61216 204.82L7.56618 204.809L7.5202 204.797L7.47448 204.784L7.42879 204.769L7.38334 204.753L7.33792 204.735L7.29276 204.716L7.24787 204.696L7.203 204.675L7.15838 204.651L7.11406 204.627L7.06999 204.601L7.02621 204.575L6.9827 204.546L6.93948 204.517L6.89652 204.486L6.85385 204.454L6.81145 204.42L6.76932 204.385L6.72774 204.349L6.68643 204.312L6.64541 204.273L6.60494 204.233L6.56474 204.192L6.52507 204.15L6.4857 204.106L6.44688 204.062L6.40861 204.016L6.37061 203.969L6.33288 203.921L6.29599 203.872L6.25937 203.821L6.22329 203.769L6.18778 203.717L6.1528 203.663L6.11838 203.608L6.08423 203.553L6.05092 203.496L6.01815 203.438L5.98593 203.38L5.95427 203.32L5.92316 203.259L5.89259 203.197L5.86286 203.135L5.8334 203.071L5.80476 203.007L5.77695 202.942L5.74942 202.876L5.7227 202.809L5.69682 202.741L5.67149 202.673L5.6467 202.604L5.62275 202.534L5.59934 202.463L5.57677 202.392L5.55474 202.32L5.53353 202.247L5.51316 202.174L5.49333 202.1L5.47434 202.025L5.45589 201.95L5.43827 201.874L5.42147 201.798L5.4055 201.722L5.39007 201.645L5.37549 201.567L5.36172 201.489L5.3485 201.411L5.3364 201.332L5.32482 201.253L5.31408 201.173L5.30418 201.093L5.29509 201.013L5.28655 200.933L5.27912 200.852L5.27223 200.771L5.26618 200.69L5.26122 200.609L5.25682 200.528L5.25295 200.446L5.2502 200.365L5.24828 200.283L5.24717 200.201L5.24662 200.119L5.24662 20.2172Z" stroke="#303030" stroke-miterlimit="10" stroke-linecap="round" stroke-linejoin="round"/>
<path d="M89.5 11.9102L1.68667 11.9101" stroke="#303030" stroke-miterlimit="10" stroke-linecap="round" stroke-linejoin="round"/>
<path d="M50.56 23.8254C58.7535 22.1124 68.8893 22.7551 73.6327 22.1602C74.276 22.0795 74.8863 22.5664 74.8833 23.2148C74.8664 26.9241 74.7029 31.0417 73.1291 35.5589C73.668 43.3666 77.1445 45.9928 78.3736 60.1706C78.4279 60.7979 77.8878 61.3158 77.2621 61.2455C54.5825 58.6963 33.4293 61.5319 14.9098 61.3964C14.3627 61.3924 13.9241 60.9435 13.9333 60.3965C14.1334 48.5813 17.8734 44.6922 17.1638 35.5589C14.1238 31.945 13.9372 27.6494 13.9258 22.8826C13.9245 22.3538 14.3409 21.9156 14.869 21.8881C30.1337 21.0939 39.4927 23.8254 50.56 23.8254Z" fill="white"/>
<path d="M50.56 23.8254C58.7535 22.1124 68.8893 22.7551 73.6327 22.1602C74.276 22.0795 74.8863 22.5664 74.8833 23.2148C74.8664 26.9241 74.7029 31.0417 73.1291 35.5589M50.56 23.8254C39.4927 23.8254 30.1337 21.0939 14.869 21.8881C14.3409 21.9156 13.9245 22.3538 13.9258 22.8826C13.9372 27.6494 14.1238 31.945 17.1638 35.5589M50.56 23.8254C48.0079 24.6465 36.6728 27.1718 33.4938 30.5181M17.1638 35.5589C17.8734 44.6922 14.1334 48.5813 13.9333 60.3965C13.9241 60.9435 14.3627 61.3924 14.9098 61.3964C33.4293 61.5319 54.5825 58.6963 77.2621 61.2455C77.8878 61.3158 78.4279 60.7979 78.3736 60.1706C77.1445 45.9928 73.668 43.3666 73.1291 35.5589M17.1638 35.5589C18.1525 40.3571 20.5037 49.8347 24.2029 51.8693M73.1291 35.5589C72.747 37.2075 71.5525 43.731 68.5932 46.1355" stroke="#303030" stroke-linecap="round"/>
<path d="M64.6269 72.2157C49.9513 76.1531 34.2555 67.6224 14.02 61.8598C-1.89732 57.3269 4.22601 125.476 5.3093 140.488C5.67844 145.604 5.68833 149.801 4.86083 152.488C1.60493 163.059 2.61372 199.624 6.52078 200.905C10.4278 202.186 20.8818 194.819 35.6252 200.905C50.3685 206.991 87.1077 206.112 88.4101 197.783C89.7124 189.454 83.6969 161.887 81.7433 150.676C80.988 146.341 81.3591 142.188 82.2741 138.131C83.7256 131.695 88.4101 99.518 88.4101 90.7868C88.4101 82.0556 79.3026 68.2783 64.6269 72.2157Z" fill="white"/>
<path d="M35.6252 200.905C50.3686 206.991 87.1077 206.112 88.4101 197.783C89.7124 189.454 83.6969 161.887 81.7433 150.676C80.988 146.341 81.3591 142.188 82.2741 138.131M35.6252 200.905C20.8818 194.819 10.4279 202.186 6.52078 200.905C2.61371 199.624 1.60493 163.059 4.86083 152.488C5.68833 149.801 5.67845 145.604 5.3093 140.488M35.6252 200.905C30.2979 197.7 26.3775 193.657 22.8501 188.451M5.3093 140.488C4.226 125.476 -1.89732 57.3269 14.02 61.8598C34.2555 67.6224 49.9513 76.1531 64.6269 72.2157C79.3026 68.2783 88.4101 82.0556 88.4101 90.7868C88.4101 99.518 83.7256 131.695 82.2741 138.131M5.3093 140.488C5.83187 145.611 7.5003 156.919 9.99345 161.164M82.2741 138.131C80.0537 144.333 74.5697 151.053 70.1008 150.676" stroke="#303030" stroke-linecap="round"/>
<path d="M64.6269 72.2157C49.9512 76.1531 34.2555 67.6224 14.02 61.8598C10.0205 60.7208 7.41254 64.1706 5.76652 70.2132C5.76652 71.8157 10.3877 64.8394 23.5442 79.8754C36.0654 94.1854 65.5273 82.2796 64.9525 92.7573C64.9233 93.2889 64.8168 93.8781 64.6269 94.5313C58.8176 114.509 86.8662 96.9039 88.41 90.7868C88.41 82.0556 79.3026 68.2783 64.6269 72.2157Z" fill="#ECEDF1"/>
<path d="M64.9525 92.7573C64.9233 93.2889 64.8168 93.8781 64.6269 94.5313C58.8176 114.509 86.8662 96.9039 88.41 90.7868C88.41 82.0556 79.3026 68.2783 64.6269 72.2157C49.9512 76.1531 34.2555 67.6224 14.02 61.8598C10.0205 60.7208 7.41254 64.1706 5.76652 70.2132C5.76652 71.8157 10.3877 64.8394 23.5442 79.8754C36.0654 94.1854 65.5273 82.2796 64.9525 92.7573ZM64.9525 92.7573C67.2281 89.2539 66.5705 81.7728 60.8486 79.8754" stroke="#303030" stroke-linecap="round"/>
</svg>
