<svg width="100" height="100" viewBox="0 0 100 100" fill="none" xmlns="http://www.w3.org/2000/svg">
<rect x="1" y="1" width="98" height="98" rx="1" fill="white" stroke="#303030"/>
<path d="M41.5 1C35.5 11 11 22 1 24" stroke="#303030"/>
<path d="M79 1C65 7 58 18 42 30C26 42 19 41 1.5 44" stroke="#303030"/>
<path d="M79 99.0001C57.0308 99.0001 32 82 1 86" stroke="#303030"/>
<path d="M99 36C90.5 38.5 62.5 49.5 60 57.5C70 57 88 55.5 99 57" stroke="#303030"/>
<path d="M99 14.5C72 20 42 60.5 1 67" stroke="#303030"/>
<path d="M99 78.5C31 65.5 24 78.5 1 67" stroke="#303030"/>
<rect x="9" y="9" width="82" height="82" rx="1" fill="#ECEDF1" stroke="#303030"/>
<circle cx="49.8366" cy="52.2912" r="15.2997" fill="#ECEDF1" stroke="#303030"/>
<path d="M50.0742 51.6266C54.3514 50.154 65.8437 46.9799 71.0072 52.7135C69.4834 55.2413 58.898 56.407 50.0742 51.6266Z" fill="white" stroke="#303030"/>
<path d="M49.8396 53.0879C53.6937 53.8985 63.5204 56.6174 63.0976 62.7862C60.371 63.8815 52.5076 60.1625 49.8396 53.0879Z" fill="white" stroke="#303030"/>
<path d="M54.2183 32.4226C53.818 33.7829 53.5744 35.0647 53.5253 36.1697C54.003 35.8136 54.477 35.4444 54.9454 35.0643C55.6886 39.5429 54.751 46.2877 49.6336 52.319C48.1357 47.3105 47.2061 32.6594 52.6827 30.2722C53.2529 30.6429 53.7901 31.3899 54.2183 32.4226Z" fill="white" stroke="#303030"/>
<path d="M62.6106 58.026C61.7605 57.5621 60.9396 57.2084 60.2084 57.004C60.3761 57.3585 60.5532 57.7127 60.7383 58.0652C57.6353 57.8255 53.2649 56.179 49.986 52.0318C53.5541 51.8829 63.4841 53.6051 64.2746 57.4041C63.9428 57.7024 63.3643 57.9208 62.6106 58.026Z" fill="white" stroke="#303030"/>
<path d="M39.0789 36.7223C40.0166 37.4131 40.8342 38.0858 41.4785 38.691C40.7987 38.671 40.1128 38.6333 39.4252 38.5794C40.9739 44.5773 46.3656 49.5192 49.5026 51.8153C49.9179 44.3078 46.7566 38.6589 43.6225 35.6919C43.4857 36.2489 43.3385 36.8009 43.1809 37.345C42.7956 36.5327 42.3987 35.5282 42.0226 34.4008C40.9232 33.6657 39.9098 33.3053 39.1568 33.3596C38.9688 34.5026 38.954 35.6265 39.0789 36.7223Z" fill="white" stroke="#303030"/>
<path d="M31.4082 50.033C32.5348 49.6675 33.5702 49.4051 34.4428 49.2583C33.9891 49.9071 33.5181 50.5477 33.0338 51.1769C38.5614 54.4511 45.7716 53.1244 49.5292 51.8902C45.5233 47.1429 41.0197 45.1365 37.2213 44.7009C37.7499 45.5809 38.2561 46.4783 38.7324 47.385C37.2407 46.9147 35.2923 46.0189 33.2662 44.8199C31.1282 45.2271 29.5465 46.1737 28.9197 47.2721C29.6613 48.3685 30.5003 49.2802 31.4082 50.033Z" fill="white" stroke="#303030"/>
<path d="M65.8403 35.4976C64.3755 36.9823 63.1683 38.4326 62.3719 39.6805C63.2422 39.5782 64.1202 39.4336 64.9993 39.252C63.3576 43.7536 59.1362 48.8231 49.8741 52.038C51.2588 46.2033 55.2103 30.5764 65.15 30.5764C65.6641 31.5865 66.0242 33.3548 65.8403 35.4976Z" fill="white" stroke="#303030"/>
<path d="M54.9792 68.5964C54.3365 67.0794 53.8937 65.6893 53.7161 64.603C54.5298 65.1234 55.3288 65.6883 56.1063 66.2861C57.2344 62.758 56.3968 57.6968 49.5794 51.8723C47.8612 56.1179 43.4699 67.5785 52.0779 71.251C52.9745 70.8203 54.0899 69.907 54.9792 68.5964Z" fill="white" stroke="#303030"/>
<path d="M57.9488 60.8847C57.3833 60.3131 56.9127 59.7396 56.5817 59.2032C56.9031 59.2556 57.2264 59.3155 57.5502 59.3823C56.6469 56.9628 54.3304 53.8554 50.2701 52.1926C50.9706 55.0721 54.6238 62.5952 57.8346 62.3533C57.9963 62.0205 58.0377 61.5094 57.9488 60.8847Z" fill="white" stroke="#303030"/>
<path d="M49.7887 51.8918C45.3804 52.8555 33.8655 56.6469 34.7081 65.915C37.2337 66.7313 47.6144 64.1246 49.7887 51.8918Z" fill="white" stroke="#303030"/>
<path d="M49.7338 52.0699C53.2912 49.9635 60.6869 44.9083 64.7593 46.5934C64.338 49.2615 58.2997 52.772 49.7338 52.0699Z" fill="white" stroke="#303030"/>
<path d="M49.6465 51.8779C45.2933 51.8779 33.7785 52.5801 30.2678 59.3205C32.284 61.118 42.4818 58.8937 49.6465 51.8779Z" fill="white" stroke="#303030"/>
<path d="M49.4938 51.832C48.0345 49.9816 43.8759 45.3222 39.8338 46.0894C39.7456 47.549 44.1097 51.1383 49.4938 51.832Z" fill="white" stroke="#303030"/>
</svg>
