<svg width="128" height="128" viewBox="0 0 128 128" fill="none" xmlns="http://www.w3.org/2000/svg">
<rect x="5.01575" y="5.02148" width="117.957" height="117.957" rx="1.34042" fill="#ECEDF1" stroke="#303030"/>
<path d="M18.4202 23.7872C20.2574 22.6566 21.2734 20.1244 22.4414 18.4255" stroke="#303030" stroke-linecap="round"/>
<path d="M78.7391 26.3213C83.1954 26.8924 87.7067 25.649 92.1434 25.1277" stroke="#303030" stroke-linecap="round"/>
<path d="M101.526 47.9148C102.745 48.5106 104.189 48.8324 105.548 49.2552" stroke="#303030" stroke-linecap="round"/>
<path d="M104.207 68.0215C99.7331 70.613 94.3986 71.85 89.4624 73.3832" stroke="#303030" stroke-linecap="round"/>
<path d="M54.6116 37.1917C54.7546 40.4105 55.3053 43.4488 55.952 46.5746" stroke="#303030" stroke-linecap="round"/>
<path d="M31.8243 57.2979C32.7786 58.9201 34.5466 60.0851 35.8456 61.3191" stroke="#303030" stroke-linecap="round"/>
<path d="M27.8032 89.468C29.2066 91.0468 31.4212 92.2282 33.1649 93.4893" stroke="#303030" stroke-linecap="round"/>
<path d="M58.6328 81.4257V76.064" stroke="#303030" stroke-linecap="round"/>
<path d="M92.1434 108.234C95.1914 105.995 96.8082 101.962 98.8456 98.8511" stroke="#303030" stroke-linecap="round"/>
<path d="M58.6328 106.893C63.0698 108.024 67.5685 108.712 72.037 109.574" stroke="#303030" stroke-linecap="round"/>
<path d="M25.1223 110.915L18.4202 112.255" stroke="#303030" stroke-linecap="round"/>
<path d="M34.5051 33.1335C36.0641 33.3651 37.1073 32.4513 38.5264 31.8298" stroke="#303030" stroke-linecap="round"/>
<path d="M50.5902 15.7446C52.4364 15.7446 54.1481 15.7446 55.9519 15.7446" stroke="#303030" stroke-linecap="round"/>
<path d="M107.083 13.0637C106.381 15.6329 107.768 18.5749 108.228 21.1063" stroke="#303030" stroke-linecap="round"/>
<path d="M74.7179 50.5957C78.0013 52.7278 81.8052 53.567 85.4413 54.617" stroke="#303030" stroke-linecap="round"/>
<path d="M22.4413 46.5747C19.3931 49.076 15.2611 49.6268 11.7179 50.596" stroke="#303030" stroke-linecap="round"/>
<path d="M18.4202 73.3829C19.5805 73.1619 20.2961 72.5791 21.101 72.0425" stroke="#303030" stroke-linecap="round"/>
<path d="M105.548 84.1064C106.487 85.4095 107.353 86.7505 108.229 88.1277" stroke="#303030" stroke-linecap="round"/>
<path d="M110.909 109.574C112.128 110.691 113.613 110.57 114.931 110.915" stroke="#303030" stroke-linecap="round"/>
<path d="M76.0583 93.4895C77.7284 91.6803 78.8345 88.9456 80.0796 86.7874" stroke="#303030" stroke-linecap="round"/>
<path d="M38.5265 76.0638C39.9069 75.8514 41.213 75.2087 42.5478 74.7234" stroke="#303030" stroke-linecap="round"/>
<path d="M65.335 59.9785C66.9935 61.4329 68.9398 61.8474 70.6967 62.6594" stroke="#303030" stroke-linecap="round"/>
<path d="M74.7179 9.04272C75.0474 10.6903 76.2845 11.6712 77.3987 13.064" stroke="#303030" stroke-linecap="round"/>
<path d="M38.5265 108.234C39.2732 110.388 40.9444 111.933 42.5478 113.596" stroke="#303030" stroke-linecap="round"/>
<path d="M10.3776 93.4893C12.0123 94.6432 13.9425 95.319 15.7393 96.1701" stroke="#303030" stroke-linecap="round"/>
<path d="M114.931 59.9789C115.85 59.7744 115.883 59.1551 116.271 58.6384" stroke="#303030" stroke-linecap="round"/>
<path d="M5.68616 1L8.367 4.61914" stroke="#303030" stroke-linecap="round"/>
<path d="M14.3989 4.6189C14.2855 3.43199 13.2619 2.17978 13.0585 0.999756" stroke="#303030" stroke-linecap="round"/>
<path d="M19.0903 5.02103C20.5806 4.39901 20.5226 1.77306 21.7712 0.999756" stroke="#303030" stroke-linecap="round"/>
<path d="M28.4733 4.6189C27.0361 3.58016 26.4681 2.26653 25.7925 0.999756" stroke="#303030" stroke-linecap="round"/>
<path d="M29.3098 4.57161C29.8079 4.02723 30.4726 3.45687 31.1542 3.01074" stroke="#303030" stroke-linecap="round"/>
<path d="M34.4674 4.71872C34.4785 3.86335 34.5582 3.04962 34.713 2.21362" stroke="#303030" stroke-linecap="round"/>
<path d="M42.5477 5.0209C42.4992 3.68137 41.7072 2.78365 41.3441 1.47656" stroke="#303030" stroke-linecap="round"/>
<path d="M49.9202 5.02134C49.9929 3.95198 50.4747 2.65422 50.9225 1.62427" stroke="#303030" stroke-linecap="round"/>
<path d="M57.2925 5.02124C57.9627 3.81486 59.4984 2.2364 60.6435 1.4021" stroke="#303030" stroke-linecap="round"/>
<path d="M68.686 4.61912C68.3526 3.88315 67.4553 2.95113 67.1318 2.21362" stroke="#303030" stroke-linecap="round"/>
<path d="M72.037 5.02146C72.8417 4.30286 72.7595 2.57967 73.3774 1.80444" stroke="#303030" stroke-linecap="round"/>
<path d="M78.675 4.5714L77.447 1.91895" stroke="#303030" stroke-linecap="round"/>
<path d="M85.0604 4.86625C85.3806 4.00188 86.0236 3.53601 86.7796 2.80322" stroke="#303030" stroke-linecap="round"/>
<path d="M90.7093 4.42409C90.4536 3.38099 89.3718 2.51056 88.4989 1.62427" stroke="#303030" stroke-linecap="round"/>
<path d="M96.1648 5.02134C96.6553 3.75413 96.9706 3.03833 98.5686 1.62427" stroke="#303030" stroke-linecap="round"/>
<path d="M103.726 4.7188C103.353 3.67474 103.171 2.67911 102.989 1.62427" stroke="#303030" stroke-linecap="round"/>
<path d="M111.094 4.86617C111.879 4.38769 112.593 3.90437 113.304 3.39258" stroke="#303030" stroke-linecap="round"/>
<path d="M117.725 5.01317C117.394 3.82215 116.985 2.64695 116.497 1.47656" stroke="#303030" stroke-linecap="round"/>
<path d="M121.164 4.86647C122.827 3.48049 123.918 3.14421 126.11 2.09961" stroke="#303030" stroke-linecap="round"/>
<path d="M123.228 6.72778C124.189 6.90203 125.091 6.97338 126.041 6.97338" stroke="#303030" stroke-linecap="round"/>
<path d="M123.385 12.3765C124.547 12.3652 125.674 12.2813 126.823 12.1309" stroke="#303030" stroke-linecap="round"/>
<path d="M123.072 18.2708C123.959 18.7062 124.822 18.9682 125.729 19.2531" stroke="#303030" stroke-linecap="round"/>
<path d="M122.973 27.8085C124.149 27.509 125.236 27.0146 126.354 26.3755" stroke="#303030" stroke-linecap="round"/>
<path d="M123.228 32.7612C124.352 33.5498 125.457 34.3458 126.666 34.726" stroke="#303030" stroke-linecap="round"/>
<path d="M122.973 38.5319C124.381 39.7679 125.263 37.7902 126.812 37.8618" stroke="#303030" stroke-linecap="round"/>
<path d="M123.072 55.3565C124.679 53.2769 125.774 53.7149 127.238 52.6067" stroke="#303030" stroke-linecap="round"/>
<path d="M123.228 62.4783C124.075 63.3101 125.098 63.5157 126.041 63.9519" stroke="#303030" stroke-linecap="round"/>
<path d="M123.228 77.46C123.858 76.6165 126.125 75.4431 126.812 74.7234" stroke="#303030" stroke-linecap="round"/>
<path d="M123.228 70.3376L125.104 69.6008" stroke="#303030" stroke-linecap="round"/>
<path d="M122.973 85.4468C123.916 85.651 124.602 86.4794 125.532 86.7872" stroke="#303030" stroke-linecap="round"/>
<path d="M122.973 93.4893C123.843 94.1996 125.427 94.9307 126.354 95.3886" stroke="#303030" stroke-linecap="round"/>
<path d="M123.072 106.932C124.366 105.915 125.656 104.894 126.979 103.985" stroke="#303030" stroke-linecap="round"/>
<path d="M123.072 114.545C124.688 114.908 125.167 115.171 126.812 114.936" stroke="#303030" stroke-linecap="round"/>
<path d="M123 122.5C124.309 122.984 124.683 124.108 125.898 124.989" stroke="#303030" stroke-linecap="round"/>
<path d="M0.994629 6.36182L4.61377 9.04266" stroke="#303030" stroke-linecap="round"/>
<path d="M4.61377 15.0746C3.42686 14.9612 2.17466 13.9376 0.994629 13.7341" stroke="#303030" stroke-linecap="round"/>
<path d="M5.0159 19.7661C4.39388 21.2564 1.76793 21.1984 0.994629 22.447" stroke="#303030" stroke-linecap="round"/>
<path d="M4.61377 29.1489C3.57503 27.7116 2.2614 27.1436 0.994629 26.468" stroke="#303030" stroke-linecap="round"/>
<path d="M4.56612 29.9854C4.02174 30.4835 3.45137 31.1482 3.00525 31.8297" stroke="#303030" stroke-linecap="round"/>
<path d="M4.71335 35.1431C3.85798 35.1541 3.04425 35.2339 2.20825 35.3887" stroke="#303030" stroke-linecap="round"/>
<path d="M5.01589 43.2234C3.67637 43.1749 2.77865 42.3829 1.47156 42.0198" stroke="#303030" stroke-linecap="round"/>
<path d="M5.01596 50.5959C3.9466 50.6687 2.64885 51.1505 1.6189 51.5983" stroke="#303030" stroke-linecap="round"/>
<path d="M5.01587 57.968C3.80949 58.6382 2.23103 60.174 1.39673 61.3191" stroke="#303030" stroke-linecap="round"/>
<path d="M4.61375 69.3617C3.87778 69.0284 2.94576 68.1311 2.20825 67.8076" stroke="#303030" stroke-linecap="round"/>
<path d="M5.01596 72.7126C4.29736 73.5173 2.57418 73.4351 1.79895 74.0531" stroke="#303030" stroke-linecap="round"/>
<path d="M4.56603 79.3508L1.91357 78.1228" stroke="#303030" stroke-linecap="round"/>
<path d="M4.86087 85.7366C3.99651 86.0567 3.53064 86.6997 2.79785 87.4558" stroke="#303030" stroke-linecap="round"/>
<path d="M4.41871 91.3852C3.37562 91.1295 2.50518 90.0477 1.6189 89.1748" stroke="#303030" stroke-linecap="round"/>
<path d="M5.01596 96.8406C3.74876 97.331 3.03295 97.6464 1.6189 99.2444" stroke="#303030" stroke-linecap="round"/>
<path d="M4.71343 104.401C3.66937 104.028 2.67374 103.846 1.6189 103.665" stroke="#303030" stroke-linecap="round"/>
<path d="M4.86067 111.77C4.38219 112.555 3.89888 113.269 3.38708 113.98" stroke="#303030" stroke-linecap="round"/>
<path d="M5.00817 118.401C3.81715 118.07 2.64195 117.661 1.47156 117.173" stroke="#303030" stroke-linecap="round"/>
<path d="M5.01593 121.638C3.91964 123.035 3.16135 123.148 2.33508 124.989" stroke="#303030" stroke-linecap="round"/>
<path d="M6.72217 123.563C6.89641 124.387 6.96777 125.16 6.96777 125.974" stroke="#303030" stroke-linecap="round"/>
<path d="M12.371 123.697C12.3597 124.693 12.2758 125.659 12.1254 126.644" stroke="#303030" stroke-linecap="round"/>
<path d="M18.2654 123.429C18.7008 124.189 18.9628 124.929 19.2478 125.706" stroke="#303030" stroke-linecap="round"/>
<path d="M27.803 123.344C27.5035 124.352 27.0091 125.283 26.37 126.242" stroke="#303030" stroke-linecap="round"/>
<path d="M32.7556 123.563C33.5442 124.526 34.3402 125.473 34.7204 126.51" stroke="#303030" stroke-linecap="round"/>
<path d="M38.5263 123.344C39.7623 124.551 37.7846 125.307 37.8562 126.634" stroke="#303030" stroke-linecap="round"/>
<path d="M55.3507 123.429C53.271 124.806 53.709 125.744 52.6008 127" stroke="#303030" stroke-linecap="round"/>
<path d="M62.4727 123.563C63.3045 124.289 63.5101 125.165 63.9462 125.974" stroke="#303030" stroke-linecap="round"/>
<path d="M77.4544 123.563C76.6109 124.103 75.4374 126.046 74.7178 126.635" stroke="#303030" stroke-linecap="round"/>
<path d="M70.3321 123.563L69.5953 125.171" stroke="#303030" stroke-linecap="round"/>
<path d="M85.4412 123.344C85.6454 124.152 86.4738 124.74 86.7816 125.538" stroke="#303030" stroke-linecap="round"/>
<path d="M93.4838 123.344C94.1941 124.089 94.9252 125.447 95.3831 126.242" stroke="#303030" stroke-linecap="round"/>
<path d="M106.926 123.429C105.91 124.538 104.889 125.644 103.979 126.778" stroke="#303030" stroke-linecap="round"/>
<path d="M114.54 123.429C114.903 124.814 115.165 125.225 114.93 126.634" stroke="#303030" stroke-linecap="round"/>
</svg>
