<svg width="91" height="82" viewBox="0 0 91 82" fill="none" xmlns="http://www.w3.org/2000/svg">
<path d="M42.4365 38.8145C42.6365 39.033 42.7348 39.3217 42.8181 39.6009C42.9511 40.0812 43.0824 40.5983 43.2995 41.0385C43.6095 41.667 44.0582 42.2633 44.4824 42.8212C45.4646 44.0858 46.5429 45.4631 47.3165 46.8571C47.9887 48.04 48.5026 49.3219 48.869 50.6315C49.7189 53.6922 49.9413 56.9108 49.8165 60.0755C49.6047 64.7179 48.6378 69.3784 46.6589 73.5983C45.9732 75.0458 45.1649 76.4551 44.1908 77.7292C43.5183 78.6 42.7607 79.4289 41.8647 80.0738C40.9783 80.7133 39.8521 81.1953 38.7482 80.9215C36.8757 80.454 35.5258 78.1765 34.7397 76.5413C33.8622 74.6908 33.2418 72.6984 32.781 70.7053C32.1876 68.095 31.8797 65.394 31.9571 62.7163C32.0429 59.6392 32.6424 56.5572 33.8416 53.7164C34.5383 52.0485 35.485 50.4573 36.4689 48.9438C37.6157 47.1777 39.3037 44.886 40.188 42.9979C40.3714 42.6006 40.5377 42.1831 40.6576 41.7621C40.7803 41.334 40.8602 40.8849 40.9169 40.4433C40.963 40.1021 41.0247 39.3512 41.1063 39.0273C41.1308 38.9269 41.1613 38.8258 41.2081 38.7333C41.2478 38.6549 41.3011 38.5815 41.3738 38.5307C41.4373 38.4864 41.5128 38.4612 41.5894 38.452C41.7189 38.4364 41.8501 38.4609 41.9718 38.5048C42.1474 38.5698 42.3091 38.6765 42.4365 38.8145Z" fill="white" stroke="#303030" stroke-miterlimit="10" stroke-linecap="round" stroke-linejoin="round"/>
<path d="M42.437 38.8145C42.4491 38.6091 42.4867 38.3902 42.6208 38.2267C42.6956 38.1363 42.7995 38.0735 42.9102 38.0363C43.2021 37.9416 43.5189 37.9855 43.8108 38.059C44.5142 38.2516 45.3658 38.6744 46.0465 38.9408C46.9389 39.3033 47.869 39.6101 48.8171 39.7871C49.6744 39.9517 50.5626 40.0013 51.4345 39.9928C53.9788 39.9779 57.784 39.3426 60.3365 39.0348C62.7605 38.7489 65.257 38.5286 67.6927 38.7606C69.8323 38.9631 71.9431 39.5274 73.9107 40.3904C77.6943 42.0476 80.9488 44.7451 83.6995 47.7945C84.9328 49.1836 86.0969 50.6804 86.9404 52.3419C87.3781 53.2194 87.7367 54.1611 87.8243 55.1447C87.8811 55.7889 87.8017 56.4554 87.5229 57.0431C86.9837 58.17 85.8823 58.8968 84.7821 59.4101C83.8336 59.8471 82.8127 60.1475 81.794 60.372C80.4284 60.6686 79.0188 60.8317 77.6241 60.9037C73.1069 61.129 68.5419 60.4309 64.2911 58.8897C60.2421 57.4166 56.4269 55.1816 53.3385 52.1603C52.1974 51.0404 51.1397 49.7876 50.1774 48.5118C49.1019 47.116 47.4525 44.566 46.4274 43.1202C46.0922 42.6474 45.7127 42.1537 45.3279 41.7192C44.931 41.2715 44.4886 40.8469 44.0367 40.455C43.7696 40.2287 42.9875 39.5661 42.7371 39.3458" fill="white"/>
<path d="M42.437 38.8145C42.4491 38.6091 42.4867 38.3902 42.6208 38.2267C42.6956 38.1363 42.7995 38.0735 42.9102 38.0363C43.2021 37.9416 43.5189 37.9855 43.8108 38.059C44.5142 38.2516 45.3658 38.6744 46.0465 38.9408C46.9389 39.3033 47.869 39.6101 48.8171 39.7871C49.6744 39.9517 50.5626 40.0013 51.4345 39.9928C53.9788 39.9779 57.784 39.3426 60.3365 39.0348C62.7605 38.7489 65.257 38.5286 67.6927 38.7606C69.8323 38.9631 71.9431 39.5274 73.9107 40.3904C77.6943 42.0476 80.9488 44.7451 83.6995 47.7945C84.9328 49.1836 86.0969 50.6804 86.9404 52.3419C87.3781 53.2194 87.7367 54.1611 87.8243 55.1447C87.8811 55.7889 87.8016 56.4554 87.5229 57.0431C86.9837 58.17 85.8823 58.8968 84.7821 59.4101C83.8336 59.8471 82.8127 60.1475 81.794 60.372C80.4284 60.6686 79.0188 60.8317 77.6241 60.9037C73.1069 61.129 68.5419 60.4309 64.2911 58.8897C60.2421 57.4166 56.4269 55.1816 53.3385 52.1603C52.1974 51.0404 51.1397 49.7876 50.1774 48.5118C49.1019 47.116 47.4525 44.566 46.4274 43.1202C46.0922 42.6474 45.7127 42.1537 45.3279 41.7192C44.931 41.2715 44.4886 40.8469 44.0367 40.455C43.7696 40.2287 42.9875 39.5661 42.7371 39.3458" stroke="#303030" stroke-miterlimit="10" stroke-linecap="round" stroke-linejoin="round"/>
<path d="M40.9906 39.8012C40.5472 39.8469 40.09 39.9686 39.6452 40.0034C39.2667 40.0335 38.8631 40.0456 38.5016 40.152C38.2239 40.2297 37.9593 40.357 37.7241 40.5234C37.4627 40.7075 37.2332 40.9391 37.0225 41.1781C36.0265 42.3302 34.6226 44.7163 33.7348 45.9784C32.6774 47.5174 31.5083 49.0214 30.1874 50.3437C29.1364 51.3979 27.9669 52.3634 26.7123 53.1654C24.8632 54.3448 22.8166 55.2298 20.7299 55.8931C18.8613 56.4812 16.9125 56.9019 14.9638 57.1058C13.5645 57.2466 12.13 57.2885 10.7321 57.1168C9.97272 57.0207 9.20799 56.8618 8.49716 56.5723C7.9988 56.3677 7.51781 56.0924 7.14076 55.703L7.10707 55.6675L7.07442 55.6317L7.04251 55.5955L7.01129 55.5589L6.98079 55.5217L6.95135 55.4841L6.92262 55.4462L6.8946 55.4078L6.86763 55.3692L6.84139 55.3298L6.81621 55.2901L6.79173 55.25L6.76798 55.2096L6.74527 55.1688L6.72364 55.1276L6.7027 55.0861L6.68283 55.0443L6.66369 55.0021L6.64524 54.9595L6.62786 54.9162L6.61119 54.8726L6.59523 54.8286L6.58032 54.7843L6.56614 54.7396L6.55265 54.6945L6.54024 54.6491L6.52853 54.6034L6.51753 54.5573L6.50725 54.5108L6.49803 54.464L6.48952 54.4164C6.38488 53.7918 6.48881 53.1509 6.66865 52.5496C6.97228 51.5579 7.48162 50.636 8.04525 49.7698C9.24628 47.9541 10.7428 46.3278 12.3237 44.8373C14.0635 43.211 15.9616 41.7212 17.9713 40.4425C20.4638 38.8559 23.2075 37.6279 26.0841 36.9362C27.8701 36.5085 29.7195 36.2761 31.5572 36.3336C32.5678 36.3687 33.5907 36.4886 34.5648 36.7681C35.3657 36.9862 36.2411 37.4059 37.0385 37.6346C37.3098 37.7113 37.5908 37.768 37.8717 37.7946C38.2299 37.828 38.5988 37.8194 38.9574 37.801C39.4782 37.7779 40.1936 37.6918 40.7065 37.7549C40.8225 37.7709 40.9395 37.7964 41.0456 37.8475C41.1367 37.8911 41.2183 37.9535 41.2868 38.0273C41.4024 38.1504 41.4925 38.3157 41.5911 38.4522" fill="white"/>
<path d="M40.9906 39.8012C40.5472 39.8469 40.09 39.9686 39.6452 40.0034C39.2667 40.0335 38.8631 40.0456 38.5016 40.152C38.2239 40.2297 37.9593 40.357 37.7241 40.5234C37.4627 40.7075 37.2332 40.9391 37.0225 41.1781C36.0265 42.3302 34.6226 44.7163 33.7348 45.9784C32.6774 47.5174 31.5083 49.0214 30.1874 50.3437C29.1364 51.3979 27.9669 52.3634 26.7123 53.1654C24.8632 54.3448 22.8166 55.2298 20.7299 55.8931C18.8613 56.4812 16.9125 56.9019 14.9638 57.1058C13.5645 57.2466 12.13 57.2885 10.7321 57.1168C9.97272 57.0207 9.20799 56.8618 8.49716 56.5723C7.9988 56.3677 7.51781 56.0924 7.14076 55.703L7.10707 55.6675L7.07442 55.6317L7.04251 55.5955L7.01129 55.5589L6.98079 55.5217L6.95135 55.4841L6.92262 55.4462L6.8946 55.4078L6.86763 55.3692L6.84139 55.3298L6.81621 55.2901L6.79173 55.25L6.76798 55.2096L6.74527 55.1688L6.72364 55.1276L6.7027 55.0861L6.68283 55.0443L6.66369 55.0021L6.64524 54.9595L6.62786 54.9162L6.61119 54.8726L6.59523 54.8286L6.58032 54.7843L6.56614 54.7396L6.55265 54.6945L6.54024 54.6491L6.52853 54.6034L6.51753 54.5573L6.50725 54.5108L6.49803 54.464L6.48952 54.4164C6.38488 53.7918 6.48881 53.1509 6.66865 52.5496C6.97228 51.5579 7.48163 50.636 8.04525 49.7698C9.24628 47.9541 10.7428 46.3278 12.3237 44.8373C14.0635 43.211 15.9616 41.7212 17.9713 40.4425C20.4638 38.8559 23.2075 37.6279 26.0841 36.9362C27.8701 36.5085 29.7195 36.2761 31.5572 36.3336C32.5678 36.3687 33.5907 36.4886 34.5648 36.7681C35.3657 36.9862 36.2411 37.4059 37.0385 37.6346C37.3098 37.7113 37.5908 37.768 37.8717 37.7946C38.2299 37.828 38.5988 37.8194 38.9574 37.801C39.4782 37.7779 40.1936 37.6918 40.7065 37.7549C40.8225 37.7709 40.9395 37.7964 41.0456 37.8475C41.1367 37.8911 41.2183 37.9535 41.2868 38.0273C41.4024 38.1504 41.4925 38.3157 41.5911 38.4522" stroke="#303030" stroke-miterlimit="10" stroke-linecap="round" stroke-linejoin="round"/>
<path d="M42.8273 38.0695C42.6773 37.9159 42.4871 37.7705 42.4148 37.5609C42.3811 37.4637 42.3903 37.3587 42.4229 37.2629C42.4488 37.1827 42.4889 37.1043 42.5308 37.0313C42.6691 36.7897 42.9429 36.4364 43.1015 36.2002C43.3874 35.7856 43.625 35.3305 43.7396 34.8371C43.9695 33.9053 43.929 32.6642 43.9641 31.7004C43.995 30.6317 44.0822 29.5445 44.338 28.5045C44.6874 27.0673 45.3379 25.7105 46.098 24.4478C47.4349 22.2525 49.1418 20.286 51.0142 18.5316C52.6218 17.0337 54.3829 15.6773 56.2579 14.5309C57.7551 13.6208 59.3459 12.8241 61.001 12.2434C61.9909 11.899 63.0224 11.6238 64.0649 11.5014C64.7644 11.4212 65.4809 11.4088 66.1761 11.5333C66.8266 11.6497 67.4683 11.9019 67.9674 12.3442C68.3135 12.6485 68.5806 13.0358 68.7747 13.4523C69.0687 14.0854 69.211 14.7821 69.2755 15.4741C69.3614 16.4208 69.3032 17.387 69.1776 18.3277C68.974 19.8175 68.5877 21.292 68.0982 22.7126C67.4697 24.5176 66.6546 26.2788 65.6451 27.9022C63.657 31.1187 60.7835 33.9003 57.2198 35.2783C54.0604 36.523 50.2722 36.6056 46.9142 36.8486C46.1736 36.9203 45.4046 36.9876 44.715 37.2863C44.2798 37.47 43.8748 37.7708 43.4597 37.9932" fill="white"/>
<path d="M42.8273 38.0695C42.6773 37.9159 42.4871 37.7705 42.4148 37.5609C42.3811 37.4637 42.3903 37.3587 42.4229 37.2629C42.4488 37.1827 42.4889 37.1043 42.5308 37.0313C42.6691 36.7897 42.9429 36.4364 43.1015 36.2002C43.3874 35.7856 43.625 35.3305 43.7396 34.8371C43.9695 33.9053 43.929 32.6642 43.9641 31.7004C43.995 30.6317 44.0822 29.5445 44.338 28.5045C44.6874 27.0673 45.3379 25.7105 46.098 24.4478C47.4349 22.2525 49.1418 20.286 51.0142 18.5316C52.6218 17.0337 54.3829 15.6773 56.2579 14.5309C57.7551 13.6208 59.3459 12.8241 61.001 12.2434C61.9909 11.899 63.0224 11.6238 64.0649 11.5014C64.7644 11.4212 65.4809 11.4088 66.1761 11.5333C66.8266 11.6497 67.4683 11.9019 67.9674 12.3442C68.3135 12.6485 68.5806 13.0358 68.7747 13.4523C69.0687 14.0854 69.211 14.7821 69.2755 15.4741C69.3614 16.4208 69.3032 17.387 69.1776 18.3277C68.974 19.8175 68.5877 21.292 68.0982 22.7126C67.4697 24.5176 66.6546 26.2788 65.6451 27.9022C63.657 31.1187 60.7835 33.9003 57.2198 35.2783C54.0604 36.523 50.2722 36.6056 46.9142 36.8486C46.1736 36.9203 45.4046 36.9876 44.715 37.2863C44.2798 37.47 43.8748 37.7708 43.4597 37.9932" stroke="#303030" stroke-miterlimit="10" stroke-linecap="round" stroke-linejoin="round"/>
<path d="M41.2061 37.9511C41.3479 38.0246 41.5036 38.0739 41.6629 38.0909C41.7778 38.1022 41.8984 38.0962 42.0059 38.0508C42.217 37.9586 42.3298 37.7376 42.4067 37.5322" fill="white"/>
<path d="M41.2061 37.9511C41.3479 38.0246 41.5036 38.0739 41.6629 38.0909C41.7778 38.1022 41.8984 38.0962 42.0059 38.0508C42.217 37.9586 42.3298 37.7376 42.4067 37.5322" stroke="#303030" stroke-miterlimit="10" stroke-linecap="round" stroke-linejoin="round"/>
<path d="M40.5628 37.7405C40.3046 37.4167 40.0357 37.051 39.7321 36.7778C39.5029 36.5657 39.2397 36.387 38.9709 36.2284C37.9227 35.6275 36.5759 35.0331 35.5466 34.402C34.2561 33.632 33.0313 32.7051 31.8927 31.7258C29.3335 29.5092 27.0741 26.9142 25.2388 24.0688C22.4232 19.6456 20.5028 14.6428 19.5135 9.49856C19.2872 8.26915 19.0978 6.99398 19.0439 5.74436C19.0134 4.96188 19.0301 4.16486 19.1836 3.3948C19.3929 2.35161 19.8906 1.36801 21.0047 1.09453C21.6975 0.924626 22.426 1.00976 23.1148 1.15803C24.7788 1.54217 26.332 2.32252 27.8008 3.17594C29.4974 4.17621 31.1259 5.37015 32.6231 6.64957C35.3543 8.98636 37.7255 11.7811 39.4398 14.9479C41.2339 18.2438 42.304 21.9512 42.4335 25.7071C42.4917 27.27 42.4041 28.8764 42.242 30.4318C42.1178 31.7939 41.795 33.6376 41.6063 34.9983C41.5744 35.2225 41.5411 35.5084 41.5368 35.7382C41.5357 35.8631 41.5442 35.99 41.5808 36.1099C41.6024 36.1809 41.6347 36.249 41.6755 36.311C41.6978 36.3455 41.7245 36.3806 41.7511 36.4118L41.7617 36.4242L41.7727 36.4366L41.7883 36.454L41.8046 36.4714C41.8504 36.5196 41.9447 36.6136 41.9901 36.6622C42.1675 36.8484 42.3093 37.0683 42.4104 37.3049" fill="white"/>
<path d="M40.5628 37.7405C40.3046 37.4167 40.0357 37.051 39.7321 36.7778C39.5029 36.5657 39.2397 36.387 38.9709 36.2284C37.9227 35.6275 36.5759 35.033 35.5466 34.402C34.2561 33.632 33.0313 32.7051 31.8927 31.7258C29.3335 29.5092 27.0741 26.9142 25.2388 24.0688C22.4232 19.6456 20.5028 14.6428 19.5135 9.49856C19.2872 8.26915 19.0978 6.99398 19.0439 5.74436C19.0134 4.96188 19.0301 4.16486 19.1836 3.3948C19.3929 2.35161 19.8906 1.36801 21.0047 1.09453C21.6975 0.924626 22.426 1.00976 23.1148 1.15803C24.7788 1.54217 26.332 2.32252 27.8009 3.17594C29.4974 4.17621 31.1259 5.37015 32.6231 6.64957C35.3543 8.98636 37.7255 11.7811 39.4398 14.9479C41.2339 18.2438 42.304 21.9512 42.4335 25.7071C42.4917 27.27 42.4041 28.8764 42.242 30.4318C42.1178 31.7939 41.795 33.6376 41.6063 34.9983C41.5744 35.2225 41.5411 35.5084 41.5368 35.7382C41.5357 35.8631 41.5442 35.99 41.5808 36.1099C41.6024 36.1809 41.6347 36.249 41.6755 36.311C41.6978 36.3455 41.7245 36.3806 41.7511 36.4118L41.7617 36.4242L41.7727 36.4366L41.7883 36.454L41.8046 36.4714C41.8504 36.5196 41.9447 36.6136 41.9901 36.6622C42.1675 36.8484 42.3093 37.0683 42.4104 37.3049" stroke="#303030" stroke-miterlimit="10" stroke-linecap="round" stroke-linejoin="round"/>
<path d="M42.4102 37.3053C42.4358 37.2063 42.4836 37.1127 42.5344 37.0243C42.6383 36.841 42.8823 36.5146 43.0082 36.3344C43.3051 35.9155 43.5712 35.464 43.7052 34.9649C43.8219 34.5453 43.873 34.1051 43.9025 33.6713C43.9667 32.6923 43.9379 31.4526 44.0277 30.4786C44.1146 29.4032 44.3239 28.3298 44.6974 27.3161C45.3546 25.5209 46.3801 23.8698 47.5322 22.352C49.4767 19.8176 51.8347 17.5972 54.4301 15.7392C56.0844 14.5623 57.8651 13.5269 59.7358 12.7334C61.0609 12.1762 62.4514 11.7208 63.8794 11.525C64.6892 11.4182 65.5228 11.3948 66.3258 11.5633C66.8462 11.6739 67.3556 11.8736 67.7826 12.1946C68.7964 12.9534 69.1631 14.2658 69.2749 15.4742C69.3845 16.71 69.2599 17.9646 69.0404 19.182C68.7368 20.8356 68.2306 22.4697 67.6028 24.029C65.7452 28.6334 62.5028 32.9403 57.8771 35.0032C54.5415 36.5168 50.5159 36.5881 46.9132 36.8484C46.1726 36.9201 45.4036 36.9875 44.714 37.2861C44.2788 37.4699 43.8737 37.7706 43.4587 37.993C43.8993 38.0441 44.3196 38.2222 44.7282 38.3868C45.4327 38.684 46.2999 39.0646 47.0178 39.3062C47.6811 39.5328 48.371 39.7169 49.0623 39.8311C49.9214 39.9751 50.8103 40.0074 51.6804 39.9897C54.1077 39.9478 57.8956 39.3328 60.3356 39.0355C62.7596 38.7496 65.256 38.5294 67.6918 38.7613C69.8314 38.9639 71.9422 39.5282 73.9098 40.3912C77.6934 42.0484 80.9478 44.7459 83.6986 47.7953C84.9319 49.1843 86.096 50.6812 86.9395 52.3426C87.3772 53.2202 87.7358 54.1619 87.8234 55.1455C87.8802 55.7896 87.8007 56.4561 87.5219 57.0439C86.9828 58.1708 85.8814 58.8976 84.7811 59.4108C83.8326 59.8478 82.8118 60.1483 81.7931 60.3728C80.4275 60.6693 79.0179 60.8325 77.6232 60.9045C73.106 61.1297 68.541 60.4317 64.2902 58.8905C60.2412 57.4174 56.426 55.1824 53.3376 52.161C52.1965 51.0412 51.1388 49.7884 50.1765 48.5125C49.101 47.1168 47.4516 44.5668 46.4265 43.121C46.0913 42.6482 45.7118 42.1544 45.3269 41.7199C44.93 41.2723 44.4877 40.8477 44.0358 40.4558C43.7687 40.2295 42.9866 39.5669 42.7362 39.3466C42.7663 39.4292 42.7968 39.5279 42.8217 39.6126L42.9895 40.2117C43.0611 40.4593 43.1473 40.7033 43.2526 40.9378C43.3552 41.1623 43.4814 41.389 43.613 41.5986C44.3455 42.7326 45.4117 43.9613 46.1821 45.0719C46.855 46.0278 47.4708 47.0448 47.9553 48.1092C48.4147 49.1106 48.7655 50.1821 49.034 51.2501C49.8033 54.3726 49.9676 57.6323 49.7771 60.8346C49.4866 65.3099 48.4934 69.7902 46.5418 73.8431C45.848 75.2715 45.0329 76.6609 44.0497 77.9105C43.3938 78.7355 42.6567 79.5191 41.7909 80.126C40.9382 80.7243 39.8712 81.1695 38.8178 80.9372C36.9687 80.525 35.6279 78.3368 34.839 76.7453C33.9803 74.9902 33.3663 73.0964 32.8984 71.2019C32.2703 68.6126 31.9212 65.9285 31.9468 63.2629C31.9748 60.0028 32.5707 56.7257 33.8416 53.7164C34.5383 52.0486 35.485 50.4574 36.4689 48.9439C37.294 47.6889 38.8199 45.4904 39.5488 44.217C39.8819 43.6385 40.1965 43.0323 40.4388 42.4095C40.774 41.5766 40.9017 40.6884 40.9907 39.8003C40.5473 39.846 40.0901 39.9677 39.6453 40.0024C39.2668 40.0326 38.8632 40.0447 38.5017 40.1511C38.224 40.2287 37.9594 40.3561 37.7242 40.5224C37.4628 40.7065 37.2333 40.9382 37.0226 41.1772C36.0266 42.3293 34.6227 44.7154 33.7348 45.9775C32.6775 47.5165 31.5084 49.0205 30.1874 50.3428C29.1365 51.397 27.967 52.3625 26.7124 53.1645C24.8633 54.3439 22.8167 55.2289 20.7299 55.8922C18.8614 56.4803 16.9126 56.9009 14.9639 57.1049C13.5646 57.2457 12.1301 57.2876 10.7322 57.1159C9.97282 57.0198 9.20806 56.8609 8.49723 56.5714C7.99887 56.3668 7.5179 56.0915 7.14085 55.702L7.10714 55.6666L7.07452 55.6307L7.04258 55.5946L7.01137 55.558L6.98086 55.5208L6.95142 55.4832L6.92269 55.4452L6.89468 55.4069L6.86772 55.3683L6.84146 55.3289L6.81628 55.2892L6.79182 55.2491L6.76805 55.2086L6.74534 55.1679L6.72371 55.1267L6.70277 55.0852L6.68292 55.0434L6.66376 55.0011L6.64532 54.9586L6.62793 54.9153L6.61126 54.8717L6.59531 54.8277L6.58041 54.7834L6.56621 54.7387L6.55274 54.6936L6.54032 54.6482L6.52863 54.6025L6.51763 54.5563L6.50734 54.5099L6.49812 54.4631L6.48961 54.4155C6.41371 53.9682 6.44775 53.5071 6.53785 53.0645C6.66058 52.4643 6.88688 51.8829 7.15114 51.3314C7.6534 50.2935 8.31563 49.3223 9.02078 48.4122C10.0973 47.0348 11.3281 45.7508 12.6139 44.5675C14.8897 42.4911 17.4007 40.6292 20.1305 39.1919C22.0892 38.1683 24.1826 37.3702 26.3378 36.8761C28.6838 36.3483 31.1427 36.1277 33.5259 36.5292C33.9622 36.6058 34.4098 36.7136 34.8323 36.8481C35.2643 36.9789 35.9251 37.2457 36.3455 37.4028C36.8885 37.6082 37.4603 37.7781 38.0434 37.8072C38.8479 37.8593 39.7595 37.6993 40.5633 37.7398C40.305 37.4159 40.0362 37.0502 39.7325 36.7771C39.5034 36.565 39.2402 36.3862 38.9714 36.2277C37.9232 35.6268 36.5764 35.0323 35.547 34.4013C34.2566 33.6312 33.0318 32.7044 31.8932 31.7251C29.334 29.5085 27.0746 26.9135 25.2393 24.068C22.4237 19.6449 20.5033 14.6421 19.514 9.49782C19.2877 8.26841 19.0983 6.99326 19.0444 5.74363C19.0139 4.96115 19.0306 4.16412 19.1841 3.39406C19.3934 2.35087 19.8911 1.36728 21.0052 1.0938C21.6979 0.923897 22.4265 1.00902 23.1153 1.15729C24.7792 1.54143 26.3325 2.32178 27.8013 3.1752C29.4979 4.17547 31.1263 5.36941 32.6236 6.64883C35.3548 8.98562 37.726 11.7803 39.4403 14.9472C41.2344 18.2431 42.3045 21.9505 42.434 25.7064C42.4922 27.2693 42.4045 28.8757 42.2424 30.4311C42.1183 31.7932 41.7955 33.6369 41.6068 34.9976C41.5749 35.2217 41.5415 35.5076 41.5373 35.7375C41.5362 35.8623 41.5447 35.9893 41.5813 36.1092C41.6029 36.1801 41.6352 36.2482 41.676 36.3103C41.6983 36.3447 41.7249 36.3798 41.7515 36.4111L41.7622 36.4235L41.7732 36.4359L41.7888 36.4533L41.8051 36.4706C41.8509 36.5189 41.9452 36.6129 41.9906 36.6615C42.1673 36.8488 42.3091 37.0687 42.4102 37.3053Z" fill="#ECEDF1" stroke="#303030" stroke-miterlimit="10" stroke-linecap="round" stroke-linejoin="round"/>
<path d="M42.0713 42.0972C42.3627 42.1507 42.6153 42.3217 42.8501 42.4941C43.246 42.7969 43.6627 43.1301 44.1013 43.3502C44.7278 43.6644 45.4453 43.8693 46.1203 44.0583C47.6665 44.4743 49.3573 44.9222 50.8153 45.5672C52.065 46.1051 53.2483 46.8174 54.3306 47.6407C56.8549 49.569 58.974 52.0017 60.7837 54.6009C63.4155 58.4311 65.456 62.7312 66.4236 67.2905C66.7501 68.8586 66.9556 70.4702 66.9475 72.0739C66.9365 73.1742 66.8323 74.2923 66.5068 75.3472C66.1857 76.392 65.5784 77.4558 64.5328 77.9034C62.7574 78.6602 60.3068 77.6583 58.6934 76.8284C56.8771 75.882 55.1804 74.6673 53.6105 73.3557C51.5625 71.632 49.6874 69.6636 48.1336 67.4815C46.3457 64.9757 44.9644 62.156 44.207 59.1669C43.7564 57.4165 43.5515 55.5763 43.4231 53.7757C43.2722 51.6754 43.2358 48.8293 42.802 46.79C42.7085 46.3625 42.5893 45.9292 42.4309 45.5211C42.2705 45.1056 42.0633 44.6993 41.8421 44.3129C41.673 44.013 41.2692 43.3769 41.1389 43.0694C41.0979 42.9745 41.0612 42.8755 41.0427 42.7734C41.0271 42.687 41.0253 42.5963 41.0526 42.512C41.0765 42.4383 41.1216 42.3727 41.1771 42.3191C41.271 42.2285 41.3904 42.1689 41.514 42.1305C41.6931 42.0764 41.8865 42.064 42.0713 42.0972Z" fill="white" stroke="#303030" stroke-miterlimit="10" stroke-linecap="round" stroke-linejoin="round"/>
<path d="M42.0715 42.0971C41.9572 41.9261 41.8551 41.7288 41.8634 41.5175C41.8685 41.4002 41.9135 41.2875 41.9793 41.191C42.155 40.9394 42.4342 40.7834 42.7113 40.6658C43.3884 40.3951 44.3227 40.2185 45.0263 40.0202C45.9567 39.771 46.8835 39.4546 47.7465 39.0237C48.5295 38.6378 49.2678 38.1415 49.958 37.6088C51.9781 36.0619 54.6296 33.2596 56.4795 31.4742C58.2403 29.7837 60.0983 28.102 62.1808 26.8175C64.0094 25.6882 66.0333 24.8649 68.1231 24.3661C72.1404 23.4051 76.3632 23.593 80.3967 24.3655C82.2183 24.7292 84.0497 25.2207 85.7247 26.0368C86.6032 26.4726 87.4574 27.0073 88.1207 27.7389C88.5545 28.2184 88.8933 28.7978 89.0255 29.4348C89.2754 30.6588 88.8355 31.9028 88.2676 32.976C87.7748 33.8967 87.1419 34.7522 86.4649 35.5458C85.5547 36.6062 84.529 37.5867 83.4601 38.4856C79.9935 41.3904 75.9316 43.5877 71.6118 44.9231C67.4939 46.191 63.1029 46.7102 58.817 46.1638C57.2314 45.9592 55.6321 45.5981 54.0949 45.1612C52.3951 44.6968 49.5413 43.6583 47.8515 43.1237C47.299 42.9488 46.6984 42.784 46.1293 42.6696C45.5427 42.5521 44.9338 42.4803 44.337 42.4404C43.9874 42.421 42.9639 42.3644 42.6313 42.3398" fill="white"/>
<path d="M42.0715 42.0971C41.9572 41.9261 41.8551 41.7288 41.8634 41.5175C41.8685 41.4002 41.9135 41.2875 41.9793 41.191C42.155 40.9394 42.4342 40.7834 42.7113 40.6658C43.3884 40.3951 44.3227 40.2185 45.0263 40.0202C45.9567 39.771 46.8835 39.4546 47.7465 39.0237C48.5295 38.6378 49.2678 38.1415 49.958 37.6088C51.9781 36.0619 54.6296 33.2596 56.4795 31.4742C58.2403 29.7837 60.0983 28.102 62.1808 26.8175C64.0094 25.6882 66.0333 24.8649 68.1231 24.3661C72.1404 23.4051 76.3632 23.593 80.3967 24.3655C82.2183 24.7292 84.0497 25.2207 85.7247 26.0368C86.6032 26.4726 87.4574 27.0073 88.1207 27.7389C88.5545 28.2184 88.8933 28.7979 89.0255 29.4348C89.2754 30.6588 88.8355 31.9028 88.2676 32.976C87.7748 33.8967 87.1419 34.7522 86.4649 35.5458C85.5547 36.6062 84.529 37.5867 83.4601 38.4856C79.9935 41.3904 75.9316 43.5877 71.6118 44.9231C67.4939 46.191 63.1029 46.7102 58.817 46.1638C57.2314 45.9592 55.6321 45.5981 54.0949 45.1612C52.3951 44.6968 49.5413 43.6583 47.8515 43.1237C47.299 42.9488 46.6984 42.784 46.1293 42.6696C45.5427 42.5521 44.9338 42.4803 44.337 42.4404C43.9874 42.421 42.9639 42.3644 42.6313 42.3398" stroke="#303030" stroke-miterlimit="10" stroke-linecap="round" stroke-linejoin="round"/>
<path d="M41.5134 43.7566C41.1874 44.0606 40.8962 44.4334 40.5624 44.7295C40.2788 44.9819 39.9641 45.235 39.7401 45.5379C39.5654 45.7674 39.4312 46.0286 39.344 46.3032C39.2466 46.6077 39.2033 46.9309 39.1795 47.2487C39.0802 48.7684 39.4001 51.5183 39.4534 53.0604C39.5387 54.9258 39.5136 56.8305 39.2579 58.682C39.0557 60.1568 38.7055 61.6323 38.1888 63.0288C37.4256 65.0849 36.3273 67.0255 35.0633 68.8134C33.9278 70.4097 32.6274 71.9209 31.1963 73.2592C30.1653 74.2157 29.0466 75.1145 27.8282 75.8209C27.1645 76.2024 26.4588 76.537 25.7172 76.735C25.1963 76.8724 24.6467 76.9431 24.111 76.86L24.0627 76.852L24.0151 76.8431L23.9678 76.8335L23.9209 76.8232L23.8741 76.8119L23.8279 76.7997L23.7821 76.7868L23.7366 76.7731L23.6918 76.7586L23.6471 76.743L23.6031 76.7265L23.5594 76.7093L23.516 76.6914L23.4733 76.6725L23.4312 76.6528L23.3895 76.6323L23.3484 76.6109L23.3077 76.5888L23.2673 76.566L23.2273 76.542L23.1877 76.5172L23.1484 76.4918L23.1098 76.4654L23.0715 76.4383L23.0336 76.4105L22.9963 76.3818L22.9594 76.3524L22.9228 76.3222L22.8865 76.2914L22.8509 76.2596L22.8155 76.2268C22.3552 75.7918 22.0514 75.2179 21.8321 74.63C21.4759 73.6558 21.326 72.6133 21.2529 71.5825C21.1153 69.4098 21.3277 67.21 21.6893 65.0676C22.0957 62.7209 22.7106 60.3877 23.542 58.1554C24.5727 55.3864 26.0199 52.7518 27.8968 50.4647C29.0631 49.0461 30.3979 47.7451 31.8982 46.6822C32.7253 46.1006 33.6134 45.579 34.5589 45.2143C35.3292 44.9051 36.2805 44.7116 37.0545 44.413C37.3171 44.3104 37.5754 44.1862 37.8155 44.0379C38.1213 43.8484 38.4104 43.6191 38.6853 43.388C39.0866 43.0555 39.6052 42.5551 40.0523 42.296C40.1545 42.2388 40.2632 42.1885 40.3786 42.1653C40.4776 42.1451 40.5804 42.1457 40.6795 42.1632C40.8459 42.1916 41.0175 42.2691 41.1786 42.3185" fill="white"/>
<path d="M41.5134 43.7566C41.1874 44.0606 40.8962 44.4334 40.5624 44.7295C40.2788 44.9819 39.9641 45.235 39.7401 45.5379C39.5654 45.7674 39.4312 46.0286 39.344 46.3032C39.2466 46.6077 39.2033 46.9309 39.1795 47.2487C39.0802 48.7684 39.4001 51.5183 39.4534 53.0604C39.5387 54.9258 39.5136 56.8305 39.2579 58.682C39.0557 60.1568 38.7055 61.6323 38.1888 63.0288C37.4256 65.0849 36.3273 67.0255 35.0633 68.8134C33.9278 70.4097 32.6274 71.9209 31.1963 73.2592C30.1653 74.2157 29.0466 75.1145 27.8282 75.8209C27.1645 76.2024 26.4588 76.537 25.7172 76.735C25.1963 76.8724 24.6467 76.9431 24.111 76.86L24.0627 76.852L24.0151 76.8431L23.9678 76.8335L23.9209 76.8232L23.8741 76.8119L23.8279 76.7997L23.7821 76.7868L23.7366 76.7731L23.6918 76.7586L23.6471 76.743L23.6031 76.7265L23.5594 76.7093L23.516 76.6914L23.4733 76.6725L23.4312 76.6528L23.3895 76.6323L23.3484 76.6109L23.3077 76.5888L23.2673 76.566L23.2273 76.542L23.1877 76.5172L23.1484 76.4918L23.1098 76.4654L23.0715 76.4383L23.0336 76.4105L22.9963 76.3818L22.9594 76.3524L22.9228 76.3222L22.8865 76.2914L22.8509 76.2596L22.8155 76.2268C22.3552 75.7918 22.0514 75.2179 21.8321 74.63C21.4759 73.6558 21.326 72.6133 21.2529 71.5825C21.1153 69.4098 21.3277 67.21 21.6893 65.0676C22.0957 62.7209 22.7106 60.3877 23.542 58.1554C24.5727 55.3864 26.0199 52.7518 27.8968 50.4647C29.0631 49.0461 30.3979 47.7451 31.8982 46.6822C32.7253 46.1006 33.6134 45.579 34.5589 45.2143C35.3292 44.9051 36.2805 44.7116 37.0545 44.413C37.3171 44.3104 37.5754 44.1862 37.8155 44.0379C38.1213 43.8484 38.4104 43.6191 38.6853 43.388C39.0866 43.0555 39.6052 42.5551 40.0523 42.296C40.1545 42.2388 40.2632 42.1885 40.3786 42.1653C40.4776 42.1451 40.5804 42.1457 40.6795 42.1632C40.8459 42.1916 41.0175 42.2691 41.1786 42.3185" stroke="#303030" stroke-miterlimit="10" stroke-linecap="round" stroke-linejoin="round"/>
<path d="M41.9335 41.2675C41.7212 41.2355 41.4819 41.2343 41.2977 41.1107C41.2122 41.0535 41.1562 40.9642 41.1244 40.8682C41.0967 40.7886 41.0814 40.7019 41.0707 40.6184C41.0353 40.3423 41.0405 39.8953 41.0245 39.6113C41.0023 39.1081 40.9173 38.6018 40.711 38.1392C40.3322 37.2574 39.5512 36.292 38.9978 35.5022C38.3776 34.6312 37.7913 33.7116 37.3678 32.7279C36.7794 31.3708 36.4797 29.8963 36.3241 28.4307C36.0659 25.8734 36.2408 23.2754 36.6757 20.7466C37.0541 18.5821 37.6403 16.4379 38.444 14.3925C39.0889 12.7633 39.877 11.1682 40.8467 9.70666C41.4284 8.83473 42.085 7.99292 42.8425 7.26641C43.352 6.78049 43.916 6.33834 44.5455 6.01821C45.1345 5.71853 45.7984 5.53255 46.4633 5.58422C46.923 5.61808 47.3697 5.76585 47.7756 5.9809C48.3921 6.30845 48.9258 6.77822 49.3948 7.29118C50.0344 7.99441 50.5709 8.80008 51.0383 9.62604C51.7747 10.937 52.3562 12.346 52.8228 13.7742C53.4106 15.593 53.823 17.4893 53.9973 19.3931C54.3522 23.1577 53.7387 27.1096 51.7279 30.3586C49.9592 33.2572 46.9878 35.6086 44.4564 37.8282C43.9089 38.3322 43.3363 38.8498 42.9666 39.504C42.7303 39.9131 42.5887 40.3974 42.3919 40.8251" fill="white"/>
<path d="M41.9335 41.2675C41.7212 41.2355 41.4819 41.2343 41.2977 41.1107C41.2122 41.0535 41.1562 40.9642 41.1244 40.8682C41.0967 40.7886 41.0814 40.7019 41.0707 40.6184C41.0353 40.3423 41.0406 39.8953 41.0245 39.6113C41.0023 39.1081 40.9173 38.6018 40.711 38.1392C40.3322 37.2574 39.5512 36.292 38.9978 35.5022C38.3776 34.6312 37.7913 33.7116 37.3678 32.7279C36.7794 31.3708 36.4797 29.8963 36.3241 28.4307C36.0659 25.8734 36.2408 23.2754 36.6757 20.7466C37.0541 18.5821 37.6403 16.4379 38.444 14.3925C39.0889 12.7633 39.877 11.1682 40.8467 9.70666C41.4284 8.83473 42.085 7.99292 42.8425 7.26641C43.352 6.78049 43.916 6.33834 44.5455 6.01821C45.1345 5.71853 45.7984 5.53255 46.4633 5.58422C46.923 5.61808 47.3697 5.76585 47.7756 5.9809C48.3921 6.30845 48.9258 6.77822 49.3948 7.29118C50.0344 7.99441 50.5709 8.80008 51.0383 9.62604C51.7747 10.937 52.3562 12.346 52.8228 13.7742C53.4106 15.593 53.823 17.4893 53.9973 19.3931C54.3522 23.1577 53.7387 27.1096 51.7279 30.3586C49.9592 33.2572 46.9878 35.6086 44.4564 37.8282C43.9089 38.3322 43.3363 38.8498 42.9666 39.504C42.7303 39.9131 42.5887 40.3974 42.3919 40.8251" stroke="#303030" stroke-miterlimit="10" stroke-linecap="round" stroke-linejoin="round"/>
<path d="M40.5686 42.151C40.7261 42.1239 40.88 42.0693 41.0173 41.9868C41.1158 41.9265 41.2083 41.849 41.2667 41.7479C41.3794 41.547 41.336 41.3028 41.2735 41.0925" fill="white"/>
<path d="M40.5686 42.151C40.7261 42.1239 40.88 42.0693 41.0173 41.9868C41.1158 41.9265 41.2083 41.849 41.2667 41.7479C41.3794 41.547 41.336 41.3028 41.2735 41.0925" stroke="#303030" stroke-miterlimit="10" stroke-linecap="round" stroke-linejoin="round"/>
<path d="M39.929 42.3714C39.5277 42.2689 39.0926 42.1394 38.6857 42.1048C38.375 42.0739 38.0572 42.0901 37.7472 42.1258C36.5487 42.279 35.116 42.6174 33.9144 42.7351C32.4206 42.8995 30.8847 42.8992 29.3858 42.8051C26.0076 42.5813 22.64 41.8748 19.4598 40.7127C14.5458 38.8838 9.99607 36.0526 6.10359 32.5468C5.18142 31.7028 4.26107 30.8001 3.46418 29.836C2.96778 29.2304 2.50024 28.5847 2.15815 27.8779C1.6957 26.9197 1.4992 25.835 2.22275 24.9448C2.67272 24.3913 3.30511 24.0197 3.94392 23.7224C5.50268 23.0249 7.21221 22.7102 8.8985 22.5047C10.855 22.2789 12.874 22.2486 14.8399 22.3657C18.4279 22.5816 22.005 23.38 25.2827 24.8713C28.7019 26.4175 31.792 28.7286 34.1612 31.6459C35.1505 32.8572 36.0498 34.1913 36.8589 35.5295C37.5816 36.6907 38.4365 38.3558 39.1069 39.5548C39.2166 39.7529 39.3625 40.001 39.4978 40.1869C39.5723 40.2871 39.6557 40.3832 39.7571 40.4568C39.8172 40.5003 39.884 40.5352 39.954 40.56C39.9926 40.574 40.035 40.586 40.075 40.5948L40.091 40.5983L40.1073 40.6016L40.1302 40.606L40.1537 40.61C40.2193 40.6209 40.3512 40.6389 40.4168 40.6503C40.6706 40.6918 40.9164 40.7816 41.1397 40.9093" fill="white"/>
<path d="M39.929 42.3714C39.5277 42.2689 39.0926 42.1394 38.6857 42.1048C38.375 42.0739 38.0572 42.0901 37.7472 42.1258C36.5487 42.279 35.116 42.6174 33.9144 42.7351C32.4206 42.8995 30.8847 42.8992 29.3858 42.8051C26.0076 42.5813 22.64 41.8748 19.4598 40.7127C14.5458 38.8838 9.99607 36.0526 6.10359 32.5468C5.18142 31.7028 4.26107 30.8001 3.46418 29.836C2.96778 29.2304 2.50024 28.5847 2.15815 27.8779C1.6957 26.9197 1.4992 25.835 2.22275 24.9448C2.67272 24.3913 3.30512 24.0197 3.94392 23.7224C5.50268 23.0249 7.21221 22.7102 8.8985 22.5047C10.855 22.2789 12.874 22.2486 14.8399 22.3657C18.4279 22.5816 22.005 23.38 25.2827 24.8713C28.7019 26.4175 31.792 28.7286 34.1612 31.6459C35.1505 32.8572 36.0498 34.1913 36.8589 35.5295C37.5816 36.6907 38.4365 38.3558 39.1069 39.5548C39.2166 39.7529 39.3625 40.001 39.4978 40.1869C39.5723 40.2871 39.6557 40.3832 39.7571 40.4568C39.8172 40.5003 39.884 40.5352 39.954 40.56C39.9926 40.574 40.035 40.586 40.075 40.5948L40.091 40.5983L40.1073 40.6016L40.1302 40.606L40.1537 40.61C40.2193 40.6209 40.3512 40.6389 40.4168 40.6503C40.6706 40.6918 40.9164 40.7816 41.1397 40.9093" stroke="#303030" stroke-miterlimit="10" stroke-linecap="round" stroke-linejoin="round"/>
<path d="M41.1396 40.9096C41.1003 40.8152 41.082 40.7117 41.0692 40.6106C41.0414 40.4017 41.0392 39.9942 41.0309 39.7745C41.0149 39.2613 40.9547 38.7407 40.7605 38.2618C40.6005 37.8568 40.3756 37.4749 40.1374 37.1112C39.598 36.2917 38.8272 35.3203 38.3111 34.4894C37.7316 33.5792 37.251 32.597 36.9373 31.5632C36.3784 29.735 36.2001 27.7995 36.2033 25.894C36.2251 22.6997 36.7661 19.5062 37.715 16.4587C38.3244 14.522 39.1198 12.6221 40.1331 10.8607C40.8537 9.61678 41.6879 8.41471 42.7086 7.39703C43.2901 6.82334 43.9407 6.30178 44.6828 5.95167C45.1646 5.72601 45.6913 5.57798 46.2255 5.57634C47.4917 5.56985 48.576 6.39525 49.3942 7.29163C50.2271 8.21108 50.8847 9.28675 51.444 10.3901C52.1995 11.8921 52.7817 13.5007 53.2217 15.123C54.5181 19.9158 54.5305 25.3066 52.086 29.7426C50.3388 32.962 47.1714 35.4474 44.4552 37.8286C43.9078 38.3325 43.3352 38.8502 42.9654 39.5044C42.7292 39.9135 42.5876 40.3978 42.3908 40.8255C42.7729 40.6005 43.2156 40.4889 43.6407 40.3736C44.3819 40.1857 45.3031 39.966 46.0214 39.7256C46.6872 39.5062 47.3484 39.2368 47.9687 38.9108C48.7407 38.5073 49.4691 37.9968 50.1523 37.4578C52.0628 35.96 54.7127 33.1843 56.4793 31.4752C58.2401 29.7848 60.0981 28.103 62.1806 26.8186C64.0092 25.6893 66.0331 24.8659 68.1229 24.3671C72.1402 23.4061 76.363 23.5941 80.3965 24.3666C82.218 24.7303 84.0495 25.2217 85.7246 26.0379C86.603 26.4737 87.4572 27.0084 88.1205 27.7399C88.5543 28.2194 88.893 28.7989 89.0253 29.4359C89.2751 30.6598 88.8353 31.9039 88.2674 32.977C87.7746 33.8978 87.1417 34.7532 86.4647 35.5469C85.5545 36.6072 84.5288 37.5878 83.4599 38.4866C79.9933 41.3914 75.9314 43.5888 71.6116 44.9241C67.4937 46.192 63.1027 46.7113 58.8168 46.1649C57.2312 45.9602 55.6319 45.5992 54.0947 45.1622C52.3949 44.6979 49.5411 43.6593 47.8513 43.1247C47.2988 42.9498 46.6982 42.785 46.1291 42.6707C45.5425 42.5531 44.9336 42.4814 44.3368 42.4414C43.9872 42.4221 42.9637 42.3655 42.6311 42.3409C42.705 42.3886 42.7889 42.4489 42.8598 42.5015L43.355 42.8781C43.5615 43.0323 43.7775 43.1749 44.003 43.2983C44.2202 43.4156 44.4576 43.5201 44.6891 43.6079C45.9573 44.0704 47.5489 44.4071 48.8334 44.828C49.9467 45.1844 51.0513 45.624 52.0799 46.1806C53.0504 46.7021 53.9766 47.345 54.8351 48.0348C57.3324 50.0609 59.43 52.5615 61.21 55.2303C63.6782 58.9747 65.5891 63.147 66.4777 67.5566C66.7861 69.1143 66.9743 70.7141 66.944 72.3039C66.9187 73.3576 66.8036 74.4271 66.4792 75.4335C66.1601 76.4252 65.5778 77.4239 64.5975 77.8741C62.8741 78.6609 60.4847 77.7247 58.8954 76.9313C57.1517 76.0497 55.5195 74.9098 54.0035 73.6812C51.9404 71.9951 50.0427 70.0651 48.455 67.9238C46.5105 65.3069 45.0087 62.3338 44.2068 59.1671C43.7562 57.4167 43.5512 55.5766 43.4228 53.7759C43.3237 52.2773 43.2144 49.6034 43.0275 48.1481C42.9441 47.4858 42.8293 46.8125 42.6467 46.1696C42.4116 45.3032 41.9776 44.5178 41.5128 43.7558C41.1868 44.0597 40.8955 44.4326 40.5618 44.7287C40.2781 44.981 39.9635 45.2342 39.7394 45.5371C39.5648 45.7666 39.4306 46.0278 39.3434 46.3024C39.2459 46.6069 39.2027 46.9301 39.1788 47.2478C39.0796 48.7675 39.3994 51.5175 39.4527 53.0596C39.538 54.9249 39.5129 56.8297 39.2572 58.6812C39.055 60.156 38.7048 61.6315 38.1881 63.028C37.425 65.0841 36.3266 67.0246 35.0626 68.8125C33.9271 70.4089 32.6268 71.92 31.1957 73.2584C30.1646 74.2149 29.0459 75.1136 27.8275 75.82C27.1639 76.2015 26.4581 76.5362 25.7166 76.7342C25.1956 76.8716 24.646 76.9423 24.1103 76.8591L24.062 76.8512L24.0144 76.8423L23.9671 76.8327L23.9202 76.8224L23.8734 76.8111L23.8272 76.7989L23.7814 76.7859L23.736 76.7723L23.6911 76.7577L23.6464 76.7422L23.6024 76.7257L23.5587 76.7085L23.5153 76.6905L23.4726 76.6717L23.4306 76.652L23.3888 76.6315L23.3477 76.6101L23.307 76.588L23.2666 76.5652L23.2266 76.5411L23.187 76.5164L23.1478 76.4909L23.1091 76.4646L23.0708 76.4375L23.0329 76.4097L22.9956 76.381L22.9587 76.3515L22.9221 76.3214L22.8859 76.2905L22.8503 76.2588L22.8148 76.226C22.4844 75.9151 22.2334 75.5268 22.0382 75.1194C21.774 74.5667 21.6037 73.9665 21.4817 73.3672C21.2562 72.2365 21.1984 71.0624 21.2117 69.9112C21.2393 68.1633 21.4462 66.3967 21.7578 64.6772C22.3201 61.6483 23.1994 58.6486 24.5094 55.8554C25.4539 53.8574 26.642 51.9579 28.0627 50.2637C29.6153 48.4274 31.4431 46.768 33.586 45.6505C33.9802 45.4483 34.4023 45.2643 34.8203 45.1166C35.2438 44.9604 35.9317 44.7744 36.3617 44.6462C36.9187 44.4823 37.4772 44.2729 37.9599 43.9443C38.6329 43.5006 39.2634 42.823 39.9288 42.3704C39.5275 42.2679 39.0924 42.1384 38.6855 42.1038C38.3748 42.0728 38.0571 42.0891 37.747 42.1248C36.5486 42.2779 35.1158 42.6164 33.9142 42.7341C32.4205 42.8985 30.8845 42.8982 29.3856 42.8041C26.0074 42.5803 22.6399 41.8738 19.4596 40.7117C14.5456 38.8828 9.99591 36.0516 6.10343 32.5457C5.18126 31.7018 4.26089 30.7991 3.464 29.835C2.96761 29.2294 2.50007 28.5837 2.15799 27.8769C1.69554 26.9187 1.49902 25.834 2.22257 24.9438C2.67254 24.3903 3.30493 24.0187 3.94374 23.7214C5.5025 23.0239 7.21203 22.7092 8.89832 22.5036C10.8548 22.2779 12.8738 22.2476 14.8397 22.3647C18.4277 22.5806 22.0049 23.3789 25.2825 24.8703C28.7018 26.4165 31.7919 28.7276 34.1611 31.6449C35.1503 32.8562 36.0496 34.1903 36.8587 35.5285C37.5814 36.6897 38.4363 38.3548 39.1067 39.5538C39.2165 39.7519 39.3624 40 39.4976 40.1858C39.5721 40.2861 39.6555 40.3822 39.757 40.4558C39.817 40.4993 39.8838 40.5341 39.9538 40.559C39.9924 40.573 40.0348 40.5849 40.0749 40.5938L40.0908 40.5973L40.1071 40.6005L40.13 40.605L40.1535 40.609C40.2191 40.6199 40.3511 40.6379 40.4166 40.6493C40.6705 40.6921 40.9163 40.7819 41.1396 40.9096Z" fill="white" stroke="#303030" stroke-miterlimit="10" stroke-linecap="round" stroke-linejoin="round"/>
<path d="M54.4258 35.3117C55.1376 36.7693 54.7414 38.7029 53.655 40.5601C52.5778 42.4015 50.902 44.021 49.3228 44.7921C46.2062 46.314 42.446 45.0211 40.9242 41.9045C39.4024 38.7879 40.6952 35.0277 43.8118 33.5059C45.391 32.7348 47.6986 32.4092 49.8131 32.6921C51.9457 32.9775 53.7141 33.8541 54.4258 35.3117Z" fill="white" stroke="#303030"/>
</svg>
