<svg width="27" height="24" viewBox="0 0 27 24" fill="none" xmlns="http://www.w3.org/2000/svg">
<path d="M18.5211 11.0121C17.126 12.7544 14.7634 13.0786 13.2559 11.8715C11.7138 10.6367 11.2608 7.97085 12.5724 6.27566C13.9655 5.1962 14.6847 4.33897 15.3182 3.58381C15.3674 3.52515 15.4161 3.4671 15.4646 3.40961C16.0701 2.69126 16.6414 2.0544 17.7748 1.32854C18.0724 1.64222 18.3932 2.10555 18.6918 2.69148C19.0728 3.43893 19.3996 4.35089 19.5904 5.32639C19.9745 7.28978 19.7941 9.42242 18.5211 11.0121Z" fill="#ECEDF1" stroke="#303030"/>
<path d="M17.4938 8.8816C15.2727 9.10179 13.7132 10.906 13.9037 12.8278C14.0986 14.7937 16.0868 16.6264 18.2229 16.4506C19.8872 15.8709 20.9979 15.7351 21.9763 15.6155C22.0523 15.6062 22.1275 15.597 22.2022 15.5877C23.1345 15.4716 23.9798 15.3396 25.2061 14.785C25.1053 14.3645 24.8917 13.843 24.5631 13.2733C24.1441 12.5465 23.5576 11.7755 22.8437 11.0838C21.4068 9.69176 19.5204 8.6807 17.4938 8.8816Z" fill="#ECEDF1" stroke="#303030"/>
<path d="M11.0316 7.40275C13.0004 8.45415 13.7531 10.717 12.8434 12.4206C11.9045 14.1788 9.32989 15.1149 7.4171 14.0934C5.39463 13.0134 3.55373 11.4449 1.50696 9.0003C1.75303 8.68032 2.1438 8.33385 2.66865 8.00139C3.33708 7.57798 4.18438 7.20203 5.12452 6.94679C7.01287 6.43412 9.20274 6.42614 11.0316 7.40275Z" fill="#ECEDF1" stroke="#303030"/>
<path d="M18.1556 11.6896C16.5399 10.8827 14.5535 11.5546 13.7259 13.2119C13.3102 14.0443 13.2245 15.0688 13.4582 15.9911C13.6918 16.9128 14.2291 17.6815 15.0046 18.0688C15.9362 18.534 17.2246 19.1245 18.3798 19.3724C18.9586 19.4967 19.4599 19.5247 19.8482 19.4383C20.2153 19.3566 20.4714 19.1777 20.6303 18.8597C21.0422 18.0349 21.2174 16.6231 20.8716 15.2055C20.53 13.8053 19.6953 12.4585 18.1556 11.6896Z" fill="white" stroke="#303030"/>
<path d="M18.7036 13.2452C16.6257 13.9053 14.6911 13.0351 14.2254 11.5695C13.9876 10.8207 14.1203 9.90261 14.5916 9.07211C15.0601 8.2465 15.8411 7.54958 16.8309 7.2351C17.95 6.87958 19.5002 6.4315 20.8295 6.2912C21.4979 6.22066 22.0654 6.23343 22.48 6.34705C22.881 6.45697 23.0728 6.63787 23.1491 6.8782C23.3843 7.61826 23.2584 8.89885 22.548 10.1775C21.8497 11.4343 20.6106 12.6393 18.7036 13.2452Z" fill="white" stroke="#303030"/>
<path d="M14.5464 11.9338C15.6191 11.9338 17.8994 11.6943 18.4383 10.7363" stroke="#303030" stroke-linecap="round"/>
<path d="M17.0022 14.7085C16.1719 13.1048 14.171 12.4776 12.5259 13.3293C11.673 13.7709 11.0595 14.3883 10.6776 15.2033C10.2921 16.026 10.1266 17.085 10.2358 18.428C10.3422 19.7373 10.8692 21.0318 11.5656 21.8675C12.2736 22.7172 13.0071 22.9546 13.6375 22.6282C14.4704 22.197 15.7369 20.9748 16.5791 19.4341C17.4198 17.8962 17.7648 16.1815 17.0022 14.7085Z" fill="white" stroke="#303030"/>
<path d="M14.0972 12.9817C14.5462 13.9547 15.3096 16.2151 14.7708 17.4724" stroke="#303030" stroke-linecap="round"/>
<path d="M13.736 13.5089C13.277 12.6223 12.746 11.9488 12.1188 11.5401C11.5072 11.1416 10.7667 10.9701 9.81982 11.1506C8.93472 11.3194 7.83756 12.1475 6.97179 13.3451C6.11355 14.5322 5.57304 15.9598 5.67408 17.2026C5.78867 18.612 5.98697 19.6908 6.33281 20.295C6.497 20.5819 6.66106 20.7026 6.81322 20.7443C6.97035 20.7873 7.22582 20.7766 7.63401 20.5652C8.57214 20.0795 10.5391 19.0136 12.0507 17.6691C12.8078 16.9956 13.4168 16.2814 13.7385 15.5667C14.0518 14.8708 14.0889 14.1905 13.736 13.5089Z" fill="white" stroke="#303030"/>
<path d="M15.0627 7.49861C15.571 9.28469 14.6492 11.0294 13.121 11.4643C11.5331 11.9161 9.49043 10.9165 8.99961 9.19153C8.71448 8.18948 8.36625 6.81028 8.30722 5.63109C8.27757 5.03889 8.32392 4.5429 8.45655 4.18336C8.58231 3.84245 8.76954 3.65682 9.0383 3.58035C9.80556 3.36203 11.0744 3.47923 12.2907 4.10951C13.4879 4.72991 14.5862 5.82393 15.0627 7.49861Z" fill="white" stroke="#303030"/>
<path d="M13.4985 11.0356C13.4735 10.4868 13.2291 9.17951 12.4507 8.34131" stroke="#303030" stroke-linecap="round"/>
<path d="M12.6752 12.3828C11.5774 12.6074 9.30719 13.4158 9.00781 14.8528" stroke="#303030" stroke-linecap="round"/>
</svg>
