<svg width="71" height="70" viewBox="0 0 71 70" fill="none" xmlns="http://www.w3.org/2000/svg">
<path d="M60.866 37.7652C60.866 51.6982 49.6712 62.9856 35.871 62.9856C22.0708 62.9856 10.876 51.6982 10.876 37.7652C10.876 23.8321 22.0708 12.5447 35.871 12.5447C49.6712 12.5447 60.866 23.8321 60.866 37.7652Z" fill="white" stroke="#303030"/>
<path d="M36.2539 36.6833C43.1557 34.286 61.7002 29.1189 70.0322 38.4527C67.5733 42.5677 50.4923 44.4653 36.2539 36.6833Z" fill="#ECEDF1" stroke="#303030"/>
<path d="M35.876 39.0623C42.095 40.3819 57.9518 44.8079 57.2696 54.8502C52.8698 56.6332 40.1812 50.5791 35.876 39.0623Z" fill="#ECEDF1" stroke="#303030"/>
<path d="M42.941 5.42109C42.295 7.63547 41.902 9.7222 41.8227 11.521C42.5936 10.9413 43.3584 10.3402 44.1143 9.7214C45.3136 17.0122 43.8006 27.9922 35.543 37.8105C33.1259 29.6571 31.6259 5.8066 40.4631 1.92041C41.3833 2.52382 42.2501 3.73983 42.941 5.42109Z" fill="#ECEDF1" stroke="#303030"/>
<path d="M56.484 47.1006C55.1121 46.3453 53.7875 45.7695 52.6076 45.4368C52.8782 46.0139 53.164 46.5905 53.4627 47.1643C48.4556 46.7742 41.4033 44.0937 36.1123 37.3426C41.8699 37.1001 57.8934 39.9038 59.1689 46.0881C58.6336 46.5737 57.7001 46.9292 56.484 47.1006Z" fill="white" stroke="#303030"/>
<path d="M18.5119 12.4201C20.0251 13.5446 21.3445 14.6397 22.3841 15.6249C21.2871 15.5924 20.1803 15.5311 19.0709 15.4433C21.5698 25.2074 30.2701 33.2523 35.3321 36.9901C36.0022 24.7686 30.901 15.5727 25.8437 10.7427C25.623 11.6495 25.3855 12.548 25.1312 13.4339C24.5094 12.1114 23.8689 10.4762 23.2621 8.641C21.488 7.44419 19.8528 6.85757 18.6378 6.94595C18.3343 8.80669 18.3105 10.6362 18.5119 12.4201Z" fill="white" stroke="#303030"/>
<path d="M6.13421 34.0888C7.95212 33.4938 9.62292 33.0667 11.031 32.8277C10.2989 33.8838 9.53885 34.9267 8.75732 35.951C17.677 41.281 29.3115 39.1214 35.3749 37.1122C28.9109 29.3841 21.6437 26.1178 15.5145 25.4087C16.3674 26.8413 17.1843 28.3021 17.9529 29.7781C15.5458 29.0125 12.4017 27.5543 9.13236 25.6024C5.68235 26.2652 3.13006 27.8062 2.11865 29.5943C3.31538 31.3792 4.66918 32.8632 6.13421 34.0888Z" fill="#ECEDF1" stroke="#303030"/>
<path d="M61.6952 10.4265C59.3315 12.8434 57.3835 15.2044 56.0984 17.2359C57.5028 17.0694 58.9196 16.8339 60.3382 16.5384C57.6891 23.8665 50.8772 32.1191 35.9316 37.3527C38.1659 27.8544 44.5423 2.41528 60.5813 2.41528C61.4109 4.05959 61.992 6.9383 61.6952 10.4265Z" fill="white" stroke="#303030"/>
<path d="M44.1691 64.3082C43.132 61.8387 42.4175 59.5758 42.1309 57.8074C43.444 58.6545 44.7332 59.5742 45.9879 60.5472C47.8082 54.8039 46.4567 46.5647 35.4559 37.083C32.6833 43.9944 25.5973 62.6512 39.4875 68.6297C40.9343 67.9286 42.7341 66.4418 44.1691 64.3082Z" fill="white" stroke="#303030"/>
<path d="M48.9613 51.7544C48.0489 50.8239 47.2894 49.8902 46.7553 49.0171C47.2739 49.1024 47.7957 49.1999 48.3181 49.3086C46.8605 45.3699 43.1225 40.3113 36.5708 37.6045C37.701 42.2921 43.596 54.5388 48.7772 54.1451C49.038 53.6033 49.1047 52.7713 48.9613 51.7544Z" fill="white" stroke="#303030"/>
<path d="M35.7941 37.1152C28.6807 38.6839 10.0999 44.8561 11.4595 59.9436C15.5349 61.2725 32.2856 57.029 35.7941 37.1152Z" fill="#ECEDF1" stroke="#303030"/>
<path d="M35.7051 37.4047C41.4455 33.9757 53.3795 25.7463 59.9508 28.4895C59.271 32.8329 49.5274 38.5477 35.7051 37.4047Z" fill="white" stroke="#303030"/>
<path d="M35.5641 37.092C28.5396 37.092 9.95883 38.2351 4.29395 49.2079C7.54736 52.1341 24.0029 48.5131 35.5641 37.092Z" fill="white" stroke="#303030"/>
<path d="M35.3178 37.0176C32.963 34.0052 26.2526 26.4201 19.7301 27.6691C19.5878 30.0452 26.6298 35.8883 35.3178 37.0176Z" fill="white" stroke="#303030"/>
</svg>
