<svg width="29" height="26" viewBox="0 0 29 26" fill="none" xmlns="http://www.w3.org/2000/svg">
<circle cx="14.8728" cy="15.7747" r="9.43726" fill="white" stroke="#303030"/>
<circle cx="14.873" cy="15.7747" r="7" fill="#ECEDF1" stroke="#303030"/>
<path d="M8.33776 16.6026C5.57442 15.3111 2.63184 13.0809 2.63184 9.63596C2.63184 5.71241 5.8125 2.53174 9.73606 2.53174C13.0757 2.53174 15.2788 3.72022 16.637 7.9416C17.9951 12.163 19.1529 11.1904 19.0699 14.2636C18.9868 17.3368 16.234 18.6991 12.9062 18.6991C11.0796 18.6991 11.1011 17.8941 8.33776 16.6026Z" fill="white" stroke="#303030"/>
<path d="M26.1421 19.894C25.4679 22.5887 22.4764 24.1615 19.4605 23.4069C16.4445 22.6522 14.5462 19.856 15.2205 17.1613C15.8947 14.4666 18.8862 12.8938 21.9021 13.6485C24.9181 14.4031 26.8164 17.1993 26.1421 19.894Z" fill="white" stroke="#303030"/>
<path d="M23.7158 16.1397L26.5331 13.7385" stroke="#303030" stroke-linecap="round"/>
<path d="M16.9863 15.9644L14.6477 14.3527" stroke="#303030" stroke-linecap="round"/>
<path d="M12.2398 19.7832L13.0939 16.0504" stroke="#303030" stroke-linecap="round"/>
<path d="M20.7967 17.595L21.6091 16.0502" stroke="#303030" stroke-linecap="round"/>
<path d="M19.7729 11.3524L20.2621 14.5916" stroke="#303030" stroke-linecap="round"/>
<path d="M14.7129 21.8859L17.5256 20.4607" stroke="#303030" stroke-linecap="round"/>
<path d="M22.2367 24.773L21.3301 21.7058" stroke="#303030" stroke-linecap="round"/>
<path d="M27.7671 19.649L24.6172 19.0942" stroke="#303030" stroke-linecap="round"/>
<path d="M9.05458 1.69004C10.0443 2.58429 9.43796 3.62077 8.62171 4.52417C5.01661 6.57635 3.66301 3.57536 3.51807 2.29066C5.40334 0.718157 7.64014 0.412044 9.05458 1.69004Z" fill="white" stroke="#303030"/>
<path d="M8.6035 2.73634C7.5069 3.49572 7.17983 4.92276 7.87298 5.92373C8.56613 6.92471 9.71632 7.26741 11.2714 6.55413C12.8264 5.84086 13.2756 5.18055 14.2984 3.71723C13.6052 2.71626 10.5962 1.35642 8.6035 2.73634Z" fill="white" stroke="#303030"/>
<path d="M10.7583 5.05879C9.81415 4.11654 8.35156 4.05132 7.49149 4.91312C6.63143 5.77491 6.50106 6.96796 7.48225 8.36947C8.46343 9.77098 9.19374 10.0942 10.8171 10.8372C11.6771 9.97543 12.4739 6.77101 10.7583 5.05879Z" fill="white" stroke="#303030"/>
<path d="M4.30222 4.61432C5.22244 3.64872 6.68294 3.54688 7.56433 4.38685C8.44572 5.22682 8.60594 6.41623 7.66018 7.84188C6.71441 9.26754 5.99244 9.60894 4.38824 10.3924C3.50685 9.55244 2.63 6.369 4.30222 4.61432Z" fill="white" stroke="#303030"/>
<path d="M9.37992 3.64981C9.47877 4.22977 8.90149 4.81199 8.09053 4.95022C7.27956 5.08845 6.54201 4.73035 6.44315 4.15039C6.34429 3.57042 6.92157 2.9882 7.73254 2.84997C8.5435 2.71174 9.28106 3.06984 9.37992 3.64981Z" fill="white" stroke="#303030"/>
<path d="M0.619564 6.88028L3.0285 7.95444" stroke="#303030" stroke-linecap="round"/>
<path d="M2.90134 13.7387L6.84807 12.0101" stroke="#303030" stroke-linecap="round"/>
<path d="M6.99372 17.1914L9.67601 14.1786" stroke="#303030" stroke-linecap="round"/>
<path d="M16.9395 2.65965L14.6479 5.76729" stroke="#303030" stroke-linecap="round"/>
<path d="M20.0864 9.21193L15.7483 10.6154" stroke="#303030" stroke-linecap="round"/>
</svg>
