<svg width="38" height="27" viewBox="0 0 38 27" fill="none" xmlns="http://www.w3.org/2000/svg">
<circle cx="15.233" cy="10.1409" r="9.41608" fill="#ECEDF1" stroke="#303030"/>
<circle cx="15.2331" cy="10.1411" r="6.49335" fill="#ECEDF1" stroke="#303030"/>
<mask id="path-3-inside-1_570_32384" fill="white">
<path fill-rule="evenodd" clip-rule="evenodd" d="M7.84598 0.776781C8.06034 1.46061 8.23914 1.94881 8.23914 1.94881C8.23914 1.94881 8.66141 1.64921 9.20538 1.18328C11.2811 1.92783 13.0385 3.16197 13.8139 4.71108C15.5999 7.08511 15.3823 9.62768 13.3277 10.3901C11.2732 11.1525 8.79636 9.18819 6.72385 7.38687C6.521 7.21056 6.32616 7.01852 6.13897 6.81407C6.06407 6.41172 5.99934 6.15428 5.99934 6.15428C5.99934 6.15428 5.87996 6.19477 5.68104 6.2718C4.6022 4.89342 3.80328 3.1485 3.19659 1.82343C2.98136 1.35335 2.79032 0.936106 2.61956 0.606812C4.24944 0.268279 6.10426 0.354584 7.84598 0.776781Z"/>
</mask>
<path fill-rule="evenodd" clip-rule="evenodd" d="M7.84598 0.776781C8.06034 1.46061 8.23914 1.94881 8.23914 1.94881C8.23914 1.94881 8.66141 1.64921 9.20538 1.18328C11.2811 1.92783 13.0385 3.16197 13.8139 4.71108C15.5999 7.08511 15.3823 9.62768 13.3277 10.3901C11.2732 11.1525 8.79636 9.18819 6.72385 7.38687C6.521 7.21056 6.32616 7.01852 6.13897 6.81407C6.06407 6.41172 5.99934 6.15428 5.99934 6.15428C5.99934 6.15428 5.87996 6.19477 5.68104 6.2718C4.6022 4.89342 3.80328 3.1485 3.19659 1.82343C2.98136 1.35335 2.79032 0.936106 2.61956 0.606812C4.24944 0.268279 6.10426 0.354584 7.84598 0.776781Z" fill="white"/>
<path d="M8.23914 1.94881L7.21468 2.04492L7.77877 3.58507L9.02496 2.70089L8.23914 1.94881ZM7.84598 0.776781L8.88458 0.722267L8.68359 0.0810777L7.93043 -0.10149L7.84598 0.776781ZM9.20538 1.18328L9.43534 0.34865L8.78392 0.114995L8.36594 0.473012L9.20538 1.18328ZM13.8139 4.71108L12.8338 4.90978L12.878 4.99805L12.9402 5.08079L13.8139 4.71108ZM13.3277 10.3901L12.7348 9.53701L12.7348 9.53701L13.3277 10.3901ZM6.72385 7.38687L6.0346 7.95352L6.72385 7.38687ZM6.13897 6.81407L5.07508 6.76736L5.1258 7.03979L5.34157 7.27546L6.13897 6.81407ZM5.99934 6.15428L7.05186 6.14906L6.72603 4.8532L5.43109 5.29246L5.99934 6.15428ZM5.68104 6.2718L4.82139 6.65975L5.43868 7.44843L6.286 7.1203L5.68104 6.2718ZM3.19659 1.82343L2.20121 1.99018L2.20121 1.99018L3.19659 1.82343ZM2.61956 0.606812L2.16717 -0.28644L1.17951 -0.0812986L1.64628 0.818823L2.61956 0.606812ZM8.23914 1.94881C9.26361 1.8527 9.26361 1.85272 9.26362 1.85275C9.26363 1.85275 9.26363 1.85277 9.26364 1.85279C9.26365 1.85281 9.26365 1.85282 9.26366 1.85283C9.26366 1.85285 9.26366 1.85284 9.26364 1.85279C9.26361 1.85271 9.26354 1.85251 9.26342 1.85219C9.26319 1.85155 9.26279 1.85045 9.26222 1.84889C9.26108 1.84577 9.25929 1.84084 9.25687 1.83414C9.25204 1.82076 9.2447 1.80038 9.23515 1.77356C9.21604 1.71992 9.18807 1.64062 9.15348 1.54019C9.08422 1.33916 8.98872 1.05448 8.88458 0.722267L6.80738 0.831295C6.9176 1.18291 7.01868 1.48424 7.09241 1.69827C7.12931 1.80537 7.15945 1.89085 7.18056 1.95012C7.19112 1.97976 7.19943 2.00286 7.20521 2.01884C7.2081 2.02684 7.21036 2.03306 7.21195 2.03743C7.21274 2.03961 7.21337 2.04133 7.21383 2.04259C7.21406 2.04321 7.21424 2.04372 7.21438 2.04411C7.21445 2.0443 7.21451 2.04447 7.21456 2.0446C7.21459 2.04467 7.21461 2.04473 7.21463 2.04478C7.21464 2.04481 7.21465 2.04485 7.21466 2.04486C7.21467 2.04489 7.21468 2.04492 8.23914 1.94881ZM8.36594 0.473012C8.10581 0.695822 7.87485 0.878785 7.70976 1.00543C7.62732 1.06867 7.56162 1.11762 7.51727 1.15024C7.49511 1.16654 7.47831 1.17874 7.46745 1.18658C7.46202 1.19049 7.45808 1.19332 7.4557 1.19502C7.45452 1.19587 7.45372 1.19644 7.45332 1.19673C7.45312 1.19687 7.45302 1.19694 7.45302 1.19694C7.45302 1.19694 7.45305 1.19692 7.4531 1.19689C7.45312 1.19687 7.45315 1.19684 7.45319 1.19682C7.45321 1.1968 7.45325 1.19678 7.45326 1.19677C7.45329 1.19675 7.45333 1.19672 8.23914 1.94881C9.02496 2.70089 9.025 2.70086 9.02504 2.70084C9.02506 2.70082 9.0251 2.70079 9.02513 2.70077C9.0252 2.70073 9.02527 2.70067 9.02534 2.70062C9.0255 2.70051 9.02568 2.70038 9.02588 2.70024C9.02629 2.69994 9.02681 2.69958 9.02742 2.69914C9.02866 2.69826 9.03029 2.69709 9.03233 2.69564C9.0364 2.69272 9.04207 2.68866 9.04925 2.68347C9.06361 2.67311 9.08405 2.65826 9.10997 2.63919C9.1618 2.60107 9.23566 2.54601 9.32679 2.4761C9.50883 2.33646 9.76099 2.13666 10.0448 1.89354L8.36594 0.473012ZM8.97543 2.0179C10.8499 2.69026 12.2467 3.73683 12.8338 4.90978L14.7939 4.51237C13.8303 2.58712 11.7124 1.16539 9.43534 0.34865L8.97543 2.0179ZM12.9402 5.08079C14.5099 7.16716 14.0951 9.03224 12.7348 9.53701L13.9206 11.2431C16.6695 10.2231 16.69 7.00305 14.6875 4.34137L12.9402 5.08079ZM12.7348 9.53701C12.1354 9.75942 11.4286 9.63289 10.4705 9.1088C9.48795 8.5713 8.45392 7.72486 7.41309 6.82022L6.0346 7.95352C7.06629 8.8502 8.30691 9.88656 9.59451 10.5909C10.9066 11.3087 12.4654 11.7831 13.9206 11.2431L12.7348 9.53701ZM7.41309 6.82022C7.25379 6.68176 7.09477 6.52569 6.93637 6.35268L5.34157 7.27546C5.55755 7.51135 5.78821 7.73936 6.0346 7.95352L7.41309 6.82022ZM7.20285 6.86078C7.16337 6.64869 7.12642 6.47395 7.099 6.35088C7.08528 6.28929 7.07391 6.24051 7.06577 6.20631C7.0617 6.18921 7.05844 6.17574 7.05608 6.16613C7.05491 6.16132 7.05396 6.15747 7.05325 6.15462C7.0529 6.15319 7.0526 6.15201 7.05237 6.15109C7.05225 6.15062 7.05215 6.15022 7.05207 6.14988C7.05203 6.14971 7.05199 6.14956 7.05195 6.14942C7.05194 6.14935 7.05192 6.14929 7.0519 6.14923C7.0519 6.1492 7.05189 6.14915 7.05188 6.14914C7.05187 6.1491 7.05186 6.14906 5.99934 6.15428C4.94682 6.1595 4.94681 6.15946 4.9468 6.15942C4.9468 6.15941 4.94679 6.15937 4.94678 6.15935C4.94677 6.15931 4.94676 6.15926 4.94675 6.15923C4.94673 6.15915 4.94672 6.15909 4.94671 6.15905C4.94669 6.15896 4.94668 6.15893 4.94669 6.15897C4.94671 6.15904 4.94679 6.15936 4.94692 6.15991C4.9472 6.16103 4.94771 6.16311 4.94845 6.16612C4.94993 6.17216 4.95231 6.18195 4.95548 6.19527C4.96182 6.22191 4.97132 6.26264 4.98314 6.31571C5.00681 6.42195 5.03967 6.5771 5.07508 6.76736L7.20285 6.86078ZM5.99934 6.15428C5.43109 5.29246 5.43106 5.29247 5.43103 5.29248C5.43102 5.29248 5.43098 5.29249 5.43096 5.2925C5.43092 5.29252 5.43087 5.29253 5.43082 5.29255C5.43072 5.29258 5.43062 5.29262 5.4305 5.29265C5.43028 5.29273 5.43003 5.29282 5.42974 5.29291C5.42918 5.29311 5.42849 5.29334 5.4277 5.29361C5.4261 5.29416 5.42404 5.29486 5.42153 5.29573C5.4165 5.29746 5.40967 5.29982 5.4011 5.30282C5.38397 5.30881 5.35988 5.31733 5.32949 5.3283C5.26872 5.35024 5.18256 5.38207 5.07608 5.42331L6.286 7.1203C6.37844 7.08451 6.45143 7.05757 6.50008 7.04001C6.52439 7.03123 6.54259 7.0248 6.55406 7.0208C6.55979 7.01879 6.56383 7.01739 6.56612 7.01661C6.56726 7.01621 6.56796 7.01597 6.56821 7.01589C6.56833 7.01585 6.56834 7.01584 6.56824 7.01588C6.56819 7.01589 6.56811 7.01592 6.568 7.01596C6.56795 7.01598 6.56789 7.016 6.56782 7.01602C6.56778 7.01603 6.56775 7.01604 6.56771 7.01606C6.56769 7.01606 6.56766 7.01607 6.56765 7.01608C6.56762 7.01609 6.56759 7.0161 5.99934 6.15428ZM6.54068 5.88386C5.56014 4.63106 4.81059 3.00783 4.19196 1.65667L2.20121 1.99018C2.79597 3.28918 3.64427 5.15579 4.82139 6.65975L6.54068 5.88386ZM4.19196 1.65667C3.98048 1.19477 3.77788 0.751625 3.59285 0.3948L1.64628 0.818823C1.80276 1.12059 1.98224 1.51192 2.20121 1.99018L4.19196 1.65667ZM3.07195 1.50006C4.52131 1.19903 6.18948 1.27398 7.76153 1.65505L7.93043 -0.10149C6.01904 -0.564814 3.97756 -0.662467 2.16717 -0.28644L3.07195 1.50006Z" fill="#303030" mask="url(#path-3-inside-1_570_32384)"/>
<mask id="path-5-inside-2_570_32384" fill="white">
<path fill-rule="evenodd" clip-rule="evenodd" d="M3.58551 11.403C4.9769 11.5988 5.97191 11.699 5.97191 11.699C5.97191 11.699 5.58985 10.8755 4.94865 9.73146C5.97401 8.79293 7.22875 8.24033 8.71381 8.24036C14.1073 7.29057 19.0322 9.65841 19.7138 13.5291C19.7816 13.914 19.7946 14.284 19.7586 14.6402C17.7243 14.6179 16.0675 14.8395 16.0675 14.8395C16.0675 14.8395 16.8011 16.1974 17.9522 17.8115C16.4076 19.229 14.089 20.3633 11.818 21.3486C10.7636 21.408 10.059 21.5023 10.059 21.5023C10.059 21.5023 10.1562 21.6821 10.3352 21.9886C6.53161 23.6749 4.75857 25.0043 2.66536 26.8809C1.58304 24.0052 1.25322 20.4412 1.68175 17.2022C1.99288 17.1712 2.17062 17.1511 2.17062 17.1511C2.17062 17.1511 2.02498 16.9585 1.76476 16.6372C2.08338 14.6678 2.68984 12.8441 3.58551 11.403Z"/>
</mask>
<path fill-rule="evenodd" clip-rule="evenodd" d="M3.58551 11.403C4.9769 11.5988 5.97191 11.699 5.97191 11.699C5.97191 11.699 5.58985 10.8755 4.94865 9.73146C5.97401 8.79293 7.22875 8.24033 8.71381 8.24036C14.1073 7.29057 19.0322 9.65841 19.7138 13.5291C19.7816 13.914 19.7946 14.284 19.7586 14.6402C17.7243 14.6179 16.0675 14.8395 16.0675 14.8395C16.0675 14.8395 16.8011 16.1974 17.9522 17.8115C16.4076 19.229 14.089 20.3633 11.818 21.3486C10.7636 21.408 10.059 21.5023 10.059 21.5023C10.059 21.5023 10.1562 21.6821 10.3352 21.9886C6.53161 23.6749 4.75857 25.0043 2.66536 26.8809C1.58304 24.0052 1.25322 20.4412 1.68175 17.2022C1.99288 17.1712 2.17062 17.1511 2.17062 17.1511C2.17062 17.1511 2.02498 16.9585 1.76476 16.6372C2.08338 14.6678 2.68984 12.8441 3.58551 11.403Z" fill="white"/>
<path d="M5.97191 11.699L5.87167 12.694L7.61747 12.8699L6.87905 11.2782L5.97191 11.699ZM3.58551 11.403L3.7248 10.4128L3.07994 10.3221L2.73619 10.8752L3.58551 11.403ZM4.94865 9.73146L4.27347 8.99381L3.68879 9.52897L4.07633 10.2204L4.94865 9.73146ZM8.71381 8.24036L8.71379 9.24036L8.80118 9.24036L8.88724 9.2252L8.71381 8.24036ZM19.7138 13.5291L18.729 13.7025L18.729 13.7025L19.7138 13.5291ZM19.7586 14.6402L19.7476 15.6402L20.6619 15.6502L20.7536 14.7405L19.7586 14.6402ZM16.0675 14.8395L15.9349 13.8484L14.4993 14.0405L15.1877 15.3149L16.0675 14.8395ZM17.9522 17.8115L18.6283 18.5483L19.2796 17.9506L18.7664 17.2309L17.9522 17.8115ZM11.818 21.3486L11.8742 22.347L12.0523 22.337L12.216 22.266L11.818 21.3486ZM10.059 21.5023L9.92638 20.5111L8.49072 20.7032L9.17919 21.9776L10.059 21.5023ZM10.3352 21.9886L10.7405 22.9028L11.7626 22.4497L11.1987 21.4842L10.3352 21.9886ZM2.66536 26.8809L1.72945 27.2331L2.24438 28.6013L3.33288 27.6255L2.66536 26.8809ZM1.68175 17.2022L1.58254 16.2071L0.794288 16.2857L0.690386 17.0711L1.68175 17.2022ZM2.17062 17.1511L2.28312 18.1447L4.02664 17.9473L2.9682 16.5479L2.17062 17.1511ZM1.76476 16.6372L0.777594 16.4775L0.706162 16.919L0.987671 17.2666L1.76476 16.6372ZM5.97191 11.699C6.07215 10.704 6.07218 10.704 6.0722 10.704C6.0722 10.704 6.07221 10.704 6.07222 10.704C6.07222 10.704 6.07221 10.704 6.07219 10.704C6.07214 10.704 6.07203 10.704 6.07186 10.704C6.07152 10.704 6.07094 10.7039 6.07013 10.7038C6.06849 10.7037 6.06591 10.7034 6.06239 10.703C6.05536 10.7023 6.0446 10.7012 6.03025 10.6997C6.00156 10.6967 5.95854 10.6922 5.90236 10.6861C5.79 10.6739 5.62506 10.6556 5.41686 10.6312C5.0003 10.5824 4.41148 10.5094 3.7248 10.4128L3.44622 12.3933C4.15093 12.4924 4.75531 12.5674 5.1841 12.6176C5.39858 12.6427 5.56936 12.6617 5.68704 12.6745C5.74588 12.6808 5.79147 12.6857 5.82263 12.6889C5.83821 12.6905 5.85018 12.6918 5.8584 12.6926C5.86251 12.693 5.86569 12.6934 5.8679 12.6936C5.86901 12.6937 5.86988 12.6938 5.87051 12.6938C5.87082 12.6939 5.87108 12.6939 5.87127 12.6939C5.87137 12.6939 5.87145 12.6939 5.87152 12.6939C5.87155 12.694 5.87159 12.694 5.8716 12.694C5.87164 12.694 5.87167 12.694 5.97191 11.699ZM4.07633 10.2204C4.38848 10.7773 4.63734 11.2559 4.80756 11.5939C4.89261 11.7629 4.95787 11.8964 5.00141 11.9867C5.02317 12.0318 5.0395 12.0662 5.05014 12.0887C5.05546 12.1 5.05936 12.1083 5.06181 12.1135C5.06304 12.1161 5.0639 12.118 5.0644 12.119C5.06464 12.1196 5.0648 12.1199 5.06486 12.12C5.06489 12.1201 5.0649 12.1201 5.06489 12.1201C5.06488 12.1201 5.06487 12.12 5.06485 12.12C5.06484 12.12 5.06482 12.1199 5.06482 12.1199C5.0648 12.1199 5.06478 12.1198 5.97191 11.699C6.87905 11.2782 6.87902 11.2781 6.879 11.2781C6.87899 11.278 6.87896 11.278 6.87894 11.2779C6.8789 11.2778 6.87885 11.2777 6.87879 11.2776C6.87869 11.2774 6.87856 11.2771 6.8784 11.2768C6.87809 11.2761 6.87769 11.2752 6.8772 11.2742C6.87621 11.2721 6.87485 11.2691 6.87312 11.2654C6.86966 11.2581 6.86472 11.2476 6.85835 11.2341C6.84559 11.2071 6.82706 11.1681 6.80299 11.1182C6.75485 11.0183 6.68452 10.8745 6.5939 10.6945C6.4128 10.3348 6.15003 9.82961 5.82098 9.24253L4.07633 10.2204ZM5.62383 10.4691C6.48209 9.68353 7.50113 9.24033 8.71379 9.24036L8.71383 7.24036C6.95636 7.24032 5.46594 7.90233 4.27347 8.99381L5.62383 10.4691ZM8.88724 9.2252C11.4014 8.78247 13.7657 9.12164 15.5475 9.97829C17.331 10.8358 18.4583 12.1657 18.729 13.7025L20.6987 13.3557C20.2877 11.0218 18.6117 9.23241 16.4141 8.17581C14.2146 7.11831 11.4198 6.74846 8.54038 7.25551L8.88724 9.2252ZM18.729 13.7025C18.7813 13.9998 18.7901 14.2778 18.7637 14.5399L20.7536 14.7405C20.799 14.2903 20.7819 13.8281 20.6987 13.3557L18.729 13.7025ZM19.7696 13.6403C18.715 13.6287 17.7612 13.6803 17.0717 13.7346C16.7263 13.7618 16.4456 13.7898 16.2496 13.8112C16.1516 13.8219 16.0747 13.8309 16.0215 13.8374C15.9948 13.8407 15.9741 13.8433 15.9596 13.8452C15.9523 13.8461 15.9466 13.8468 15.9425 13.8474C15.9404 13.8476 15.9388 13.8479 15.9375 13.848C15.9369 13.8481 15.9363 13.8482 15.9359 13.8482C15.9357 13.8483 15.9355 13.8483 15.9353 13.8483C15.9353 13.8483 15.9351 13.8483 15.9351 13.8483C15.935 13.8484 15.9349 13.8484 16.0675 14.8395C16.2002 15.8307 16.2001 15.8307 16.2 15.8307C16.2 15.8307 16.1999 15.8307 16.1999 15.8307C16.1999 15.8307 16.1998 15.8308 16.1998 15.8308C16.1998 15.8308 16.1999 15.8307 16.2 15.8307C16.2004 15.8307 16.2011 15.8306 16.2023 15.8304C16.2045 15.8301 16.2084 15.8296 16.2137 15.8289C16.2245 15.8276 16.2413 15.8254 16.2639 15.8227C16.3092 15.8171 16.3777 15.8091 16.4668 15.7993C16.645 15.7799 16.9056 15.7538 17.2287 15.7284C17.8761 15.6774 18.768 15.6294 19.7476 15.6402L19.7696 13.6403ZM16.0675 14.8395C15.1877 15.3149 15.1878 15.3149 15.1878 15.315C15.1878 15.315 15.1879 15.3151 15.1879 15.3152C15.188 15.3153 15.1881 15.3155 15.1882 15.3156C15.1884 15.316 15.1886 15.3164 15.1889 15.3169C15.1894 15.318 15.1902 15.3193 15.1911 15.321C15.1929 15.3244 15.1954 15.329 15.1987 15.335C15.2052 15.3468 15.2145 15.3638 15.2265 15.3855C15.2506 15.4289 15.2856 15.4916 15.3309 15.5714C15.4216 15.7308 15.5538 15.9587 15.7225 16.2377C16.0595 16.7949 16.5445 17.5599 17.138 18.3921L18.7664 17.2309C18.2088 16.4491 17.7515 15.728 17.4339 15.2028C17.2754 14.9406 17.1522 14.7281 17.0694 14.5825C17.028 14.5097 16.9967 14.4537 16.9761 14.4166C16.9659 14.398 16.9583 14.3842 16.9535 14.3754C16.951 14.371 16.9493 14.3678 16.9483 14.366C16.9478 14.365 16.9475 14.3644 16.9473 14.3641C16.9472 14.364 16.9472 14.3639 16.9472 14.3639C16.9472 14.3639 16.9472 14.364 16.9473 14.364C16.9473 14.364 16.9473 14.3641 16.9473 14.3641C16.9473 14.3642 16.9474 14.3642 16.0675 14.8395ZM17.276 17.0747C15.8692 18.3658 13.6955 19.4439 11.42 20.4312L12.216 22.266C14.4824 21.2826 16.9459 20.0922 18.6283 18.5483L17.276 17.0747ZM11.7617 20.3502C11.2177 20.3808 10.7631 20.4205 10.443 20.4527C10.2828 20.4688 10.1559 20.4831 10.068 20.4935C10.0241 20.4987 9.98985 20.503 9.96601 20.506C9.95409 20.5075 9.94477 20.5087 9.93814 20.5095C9.93482 20.51 9.93217 20.5103 9.93021 20.5106C9.92923 20.5107 9.92842 20.5108 9.92778 20.5109C9.92746 20.5109 9.92718 20.511 9.92695 20.511C9.92683 20.511 9.92673 20.511 9.92663 20.5111C9.92658 20.5111 9.92652 20.5111 9.9265 20.5111C9.92644 20.5111 9.92638 20.5111 10.059 21.5023C10.1916 22.4934 10.1916 22.4934 10.1915 22.4934C10.1915 22.4934 10.1915 22.4934 10.1914 22.4934C10.1914 22.4935 10.1914 22.4935 10.1913 22.4935C10.1913 22.4935 10.1912 22.4935 10.1913 22.4935C10.1913 22.4935 10.1915 22.4934 10.1919 22.4934C10.1927 22.4933 10.1941 22.4931 10.1962 22.4928C10.2004 22.4923 10.2073 22.4914 10.2167 22.4902C10.2355 22.4878 10.2645 22.4842 10.3031 22.4797C10.3803 22.4705 10.4955 22.4575 10.6432 22.4427C10.939 22.4129 11.3639 22.3757 11.8742 22.347L11.7617 20.3502ZM10.059 21.5023C9.17919 21.9776 9.17921 21.9776 9.17922 21.9776C9.17922 21.9776 9.17924 21.9777 9.17925 21.9777C9.17927 21.9777 9.17929 21.9778 9.17932 21.9778C9.17936 21.9779 9.17942 21.978 9.17948 21.9781C9.1796 21.9783 9.17974 21.9786 9.17991 21.9789C9.18024 21.9795 9.18067 21.9803 9.18119 21.9813C9.18224 21.9832 9.18367 21.9858 9.18547 21.9891C9.18907 21.9957 9.19418 22.0051 9.20075 22.017C9.2139 22.0409 9.23293 22.0753 9.25762 22.1194C9.30697 22.2074 9.37898 22.3342 9.47172 22.493L11.1987 21.4842C11.1124 21.3365 11.0463 21.2201 11.0023 21.1416C10.9803 21.1024 10.9639 21.0726 10.9532 21.0533C10.9479 21.0436 10.944 21.0364 10.9416 21.032C10.9404 21.0298 10.9396 21.0283 10.9391 21.0274C10.9389 21.027 10.9387 21.0267 10.9387 21.0267C10.9387 21.0266 10.9387 21.0266 10.9387 21.0267C10.9387 21.0267 10.9387 21.0267 10.9387 21.0268C10.9387 21.0268 10.9388 21.0268 10.9388 21.0268C10.9388 21.0269 10.9388 21.0269 10.9388 21.0269C10.9388 21.0269 10.9388 21.0269 10.059 21.5023ZM9.92991 21.0744C6.02035 22.8077 4.16026 24.1977 1.99784 26.1363L3.33288 27.6255C5.35687 25.811 7.04286 24.5421 10.7405 22.9028L9.92991 21.0744ZM3.60127 26.5286C2.58416 23.8262 2.26332 20.4307 2.67311 17.3334L0.690386 17.0711C0.243111 20.4517 0.581926 24.1841 1.72945 27.2331L3.60127 26.5286ZM1.78095 18.1973C1.93905 18.1815 2.06364 18.1685 2.14916 18.1593C2.19193 18.1548 2.22493 18.1512 2.24749 18.1487C2.25877 18.1474 2.26743 18.1465 2.2734 18.1458C2.27638 18.1455 2.27869 18.1452 2.28032 18.145C2.28113 18.1449 2.28177 18.1449 2.28224 18.1448C2.28247 18.1448 2.28266 18.1448 2.28281 18.1448C2.28288 18.1448 2.28294 18.1447 2.283 18.1447C2.28302 18.1447 2.28305 18.1447 2.28307 18.1447C2.28308 18.1447 2.28309 18.1447 2.28309 18.1447C2.28311 18.1447 2.28312 18.1447 2.17062 17.1511C2.05813 16.1574 2.05814 16.1574 2.05815 16.1574C2.05815 16.1574 2.05816 16.1574 2.05817 16.1574C2.05818 16.1574 2.05818 16.1574 2.05819 16.1574C2.0582 16.1574 2.05819 16.1574 2.05818 16.1574C2.05816 16.1574 2.05809 16.1574 2.05797 16.1574C2.05775 16.1575 2.05735 16.1575 2.05679 16.1576C2.05566 16.1577 2.05384 16.1579 2.05136 16.1582C2.04639 16.1587 2.03874 16.1596 2.02849 16.1607C2.008 16.163 1.97713 16.1663 1.93656 16.1707C1.85543 16.1793 1.73558 16.1919 1.58254 16.2071L1.78095 18.1973ZM2.17062 17.1511C2.9682 16.5479 2.96819 16.5478 2.96817 16.5478C2.96816 16.5478 2.96814 16.5478 2.96813 16.5478C2.9681 16.5477 2.96807 16.5477 2.96804 16.5476C2.96798 16.5476 2.96791 16.5475 2.96783 16.5474C2.96767 16.5471 2.96747 16.5469 2.96724 16.5466C2.96677 16.546 2.96617 16.5452 2.96542 16.5442C2.96393 16.5422 2.96186 16.5395 2.95925 16.5361C2.95401 16.5292 2.94654 16.5194 2.93691 16.5069C2.91763 16.4818 2.88967 16.4456 2.85351 16.3992C2.7812 16.3066 2.67601 16.1735 2.54185 16.0078L0.987671 17.2666C1.11373 17.4222 1.21147 17.546 1.27704 17.63C1.30981 17.672 1.33453 17.704 1.3507 17.725C1.35878 17.7356 1.36472 17.7434 1.36847 17.7483C1.37034 17.7507 1.37166 17.7525 1.37243 17.7535C1.37281 17.754 1.37306 17.7543 1.37316 17.7544C1.37321 17.7545 1.37323 17.7545 1.37321 17.7545C1.3732 17.7545 1.37318 17.7545 1.37315 17.7544C1.37314 17.7544 1.37312 17.7544 1.37311 17.7544C1.3731 17.7544 1.37308 17.7543 1.37308 17.7543C1.37306 17.7543 1.37305 17.7543 2.17062 17.1511ZM2.75192 16.7969C3.05567 14.9194 3.6271 13.2305 4.43483 11.9309L2.73619 10.8752C1.75258 12.4577 1.11109 14.4161 0.777594 16.4775L2.75192 16.7969Z" fill="#303030" mask="url(#path-5-inside-2_570_32384)"/>
<path d="M15.7804 9.45594C11.3586 9.04462 3.05855 17.2908 2.875 25.5493" stroke="#303030"/>
<mask id="path-8-inside-3_570_32384" fill="white">
<path fill-rule="evenodd" clip-rule="evenodd" d="M22.5525 0.762909C21.9768 1.80923 21.5284 2.54207 21.5284 2.54207C21.5284 2.54207 20.9762 1.9561 20.2692 1.06506C18.8459 1.41604 17.654 2.0767 16.8468 3.1124C13.0386 6.50544 12.5463 10.8589 15.7473 12.836C16.0655 13.0326 16.3999 13.1852 16.7481 13.2984C17.8333 11.871 18.9383 10.8017 18.9383 10.8017C18.9383 10.8017 19.7924 11.8401 20.6561 13.2691C22.8036 12.7418 25.1106 11.5649 27.2543 10.3633C27.8823 9.65093 28.3523 9.19608 28.3523 9.19608C28.3523 9.19608 28.4654 9.33362 28.651 9.57746C32.2746 7.579 34.465 6.85825 37.3344 6.12647C35.2693 4.25589 32.16 2.64306 28.9385 1.68523C28.7407 1.89026 28.6254 2.00646 28.6254 2.00646C28.6254 2.00646 28.5269 1.83009 28.3718 1.52385C26.3814 0.981947 24.3691 0.697359 22.5525 0.762909Z"/>
</mask>
<path fill-rule="evenodd" clip-rule="evenodd" d="M22.5525 0.762909C21.9768 1.80923 21.5284 2.54207 21.5284 2.54207C21.5284 2.54207 20.9762 1.9561 20.2692 1.06506C18.8459 1.41604 17.654 2.0767 16.8468 3.1124C13.0386 6.50544 12.5463 10.8589 15.7473 12.836C16.0655 13.0326 16.3999 13.1852 16.7481 13.2984C17.8333 11.871 18.9383 10.8017 18.9383 10.8017C18.9383 10.8017 19.7924 11.8401 20.6561 13.2691C22.8036 12.7418 25.1106 11.5649 27.2543 10.3633C27.8823 9.65093 28.3523 9.19608 28.3523 9.19608C28.3523 9.19608 28.4654 9.33362 28.651 9.57746C32.2746 7.579 34.465 6.85825 37.3344 6.12647C35.2693 4.25589 32.16 2.64306 28.9385 1.68523C28.7407 1.89026 28.6254 2.00646 28.6254 2.00646C28.6254 2.00646 28.5269 1.83009 28.3718 1.52385C26.3814 0.981947 24.3691 0.697359 22.5525 0.762909Z" fill="white"/>
<path d="M21.5284 2.54207L22.5139 2.83782L21.6579 4.23692L20.61 3.12489L21.5284 2.54207ZM22.5525 0.762909L21.5455 0.504136L21.8708 -0.0869768L22.6477 -0.115013L22.5525 0.762909ZM20.2692 1.06506L20.0713 0.228365L20.8393 0.0389831L21.2291 0.530229L20.2692 1.06506ZM16.8468 3.1124L17.7686 3.5L17.7079 3.57786L17.6306 3.64673L16.8468 3.1124ZM15.7473 12.836L14.9981 13.5558L14.9981 13.5558L15.7473 12.836ZM16.7481 13.2984L17.6775 13.6762L17.1187 14.4113L16.2176 14.1184L16.7481 13.2984ZM18.9383 10.8017L18.119 10.3003L19.1251 9.32668L19.8902 10.2568L18.9383 10.8017ZM20.6561 13.2691L20.8524 14.1061L19.9987 14.3157L19.6446 13.7298L20.6561 13.2691ZM27.2543 10.3633L28.1351 10.8003L28.0013 10.9521L27.8107 11.059L27.2543 10.3633ZM28.3523 9.19608L27.533 8.69471L28.5391 7.72107L29.3042 8.65122L28.3523 9.19608ZM28.651 9.57746L29.1991 10.2777L28.2253 10.8147L27.682 10.1006L28.651 9.57746ZM37.3344 6.12647L38.2085 5.50033L39.3202 6.50723L37.5435 6.96034L37.3344 6.12647ZM28.9385 1.68523L28.0914 1.2116L28.6585 0.623867L29.4421 0.856841L28.9385 1.68523ZM28.6254 2.00646L29.4616 2.49119L28.2882 3.67451L27.6022 2.44694L28.6254 2.00646ZM28.3718 1.52385L28.85 0.688216L29.2509 0.797384L29.4082 1.10796L28.3718 1.52385ZM21.5284 2.54207C20.5428 2.24632 20.5428 2.24634 20.5428 2.24636C20.5428 2.24637 20.5428 2.24638 20.5428 2.24639C20.5428 2.2464 20.5428 2.2464 20.5428 2.24639C20.5428 2.24637 20.5429 2.2463 20.5429 2.24619C20.5431 2.24597 20.5433 2.24557 20.5436 2.245C20.5443 2.24386 20.5455 2.24201 20.547 2.23948C20.5501 2.23442 20.5548 2.2266 20.5612 2.21614C20.5739 2.19522 20.5929 2.16372 20.6177 2.12245C20.6672 2.0399 20.7396 1.91834 20.8299 1.76431C21.0106 1.4561 21.2624 1.01869 21.5455 0.504136L23.5595 1.02168C23.2669 1.55345 23.0066 2.00562 22.8192 2.32541C22.7254 2.48538 22.6497 2.61243 22.5972 2.69999C22.5709 2.74377 22.5504 2.77769 22.5364 2.80094C22.5293 2.81256 22.5239 2.82151 22.5201 2.82769C22.5182 2.83078 22.5168 2.83318 22.5157 2.83487C22.5152 2.83572 22.5148 2.83639 22.5145 2.83688C22.5143 2.83713 22.5142 2.83733 22.5141 2.83749C22.5141 2.83756 22.514 2.83763 22.514 2.83769C22.514 2.83771 22.514 2.83775 22.514 2.83776C22.5139 2.83779 22.5139 2.83782 21.5284 2.54207ZM21.2291 0.530229C21.5737 0.964527 21.8804 1.32425 22.1002 1.57459C22.2101 1.69966 22.298 1.79719 22.3578 1.86281C22.3878 1.89561 22.4106 1.92041 22.4257 1.93667C22.4333 1.9448 22.4389 1.95079 22.4424 1.95458C22.4442 1.95647 22.4454 1.95781 22.4462 1.9586C22.4465 1.95899 22.4468 1.95924 22.4469 1.95935C22.4469 1.9594 22.4469 1.95942 22.4469 1.95941C22.4469 1.9594 22.4469 1.95938 22.4469 1.95936C22.4469 1.95934 22.4468 1.95932 22.4468 1.95931C22.4468 1.95928 22.4468 1.95925 21.5284 2.54207C20.61 3.12489 20.6099 3.12486 20.6099 3.12482C20.6099 3.1248 20.6099 3.12477 20.6098 3.12473C20.6098 3.12467 20.6097 3.1246 20.6096 3.12452C20.6095 3.12436 20.6093 3.12417 20.6091 3.12394C20.6087 3.12348 20.6081 3.12288 20.6074 3.12213C20.606 3.12064 20.6041 3.11858 20.6016 3.11597C20.5967 3.11074 20.5898 3.10327 20.5808 3.09364C20.5629 3.07437 20.5372 3.04643 20.5043 3.01038C20.4385 2.93828 20.3442 2.83362 20.2276 2.70083C19.9945 2.43542 19.6716 2.05664 19.3092 1.59989L21.2291 0.530229ZM20.467 1.90176C19.29 2.19199 18.383 2.71171 17.7686 3.5L15.9249 2.7248C16.925 1.44169 18.4017 0.640083 20.0713 0.228365L20.467 1.90176ZM17.6306 3.64673C14.0912 6.80031 13.9255 10.5283 16.4964 12.1163L14.9981 13.5558C11.1671 11.1895 11.9859 6.21057 16.0629 2.57806L17.6306 3.64673ZM16.4964 12.1163C16.7503 12.2731 17.0116 12.3916 17.2787 12.4784L16.2176 14.1184C15.7882 13.9789 15.3808 13.7922 14.9981 13.5558L16.4964 12.1163ZM15.8187 12.9206C16.3869 12.1732 16.9581 11.5223 17.3865 11.0587C17.6013 10.8263 17.7815 10.6395 17.9093 10.5096C17.9732 10.4446 18.0241 10.3938 18.0598 10.3584C18.0776 10.3408 18.0916 10.327 18.1016 10.3172C18.1066 10.3124 18.1105 10.3085 18.1134 10.3057C18.1149 10.3043 18.1161 10.3031 18.117 10.3022C18.1175 10.3018 18.1179 10.3014 18.1182 10.3011C18.1183 10.3009 18.1185 10.3008 18.1186 10.3006C18.1187 10.3006 18.1188 10.3005 18.1188 10.3005C18.1189 10.3004 18.119 10.3003 18.9383 10.8017C19.7577 11.303 19.7577 11.303 19.7578 11.3029C19.7578 11.3029 19.7579 11.3029 19.7579 11.3028C19.758 11.3028 19.758 11.3027 19.758 11.3027C19.7581 11.3026 19.7581 11.3026 19.758 11.3027C19.7579 11.3029 19.7575 11.3033 19.7568 11.3039C19.7554 11.3052 19.7531 11.3075 19.7497 11.3108C19.7429 11.3175 19.7321 11.328 19.7176 11.3424C19.6886 11.3711 19.6447 11.415 19.5881 11.4725C19.4748 11.5877 19.3109 11.7575 19.1138 11.9709C18.7184 12.3987 18.1945 12.9962 17.6775 13.6762L15.8187 12.9206ZM18.9383 10.8017C19.8902 10.2568 19.8902 10.2569 19.8902 10.2569C19.8903 10.2569 19.8903 10.257 19.8904 10.2571C19.8904 10.2572 19.8905 10.2573 19.8906 10.2574C19.8908 10.2577 19.8911 10.258 19.8914 10.2584C19.8921 10.2591 19.8929 10.2602 19.8939 10.2614C19.896 10.264 19.8989 10.2676 19.9026 10.2721C19.91 10.2812 19.9205 10.2942 19.934 10.3109C19.9609 10.3445 19.9996 10.3931 20.0485 10.4555C20.1461 10.5804 20.2843 10.7608 20.4499 10.9865C20.7805 11.4372 21.2224 12.0718 21.6675 12.8083L19.6446 13.7298C19.2261 13.0374 18.8091 12.4383 18.4968 12.0126C18.3408 11.8 18.2116 11.6315 18.1221 11.517C18.0773 11.4597 18.0426 11.4161 18.0194 11.3872C18.0078 11.3728 17.9992 11.3621 17.9936 11.3553C17.9908 11.3519 17.9888 11.3494 17.9876 11.348C17.987 11.3472 17.9866 11.3467 17.9864 11.3465C17.9863 11.3464 17.9863 11.3463 17.9863 11.3463C17.9863 11.3463 17.9863 11.3464 17.9863 11.3464C17.9864 11.3464 17.9864 11.3464 17.9864 11.3465C17.9864 11.3465 17.9865 11.3465 18.9383 10.8017ZM20.4597 12.432C22.3965 11.9565 24.5541 10.8693 26.6979 9.6677L27.8107 11.059C25.6671 12.2605 23.2107 13.5271 20.8524 14.1061L20.4597 12.432ZM26.3734 9.92631C26.7003 9.55553 26.9866 9.25115 27.1925 9.03815C27.2955 8.93156 27.3787 8.84759 27.437 8.78937C27.4662 8.76025 27.4892 8.73755 27.5054 8.72165C27.5135 8.71369 27.5199 8.70744 27.5245 8.70294C27.5268 8.70068 27.5287 8.69887 27.5301 8.69749C27.5308 8.69681 27.5314 8.69623 27.5319 8.69577C27.5321 8.69553 27.5323 8.69533 27.5325 8.69515C27.5326 8.69507 27.5327 8.69498 27.5327 8.69491C27.5328 8.69487 27.5328 8.69482 27.5329 8.6948C27.5329 8.69475 27.533 8.69471 28.3523 9.19608C29.1717 9.69745 29.1717 9.69741 29.1718 9.69736C29.1718 9.69735 29.1718 9.69731 29.1718 9.69729C29.1719 9.69724 29.1719 9.6972 29.172 9.69717C29.172 9.6971 29.1721 9.69707 29.1721 9.69705C29.1721 9.69703 29.172 9.69712 29.1718 9.69732C29.1714 9.69771 29.1706 9.69853 29.1693 9.69978C29.1667 9.70229 29.1624 9.70651 29.1564 9.71238C29.1444 9.72414 29.1258 9.74254 29.1011 9.76719C29.0517 9.81652 28.9781 9.89079 28.8851 9.98696C28.699 10.1795 28.4362 10.4587 28.1351 10.8003L26.3734 9.92631ZM28.3523 9.19608C29.3042 8.65122 29.3042 8.65124 29.3042 8.65126C29.3042 8.65126 29.3042 8.65128 29.3042 8.6513C29.3042 8.65133 29.3043 8.65136 29.3043 8.65139C29.3043 8.65145 29.3044 8.65153 29.3045 8.65161C29.3046 8.65177 29.3048 8.65197 29.305 8.6522C29.3053 8.65267 29.3058 8.65326 29.3064 8.65399C29.3076 8.65545 29.3093 8.65745 29.3113 8.65997C29.3154 8.665 29.3212 8.67215 29.3287 8.68133C29.3435 8.6997 29.3648 8.72624 29.392 8.76047C29.4463 8.82891 29.524 8.92816 29.62 9.05429L27.682 10.1006C27.5924 9.98292 27.5208 9.89148 27.4721 9.83019C27.4478 9.79955 27.4293 9.77647 27.4171 9.76143C27.411 9.75391 27.4066 9.7484 27.4038 9.74496C27.4024 9.74325 27.4014 9.74205 27.4008 9.74137C27.4005 9.74104 27.4004 9.74083 27.4003 9.74076C27.4003 9.74072 27.4003 9.74072 27.4003 9.74075C27.4003 9.74076 27.4003 9.74079 27.4004 9.74082C27.4004 9.74083 27.4004 9.74085 27.4004 9.74087C27.4004 9.74088 27.4004 9.7409 27.4004 9.7409C27.4005 9.74092 27.4005 9.74094 28.3523 9.19608ZM28.1028 8.87724C31.8467 6.81243 34.1549 6.05014 37.1252 5.29261L37.5435 6.96034C34.7751 7.66636 32.7024 8.34557 29.1991 10.2777L28.1028 8.87724ZM36.4602 6.75262C34.5081 4.98443 31.5328 3.43468 28.4349 2.51362L29.4421 0.856841C32.7873 1.85144 36.0304 3.52734 38.2085 5.50033L36.4602 6.75262ZM29.7856 2.15885C29.6846 2.26349 29.6044 2.34579 29.5491 2.4023C29.5214 2.43056 29.4999 2.45238 29.4852 2.46734C29.4778 2.47482 29.4721 2.48058 29.4682 2.48457C29.4662 2.48657 29.4647 2.48813 29.4636 2.48923C29.463 2.48978 29.4626 2.49022 29.4623 2.49055C29.4621 2.49072 29.462 2.49085 29.4619 2.49096C29.4618 2.49101 29.4618 2.49106 29.4617 2.4911C29.4617 2.49112 29.4617 2.49114 29.4617 2.49115C29.4617 2.49116 29.4617 2.49117 29.4617 2.49117C29.4617 2.49118 29.4616 2.49119 28.6254 2.00646C27.7892 1.52173 27.7892 1.52174 27.7892 1.52174C27.7892 1.52175 27.7892 1.52175 27.7892 1.52176C27.7892 1.52177 27.7892 1.52177 27.7892 1.52178C27.7892 1.52179 27.7892 1.5218 27.7892 1.52179C27.7892 1.52179 27.7892 1.52175 27.7893 1.52169C27.7894 1.52156 27.7896 1.52133 27.79 1.52098C27.7907 1.52028 27.7918 1.51914 27.7934 1.51756C27.7965 1.5144 27.8014 1.50948 27.8079 1.50286C27.8209 1.48962 27.8406 1.46958 27.8665 1.44316C27.9182 1.39032 27.9946 1.312 28.0914 1.2116L29.7856 2.15885ZM28.6254 2.00646C27.6022 2.44694 27.6022 2.44692 27.6022 2.4469C27.6022 2.44689 27.6021 2.44687 27.6021 2.44685C27.6021 2.44682 27.6021 2.44679 27.6021 2.44675C27.602 2.44667 27.602 2.44659 27.6019 2.44649C27.6018 2.44629 27.6017 2.44606 27.6015 2.44578C27.6012 2.44521 27.6008 2.44448 27.6003 2.44358C27.5993 2.44177 27.5979 2.43928 27.5962 2.43612C27.5927 2.4298 27.5877 2.42079 27.5814 2.4092C27.5687 2.386 27.5505 2.35243 27.5274 2.30921C27.4812 2.22279 27.4155 2.09768 27.3355 1.93974L29.4082 1.10796C29.4833 1.25626 29.5443 1.37246 29.5862 1.45078C29.6071 1.48993 29.6232 1.51959 29.6339 1.53904C29.6392 1.54876 29.6431 1.55593 29.6456 1.56045C29.6469 1.56271 29.6478 1.56431 29.6483 1.56523C29.6485 1.5657 29.6487 1.56599 29.6488 1.56611C29.6488 1.56618 29.6488 1.5662 29.6488 1.56617C29.6488 1.56616 29.6488 1.56614 29.6488 1.56611C29.6488 1.56609 29.6488 1.56607 29.6487 1.56605C29.6487 1.56604 29.6487 1.56602 29.6487 1.56602C29.6487 1.566 29.6487 1.56598 28.6254 2.00646ZM27.8937 2.35948C25.9842 1.8396 24.1035 1.58143 22.4573 1.64083L22.6477 -0.115013C24.6347 -0.186712 26.7787 0.124291 28.85 0.688216L27.8937 2.35948Z" fill="#303030" mask="url(#path-8-inside-3_570_32384)"/>
<path d="M14.1274 8.51233C16.1514 5.26891 28.272 2.67972 35.992 5.75595" stroke="#303030"/>
</svg>
