<svg width="53" height="44" viewBox="0 0 53 44" fill="none" xmlns="http://www.w3.org/2000/svg">
<path d="M20.7218 14.4973C24.748 12.6616 29.5147 14.4567 31.3653 18.5156C33.2159 22.5744 31.4451 27.3502 27.4189 29.1859C23.3928 31.0216 18.626 29.2265 16.7754 25.1677C14.9248 21.1088 16.6957 16.333 20.7218 14.4973Z" fill="#ECEDF1" stroke="#303030"/>
<path d="M24.2459 21.3035C24.2231 21.249 24.2125 21.1891 24.2051 21.1307C24.1891 21.0099 24.1878 20.7742 24.183 20.6472C24.1737 20.3504 24.1389 20.0494 24.0266 19.7725C23.9341 19.5382 23.8041 19.3174 23.6663 19.1071C23.3544 18.6332 22.9087 18.0715 22.6102 17.591C22.2751 17.0647 21.9972 16.4967 21.8158 15.8989C21.4927 14.8418 21.3895 13.7226 21.3914 12.6207C21.404 10.7736 21.7168 8.92692 22.2656 7.16467C22.6179 6.04478 23.0779 4.94611 23.6638 3.92756C24.0805 3.20828 24.5629 2.51317 25.1531 1.92469C25.4894 1.59295 25.8656 1.29136 26.2947 1.0889C26.5733 0.958413 26.8779 0.872813 27.1868 0.871868C27.919 0.868111 28.546 1.34541 29.0191 1.86375C29.5008 2.39542 29.881 3.01744 30.2044 3.65544C30.6413 4.52397 30.978 5.45416 31.2324 6.39228C31.982 9.16374 31.9892 12.2811 30.5757 14.8461C29.5654 16.7078 27.7338 18.145 26.1631 19.5219C25.8466 19.8134 25.5154 20.1127 25.3016 20.491C25.165 20.7276 25.0831 21.0076 24.9693 21.2549C25.1903 21.1248 25.4463 21.0603 25.6921 20.9937C26.1207 20.885 26.6534 20.7579 27.0688 20.6189C27.4538 20.492 27.8361 20.3362 28.1948 20.1477C28.6412 19.9145 29.0624 19.6192 29.4575 19.3075C30.5623 18.4414 32.0946 16.8364 33.1161 15.8481C34.1343 14.8706 35.2087 13.8981 36.413 13.1553C37.4703 12.5023 38.6407 12.0262 39.8491 11.7378C42.1721 11.1821 44.614 11.2908 46.9464 11.7374C47.9997 11.9478 49.0588 12.2319 50.0274 12.7039C50.5354 12.9559 51.0293 13.2651 51.4128 13.6881C51.6637 13.9654 51.8596 14.3005 51.9361 14.6688C52.0806 15.3766 51.8262 16.096 51.4978 16.7165C51.2129 17.2489 50.8469 17.7436 50.4554 18.2025C49.9291 18.8157 49.3359 19.3827 48.7179 19.9025C46.7133 21.5822 44.3645 22.8528 41.8665 23.625C39.4853 24.3582 36.9461 24.6584 34.4678 24.3425C33.5509 24.2241 32.6261 24.0154 31.7372 23.7627C30.7543 23.4942 29.1041 22.8936 28.1269 22.5845C27.8074 22.4833 27.4601 22.3881 27.1311 22.3219C26.7919 22.254 26.4398 22.2125 26.0946 22.1894C25.8925 22.1782 25.3007 22.1454 25.1083 22.1312C25.1511 22.1588 25.1995 22.1937 25.2406 22.2241L25.5269 22.4418C25.6463 22.531 25.7712 22.6135 25.9016 22.6849C26.0272 22.7527 26.1645 22.8131 26.2983 22.8639C27.0317 23.1313 27.9521 23.326 28.6948 23.5694C29.3386 23.7755 29.9774 24.0297 30.5722 24.3516C31.1333 24.6531 31.6689 25.0249 32.1653 25.4238C33.6094 26.5953 34.8224 28.0414 35.8517 29.5846C37.2789 31.7498 38.3839 34.1625 38.8978 36.7124C39.0761 37.6131 39.1849 38.5382 39.1674 39.4575C39.1528 40.0668 39.0862 40.6853 38.8986 41.2673C38.7141 41.8407 38.3774 42.4182 37.8105 42.6786C36.814 43.1335 35.4323 42.5922 34.5132 42.1334C33.5049 41.6236 32.5611 40.9644 31.6845 40.254C30.4915 39.279 29.3941 38.1629 28.476 36.9247C27.3516 35.4115 26.4832 33.6923 26.0194 31.8611C25.7589 30.8489 25.6404 29.7849 25.5661 28.7436C25.5088 27.877 25.4456 26.3308 25.3375 25.4893C25.2893 25.1063 25.2229 24.717 25.1173 24.3452C24.9814 23.8442 24.7304 23.39 24.4616 22.9494C24.2731 23.1252 24.1047 23.3408 23.9117 23.512C23.7477 23.6579 23.5657 23.8043 23.4362 23.9795C23.3352 24.1122 23.2576 24.2632 23.2072 24.422C23.1508 24.5981 23.1258 24.7849 23.112 24.9687C23.0546 25.8475 23.2396 27.4376 23.2704 28.3294C23.3197 29.408 23.3052 30.5095 23.1573 31.5801C23.0404 32.4329 22.8379 33.2861 22.5391 34.0937C22.0978 35.2826 21.4627 36.4048 20.7318 37.4386C20.0752 38.3617 19.3232 39.2356 18.4957 40.0095C17.8995 40.5626 17.2526 41.0823 16.548 41.4908C16.1643 41.7114 15.7561 41.9049 15.3274 42.0194C15.0261 42.0989 14.7083 42.1397 14.3985 42.0916L14.3706 42.087L14.3431 42.0819L14.3157 42.0764L14.2886 42.0704L14.2615 42.0639L14.2348 42.0568L14.2083 42.0493L14.1821 42.0414L14.1561 42.033L14.1303 42.024L14.1048 42.0145L14.0796 42.0045L14.0545 41.9942L14.0298 41.9833L14.0055 41.9718L13.9813 41.96L13.9576 41.9476L13.934 41.9348L13.9107 41.9216L13.8875 41.9078L13.8646 41.8934L13.8419 41.8787L13.8196 41.8635L13.7975 41.8478L13.7755 41.8317L13.754 41.8151L13.7326 41.7981L13.7114 41.7807L13.6905 41.7628L13.6699 41.7445L13.6494 41.7255C13.4584 41.5457 13.3132 41.3212 13.2003 41.0856C13.0475 40.766 12.9491 40.419 12.8785 40.0724C12.7481 39.4186 12.7147 38.7397 12.7224 38.0739C12.7383 37.0632 12.858 36.0416 13.0382 35.0474C13.3633 33.2958 13.8718 31.5613 14.6293 29.9461C15.1755 28.7907 15.8625 27.6923 16.684 26.7126C17.5818 25.6508 18.6388 24.6913 19.8779 24.045C20.1059 23.9281 20.3499 23.8217 20.5916 23.7363C20.8365 23.646 21.2343 23.5384 21.483 23.4643C21.8051 23.3695 22.1281 23.2484 22.4071 23.0584C22.7963 22.8018 23.1609 22.41 23.5457 22.1483C23.3136 22.089 23.0621 22.0141 22.8267 21.9941C22.6471 21.9762 22.4633 21.9856 22.284 22.0063C21.591 22.0948 20.7625 22.2905 20.0677 22.3586C19.2039 22.4536 18.3158 22.4535 17.449 22.3991C15.4955 22.2697 13.5482 21.8611 11.7092 21.1891C8.86766 20.1316 6.23678 18.4944 3.98593 16.4671C3.45267 15.9791 2.92047 15.4571 2.45966 14.8996C2.17262 14.5494 1.90226 14.176 1.70445 13.7673C1.43703 13.2132 1.3234 12.586 1.74179 12.0712C2.00199 11.7512 2.36768 11.5363 2.73707 11.3644C3.63844 10.961 4.62698 10.779 5.60209 10.6602C6.73344 10.5296 7.90096 10.5121 9.03776 10.5799C11.1125 10.7047 13.181 11.1663 15.0764 12.0287C17.0536 12.9228 18.8405 14.2592 20.2105 15.9462C20.7825 16.6466 21.3025 17.4181 21.7704 18.1919C22.1883 18.8634 22.6826 19.8263 23.0703 20.5196C23.1338 20.6341 23.2181 20.7776 23.2964 20.8851C23.3394 20.943 23.3876 20.9986 23.4463 21.0411C23.481 21.0663 23.5197 21.0865 23.5602 21.1009C23.5825 21.1089 23.607 21.1158 23.6301 21.1209L23.6394 21.123L23.6488 21.1249L23.662 21.1274L23.6756 21.1297C23.7136 21.136 23.7899 21.1465 23.8278 21.153C23.9746 21.1778 24.1167 21.2297 24.2459 21.3035Z" fill="white" stroke="#303030" stroke-miterlimit="10" stroke-linecap="round" stroke-linejoin="round"/>
<path d="M17.2022 19.1736C17.3435 18.8377 17.6448 18.5369 18.1052 18.2889C18.5644 18.0415 19.1484 17.8657 19.7875 17.7668C21.0783 17.567 22.4732 17.6975 23.3211 18.0542C24.9809 18.7524 25.7592 20.6525 25.0684 22.2946C24.3775 23.9367 22.4749 24.709 20.8152 24.0108C19.9473 23.6456 18.8419 22.8038 18.0548 21.8234C17.6636 21.3361 17.3695 20.8371 17.2169 20.3706C17.065 19.9061 17.0625 19.5056 17.2022 19.1736Z" fill="white" stroke="#303030"/>
</svg>
