<svg width="131" height="20" viewBox="0 0 131 20" fill="none" xmlns="http://www.w3.org/2000/svg">
<path d="M6.38266 11.8203L6.54764 7.95947H37.1385L37.2843 11.8203H6.38266Z" fill="#ECEDF1" stroke="#303030"/>
<path d="M12.2929 10.1245C12.5025 5.03414 16.6902 1.01538 21.7848 1.01538H119.835C124.947 1.01538 129.142 5.06098 129.328 10.1698L129.622 18.2462C129.632 18.5293 129.406 18.7644 129.123 18.7644H12.458C12.1738 18.7644 11.9468 18.5278 11.9585 18.2438L12.2929 10.1245Z" fill="white" stroke="#303030"/>
<path d="M28.936 7.32292C29.0401 3.80955 31.9182 1.01538 35.4331 1.01538H106.184C109.708 1.01538 112.59 3.82288 112.682 7.34526L112.981 18.7644H28.5971L28.936 7.32292Z" fill="white" stroke="#303030"/>
<path d="M46.1851 5.43627C46.2282 2.98221 48.2299 1.01538 50.6844 1.01538H90.9193C93.3774 1.01538 95.3806 2.98774 95.4188 5.44547L95.6258 18.7644H45.9508L46.1851 5.43627Z" fill="white" stroke="#303030"/>
<path d="M62.7028 3.50033C62.7111 2.12552 63.828 1.01538 65.2028 1.01538H76.3842C77.7598 1.01538 78.8769 2.12658 78.8842 3.50208L78.9654 18.7644H62.6109L62.7028 3.50033Z" fill="white" stroke="#303030"/>
<circle cx="5.51364" cy="9.88986" r="4.01364" fill="white" stroke="#303030"/>
</svg>
