<svg width="134" height="39" viewBox="0 0 134 39" fill="none" xmlns="http://www.w3.org/2000/svg">
<path d="M99.6825 37.6334C100.91 37.9908 102.196 38.2168 103.476 38.1995C104.524 38.1845 105.574 37.9978 106.548 37.6089C106.97 37.4436 107.381 37.2322 107.737 36.9496C108.209 36.5811 108.587 36.0912 108.81 35.5352C108.95 35.1911 109.033 34.8241 109.066 34.4543C109.131 34.3151 108.87 28.6782 108.872 28.3796C111.453 28.5319 114.083 28.3785 116.646 28.0503C118.63 27.7877 120.651 27.4258 122.575 26.8709C125.414 26.0366 128.771 24.6031 129.781 21.5721L130.949 21.6874C130.971 21.6895 130.998 21.6918 131.021 21.6928C131.1 21.6967 131.18 21.6938 131.258 21.6846C131.516 21.6541 131.765 21.5503 131.968 21.3886C132.564 20.9163 132.676 20.0489 132.22 19.4406C132.004 19.1496 131.671 18.9489 131.313 18.8929C131.223 18.8785 131.13 18.8728 131.039 18.8763C131.024 18.8748 130.1 18.9659 130.057 18.9711C129.759 15.5666 126.826 13.7954 123.892 12.7522C121.741 11.9941 119.458 11.5516 117.205 11.2261C114.46 10.844 111.642 10.6587 108.872 10.8211C108.871 10.5042 109.131 4.8965 109.066 4.74638C109.033 4.37663 108.95 4.00956 108.81 3.66551C108.587 3.10945 108.209 2.6196 107.737 2.25108C107.381 1.96853 106.971 1.75712 106.548 1.59178C105.574 1.20291 104.524 1.01598 103.477 1.00117C102.196 0.983895 100.91 1.2099 99.6827 1.56731C97.8671 0.866681 95.7952 0.884367 93.9915 1.61523C93.2962 1.8947 92.6365 2.27823 92.05 2.74422C91.9398 2.82031 86.0413 7.96761 85.8895 8.10725C85.6618 8.31886 85.442 8.54938 85.2415 8.7867C84.2371 9.97142 83.6015 11.4638 83.4429 13.0088C82.6938 12.7053 81.8903 12.5305 81.0823 12.5006C63.5482 11.9978 42.6443 11.9978 25.111 12.5006C24.303 12.5307 23.4996 12.7053 22.7504 13.0088C22.6063 11.61 22.0732 10.2532 21.2264 9.13074C20.9675 8.7869 20.6769 8.46075 20.3649 8.16462C19.879 7.73544 14.4136 2.93486 13.9391 2.58752C13.3175 2.12626 12.6234 1.75692 11.8934 1.49883C10.5137 1.00878 8.99377 0.920353 7.56659 1.24712C4.51975 1.93604 2.1645 4.40563 1.62097 7.48188C1.25513 9.50275 1.72853 11.6441 2.91263 13.3222C3.17319 13.6936 3.46973 14.0467 3.79115 14.3671C3.89089 14.4654 4.0044 14.5742 4.10928 14.6671L4.17406 14.7241L9.58315 19.4377C9.58048 19.5397 9.58048 19.6612 9.58315 19.7632L4.17406 24.4768L4.10928 24.5338C4.00502 24.6276 3.89007 24.7345 3.79115 24.8338C3.46993 25.1542 3.17319 25.5071 2.91263 25.8785C1.72873 27.5566 1.25513 29.6977 1.62097 31.7188C2.1575 34.7585 4.46731 37.2118 7.46891 37.9308C8.92426 38.2836 10.482 38.2032 11.8932 37.7019C12.6232 37.4438 13.3171 37.0746 13.9387 36.6132C14.0514 36.5289 14.176 36.432 14.284 36.3417C14.3144 36.3125 14.3852 36.2591 14.4156 36.2295L20.1184 31.2598C20.1957 31.1915 20.2897 31.1076 20.3645 31.0359C20.6981 30.7192 21.0067 30.369 21.279 29.9984C22.0952 28.8902 22.6089 27.5607 22.75 26.1917C23.4992 26.4952 24.3026 26.67 25.1106 26.6998C42.6447 27.2026 63.5486 27.2026 81.0819 26.6998C81.8899 26.6698 82.6933 26.4952 83.4425 26.1917C83.6011 27.7369 84.2365 29.2291 85.2411 30.4138C85.4418 30.6513 85.6614 30.8816 85.8893 31.0932C86.034 31.2265 91.9455 36.3859 92.0498 36.4563C92.6363 36.9223 93.2962 37.306 93.9913 37.5853C95.795 38.3163 97.8671 38.334 99.6825 37.6334Z" fill="white" stroke="#303030" stroke-miterlimit="10" stroke-linecap="round" stroke-linejoin="round"/>
<path d="M25.0278 26.6966V12.5046" stroke="#303030" stroke-miterlimit="10" stroke-linecap="round" stroke-linejoin="round"/>
<path d="M81.165 26.6966V12.5046" stroke="#303030" stroke-miterlimit="10" stroke-linecap="round" stroke-linejoin="round"/>
<path d="M20.2948 16.0415C19.1057 14.4403 17.1463 13.5339 15.1561 13.6642C11.5166 13.8993 8.94602 17.3054 9.71802 20.8698C10.0748 22.5313 11.1705 23.9985 12.6622 24.8123C15.8608 26.5644 19.8565 25.0667 21.1153 21.6437C21.8052 19.7725 21.4924 17.6365 20.2948 16.0415Z" fill="white" stroke="#303030" stroke-miterlimit="10" stroke-linecap="round" stroke-linejoin="round"/>
<path d="M25.0278 26.6968L25.1105 26.7003C42.6446 27.2031 63.5485 27.2031 81.0818 26.7003L81.1645 26.6968" stroke="#303030" stroke-miterlimit="10" stroke-linecap="round" stroke-linejoin="round"/>
<path d="M81.165 12.5049L81.0823 12.5014C63.5482 11.9986 42.6443 11.9986 25.111 12.5014L25.0283 12.5049" stroke="#303030" stroke-miterlimit="10" stroke-linecap="round" stroke-linejoin="round"/>
<path d="M25.028 12.5046C22.9357 12.6025 20.9498 13.6846 19.6982 15.3586" stroke="#303030" stroke-miterlimit="10" stroke-linecap="round" stroke-linejoin="round"/>
<path d="M25.028 26.6967C22.9357 26.5988 20.9498 25.5167 19.6982 23.8428" stroke="#303030" stroke-miterlimit="10" stroke-linecap="round" stroke-linejoin="round"/>
<path d="M9.58313 19.7632L4.17404 24.4768L4.10926 24.5337C4.005 24.6275 3.89004 24.7344 3.79113 24.8338C3.46991 25.1542 3.17316 25.5071 2.91261 25.8785C1.72871 27.5565 1.25511 29.6977 1.62095 31.7188C2.15748 34.7584 4.46729 37.2118 7.46889 37.9307C8.92424 38.2836 10.482 38.2032 11.8931 37.7018C12.6232 37.4437 13.317 37.0746 13.9387 36.6131C14.0514 36.5288 14.176 36.432 14.284 36.3417C14.3144 36.3125 14.3851 36.259 14.4156 36.2294L20.1183 31.2598C20.1957 31.1915 20.2896 31.1076 20.3645 31.0358C20.698 30.7191 21.0067 30.3689 21.279 29.9984C22.0952 28.8901 22.6089 27.5606 22.75 26.1917" stroke="#303030" stroke-miterlimit="10" stroke-linecap="round" stroke-linejoin="round"/>
<path d="M9.58313 19.4379L4.17404 14.7243L4.10926 14.6673C4.005 14.5735 3.89004 14.4666 3.79113 14.3673C3.46991 14.0469 3.17316 13.694 2.91261 13.3226C1.72871 11.6445 1.25511 9.50336 1.62095 7.48227C2.15748 4.44263 4.46729 1.98928 7.46889 1.27035C8.92424 0.917459 10.482 0.997867 11.8931 1.49923C12.6232 1.75732 13.317 2.12645 13.9387 2.58792C14.0514 2.67223 14.176 2.76909 14.284 2.85937C14.3144 2.88857 14.3851 2.94204 14.4156 2.97165L20.1183 7.94127C20.1957 8.00955 20.2896 8.09345 20.3645 8.16502C20.698 8.48171 21.0067 8.83192 21.279 9.2025C22.0952 10.3107 22.6089 11.6402 22.75 13.0092" stroke="#303030" stroke-miterlimit="10" stroke-linecap="round" stroke-linejoin="round"/>
<path d="M81.165 26.6968C83.4783 26.5876 85.6333 25.2875 86.8507 23.324" stroke="#303030" stroke-miterlimit="10" stroke-linecap="round" stroke-linejoin="round"/>
<path d="M86.8507 15.8774C85.6333 13.9139 83.4783 12.6138 81.165 12.5046" stroke="#303030" stroke-miterlimit="10" stroke-linecap="round" stroke-linejoin="round"/>
<path d="M129.78 21.5724L130.949 21.6877C130.961 21.6883 130.985 21.6914 130.998 21.6918C131.079 21.6972 131.162 21.6953 131.243 21.6867C131.495 21.6596 131.739 21.5625 131.941 21.4091C132.552 20.9484 132.682 20.0767 132.232 19.4585C132.017 19.1591 131.68 18.9514 131.316 18.8938C131.228 18.8796 131.136 18.8737 131.047 18.8764C131.009 18.8712 130.116 18.9685 130.057 18.9714" stroke="#303030" stroke-miterlimit="10" stroke-linecap="round" stroke-linejoin="round"/>
<path d="M108.81 26.7314L109.08 33.8856C109.081 33.953 109.085 34.0482 109.083 34.1161C109.08 34.3009 109.067 34.4918 109.041 34.6748C108.971 35.1632 108.806 35.6405 108.543 36.059C108.299 36.4499 107.972 36.7876 107.597 37.0552C107.236 37.3163 106.826 37.507 106.41 37.6628C105.217 38.1142 103.921 38.2621 102.652 38.1794C101.758 38.1202 100.859 37.954 99.9932 37.7225C98.9335 37.4311 97.8872 37.0146 96.993 36.3664C96.1853 35.783 95.5017 34.9617 95.2889 33.9697C95.1873 33.5117 95.1887 33.0323 95.2753 32.5721C95.5708 31.2885 95.9714 29.9612 96.4178 28.7222C96.9842 27.1638 97.7134 25.605 98.4757 24.133C98.6427 23.8108 98.8401 23.4947 99.062 23.2076C99.653 22.435 100.47 21.8317 101.405 21.5514C101.941 21.3879 102.506 21.3264 103.065 21.3517C103.657 21.3801 104.248 21.5016 104.817 21.6645C105.832 21.9606 106.805 22.48 107.518 23.2738C107.928 23.7279 108.246 24.2653 108.455 24.8398C108.678 25.4438 108.786 26.0889 108.81 26.7314Z" fill="white" stroke="#303030" stroke-miterlimit="10" stroke-linecap="round" stroke-linejoin="round"/>
<path d="M99.6827 37.6336C97.867 38.3343 95.7952 38.3166 93.9914 37.5857C93.2962 37.3062 92.6365 36.9227 92.0499 36.4567C91.9397 36.3806 86.0412 31.2333 85.8894 31.0937C85.6618 30.8821 85.4419 30.6516 85.2414 30.4142C84.2371 29.2295 83.6014 27.7372 83.4429 26.1921" stroke="#303030" stroke-miterlimit="10" stroke-linecap="round" stroke-linejoin="round"/>
<path d="M108.81 12.4699L109.08 5.31569C109.081 5.24824 109.085 5.15302 109.083 5.08516C109.08 4.90029 109.067 4.70944 109.041 4.52642C108.971 4.03801 108.806 3.56071 108.543 3.14222C108.299 2.75129 107.972 2.41362 107.597 2.14608C107.236 1.88491 106.826 1.69427 106.41 1.53839C105.217 1.08721 103.921 0.939146 102.652 1.02182C101.758 1.08104 100.859 1.24721 99.9932 1.47876C98.9335 1.77016 97.8872 2.18659 96.993 2.83479C96.1853 3.4182 95.5017 4.23955 95.2889 5.23158C95.1873 5.68955 95.1887 6.16891 95.2753 6.62915C95.5708 7.91278 95.9714 9.24002 96.4178 10.479C96.9842 12.0374 97.7134 13.5962 98.4757 15.0682C98.6427 15.3905 98.8401 15.7065 99.062 15.9936C99.653 16.7662 100.47 17.3696 101.405 17.6499C101.941 17.8134 102.506 17.8749 103.065 17.8496C103.657 17.8212 104.248 17.6997 104.817 17.5368C105.832 17.2407 106.805 16.7212 107.518 15.9274C107.928 15.4733 108.246 14.936 108.455 14.3614C108.678 13.7574 108.786 13.1121 108.81 12.4699Z" fill="white" stroke="#303030" stroke-miterlimit="10" stroke-linecap="round" stroke-linejoin="round"/>
<path d="M61.5495 11.4693L47.1867 9.42351C47.0509 9.40627 46.8597 9.37919 46.7222 9.36637C46.3481 9.32926 45.9593 9.3053 45.5819 9.30599C44.5757 9.30411 43.564 9.4546 42.6424 9.77149C41.7819 10.0653 41.0047 10.5014 40.3551 11.0278C39.7223 11.5348 39.2176 12.1341 38.7813 12.751C37.5219 14.5179 36.8445 16.5139 36.6405 18.5212C36.4986 19.9367 36.5713 21.383 36.7858 22.7918C37.0643 24.5185 37.5992 26.2526 38.6463 27.8007C39.5879 29.1989 41.0462 30.4564 42.9865 31.0149C43.8813 31.278 44.8494 31.3845 45.8037 31.3533C48.4813 31.1814 51.2775 30.8548 53.9091 30.4363C57.2204 29.9023 60.5802 29.1133 63.7744 28.2527C64.4737 28.0641 65.1695 27.8264 65.8138 27.5439C67.5461 26.793 69.0028 25.6502 69.842 24.2476C70.3285 23.4459 70.6179 22.5737 70.73 21.693C70.8458 20.7585 70.7731 19.8051 70.6106 18.8765C70.3096 17.2181 69.5455 15.575 68.1512 14.279C67.3546 13.5328 66.3627 12.9133 65.2642 12.454C64.11 11.9683 62.8389 11.653 61.5495 11.4693Z" fill="white" stroke="#303030" stroke-miterlimit="10" stroke-linecap="round" stroke-linejoin="round"/>
<path d="M59.7093 13.6875L48.6141 12.1071C48.5092 12.0938 48.3615 12.0729 48.2553 12.063C47.9663 12.0343 47.666 12.0158 47.3745 12.0163C46.5972 12.0149 45.8156 12.1311 45.1037 12.3759C44.439 12.6029 43.8386 12.9398 43.3368 13.3464C42.8479 13.738 42.4581 14.201 42.121 14.6775C41.1482 16.0425 40.6249 17.5843 40.4673 19.135C40.3577 20.2285 40.4138 21.3457 40.5795 22.434C40.7947 23.7678 41.2078 25.1074 42.0168 26.3033C42.7442 27.3834 43.8706 28.3548 45.3695 28.7863C46.0607 28.9895 46.8086 29.0718 47.5458 29.0476C49.6142 28.9149 51.7743 28.6626 53.8072 28.3393C56.3651 27.9268 58.9605 27.3173 61.428 26.6525C61.9682 26.5068 62.5057 26.3232 63.0034 26.1049C64.3416 25.5249 65.4669 24.6421 66.1152 23.5586C66.491 22.9393 66.7145 22.2655 66.8011 21.5852C66.8906 20.8633 66.8344 20.1268 66.7089 19.4095C66.4764 18.1283 65.8861 16.8591 64.8091 15.8579C64.1937 15.2815 63.4274 14.803 62.5788 14.4481C61.6872 14.0729 60.7053 13.8294 59.7093 13.6875Z" fill="#ECEDF1" stroke="#303030" stroke-miterlimit="10" stroke-linecap="round" stroke-linejoin="round"/>
<path d="M99.6827 1.56758C97.867 0.866948 95.7952 0.884628 93.9914 1.61549C93.2962 1.89496 92.6365 2.2785 92.0499 2.74449C91.9397 2.82058 86.0412 7.96787 85.8894 8.10751C85.6618 8.31912 85.4419 8.54965 85.2414 8.78696C84.2371 9.97169 83.6014 11.4641 83.4429 13.0091" stroke="#303030" stroke-miterlimit="10" stroke-linecap="round" stroke-linejoin="round"/>
<path d="M108.872 28.3797C110.868 28.4996 112.923 28.4291 114.914 28.2444C116.761 28.0682 118.661 27.7871 120.476 27.3982C123.236 26.7895 126.64 25.7711 128.581 23.6162C129.647 22.4335 130.13 20.9886 130.082 19.4052C130.064 18.693 129.932 17.9776 129.666 17.3152C129.401 16.6497 129.001 16.0381 128.515 15.5127C126.496 13.3366 122.963 12.3271 120.129 11.7297C116.441 10.9922 112.633 10.6116 108.872 10.8215" stroke="#303030" stroke-miterlimit="10" stroke-linecap="round" stroke-linejoin="round"/>
<path d="M98.5306 15.1729C98.1226 15.7787 97.8147 16.4524 97.6132 17.154C97.3845 17.9458 97.2885 18.7774 97.2881 19.6006C97.2883 20.4238 97.3845 21.2552 97.6132 22.0472C97.8145 22.7488 98.1226 23.4225 98.5306 24.0283" stroke="#303030" stroke-miterlimit="10" stroke-linecap="round" stroke-linejoin="round"/>
<path d="M97.4201 12.912C94.3194 11.1362 90.3839 11.7361 87.9532 14.3546C85.2414 17.2716 85.2023 21.7839 87.8627 24.7475C90.2811 27.4451 94.2758 28.0898 97.4201 26.2892" stroke="#303030" stroke-miterlimit="10" stroke-linecap="round" stroke-linejoin="round"/>
</svg>
