<svg width="196" height="90" viewBox="0 0 196 90" fill="none" xmlns="http://www.w3.org/2000/svg">
<path d="M95.1415 1.60824L45.7049 1.60824L45.2224 1.61047C44.7989 1.62377 44.1882 1.62597 43.7625 1.65037C42.1121 1.72466 40.4172 1.89542 38.7858 2.1571C36.5637 2.51303 34.3316 3.0497 32.1909 3.74493C26.2369 5.67317 20.703 8.90648 16.1095 13.1411C3.92505 24.329 -0.821071 41.6055 3.95734 57.4073C7.57012 69.5134 16.5329 79.6058 28.1613 84.6642C33.0735 86.8154 38.4013 88.055 43.7625 88.2901C44.2071 88.3001 44.7811 88.3322 45.2224 88.33C45.3873 88.5229 150.01 88.1969 150.297 88.3333L150.78 88.33C151.902 88.3156 153.094 88.259 154.213 88.157C157.821 87.8333 161.41 87.0538 164.825 85.8518C176.271 81.8556 185.688 73.0505 190.405 61.9291C197.598 45.1316 193.376 25.5299 179.894 13.14C175.3 8.90648 169.766 5.67206 163.812 3.74383C161.67 3.0497 159.441 2.51192 157.217 2.15599C155.584 1.89653 153.892 1.72133 152.241 1.64926C151.796 1.63928 151.222 1.60714 150.781 1.60936L150.298 1.60713L100.862 1.60712" fill="white"/>
<path d="M95.1415 1.60824L45.7049 1.60824L45.2224 1.61047C44.7989 1.62378 44.1882 1.62597 43.7625 1.65037C42.1121 1.72466 40.4172 1.89542 38.7858 2.1571C36.5638 2.51303 34.3316 3.0497 32.1909 3.74493C26.2369 5.67317 20.703 8.90648 16.1095 13.1411C3.92505 24.329 -0.821069 41.6055 3.95734 57.4073C7.57011 69.5134 16.5329 79.6058 28.1614 84.6642C33.0735 86.8154 38.4013 88.055 43.7625 88.2901C44.2071 88.3001 44.7811 88.3322 45.2224 88.33C45.3873 88.5229 150.01 88.1969 150.297 88.3333L150.78 88.33C151.902 88.3156 153.094 88.259 154.213 88.157C157.821 87.8333 161.41 87.0538 164.825 85.8518C176.271 81.8556 185.688 73.0505 190.405 61.9291C197.598 45.1316 193.376 25.5299 179.894 13.14C175.3 8.90648 169.766 5.67206 163.812 3.74383C161.67 3.04971 159.441 2.51192 157.217 2.15599C155.584 1.89653 153.892 1.72133 152.241 1.64926C151.796 1.63928 151.222 1.60715 150.781 1.60936L150.298 1.60713L100.862 1.60713" stroke="#303030" stroke-miterlimit="10" stroke-linecap="round" stroke-linejoin="round"/>
<rect x="64.2881" y="1.60718" width="67.424" height="9.65816" rx="1" fill="white" stroke="#303030"/>
<rect x="90.2014" y="1.60718" width="15.597" height="9.65816" rx="1" fill="white" stroke="#303030"/>
<path d="M95.1269 11.2513L45.4497 11.2513L45.0779 11.2536C44.7543 11.2637 44.2795 11.2659 43.9525 11.2851C42.4162 11.3549 40.853 11.5339 39.3402 11.8153C37.4869 12.1608 35.637 12.6696 33.8677 13.3236C28.3651 15.3498 23.4067 18.8629 19.6599 23.3924C12.8415 31.578 10.2827 42.7466 12.8582 53.1069C15.3531 63.3479 22.6553 71.9624 32.318 76.062C36.4534 77.8303 40.9549 78.7534 45.4497 78.75L150.551 78.75L150.923 78.7478L151.296 78.741C152.294 78.7173 153.341 78.6476 154.335 78.5339C157.403 78.1838 160.439 77.4015 163.296 76.2229C172.882 72.2967 180.235 63.9389 182.938 53.8926C185.836 43.3184 183.346 31.802 176.341 23.3913C172.681 18.9698 167.869 15.5141 162.521 13.4688C160.63 12.7439 158.65 12.1845 156.66 11.8141C155.146 11.5339 153.585 11.3526 152.048 11.284C151.573 11.2671 151.024 11.2479 150.551 11.2502L100.874 11.2502" fill="#ECEDF1"/>
<path d="M95.1269 11.2513L45.4497 11.2513L45.0779 11.2536C44.7543 11.2637 44.2795 11.2659 43.9525 11.2851C42.4162 11.3549 40.853 11.5339 39.3402 11.8153C37.4869 12.1608 35.637 12.6696 33.8677 13.3236C28.3651 15.3498 23.4067 18.8629 19.6599 23.3924C12.8415 31.578 10.2827 42.7466 12.8582 53.1069C15.3531 63.3479 22.6553 71.9624 32.318 76.062C36.4534 77.8303 40.9549 78.7534 45.4497 78.75L150.551 78.75L150.923 78.7478L151.296 78.741C152.294 78.7173 153.341 78.6476 154.335 78.5339C157.403 78.1838 160.439 77.4015 163.296 76.2229C172.882 72.2967 180.235 63.9389 182.938 53.8926C185.836 43.3184 183.346 31.802 176.341 23.3913C172.681 18.9698 167.869 15.5141 162.521 13.4688C160.63 12.7439 158.65 12.1845 156.66 11.8141C155.146 11.5339 153.585 11.3526 152.048 11.284C151.573 11.2671 151.024 11.2479 150.551 11.2502L100.874 11.2502" stroke="#303030" stroke-miterlimit="10" stroke-linecap="round" stroke-linejoin="round"/>
<path d="M94.1323 44.9999C94.1274 46.9375 95.6171 48.5867 97.564 48.8006C99.8554 49.0581 101.869 47.2802 101.868 44.9999C101.869 42.7555 99.9132 40.9883 97.6521 41.1906C95.6671 41.3638 94.1283 43.0294 94.1323 44.9999Z" fill="#303030" stroke="#303030" stroke-miterlimit="10" stroke-linecap="round" stroke-linejoin="round"/>
<path d="M95.2649 24.5999L93.8973 24.5999" stroke="#303030" stroke-linecap="round" stroke-linejoin="round"/>
<path d="M102.103 24.5999C101.237 24.5999 100.735 24.5999 100.735 24.5999" stroke="#303030" stroke-linecap="round" stroke-linejoin="round"/>
<path d="M95.2649 28.0524L95.2649 1.60717L100.735 1.60717L100.735 28.0524C99.9154 28.4811 98.9498 28.6593 98.0001 28.6574C97.0514 28.6602 96.0846 28.4821 95.2649 28.0524Z" fill="white" stroke="#303030" stroke-miterlimit="10" stroke-linecap="round" stroke-linejoin="round"/>
</svg>
