<svg width="65" height="65" viewBox="0 0 65 65" fill="none" xmlns="http://www.w3.org/2000/svg">
<circle cx="32.5" cy="32.5" r="31.5" fill="#ECEDF1" stroke="#303030"/>
<circle cx="32.5" cy="32.5" r="28.5" fill="white" stroke="#303030"/>
<path d="M9.5 16L9.5 49" stroke="#303030" stroke-linecap="round"/>
<path d="M16 9.31299L16 55.687" stroke="#303030" stroke-linecap="round"/>
<path d="M22.6753 5.8313L22.6753 59.1687" stroke="#303030" stroke-linecap="round"/>
<path d="M29.0801 4.22266L29.0801 60.7773" stroke="#303030" stroke-linecap="round"/>
<path d="M55.6294 16L55.6294 49" stroke="#303030" stroke-linecap="round"/>
<path d="M49.1294 9.31299L49.1294 55.687" stroke="#303030" stroke-linecap="round"/>
<path d="M42.4541 5.8313L42.4541 59.1687" stroke="#303030" stroke-linecap="round"/>
<path d="M36.0493 4.22266L36.0493 60.7773" stroke="#303030" stroke-linecap="round"/>
<path d="M39.5 32.5C39.5 33.3284 38.8284 34 38 34L27 34C26.1716 34 25.5 33.3284 25.5 32.5C25.5 31.6716 26.1716 31 27 31L38 31C38.8284 31 39.5 31.6716 39.5 32.5Z" fill="#ECEDF1" stroke="#303030"/>
</svg>
