<svg width="84" height="96" viewBox="0 0 84 96" fill="none" xmlns="http://www.w3.org/2000/svg">
<path d="M75.1729 90.1384C74.4195 90.9071 73.417 91.4026 72.422 91.7793C71.15 92.2607 69.8098 92.5646 68.4692 92.7795C65.5022 93.2546 62.5015 93.5968 59.5104 93.877C56.4358 94.165 53.3563 94.3896 50.271 94.5213C47.2275 94.6512 44.1793 94.7028 41.1332 94.678C37.9621 94.652 34.7947 94.5588 31.6284 94.3799C28.667 94.2125 25.7082 93.9602 22.7605 93.6295C21.2596 93.461 19.7598 93.2824 18.2633 93.0765C16.7828 92.8731 15.3026 92.6741 13.8551 92.2922C12.6207 91.9663 11.3703 91.534 10.3054 90.8143C10.1299 90.6955 9.95953 90.5686 9.79808 90.4313C9.67894 90.3299 9.56649 90.1781 9.42471 90.1384C9.17455 90.0687 8.81229 90.1384 8.5536 90.1384C8.02174 90.1384 7.49026 90.1384 6.9584 90.1384C5.96743 90.1384 4.97609 90.1384 3.98512 90.1384C3.74127 90.1384 3.49669 90.1481 3.25544 90.108C2.82193 90.0356 2.41441 89.8341 2.09373 89.5335C1.76861 89.2287 1.53924 88.8275 1.44125 88.3929C1.39671 88.1955 1.38742 87.9984 1.38668 87.7968C1.38297 86.899 1.38668 86.0012 1.38668 85.103C1.38668 83.7327 1.38668 82.3621 1.38668 80.9918C1.38668 78.7207 1.38668 76.4496 1.38668 74.1786C1.38668 70.6204 1.38668 67.0621 1.38668 63.5043C1.38668 59.1581 1.38668 54.8116 1.38668 50.4654C1.38668 45.813 1.38668 41.1606 1.38668 36.5083C1.38668 32.1079 1.38668 27.7075 1.38668 23.3072C1.38668 19.6246 1.38668 15.9417 1.38668 12.2591C1.38668 9.84181 1.38668 7.42451 1.38668 5.0072C1.38668 4.19846 1.27311 3.29323 1.42639 2.49006C1.59489 1.60857 2.29825 0.897079 3.17787 0.717813C3.97844 0.554878 4.89184 0.672903 5.69873 0.672903C8.16539 0.672903 10.6317 0.672903 13.0983 0.672903C16.8139 0.672903 20.5292 0.672903 24.2448 0.672903C28.7056 0.672903 33.1665 0.672903 37.6277 0.672903C42.2478 0.672903 46.8679 0.672903 51.4879 0.672903C55.7733 0.672903 60.0586 0.672903 64.3442 0.672903C67.7106 0.672903 71.0766 0.672903 74.4429 0.672903C76.3773 0.672903 78.3118 0.672903 80.2458 0.672903C80.9521 0.672903 81.6358 0.630964 82.2575 1.03774C82.9233 1.4731 83.2644 2.20056 83.2703 2.98183C83.2804 4.27381 83.2703 5.56653 83.2703 6.8585C83.2703 9.73492 83.2703 12.611 83.2703 15.4874C83.2703 19.4658 83.2703 23.4445 83.2703 27.4229C83.2703 31.9527 83.2703 36.4823 83.2703 41.0122C83.2703 45.6052 83.2703 50.1982 83.2703 54.7915C83.2703 58.9614 83.2703 63.1309 83.2703 67.3008C83.2703 70.4942 83.2703 73.6879 83.2703 76.8813C83.2703 78.6201 83.2703 80.359 83.2703 82.0978C83.2703 84.0504 83.3423 86.0131 83.2696 87.9635C83.2362 88.8598 82.6739 89.67 81.831 89.9914C81.3129 90.1893 80.7565 90.1384 80.2128 90.1384C78.5326 90.1384 76.8528 90.1384 75.1729 90.1384Z" fill="#ECEDF1" stroke="#303030" stroke-miterlimit="10" stroke-linecap="round" stroke-linejoin="round"/>
<path d="M9.48348 90.1384C10.4785 90.1384 11.474 90.1384 12.469 90.1384C15.1079 90.1384 17.7468 90.1384 20.386 90.1384C24.1187 90.1384 27.8517 90.1384 31.5844 90.1384C35.8949 90.1384 40.2055 90.1384 44.516 90.1384C48.8451 90.1384 53.1739 90.1384 57.503 90.1384C61.328 90.1384 65.1531 90.1384 68.9782 90.1384C71.7655 90.1384 74.5529 90.1384 77.3406 90.1384C78.5561 90.1384 79.7728 90.1529 80.9883 90.1384C82.0464 90.1258 82.9873 89.4347 83.2185 88.3803C83.3833 87.6287 83.2705 86.758 83.2705 85.999C83.2705 83.8834 83.2705 81.7679 83.2705 79.6523C83.2705 76.4151 83.2705 73.178 83.2705 69.9408C83.2705 65.9602 83.2705 61.9796 83.2705 57.9986C83.2705 53.6525 83.2705 49.3067 83.2705 44.9605C83.2705 40.6273 83.2705 36.2937 83.2705 31.9606C83.2705 28.0182 83.2705 24.0758 83.2705 20.1331C83.2705 16.9598 83.2705 13.7861 83.2705 10.6127C83.2705 8.58623 83.2705 6.56012 83.2705 4.53364C83.2705 3.80507 83.3911 2.91542 83.1573 2.20801C82.8348 1.233 81.9269 0.677012 80.9285 0.673301C79.677 0.668476 78.4255 0.673301 77.1743 0.673301C74.4523 0.673301 71.7299 0.673301 69.0079 0.673301C65.2871 0.673301 61.5659 0.673301 57.8452 0.673301C53.5751 0.673301 49.3054 0.673301 45.0353 0.673301C40.672 0.673301 36.3084 0.673301 31.9452 0.673301C27.9438 0.673301 23.9428 0.673301 19.9414 0.673301C16.758 0.673301 13.5743 0.673301 10.3909 0.673301C8.48063 0.673301 6.57069 0.673301 4.66037 0.673301C3.85572 0.673301 3.03511 0.590163 2.33771 1.08045C1.57982 1.61343 1.38721 2.41994 1.38721 3.28806C1.38721 4.72627 1.38721 6.16447 1.38721 7.60268C1.38721 10.3451 1.38721 13.0875 1.38721 15.8304C1.38721 19.4992 1.38721 23.1676 1.38721 26.8365C1.38721 31.0531 1.38721 35.2697 1.38721 39.4868C1.38721 43.8734 1.38721 48.26 1.38721 52.6466C1.38721 56.8251 1.38721 61.0035 1.38721 65.1823C1.38721 68.7746 1.38721 72.3666 1.38721 75.959C1.38721 78.5923 1.38721 81.226 1.38721 83.8593C1.38721 85.1402 1.38721 86.4214 1.38721 87.7022C1.38721 88.6349 1.77691 89.4949 2.65357 89.9172C3.2964 90.2268 4.03536 90.1388 4.72607 90.1388C6.31162 90.1384 7.89755 90.1384 9.48348 90.1384Z" fill="white" stroke="#303030" stroke-miterlimit="10" stroke-linecap="round" stroke-linejoin="round"/>
<path d="M39.0645 88.8441H46.0076L45.5555 85.3564H39.5165L39.0645 88.8441Z" stroke="#303030" stroke-miterlimit="10" stroke-linecap="round" stroke-linejoin="round"/>
<path d="M83.2699 82.5996H1.38623" stroke="#303030" stroke-miterlimit="10" stroke-linecap="round" stroke-linejoin="round"/>
<path d="M9.4834 90.1384C10.6926 91.3718 12.4968 91.9545 14.1291 92.362C16.2903 92.9016 18.5358 93.1262 20.7434 93.3945C23.095 93.6803 25.4507 93.9145 27.8108 94.1138C30.0099 94.2994 32.2153 94.4297 34.4199 94.5225C36.8747 94.626 39.3302 94.6631 41.7869 94.6832C44.0709 94.7017 46.3569 94.6512 48.6398 94.5829C50.8296 94.5173 53.0216 94.4026 55.2062 94.2389C57.5474 94.0633 59.8849 93.8551 62.2184 93.5931C64.4798 93.3392 66.7601 93.095 68.9997 92.6882C70.8862 92.3457 72.9127 91.8479 74.4953 90.7137C74.7362 90.5411 74.9652 90.3504 75.1726 90.1384" stroke="#303030" stroke-miterlimit="10" stroke-linecap="round" stroke-linejoin="round"/>
<circle cx="42" cy="41.7139" r="28.5" fill="white" stroke="#303030"/>
<path d="M43.6134 43.5459C43.781 43.7238 43.9304 43.9277 44.0614 44.1574C44.1441 44.4311 44.1973 44.7217 44.2212 45.0293C44.1782 45.3585 44.0988 45.6916 43.9831 46.0285C43.7919 46.3581 43.5629 46.6761 43.2961 46.9826C42.9569 47.2503 42.5847 47.4908 42.1794 47.7044C41.7173 47.8496 41.2328 47.9546 40.726 48.0191C40.1889 47.9926 39.6451 47.9169 39.0945 47.7919C38.5486 47.5637 38.0146 47.2834 37.4926 46.951C37.0141 46.5168 36.5671 46.0346 36.1515 45.5045C35.8173 44.8881 35.5322 44.2353 35.2964 43.5459C35.1734 42.7996 35.113 42.0345 35.115 41.2505C35.2505 40.4501 35.4553 39.6531 35.7292 38.8595C36.1425 38.0969 36.6236 37.362 37.1728 36.6548C37.8501 36.0274 38.5854 35.4514 39.3789 34.9267C40.2723 34.526 41.2059 34.1965 42.1794 33.9383C43.2098 33.8377 44.2556 33.8217 45.3167 33.8903C46.3804 34.1349 47.4306 34.4686 48.4672 34.8915C49.4466 35.4898 50.3824 36.1719 51.2746 36.9378C52.051 37.8581 52.756 38.8466 53.3897 39.9034C53.857 41.074 54.2309 42.2882 54.5116 43.5459C54.5897 44.8604 54.5613 46.1868 54.4262 47.5251C54.0725 48.8521 53.6098 50.1554 53.038 51.4351C52.2546 52.6312 51.3715 53.768 50.3889 54.8453C49.2256 55.7706 47.9839 56.6046 46.6638 57.3474C45.2161 57.8812 43.7213 58.2996 42.1794 58.6026C40.5807 58.6584 38.9737 58.5855 37.3583 58.3839C35.7679 57.9211 34.2114 57.3294 32.6887 56.6087C31.2759 55.6401 29.9382 54.5562 28.6758 53.3568C27.6016 51.9505 26.6386 50.4556 25.7867 48.8722C25.1864 47.1473 24.7235 45.3718 24.3982 43.5459C24.3647 41.6631 24.4821 39.7754 24.7502 37.8828C25.322 36.0291 26.0428 34.2194 26.9124 32.4537C28.0661 30.8242 29.3509 29.2856 30.767 27.838C32.4164 26.6149 34.1644 25.5229 36.0112 24.5619C38.0132 23.8951 40.0693 23.3878 42.1794 23.0401C44.3464 23.029 46.5147 23.1908 48.6844 23.5255C50.8014 24.2064 52.8643 25.0561 54.873 26.0747C56.7193 27.4134 58.4588 28.8992 60.0915 30.532C61.4635 32.4244 62.6845 34.4256 63.7545 36.5357C64.4879 38.8149 65.0397 41.1516 65.4097 43.5459C65.3985 45.997 65.1922 48.4459 64.791 50.8928C64.001 53.2731 63.0223 55.5892 61.8548 57.8409C60.3309 59.9039 58.6442 61.8443 56.7947 63.6621C54.6593 65.1831 52.4049 66.5331 50.0315 67.7122C47.4752 68.5121 44.8578 69.1083 42.1794 69.5007C39.4442 69.4671 36.7145 69.2164 33.9905 68.7487C31.3469 67.8496 28.7777 66.7419 26.2829 65.4255C24.0032 63.7165 21.8618 61.8289 19.859 59.7626C18.1891 57.3842 16.7101 54.8766 15.4219 52.2399C14.5554 49.4064 13.9148 46.5084 13.5 43.5459" stroke="#303030"/>
</svg>
