<svg width="84" height="45" viewBox="0 0 84 45" fill="none" xmlns="http://www.w3.org/2000/svg">
<path d="M4.28613 12.239H79.7139V14.7974H4.28613V12.239Z" fill="white" stroke="#303030"/>
<path d="M7.80273 19.9604H77.6343V42.8915C77.6343 43.3203 77.3853 43.6827 76.9602 43.7388C69.642 44.7052 15.3642 44.6107 8.44153 43.7324C8.0312 43.6803 7.80273 43.336 7.80273 42.9224V19.9604Z" fill="#ECEDF1" stroke="#303030"/>
<path fill-rule="evenodd" clip-rule="evenodd" d="M79.714 0.93042V4.96569H4.28644V0.93042H1.06299V35.0448H15.031V34.5075H68.9693V35.0448H82.9374V0.93042H79.714ZM68.9691 28.3289H15.0308V27.7916H4.28613V7.52393H79.7138V27.7916H68.9691V28.3289Z" fill="white"/>
<path d="M79.714 4.96569V5.46569C79.9901 5.46569 80.214 5.24183 80.214 4.96569H79.714ZM79.714 0.93042V0.43042C79.4378 0.43042 79.214 0.654278 79.214 0.93042L79.714 0.93042ZM4.28644 4.96569H3.78644C3.78644 5.24183 4.01029 5.46569 4.28644 5.46569V4.96569ZM4.28644 0.93042H4.78644C4.78644 0.654278 4.56258 0.43042 4.28644 0.43042V0.93042ZM1.06299 0.93042V0.43042C0.786846 0.43042 0.562988 0.654278 0.562988 0.93042L1.06299 0.93042ZM1.06299 35.0448H0.562988C0.562988 35.3209 0.786846 35.5448 1.06299 35.5448V35.0448ZM15.031 35.0448V35.5448C15.3071 35.5448 15.531 35.3209 15.531 35.0448H15.031ZM15.031 34.5075V34.0075C14.7548 34.0075 14.531 34.2314 14.531 34.5075H15.031ZM68.9693 34.5075H69.4693C69.4693 34.2314 69.2454 34.0075 68.9693 34.0075V34.5075ZM68.9693 35.0448H68.4693C68.4693 35.3209 68.6931 35.5448 68.9693 35.5448V35.0448ZM82.9374 35.0448V35.5448C83.2136 35.5448 83.4374 35.3209 83.4374 35.0448H82.9374ZM82.9374 0.93042H83.4374C83.4374 0.654278 83.2136 0.43042 82.9374 0.43042V0.93042ZM15.0308 28.3289H14.5308C14.5308 28.605 14.7547 28.8289 15.0308 28.8289V28.3289ZM68.9691 28.3289V28.8289C69.2453 28.8289 69.4691 28.605 69.4691 28.3289H68.9691ZM15.0308 27.7916H15.5308C15.5308 27.5155 15.3069 27.2916 15.0308 27.2916V27.7916ZM4.28613 27.7916H3.78613C3.78613 28.0678 4.00999 28.2916 4.28613 28.2916V27.7916ZM4.28613 7.52393V7.02393C4.00999 7.02393 3.78613 7.24778 3.78613 7.52393H4.28613ZM79.7138 7.52393H80.2138C80.2138 7.24778 79.99 7.02393 79.7138 7.02393V7.52393ZM79.7138 27.7916V28.2916C79.99 28.2916 80.2138 28.0678 80.2138 27.7916H79.7138ZM68.9691 27.7916V27.2916C68.693 27.2916 68.4691 27.5155 68.4691 27.7916H68.9691ZM80.214 4.96569V0.93042H79.214V4.96569H80.214ZM4.28644 5.46569H79.714V4.46569H4.28644V5.46569ZM3.78644 0.93042V4.96569H4.78644V0.93042H3.78644ZM1.06299 1.43042H4.28644V0.43042H1.06299V1.43042ZM1.56299 35.0448V0.93042H0.562988V35.0448H1.56299ZM15.031 34.5448H1.06299V35.5448H15.031V34.5448ZM14.531 34.5075V35.0448H15.531V34.5075H14.531ZM68.9693 34.0075H15.031V35.0075H68.9693V34.0075ZM69.4693 35.0448V34.5075H68.4693V35.0448H69.4693ZM82.9374 34.5448H68.9693V35.5448H82.9374V34.5448ZM82.4374 0.93042V35.0448H83.4374V0.93042H82.4374ZM79.714 1.43042H82.9374V0.43042H79.714V1.43042ZM15.0308 28.8289H68.9691V27.8289H15.0308V28.8289ZM14.5308 27.7916V28.3289H15.5308V27.7916H14.5308ZM4.28613 28.2916H15.0308V27.2916H4.28613V28.2916ZM3.78613 7.52393V27.7916H4.78613V7.52393H3.78613ZM79.7138 7.02393H4.28613V8.02393H79.7138V7.02393ZM80.2138 27.7916V7.52393H79.2138V27.7916H80.2138ZM68.9691 28.2916H79.7138V27.2916H68.9691V28.2916ZM69.4691 28.3289V27.7916H68.4691V28.3289H69.4691Z" fill="#303030"/>
<path d="M4.28628 27.7919H15.031V35.0445H1.06299C1.06299 30.3114 1.06299 6.17011 1.06299 0.930176H4.28644L4.28628 27.7919Z" fill="white" stroke="#303030" stroke-miterlimit="10" stroke-linecap="round" stroke-linejoin="round"/>
<path d="M79.7139 27.7919H68.9692V35.0445H82.9374C82.9374 30.3114 82.9374 6.17011 82.9374 0.930176H79.7139V27.7919Z" fill="white" stroke="#303030" stroke-miterlimit="10" stroke-linecap="round" stroke-linejoin="round"/>
<path d="M7.80273 12.2883C7.80273 11.736 8.25045 11.2883 8.80273 11.2883H76.6343C77.1866 11.2883 77.6343 11.736 77.6343 12.2883V19.9604H7.80273V12.2883Z" fill="#ECEDF1" stroke="#303030"/>
<path d="M4.28613 19.9604H79.7139V22.5188H4.28613V19.9604Z" fill="white" stroke="#303030"/>
<path d="M4.28613 4.90332H79.7139V7.46167H4.28613V4.90332Z" fill="white" stroke="#303030"/>
</svg>
