<svg width="106" height="105" viewBox="0 0 106 105" fill="none" xmlns="http://www.w3.org/2000/svg">
<path d="M104.382 1H1.38184V104H104.382V1Z" fill="white" stroke="#303030" stroke-miterlimit="10" stroke-linecap="round" stroke-linejoin="round"/>
<path d="M7.81978 15.8062C7.83497 13.8659 8.49829 11.9759 9.73661 10.4762C10.9677 8.98501 12.7105 7.95295 14.609 7.58782C15.4544 7.42508 16.3005 7.43769 17.1554 7.43769C18.5385 7.43769 19.9215 7.43769 21.3045 7.43769C23.5577 7.43769 25.8105 7.43769 28.0634 7.43769C30.9459 7.43769 33.8286 7.43769 36.711 7.43769C39.9828 7.43769 43.2546 7.43769 46.5264 7.43769C49.9473 7.43769 53.3682 7.43769 56.7888 7.43769C60.1183 7.43769 63.4478 7.43769 66.7772 7.43769C69.7753 7.43769 72.7729 7.43769 75.7709 7.43769C78.1968 7.43769 80.6228 7.43769 83.0489 7.43769C84.6627 7.43769 86.2762 7.43769 87.8902 7.43769C88.5169 7.43769 89.145 7.4243 89.7715 7.44001C91.703 7.48868 93.5961 8.21045 95.0551 9.4807C96.5131 10.7502 97.5124 12.5092 97.8289 14.419C97.9636 15.2317 97.945 16.0467 97.945 16.8663C97.945 18.2839 97.945 19.7014 97.945 21.1189C97.945 23.3981 97.945 25.6772 97.945 27.9561C97.945 30.8563 97.945 33.7565 97.945 36.6567C97.945 39.9378 97.945 43.2189 97.945 46.4999C97.945 49.9216 97.945 53.3432 97.945 56.7649C97.945 60.0869 97.945 63.4089 97.945 66.7307C97.945 69.7125 97.945 72.6944 97.945 75.6765C97.945 78.0779 97.945 80.4794 97.945 82.8811C97.945 84.4621 97.945 86.0429 97.945 87.624C97.945 88.2855 97.962 88.9504 97.9345 89.6119C97.8539 91.548 97.0433 93.4059 95.7537 94.8394C94.4587 96.2793 92.6503 97.1991 90.743 97.4806C89.9764 97.5936 89.1918 97.5624 88.4191 97.5624C86.9673 97.5624 85.5155 97.5624 84.0637 97.5624C81.7588 97.5624 79.4542 97.5624 77.1491 97.5624C74.2316 97.5624 71.3139 97.5624 68.3964 97.5624C65.1063 97.5624 61.8162 97.5624 58.5262 97.5624C55.104 97.5624 51.6818 97.5624 48.2596 97.5624C44.9456 97.5624 41.6313 97.5624 38.3173 97.5624C35.3517 97.5624 32.386 97.5624 29.4204 97.5624C27.0434 97.5624 24.6667 97.5624 22.2897 97.5624C20.7419 97.5624 19.1941 97.5624 17.646 97.5624C16.9669 97.5624 16.2745 97.5946 15.5965 97.5413C13.6722 97.3902 11.8097 96.5991 10.4156 95.2519C9.02822 93.9116 8.09556 92.1127 7.87951 90.1874C7.79557 89.4409 7.82029 88.6851 7.82029 87.935C7.82029 86.4493 7.82029 84.9637 7.82029 83.478C7.82029 81.1476 7.82029 78.8172 7.82029 76.4871C7.82029 73.5524 7.82029 70.6176 7.82029 67.6829C7.82029 64.3841 7.82029 61.0855 7.82029 57.7867C7.82029 54.3642 7.82029 50.9418 7.82029 47.5191C7.82029 44.2133 7.82029 40.9073 7.82029 37.6012C7.82029 34.6521 7.82029 31.703 7.82029 28.7538C7.82029 26.4018 7.82029 24.0498 7.82029 21.698C7.82029 20.1834 7.82029 18.6691 7.82029 17.1545C7.81978 16.7051 7.81978 16.2558 7.81978 15.8062Z" fill="#ECEDF1" stroke="#303030" stroke-miterlimit="10" stroke-linecap="round" stroke-linejoin="round"/>
<path d="M51.2324 50.603L88.5 88.9999" stroke="#303030" stroke-linecap="round" stroke-linejoin="round" stroke-dasharray="4 7"/>
<path d="M46.5 23L88.5 23" stroke="#303030" stroke-linecap="round" stroke-linejoin="round" stroke-dasharray="4 7"/>
<path d="M24.5 88L24.5 47.6624" stroke="#303030" stroke-linecap="round" stroke-linejoin="round" stroke-dasharray="4 7"/>
<path d="M104.382 1H1.38184V104H104.382V1Z" stroke="#303030" stroke-miterlimit="10" stroke-linecap="round" stroke-linejoin="round"/>
<path d="M32.4037 39.4852L32.4151 39.3742L32.4302 39.2712L32.4421 39.1699L32.453 39.0695L32.4626 38.9698L32.4712 38.8709L32.4784 38.7728L32.4846 38.6757L32.4895 38.5792L32.4933 38.4837L32.4958 38.3889L32.4972 38.2949L32.4973 38.2018L32.4962 38.1095L32.494 38.018L32.4906 37.9272L32.4861 37.8374L32.4803 37.7483L32.4734 37.66L32.4652 37.5726L32.4559 37.4861L32.4454 37.4002L32.4337 37.3153L32.4207 37.2312L32.4067 37.1479L32.3915 37.0653L32.3751 36.9837L32.3575 36.9028L32.3388 36.8228L32.3187 36.7436L32.2975 36.6651L32.2751 36.5875L32.2515 36.5107L32.2267 36.4348L32.2139 36.3971L32.2008 36.3596L32.1874 36.3223L32.1737 36.2852L32.1597 36.2483L32.1455 36.2116L32.131 36.1751L32.1162 36.1388L32.1009 36.1028L32.0854 36.0669L32.0696 36.0313L32.0535 35.996L32.0371 35.9607L32.0204 35.9257L32.0035 35.8909L31.9863 35.8563L31.9687 35.8219L31.9509 35.7876L31.9328 35.7535L31.9144 35.7197L31.8957 35.6861L31.8766 35.6527L31.8572 35.6195L31.8375 35.5866L31.8176 35.5539L31.7973 35.5213L31.7768 35.4889L31.756 35.4568L31.7349 35.4248L31.7135 35.3931L31.6918 35.3614L31.6698 35.33L31.6476 35.2989L31.6251 35.2679L31.6021 35.2372L31.5789 35.2068L31.5554 35.1765L31.5316 35.1464L31.5075 35.1165L31.4831 35.0868L31.4585 35.0573L31.4335 35.028L31.4082 34.9989L31.3826 34.9699L31.3568 34.9412L31.3307 34.9127L31.3043 34.8843L31.2775 34.8563L31.2504 34.8286L31.223 34.8009L31.1954 34.7735L31.1674 34.7462L31.1391 34.7192L31.1106 34.6924L31.0818 34.6657L31.0527 34.6393L31.0234 34.6131L30.9937 34.587L30.9637 34.5612L30.9334 34.5354L30.872 34.4849L30.3764 34.0777L29.8831 33.66L29.3921 33.2315L28.9034 32.7923L28.4171 32.3426L27.933 31.8822L27.4511 31.411L26.9716 30.9293L26.7326 30.6828L26.4937 30.4306L26.2551 30.1727L26.0168 29.9091L25.7788 29.6396L25.5409 29.3644L25.3034 29.0833L25.0661 28.7966L24.8291 28.5041L24.5924 28.2058L24.3559 27.9017L24.1196 27.5918L23.8836 27.2763L23.6479 26.9551L23.4123 26.628L23.177 26.2952L23.6782 25.7868L24.1723 25.2707L24.0881 25.3324L24.0079 25.3893L23.9691 25.416L23.9313 25.4414L23.8945 25.4657L23.8586 25.4888L23.8236 25.5107L23.7896 25.5315L23.7565 25.5511L23.7244 25.5694L23.6933 25.5865L23.678 25.5948L23.663 25.6026L23.6482 25.6101L23.6337 25.6173L23.6195 25.6243L23.6054 25.631L23.5915 25.6374L23.5777 25.6436L23.5641 25.6496L23.5506 25.6554L23.537 25.6609L23.5238 25.6662L23.5105 25.6713L23.4973 25.6762L23.4842 25.681L23.4712 25.6854L23.4583 25.6896L23.4455 25.6938L23.4329 25.6975L23.4203 25.7011L23.4077 25.7045L23.3954 25.7076L23.3831 25.7105L23.3709 25.7133L23.3589 25.716L23.3469 25.7183L23.3351 25.7204L23.3232 25.7224L23.3116 25.724L23.3001 25.7255L23.2886 25.7268L23.2771 25.7279L23.2659 25.7288L23.2547 25.7294L23.2436 25.7298L23.2326 25.73C23.2326 25.73 23.2271 25.7301 23.2217 25.73L23.2108 25.7297L23.2001 25.7294L23.1895 25.7286L23.179 25.7278L23.1685 25.7267L23.1582 25.7254L23.1479 25.7238C23.1479 25.7238 23.1429 25.7231 23.1378 25.7221L23.1277 25.7202L23.1178 25.718L23.1079 25.7156L23.0981 25.7131L23.0884 25.7102L23.0789 25.7072L23.0695 25.704C23.0695 25.704 23.0648 25.7024 23.0601 25.7006C23.0601 25.7006 23.0555 25.6989 23.0509 25.697L23.0417 25.6931L23.0327 25.6892C23.0327 25.6892 23.0282 25.6869 23.0237 25.6848L23.0149 25.6803L23.0061 25.6756L22.9974 25.6708L22.9888 25.6656C22.9888 25.6656 22.9846 25.6631 22.9804 25.6603L22.9719 25.6548L22.9637 25.649L22.9555 25.6429L22.9474 25.6368L22.9395 25.6302L22.9316 25.6236L22.9238 25.6167L22.916 25.6097L22.9108 25.6048L22.9054 25.5993L22.8996 25.5936L22.8935 25.5874L22.8803 25.5737L22.8659 25.5584L22.8504 25.5414L22.8337 25.5228L22.7969 25.4804L22.7553 25.4314L22.7091 25.3758L22.6024 25.2447L22.3325 24.9028L21.9869 24.4546L21.445 24.9966L21.4367 25.0049L21.4281 25.0132L21.4194 25.0214L21.4106 25.0295L21.4017 25.0375L21.3926 25.0453L21.3834 25.0531L21.3741 25.0607L21.3647 25.0682L21.3552 25.0755L21.3455 25.0828L21.3358 25.0899L21.3259 25.0969L21.3158 25.1038L21.3057 25.1105L21.2954 25.1172L21.2851 25.1237L21.2745 25.1301L21.2639 25.1364L21.2532 25.1425L21.2423 25.1486L21.2314 25.1544L21.2206 25.1601L21.2096 25.1658L21.1985 25.1714L21.1874 25.1767L21.1762 25.1819L21.1648 25.1869L21.1535 25.1918L21.142 25.1965L21.1304 25.2011L21.1188 25.2054L21.1071 25.2096L21.0954 25.2136L21.0836 25.2175L21.0717 25.2214L21.0599 25.225L21.0481 25.2284L21.0361 25.2316L21.0242 25.2346L21.0121 25.2375L21 25.2402L20.9879 25.2428L20.9759 25.2453L20.9637 25.2476L20.9515 25.2496L20.9394 25.2515L20.9272 25.2534L20.915 25.2549L20.903 25.2564L20.8908 25.2577L20.8786 25.2588L20.8665 25.2598L20.8544 25.2605L20.8422 25.2611L20.8302 25.2616L20.8181 25.2618L20.8061 25.2619L20.7941 25.2619L20.782 25.2617L20.77 25.2613L20.7581 25.2607L20.7463 25.26L20.7344 25.2593L20.7226 25.2583L20.7108 25.2571L20.6988 25.2558L20.687 25.2543L20.6752 25.2526L20.6632 25.2508L20.6514 25.2489L20.6394 25.2468L20.6275 25.2445L20.6156 25.2421L20.6038 25.2395L20.5919 25.2367L20.58 25.2338L20.5682 25.2307L20.5565 25.2274L20.5447 25.224L20.5329 25.2205L20.5212 25.2168L20.5095 25.2128L20.4979 25.2087L20.4863 25.2043L20.4748 25.2L20.4633 25.1955L20.4518 25.1908L20.4405 25.186L20.4291 25.1809L20.4179 25.1757L20.4067 25.1703L20.3956 25.1647L20.3846 25.1591L20.3737 25.1533L20.3628 25.1472L20.3521 25.1411L20.3415 25.1348L20.3307 25.1284L20.3201 25.1219L20.3096 25.1152L20.2992 25.1085L20.289 25.1016L20.2788 25.0946L20.2687 25.0874L20.2587 25.08L20.2488 25.0725L20.239 25.0649L20.2293 25.0572L20.2198 25.0493L20.2104 25.0414L20.2011 25.0333L20.1919 25.0251L20.1828 25.0167L20.1739 25.0083L20.1652 24.9998L20.1566 24.9913L20.1482 24.9826L20.1399 24.9738L20.1317 24.9648L20.1236 24.9558L20.1157 24.9467L20.108 24.9375L20.1004 24.9282L20.0929 24.9188L20.0855 24.9095L20.0783 24.9001L20.0712 24.8906L19.3396 23.863L18.5544 22.7818L18.5495 22.7749L18.5444 22.7679L18.5394 22.7608L18.5345 22.7536L18.5297 22.7464L18.5248 22.7392L18.5201 22.7318L18.5154 22.7244L18.5108 22.7169L18.5062 22.7095L18.5018 22.7018L18.4974 22.6941L18.4931 22.6864L18.4889 22.6786L18.4846 22.6707L18.4805 22.6627L18.4764 22.6548L18.4724 22.6467L18.4684 22.6386L18.4646 22.6304L18.4607 22.6222L18.457 22.6138L18.4532 22.6055L18.4496 22.5971L18.4461 22.5885L18.4426 22.5799L18.4392 22.5712L18.436 22.5627L18.4328 22.554L18.4297 22.5453L18.4267 22.5365L18.4237 22.5276L18.4208 22.5187L18.418 22.5097L18.4153 22.5007L18.4128 22.4917L18.4103 22.4826L18.4078 22.4734L18.4054 22.4643L18.4033 22.4551L18.4011 22.4459L18.399 22.4366L18.397 22.4273L18.3952 22.418L18.3934 22.4087L18.3917 22.3993L18.3901 22.3898L18.3886 22.3804L18.3873 22.3708L18.386 22.3613L18.3849 22.3518L18.3838 22.3422L18.3829 22.3326L18.382 22.323L18.3813 22.3134L18.3806 22.3037L18.3801 22.294L18.3796 22.2844L18.3792 22.2746L18.3787 22.2553L18.3786 22.2359L18.379 22.2164L18.3793 22.2066L18.3798 22.197L18.3803 22.1873L18.381 22.1777L18.3818 22.168L18.3826 22.1582L18.3836 22.1486L18.3845 22.1389L18.3858 22.1293L18.387 22.1196L18.3883 22.1101L18.3897 22.1004L18.3913 22.0909L18.3929 22.0813L18.3947 22.0718L18.3965 22.0623L18.3984 22.0528L18.4005 22.0433L18.4027 22.0339L18.4049 22.0246L18.4074 22.0152L18.4099 22.0059L18.4124 21.9966L18.4151 21.9874L18.4177 21.9782L18.4206 21.9691L18.4235 21.9599L18.4266 21.9508L18.4296 21.9418L18.4327 21.9328L18.4361 21.9239L18.4395 21.915L18.443 21.9062L18.4465 21.8973L18.4501 21.8887L18.4537 21.88L18.4576 21.8713L18.4616 21.8627L18.4655 21.8541L18.4697 21.8457L18.4738 21.8372L18.478 21.8289L18.4822 21.8206L18.4866 21.8124L18.491 21.8043L18.4955 21.7962L18.5001 21.7882L18.5047 21.7802L18.5094 21.7724L18.5141 21.7646L18.5189 21.7568L18.5239 21.7492L18.5288 21.7416L18.5339 21.7341L18.539 21.7266L18.5441 21.7193L18.5493 21.7119L18.5546 21.7047L18.56 21.6974L18.5654 21.6903L18.5708 21.6832L18.5764 21.6762L18.5819 21.6692L17.0493 20.1368L17.6883 19.4978L6.12081 7.93033L3.37258 9.062L9.31682 3.06209L8.30253 5.74861L19.8697 17.3158L20.5087 16.6768L22.041 18.2094L22.048 18.2038L22.055 18.1983L22.0622 18.1928L22.0693 18.1874L22.0765 18.1821L22.0838 18.1768L22.0911 18.1716L22.0985 18.1664L22.106 18.1613L22.1135 18.1562L22.1211 18.1513L22.1287 18.1463L22.1364 18.1415L22.1442 18.1368L22.1521 18.1321L22.1601 18.1275L22.168 18.1229L22.1761 18.1184L22.1842 18.114L22.1924 18.1096L22.2007 18.1054L22.2091 18.1012L22.2175 18.0971L22.226 18.093L22.2345 18.089L22.2431 18.085L22.2518 18.0811L22.2605 18.0775L22.2692 18.0739L22.278 18.0704L22.2868 18.0669L22.2958 18.0635L22.3047 18.0601L22.3136 18.057L22.3227 18.054L22.3317 18.051L22.3409 18.0481L22.3501 18.0452L22.3593 18.0425L22.3684 18.0399L22.3777 18.0373L22.387 18.0348L22.3964 18.0324L22.4057 18.0301L22.4152 18.0279L22.4247 18.0259L22.4341 18.0239L22.4436 18.0221L22.4532 18.0203L22.4628 18.0186L22.4724 18.017L22.482 18.0156L22.4916 18.0143L22.5012 18.0131L22.5109 18.0118L22.5205 18.0109L22.5302 18.0099L22.54 18.0091L22.5496 18.0083L22.5593 18.0076L22.5689 18.0071L22.5786 18.0067L22.5884 18.0063L22.6078 18.0059L22.6273 18.0061L22.6466 18.0065L22.6564 18.0069L22.666 18.0074L22.6757 18.0079L22.6853 18.0086L22.695 18.0093L22.7045 18.0102L22.7142 18.0111L22.7237 18.0122L22.7333 18.0133L22.7428 18.0146L22.7523 18.016L22.7618 18.0174L22.7713 18.019L22.7807 18.0207L22.79 18.0225L22.7993 18.0243L22.8086 18.0263L22.8179 18.0284L22.8271 18.0306L22.8362 18.0327L22.8454 18.0351L22.8546 18.0376L22.8636 18.0401L22.8727 18.0426L22.8816 18.0453L22.8907 18.0481L22.8996 18.051L22.9084 18.054L22.9172 18.057L22.9259 18.0601L22.9346 18.0633L22.9432 18.0665L22.9519 18.0699L22.9605 18.0734L22.969 18.0769L22.9775 18.0805L22.9858 18.0843L22.9941 18.088L23.0024 18.0919L23.0106 18.0958L23.0186 18.0997L23.0267 18.1037L23.0347 18.1078L23.0427 18.1119L23.0505 18.1162L23.0584 18.1204L23.0661 18.1247L23.0737 18.1292L23.0813 18.1337L23.0888 18.1382L23.0963 18.1428L23.1036 18.1475L23.111 18.1523L23.1182 18.1571L23.1255 18.1619L23.1326 18.1669L23.1397 18.1718L23.1467 18.1769L23.1536 18.1818L24.2348 18.967L25.2624 19.6986L25.272 19.7057L25.2814 19.713L25.2907 19.7203L25.3 19.7279L25.3093 19.7355L25.3184 19.7433L25.3275 19.7511L25.3366 19.7592L25.3455 19.7674L25.3543 19.7757L25.363 19.7842L25.3716 19.7928L25.38 19.8015L25.3885 19.8104L25.3968 19.8194L25.405 19.8286L25.4131 19.8379L25.4211 19.8473L25.4289 19.8569L25.4366 19.8665L25.4442 19.8763L25.4517 19.8862L25.4591 19.8962L25.4663 19.9064L25.4733 19.9165L25.4802 19.9268L25.487 19.9372L25.4936 19.9477L25.5001 19.9583L25.5065 19.969L25.5127 19.9798L25.5188 19.9905L25.5249 20.0014L25.5307 20.0122L25.5363 20.0232L25.5419 20.0343L25.5473 20.0456L25.5525 20.0568L25.5576 20.0681L25.5624 20.0795L25.5671 20.091L25.5716 20.1024L25.5759 20.114L25.5803 20.1256L25.5844 20.1372L25.5884 20.1489L25.5921 20.1606L25.5956 20.1723L25.599 20.1842L25.6023 20.1959L25.6054 20.2077L25.6083 20.2195L25.6111 20.2315L25.6137 20.2433L25.6161 20.2551L25.6184 20.2671L25.6205 20.279L25.6224 20.2909L25.6242 20.3028L25.6259 20.3147L25.6274 20.3265L25.6287 20.3384L25.6299 20.3503L25.6309 20.3621L25.6316 20.3739L25.6323 20.3858L25.6329 20.3977L25.6333 20.4097L25.6335 20.4217L25.6335 20.4338L25.6334 20.4458L25.6332 20.4578L25.6327 20.4699L25.6321 20.4821L25.6314 20.4942L25.6304 20.5062L25.6293 20.5184L25.628 20.5306L25.6265 20.5427L25.625 20.5549L25.6231 20.5671L25.6212 20.5792L25.6192 20.5914L25.6169 20.6035L25.6145 20.6156L25.6118 20.6277L25.6091 20.6398L25.6062 20.6518L25.6032 20.6638L25.6 20.6757L25.5965 20.6877L25.5928 20.6995L25.589 20.7114L25.5851 20.7232L25.5811 20.7349L25.5769 20.7466L25.5726 20.7582L25.568 20.7698L25.5633 20.7813L25.5584 20.7926L25.5534 20.804L25.5482 20.8152L25.5429 20.8263L25.5373 20.8374L25.5316 20.8484L25.5258 20.8592L25.52 20.8701L25.514 20.881L25.5079 20.8917L25.5016 20.9023L25.4952 20.9128L25.4887 20.9232L25.482 20.9335L25.4753 20.9436L25.4684 20.9536L25.4614 20.9635L25.4543 20.9733L25.447 20.983L25.4396 20.9925L25.4322 21.0019L25.4245 21.0112L25.4168 21.0204L25.409 21.0295L25.401 21.0384L25.3929 21.0472L25.3847 21.0559L25.3764 21.0645L25.3679 21.0729L24.826 21.6149L25.2741 21.9604L25.616 22.2303L25.7471 22.337L25.8028 22.3833L25.8518 22.4248L25.8942 22.4616L25.9128 22.4783L25.9298 22.4938L25.9451 22.5082L25.9588 22.5214L25.9649 22.5275L25.9707 22.5333L25.976 22.5389L25.981 22.5441L25.988 22.5518L25.9949 22.5596L26.0015 22.5675L26.008 22.5754L26.0142 22.5835L26.0202 22.5917L26.026 22.6L26.0316 22.6084L26.0369 22.6169L26.0421 22.6254L26.0469 22.6341L26.0516 22.6429L26.0561 22.6517C26.0561 22.6517 26.0584 22.6562 26.0604 22.6607L26.0644 22.6697L26.0683 22.6789L26.0719 22.6881L26.0754 22.6974L26.0785 22.7068L26.0815 22.7163L26.0844 22.726L26.087 22.7358C26.087 22.7358 26.0883 22.7407 26.0894 22.7457L26.0916 22.7556L26.0935 22.7657C26.0935 22.7657 26.0944 22.7708 26.0952 22.7759L26.0967 22.7861L26.0981 22.7964L26.0992 22.8069L26.1 22.8174C26.1 22.8174 26.1005 22.8227 26.1007 22.828L26.1011 22.8387L26.1013 22.8496L26.1013 22.8605L26.1012 22.8715L26.1007 22.8826L26.1001 22.8938L26.0993 22.905L26.0982 22.9165L26.0969 22.928L26.0954 22.9396L26.0937 22.9511L26.0918 22.963L26.0896 22.9748L26.0873 22.9868L26.0847 22.9988L26.0819 23.011L26.079 23.0233L26.0757 23.0358L26.0724 23.0483L26.0687 23.0609L26.065 23.0736L26.0609 23.0864L26.0567 23.0993L26.0522 23.1122L26.0476 23.1252L26.0427 23.1384L26.0376 23.1517L26.0323 23.1649L26.0267 23.1785L26.0209 23.192L26.015 23.2056L26.0087 23.2194L26.0023 23.2333L25.9956 23.2473L25.9886 23.2615L25.9813 23.276L25.9738 23.2907L25.966 23.3058L25.9578 23.321L25.9406 23.3522L25.9223 23.3843L25.9027 23.4174L25.882 23.4514L25.86 23.4864L25.8369 23.5223L25.8127 23.5591L25.7872 23.5969L25.7605 23.6356L25.7037 23.7159L25.642 23.8001L26.1581 23.306L26.6664 22.8048L26.9993 23.0401L27.3263 23.2756L27.6476 23.5114L27.963 23.7474L28.2729 23.9837L28.577 24.2202L28.8753 24.4569L29.1678 24.6939L29.4546 24.9311L29.7356 25.1687L30.0109 25.4065L30.2803 25.6446L30.544 25.8829L30.8018 26.1215L31.054 26.3604L31.3005 26.5994L31.7822 27.0789L32.2534 27.5607L32.7139 28.0448L33.1636 28.5312L33.6027 29.0199L34.0312 29.5109L34.4489 30.0042L34.8561 30.4998L34.9067 30.5612L34.9324 30.5915L34.9582 30.6215L34.9843 30.6512L35.0105 30.6805L35.0369 30.7096L35.0636 30.7384L35.0904 30.7669L35.1175 30.7952L35.1448 30.8232L35.1722 30.8508L35.1998 30.8782L35.2276 30.9053L35.2556 30.9321L35.284 30.9585L35.3124 30.9846L35.3412 31.0104L35.3701 31.036L35.3992 31.0612L35.4286 31.0862L35.458 31.1109L35.4877 31.1352L35.5177 31.1594L35.5477 31.1832L35.578 31.2067L35.6085 31.2299L35.6391 31.2528L35.67 31.2755L35.7012 31.2977L35.7326 31.3197L35.7642 31.3415L35.7959 31.3628L35.8279 31.3839L35.86 31.4047L35.8924 31.4252L35.925 31.4455L35.9577 31.4654L35.9907 31.4851L36.0239 31.5045L36.0572 31.5236L36.0909 31.5423L36.1247 31.5607L36.1587 31.5788L36.193 31.5967L36.2274 31.6142L36.2621 31.6314L36.2968 31.6483L36.3318 31.665L36.3671 31.6814L36.4025 31.6975L36.4381 31.7133L36.4739 31.7289L36.5099 31.7441L36.5462 31.7589L36.5827 31.7734L36.6194 31.7876L36.6563 31.8017L36.6934 31.8153L36.7307 31.8287L36.7682 31.8419L36.8059 31.8546L36.8818 31.8794L36.9586 31.9031L37.0363 31.9254L37.1147 31.9466L37.1939 31.9667L37.274 31.9854L37.3548 32.003L37.4365 32.0194L37.519 32.0346L37.6023 32.0487L37.6865 32.0616L37.7713 32.0733L37.8572 32.0838L37.9437 32.0931L38.0311 32.1013L38.1194 32.1082L38.2085 32.114L38.2983 32.1185L38.3891 32.1219L38.4806 32.1241L38.5729 32.1252L38.666 32.1251L38.7601 32.1237L38.8548 32.1212L38.9503 32.1175L39.0468 32.1125L39.144 32.1064L39.242 32.0991L39.3409 32.0905L39.4406 32.0809L39.541 32.07L39.6423 32.0581L39.7445 32.0448L39.8555 32.0334L39.9667 32.0237L40.0779 32.0153L40.1892 32.0086L40.3005 32.0035L40.4117 32L40.523 31.9981L40.6342 31.9977L40.7453 31.9989L40.8562 32.0017L40.9669 32.0062L41.0774 32.0121L41.1876 32.0197L41.2976 32.0287L41.4072 32.0394L41.5164 32.0515L41.6253 32.0653L41.7339 32.0806L41.8419 32.0974L41.9496 32.1158L42.0567 32.1357L42.1633 32.1571L42.2693 32.18L42.3747 32.2043L42.4795 32.2301L42.5836 32.2573L42.6871 32.2859L42.7898 32.3159L42.892 32.3473L42.9933 32.38L43.0937 32.4141L43.1934 32.4496L43.2923 32.4862L43.3903 32.5241L43.4875 32.5633L43.5837 32.6037L43.6791 32.6455L43.7736 32.6884L43.8672 32.7324L43.9596 32.7776L44.0512 32.8239L44.1417 32.8713L44.2313 32.9198L44.3198 32.9694L44.4073 33.02L44.4936 33.0715L44.579 33.1241L44.6631 33.1775L44.7463 33.232L44.8284 33.2873L44.9093 33.3435L44.9891 33.4006L45.0677 33.4585L45.1452 33.5171L45.2215 33.5765L45.2968 33.6366L45.3709 33.6975L45.4438 33.7591L45.5157 33.8212L45.5863 33.8841L45.6557 33.9475L45.724 34.0115L45.7911 34.076L45.8571 34.1412L45.9162 34.201L45.9749 34.2619L46.0331 34.3237L46.0908 34.3865L46.148 34.4502L46.2047 34.5149L46.261 34.5806L46.3168 34.6472L46.3719 34.7147L46.4265 34.7833L46.4805 34.8527L46.5337 34.9231L46.5865 34.9944L46.6385 35.0667L46.6898 35.14L46.7404 35.2143L46.7903 35.2892L46.8394 35.3652L46.8878 35.4421L46.9354 35.5198L46.9821 35.5984L47.028 35.6778L47.0731 35.7582L47.1174 35.8395L47.1608 35.9215L47.2031 36.0044L47.2447 36.0882L47.2852 36.1727L47.3248 36.2579L47.3636 36.344L47.4012 36.4309L47.4379 36.5186L47.4736 36.6068L47.5081 36.6959L47.5416 36.7857L47.5741 36.8762L47.6055 36.9672L47.6357 37.0589L47.6648 37.1513L47.6928 37.2442L47.7197 37.3378L47.7453 37.432L47.7698 37.5267L47.7931 37.622L47.8152 37.7177L47.8361 37.8139L47.8558 37.9106L47.8742 38.0078L47.8915 38.1055L47.9074 38.2035L47.9223 38.3019L47.9358 38.4007L47.948 38.4998L47.959 38.5991L47.9686 38.6988L47.9771 38.7988L47.9842 38.8989L47.99 38.9993L47.9945 39.0999L47.9976 39.2006L47.9994 39.3014L48 39.4024L47.9992 39.5035L47.9971 39.6045L47.9938 39.7057L47.9892 39.8068L47.9831 39.908L47.9759 40.0092L47.9673 40.1102L47.9574 40.2111L47.9462 40.312L47.9336 40.4126L47.9199 40.5131L47.9048 40.6134L47.8885 40.7135L47.871 40.8133L47.8523 40.9129L47.8322 41.0122L47.811 41.1111L47.7884 41.2098L47.7647 41.308L47.7398 41.406L47.7137 41.5035L47.6864 41.6006L47.6579 41.6971L47.6283 41.7934L47.5975 41.8891L47.5657 41.9842L47.5326 42.0789L47.4984 42.1729L47.4632 42.2664L47.427 42.3593L47.3897 42.4517L47.3513 42.5434L47.3119 42.6344L47.2715 42.7249L47.2301 42.8146L47.1877 42.9035L47.1443 42.9918L47.1 43.0793L47.0549 43.1662L47.0089 43.2523L46.9619 43.3377L46.9141 43.4222L46.8655 43.5058L46.8161 43.5888L46.7659 43.6708L46.7148 43.7521L46.6631 43.8325L46.6106 43.9121L46.5574 43.9907L46.5034 44.0685L46.4487 44.1454L46.3934 44.2215L46.3375 44.2967L46.2809 44.3709L46.2237 44.4443L46.166 44.5168L46.1077 44.5884L46.0489 44.659L45.9895 44.7288L45.9296 44.7976L45.8693 44.8654L45.8084 44.9323L45.7471 44.9982L45.6854 45.0633L45.6232 45.1274L45.5608 45.1905L45.4977 45.2529L45.4336 45.3151L45.3685 45.3768L45.3026 45.4381L45.2357 45.499L45.1678 45.5593L45.099 45.6192L45.0293 45.6786L44.9586 45.7374L44.887 45.7957L44.8146 45.8534L44.7412 45.9107L44.667 45.9673L44.5918 46.0232L44.5157 46.0785L44.4388 46.1331L44.3609 46.1871L44.2823 46.2403L44.2028 46.2929L44.1224 46.3445L44.0411 46.3956L43.959 46.4458L43.8761 46.4952L43.7924 46.5438L43.7079 46.5916L43.6226 46.6386L43.5365 46.6846L43.4496 46.7298L43.3621 46.7741L43.2738 46.8174L43.1848 46.8598L43.0951 46.9012L43.0047 46.9416L42.9137 46.981L42.8219 47.0194L42.7296 47.0567L42.6366 47.0929L42.5432 47.1281L42.4492 47.1623L42.3545 47.1954L42.2594 47.2273L42.1636 47.258L42.0674 47.2876L41.9708 47.3161L41.8738 47.3434L41.7762 47.3695L41.6783 47.3945L41.5801 47.4181L41.4814 47.4407L41.3824 47.462L41.2832 47.482L41.1836 47.5007L41.0838 47.5182L40.9837 47.5345L40.8834 47.5496L40.7829 47.5634L40.6822 47.5759L40.5814 47.5871L40.4805 47.597L40.3795 47.6056L40.2783 47.6129L40.1771 47.6189L40.076 47.6235L39.9748 47.6269L39.8737 47.6289L39.7727 47.6298L39.6717 47.6291L39.5708 47.6273L39.4702 47.6242L39.3696 47.6197L39.2692 47.6139L39.1691 47.6068L39.0691 47.5984L38.9694 47.5887L38.87 47.5777L38.7709 47.5655L38.6722 47.552L38.5738 47.5372L38.4758 47.5212L38.3781 47.504L38.2809 47.4855L38.1842 47.4658L38.088 47.4449L37.9923 47.4228L37.897 47.3995L37.8022 47.375L37.7081 47.3494L37.6145 47.3225L37.5216 47.2945L37.4292 47.2654L37.3375 47.2352L37.2464 47.2038L37.156 47.1714L37.0662 47.1378L36.9771 47.1033L36.8888 47.0677L36.8012 47.031L36.7143 46.9933L36.6281 46.9547L36.5429 46.9151L36.4583 46.8745L36.3746 46.833L36.2916 46.7906L36.2097 46.7473L36.1284 46.703L36.048 46.6578L35.9686 46.6119L35.89 46.5652L35.8122 46.5176L35.7353 46.4692L35.6594 46.4201L35.5844 46.3702L35.5102 46.3197L35.4369 46.2684L35.3646 46.2163L35.2932 46.1636L35.2229 46.1103L35.1534 46.0564L35.0849 46.0018L35.0174 45.9466L34.9507 45.8908L34.8851 45.8346L34.8204 45.7779L34.7566 45.7206L34.6938 45.6629L34.632 45.6047L34.5712 45.5461L34.5113 45.4869L34.4461 45.421L34.3817 45.3539L34.3177 45.2855L34.2543 45.2161L34.1914 45.1455L34.1292 45.0737L34.0677 45.0008L34.0068 44.9266L33.9467 44.8513L33.8873 44.775L33.8286 44.6975L33.7708 44.6189L33.7137 44.5391L33.6576 44.4581L33.6023 44.376L33.5478 44.2928L33.4943 44.2087L33.4418 44.1233L33.3903 44.037L33.3397 43.9495L33.2901 43.861L33.2415 43.7714L33.1942 43.6809L33.1479 43.5894L33.1027 43.4969L33.0586 43.4033L33.0158 43.3088L32.974 43.2134L32.9336 43.1172L32.8943 43.02L32.8564 42.922L32.8198 42.8231L32.7844 42.7234L32.7503 42.623L32.7176 42.5217L32.6862 42.4196L32.6562 42.3168L32.6275 42.2134L32.6004 42.1092L32.5745 42.0044L32.5503 41.899L32.5273 41.793L32.506 41.6864L32.486 41.5793L32.4677 41.4716L32.4509 41.3636L32.4356 41.255L32.4218 41.1462L32.4096 41.0369L32.399 40.9273L32.39 40.8173L32.3824 40.7071L32.3764 40.5966L32.372 40.4859L32.3692 40.375L32.368 40.2639L32.3683 40.1527L32.3703 40.0414L32.3738 39.9302L32.3789 39.8189L32.3856 39.7076L32.3939 39.5964L32.4037 39.4852Z" fill="white" stroke="#303030" stroke-miterlimit="10" stroke-linecap="round" stroke-linejoin="round"/>
<path d="M20.5079 16.6786L17.0483 20.1382L18.5792 21.6691L22.0388 18.2095L20.5079 16.6786Z" fill="white" stroke="#303030" stroke-miterlimit="10" stroke-linecap="round" stroke-linejoin="round"/>
<path d="M25.2619 19.7002L25.2715 19.7073L25.2809 19.7145L25.2903 19.7218L25.2996 19.7294L25.3089 19.737L25.3179 19.7448L25.327 19.7527L25.336 19.7608L25.345 19.769L25.3538 19.7773L25.3625 19.7857L25.3711 19.7943L25.3796 19.8031L25.388 19.8119L25.3963 19.821L25.4045 19.8302L25.4125 19.8394L25.4205 19.8487L25.4284 19.8582L25.4361 19.8678L25.4436 19.8775L25.4512 19.8873L25.4586 19.8973L25.4657 19.9073L25.4729 19.9175L25.4798 19.9277L25.4866 19.9381L25.4933 19.9485L25.4999 19.9591L25.5063 19.9696L25.5125 19.9805L25.5187 19.9912L25.5246 20.0022L25.5304 20.0131L25.5361 20.0241L25.5415 20.0353L25.5469 20.0465L25.5521 20.0577L25.5572 20.0691L25.562 20.0804L25.5667 20.0919L25.5712 20.1034L25.5757 20.1148L25.5799 20.1266L25.584 20.1381L25.588 20.1499L25.5917 20.1616L25.5952 20.1733L25.5987 20.185L25.6019 20.1968L25.605 20.2086L25.6079 20.2205L25.6107 20.2324L25.6133 20.2443L25.6158 20.2561L25.6181 20.268L25.6201 20.28L25.622 20.2918L25.6238 20.3038L25.6255 20.3156L25.627 20.3274L25.6282 20.3393L25.6294 20.3511L25.6304 20.3629L25.6311 20.3748L25.6318 20.3866L25.6324 20.3985L25.6328 20.4105L25.633 20.4226V20.4346L25.6329 20.4466L25.6327 20.4587L25.6322 20.4707L25.6316 20.4829L25.6308 20.495L25.6299 20.5071L25.6288 20.5193L25.6275 20.5315L25.6261 20.5437L25.6246 20.5558L25.6229 20.5679L25.6208 20.5801L25.6189 20.5922L25.6166 20.6044L25.6142 20.6165L25.6115 20.6285L25.6089 20.6406L25.6059 20.6526L25.6027 20.6646L25.5995 20.6766L25.5961 20.6884L25.5926 20.7004L25.5887 20.7122L25.5849 20.724L25.5809 20.7357L25.5765 20.7473L25.5722 20.7589L25.5676 20.7705L25.5629 20.782L25.5582 20.7934L25.5531 20.8048L25.5479 20.816L25.5425 20.8272L25.5372 20.8383L25.5315 20.8493L25.5258 20.8603L25.5198 20.8712L25.5139 20.8819L25.5076 20.8925L25.5013 20.9032L25.4949 20.9137L25.4883 20.9239L25.4816 20.9342L25.4748 20.9445L25.4679 20.9545L25.4606 20.9644L25.4535 20.9742L25.4461 20.9839L25.4388 20.9935L25.4312 21.003L25.4236 21.0123L25.4158 21.0215L25.4079 21.0307L25.3999 21.0396L25.3918 21.0484L25.3837 21.0572L25.3755 21.0657L25.3671 21.0741L21.4438 24.9974L21.4355 25.0057L21.4269 25.0141L21.4181 25.0222L21.4093 25.0302L21.4003 25.0382L21.3913 25.0461L21.3821 25.0538L21.3727 25.0615L21.3633 25.069L21.3536 25.0765L21.3439 25.0837L21.334 25.091L21.3243 25.0981L21.3143 25.105L21.304 25.1118L21.2937 25.1185L21.2835 25.1251L21.273 25.1315L21.2623 25.1378L21.2517 25.1441L21.2408 25.1501L21.2301 25.156L21.2191 25.1617L21.2081 25.1674L21.1969 25.1728L21.1858 25.1781L21.1746 25.1833L21.1632 25.1884L21.1518 25.1931L21.1403 25.1978L21.1287 25.2024L21.1171 25.2067L21.1055 25.2111L21.0937 25.2152L21.0819 25.219L21.0701 25.2228L21.0582 25.2263L21.0462 25.2298L21.0343 25.2331L21.0223 25.2361L21.0104 25.2391L20.9983 25.2417L20.9862 25.2444L20.9742 25.2468L20.962 25.2491L20.9498 25.2512L20.9377 25.2531L20.9255 25.2549L20.9134 25.2564L20.9011 25.2578L20.8891 25.259L20.8769 25.2601L20.8648 25.2611L20.8526 25.2619L20.8405 25.2624L20.8285 25.2629L20.8164 25.2631L20.8043 25.2634L20.7924 25.2632L20.7803 25.263L20.7683 25.2626L20.7564 25.262L20.7444 25.2614L20.7327 25.2606L20.7209 25.2596L20.7091 25.2584L20.6972 25.2572L20.6854 25.2557L20.6734 25.2542L20.6615 25.2524L20.6497 25.2504L20.6378 25.2483L20.6259 25.246L20.6141 25.2436L20.6021 25.241L20.5903 25.2381L20.5784 25.2352L20.5666 25.2321L20.5548 25.2289L20.5431 25.2254L20.5314 25.222L20.5196 25.2182L20.5079 25.2142L20.4962 25.2102L20.4846 25.2059L20.473 25.2015L20.4617 25.197L20.4502 25.1922L20.4389 25.1874L20.4275 25.1824L20.4163 25.1772L20.405 25.1718L20.3938 25.1663L20.3829 25.1606L20.3719 25.1549L20.361 25.1489L20.3503 25.1428L20.3394 25.1365L20.3288 25.1302L20.3183 25.1236L20.3078 25.1169L20.2975 25.11L20.2872 25.1032L20.277 25.096L20.2671 25.0888L20.2571 25.0814L20.2472 25.0739L20.2376 25.0663L20.228 25.0586L20.2184 25.0508L20.209 25.0428L20.1998 25.0348L20.1908 25.0265L20.1817 25.0182L20.1729 25.0098L20.1641 25.0013L20.1555 24.9927L20.1471 24.984L20.1388 24.9752L20.1306 24.9663L20.1225 24.9572L20.1145 24.9483L20.1068 24.9391L20.0992 24.9298L20.0916 24.9205L20.0843 24.9111L20.0771 24.9017L20.0699 24.8921L19.3384 23.8645L18.5531 22.7832L18.5476 22.7758L18.5422 22.7682L18.537 22.7606L18.5317 22.7529L18.5265 22.7451L18.5214 22.7371L18.5163 22.7291L18.5113 22.7212L18.5064 22.7129L18.5015 22.7046L18.4967 22.6964L18.492 22.6881L18.4874 22.6796L18.4829 22.671L18.4783 22.6624L18.4739 22.6538L18.4696 22.645L18.4653 22.6363L18.4612 22.6274L18.4571 22.6184L18.4531 22.6094L18.4492 22.6002L18.4454 22.591L18.4417 22.5818L18.438 22.5725L18.4345 22.5632L18.431 22.5537L18.4276 22.5443L18.4244 22.5348L18.4213 22.5252L18.4182 22.5156L18.4153 22.5059L18.4124 22.496L18.4096 22.4862L18.4071 22.4764L18.4044 22.4665L18.4021 22.4565L18.3997 22.4466L18.3976 22.4365L18.3955 22.4265L18.3936 22.4163L18.3916 22.4062L18.39 22.396L18.3881 22.3858L18.3867 22.3756L18.3852 22.3653L18.384 22.3549L18.3827 22.3446L18.3817 22.3342L18.3808 22.3239L18.3801 22.3135L18.3793 22.3031L18.3787 22.2926L18.3782 22.2822L18.3779 22.2717L18.3776 22.2613L18.3775 22.2508V22.2402L18.3778 22.2298L18.3779 22.2193L18.3782 22.2088L18.3788 22.1983L18.3795 22.1878L18.3802 22.1774L18.381 22.1669L18.382 22.1565L18.3831 22.146L18.3843 22.1356L18.3857 22.1253L18.3872 22.1149L18.3887 22.1044L18.3904 22.0942L18.3922 22.0837L18.3942 22.0736L18.3962 22.0633L18.3984 22.0529L18.4007 22.0429L18.4031 22.0328L18.4056 22.0225L18.4082 22.0125L18.411 22.0025L18.4139 21.9926L18.4169 21.9826L18.4199 21.9725L18.4232 21.9628L18.4264 21.953L18.4297 21.9432L18.4333 21.9335L18.4369 21.9239L18.4405 21.9142L18.4444 21.9048L18.4483 21.8954L18.4523 21.8859L18.4565 21.8766L18.4606 21.8674L18.4649 21.8582L18.4693 21.849L18.4739 21.8399L18.4784 21.8309L18.483 21.822L18.4877 21.8132L18.4927 21.8044L18.4975 21.7957L18.5026 21.787L18.5075 21.7784L18.5128 21.77L18.518 21.7616L18.5234 21.7532L18.5288 21.7451L18.5343 21.7369L18.5398 21.7288L18.5453 21.7208L18.5511 21.7129L18.5568 21.705L18.5626 21.6973L18.5685 21.6897L18.5744 21.6821L18.5805 21.6746L18.5865 21.6674L18.5926 21.66L18.5988 21.6529L18.605 21.6457L18.6112 21.6387L18.6175 21.6317L18.6239 21.6249L18.6304 21.6181L18.6368 21.6115L18.6433 21.6049L21.9746 18.2737L21.9812 18.267L21.9879 18.2606L21.9946 18.2541L22.0014 18.2479L22.0084 18.2416L22.0154 18.2353L22.0227 18.229L22.0298 18.2229L22.037 18.2168L22.0444 18.2107L22.0519 18.2046L22.0595 18.1987L22.0671 18.1928L22.0748 18.187L22.0827 18.1813L22.0905 18.1757L22.0986 18.17L22.1067 18.1646L22.1148 18.1591L22.123 18.1536L22.1313 18.1484L22.1398 18.1431L22.1481 18.1379L22.1568 18.1328L22.1654 18.1278L22.1742 18.1229L22.1829 18.1181L22.1918 18.1132L22.2007 18.1087L22.2097 18.1041L22.2187 18.0996L22.2279 18.0953L22.2371 18.0909L22.2464 18.0867L22.2556 18.0825L22.2651 18.0786L22.2746 18.0746L22.284 18.0708L22.2937 18.0671L22.3033 18.0635L22.3129 18.06L22.3228 18.0566L22.3326 18.0534L22.3423 18.0501L22.3524 18.0471L22.3623 18.0442L22.3721 18.0413L22.3822 18.0385L22.3923 18.0359L22.4025 18.0334L22.4126 18.031L22.4227 18.0286L22.433 18.0266L22.4433 18.0245L22.4535 18.0225L22.4639 18.0208L22.4742 18.019L22.4847 18.0174L22.495 18.0159L22.5053 18.0146L22.5157 18.0134L22.5262 18.0123L22.5367 18.0112L22.5472 18.0104L22.5576 18.0097L22.5681 18.0091L22.5785 18.0086L22.5891 18.0081L22.5996 18.008L22.61 18.0077L22.6205 18.0079L22.631 18.008L22.6415 18.0081L22.652 18.0085L22.6624 18.0089L22.6729 18.0095L22.6833 18.0103L22.6936 18.011L22.704 18.012L22.7143 18.013L22.7247 18.0143L22.7349 18.0156L22.7453 18.017L22.7554 18.0185L22.7658 18.0202L22.776 18.0219L22.7861 18.0238L22.7962 18.0257L22.8063 18.0278L22.8163 18.0301L22.8263 18.0324L22.8362 18.0348L22.8462 18.0373L22.856 18.0398L22.8658 18.0426L22.8756 18.0456L22.8852 18.0485L22.895 18.0516L22.9044 18.0547L22.9141 18.0578L22.9235 18.0612L22.933 18.0647L22.9423 18.0682L22.9516 18.072L22.9608 18.0756L22.97 18.0794L22.9792 18.0833L22.9881 18.0874L22.9971 18.0914L23.006 18.0956L23.0148 18.0998L23.0235 18.1042L23.0321 18.1085L23.0408 18.1131L23.0494 18.1176L23.0577 18.1223L23.0661 18.127L23.0744 18.1317L23.0827 18.1367L23.0908 18.1416L23.0989 18.1466L23.1069 18.1516L23.1147 18.1568L23.1226 18.162L23.1304 18.1672L23.1379 18.1725L23.1455 18.178L23.153 18.1833L24.2343 18.9686L25.2619 19.7002Z" fill="white" stroke="#303030" stroke-miterlimit="10" stroke-linecap="round" stroke-linejoin="round"/>
<path d="M21.9857 24.4552L22.3312 24.9034L22.6011 25.2453L22.7078 25.3764L22.7541 25.432L22.7956 25.481L22.8324 25.5234L22.8491 25.542L22.8647 25.559L22.879 25.5744L22.8922 25.588L22.8983 25.5941L22.9041 25.5999L22.9096 25.6054L22.9148 25.6103C22.9186 25.614 22.9225 25.6173 22.9225 25.6173C22.9264 25.6207 22.9303 25.6242 22.9303 25.6242C22.9342 25.6276 22.9382 25.6308 22.9382 25.6308C22.9422 25.6341 22.9462 25.6374 22.9462 25.6374C22.9503 25.6405 22.9542 25.6435 22.9542 25.6435C22.9582 25.6465 22.9624 25.6496 22.9624 25.6496C22.9665 25.6525 22.9707 25.6554 22.9707 25.6554C22.9749 25.6581 22.9791 25.6609 22.9791 25.6609C22.9833 25.6637 22.9876 25.6662 22.9876 25.6662C22.9918 25.6688 22.9961 25.6714 22.9961 25.6714C23.0005 25.6738 23.0048 25.6762 23.0048 25.6762C23.0092 25.6787 23.0136 25.681 23.0136 25.681C23.0181 25.6832 23.0224 25.6854 23.0224 25.6854C23.0269 25.6875 23.0314 25.6898 23.0314 25.6898C23.0358 25.6918 23.0404 25.6937 23.0404 25.6937C23.045 25.6957 23.0496 25.6976 23.0496 25.6976C23.0542 25.6995 23.0588 25.7012 23.0588 25.7012C23.0635 25.703 23.0682 25.7046 23.0682 25.7046C23.0729 25.7062 23.0776 25.7078 23.0776 25.7078C23.0823 25.7093 23.0872 25.7108 23.0872 25.7108C23.092 25.7122 23.0968 25.7137 23.0968 25.7137C23.1018 25.715 23.1066 25.7162 23.1066 25.7162C23.1114 25.7174 23.1165 25.7186 23.1165 25.7186C23.1214 25.7197 23.1264 25.7208 23.1264 25.7208C23.1315 25.7218 23.1365 25.7227 23.1365 25.7227C23.1416 25.7237 23.1467 25.7244 23.1467 25.7244C23.1517 25.7251 23.1569 25.726 23.1569 25.726C23.162 25.7267 23.1672 25.7273 23.1672 25.7273C23.1724 25.7279 23.1777 25.7284 23.1777 25.7284C23.183 25.7289 23.1882 25.7292 23.1882 25.7292C23.1934 25.7296 23.1988 25.73 23.1988 25.73C23.2041 25.7302 23.2096 25.7303 23.2096 25.7303C23.215 25.7304 23.2204 25.7306 23.2204 25.7306C23.2259 25.7307 23.2313 25.7306 23.2313 25.7306C23.2367 25.7304 23.2423 25.7304 23.2423 25.7304C23.2478 25.7302 23.2534 25.73 23.2534 25.73C23.2589 25.7297 23.2646 25.7294 23.2646 25.7294C23.2703 25.729 23.2758 25.7285 23.2758 25.7285C23.2815 25.7279 23.2873 25.7274 23.2873 25.7274L23.2988 25.7261L23.3104 25.7247L23.322 25.723L23.3338 25.721L23.3456 25.7189L23.3576 25.7166L23.3697 25.7139L23.3818 25.7111L23.3942 25.7082L23.4065 25.7051L23.419 25.7017L23.4316 25.6981L23.4443 25.6943L23.4571 25.6902L23.47 25.686L23.4829 25.6816L23.4961 25.6768L23.5092 25.6719L23.5225 25.6668L23.5358 25.6615L23.5493 25.656L23.5628 25.6502L23.5764 25.6443L23.5902 25.638L23.6041 25.6316L23.6181 25.6248L23.6323 25.6178L23.6467 25.6105L23.6613 25.6028L23.676 25.5949L23.6911 25.5865L23.7064 25.5779L23.7218 25.5689L23.7374 25.5596L23.7532 25.5501L23.7857 25.5299L23.8189 25.5086L23.8529 25.4859L23.8878 25.4618L23.9235 25.4365L23.9601 25.4098L23.9975 25.3818L24.0357 25.3526L24.0747 25.322L24.1145 25.2902L24.1552 25.257L24.2391 25.1868L24.3265 25.1115L24.4172 25.031L24.5111 24.9453L24.6085 24.8544L24.7092 24.7583L24.8131 24.657L24.9206 24.5505L25.0271 24.443L25.1284 24.3391L25.2245 24.2384L25.3154 24.141L25.4011 24.0471L25.4816 23.9564L25.5569 23.869L25.6271 23.7851L25.6603 23.7444L25.6921 23.7046L25.7227 23.6656L25.7519 23.6274L25.7799 23.59L25.8066 23.5534L25.8319 23.5177L25.856 23.4828L25.8787 23.4488L25.9 23.4156L25.9202 23.3831L25.9297 23.3673L25.939 23.3517L25.948 23.3363L25.9566 23.321L25.965 23.3059L25.9729 23.2912L25.9805 23.2766L25.9879 23.2622L25.9949 23.248L26.0017 23.234L26.0081 23.2201L26.0144 23.2064L26.0203 23.1927L26.0261 23.1792L26.0316 23.1657L26.0369 23.1524L26.042 23.1391L26.0469 23.126L26.0515 23.1129L26.056 23.1L26.0602 23.0871L26.0643 23.0743L26.0681 23.0616L26.0717 23.0491L26.0751 23.0365L26.0783 23.0241L26.0812 23.0117L26.084 22.9995L26.0867 22.9875L26.089 22.9755L26.0911 22.9637L26.0931 22.9519L26.0948 22.9403L26.0962 22.9287L26.0975 22.9172C26.0981 22.9115 26.0986 22.9057 26.0986 22.9057C26.099 22.9001 26.0995 22.8945 26.0995 22.8945C26.0998 22.8889 26.1001 22.8833 26.1001 22.8833C26.1003 22.8777 26.1005 22.8722 26.1005 22.8722C26.1007 22.8668 26.1007 22.8612 26.1007 22.8612C26.1007 22.8557 26.1007 22.8503 26.1007 22.8503C26.1005 22.8449 26.1004 22.8395 26.1004 22.8395C26.1002 22.8342 26.1001 22.8287 26.1001 22.8287C26.0998 22.8234 26.0993 22.8181 26.0993 22.8181C26.0989 22.8128 26.0985 22.8076 26.0985 22.8076C26.0979 22.8024 26.0974 22.7971 26.0974 22.7971C26.0968 22.7919 26.0961 22.7868 26.0961 22.7868C26.0954 22.7818 26.0945 22.7766 26.0945 22.7766C26.0938 22.7715 26.0928 22.7664 26.0928 22.7664C26.0919 22.7614 26.0909 22.7563 26.0909 22.7563C26.0898 22.7513 26.0887 22.7464 26.0887 22.7464C26.0876 22.7414 26.0863 22.7365 26.0863 22.7365C26.0851 22.7317 26.0838 22.7267 26.0838 22.7267C26.0823 22.7219 26.0809 22.7171 26.0809 22.7171C26.0794 22.7122 26.0778 22.7075 26.0778 22.7075C26.0763 22.7028 26.0747 22.6981 26.0747 22.6981C26.073 22.6935 26.0712 22.6888 26.0712 22.6888C26.0694 22.6841 26.0676 22.6796 26.0676 22.6796C26.0657 22.6751 26.0637 22.6705 26.0637 22.6705C26.0617 22.666 26.0597 22.6614 26.0597 22.6614C26.0577 22.6569 26.0554 22.6525 26.0554 22.6525C26.0531 22.648 26.0509 22.6437 26.0509 22.6437C26.0486 22.6392 26.0462 22.6348 26.0462 22.6348C26.0438 22.6305 26.0414 22.6262 26.0414 22.6262C26.0389 22.6219 26.0362 22.6176 26.0362 22.6176C26.0335 22.6132 26.0309 22.6091 26.0309 22.6091C26.0281 22.6049 26.0253 22.6007 26.0253 22.6007C26.0224 22.5966 26.0195 22.5925 26.0195 22.5925C26.0166 22.5884 26.0135 22.5843 26.0135 22.5843C26.0104 22.5802 26.0073 22.5762 26.0073 22.5762C26.0041 22.5722 26.0008 22.5682 26.0008 22.5682C25.9976 22.5642 25.9942 22.5604 25.9942 22.5604C25.9908 22.5565 25.9873 22.5525 25.9873 22.5525C25.9837 22.5486 25.9803 22.5448 25.9803 22.5448L25.9754 22.5396L25.97 22.534L25.9642 22.5282L25.9581 22.5221L25.9445 22.5089L25.9291 22.4946L25.9121 22.479L25.8935 22.4623L25.8511 22.4255L25.8021 22.384L25.7465 22.3377L25.6154 22.231L25.2735 21.9611L24.8253 21.6156" fill="white"/>
<path d="M21.9857 24.4552L22.3312 24.9034L22.6011 25.2453L22.7078 25.3764L22.7541 25.432L22.7956 25.481L22.8324 25.5234L22.8491 25.542L22.8647 25.559L22.879 25.5744L22.8922 25.588L22.8983 25.5941L22.9041 25.5999L22.9096 25.6054L22.9148 25.6103C22.9186 25.614 22.9225 25.6173 22.9225 25.6173C22.9264 25.6207 22.9303 25.6242 22.9303 25.6242C22.9342 25.6276 22.9382 25.6308 22.9382 25.6308C22.9422 25.6341 22.9462 25.6374 22.9462 25.6374C22.9503 25.6405 22.9542 25.6435 22.9542 25.6435C22.9582 25.6465 22.9624 25.6496 22.9624 25.6496C22.9665 25.6525 22.9707 25.6554 22.9707 25.6554C22.9749 25.6581 22.9791 25.6609 22.9791 25.6609C22.9833 25.6637 22.9876 25.6662 22.9876 25.6662C22.9918 25.6688 22.9961 25.6714 22.9961 25.6714C23.0005 25.6738 23.0048 25.6762 23.0048 25.6762C23.0092 25.6787 23.0136 25.681 23.0136 25.681C23.0181 25.6832 23.0224 25.6854 23.0224 25.6854C23.0269 25.6875 23.0314 25.6898 23.0314 25.6898C23.0358 25.6918 23.0404 25.6937 23.0404 25.6937C23.045 25.6957 23.0496 25.6976 23.0496 25.6976C23.0542 25.6995 23.0588 25.7012 23.0588 25.7012C23.0635 25.703 23.0682 25.7046 23.0682 25.7046C23.0729 25.7062 23.0776 25.7078 23.0776 25.7078C23.0823 25.7093 23.0872 25.7108 23.0872 25.7108C23.092 25.7122 23.0968 25.7137 23.0968 25.7137C23.1018 25.715 23.1066 25.7162 23.1066 25.7162C23.1114 25.7174 23.1165 25.7186 23.1165 25.7186C23.1214 25.7197 23.1264 25.7208 23.1264 25.7208C23.1315 25.7218 23.1365 25.7227 23.1365 25.7227C23.1416 25.7237 23.1467 25.7244 23.1467 25.7244C23.1517 25.7251 23.1569 25.726 23.1569 25.726C23.162 25.7267 23.1672 25.7273 23.1672 25.7273C23.1724 25.7279 23.1777 25.7284 23.1777 25.7284C23.183 25.7289 23.1882 25.7292 23.1882 25.7292C23.1934 25.7296 23.1988 25.73 23.1988 25.73C23.2041 25.7302 23.2096 25.7303 23.2096 25.7303C23.215 25.7304 23.2204 25.7306 23.2204 25.7306C23.2259 25.7307 23.2313 25.7306 23.2313 25.7306C23.2367 25.7304 23.2423 25.7304 23.2423 25.7304C23.2478 25.7302 23.2534 25.73 23.2534 25.73C23.2589 25.7297 23.2646 25.7294 23.2646 25.7294C23.2703 25.729 23.2758 25.7285 23.2758 25.7285C23.2815 25.7279 23.2873 25.7274 23.2873 25.7274L23.2988 25.7261L23.3104 25.7247L23.322 25.723L23.3338 25.721L23.3456 25.7189L23.3576 25.7166L23.3697 25.7139L23.3818 25.7111L23.3942 25.7082L23.4065 25.7051L23.419 25.7017L23.4316 25.6981L23.4443 25.6943L23.4571 25.6902L23.47 25.686L23.4829 25.6816L23.4961 25.6768L23.5092 25.6719L23.5225 25.6668L23.5358 25.6615L23.5493 25.656L23.5628 25.6502L23.5764 25.6443L23.5902 25.638L23.6041 25.6316L23.6181 25.6248L23.6323 25.6178L23.6467 25.6105L23.6613 25.6028L23.676 25.5949L23.6911 25.5865L23.7064 25.5779L23.7218 25.5689L23.7374 25.5596L23.7532 25.5501L23.7857 25.5299L23.8189 25.5086L23.8529 25.4859L23.8878 25.4618L23.9235 25.4365L23.9601 25.4098L23.9975 25.3818L24.0357 25.3526L24.0747 25.322L24.1145 25.2902L24.1552 25.257L24.2391 25.1868L24.3265 25.1115L24.4172 25.031L24.5111 24.9453L24.6085 24.8544L24.7092 24.7583L24.8131 24.657L24.9206 24.5505L25.0271 24.443L25.1284 24.3391L25.2245 24.2384L25.3154 24.141L25.4011 24.0471L25.4816 23.9564L25.5569 23.869L25.6271 23.7851L25.6603 23.7444L25.6921 23.7046L25.7227 23.6656L25.7519 23.6274L25.7799 23.59L25.8066 23.5534L25.8319 23.5177L25.856 23.4828L25.8787 23.4488L25.9 23.4156L25.9202 23.3831L25.9297 23.3673L25.939 23.3517L25.948 23.3363L25.9566 23.321L25.965 23.3059L25.9729 23.2912L25.9805 23.2766L25.9879 23.2622L25.9949 23.248L26.0017 23.234L26.0081 23.2201L26.0144 23.2064L26.0203 23.1927L26.0261 23.1792L26.0316 23.1657L26.0369 23.1524L26.042 23.1391L26.0469 23.126L26.0515 23.1129L26.056 23.1L26.0602 23.0871L26.0643 23.0743L26.0681 23.0616L26.0717 23.0491L26.0751 23.0365L26.0783 23.0241L26.0812 23.0117L26.084 22.9995L26.0867 22.9875L26.089 22.9755L26.0911 22.9637L26.0931 22.9519L26.0948 22.9403L26.0962 22.9287L26.0975 22.9172C26.0981 22.9115 26.0986 22.9057 26.0986 22.9057C26.099 22.9001 26.0995 22.8945 26.0995 22.8945C26.0998 22.8888 26.1001 22.8833 26.1001 22.8833C26.1003 22.8777 26.1005 22.8722 26.1005 22.8722C26.1007 22.8668 26.1007 22.8612 26.1007 22.8612C26.1007 22.8557 26.1007 22.8503 26.1007 22.8503C26.1005 22.8449 26.1004 22.8395 26.1004 22.8395C26.1002 22.8342 26.1001 22.8287 26.1001 22.8287C26.0998 22.8234 26.0993 22.8181 26.0993 22.8181C26.0989 22.8128 26.0985 22.8076 26.0985 22.8076C26.0979 22.8024 26.0974 22.7971 26.0974 22.7971C26.0968 22.7919 26.0961 22.7868 26.0961 22.7868C26.0954 22.7818 26.0945 22.7766 26.0945 22.7766C26.0938 22.7715 26.0928 22.7664 26.0928 22.7664C26.0919 22.7614 26.0909 22.7563 26.0909 22.7563C26.0898 22.7513 26.0887 22.7464 26.0887 22.7464C26.0876 22.7414 26.0863 22.7365 26.0863 22.7365C26.0851 22.7317 26.0838 22.7267 26.0838 22.7267C26.0823 22.7219 26.0809 22.7171 26.0809 22.7171C26.0794 22.7122 26.0778 22.7075 26.0778 22.7075C26.0763 22.7028 26.0747 22.6981 26.0747 22.6981C26.073 22.6935 26.0712 22.6888 26.0712 22.6888C26.0694 22.6841 26.0676 22.6796 26.0676 22.6796C26.0657 22.6751 26.0637 22.6705 26.0637 22.6705C26.0617 22.666 26.0597 22.6614 26.0597 22.6614C26.0577 22.6569 26.0554 22.6525 26.0554 22.6525C26.0531 22.648 26.0509 22.6437 26.0509 22.6437C26.0486 22.6392 26.0462 22.6348 26.0462 22.6348C26.0438 22.6305 26.0414 22.6262 26.0414 22.6262C26.0389 22.6219 26.0362 22.6176 26.0362 22.6176C26.0335 22.6132 26.0309 22.6091 26.0309 22.6091C26.0281 22.6049 26.0253 22.6007 26.0253 22.6007C26.0224 22.5966 26.0195 22.5925 26.0195 22.5925C26.0166 22.5884 26.0135 22.5843 26.0135 22.5843C26.0104 22.5802 26.0073 22.5762 26.0073 22.5762C26.0041 22.5722 26.0008 22.5682 26.0008 22.5682C25.9976 22.5642 25.9942 22.5604 25.9942 22.5604C25.9908 22.5565 25.9873 22.5525 25.9873 22.5525C25.9837 22.5486 25.9803 22.5448 25.9803 22.5448L25.9754 22.5396L25.97 22.534L25.9642 22.5282L25.9581 22.5221L25.9445 22.5089L25.9291 22.4946L25.9121 22.479L25.8935 22.4623L25.8511 22.4255L25.8021 22.384L25.7465 22.3377L25.6154 22.231L25.2735 21.9611L24.8253 21.6156" stroke="#303030" stroke-miterlimit="10" stroke-linecap="round" stroke-linejoin="round"/>
<path d="M32.415 39.3744L32.4283 39.2722L32.4403 39.171L32.4511 39.0705L32.4608 38.9708L32.4694 38.8719L32.4766 38.7739L32.4828 38.6767L32.4876 38.5804L32.4913 38.4846L32.4939 38.3899L32.4952 38.2961L32.4954 38.2029L32.4944 38.1105L32.4922 38.019L32.4887 37.9284L32.4841 37.8385L32.4784 37.7496L32.4714 37.6612L32.4633 37.5739L32.454 37.4871L32.4435 37.4015L32.4318 37.3164L32.419 37.2324L32.4049 37.149L32.3896 37.0665L32.3733 36.9848L32.3556 36.9039L32.3367 36.8238L32.3169 36.7446L32.2956 36.6662L32.2732 36.5887L32.2496 36.5118L32.2249 36.4358L32.2121 36.3982L32.1991 36.3607L32.1857 36.3234L32.172 36.2864L32.1579 36.2496L32.1436 36.2129L32.1289 36.1764L32.1142 36.1402L32.0989 36.1041L32.0835 36.0682L32.0677 36.0326L32.0517 35.9972L32.0352 35.962L32.0186 35.927L32.0016 35.8921L31.9844 35.8576L31.9668 35.823L31.949 35.7889L31.9308 35.755L31.9123 35.721L31.8936 35.6876L31.8747 35.6541L31.8552 35.621L31.8356 35.588L31.8158 35.5552L31.7955 35.5226L31.775 35.4902L31.7542 35.4581L31.7331 35.4261L31.7116 35.3945L31.6898 35.3628L31.6679 35.3315L31.6455 35.3004L31.623 35.2694L31.6 35.2387L31.577 35.2082L31.5534 35.1779L31.5295 35.1477L31.5056 35.1178L31.4812 35.0881L31.4565 35.0585L31.4316 35.0293L31.4064 35.0002L31.3807 34.9713L31.3548 34.9426L31.3288 34.9141L31.3022 34.8859L31.2755 34.8577L31.2485 34.83L31.2212 34.8022L31.1935 34.7748L31.1655 34.7475L31.1373 34.7205L31.1088 34.6937L31.0799 34.667L31.0509 34.6405L31.0214 34.6142L30.9918 34.5883L30.9616 34.5624L30.9315 34.5368L30.8699 34.4862L30.3744 34.0791L29.881 33.6612L29.3901 33.2328L28.9012 32.7937L28.415 32.3439L27.9309 31.8835L27.4489 31.4124L26.9695 30.9306L26.7304 30.6842L26.4916 30.4319L26.253 30.174L26.0147 29.9104L25.7768 29.6408L25.539 29.3655L25.3014 29.0845L25.0642 28.7978L24.8271 28.5054L24.5903 28.2071L24.3538 27.903L24.1176 27.5933L23.8814 27.2777L23.6458 26.9564L23.4102 26.6293L23.1751 26.2966L26.6656 22.8061L26.9983 23.0413L27.3253 23.2768L27.6466 23.5126L27.9623 23.7486L28.2719 23.9849L28.576 24.2214L28.8742 24.4582L29.1667 24.6952L29.4534 24.9324L29.7345 25.17L30.0097 25.4078L30.2792 25.6459L30.5428 25.8842L30.8008 26.1226L31.053 26.3616L31.2995 26.6006L31.7812 27.0801L32.2524 27.5619L32.7129 28.046L33.1626 28.5324L33.6018 29.0211L34.0302 29.5121L34.448 30.0055L34.8551 30.5009L34.9058 30.5625L34.9313 30.5928L34.9572 30.6229L34.9832 30.6524L35.0095 30.6819L35.0359 30.711L35.0626 30.7398L35.0894 30.7683L35.1165 30.7966L35.1438 30.8246L35.1712 30.8522L35.1989 30.8795L35.2267 30.9066L35.2547 30.9334L35.2831 30.9598L35.3116 30.9859L35.3402 31.0118L35.3691 31.0374L35.3982 31.0627L35.4275 31.0875L35.457 31.1123L35.4867 31.1367L35.5165 31.1607L35.5469 31.1845L35.5771 31.208L35.6076 31.2312L35.6384 31.254L35.6693 31.2767L35.7004 31.2989L35.7318 31.3209L35.7633 31.3427L35.7951 31.3641L35.8271 31.3852L35.8592 31.406L35.8915 31.4265L35.9241 31.4468L35.9568 31.4667L35.9899 31.4863L36.0231 31.5057L36.0564 31.5248L36.09 31.5434L36.1239 31.5619L36.1578 31.5801L36.192 31.5978L36.2265 31.6155L36.2611 31.6326L36.2959 31.6496L36.331 31.6663L36.3662 31.6827L36.4016 31.6988L36.4372 31.7146L36.4729 31.73L36.5091 31.7452L36.5452 31.7601L36.5818 31.7747L36.6184 31.7891L36.6553 31.8031L36.6924 31.8167L36.7297 31.8301L36.7671 31.8431L36.8048 31.8559L36.8807 31.8807L36.9575 31.9043L37.0351 31.9267L37.1136 31.9479L37.1928 31.9677L37.2728 31.9867L37.3537 32.0043L37.4353 32.0207L37.5179 32.0359L37.6013 32.0501L37.6854 32.0629L37.7703 32.0747L37.8561 32.0851L37.9427 32.0945L38.0301 32.1025L38.1184 32.1096L38.2074 32.1152L38.2972 32.1198L38.388 32.1232L38.4795 32.1254L38.5718 32.1265L38.6649 32.1264L38.7588 32.1249L38.8536 32.1224L38.9492 32.1188L39.0457 32.1138L39.1429 32.1076L39.2409 32.1004L39.3398 32.0918L39.4393 32.0823L39.5399 32.0713L39.6412 32.0594L39.7433 32.0461L39.8544 32.0347L39.9656 32.0249L40.0768 32.0166L40.188 32.01L40.2993 32.0049L40.4107 32.0014L40.5218 31.9995L40.6329 31.9991L40.744 32.0003L40.855 32.0031L40.9657 32.0076L41.0762 32.0136L41.1865 32.0212L41.2964 32.0303L41.4061 32.0409L41.5154 32.0532L41.6243 32.067L41.7329 32.0823L41.8408 32.0992L41.9485 32.1175L42.0554 32.1373L42.162 32.1587L42.2682 32.1815L42.3735 32.2058L42.4783 32.2316L42.5824 32.2587L42.6859 32.2873L42.7886 32.3173L42.8907 32.3487L42.992 32.3814L43.0925 32.4155L43.1922 32.4507L43.291 32.4876L43.3891 32.5255L43.4863 32.5647L43.5825 32.6052L43.6778 32.6469L43.7724 32.6898L43.8658 32.734L43.9583 32.7791L44.0498 32.8255L44.1403 32.8728L44.2299 32.9213L44.3184 32.9709L44.4058 33.0214L44.4921 33.073L44.5775 33.1255L44.6617 33.1791L44.7448 33.2334L44.8269 33.2887L44.9078 33.3449L44.9877 33.4019L45.0663 33.4598L45.1438 33.5184L45.2202 33.5777L45.2954 33.6379L45.3695 33.6988L45.4426 33.7602L45.5143 33.8225L45.5849 33.8852L45.6545 33.9487L45.7227 34.0128L45.7898 34.0773L45.8557 34.1424L45.915 34.2022L45.9736 34.2631L46.032 34.325L46.0898 34.3876L46.1471 34.4515L46.2039 34.5162L46.2601 34.5819L46.3159 34.6485L46.3711 34.716L46.4256 34.7846L46.4796 34.854L46.5328 34.9244L46.5855 34.9958L46.6375 35.0682L46.6888 35.1412L46.7394 35.2154L46.7893 35.2904L46.8383 35.3665L46.8867 35.4434L46.9342 35.5211L46.981 35.5997L47.027 35.6793L47.072 35.7595L47.1163 35.8408L47.1595 35.9229L47.202 36.0057L47.2435 36.0895L47.2841 36.174L47.3237 36.2592L47.3623 36.3454L47.4 36.4321L47.4367 36.5197L47.4722 36.6081L47.5068 36.6971L47.5404 36.7869L47.5729 36.8773L47.6041 36.9685L47.6343 37.0602L47.6635 37.1525L47.6914 37.2455L47.7184 37.3391L47.7442 37.4333L47.7687 37.528L47.792 37.6233L47.8141 37.719L47.8351 37.8153L47.8548 37.912L47.8734 38.0091L47.8906 38.1068L47.9066 38.2048L47.9213 38.3031L47.9348 38.4018L47.947 38.5009L47.958 38.6003L47.9676 38.7L47.976 38.7999L47.9832 38.9001L47.9889 39.0004L47.9934 39.1009L47.9966 39.2017L47.9984 39.3025L47.9992 39.4035L47.9983 39.5045L47.9963 39.6056L47.9929 39.7067L47.9883 39.8079L47.9823 39.9091L47.975 40.0102L47.9663 40.1112L47.9565 40.2122L47.9454 40.3129L47.9329 40.4136L47.9192 40.5141L47.9041 40.6145L47.8878 40.7145L47.8703 40.8144L47.8515 40.9141L47.8315 41.0133L47.8102 41.1123L47.7876 41.2109L47.764 41.3092L47.739 41.4071L47.7129 41.5047L47.6856 41.6017L47.657 41.6984L47.6274 41.7946L47.5967 41.8901L47.5647 41.9854L47.5317 42.0799L47.4977 42.1741L47.4624 42.2675L47.4262 42.3605L47.3888 42.4527L47.3504 42.5445L47.311 42.6355L47.2706 42.7259L47.2292 42.8156L47.1868 42.9046L47.1436 42.9927L47.0994 43.0804L47.0541 43.1672L47.0081 43.2532L46.9613 43.3385L46.9135 43.423L46.8648 43.5066L46.8153 43.5895L46.7651 43.6715L46.714 43.7528L46.6623 43.8333L46.6097 43.9129L46.5565 43.9915L46.5025 44.0693L46.448 44.1464L46.3927 44.2224L46.3367 44.2975L46.2802 44.3719L46.2229 44.4453L46.1652 44.5177L46.1069 44.5893L46.0481 44.6599L45.9887 44.7294L45.9289 44.7983L45.8685 44.8661L45.8078 44.9331L45.7464 44.999L45.6848 45.0641L45.6227 45.1281L45.5602 45.1913L45.497 45.2537L45.4329 45.3159L45.368 45.3775L45.3021 45.4388L45.2351 45.4995L45.1672 45.5599L45.0984 45.6198L45.0289 45.6792L44.9581 45.7381L44.8867 45.7963L44.8141 45.8541L44.7408 45.9112L44.6665 45.9677L44.5914 46.0237L44.5153 46.079L44.4383 46.1336L44.3604 46.1875L44.2818 46.2408L44.2023 46.2933L44.1217 46.3451L44.0405 46.3962L43.9584 46.4464L43.8756 46.4959L43.7919 46.5445L43.7074 46.5923L43.6222 46.6392L43.536 46.6853L43.4493 46.7304L43.3617 46.7746L43.2734 46.818L43.1845 46.8603L43.0947 46.9017L43.0044 46.9421L42.9134 46.9814L42.8217 47.0198L42.7294 47.0572L42.6365 47.0935L42.543 47.1287L42.4489 47.1628L42.3542 47.1958L42.2591 47.2277L42.1635 47.2586L42.0673 47.2882L41.9707 47.3167L41.8736 47.344L41.7761 47.37L41.6782 47.395L41.5799 47.4187L41.4813 47.4413L41.3823 47.4625L41.2829 47.4827L41.1833 47.5014L41.0835 47.5189L40.9834 47.5352L40.8831 47.5503L40.7825 47.5639L40.6818 47.5765L40.581 47.5877L40.48 47.5975L40.3791 47.6062L40.278 47.6133L40.1769 47.6193L40.0757 47.6239L39.9745 47.6273L39.8735 47.6294L39.7724 47.6302L39.6714 47.6296L39.5706 47.6278L39.4698 47.6245L39.3693 47.6199L39.269 47.6143L39.1687 47.6071L39.0689 47.5988L38.9693 47.589L38.8698 47.5782L38.7708 47.5659L38.672 47.5523L38.5736 47.5377L38.4757 47.5217L38.3781 47.5044L38.2809 47.4859L38.1842 47.4663L38.0879 47.4452L37.9922 47.423L37.897 47.3997L37.8022 47.3752L37.708 47.3494L37.6144 47.3226L37.5214 47.2946L37.4291 47.2655L37.3374 47.2352L37.2463 47.2039L37.1559 47.1714L37.066 47.1379L36.9771 47.1032L36.8887 47.0677L36.8011 47.031L36.7143 46.9935L36.6282 46.9548L36.5429 46.9151L36.4584 46.8746L36.3747 46.8331L36.2917 46.7907L36.2097 46.7473L36.1285 46.703L36.0482 46.658L35.9685 46.6121L35.8899 46.5654L35.8122 46.5179L35.7353 46.4694L35.6594 46.4203L35.5844 46.3704L35.5102 46.3199L35.437 46.2687L35.3647 46.2166L35.2933 46.1639L35.223 46.1106L35.1535 46.0567L35.085 46.0021L35.0174 45.9471L34.9507 45.8913L34.885 45.835L34.8205 45.7782L34.7566 45.7208L34.6938 45.6631L34.632 45.6047L34.5712 45.546L34.5113 45.4869L34.4462 45.4208L34.3816 45.3538L34.3176 45.2855L34.2541 45.216L34.1914 45.1455L34.1292 45.0736L34.0676 45.0007L34.0068 44.9266L33.9467 44.8513L33.8873 44.775L33.8287 44.6973L33.7709 44.6187L33.7138 44.5389L33.6576 44.4579L33.6023 44.3758L33.548 44.2928L33.4944 44.2085L33.4419 44.1232L33.3904 44.0369L33.3399 43.9494L33.2903 43.861L33.2417 43.7714L33.1943 43.681L33.1481 43.5893L33.1029 43.4969L33.0587 43.4034L33.0159 43.3089L32.9741 43.2135L32.9337 43.1173L32.8944 43.0201L32.8565 42.9221L32.8197 42.8232L32.7845 42.7235L32.7504 42.6231L32.7177 42.5218L32.6862 42.4198L32.6562 42.3169L32.6276 42.2134L32.6006 42.1094L32.5747 42.0046L32.5505 41.8992L32.5276 41.7932L32.5062 41.6866L32.4865 41.5795L32.468 41.472L32.4513 41.3639L32.4359 41.2554L32.4222 41.1465L32.4098 41.0371L32.3992 40.9275L32.3902 40.8175L32.3826 40.7073L32.3765 40.5967L32.3721 40.486L32.3693 40.3751L32.3681 40.264L32.3683 40.1529L32.3704 40.0417L32.3739 39.9303L32.3789 39.819L32.3856 39.7078L32.3939 39.5966L32.4037 39.4854L32.415 39.3744Z" fill="white" stroke="#303030" stroke-miterlimit="10" stroke-linecap="round" stroke-linejoin="round"/>
<path d="M1.5 1H11.5413L1.5 11.0413V1Z" fill="white" stroke="#303030"/>
</svg>
