<svg width="84" height="96" viewBox="0 0 84 96" fill="none" xmlns="http://www.w3.org/2000/svg">
<path d="M75.1729 90.1384C74.4195 90.9071 73.417 91.4026 72.422 91.7793C71.15 92.2607 69.8098 92.5646 68.4692 92.7795C65.5022 93.2546 62.5015 93.5968 59.5104 93.877C56.4358 94.165 53.3563 94.3896 50.271 94.5213C47.2275 94.6512 44.1793 94.7028 41.1332 94.678C37.9621 94.652 34.7947 94.5588 31.6284 94.3799C28.667 94.2125 25.7082 93.9602 22.7605 93.6295C21.2596 93.461 19.7598 93.2824 18.2633 93.0765C16.7828 92.8731 15.3026 92.6741 13.8551 92.2922C12.6207 91.9663 11.3703 91.534 10.3054 90.8143C10.1299 90.6955 9.95953 90.5686 9.79808 90.4313C9.67894 90.3299 9.56649 90.1781 9.42471 90.1384C9.17455 90.0687 8.81229 90.1384 8.5536 90.1384C8.02174 90.1384 7.49026 90.1384 6.9584 90.1384C5.96743 90.1384 4.97609 90.1384 3.98512 90.1384C3.74127 90.1384 3.49669 90.1481 3.25544 90.108C2.82193 90.0356 2.41441 89.8341 2.09373 89.5335C1.76861 89.2287 1.53924 88.8275 1.44125 88.3929C1.39671 88.1955 1.38742 87.9984 1.38668 87.7968C1.38297 86.899 1.38668 86.0012 1.38668 85.103C1.38668 83.7327 1.38668 82.3621 1.38668 80.9918C1.38668 78.7207 1.38668 76.4496 1.38668 74.1786C1.38668 70.6204 1.38668 67.0621 1.38668 63.5043C1.38668 59.1581 1.38668 54.8116 1.38668 50.4654C1.38668 45.813 1.38668 41.1606 1.38668 36.5083C1.38668 32.1079 1.38668 27.7075 1.38668 23.3072C1.38668 19.6246 1.38668 15.9417 1.38668 12.2591C1.38668 9.84181 1.38668 7.42451 1.38668 5.0072C1.38668 4.19846 1.27311 3.29323 1.42639 2.49006C1.59489 1.60857 2.29825 0.897079 3.17787 0.717813C3.97844 0.554878 4.89184 0.672903 5.69873 0.672903C8.16539 0.672903 10.6317 0.672903 13.0983 0.672903C16.8139 0.672903 20.5292 0.672903 24.2448 0.672903C28.7056 0.672903 33.1665 0.672903 37.6277 0.672903C42.2478 0.672903 46.8679 0.672903 51.4879 0.672903C55.7733 0.672903 60.0586 0.672903 64.3442 0.672903C67.7106 0.672903 71.0766 0.672903 74.4429 0.672903C76.3773 0.672903 78.3118 0.672903 80.2458 0.672903C80.9521 0.672903 81.6358 0.630964 82.2575 1.03774C82.9233 1.4731 83.2644 2.20056 83.2703 2.98183C83.2804 4.27381 83.2703 5.56653 83.2703 6.8585C83.2703 9.73492 83.2703 12.611 83.2703 15.4874C83.2703 19.4658 83.2703 23.4445 83.2703 27.4229C83.2703 31.9527 83.2703 36.4823 83.2703 41.0122C83.2703 45.6052 83.2703 50.1982 83.2703 54.7915C83.2703 58.9614 83.2703 63.1309 83.2703 67.3008C83.2703 70.4942 83.2703 73.6879 83.2703 76.8813C83.2703 78.6201 83.2703 80.359 83.2703 82.0978C83.2703 84.0504 83.3423 86.0131 83.2696 87.9635C83.2362 88.8598 82.6739 89.67 81.831 89.9914C81.3129 90.1893 80.7565 90.1384 80.2128 90.1384C78.5326 90.1384 76.8528 90.1384 75.1729 90.1384Z" fill="#ECEDF1" stroke="#303030" stroke-miterlimit="10" stroke-linecap="round" stroke-linejoin="round"/>
<path d="M9.48348 90.1384C10.4785 90.1384 11.474 90.1384 12.469 90.1384C15.1079 90.1384 17.7468 90.1384 20.386 90.1384C24.1187 90.1384 27.8517 90.1384 31.5844 90.1384C35.8949 90.1384 40.2055 90.1384 44.516 90.1384C48.8451 90.1384 53.1739 90.1384 57.503 90.1384C61.328 90.1384 65.1531 90.1384 68.9782 90.1384C71.7655 90.1384 74.5529 90.1384 77.3406 90.1384C78.5561 90.1384 79.7728 90.1529 80.9883 90.1384C82.0464 90.1258 82.9873 89.4347 83.2185 88.3803C83.3833 87.6287 83.2705 86.758 83.2705 85.999C83.2705 83.8834 83.2705 81.7679 83.2705 79.6523C83.2705 76.4151 83.2705 73.178 83.2705 69.9408C83.2705 65.9602 83.2705 61.9796 83.2705 57.9986C83.2705 53.6525 83.2705 49.3067 83.2705 44.9605C83.2705 40.6273 83.2705 36.2937 83.2705 31.9606C83.2705 28.0182 83.2705 24.0758 83.2705 20.1331C83.2705 16.9598 83.2705 13.7861 83.2705 10.6127C83.2705 8.58623 83.2705 6.56012 83.2705 4.53364C83.2705 3.80507 83.3911 2.91542 83.1573 2.20801C82.8348 1.233 81.9269 0.677012 80.9285 0.673301C79.677 0.668476 78.4255 0.673301 77.1743 0.673301C74.4523 0.673301 71.7299 0.673301 69.0079 0.673301C65.2871 0.673301 61.5659 0.673301 57.8452 0.673301C53.5751 0.673301 49.3054 0.673301 45.0353 0.673301C40.672 0.673301 36.3084 0.673301 31.9452 0.673301C27.9438 0.673301 23.9428 0.673301 19.9414 0.673301C16.758 0.673301 13.5743 0.673301 10.3909 0.673301C8.48063 0.673301 6.57069 0.673301 4.66037 0.673301C3.85572 0.673301 3.03511 0.590163 2.33771 1.08045C1.57982 1.61343 1.38721 2.41994 1.38721 3.28806C1.38721 4.72627 1.38721 6.16447 1.38721 7.60268C1.38721 10.3451 1.38721 13.0875 1.38721 15.8304C1.38721 19.4992 1.38721 23.1676 1.38721 26.8365C1.38721 31.0531 1.38721 35.2697 1.38721 39.4868C1.38721 43.8734 1.38721 48.26 1.38721 52.6466C1.38721 56.8251 1.38721 61.0035 1.38721 65.1823C1.38721 68.7746 1.38721 72.3666 1.38721 75.959C1.38721 78.5923 1.38721 81.226 1.38721 83.8593C1.38721 85.1402 1.38721 86.4214 1.38721 87.7022C1.38721 88.6349 1.77691 89.4949 2.65357 89.9172C3.2964 90.2268 4.03536 90.1388 4.72607 90.1388C6.31162 90.1384 7.89755 90.1384 9.48348 90.1384Z" fill="white" stroke="#303030" stroke-miterlimit="10" stroke-linecap="round" stroke-linejoin="round"/>
<path d="M39.0645 88.8441H46.0076L45.5555 85.3564H39.5165L39.0645 88.8441Z" stroke="#303030" stroke-miterlimit="10" stroke-linecap="round" stroke-linejoin="round"/>
<path d="M83.2699 82.5996H1.38623" stroke="#303030" stroke-miterlimit="10" stroke-linecap="round" stroke-linejoin="round"/>
<path d="M9.4834 90.1384C10.6926 91.3718 12.4968 91.9545 14.1291 92.362C16.2903 92.9016 18.5358 93.1262 20.7434 93.3945C23.095 93.6803 25.4507 93.9145 27.8108 94.1138C30.0099 94.2994 32.2153 94.4297 34.4199 94.5225C36.8747 94.626 39.3302 94.6631 41.7869 94.6832C44.0709 94.7017 46.3569 94.6512 48.6398 94.5829C50.8296 94.5173 53.0216 94.4026 55.2062 94.2389C57.5474 94.0633 59.8849 93.8551 62.2184 93.5931C64.4798 93.3392 66.7601 93.095 68.9997 92.6882C70.8862 92.3457 72.9127 91.8479 74.4953 90.7137C74.7362 90.5411 74.9652 90.3504 75.1726 90.1384" stroke="#303030" stroke-miterlimit="10" stroke-linecap="round" stroke-linejoin="round"/>
<circle cx="42" cy="41.7139" r="28.5" fill="white" stroke="#303030"/>
<path d="M23 41.7139C23 42.2539 22.8771 42.7887 22.6384 43.2876C22.3997 43.7865 22.0498 44.2398 21.6088 44.6217C21.1677 45.0036 20.644 45.3065 20.0677 45.5131C19.4914 45.7198 18.8738 45.8262 18.25 45.8262C17.6262 45.8262 17.0085 45.7198 16.4323 45.5131C15.856 45.3065 15.3323 45.0036 14.8912 44.6217C14.4502 44.2398 14.1003 43.7865 13.8616 43.2876C13.6229 42.7887 13.5 42.2539 13.5 41.7139" stroke="#303030" stroke-linecap="round"/>
<path d="M32.5 41.7139C32.5 42.2539 32.3771 42.7887 32.1384 43.2876C31.8997 43.7865 31.5498 44.2398 31.1088 44.6217C30.6677 45.0036 30.144 45.3065 29.5677 45.5131C28.9914 45.7198 28.3738 45.8262 27.75 45.8262C27.1262 45.8262 26.5085 45.7198 25.9323 45.5131C25.356 45.3065 24.8323 45.0036 24.3912 44.6217C23.9502 44.2398 23.6003 43.7865 23.3616 43.2876C23.1229 42.7887 23 42.2539 23 41.7139" stroke="#303030" stroke-linecap="round"/>
<path d="M42 41.7139C42 42.2539 41.8771 42.7887 41.6384 43.2876C41.3997 43.7865 41.0498 44.2398 40.6088 44.6217C40.1677 45.0036 39.644 45.3065 39.0677 45.5131C38.4914 45.7198 37.8738 45.8262 37.25 45.8262C36.6262 45.8262 36.0085 45.7198 35.4323 45.5131C34.856 45.3065 34.3323 45.0036 33.8912 44.6217C33.4502 44.2398 33.1003 43.7865 32.8616 43.2876C32.6229 42.7887 32.5 42.2539 32.5 41.7139" stroke="#303030" stroke-linecap="round"/>
<path d="M51.5 41.7139C51.5 42.2539 51.3771 42.7887 51.1384 43.2876C50.8997 43.7865 50.5498 44.2398 50.1088 44.6217C49.6677 45.0036 49.144 45.3065 48.5677 45.5131C47.9914 45.7198 47.3738 45.8262 46.75 45.8262C46.1262 45.8262 45.5085 45.7198 44.9323 45.5131C44.356 45.3065 43.8323 45.0036 43.3912 44.6217C42.9502 44.2398 42.6003 43.7865 42.3616 43.2876C42.1229 42.7887 42 42.2539 42 41.7139" stroke="#303030" stroke-linecap="round"/>
<path d="M61 41.7139C61 42.2539 60.8771 42.7887 60.6384 43.2876C60.3997 43.7865 60.0498 44.2398 59.6088 44.6217C59.1677 45.0036 58.644 45.3065 58.0677 45.5131C57.4914 45.7198 56.8738 45.8262 56.25 45.8262C55.6262 45.8262 55.0085 45.7198 54.4323 45.5131C53.856 45.3065 53.3323 45.0036 52.8912 44.6217C52.4502 44.2398 52.1003 43.7865 51.8616 43.2876C51.6229 42.7887 51.5 42.2539 51.5 41.7139" stroke="#303030" stroke-linecap="round"/>
<path d="M70.5 41.7139C70.5 42.2539 70.3771 42.7887 70.1384 43.2876C69.8997 43.7865 69.5498 44.2398 69.1088 44.6217C68.6677 45.0036 68.144 45.3065 67.5677 45.5131C66.9914 45.7198 66.3738 45.8262 65.75 45.8262C65.1262 45.8262 64.5085 45.7198 63.9323 45.5131C63.356 45.3065 62.8323 45.0036 62.3912 44.6217C61.9502 44.2398 61.6003 43.7865 61.3616 43.2876C61.1229 42.7887 61 42.2539 61 41.7139" stroke="#303030" stroke-linecap="round"/>
</svg>
