<svg width="97" height="61" viewBox="0 0 97 61" fill="none" xmlns="http://www.w3.org/2000/svg">
<path d="M1.5 54.0906C1.49962 54.5654 1.61842 55.0405 1.84204 55.4591C2.06491 55.8777 2.39224 56.2405 2.78594 56.5048C3.05708 56.687 3.35989 56.8239 3.67628 56.9057C3.88369 56.9596 4.09789 56.9906 4.31171 56.9977C4.54438 57.0011 92.2677 57.0004 92.5046 56.9977C92.6139 56.994 92.7278 56.9838 92.836 56.9676C93.3236 56.8955 93.7924 56.6964 94.1823 56.3951C94.5862 56.0848 94.9063 55.6658 95.0991 55.1944C95.2046 54.9365 95.274 54.6619 95.3019 54.3848C95.3061 41.0333 95.3306 14.293 95.317 1H1.50038C1.5 14.1384 1.5 40.8911 1.5 54.0906Z" fill="white" stroke="#303030" stroke-miterlimit="10" stroke-linecap="round" stroke-linejoin="round"/>
<path d="M46.2436 14.8711C38.6019 15.2444 29.7558 17.8035 24.4454 23.5774C20.715 27.6588 19.552 32.8927 22.2423 37.8878C24.9205 42.7996 30.2422 45.9285 35.406 47.6737C43.6333 50.4145 53.1835 50.4149 61.4113 47.6737C66.5116 45.9492 71.7425 42.8894 74.4637 38.0907C77.2837 33.0593 76.1723 27.7353 72.3719 23.5777C67.0614 17.8039 58.216 15.2452 50.5736 14.8715" fill="#ECEDF1"/>
<path d="M46.2436 14.8711C38.6019 15.2444 29.7558 17.8035 24.4454 23.5774C20.715 27.6588 19.552 32.8927 22.2423 37.8878C24.9205 42.7996 30.2422 45.9285 35.406 47.6737C43.6333 50.4145 53.1835 50.4149 61.4113 47.6737C66.5116 45.9492 71.7425 42.8894 74.4637 38.0907C77.2837 33.0593 76.1723 27.7353 72.3719 23.5777C67.0614 17.8039 58.216 15.2452 50.5736 14.8715" stroke="#303030" stroke-miterlimit="10" stroke-linecap="round" stroke-linejoin="round"/>
<path d="M51.1388 32.2717C51.1422 31.0289 50.2847 29.9273 49.079 29.6253C47.3625 29.1937 45.6975 30.4781 45.6793 32.2478C45.6673 34.0377 47.3433 35.3538 49.079 34.9178C50.2847 34.6161 51.1422 33.5145 51.1388 32.2717Z" fill="#303030" stroke="#303030" stroke-miterlimit="10" stroke-linecap="round" stroke-linejoin="round"/>
<path d="M4.40967 26.0251V54.0906H92.4083V26.0251" stroke="#303030" stroke-miterlimit="10" stroke-linecap="round" stroke-linejoin="round"/>
<path d="M1.5 54.0906C1.49962 54.5654 1.61842 55.0405 1.84204 55.4591C2.06491 55.8777 2.39224 56.2405 2.78594 56.5048C3.05708 56.687 3.35989 56.8239 3.67628 56.9057C3.88369 56.9596 4.09789 56.9905 4.31171 56.9977C4.54476 57.0011 92.2677 57.0007 92.5046 56.9977C92.6022 56.9943 92.7055 56.9856 92.8025 56.9724C93.2648 56.9095 93.7121 56.7326 94.0922 56.4622C94.4987 56.1741 94.829 55.7789 95.0406 55.3279C95.1507 55.0929 95.2303 54.8418 95.2744 54.5861C95.2921 54.4771 95.3068 54.3636 95.3125 54.2531C95.429 54.0955 95.2382 1.1693 95.317 1.00073H1.50038V54.0906H1.5Z" stroke="#303030" stroke-miterlimit="10" stroke-linecap="round" stroke-linejoin="round"/>
<path d="M1.5 26.0252H4.40938V3.90942H92.408V26.0252H95.317" stroke="#303030" stroke-miterlimit="10" stroke-linecap="round" stroke-linejoin="round"/>
<rect x="39.9082" y="57.0317" width="17" height="3" rx="0.5" fill="white" stroke="#303030"/>
<path d="M52.7171 9.52751C52.7224 7.60794 51.3978 5.90651 49.5352 5.4401C46.8835 4.77353 44.3115 6.75723 44.2833 9.49058C44.2648 12.255 46.8539 14.2878 49.5352 13.6144C51.3978 13.1485 52.7224 11.4471 52.7171 9.52751Z" stroke="#303030" stroke-miterlimit="10" stroke-linecap="round" stroke-linejoin="round"/>
<path d="M51.054 11.9231C51.0367 12.0898 51.0194 12.2566 51.002 12.4232C50.9593 12.8349 50.9166 13.2467 50.8739 13.6585C50.8235 14.1437 50.7732 14.6289 50.7229 15.114C50.6833 15.4963 50.6436 15.8786 50.604 16.2609C50.5877 16.4177 50.5715 16.5746 50.5548 16.7313C50.5171 17.0847 50.4827 17.4386 50.4363 17.791C50.4151 17.9516 50.3927 18.1121 50.3655 18.2718C50.3516 18.3532 50.3368 18.4344 50.3202 18.5153C50.3053 18.5879 50.278 18.6628 50.2691 18.736C50.2591 18.8176 50.2685 18.9062 50.2685 18.9883C50.2685 19.1942 50.2685 19.4001 50.2685 19.606C50.2685 20.0535 50.2685 20.5012 50.2685 20.9488C50.2685 21.1702 50.2782 21.3919 50.233 21.61C50.1768 21.882 50.0561 22.1396 49.8827 22.3565C49.7109 22.5715 49.4893 22.7448 49.2393 22.8598C48.9896 22.9746 48.7138 23.0297 48.4391 23.0203C48.1632 23.0109 47.8904 22.9356 47.6485 22.8025C47.4066 22.6696 47.1974 22.4797 47.0414 22.2521C46.898 22.0429 46.8007 21.803 46.7576 21.5531C46.72 21.335 46.7329 21.1102 46.7329 20.8898C46.7329 20.4334 46.7329 19.977 46.7329 19.5206C46.7329 19.327 46.7329 19.1334 46.7329 18.9397C46.7329 18.8521 46.7396 18.7672 46.7187 18.6822C46.641 18.366 46.5975 18.0417 46.5557 17.7192C46.5108 17.3722 46.4778 17.0236 46.4407 16.6757C46.4242 16.5215 46.4084 16.3672 46.3924 16.2129C46.3517 15.82 46.3109 15.4272 46.2702 15.0343C46.22 14.5502 46.1698 14.066 46.1195 13.5818C46.0776 13.1778 46.0357 12.7738 45.9938 12.3698C45.9817 12.2527 45.9695 12.1356 45.9574 12.0185C45.9546 11.9921 45.9545 11.9636 45.949 11.9376C45.9416 11.9026 45.9144 11.8755 45.8945 11.8455" stroke="#303030" stroke-miterlimit="10" stroke-linecap="round" stroke-linejoin="round"/>
<path d="M51.217 10.4988C51.2478 10.2618 51.2517 10.023 51.2224 9.78568C51.1933 9.55016 51.1335 9.31855 51.0449 9.09838C50.9567 8.87891 50.8399 8.67098 50.6983 8.48149C50.5577 8.29335 50.3933 8.1237 50.2097 7.97724C50.025 7.82977 49.821 7.70669 49.6046 7.6115C49.3878 7.51606 49.1586 7.44909 48.9245 7.41237C48.6899 7.37554 48.4504 7.36959 48.2143 7.39438C47.9772 7.41926 47.7433 7.47528 47.5207 7.56048C47.2991 7.64528 47.0886 7.75896 46.8962 7.89783C46.7043 8.03625 46.5305 8.1995 46.3806 8.38245C46.2308 8.56519 46.1048 8.76692 46.0066 8.9818C45.9089 9.19547 45.8389 9.42154 45.7987 9.65305C45.7581 9.88647 45.7481 10.1251 45.7687 10.3611C45.7774 10.4605 45.7907 10.5599 45.8013 10.6592C45.8219 10.8515 45.8424 11.0438 45.8629 11.2361C45.8944 11.5311 45.9259 11.8262 45.9574 12.1212C45.9961 12.4838 46.0348 12.8463 46.0735 13.2089C46.1152 13.6001 46.157 13.9913 46.1987 14.3825C46.2395 14.7645 46.2803 15.1464 46.3211 15.5284C46.3568 15.8633 46.3926 16.1982 46.4283 16.5331C46.4549 16.7822 46.4815 17.0314 46.5081 17.2805C46.5218 17.4084 46.5354 17.5361 46.549 17.664C46.5684 17.8452 46.5958 18.0263 46.6249 18.2062C46.6651 18.4536 46.7098 18.7048 46.7953 18.9413C46.8541 19.104 46.935 19.2881 47.0773 19.395C47.2453 19.5212 47.476 19.5529 47.6789 19.5762C47.932 19.6053 48.1878 19.6114 48.4423 19.6125C48.6961 19.6136 48.9507 19.6101 49.2037 19.588C49.4236 19.5688 49.6671 19.5457 49.8628 19.4348C50.0154 19.3484 50.1015 19.1919 50.1689 19.0354C50.2639 18.8147 50.3128 18.574 50.3539 18.3384C50.3919 18.121 50.4251 17.9021 50.4502 17.6828C50.4622 17.5777 50.4727 17.4723 50.4839 17.3671C50.5089 17.1333 50.5338 16.8995 50.5588 16.6656C50.5934 16.3411 50.628 16.0166 50.6627 15.6922C50.703 15.3149 50.7432 14.9376 50.7835 14.5603C50.8254 14.1681 50.8673 13.7759 50.9091 13.3837C50.9484 13.0158 50.9876 12.6479 51.0269 12.2801C51.0598 11.9711 51.0928 11.6622 51.1258 11.3533C51.1483 11.1428 51.1707 10.9324 51.1932 10.7219C51.2012 10.6474 51.2092 10.5731 51.217 10.4988Z" fill="white" stroke="#303030" stroke-miterlimit="10" stroke-linecap="round" stroke-linejoin="round"/>
<path d="M46.7325 21.1929C46.7232 21.5654 46.8255 21.9334 47.0345 22.2429C47.2417 22.5496 47.5451 22.7869 47.8927 22.914C48.2414 23.0415 48.6274 23.0558 48.9845 22.9541C49.3392 22.8531 49.6578 22.6402 49.8868 22.3511C50.1173 22.0601 50.252 21.6981 50.2675 21.3272C50.2694 21.2824 50.2693 21.2377 50.2681 21.1929C50.2681 21.2326 50.2681 21.2735 50.2681 21.3125C50.2681 21.0194 50.2681 20.7263 50.2681 20.4332C50.2681 19.9731 50.2681 19.513 50.2681 19.0529C50.2681 18.948 50.2681 18.8432 50.2681 18.7383" stroke="#303030" stroke-miterlimit="10" stroke-linecap="round" stroke-linejoin="round"/>
<path d="M46.7329 18.7383V21.3127" stroke="#303030" stroke-miterlimit="10" stroke-linecap="round" stroke-linejoin="round"/>
</svg>
