<svg width="63" height="90" viewBox="0 0 63 90" fill="none" xmlns="http://www.w3.org/2000/svg">
<path d="M52.9434 46.1687C53.3643 48.6695 53.5968 51.2339 53.617 53.7707C53.6469 56.2523 53.2891 59.2883 53.0662 61.7747C52.3186 66.0335 51.2169 70.2959 49.4117 74.2331C48.2802 76.6535 46.8268 78.9491 45.1218 81.0011C43.641 82.7495 41.9455 84.5099 40.0283 85.7711C37.4374 87.4703 34.3314 88.3619 31.2386 88.2827C28.3341 88.2179 25.4559 87.2987 23.0391 85.6775C21.1815 84.4223 19.5349 82.7099 18.0875 81.0011C16.3825 78.9491 14.929 76.6535 13.7975 74.2331C11.9923 70.2959 10.8907 66.0335 10.1431 61.7747C9.94396 59.5859 9.63039 56.7575 9.59342 54.5867C9.57793 53.2067 9.63044 51.7595 9.74013 50.3843C9.82121 49.3763 9.94158 48.3131 10.087 47.3123C11.1995 40.2719 12.7888 29.1359 14.2566 22.2527C12.4943 22.1015 9.19286 21.8519 7.43659 21.6251C7.23986 21.5855 7.04548 21.5207 6.86664 21.4283C6.57571 21.2795 6.3253 21.0539 6.13811 20.7851C4.19584 17.5391 3.10611 13.8479 2.23334 10.1855C2.05331 9.3587 1.8542 8.46952 1.75166 7.62832C1.69324 7.13752 1.66462 6.63472 1.73616 6.14392C1.86255 5.27872 2.29773 4.4687 2.907 3.8495C3.32312 3.4235 3.837 3.15952 4.40692 3.01432C6.32653 2.57752 8.88763 2.4299 10.8645 2.2199C17.5998 1.6583 24.849 1.23113 31.6046 1.19993C39.2855 1.25153 47.392 1.73752 55.0382 2.47673C56.2544 2.62553 57.6983 2.72631 58.887 3.03831C59.4188 3.18231 59.9124 3.44871 60.3023 3.8495C60.9116 4.46751 61.3456 5.27872 61.4731 6.14393C61.5399 6.59993 61.5197 7.0691 61.4696 7.5263C61.3718 8.4035 61.1679 9.32391 60.9771 10.1855C60.1044 13.8479 59.0146 17.5391 57.0724 20.7851C56.8792 21.0623 56.618 21.2939 56.314 21.4427C56.1328 21.5327 55.9372 21.5939 55.7393 21.6311C53.9902 21.8411 50.7114 22.1123 48.9539 22.2515C50.3155 28.5995 51.9228 39.6407 52.9434 46.1687Z" fill="#ECEDF1" stroke="#303030" stroke-miterlimit="10" stroke-linecap="round" stroke-linejoin="round"/>
<path d="M57.2189 20.5486C56.9936 20.9674 56.6359 21.319 56.1935 21.499C56.0254 21.5686 55.8465 21.6166 55.6677 21.6454C55.6093 21.6538 55.5461 21.6634 55.4876 21.6682L52.3554 21.9742C45.5879 22.5802 38.3959 22.891 31.6034 22.8178C25.8839 22.8778 19.6993 22.6642 13.9953 22.2346C12.2832 22.081 9.10569 21.8506 7.40069 21.619C7.18488 21.5722 6.97146 21.4942 6.7795 21.3826C6.46354 21.2014 6.20484 20.9254 6.02361 20.6098C4.42473 17.8498 3.40406 14.7826 2.60402 11.7034C2.30952 10.555 2.01979 9.34062 1.82783 8.16942C1.74437 7.62702 1.66929 7.06542 1.69909 6.51462C1.72771 5.83782 1.95301 5.17783 2.30951 4.60663C2.57421 4.18303 2.90691 3.79421 3.31348 3.50261C3.89295 3.08621 4.6119 2.94702 5.30105 2.83182C7.93367 2.43223 11.3318 2.18984 14.0037 1.96544C19.0901 1.59464 24.8883 1.28261 29.983 1.21061C36.2223 1.14701 42.9756 1.52385 49.2042 1.96545C51.7796 2.18265 55.1216 2.42622 57.6696 2.79462C58.0034 2.84862 58.3849 2.90622 58.714 2.99142C59.272 3.12462 59.805 3.36703 60.2247 3.77383C60.7827 4.30663 61.1953 4.99905 61.3944 5.74665C61.5124 6.19785 61.5339 6.67183 61.5041 7.13624C61.3431 8.96503 60.7982 10.9738 60.3213 12.7522C59.5737 15.451 58.6151 18.121 57.2189 20.5486Z" fill="white" stroke="#303030" stroke-miterlimit="10" stroke-linecap="round" stroke-linejoin="round"/>
<path d="M17.0583 33.2961L20.9404 33.2961L20.9404 31.069L17.0583 31.069L17.0583 33.2961Z" stroke="#303030" stroke-miterlimit="10" stroke-linecap="round" stroke-linejoin="round"/>
<path d="M42.2663 33.2961L46.1484 33.2961L46.1484 31.069L42.2663 31.069L42.2663 33.2961Z" stroke="#303030" stroke-miterlimit="10" stroke-linecap="round" stroke-linejoin="round"/>
<path d="M42.2663 33.2961C42.2603 33.0909 42.2818 28.9858 42.2508 28.8874C42.2317 28.6738 42.1829 28.4614 42.097 28.2658C41.8312 27.6514 41.2624 27.169 40.6007 27.055C39.8781 26.9098 39.0912 27.1413 38.3877 27.3009C37.4577 27.5013 36.4657 27.601 35.5166 27.6706C34.3041 27.7474 32.8149 27.8589 31.6035 27.8589C30.3933 27.8589 28.9018 27.7474 27.6904 27.6706C26.7413 27.601 25.7505 27.5013 24.8193 27.3009C24.1134 27.1413 23.3301 26.9098 22.6063 27.055C21.9446 27.169 21.3759 27.6514 21.11 28.2658C21.0241 28.4626 20.9753 28.675 20.9562 28.8874C20.9264 28.9762 20.9467 33.1041 20.9407 33.2961L42.2663 33.2961Z" stroke="#303030" stroke-miterlimit="10" stroke-linecap="round" stroke-linejoin="round"/>
<path d="M14.2539 22.2539C12.8899 28.5995 11.2839 39.6407 10.2621 46.1687" stroke="#303030" stroke-miterlimit="10" stroke-linecap="round" stroke-linejoin="round"/>
<path d="M48.953 22.2539C50.317 28.5995 51.923 39.6407 52.9448 46.1687" stroke="#303030" stroke-miterlimit="10" stroke-linecap="round" stroke-linejoin="round"/>
<path d="M31.6034 88.2876C28.5762 88.2924 25.5572 87.3684 23.0379 85.6776C21.1803 84.4224 19.5337 82.7099 18.0863 81.0011C16.3813 78.9491 14.9278 76.6536 13.7963 74.2332C11.9912 70.296 10.8895 66.0335 10.1419 61.7747C9.82713 58.5047 9.43129 54.9312 9.65425 51.6612C9.81402 48.6096 10.2862 45.5424 10.9932 42.5712C11.73 39.522 12.7411 36.498 14.1325 33.6876C14.2315 33.5196 14.3937 33.3888 14.5797 33.3312C15.8208 33.2316 29.9556 33.3275 31.6046 33.2951L48.3959 33.2951C48.44 33.2951 48.4853 33.2988 48.5294 33.3072C48.6069 33.3204 48.6832 33.3468 48.7536 33.3828C48.8907 33.4536 49.0064 33.5652 49.0839 33.6996C50.4705 36.5076 51.4828 39.5268 52.2172 42.5712C52.9231 45.5424 53.3964 48.6096 53.5562 51.6612C53.7911 54.9252 53.3738 58.5155 53.0685 61.7747C52.321 66.0335 51.2193 70.296 49.4141 74.2332C48.2826 76.6536 46.8292 78.9492 45.1242 81.0012C43.6768 82.71 42.0302 84.4224 40.1726 85.6776C37.6496 87.3684 34.6307 88.2924 31.6034 88.2876Z" fill="white" stroke="#303030" stroke-miterlimit="10" stroke-linecap="round" stroke-linejoin="round"/>
</svg>
