<svg width="162" height="66" viewBox="0 0 162 66" fill="none" xmlns="http://www.w3.org/2000/svg">
<path d="M152.084 64.9895C152.763 65.0431 153.457 64.8903 154.051 64.5561C154.592 64.2526 155.052 63.7997 155.363 63.2606C155.472 63.0704 155.568 62.8662 155.639 62.6587C156.095 61.1546 156.877 58.2804 157.28 56.7661C158.716 51.1814 159.986 45.4286 160.353 39.6625C160.486 37.7792 160.497 35.4939 160.499 33.5941C160.506 30.1181 160.463 26.416 160.041 22.9704C159.481 18.1649 158.292 13.3917 156.833 8.78611C156.644 8.19175 156.25 6.99384 156.05 6.40246C155.9 5.96117 155.66 5.54858 155.35 5.20128C155.068 4.88406 154.726 4.6175 154.348 4.42299C153.989 4.23743 153.597 4.11444 153.196 4.06324C130.101 2.38338 104.08 0.963598 80.9996 1.00071C57.8189 1.00207 31.6195 2.31539 8.44551 4.12825C7.57855 4.33115 6.79845 4.88325 6.31885 5.63689C6.17804 5.85795 6.05801 6.09797 5.97007 6.34503C5.62318 7.41481 5.12928 8.84706 4.81233 9.92606C3.52106 14.1667 2.47149 18.5618 1.95898 22.9704C1.53791 26.4139 1.4934 30.1198 1.50068 33.5941C1.49906 35.751 1.52226 38.2088 1.69598 40.3484C2.0515 45.0155 2.97699 49.682 4.07809 54.225C4.70281 56.7568 5.61509 60.1566 6.36093 62.6587C6.44752 62.9038 6.56081 63.1439 6.69919 63.3638C7.09274 63.9945 7.69239 64.4929 8.38374 64.7617C8.73791 64.8998 9.11609 64.9803 9.49562 64.9965C23.2205 64.0137 43.3782 62.6847 57.058 62.2279C88.1114 60.9558 121.059 62.6262 152.084 64.9895Z" stroke="#303030" stroke-miterlimit="10" stroke-linecap="round" stroke-linejoin="round"/>
<path d="M152.083 64.9889C129.39 63.2822 103.674 61.7671 80.9991 61.7755C58.3503 61.7655 32.5723 63.2909 9.91492 64.9889C9.30557 65.0369 8.68381 64.9193 8.13353 64.6519C7.5374 64.3642 7.02624 63.9013 6.6807 63.3348C6.55554 63.1297 6.44979 62.9106 6.36914 62.6841C5.61575 60.171 4.70536 56.7684 4.07713 54.2244C2.86976 49.2409 1.87737 44.1258 1.60682 38.9957C1.50701 37.3692 1.50459 35.2367 1.5 33.5934C1.50216 31.4638 1.5089 28.8136 1.63568 26.7011C1.73522 24.9538 1.91594 23.1074 2.16708 21.3749C2.90132 16.2904 4.30317 11.2592 5.94942 6.40142C6.05732 6.08745 6.20756 5.78648 6.39935 5.51531C6.84605 4.87652 7.51178 4.39676 8.25789 4.17705C8.4548 4.11827 8.6598 4.07736 8.864 4.05461C29.0257 2.60312 52.8158 1.23452 72.944 1.04706C98.9562 0.721436 127.472 2.12254 153.468 4.10797C153.853 4.18897 154.225 4.33661 154.562 4.54223C155.202 4.93097 155.71 5.53291 155.986 6.23075C157.58 10.8759 158.934 15.6947 159.707 20.5506C160.256 23.9347 160.465 27.4461 160.49 30.8733C160.508 34.6908 160.55 38.7541 160.097 42.5418C159.568 47.3086 158.476 52.123 157.28 56.7652C156.879 58.2738 156.093 61.1522 155.641 62.6508C155.59 62.796 155.531 62.9407 155.461 63.078C155.287 63.4245 155.054 63.7422 154.777 64.0123C154.071 64.7056 153.067 65.0697 152.083 64.9889Z" fill="white" stroke="#303030" stroke-miterlimit="10" stroke-linecap="round" stroke-linejoin="round"/>
<path d="M84.5 13.7637C84.2705 13.2758 83.1138 13.119 82.4701 13.0552C81.3882 12.9476 80.0894 12.9764 79.1126 13.3309C78.8585 13.4232 78.5892 13.5556 78.5 13.7447" stroke="#303030" stroke-miterlimit="10" stroke-linecap="round" stroke-linejoin="round"/>
<path d="M105.502 39C106.475 39.0064 107.73 38.9953 108.475 39.789C109.382 40.7545 109.403 42.3691 109.45 43.6424C109.524 45.6217 109.497 47.6087 109.488 49.589C109.484 50.4477 109.467 51.3091 109.405 52.1655C109.352 52.8978 109.283 53.6837 108.968 54.3486C108.426 55.4908 107.167 55.8987 106.057 55.977C104.818 56.0642 103.374 55.9408 102.444 54.9508C102.059 54.5406 101.863 54.0004 101.753 53.4396C101.58 52.5613 101.557 51.6464 101.533 50.752C101.481 48.8406 101.501 46.9217 101.521 45.0096C101.531 44.1083 101.548 43.2022 101.64 42.3056C101.709 41.6326 101.823 40.9377 102.141 40.3427C102.619 39.4473 103.425 39.1613 104.35 39.0567C104.733 39.0131 105.117 39.0025 105.502 39Z" stroke="#303030" stroke-miterlimit="10" stroke-linecap="round" stroke-linejoin="round"/>
<path d="M68.5205 29C68.4452 29.7541 68.5675 30.4682 69.0544 31.0672C69.5072 31.6241 70.1848 31.9569 70.894 31.9781C72.516 32.0267 74.1465 31.9792 75.769 31.9792C78.8964 31.9792 82.0238 31.9792 85.1512 31.9792C87.0868 31.9792 89.0224 31.9855 90.9582 31.9792C92.2873 31.9749 93.4342 30.9637 93.4978 29.5815C93.5068 29.3862 93.4864 29.1941 93.467 29" fill="#ECEDF1"/>
<path d="M68.5205 29C68.4452 29.7541 68.5675 30.4682 69.0544 31.0672C69.5072 31.6241 70.1848 31.9569 70.894 31.9781C72.516 32.0267 74.1465 31.9792 75.769 31.9792C78.8964 31.9792 82.0238 31.9792 85.1512 31.9792C87.0868 31.9792 89.0224 31.9855 90.9582 31.9792C92.2873 31.9749 93.4342 30.9637 93.4978 29.5815C93.5068 29.3862 93.4864 29.1941 93.467 29" stroke="#303030" stroke-miterlimit="10" stroke-linecap="round" stroke-linejoin="round"/>
<path d="M78.5 13.4714C78.4958 14.3818 79.7812 14.7413 80.3602 14.863C81.5077 15.1046 82.9755 15.0803 83.9933 14.3484C84.5155 13.973 84.712 13.3517 84.2052 12.8425C83.85 12.4856 83.3625 12.3001 82.9089 12.1797C82.2487 12.0044 81.5571 11.9632 80.8824 12.0307C80.2927 12.0897 79.6784 12.2268 79.1541 12.5513C78.8941 12.7122 78.6109 12.948 78.5244 13.2865C78.509 13.3467 78.5005 13.4087 78.5 13.4714Z" stroke="#303030" stroke-miterlimit="10" stroke-linecap="round" stroke-linejoin="round"/>
<path d="M42.5 27.9996C43.7335 27.7115 44.9655 27.4173 46.2009 27.1356C47.4985 26.8399 48.8011 26.5628 50.1038 26.2867C51.3233 26.0281 52.5495 25.7962 53.7755 25.5655C54.9083 25.3521 56.0439 25.1479 57.1835 24.9665C58.5278 24.7524 59.8718 24.5427 61.2209 24.3553C62.4715 24.1816 63.7253 24.0294 64.9807 23.8878C66.1997 23.7502 67.4213 23.631 68.6444 23.5269C69.872 23.4223 71.1012 23.3262 72.332 23.2571C73.6852 23.1811 75.0379 23.1186 76.3926 23.0708C77.5956 23.0283 78.8006 23.0089 80.0044 23.0025C81.3312 22.9957 82.6579 23.0023 83.9848 23.0281C85.2252 23.0521 86.4655 23.0968 87.7047 23.1538C88.9208 23.21 90.1374 23.276 91.351 23.3679C92.6591 23.4667 93.9662 23.5729 95.2711 23.7024C96.5553 23.8297 97.8375 23.9752 99.1171 24.1356C100.356 24.2906 101.593 24.4615 102.826 24.6498C104.091 24.8429 105.352 25.0541 106.612 25.2739C107.769 25.4756 108.925 25.6881 110.076 25.9196C111.341 26.1739 112.605 26.43 113.864 26.7055C115.153 26.9874 116.436 27.2847 117.72 27.5844C118.313 27.723 118.907 27.8615 119.5 28" stroke="#303030" stroke-miterlimit="10" stroke-linecap="round" stroke-linejoin="round"/>
<path d="M71.5 6C72.574 6 73.6483 6 74.7226 6C76.4244 6 78.1262 6 79.828 6C80.4664 6 81.105 6 81.7434 6C83.3675 6 84.9916 6 86.6157 6C87.8894 6 89.1631 6 90.4367 6C90.4579 6 90.4788 6 90.5 6" stroke="#303030" stroke-miterlimit="10" stroke-linecap="round" stroke-linejoin="round"/>
<path d="M87.5 22.6315C87.5664 22.5271 87.5708 22.3406 87.5948 22.2211C87.6764 21.8136 87.7579 21.4063 87.8395 20.9989C88.118 19.6083 88.3964 18.2178 88.6748 16.8273C89.0084 15.1613 89.3419 13.4951 89.6757 11.8292C89.9508 10.4551 90.226 9.08118 90.5011 7.70706C90.5798 7.31404 90.6585 6.92126 90.7372 6.52823C90.7652 6.38807 90.78 6.21484 90.8324 6.08179C90.9193 5.86151 90.9546 6.14403 90.9663 6.25282C90.9912 6.48486 91.0088 6.71837 91.0302 6.95091C91.1396 8.14542 91.2491 9.34017 91.3584 10.5347C91.5112 12.2031 91.664 13.8712 91.8168 15.5396C91.9605 17.11 92.1045 18.6802 92.2482 20.2505C92.3285 21.1258 92.4085 22.0013 92.4888 22.8765C92.4925 22.9177 92.4963 22.9588 92.5 23" fill="#ECEDF1"/>
<path d="M87.5 22.6315C87.5664 22.5271 87.5708 22.3406 87.5948 22.2211C87.6764 21.8136 87.7579 21.4063 87.8395 20.9989C88.118 19.6083 88.3964 18.2178 88.6748 16.8273C89.0084 15.1613 89.3419 13.4951 89.6757 11.8292C89.9508 10.4551 90.226 9.08118 90.5011 7.70706C90.5798 7.31404 90.6585 6.92126 90.7372 6.52823C90.7652 6.38807 90.78 6.21484 90.8324 6.08179C90.9193 5.86151 90.9546 6.14403 90.9663 6.25282C90.9912 6.48486 91.0088 6.71837 91.0302 6.95091C91.1396 8.14542 91.2491 9.34017 91.3584 10.5347C91.5112 12.2031 91.664 13.8712 91.8168 15.5396C91.9605 17.11 92.1045 18.6802 92.2482 20.2505C92.3285 21.1258 92.4085 22.0013 92.4888 22.8765C92.4925 22.9177 92.4963 22.9588 92.5 23" stroke="#303030" stroke-miterlimit="10" stroke-linecap="round" stroke-linejoin="round"/>
<path d="M74.5 22.6315C74.4336 22.5271 74.4292 22.3406 74.4052 22.2211C74.3236 21.8136 74.2421 21.4063 74.1605 20.9989C73.8821 19.6083 73.6036 18.2178 73.3252 16.8273C72.9916 15.1613 72.6581 13.4951 72.3243 11.8292C72.0492 10.4551 71.774 9.08118 71.4989 7.70706C71.4202 7.31404 71.3415 6.92126 71.2628 6.52823C71.2348 6.38807 71.22 6.21484 71.1675 6.08179C71.0807 5.86151 71.0454 6.14403 71.0337 6.25282C71.0088 6.48486 70.9912 6.71837 70.9698 6.95091C70.8605 8.14542 70.7509 9.34017 70.6415 10.5347C70.4888 12.2031 70.336 13.8712 70.1832 15.5396C70.0395 17.11 69.8955 18.6802 69.7518 20.2505C69.6715 21.1258 69.5915 22.0013 69.5112 22.8765C69.5075 22.9177 69.5037 22.9588 69.5 23" fill="#ECEDF1"/>
<path d="M74.5 22.6315C74.4336 22.5271 74.4292 22.3406 74.4052 22.2211C74.3236 21.8136 74.2421 21.4063 74.1605 20.9989C73.8821 19.6083 73.6036 18.2178 73.3252 16.8273C72.9916 15.1613 72.6581 13.4951 72.3243 11.8292C72.0492 10.4551 71.774 9.08118 71.4989 7.70706C71.4202 7.31404 71.3415 6.92126 71.2628 6.52823C71.2348 6.38807 71.22 6.21484 71.1675 6.08179C71.0807 5.86151 71.0454 6.14403 71.0337 6.25282C71.0088 6.48486 70.9912 6.71837 70.9698 6.95091C70.8605 8.14542 70.7509 9.34017 70.6415 10.5347C70.4888 12.2031 70.336 13.8712 70.1832 15.5396C70.0395 17.11 69.8955 18.6802 69.7518 20.2505C69.6715 21.1258 69.5915 22.0013 69.5112 22.8765C69.5075 22.9177 69.5037 22.9588 69.5 23" stroke="#303030" stroke-miterlimit="10" stroke-linecap="round" stroke-linejoin="round"/>
<path d="M119.476 28.0854C119.476 28.2277 119.476 28.3699 119.476 28.5122C119.476 28.5823 119.529 28.9293 119.476 28.9795C119.465 28.99 119.426 28.9777 119.41 28.9822C119.256 29.0223 119.027 28.9822 118.869 28.9822C118.038 28.9822 117.207 28.9822 116.376 28.9822C115.045 28.9822 113.713 28.9822 112.382 28.9822C110.696 28.9822 109.011 28.9822 107.325 28.9822C105.453 28.9822 103.581 28.9822 101.709 28.9822C99.7978 28.9822 97.8866 28.9822 95.9755 28.9822C94.1717 28.9822 92.3677 28.9822 90.5639 28.9822C89.0364 28.9822 87.5088 28.9822 85.9813 28.9822C84.8758 28.9822 83.7702 28.9822 82.6647 28.9822C82.1339 28.9822 81.6031 28.9822 81.0723 28.9822C80.8438 28.9822 80.6153 28.9822 80.3868 28.9822C79.5534 28.9822 78.7201 28.9822 77.8867 28.9822C76.5471 28.9822 75.2078 28.9822 73.8682 28.9822C72.1877 28.9822 70.5075 28.9822 68.827 28.9822C66.9544 28.9822 65.0821 28.9822 63.2095 28.9822C61.2906 28.9822 59.3718 28.9822 57.4529 28.9822C55.6575 28.9822 53.8625 28.9822 52.0671 28.9822C50.541 28.9822 49.0149 28.9822 47.4888 28.9822C46.3855 28.9822 45.2819 28.9822 44.1785 28.9822C43.832 28.9822 43.4858 28.9822 43.1393 28.9822C42.9789 28.9822 42.7502 29.0218 42.5943 28.9822C42.5813 28.9788 42.5352 28.9909 42.5253 28.9822C42.4778 28.9403 42.5253 28.6159 42.5253 28.5554C42.5253 28.4683 42.4684 28.1585 42.5253 28.0881C42.5885 28.0102 42.9782 27.9777 43.0771 27.9542C43.5018 27.8533 43.9264 27.7523 44.3508 27.6515C45.6218 27.3495 46.8929 27.0496 48.1688 26.7662C49.442 26.4832 50.7196 26.2198 51.9979 25.9579C53.1526 25.7216 54.3127 25.5063 55.4739 25.3002C56.716 25.0798 57.9598 24.8676 59.2075 24.6747C60.4464 24.4834 61.6885 24.3065 62.933 24.1499C64.2026 23.9901 65.4737 23.8412 66.7476 23.713C68.0672 23.5804 69.3886 23.4693 70.7116 23.3694C71.9459 23.2762 73.183 23.2083 74.42 23.1503C75.6353 23.0932 76.8523 23.0481 78.0691 23.0271C79.4152 23.004 80.7603 22.9953 82.1066 23.0024C83.3026 23.0087 84.4998 23.0307 85.6949 23.0746C87.0448 23.1241 88.3936 23.185 89.7419 23.2652C90.9914 23.3396 92.2393 23.4391 93.486 23.547C94.7165 23.6537 95.9451 23.78 97.1717 23.9209C98.4259 24.065 99.6781 24.224 100.927 24.4005C102.261 24.5892 103.589 24.8031 104.919 25.0184C106.072 25.2052 107.221 25.4196 108.368 25.6394C109.574 25.8708 110.78 26.1051 111.98 26.3647C113.251 26.6398 114.522 26.9143 115.788 27.2086C117.019 27.4954 118.247 27.7933 119.476 28.0854Z" fill="#ECEDF1" stroke="#303030" stroke-miterlimit="10" stroke-linecap="round" stroke-linejoin="round"/>
<path d="M105.496 42.6509L105.496 45.6509" stroke="#303030" stroke-linecap="round"/>
<path d="M58.3456 55.0515C57.8812 55.0515 57.5307 54.6728 57.5147 54.2207C57.498 53.7468 57.5147 53.2693 57.5147 52.795C57.5147 50.2854 57.5147 47.776 57.5147 45.2663C57.5147 43.4686 57.4816 41.6674 57.5147 39.8701C57.5221 39.4731 57.7595 39.1189 58.1607 39.0273C58.3569 38.9824 58.5806 39.0064 58.7796 39.0064C60.1007 39.0064 61.4216 39.0064 62.7427 39.0064C65.0149 39.0064 67.2874 39.0064 69.5597 39.0064C72.3028 39.0064 75.0461 39.0064 77.7892 39.0064C80.4712 39.0064 83.1532 39.0064 85.8352 39.0064C87.98 39.0064 90.1248 39.0064 92.2695 39.0064C93.3516 39.0064 94.4337 39.0064 95.5161 39.0064C95.7963 39.0064 96.0584 39.0497 96.2629 39.2651C96.5253 39.5414 96.4913 39.8951 96.4913 40.2449C96.4913 42.4217 96.4913 44.5981 96.4913 46.7748C96.4913 49.0598 96.4913 51.345 96.4913 53.63C96.4913 53.9717 96.5521 54.3803 96.3522 54.6806C96.1734 54.9495 95.8879 55.0501 95.5788 55.0513C94.5675 55.0552 93.5562 55.0513 92.5449 55.0513C90.4588 55.0513 88.3726 55.0513 86.2864 55.0513C83.6081 55.0513 80.9295 55.0513 78.2512 55.0513C75.5119 55.0513 72.7725 55.0513 70.0333 55.0513C67.7083 55.0513 65.3835 55.0513 63.0585 55.0513C61.6754 55.0513 60.2923 55.0513 58.9092 55.0513C58.7211 55.0515 58.5332 55.0515 58.3456 55.0515Z" fill="#ECEDF1" stroke="#303030" stroke-miterlimit="10" stroke-linecap="round" stroke-linejoin="round"/>
<path d="M91.0779 53.5349H93.3557" stroke="#303030" stroke-width="0.5" stroke-miterlimit="10" stroke-linecap="round" stroke-linejoin="round"/>
<path d="M58.2094 41.6325C58.0641 41.6314 57.9988 41.5178 57.9875 41.3896C57.9391 40.8408 57.9766 40.2582 57.9875 39.7071C57.9903 39.5641 58.0241 39.4466 58.1825 39.4156C58.2924 39.3941 58.4236 39.414 58.5349 39.414C58.8535 39.414 59.1721 39.414 59.4905 39.414C60.0406 39.414 60.6043 39.3774 61.1533 39.414C61.2884 39.423 61.3805 39.4748 61.4071 39.6166C61.4393 39.7876 61.408 39.9907 61.408 40.1643C61.408 40.5039 61.408 40.8433 61.408 41.183C61.408 41.3382 61.4458 41.5469 61.2648 41.618C61.1713 41.6545 61.0418 41.6323 60.946 41.6323C60.6142 41.6323 60.2822 41.6323 59.9504 41.6323C59.3699 41.6325 58.7896 41.6325 58.2094 41.6325Z" fill="#ECEDF1" stroke="#303030" stroke-width="0.5" stroke-miterlimit="10" stroke-linecap="round" stroke-linejoin="round"/>
<path d="M62.0735 41.6323C61.9601 41.6313 61.8784 41.5513 61.8544 41.4446C61.8289 41.3329 61.8518 41.1943 61.8518 41.0812C61.8518 40.7901 61.8518 40.499 61.8518 40.208C61.8518 40.0245 61.775 39.6777 61.8911 39.5095C61.9818 39.3778 62.1632 39.4137 62.2995 39.4137C62.8006 39.4137 63.3111 39.3843 63.8113 39.4137C63.9221 39.4202 64.0165 39.4484 64.0586 39.5641C64.0845 39.6356 64.0704 39.7277 64.0704 39.8008C64.0704 40.0719 64.0704 40.3431 64.0704 40.6143C64.0704 40.8523 64.0727 41.0906 64.0704 41.3287C64.0699 41.3882 64.0757 41.4476 64.05 41.5032C63.9728 41.6698 63.7719 41.6323 63.6227 41.6323C63.1063 41.6323 62.5899 41.6323 62.0735 41.6323Z" fill="#ECEDF1" stroke="#303030" stroke-width="0.5" stroke-miterlimit="10" stroke-linecap="round" stroke-linejoin="round"/>
<path d="M64.7358 41.6323C64.6224 41.6313 64.5408 41.5513 64.5167 41.4446C64.4913 41.3329 64.5142 41.1943 64.5142 41.0812C64.5142 40.7901 64.5142 40.499 64.5142 40.208C64.5142 40.0245 64.4374 39.6777 64.5535 39.5095C64.6442 39.3778 64.8256 39.4137 64.9619 39.4137C65.463 39.4137 65.9734 39.3843 66.4736 39.4137C66.5844 39.4202 66.6788 39.4484 66.7209 39.5641C66.7471 39.6356 66.7327 39.7277 66.7327 39.8008C66.7327 40.0719 66.7327 40.3431 66.7327 40.6143C66.7327 40.8523 66.7351 41.0906 66.7327 41.3287C66.7323 41.3882 66.7381 41.4476 66.7124 41.5032C66.6351 41.6698 66.4343 41.6323 66.2851 41.6323C65.7686 41.6323 65.2522 41.6323 64.7358 41.6323Z" fill="#ECEDF1" stroke="#303030" stroke-width="0.5" stroke-miterlimit="10" stroke-linecap="round" stroke-linejoin="round"/>
<path d="M67.3982 41.6323C67.2848 41.6313 67.2031 41.5513 67.1791 41.4446C67.1536 41.3329 67.1765 41.1943 67.1765 41.0812C67.1765 40.7901 67.1765 40.499 67.1765 40.208C67.1765 40.0245 67.0997 39.6777 67.2159 39.5095C67.3066 39.3778 67.4879 39.4137 67.6242 39.4137C68.1254 39.4137 68.6357 39.3843 69.136 39.4137C69.2468 39.4202 69.3412 39.4484 69.3833 39.5641C69.4092 39.6356 69.3951 39.7277 69.3951 39.8008C69.3951 40.0719 69.3951 40.3431 69.3951 40.6143C69.3951 40.8523 69.3974 41.0906 69.3951 41.3287C69.3944 41.3882 69.4004 41.4476 69.3748 41.5032C69.2975 41.6698 69.0966 41.6323 68.9474 41.6323C68.431 41.6323 67.9146 41.6323 67.3982 41.6323Z" fill="#ECEDF1" stroke="#303030" stroke-width="0.5" stroke-miterlimit="10" stroke-linecap="round" stroke-linejoin="round"/>
<path d="M80.7094 41.6323C80.5961 41.6313 80.5144 41.5513 80.4903 41.4446C80.4649 41.3329 80.4878 41.1943 80.4878 41.0812C80.4878 40.7901 80.4878 40.499 80.4878 40.208C80.4878 40.0245 80.411 39.6777 80.5271 39.5095C80.6178 39.3778 80.7992 39.4137 80.9355 39.4137C81.4366 39.4137 81.947 39.3843 82.4472 39.4137C82.5581 39.4202 82.6525 39.4484 82.6946 39.5641C82.7205 39.6356 82.7064 39.7277 82.7064 39.8008C82.7064 40.0719 82.7064 40.3431 82.7064 40.6143C82.7064 40.8523 82.7087 41.0906 82.7064 41.3287C82.7057 41.3882 82.7117 41.4476 82.686 41.5032C82.6087 41.6698 82.4079 41.6323 82.2589 41.6323C81.7423 41.6323 81.2259 41.6323 80.7094 41.6323Z" fill="#ECEDF1" stroke="#303030" stroke-width="0.5" stroke-miterlimit="10" stroke-linecap="round" stroke-linejoin="round"/>
<path d="M83.372 41.6323C83.2587 41.6313 83.177 41.5513 83.1529 41.4446C83.1275 41.3329 83.1504 41.1943 83.1504 41.0812C83.1504 40.7901 83.1504 40.499 83.1504 40.208C83.1504 40.0245 83.0736 39.6777 83.1897 39.5095C83.2804 39.3778 83.4618 39.4137 83.5981 39.4137C84.0992 39.4137 84.6096 39.3843 85.1098 39.4137C85.2207 39.4202 85.3151 39.4484 85.3572 39.5641C85.3831 39.6356 85.369 39.7277 85.369 39.8008C85.369 40.0719 85.369 40.3431 85.369 40.6143C85.369 40.8523 85.3713 41.0906 85.369 41.3287C85.3685 41.3882 85.3743 41.4476 85.3486 41.5032C85.2713 41.6698 85.0705 41.6323 84.9213 41.6323C84.4049 41.6323 83.8885 41.6323 83.372 41.6323Z" fill="#ECEDF1" stroke="#303030" stroke-width="0.5" stroke-miterlimit="10" stroke-linecap="round" stroke-linejoin="round"/>
<path d="M86.0344 41.6323C85.921 41.6313 85.8394 41.5513 85.8153 41.4446C85.7898 41.3329 85.8127 41.1943 85.8125 41.0812C85.8125 40.7901 85.8125 40.499 85.8125 40.208C85.8125 40.0245 85.7357 39.6777 85.8518 39.5095C85.9425 39.3778 86.1239 39.4137 86.2602 39.4137C86.7614 39.4137 87.2717 39.3843 87.7719 39.4137C87.8828 39.4202 87.9772 39.4484 88.0193 39.5641C88.0454 39.6356 88.0311 39.7277 88.0311 39.8008C88.0311 40.0719 88.0311 40.3431 88.0311 40.6143C88.0311 40.8523 88.0334 41.0906 88.0311 41.3287C88.0306 41.3882 88.0364 41.4476 88.0107 41.5032C87.9335 41.6698 87.7326 41.6323 87.5834 41.6323C87.0672 41.6323 86.5508 41.6323 86.0344 41.6323Z" fill="#ECEDF1" stroke="#303030" stroke-width="0.5" stroke-miterlimit="10" stroke-linecap="round" stroke-linejoin="round"/>
<path d="M88.6965 41.6323C88.5831 41.6313 88.5015 41.5513 88.4774 41.4446C88.4519 41.3329 88.4749 41.1943 88.4749 41.0812C88.4749 40.7901 88.4749 40.499 88.4749 40.208C88.4749 40.0245 88.3981 39.6777 88.5142 39.5095C88.6049 39.3778 88.7863 39.4137 88.9225 39.4137C89.4237 39.4137 89.9341 39.3843 90.4343 39.4137C90.5451 39.4202 90.6395 39.4484 90.6816 39.5641C90.7075 39.6356 90.6934 39.7277 90.6934 39.8008C90.6934 40.0719 90.6934 40.3431 90.6934 40.6143C90.6934 40.8523 90.6957 41.0906 90.6934 41.3287C90.693 41.3882 90.6988 41.4476 90.6731 41.5032C90.5958 41.6698 90.395 41.6323 90.2458 41.6323C89.7293 41.6323 89.2129 41.6323 88.6965 41.6323Z" fill="#ECEDF1" stroke="#303030" stroke-width="0.5" stroke-miterlimit="10" stroke-linecap="round" stroke-linejoin="round"/>
<path d="M91.3591 41.6323C91.2457 41.6313 91.1641 41.5513 91.14 41.4446C91.1145 41.3329 91.1375 41.1943 91.1375 41.0812C91.1375 40.7901 91.1375 40.499 91.1375 40.208C91.1375 40.0245 91.0606 39.6777 91.1768 39.5095C91.2675 39.3778 91.4489 39.4137 91.5852 39.4137C92.0863 39.4137 92.5967 39.3843 93.0969 39.4137C93.2077 39.4202 93.3021 39.4484 93.3443 39.5641C93.3704 39.6356 93.356 39.7277 93.356 39.8008C93.356 40.0719 93.356 40.3431 93.356 40.6143C93.356 40.8523 93.3583 41.0906 93.356 41.3287C93.3556 41.3882 93.3613 41.4476 93.3357 41.5032C93.2584 41.6698 93.0576 41.6323 92.9083 41.6323C92.3919 41.6323 91.8755 41.6323 91.3591 41.6323Z" fill="#ECEDF1" stroke="#303030" stroke-width="0.5" stroke-miterlimit="10" stroke-linecap="round" stroke-linejoin="round"/>
<path d="M94.0215 41.6323C93.9081 41.6313 93.8264 41.5513 93.8024 41.4446C93.7769 41.3329 93.7998 41.1943 93.7998 41.0812C93.7998 40.7901 93.7998 40.499 93.7998 40.208C93.7998 40.0245 93.723 39.6777 93.8391 39.5095C93.9298 39.3778 94.1112 39.4137 94.2475 39.4137C94.7486 39.4137 95.2591 39.3843 95.7593 39.4137C95.8701 39.4202 95.9645 39.4484 96.0066 39.5641C96.0325 39.6356 96.0184 39.7277 96.0184 39.8008C96.0184 40.0719 96.0184 40.3431 96.0184 40.6143C96.0184 40.8523 96.0207 41.0906 96.0184 41.3287C96.0177 41.3882 96.0237 41.4476 95.998 41.5032C95.9208 41.6698 95.7199 41.6323 95.5709 41.6323C95.0543 41.6323 94.5379 41.6323 94.0215 41.6323Z" fill="#ECEDF1" stroke="#303030" stroke-width="0.5" stroke-miterlimit="10" stroke-linecap="round" stroke-linejoin="round"/>
<path d="M78.0476 41.6323C77.9342 41.6313 77.8526 41.5513 77.8285 41.4446C77.803 41.3329 77.8259 41.1943 77.8259 41.0812C77.8259 40.7901 77.8259 40.499 77.8259 40.208C77.8259 40.0245 77.7491 39.6777 77.8653 39.5095C77.956 39.3778 78.1374 39.4137 78.2736 39.4137C78.7748 39.4137 79.2852 39.3843 79.7854 39.4137C79.8962 39.4202 79.9906 39.4484 80.0327 39.5641C80.0589 39.6356 80.0445 39.7277 80.0445 39.8008C80.0445 40.0719 80.0445 40.3431 80.0445 40.6143C80.0445 40.8523 80.0468 41.0906 80.0445 41.3287C80.0441 41.3882 80.0498 41.4476 80.0242 41.5032C79.9469 41.6698 79.746 41.6323 79.5968 41.6323C79.0802 41.6323 78.5638 41.6323 78.0476 41.6323Z" fill="#ECEDF1" stroke="#303030" stroke-width="0.5" stroke-miterlimit="10" stroke-linecap="round" stroke-linejoin="round"/>
<path d="M75.3852 41.6323C75.2719 41.6313 75.1902 41.5513 75.1661 41.4446C75.1407 41.3329 75.1636 41.1943 75.1636 41.0812C75.1636 40.7901 75.1636 40.499 75.1636 40.208C75.1636 40.0245 75.0868 39.6777 75.2029 39.5095C75.2936 39.3778 75.475 39.4137 75.6113 39.4137C76.1124 39.4137 76.6228 39.3843 77.123 39.4137C77.2338 39.4202 77.3283 39.4484 77.3704 39.5641C77.3963 39.6356 77.3822 39.7277 77.3822 39.8008C77.3822 40.0719 77.3822 40.3431 77.3822 40.6143C77.3822 40.8523 77.3845 41.0906 77.3822 41.3287C77.3817 41.3882 77.3875 41.4476 77.3618 41.5032C77.2845 41.6698 77.0837 41.6323 76.9345 41.6323C76.4178 41.6323 75.9014 41.6323 75.3852 41.6323Z" fill="#ECEDF1" stroke="#303030" stroke-width="0.5" stroke-miterlimit="10" stroke-linecap="round" stroke-linejoin="round"/>
<path d="M72.7229 41.6323C72.6095 41.6313 72.5278 41.5513 72.5037 41.4446C72.4783 41.3329 72.501 41.1943 72.501 41.0812C72.501 40.7901 72.501 40.499 72.501 40.208C72.501 40.0245 72.4242 39.6777 72.5403 39.5095C72.631 39.3778 72.8124 39.4137 72.9487 39.4137C73.4498 39.4137 73.9602 39.3843 74.4604 39.4137C74.5713 39.4202 74.6656 39.4484 74.7077 39.5641C74.7339 39.6356 74.7196 39.7277 74.7196 39.8008C74.7196 40.0719 74.7196 40.3431 74.7196 40.6143C74.7196 40.8523 74.7219 41.0906 74.7196 41.3287C74.7189 41.3882 74.7249 41.4476 74.6992 41.5032C74.6219 41.6698 74.4211 41.6323 74.2718 41.6323C73.7554 41.6323 73.2393 41.6323 72.7229 41.6323Z" fill="#ECEDF1" stroke="#303030" stroke-width="0.5" stroke-miterlimit="10" stroke-linecap="round" stroke-linejoin="round"/>
<path d="M70.0608 41.6323C69.9474 41.6313 69.8657 41.5513 69.8417 41.4446C69.8162 41.3329 69.8391 41.1943 69.8391 41.0812C69.8391 40.7901 69.8391 40.499 69.8391 40.208C69.8391 40.0245 69.7623 39.6777 69.8784 39.5095C69.9691 39.3778 70.1505 39.4137 70.2868 39.4137C70.788 39.4137 71.2984 39.3843 71.7986 39.4137C71.9094 39.4202 72.0038 39.4484 72.0459 39.5641C72.072 39.6356 72.0577 39.7277 72.0577 39.8008C72.0577 40.0719 72.0577 40.3431 72.0577 40.6143C72.0577 40.8523 72.06 41.0906 72.0577 41.3287C72.0572 41.3882 72.063 41.4476 72.0373 41.5032C71.9601 41.6698 71.7592 41.6323 71.61 41.6323C71.0936 41.6323 70.5772 41.6323 70.0608 41.6323Z" fill="#ECEDF1" stroke="#303030" stroke-width="0.5" stroke-miterlimit="10" stroke-linecap="round" stroke-linejoin="round"/>
<path d="M92.8195 44.2346C92.6742 44.2334 92.6089 44.1198 92.5976 43.9916C92.5492 43.4428 92.5867 42.8603 92.5976 42.3091C92.6004 42.1662 92.6342 42.0486 92.7927 42.0176C92.9026 41.9961 93.0337 42.016 93.145 42.016C93.4636 42.016 93.7822 42.016 94.1006 42.016C94.6507 42.016 95.2144 41.9794 95.7634 42.016C95.8985 42.025 95.9906 42.0769 96.0172 42.2187C96.0494 42.3897 96.0181 42.5928 96.0181 42.7663C96.0181 43.106 96.0181 43.4454 96.0181 43.785C96.0181 43.9403 96.0559 44.149 95.8749 44.22C95.7815 44.2566 95.6519 44.2344 95.5561 44.2344C95.2243 44.2344 94.8923 44.2344 94.5605 44.2344C93.9803 44.2346 93.4 44.2346 92.8195 44.2346Z" fill="#ECEDF1" stroke="#303030" stroke-width="0.5" stroke-miterlimit="10" stroke-linecap="round" stroke-linejoin="round"/>
<path d="M76.8457 44.2348C76.7323 44.2339 76.6506 44.1538 76.6266 44.0472C76.6011 43.9354 76.624 43.7968 76.624 43.6837C76.624 43.3926 76.624 43.1016 76.624 42.8105C76.624 42.627 76.5472 42.2802 76.6634 42.112C76.7541 41.9804 76.9355 42.0162 77.0717 42.0162C77.5729 42.0162 78.0833 41.9868 78.5835 42.0162C78.6943 42.0227 78.7887 42.0509 78.8308 42.1666C78.857 42.2381 78.8426 42.3302 78.8426 42.4033C78.8426 42.6745 78.8426 42.9456 78.8426 43.2168C78.8426 43.4549 78.8449 43.6932 78.8426 43.9313C78.8421 43.9907 78.8479 44.0502 78.8223 44.1057C78.745 44.2723 78.5442 44.2348 78.3949 44.2348C77.8785 44.2348 77.3621 44.2348 76.8457 44.2348Z" fill="#ECEDF1" stroke="#303030" stroke-width="0.5" stroke-miterlimit="10" stroke-linecap="round" stroke-linejoin="round"/>
<path d="M79.508 44.2348C79.3947 44.2339 79.313 44.1538 79.2889 44.0472C79.2635 43.9354 79.2861 43.7968 79.2861 43.6837C79.2861 43.3926 79.2861 43.1016 79.2861 42.8105C79.2861 42.627 79.2093 42.2802 79.3255 42.112C79.4162 41.9804 79.5976 42.0162 79.7338 42.0162C80.235 42.0162 80.7454 41.9868 81.2456 42.0162C81.3564 42.0227 81.4508 42.0509 81.4929 42.1666C81.5191 42.2381 81.5047 42.3302 81.5047 42.4033C81.5047 42.6745 81.5047 42.9456 81.5047 43.2168C81.5047 43.4549 81.5071 43.6932 81.5047 43.9313C81.504 43.9907 81.5101 44.0502 81.4844 44.1057C81.4071 44.2723 81.2063 44.2348 81.057 44.2348C80.5409 44.2348 80.0245 44.2348 79.508 44.2348Z" fill="#ECEDF1" stroke="#303030" stroke-width="0.5" stroke-miterlimit="10" stroke-linecap="round" stroke-linejoin="round"/>
<path d="M82.1704 44.2348C82.057 44.2339 81.9753 44.1538 81.9513 44.0472C81.9258 43.9354 81.9487 43.7968 81.9487 43.6837C81.9487 43.3926 81.9487 43.1016 81.9487 42.8105C81.9487 42.627 81.8719 42.2802 81.9881 42.112C82.0788 41.9804 82.2602 42.0162 82.3964 42.0162C82.8976 42.0162 83.408 41.9868 83.9082 42.0162C84.019 42.0227 84.1134 42.0509 84.1555 42.1666C84.1814 42.2381 84.1673 42.3302 84.1673 42.4033C84.1673 42.6745 84.1673 42.9456 84.1673 43.2168C84.1673 43.4549 84.1696 43.6932 84.1673 43.9313C84.1668 43.9907 84.1726 44.0502 84.1469 44.1057C84.0697 44.2723 83.8689 44.2348 83.7196 44.2348C83.2032 44.2348 82.6868 44.2348 82.1704 44.2348Z" fill="#ECEDF1" stroke="#303030" stroke-width="0.5" stroke-miterlimit="10" stroke-linecap="round" stroke-linejoin="round"/>
<path d="M84.8325 44.2348C84.7191 44.2339 84.6374 44.1538 84.6134 44.0472C84.5879 43.9354 84.6108 43.7968 84.6108 43.6837C84.6108 43.3926 84.6108 43.1016 84.6108 42.8105C84.6108 42.627 84.534 42.2802 84.6502 42.112C84.7409 41.9804 84.9223 42.0162 85.0586 42.0162C85.5597 42.0162 86.0701 41.9868 86.5703 42.0162C86.6811 42.0227 86.7755 42.0509 86.8176 42.1666C86.8438 42.2381 86.8294 42.3302 86.8294 42.4033C86.8294 42.6745 86.8294 42.9456 86.8294 43.2168C86.8294 43.4549 86.8317 43.6932 86.8294 43.9313C86.829 43.9907 86.8348 44.0502 86.8091 44.1057C86.7318 44.2723 86.531 44.2348 86.3817 44.2348C85.8651 44.2348 85.3489 44.2348 84.8325 44.2348Z" fill="#ECEDF1" stroke="#303030" stroke-width="0.5" stroke-miterlimit="10" stroke-linecap="round" stroke-linejoin="round"/>
<path d="M87.4951 44.2348C87.3817 44.2339 87.3001 44.1538 87.276 44.0472C87.2505 43.9354 87.2735 43.7968 87.2735 43.6837C87.2735 43.3926 87.2735 43.1016 87.2735 42.8105C87.2735 42.627 87.1966 42.2802 87.3128 42.112C87.4035 41.9804 87.5849 42.0162 87.7211 42.0162C88.2223 42.0162 88.7327 41.9868 89.2329 42.0162C89.3437 42.0227 89.4381 42.0509 89.4802 42.1666C89.5061 42.2381 89.492 42.3302 89.492 42.4033C89.492 42.6745 89.492 42.9456 89.492 43.2168C89.492 43.4549 89.4943 43.6932 89.492 43.9313C89.4913 43.9907 89.4974 44.0502 89.4717 44.1057C89.3944 44.2723 89.1936 44.2348 89.0446 44.2348C88.5277 44.2348 88.0113 44.2348 87.4951 44.2348Z" fill="#ECEDF1" stroke="#303030" stroke-width="0.5" stroke-miterlimit="10" stroke-linecap="round" stroke-linejoin="round"/>
<path d="M90.1572 44.2348C90.0438 44.2339 89.9622 44.1538 89.9381 44.0472C89.9126 43.9354 89.9355 43.7968 89.9355 43.6837C89.9355 43.3926 89.9355 43.1016 89.9355 42.8105C89.9355 42.627 89.8587 42.2802 89.9749 42.112C90.0656 41.9804 90.247 42.0162 90.3833 42.0162C90.8844 42.0162 91.3948 41.9868 91.895 42.0162C92.0058 42.0227 92.1002 42.0509 92.1423 42.1666C92.1682 42.2381 92.1541 42.3302 92.1541 42.4033C92.1541 42.6745 92.1541 42.9456 92.1541 43.2168C92.1541 43.4549 92.1564 43.6932 92.1541 43.9313C92.1537 43.9907 92.1594 44.0502 92.1338 44.1057C92.0565 44.2723 91.8557 44.2348 91.7064 44.2348C91.1898 44.2348 90.6734 44.2348 90.1572 44.2348Z" fill="#ECEDF1" stroke="#303030" stroke-width="0.5" stroke-miterlimit="10" stroke-linecap="round" stroke-linejoin="round"/>
<path d="M74.1831 44.2348C74.0697 44.2339 73.988 44.1538 73.964 44.0472C73.9385 43.9354 73.9614 43.7968 73.9614 43.6837C73.9614 43.3926 73.9614 43.1016 73.9614 42.8105C73.9614 42.627 73.8846 42.2802 74.0008 42.112C74.0915 41.9804 74.2728 42.0162 74.4091 42.0162C74.9102 42.0162 75.4207 41.9868 75.9209 42.0162C76.0317 42.0227 76.1261 42.0509 76.1682 42.1666C76.1941 42.2381 76.18 42.3302 76.18 42.4033C76.18 42.6745 76.18 42.9456 76.18 43.2168C76.18 43.4549 76.1823 43.6932 76.18 43.9313C76.1793 43.9907 76.1853 44.0502 76.1596 44.1057C76.0824 44.2723 75.8816 44.2348 75.7323 44.2348C75.2159 44.2348 74.6995 44.2348 74.1831 44.2348Z" fill="#ECEDF1" stroke="#303030" stroke-width="0.5" stroke-miterlimit="10" stroke-linecap="round" stroke-linejoin="round"/>
<path d="M71.521 44.2348C71.4076 44.2339 71.3259 44.1538 71.3019 44.0472C71.2764 43.9354 71.2993 43.7968 71.2993 43.6837C71.2993 43.3926 71.2993 43.1016 71.2993 42.8105C71.2993 42.627 71.2225 42.2802 71.3386 42.112C71.4293 41.9804 71.6107 42.0162 71.747 42.0162C72.2482 42.0162 72.7586 41.9868 73.2588 42.0162C73.3696 42.0227 73.464 42.0509 73.5061 42.1666C73.5323 42.2381 73.5179 42.3302 73.5179 42.4033C73.5179 42.6745 73.5179 42.9456 73.5179 43.2168C73.5179 43.4549 73.5202 43.6932 73.5179 43.9313C73.5174 43.9907 73.5232 44.0502 73.4975 44.1057C73.4203 44.2723 73.2194 44.2348 73.0702 44.2348C72.5538 44.2348 72.0374 44.2348 71.521 44.2348Z" fill="#ECEDF1" stroke="#303030" stroke-width="0.5" stroke-miterlimit="10" stroke-linecap="round" stroke-linejoin="round"/>
<path d="M68.8586 44.2348C68.7452 44.2339 68.6636 44.1538 68.6395 44.0472C68.6141 43.9354 68.637 43.7968 68.637 43.6837C68.637 43.3926 68.637 43.1016 68.637 42.8105C68.637 42.627 68.5602 42.2802 68.6763 42.112C68.767 41.9804 68.9484 42.0162 69.0847 42.0162C69.5858 42.0162 70.0962 41.9868 70.5964 42.0162C70.7072 42.0227 70.8017 42.0509 70.8438 42.1666C70.8697 42.2381 70.8555 42.3302 70.8555 42.4033C70.8555 42.6745 70.8555 42.9456 70.8555 43.2168C70.8555 43.4549 70.8579 43.6932 70.8555 43.9313C70.8551 43.9907 70.8609 44.0502 70.8352 44.1057C70.7579 44.2723 70.5571 44.2348 70.4079 44.2348C69.8914 44.2348 69.375 44.2348 68.8586 44.2348Z" fill="#ECEDF1" stroke="#303030" stroke-width="0.5" stroke-miterlimit="10" stroke-linecap="round" stroke-linejoin="round"/>
<path d="M66.1963 44.2348C66.0829 44.2339 66.0012 44.1538 65.9772 44.0472C65.9517 43.9354 65.9746 43.7968 65.9746 43.6837C65.9746 43.3926 65.9746 43.1016 65.9746 42.8105C65.9746 42.627 65.8978 42.2802 66.014 42.112C66.1046 41.9804 66.286 42.0162 66.4223 42.0162C66.9234 42.0162 67.4338 41.9868 67.9341 42.0162C68.0449 42.0227 68.1393 42.0509 68.1814 42.1666C68.2075 42.2381 68.1932 42.3302 68.1932 42.4033C68.1932 42.6745 68.1932 42.9456 68.1932 43.2168C68.1932 43.4549 68.1955 43.6932 68.1932 43.9313C68.1925 43.9907 68.1985 44.0502 68.1728 44.1057C68.0955 44.2723 67.8947 44.2348 67.7457 44.2348C67.2291 44.2348 66.7127 44.2348 66.1963 44.2348Z" fill="#ECEDF1" stroke="#303030" stroke-width="0.5" stroke-miterlimit="10" stroke-linecap="round" stroke-linejoin="round"/>
<path d="M58.2092 44.2348C58.0958 44.2339 58.0141 44.1538 57.9901 44.0472C57.9646 43.9354 57.9875 43.7968 57.9873 43.6837C57.9873 43.3926 57.9873 43.1016 57.9873 42.8105C57.9873 42.627 57.9105 42.2802 58.0266 42.112C58.1173 41.9804 58.2987 42.0162 58.435 42.0162C58.9361 42.0162 59.4465 41.9868 59.9468 42.0162C60.0576 42.0227 60.152 42.0509 60.1941 42.1666C60.2202 42.2381 60.2059 42.3302 60.2059 42.4033C60.2059 42.6745 60.2059 42.9456 60.2059 43.2168C60.2059 43.4549 60.2082 43.6932 60.2059 43.9313C60.2054 43.9907 60.2112 44.0502 60.1855 44.1057C60.1082 44.2723 59.9074 44.2348 59.7582 44.2348C59.2418 44.2348 58.7254 44.2348 58.2092 44.2348Z" fill="#ECEDF1" stroke="#303030" stroke-width="0.5" stroke-miterlimit="10" stroke-linecap="round" stroke-linejoin="round"/>
<path d="M60.8713 44.2348C60.7579 44.2339 60.6763 44.1538 60.6522 44.0472C60.6268 43.9354 60.6497 43.7968 60.6497 43.6837C60.6497 43.3926 60.6497 43.1016 60.6497 42.8105C60.6497 42.627 60.5729 42.2802 60.689 42.112C60.7797 41.9804 60.9611 42.0162 61.0974 42.0162C61.5985 42.0162 62.1089 41.9868 62.6091 42.0162C62.7199 42.0227 62.8144 42.0509 62.8565 42.1666C62.8824 42.2381 62.8682 42.3302 62.8682 42.4033C62.8682 42.6745 62.8682 42.9456 62.8682 43.2168C62.8682 43.4549 62.8706 43.6932 62.8682 43.9313C62.8678 43.9907 62.8736 44.0502 62.8479 44.1057C62.7706 44.2723 62.5698 44.2348 62.4206 44.2348C61.9041 44.2348 61.3877 44.2348 60.8713 44.2348Z" fill="#ECEDF1" stroke="#303030" stroke-width="0.5" stroke-miterlimit="10" stroke-linecap="round" stroke-linejoin="round"/>
<path d="M63.5339 44.2348C63.4206 44.2339 63.3389 44.1538 63.3148 44.0472C63.2894 43.9354 63.3123 43.7968 63.3123 43.6837C63.3123 43.3926 63.3123 43.1016 63.3123 42.8105C63.3123 42.627 63.2354 42.2802 63.3516 42.112C63.4423 41.9804 63.6237 42.0162 63.76 42.0162C64.2611 42.0162 64.7715 41.9868 65.2717 42.0162C65.3825 42.0227 65.4769 42.0509 65.519 42.1666C65.5452 42.2381 65.5309 42.3302 65.5309 42.4033C65.5309 42.6745 65.5309 42.9456 65.5309 43.2168C65.5309 43.4549 65.5332 43.6932 65.5309 43.9313C65.5304 43.9907 65.5362 44.0502 65.5105 44.1057C65.4332 44.2723 65.2324 44.2348 65.0831 44.2348C64.5667 44.2348 64.0503 44.2348 63.5339 44.2348Z" fill="#ECEDF1" stroke="#303030" stroke-width="0.5" stroke-miterlimit="10" stroke-linecap="round" stroke-linejoin="round"/>
<path d="M88.6965 46.8371C88.5831 46.8362 88.5015 46.7561 88.4774 46.6495C88.4519 46.5377 88.4749 46.3991 88.4749 46.286C88.4749 45.9949 88.4749 45.7039 88.4749 45.4128C88.4749 45.2293 88.3981 44.8825 88.5142 44.7143C88.6049 44.5827 88.7863 44.6185 88.9225 44.6185C89.4237 44.6185 89.9341 44.5891 90.4343 44.6185C90.5451 44.625 90.6395 44.6532 90.6816 44.7689C90.7075 44.8404 90.6934 44.9325 90.6934 45.0056C90.6934 45.2768 90.6934 45.5479 90.6934 45.8191C90.6934 46.0572 90.6957 46.2955 90.6934 46.5336C90.693 46.593 90.6988 46.6525 90.6731 46.708C90.5958 46.8746 90.395 46.8371 90.2458 46.8371C89.7293 46.8371 89.2129 46.8371 88.6965 46.8371Z" fill="#ECEDF1" stroke="#303030" stroke-width="0.5" stroke-miterlimit="10" stroke-linecap="round" stroke-linejoin="round"/>
<path d="M91.3591 46.8371C91.2457 46.8362 91.1641 46.7561 91.14 46.6495C91.1145 46.5377 91.1375 46.3991 91.1375 46.286C91.1375 45.9949 91.1375 45.7039 91.1375 45.4128C91.1375 45.2293 91.0606 44.8825 91.1768 44.7143C91.2675 44.5827 91.4489 44.6185 91.5852 44.6185C92.0863 44.6185 92.5967 44.5891 93.0969 44.6185C93.2077 44.625 93.3021 44.6532 93.3443 44.7689C93.3704 44.8404 93.356 44.9325 93.356 45.0056C93.356 45.2768 93.356 45.5479 93.356 45.8191C93.356 46.0572 93.3583 46.2955 93.356 46.5336C93.3556 46.593 93.3613 46.6525 93.3357 46.708C93.2584 46.8746 93.0576 46.8371 92.9083 46.8371C92.3919 46.8371 91.8755 46.8371 91.3591 46.8371Z" fill="#ECEDF1" stroke="#303030" stroke-width="0.5" stroke-miterlimit="10" stroke-linecap="round" stroke-linejoin="round"/>
<path d="M94.0215 46.8371C93.9081 46.8362 93.8264 46.7561 93.8024 46.6495C93.7769 46.5377 93.7998 46.3991 93.7998 46.286C93.7998 45.9949 93.7998 45.7039 93.7998 45.4128C93.7998 45.2293 93.723 44.8825 93.8391 44.7143C93.9298 44.5827 94.1112 44.6185 94.2475 44.6185C94.7486 44.6185 95.2591 44.5891 95.7593 44.6185C95.8701 44.625 95.9645 44.6532 96.0066 44.7689C96.0325 44.8404 96.0184 44.9325 96.0184 45.0056C96.0184 45.2768 96.0184 45.5479 96.0184 45.8191C96.0184 46.0572 96.0207 46.2955 96.0184 46.5336C96.0177 46.593 96.0237 46.6525 95.998 46.708C95.9208 46.8746 95.7199 46.8371 95.5709 46.8371C95.0543 46.8371 94.5379 46.8371 94.0215 46.8371Z" fill="#ECEDF1" stroke="#303030" stroke-width="0.5" stroke-miterlimit="10" stroke-linecap="round" stroke-linejoin="round"/>
<path d="M62.0735 46.8371C61.9601 46.8362 61.8784 46.7561 61.8544 46.6495C61.8289 46.5377 61.8518 46.3991 61.8518 46.286C61.8518 45.9949 61.8518 45.7039 61.8518 45.4128C61.8518 45.2293 61.775 44.8825 61.8911 44.7143C61.9818 44.5827 62.1632 44.6185 62.2995 44.6185C62.8006 44.6185 63.3111 44.5891 63.8113 44.6185C63.9221 44.625 64.0165 44.6532 64.0586 44.7689C64.0845 44.8404 64.0704 44.9325 64.0704 45.0056C64.0704 45.2768 64.0704 45.5479 64.0704 45.8191C64.0704 46.0572 64.0727 46.2955 64.0704 46.5336C64.0699 46.593 64.0757 46.6525 64.05 46.708C63.9728 46.8746 63.7719 46.8371 63.6227 46.8371C63.1063 46.8371 62.5899 46.8371 62.0735 46.8371Z" fill="#ECEDF1" stroke="#303030" stroke-width="0.5" stroke-miterlimit="10" stroke-linecap="round" stroke-linejoin="round"/>
<path d="M64.7358 46.8371C64.6224 46.8362 64.5408 46.7561 64.5167 46.6495C64.4913 46.5377 64.5142 46.3991 64.5142 46.286C64.5142 45.9949 64.5142 45.7039 64.5142 45.4128C64.5142 45.2293 64.4374 44.8825 64.5535 44.7143C64.6442 44.5827 64.8256 44.6185 64.9619 44.6185C65.463 44.6185 65.9734 44.5891 66.4736 44.6185C66.5844 44.625 66.6788 44.6532 66.7209 44.7689C66.7471 44.8404 66.7327 44.9325 66.7327 45.0056C66.7327 45.2768 66.7327 45.5479 66.7327 45.8191C66.7327 46.0572 66.7351 46.2955 66.7327 46.5336C66.7323 46.593 66.7381 46.6525 66.7124 46.708C66.6351 46.8746 66.4343 46.8371 66.2851 46.8371C65.7686 46.8371 65.2522 46.8371 64.7358 46.8371Z" fill="#ECEDF1" stroke="#303030" stroke-width="0.5" stroke-miterlimit="10" stroke-linecap="round" stroke-linejoin="round"/>
<path d="M67.3982 46.8371C67.2848 46.8362 67.2031 46.7561 67.1791 46.6495C67.1536 46.5377 67.1765 46.3991 67.1765 46.286C67.1765 45.9949 67.1765 45.7039 67.1765 45.4128C67.1765 45.2293 67.0997 44.8825 67.2159 44.7143C67.3066 44.5827 67.4879 44.6185 67.6242 44.6185C68.1254 44.6185 68.6357 44.5891 69.136 44.6185C69.2468 44.625 69.3412 44.6532 69.3833 44.7689C69.4092 44.8404 69.3951 44.9325 69.3951 45.0056C69.3951 45.2768 69.3951 45.5479 69.3951 45.8191C69.3951 46.0572 69.3974 46.2955 69.3951 46.5336C69.3944 46.593 69.4004 46.6525 69.3748 46.708C69.2975 46.8746 69.0966 46.8371 68.9474 46.8371C68.431 46.8371 67.9146 46.8371 67.3982 46.8371Z" fill="#ECEDF1" stroke="#303030" stroke-width="0.5" stroke-miterlimit="10" stroke-linecap="round" stroke-linejoin="round"/>
<path d="M70.0608 46.8371C69.9474 46.8362 69.8657 46.7561 69.8417 46.6495C69.8162 46.5377 69.8391 46.3991 69.8391 46.286C69.8391 45.9949 69.8391 45.7039 69.8391 45.4128C69.8391 45.2293 69.7623 44.8825 69.8784 44.7143C69.9691 44.5827 70.1505 44.6185 70.2868 44.6185C70.788 44.6185 71.2984 44.5891 71.7986 44.6185C71.9094 44.625 72.0038 44.6532 72.0459 44.7689C72.072 44.8404 72.0577 44.9325 72.0577 45.0056C72.0577 45.2768 72.0577 45.5479 72.0577 45.8191C72.0577 46.0572 72.06 46.2955 72.0577 46.5336C72.0572 46.593 72.063 46.6525 72.0373 46.708C71.9601 46.8746 71.7592 46.8371 71.61 46.8371C71.0936 46.8371 70.5772 46.8371 70.0608 46.8371Z" fill="#ECEDF1" stroke="#303030" stroke-width="0.5" stroke-miterlimit="10" stroke-linecap="round" stroke-linejoin="round"/>
<path d="M86.0344 46.8371C85.921 46.8362 85.8394 46.7561 85.8153 46.6495C85.7898 46.5377 85.8127 46.3991 85.8125 46.286C85.8125 45.9949 85.8125 45.7039 85.8125 45.4128C85.8125 45.2293 85.7357 44.8825 85.8518 44.7143C85.9425 44.5827 86.1239 44.6185 86.2602 44.6185C86.7614 44.6185 87.2717 44.5891 87.7719 44.6185C87.8828 44.625 87.9772 44.6532 88.0193 44.7689C88.0454 44.8404 88.0311 44.9325 88.0311 45.0056C88.0311 45.2768 88.0311 45.5479 88.0311 45.8191C88.0311 46.0572 88.0334 46.2955 88.0311 46.5336C88.0306 46.593 88.0364 46.6525 88.0107 46.708C87.9335 46.8746 87.7326 46.8371 87.5834 46.8371C87.0672 46.8371 86.5508 46.8371 86.0344 46.8371Z" fill="#ECEDF1" stroke="#303030" stroke-width="0.5" stroke-miterlimit="10" stroke-linecap="round" stroke-linejoin="round"/>
<path d="M83.372 46.8371C83.2587 46.8362 83.177 46.7561 83.1529 46.6495C83.1275 46.5377 83.1504 46.3991 83.1504 46.286C83.1504 45.9949 83.1504 45.7039 83.1504 45.4128C83.1504 45.2293 83.0736 44.8825 83.1897 44.7143C83.2804 44.5827 83.4618 44.6185 83.5981 44.6185C84.0992 44.6185 84.6096 44.5891 85.1098 44.6185C85.2207 44.625 85.3151 44.6532 85.3572 44.7689C85.3831 44.8404 85.369 44.9325 85.369 45.0056C85.369 45.2768 85.369 45.5479 85.369 45.8191C85.369 46.0572 85.3713 46.2955 85.369 46.5336C85.3685 46.593 85.3743 46.6525 85.3486 46.708C85.2713 46.8746 85.0705 46.8371 84.9213 46.8371C84.4049 46.8371 83.8885 46.8371 83.372 46.8371Z" fill="#ECEDF1" stroke="#303030" stroke-width="0.5" stroke-miterlimit="10" stroke-linecap="round" stroke-linejoin="round"/>
<path d="M80.7094 46.8371C80.5961 46.8362 80.5144 46.7561 80.4903 46.6495C80.4649 46.5377 80.4878 46.3991 80.4878 46.286C80.4878 45.9949 80.4878 45.7039 80.4878 45.4128C80.4878 45.2293 80.411 44.8825 80.5271 44.7143C80.6178 44.5827 80.7992 44.6185 80.9355 44.6185C81.4366 44.6185 81.947 44.5891 82.4472 44.6185C82.5581 44.625 82.6525 44.6532 82.6946 44.7689C82.7205 44.8404 82.7064 44.9325 82.7064 45.0056C82.7064 45.2768 82.7064 45.5479 82.7064 45.8191C82.7064 46.0572 82.7087 46.2955 82.7064 46.5336C82.7057 46.593 82.7117 46.6525 82.686 46.708C82.6087 46.8746 82.4079 46.8371 82.2589 46.8371C81.7423 46.8371 81.2259 46.8371 80.7094 46.8371Z" fill="#ECEDF1" stroke="#303030" stroke-width="0.5" stroke-miterlimit="10" stroke-linecap="round" stroke-linejoin="round"/>
<path d="M78.0476 46.8371C77.9342 46.8362 77.8526 46.7561 77.8285 46.6495C77.803 46.5377 77.8259 46.3991 77.8259 46.286C77.8259 45.9949 77.8259 45.7039 77.8259 45.4128C77.8259 45.2293 77.7491 44.8825 77.8653 44.7143C77.956 44.5827 78.1374 44.6185 78.2736 44.6185C78.7748 44.6185 79.2852 44.5891 79.7854 44.6185C79.8962 44.625 79.9906 44.6532 80.0327 44.7689C80.0589 44.8404 80.0445 44.9325 80.0445 45.0056C80.0445 45.2768 80.0445 45.5479 80.0445 45.8191C80.0445 46.0572 80.0468 46.2955 80.0445 46.5336C80.0441 46.593 80.0498 46.6525 80.0242 46.708C79.9469 46.8746 79.746 46.8371 79.5968 46.8371C79.0802 46.8371 78.5638 46.8371 78.0476 46.8371Z" fill="#ECEDF1" stroke="#303030" stroke-width="0.5" stroke-miterlimit="10" stroke-linecap="round" stroke-linejoin="round"/>
<path d="M75.3852 46.8371C75.2719 46.8362 75.1902 46.7561 75.1661 46.6495C75.1407 46.5377 75.1636 46.3991 75.1636 46.286C75.1636 45.9949 75.1636 45.7039 75.1636 45.4128C75.1636 45.2293 75.0868 44.8825 75.2029 44.7143C75.2936 44.5827 75.475 44.6185 75.6113 44.6185C76.1124 44.6185 76.6228 44.5891 77.123 44.6185C77.2338 44.625 77.3283 44.6532 77.3704 44.7689C77.3963 44.8404 77.3822 44.9325 77.3822 45.0056C77.3822 45.2768 77.3822 45.5479 77.3822 45.8191C77.3822 46.0572 77.3845 46.2955 77.3822 46.5336C77.3817 46.593 77.3875 46.6525 77.3618 46.708C77.2845 46.8746 77.0837 46.8371 76.9345 46.8371C76.4178 46.8371 75.9014 46.8371 75.3852 46.8371Z" fill="#ECEDF1" stroke="#303030" stroke-width="0.5" stroke-miterlimit="10" stroke-linecap="round" stroke-linejoin="round"/>
<path d="M72.7229 46.8371C72.6095 46.8362 72.5278 46.7561 72.5037 46.6495C72.4783 46.5377 72.501 46.3991 72.501 46.286C72.501 45.9949 72.501 45.7039 72.501 45.4128C72.501 45.2293 72.4242 44.8825 72.5403 44.7143C72.631 44.5827 72.8124 44.6185 72.9487 44.6185C73.4498 44.6185 73.9602 44.5891 74.4604 44.6185C74.5713 44.625 74.6656 44.6532 74.7077 44.7689C74.7339 44.8404 74.7196 44.9325 74.7196 45.0056C74.7196 45.2768 74.7196 45.5479 74.7196 45.8191C74.7196 46.0572 74.7219 46.2955 74.7196 46.5336C74.7189 46.593 74.7249 46.6525 74.6992 46.708C74.6219 46.8746 74.4211 46.8371 74.2718 46.8371C73.7554 46.8371 73.2393 46.8371 72.7229 46.8371Z" fill="#ECEDF1" stroke="#303030" stroke-width="0.5" stroke-miterlimit="10" stroke-linecap="round" stroke-linejoin="round"/>
<path d="M58.2094 46.8374C58.0641 46.8362 57.9988 46.7226 57.9875 46.5944C57.9391 46.0456 57.9766 45.463 57.9875 44.9119C57.9903 44.7689 58.0241 44.6514 58.1825 44.6204C58.2924 44.5989 58.4236 44.6188 58.5349 44.6188C58.8535 44.6188 59.1721 44.6188 59.4905 44.6188C60.0406 44.6188 60.6043 44.5822 61.1533 44.6188C61.2884 44.6278 61.3805 44.6796 61.4071 44.8215C61.4393 44.9924 61.408 45.1956 61.408 45.3691C61.408 45.7088 61.408 46.0482 61.408 46.3878C61.408 46.5431 61.4458 46.7518 61.2648 46.8228C61.1713 46.8593 61.0418 46.8371 60.946 46.8371C60.6142 46.8371 60.2822 46.8371 59.9504 46.8371C59.3699 46.8374 58.7896 46.8374 58.2094 46.8374Z" fill="#ECEDF1" stroke="#303030" stroke-width="0.5" stroke-miterlimit="10" stroke-linecap="round" stroke-linejoin="round"/>
<path d="M92.1535 49.4394C91.9752 49.4378 91.9335 49.2842 91.9316 49.1384C91.9277 48.8008 91.9316 48.463 91.9316 48.1255C91.9316 47.9038 91.8974 47.6509 91.9319 47.4311C91.9569 47.2724 92.0633 47.2259 92.2097 47.2208C92.8194 47.2 93.4332 47.2208 94.0431 47.2208C94.6123 47.2208 95.1962 47.1826 95.7645 47.2208C95.9091 47.2305 95.9991 47.2925 96.0178 47.4429C96.05 47.6995 96.0178 47.9797 96.0178 48.2379C96.0178 48.55 96.0361 48.8686 96.0178 49.1803C96.009 49.3281 95.9489 49.42 95.7946 49.4394C95.6257 49.4607 95.4406 49.4394 95.2707 49.4394C94.9151 49.4394 94.5597 49.4394 94.2041 49.4394C93.5607 49.4394 92.9175 49.4394 92.2741 49.4394C92.2343 49.4394 92.1938 49.4394 92.1535 49.4394Z" fill="#ECEDF1" stroke="#303030" stroke-width="0.5" stroke-miterlimit="10" stroke-linecap="round" stroke-linejoin="round"/>
<path d="M89.4912 49.4394C89.3778 49.4385 89.2961 49.3584 89.2721 49.2518C89.2466 49.14 89.2695 49.0014 89.2695 48.8883C89.2695 48.5972 89.2695 48.3062 89.2695 48.0151C89.2695 47.8316 89.1927 47.4848 89.3089 47.3166C89.3996 47.185 89.581 47.2208 89.7172 47.2208C90.2184 47.2208 90.7288 47.1914 91.229 47.2208C91.3398 47.2273 91.4342 47.2555 91.4763 47.3712C91.5022 47.4427 91.4881 47.5348 91.4881 47.6079C91.4881 47.8791 91.4881 48.1502 91.4881 48.4214C91.4881 48.6595 91.4904 48.8978 91.4881 49.1358C91.4876 49.1953 91.4934 49.2548 91.4677 49.3103C91.3905 49.4769 91.1897 49.4394 91.0404 49.4394C90.524 49.4394 90.0076 49.4394 89.4912 49.4394Z" fill="#ECEDF1" stroke="#303030" stroke-width="0.5" stroke-miterlimit="10" stroke-linecap="round" stroke-linejoin="round"/>
<path d="M58.2096 49.4394C58.0192 49.4378 57.988 49.2675 57.9877 49.1164C57.9873 48.7638 57.9877 48.4114 57.9877 48.0588C57.9877 47.8568 57.9514 47.6192 57.9889 47.4198C58.0208 47.2495 58.1492 47.2217 58.2996 47.2208C58.9363 47.2171 59.5731 47.2208 60.2098 47.2208C60.7852 47.2208 61.3761 47.181 61.9503 47.2208C62.0968 47.231 62.1836 47.2944 62.2028 47.4455C62.237 47.7157 62.2028 48.0119 62.2028 48.2837C62.2028 48.5843 62.2308 48.8991 62.2028 49.1985C62.1889 49.3475 62.116 49.4243 61.9661 49.4394C61.4157 49.494 60.8322 49.4394 60.2794 49.4394C59.6286 49.4394 58.9777 49.4394 58.3269 49.4394C58.2878 49.4394 58.2487 49.4394 58.2096 49.4394Z" fill="#ECEDF1" stroke="#303030" stroke-width="0.5" stroke-miterlimit="10" stroke-linecap="round" stroke-linejoin="round"/>
<path d="M62.8681 49.4394C62.7548 49.4385 62.6731 49.3584 62.649 49.2518C62.6236 49.14 62.6465 49.0014 62.6465 48.8883C62.6465 48.5972 62.6465 48.3062 62.6465 48.0151C62.6465 47.8316 62.5697 47.4848 62.6858 47.3166C62.7765 47.185 62.9579 47.2208 63.0942 47.2208C63.5953 47.2208 64.1057 47.1914 64.6059 47.2208C64.7168 47.2273 64.8111 47.2555 64.8533 47.3712C64.8792 47.4427 64.8651 47.5348 64.8651 47.6079C64.8651 47.8791 64.8651 48.1502 64.8651 48.4214C64.8651 48.6595 64.8674 48.8978 64.8651 49.1358C64.8646 49.1953 64.8704 49.2548 64.8447 49.3103C64.7674 49.4769 64.5666 49.4394 64.4174 49.4394C63.901 49.4394 63.3845 49.4394 62.8681 49.4394Z" fill="#ECEDF1" stroke="#303030" stroke-width="0.5" stroke-miterlimit="10" stroke-linecap="round" stroke-linejoin="round"/>
<path d="M65.5302 49.4394C65.4169 49.4385 65.3352 49.3584 65.3111 49.2518C65.2857 49.14 65.3086 49.0014 65.3086 48.8883C65.3086 48.5972 65.3086 48.3062 65.3086 48.0151C65.3086 47.8316 65.2318 47.4848 65.3479 47.3166C65.4386 47.185 65.62 47.2208 65.7563 47.2208C66.2574 47.2208 66.7678 47.1914 67.268 47.2208C67.3789 47.2273 67.4733 47.2555 67.5154 47.3712C67.5415 47.4427 67.5272 47.5348 67.5272 47.6079C67.5272 47.8791 67.5272 48.1502 67.5272 48.4214C67.5272 48.6595 67.5295 48.8978 67.5272 49.1358C67.5267 49.1953 67.5325 49.2548 67.5068 49.3103C67.4296 49.4769 67.2287 49.4394 67.0795 49.4394C66.5631 49.4394 66.0467 49.4394 65.5302 49.4394Z" fill="#ECEDF1" stroke="#303030" stroke-width="0.5" stroke-miterlimit="10" stroke-linecap="round" stroke-linejoin="round"/>
<path d="M68.1926 49.4394C68.0792 49.4385 67.9976 49.3584 67.9735 49.2518C67.9481 49.14 67.971 49.0014 67.971 48.8883C67.971 48.5972 67.971 48.3062 67.971 48.0151C67.971 47.8316 67.8941 47.4848 68.0103 47.3166C68.101 47.185 68.2824 47.2208 68.4186 47.2208C68.9198 47.2208 69.4302 47.1914 69.9304 47.2208C70.0412 47.2273 70.1356 47.2555 70.1777 47.3712C70.2037 47.4427 70.1895 47.5348 70.1895 47.6079C70.1895 47.8791 70.1895 48.1502 70.1895 48.4214C70.1895 48.6595 70.1919 48.8978 70.1895 49.1358C70.1888 49.1953 70.1949 49.2548 70.1692 49.3103C70.0919 49.4769 69.8911 49.4394 69.7418 49.4394C69.2254 49.4394 68.709 49.4394 68.1926 49.4394Z" fill="#ECEDF1" stroke="#303030" stroke-width="0.5" stroke-miterlimit="10" stroke-linecap="round" stroke-linejoin="round"/>
<path d="M70.855 49.4394C70.7416 49.4385 70.6599 49.3584 70.6358 49.2518C70.6104 49.14 70.6333 49.0014 70.6333 48.8883C70.6333 48.5972 70.6333 48.3062 70.6333 48.0151C70.6333 47.8316 70.5565 47.4848 70.6726 47.3166C70.7633 47.185 70.9447 47.2208 71.081 47.2208C71.5822 47.2208 72.0925 47.1914 72.5927 47.2208C72.7036 47.2273 72.798 47.2555 72.8401 47.3712C72.8662 47.4427 72.8519 47.5348 72.8519 47.6079C72.8519 47.8791 72.8519 48.1502 72.8519 48.4214C72.8519 48.6595 72.8542 48.8978 72.8519 49.1358C72.8514 49.1953 72.8572 49.2548 72.8315 49.3103C72.7542 49.4769 72.5534 49.4394 72.4042 49.4394C71.8878 49.4394 71.3714 49.4394 70.855 49.4394Z" fill="#ECEDF1" stroke="#303030" stroke-width="0.5" stroke-miterlimit="10" stroke-linecap="round" stroke-linejoin="round"/>
<path d="M86.8288 49.4394C86.7155 49.4385 86.6338 49.3584 86.6097 49.2518C86.5843 49.14 86.6072 49.0014 86.607 48.8883C86.607 48.5972 86.607 48.3062 86.607 48.0151C86.607 47.8316 86.5301 47.4848 86.6463 47.3166C86.737 47.185 86.9184 47.2208 87.0546 47.2208C87.5558 47.2208 88.0662 47.1914 88.5664 47.2208C88.6772 47.2273 88.7716 47.2555 88.8137 47.3712C88.8399 47.4427 88.8255 47.5348 88.8255 47.6079C88.8255 47.8791 88.8255 48.1502 88.8255 48.4214C88.8255 48.6595 88.8278 48.8978 88.8255 49.1358C88.8251 49.1953 88.8308 49.2548 88.8052 49.3103C88.7279 49.4769 88.5271 49.4394 88.3778 49.4394C87.8616 49.4394 87.3452 49.4394 86.8288 49.4394Z" fill="#ECEDF1" stroke="#303030" stroke-width="0.5" stroke-miterlimit="10" stroke-linecap="round" stroke-linejoin="round"/>
<path d="M84.167 49.4394C84.0536 49.4385 83.9719 49.3584 83.9479 49.2518C83.9224 49.14 83.9453 49.0014 83.9453 48.8883C83.9453 48.5972 83.9453 48.3062 83.9453 48.0151C83.9453 47.8316 83.8685 47.4848 83.9846 47.3166C84.0753 47.185 84.2567 47.2208 84.393 47.2208C84.8942 47.2208 85.4046 47.1914 85.9048 47.2208C86.0156 47.2273 86.11 47.2555 86.1521 47.3712C86.178 47.4427 86.1639 47.5348 86.1639 47.6079C86.1639 47.8791 86.1639 48.1502 86.1639 48.4214C86.1639 48.6595 86.1662 48.8978 86.1639 49.1358C86.1634 49.1953 86.1692 49.2548 86.1435 49.3103C86.0663 49.4769 85.8654 49.4394 85.7162 49.4394C85.1996 49.4394 84.6832 49.4394 84.167 49.4394Z" fill="#ECEDF1" stroke="#303030" stroke-width="0.5" stroke-miterlimit="10" stroke-linecap="round" stroke-linejoin="round"/>
<path d="M81.5044 49.4394C81.391 49.4385 81.3093 49.3584 81.2853 49.2518C81.2598 49.14 81.2827 49.0014 81.2827 48.8883C81.2827 48.5972 81.2827 48.3062 81.2827 48.0151C81.2827 47.8316 81.2059 47.4848 81.3221 47.3166C81.4128 47.185 81.5942 47.2208 81.7304 47.2208C82.2316 47.2208 82.7419 47.1914 83.2422 47.2208C83.353 47.2273 83.4474 47.2555 83.4895 47.3712C83.5154 47.4427 83.5013 47.5348 83.5013 47.6079C83.5013 47.8791 83.5013 48.1502 83.5013 48.4214C83.5013 48.6595 83.5036 48.8978 83.5013 49.1358C83.5006 49.1953 83.5066 49.2548 83.481 49.3103C83.4037 49.4769 83.2028 49.4394 83.0538 49.4394C82.537 49.4394 82.0208 49.4394 81.5044 49.4394Z" fill="#ECEDF1" stroke="#303030" stroke-width="0.5" stroke-miterlimit="10" stroke-linecap="round" stroke-linejoin="round"/>
<path d="M78.842 49.4394C78.7286 49.4385 78.647 49.3584 78.6229 49.2518C78.5975 49.14 78.6204 49.0014 78.6204 48.8883C78.6204 48.5972 78.6204 48.3062 78.6204 48.0151C78.6204 47.8316 78.5436 47.4848 78.6597 47.3166C78.7504 47.185 78.9318 47.2208 79.0681 47.2208C79.5692 47.2208 80.0796 47.1914 80.5798 47.2208C80.6906 47.2273 80.785 47.2555 80.8271 47.3712C80.8533 47.4427 80.8389 47.5348 80.8389 47.6079C80.8389 47.8791 80.8389 48.1502 80.8389 48.4214C80.8389 48.6595 80.8413 48.8978 80.8389 49.1358C80.8385 49.1953 80.8443 49.2548 80.8186 49.3103C80.7413 49.4769 80.5405 49.4394 80.3913 49.4394C79.8746 49.4394 79.3584 49.4394 78.842 49.4394Z" fill="#ECEDF1" stroke="#303030" stroke-width="0.5" stroke-miterlimit="10" stroke-linecap="round" stroke-linejoin="round"/>
<path d="M76.1797 49.4394C76.0663 49.4385 75.9846 49.3584 75.9606 49.2518C75.9351 49.14 75.958 49.0014 75.958 48.8883C75.958 48.5972 75.958 48.3062 75.958 48.0151C75.958 47.8316 75.8812 47.4848 75.9973 47.3166C76.088 47.185 76.2694 47.2208 76.4057 47.2208C76.9068 47.2208 77.4173 47.1914 77.9175 47.2208C78.0283 47.2273 78.1227 47.2555 78.1648 47.3712C78.1907 47.4427 78.1766 47.5348 78.1766 47.6079C78.1766 47.8791 78.1766 48.1502 78.1766 48.4214C78.1766 48.6595 78.1789 48.8978 78.1766 49.1358C78.1761 49.1953 78.1819 49.2548 78.1562 49.3103C78.079 49.4769 77.8781 49.4394 77.7289 49.4394C77.2125 49.4394 76.6961 49.4394 76.1797 49.4394Z" fill="#ECEDF1" stroke="#303030" stroke-width="0.5" stroke-miterlimit="10" stroke-linecap="round" stroke-linejoin="round"/>
<path d="M73.5175 49.4394C73.4042 49.4385 73.3225 49.3584 73.2985 49.2518C73.273 49.14 73.2957 49.0014 73.2957 48.8883C73.2957 48.5972 73.2957 48.3062 73.2957 48.0151C73.2957 47.8316 73.2189 47.4848 73.335 47.3166C73.4257 47.185 73.6071 47.2208 73.7434 47.2208C74.2445 47.2208 74.7549 47.1914 75.2551 47.2208C75.3659 47.2273 75.4603 47.2555 75.5024 47.3712C75.5286 47.4427 75.5142 47.5348 75.5142 47.6079C75.5142 47.8791 75.5142 48.1502 75.5142 48.4214C75.5142 48.6595 75.5165 48.8978 75.5142 49.1358C75.5135 49.1953 75.5196 49.2548 75.4939 49.3103C75.4166 49.4769 75.2158 49.4394 75.0666 49.4394C74.5504 49.4394 74.0339 49.4394 73.5175 49.4394Z" fill="#ECEDF1" stroke="#303030" stroke-width="0.5" stroke-miterlimit="10" stroke-linecap="round" stroke-linejoin="round"/>
<path d="M66.1963 54.6441C66.0663 54.6429 65.9911 54.5451 65.9745 54.4261C65.9506 54.2558 65.9745 54.0654 65.9745 53.8938C65.9745 53.5766 65.9745 53.2593 65.9745 52.9421C65.9745 52.7934 65.9238 52.5583 66.0767 52.4604C66.1276 52.4278 66.1771 52.4287 66.2345 52.4255C66.4499 52.4125 66.6702 52.4255 66.886 52.4255C67.4135 52.4255 67.9582 52.3855 68.4843 52.4255C68.6019 52.4345 68.6953 52.4736 68.7293 52.5981C68.7606 52.7124 68.7349 52.8607 68.7349 52.9766C68.7349 53.282 68.7349 53.5872 68.7349 53.8926C68.7349 54.0652 68.8175 54.4365 68.6671 54.5818C68.6197 54.6277 68.5681 54.6367 68.5058 54.6441C68.292 54.6698 68.0595 54.6441 67.8446 54.6441C67.2951 54.6441 66.7458 54.6441 66.1963 54.6441Z" fill="#ECEDF1" stroke="#303030" stroke-width="0.5" stroke-miterlimit="10" stroke-linecap="round" stroke-linejoin="round"/>
<path d="M63.5339 54.6442C63.4206 54.6433 63.3389 54.5633 63.3148 54.4566C63.2894 54.3448 63.3123 54.2063 63.3123 54.0931C63.3123 53.8021 63.3123 53.511 63.3123 53.2199C63.3123 53.0365 63.2354 52.6896 63.3516 52.5214C63.4423 52.3898 63.6237 52.4257 63.76 52.4257C64.2611 52.4257 64.7715 52.3963 65.2717 52.4257C65.3825 52.4321 65.4769 52.4604 65.519 52.576C65.5452 52.6475 65.5309 52.7396 65.5309 52.8127C65.5309 53.0839 65.5309 53.3551 65.5309 53.6262C65.5309 53.8643 65.5332 54.1026 65.5309 54.3407C65.5304 54.4001 65.5362 54.4596 65.5105 54.5151C65.4332 54.6817 65.2324 54.6442 65.0831 54.6442C64.5667 54.6442 64.0503 54.6442 63.5339 54.6442Z" fill="#ECEDF1" stroke="#303030" stroke-width="0.5" stroke-miterlimit="10" stroke-linecap="round" stroke-linejoin="round"/>
<path d="M60.8713 54.6442C60.7579 54.6433 60.6763 54.5633 60.6522 54.4566C60.6268 54.3448 60.6497 54.2063 60.6497 54.0931C60.6497 53.8021 60.6497 53.511 60.6497 53.2199C60.6497 53.0365 60.5729 52.6896 60.689 52.5214C60.7797 52.3898 60.9611 52.4257 61.0974 52.4257C61.5985 52.4257 62.1089 52.3963 62.6091 52.4257C62.7199 52.4321 62.8144 52.4604 62.8565 52.576C62.8824 52.6475 62.8682 52.7396 62.8682 52.8127C62.8682 53.0839 62.8682 53.3551 62.8682 53.6262C62.8682 53.8643 62.8706 54.1026 62.8682 54.3407C62.8678 54.4001 62.8736 54.4596 62.8479 54.5151C62.7706 54.6817 62.5698 54.6442 62.4206 54.6442C61.9041 54.6442 61.3877 54.6442 60.8713 54.6442Z" fill="#ECEDF1" stroke="#303030" stroke-width="0.5" stroke-miterlimit="10" stroke-linecap="round" stroke-linejoin="round"/>
<path d="M58.2092 54.6442C58.0958 54.6433 58.0141 54.5633 57.9901 54.4566C57.9646 54.3448 57.9875 54.2063 57.9873 54.0931C57.9873 53.8021 57.9873 53.511 57.9873 53.2199C57.9873 53.0365 57.9105 52.6896 58.0266 52.5214C58.1173 52.3898 58.2987 52.4257 58.435 52.4257C58.9361 52.4257 59.4465 52.3963 59.9468 52.4257C60.0576 52.4321 60.152 52.4604 60.1941 52.576C60.2202 52.6475 60.2059 52.7396 60.2059 52.8127C60.2059 53.0839 60.2059 53.3551 60.2059 53.6262C60.2059 53.8643 60.2082 54.1026 60.2059 54.3407C60.2054 54.4001 60.2112 54.4596 60.1855 54.5151C60.1082 54.6817 59.9074 54.6442 59.7582 54.6442C59.2418 54.6442 58.7254 54.6442 58.2092 54.6442Z" fill="#ECEDF1" stroke="#303030" stroke-width="0.5" stroke-miterlimit="10" stroke-linecap="round" stroke-linejoin="round"/>
<path d="M82.7711 54.6441C82.641 54.6429 82.5658 54.5451 82.5492 54.4261C82.5253 54.2558 82.5492 54.0654 82.5492 53.8938C82.5492 53.5766 82.5492 53.2593 82.5492 52.9421C82.5492 52.7934 82.4985 52.5583 82.6514 52.4604C82.7023 52.4278 82.7518 52.4287 82.8092 52.4255C83.0246 52.4125 83.2449 52.4255 83.4608 52.4255C83.9883 52.4255 84.5329 52.3855 85.059 52.4255C85.1766 52.4345 85.2701 52.4736 85.3041 52.5981C85.3353 52.7124 85.3096 52.8607 85.3096 52.9766C85.3096 53.282 85.3096 53.5872 85.3096 53.8926C85.3096 54.0652 85.3922 54.4365 85.2418 54.5818C85.1944 54.6277 85.1428 54.6367 85.0806 54.6441C84.8668 54.6698 84.6342 54.6441 84.4193 54.6441C83.8698 54.6441 83.3206 54.6441 82.7711 54.6441Z" fill="#ECEDF1" stroke="#303030" stroke-width="0.5" stroke-miterlimit="10" stroke-linecap="round" stroke-linejoin="round"/>
<path d="M85.9751 54.6442C85.8617 54.6433 85.7801 54.5633 85.756 54.4566C85.7305 54.3448 85.7534 54.2063 85.7534 54.0931C85.7534 53.8021 85.7534 53.511 85.7534 53.2199C85.7534 53.0365 85.6766 52.6896 85.7928 52.5214C85.8835 52.3898 86.0649 52.4257 86.2011 52.4257C86.7023 52.4257 87.2127 52.3963 87.7129 52.4257C87.8237 52.4321 87.9181 52.4604 87.9602 52.576C87.9864 52.6475 87.972 52.7396 87.972 52.8127C87.972 53.0839 87.972 53.3551 87.972 53.6262C87.972 53.8643 87.9743 54.1026 87.972 54.3407C87.9716 54.4001 87.9773 54.4596 87.9517 54.5151C87.8744 54.6817 87.6735 54.6442 87.5243 54.6442C87.0079 54.6442 86.4915 54.6442 85.9751 54.6442Z" fill="#ECEDF1" stroke="#303030" stroke-width="0.5" stroke-miterlimit="10" stroke-linecap="round" stroke-linejoin="round"/>
<path d="M88.6377 54.6442C88.5243 54.6433 88.4426 54.5633 88.4186 54.4566C88.3931 54.3448 88.4158 54.2063 88.4158 54.0931C88.4158 53.8021 88.4158 53.511 88.4158 53.2199C88.4158 53.0365 88.339 52.6896 88.4551 52.5214C88.5458 52.3898 88.7272 52.4257 88.8635 52.4257C89.3646 52.4257 89.875 52.3963 90.3752 52.4257C90.4861 52.4321 90.5805 52.4604 90.6226 52.576C90.6487 52.6475 90.6344 52.7396 90.6344 52.8127C90.6344 53.0839 90.6344 53.3551 90.6344 53.6262C90.6344 53.8643 90.6367 54.1026 90.6344 54.3407C90.6337 54.4001 90.6397 54.4596 90.614 54.5151C90.5367 54.6817 90.3359 54.6442 90.1867 54.6442C89.6702 54.6442 89.1541 54.6442 88.6377 54.6442Z" fill="#ECEDF1" stroke="#303030" stroke-width="0.5" stroke-miterlimit="10" stroke-linecap="round" stroke-linejoin="round"/>
<path d="M69.4598 54.644C69.2557 54.6421 69.2379 54.4531 69.2379 54.2969C69.2379 53.9307 69.2379 53.5646 69.2379 53.1984C69.2379 53.0165 69.1988 52.7882 69.2411 52.6091C69.2742 52.4696 69.3783 52.4309 69.5067 52.4254C69.8073 52.4124 70.1115 52.4254 70.4125 52.4254C71.767 52.4254 73.1211 52.4254 74.4756 52.4254C76.062 52.4254 77.6485 52.4254 79.2353 52.4254C80.1003 52.4254 80.9823 52.3752 81.8462 52.4254C81.9758 52.433 82.0741 52.4777 82.104 52.6167C82.1477 52.8217 82.1061 53.0765 82.1061 53.2845C82.1061 53.6329 82.1082 53.9816 82.1061 54.33C82.1033 54.7805 81.5753 54.6437 81.2556 54.6437C79.9884 54.6437 78.7212 54.6437 77.454 54.6437C75.8517 54.6437 74.2495 54.6437 72.6471 54.6437C71.6342 54.6437 70.6214 54.6437 69.6085 54.6437C69.5585 54.644 69.509 54.644 69.4598 54.644Z" fill="#ECEDF1" stroke="#303030" stroke-width="0.5" stroke-miterlimit="10" stroke-linecap="round" stroke-linejoin="round"/>
<path d="M90.7582 52.0418C90.4667 52.0392 90.5363 51.6526 90.5363 51.4719C90.5363 51.052 90.5363 50.6323 90.5363 50.2123C90.5363 50.1124 90.5169 49.9948 90.5824 49.9097C90.7231 49.7269 91.1805 49.8232 91.3625 49.8232C92.2137 49.8232 93.0647 49.8232 93.9159 49.8232C94.5279 49.8232 95.1549 49.7829 95.7657 49.8232C95.9772 49.8371 96.0184 49.9662 96.0184 50.1577C96.0184 50.5629 96.0184 50.968 96.0184 51.3733C96.0184 51.5277 96.0646 51.7565 96.001 51.9059C95.9121 52.1146 95.579 52.042 95.4082 52.042C93.8979 52.042 92.3875 52.042 90.8771 52.042C90.8524 52.0418 90.7802 52.0286 90.7582 52.0418Z" fill="#ECEDF1" stroke="#303030" stroke-width="0.5" stroke-miterlimit="10" stroke-linecap="round" stroke-linejoin="round"/>
<path d="M58.2094 52.0418C57.9179 52.0392 57.9875 51.6526 57.9875 51.4719C57.9875 51.052 57.9875 50.6323 57.9875 50.2123C57.9875 50.1124 57.9681 49.9948 58.0335 49.9097C58.1742 49.7269 58.6316 49.8232 58.8137 49.8232C59.6649 49.8232 60.5159 49.8232 61.3671 49.8232C61.9788 49.8232 62.606 49.7829 63.2168 49.8232C63.4283 49.8371 63.4695 49.9662 63.4695 50.1577C63.4695 50.5629 63.4695 50.968 63.4695 51.3733C63.4695 51.5277 63.5158 51.7565 63.4522 51.9059C63.3633 52.1146 63.0302 52.042 62.8594 52.042C61.349 52.042 59.8387 52.042 58.3283 52.042C58.3225 52.0418 58.2094 52.0418 58.2094 52.0418Z" fill="#ECEDF1" stroke="#303030" stroke-width="0.5" stroke-miterlimit="10" stroke-linecap="round" stroke-linejoin="round"/>
<path d="M64.135 52.0419C64.0216 52.041 63.94 51.961 63.9159 51.8543C63.8905 51.7426 63.9133 51.604 63.9133 51.4908C63.9133 51.1998 63.9133 50.9087 63.9133 50.6176C63.9133 50.4342 63.8365 50.0874 63.9527 49.9191C64.0434 49.7875 64.2248 49.8234 64.361 49.8234C64.8622 49.8234 65.3726 49.794 65.8728 49.8234C65.9836 49.8298 66.078 49.8581 66.1201 49.9737C66.1463 50.0452 66.1319 50.1373 66.1319 50.2104C66.1319 50.4816 66.1319 50.7528 66.1319 51.0239C66.1319 51.262 66.1342 51.5003 66.1319 51.7384C66.1314 51.7979 66.1373 51.8573 66.1116 51.9128C66.0343 52.0794 65.8335 52.0419 65.6842 52.0419C65.5611 52.0419 64.135 52.0419 64.135 52.0419Z" fill="#ECEDF1" stroke="#303030" stroke-width="0.5" stroke-miterlimit="10" stroke-linecap="round" stroke-linejoin="round"/>
<path d="M66.7971 52.0419C66.6837 52.041 66.6021 51.961 66.578 51.8543C66.5525 51.7426 66.5755 51.604 66.5755 51.4908C66.5755 51.1998 66.5755 50.9087 66.5755 50.6176C66.5755 50.4342 66.4986 50.0874 66.6148 49.9191C66.7055 49.7875 66.8869 49.8234 67.0231 49.8234C67.5243 49.8234 68.0347 49.794 68.5349 49.8234C68.6457 49.8298 68.7401 49.8581 68.7822 49.9737C68.8081 50.0452 68.794 50.1373 68.794 50.2104C68.794 50.4816 68.794 50.7528 68.794 51.0239C68.794 51.262 68.7963 51.5003 68.794 51.7384C68.7933 51.7979 68.7994 51.8573 68.7737 51.9128C68.6964 52.0794 68.4956 52.0419 68.3466 52.0419C68.2233 52.0419 66.7971 52.0419 66.7971 52.0419Z" fill="#ECEDF1" stroke="#303030" stroke-width="0.5" stroke-miterlimit="10" stroke-linecap="round" stroke-linejoin="round"/>
<path d="M69.4597 52.0419C69.3463 52.041 69.2646 51.961 69.2406 51.8543C69.2151 51.7426 69.238 51.604 69.238 51.4908C69.238 51.1998 69.238 50.9087 69.238 50.6176C69.238 50.4342 69.1612 50.0874 69.2774 49.9191C69.3681 49.7875 69.5495 49.8234 69.6857 49.8234C70.1869 49.8234 70.6973 49.794 71.1975 49.8234C71.3083 49.8298 71.4027 49.8581 71.4448 49.9737C71.4707 50.0452 71.4566 50.1373 71.4566 50.2104C71.4566 50.4816 71.4566 50.7528 71.4566 51.0239C71.4566 51.262 71.4589 51.5003 71.4566 51.7384C71.4562 51.7979 71.4619 51.8573 71.4363 51.9128C71.359 52.0794 71.1582 52.0419 71.0089 52.0419C70.8858 52.0419 69.4597 52.0419 69.4597 52.0419Z" fill="#ECEDF1" stroke="#303030" stroke-width="0.5" stroke-miterlimit="10" stroke-linecap="round" stroke-linejoin="round"/>
<path d="M72.1218 52.0419C72.0084 52.041 71.9267 51.961 71.9027 51.8543C71.8772 51.7426 71.9001 51.604 71.8999 51.4908C71.8999 51.1998 71.8999 50.9087 71.8999 50.6176C71.8999 50.4342 71.8231 50.0874 71.9392 49.9191C72.0299 49.7875 72.2113 49.8234 72.3476 49.8234C72.8488 49.8234 73.3591 49.794 73.8594 49.8234C73.9702 49.8298 74.0646 49.8581 74.1067 49.9737C74.1328 50.0452 74.1185 50.1373 74.1185 50.2104C74.1185 50.4816 74.1185 50.7528 74.1185 51.0239C74.1185 51.262 74.1208 51.5003 74.1185 51.7384C74.118 51.7979 74.1238 51.8573 74.0981 51.9128C74.0208 52.0794 73.82 52.0419 73.6708 52.0419C73.5482 52.0419 72.1218 52.0419 72.1218 52.0419Z" fill="#ECEDF1" stroke="#303030" stroke-width="0.5" stroke-miterlimit="10" stroke-linecap="round" stroke-linejoin="round"/>
<path d="M88.0959 52.0419C87.9826 52.041 87.9009 51.961 87.8768 51.8543C87.8514 51.7426 87.8743 51.604 87.8743 51.4908C87.8743 51.1998 87.8743 50.9087 87.8743 50.6176C87.8743 50.4342 87.7975 50.0874 87.9136 49.9191C88.0043 49.7875 88.1857 49.8234 88.322 49.8234C88.8231 49.8234 89.3335 49.794 89.8337 49.8234C89.9445 49.8298 90.039 49.8581 90.0811 49.9737C90.107 50.0452 90.0928 50.1373 90.0928 50.2104C90.0928 50.4816 90.0928 50.7528 90.0928 51.0239C90.0928 51.262 90.0952 51.5003 90.0928 51.7384C90.0922 51.7979 90.0982 51.8573 90.0725 51.9128C89.9952 52.0794 89.7944 52.0419 89.6452 52.0419C89.5221 52.0419 88.0959 52.0419 88.0959 52.0419Z" fill="#ECEDF1" stroke="#303030" stroke-width="0.5" stroke-miterlimit="10" stroke-linecap="round" stroke-linejoin="round"/>
<path d="M85.4336 52.0419C85.3202 52.041 85.2385 51.961 85.2145 51.8543C85.189 51.7426 85.2119 51.604 85.2119 51.4908C85.2119 51.1998 85.2119 50.9087 85.2119 50.6176C85.2119 50.4342 85.1351 50.0874 85.2513 49.9191C85.342 49.7875 85.5233 49.8234 85.6596 49.8234C86.1607 49.8234 86.6711 49.794 87.1714 49.8234C87.2822 49.8298 87.3766 49.8581 87.4187 49.9737C87.4448 50.0452 87.4305 50.1373 87.4305 50.2104C87.4305 50.4816 87.4305 50.7528 87.4305 51.0239C87.4305 51.262 87.4328 51.5003 87.4305 51.7384C87.43 51.7979 87.4358 51.8573 87.4101 51.9128C87.3329 52.0794 87.132 52.0419 86.9828 52.0419C86.8597 52.0419 85.4336 52.0419 85.4336 52.0419Z" fill="#ECEDF1" stroke="#303030" stroke-width="0.5" stroke-miterlimit="10" stroke-linecap="round" stroke-linejoin="round"/>
<path d="M82.771 52.0419C82.6576 52.041 82.5759 51.961 82.5519 51.8543C82.5264 51.7426 82.5493 51.604 82.5493 51.4908C82.5493 51.1998 82.5493 50.9087 82.5493 50.6176C82.5493 50.4342 82.4725 50.0874 82.5886 49.9191C82.6793 49.7875 82.8607 49.8234 82.997 49.8234C83.4982 49.8234 84.0086 49.794 84.5088 49.8234C84.6196 49.8298 84.714 49.8581 84.7561 49.9737C84.782 50.0452 84.7679 50.1373 84.7679 50.2104C84.7679 50.4816 84.7679 50.7528 84.7679 51.0239C84.7679 51.262 84.7702 51.5003 84.7679 51.7384C84.7674 51.7979 84.7732 51.8573 84.7475 51.9128C84.6703 52.0794 84.4694 52.0419 84.3202 52.0419C84.1971 52.0419 82.771 52.0419 82.771 52.0419Z" fill="#ECEDF1" stroke="#303030" stroke-width="0.5" stroke-miterlimit="10" stroke-linecap="round" stroke-linejoin="round"/>
<path d="M80.1089 52.0419C79.9955 52.041 79.9138 51.961 79.8898 51.8543C79.8643 51.7426 79.8872 51.604 79.8872 51.4908C79.8872 51.1998 79.8872 50.9087 79.8872 50.6176C79.8872 50.4342 79.8104 50.0874 79.9266 49.9191C80.0172 49.7875 80.1986 49.8234 80.3349 49.8234C80.8361 49.8234 81.3464 49.794 81.8467 49.8234C81.9575 49.8298 82.0519 49.8581 82.094 49.9737C82.1202 50.0452 82.1058 50.1373 82.1058 50.2104C82.1058 50.4816 82.1058 50.7528 82.1058 51.0239C82.1058 51.262 82.1081 51.5003 82.1058 51.7384C82.1051 51.7979 82.1111 51.8573 82.0854 51.9128C82.0081 52.0794 81.8073 52.0419 81.6583 52.0419C81.5352 52.0419 80.1089 52.0419 80.1089 52.0419Z" fill="#ECEDF1" stroke="#303030" stroke-width="0.5" stroke-miterlimit="10" stroke-linecap="round" stroke-linejoin="round"/>
<path d="M77.4465 52.0419C77.3331 52.041 77.2515 51.961 77.2274 51.8543C77.2019 51.7426 77.2249 51.604 77.2249 51.4908C77.2249 51.1998 77.2249 50.9087 77.2249 50.6176C77.2249 50.4342 77.1481 50.0874 77.2642 49.9191C77.3549 49.7875 77.5363 49.8234 77.6725 49.8234C78.1737 49.8234 78.6841 49.794 79.1843 49.8234C79.2951 49.8298 79.3895 49.8581 79.4316 49.9737C79.4578 50.0452 79.4434 50.1373 79.4434 50.2104C79.4434 50.4816 79.4434 50.7528 79.4434 51.0239C79.4434 51.262 79.4457 51.5003 79.4434 51.7384C79.443 51.7979 79.4488 51.8573 79.4231 51.9128C79.3458 52.0794 79.145 52.0419 78.9958 52.0419C78.8729 52.0419 77.4465 52.0419 77.4465 52.0419Z" fill="#ECEDF1" stroke="#303030" stroke-width="0.5" stroke-miterlimit="10" stroke-linecap="round" stroke-linejoin="round"/>
<path d="M74.7842 52.0419C74.6708 52.041 74.5891 51.961 74.5651 51.8543C74.5396 51.7426 74.5625 51.604 74.5625 51.4908C74.5625 51.1998 74.5625 50.9087 74.5625 50.6176C74.5625 50.4342 74.4857 50.0874 74.6018 49.9191C74.6925 49.7875 74.8739 49.8234 75.0102 49.8234C75.5113 49.8234 76.0217 49.794 76.522 49.8234C76.6328 49.8298 76.7272 49.8581 76.7693 49.9737C76.7952 50.0452 76.7811 50.1373 76.7811 50.2104C76.7811 50.4816 76.7811 50.7528 76.7811 51.0239C76.7811 51.262 76.7834 51.5003 76.7811 51.7384C76.7806 51.7979 76.7864 51.8573 76.7607 51.9128C76.6835 52.0794 76.4826 52.0419 76.3334 52.0419C76.2105 52.0419 74.7842 52.0419 74.7842 52.0419Z" fill="#ECEDF1" stroke="#303030" stroke-width="0.5" stroke-miterlimit="10" stroke-linecap="round" stroke-linejoin="round"/>
<path d="M94.0215 54.6442C93.9081 54.6433 93.8264 54.5633 93.8024 54.4566C93.7769 54.3448 93.7998 54.2063 93.7998 54.0931C93.7998 53.8021 93.7998 53.511 93.7998 53.2199C93.7998 53.0365 93.723 52.6896 93.8391 52.5214C93.9298 52.3898 94.1112 52.4257 94.2475 52.4257C94.7486 52.4257 95.2591 52.3963 95.7593 52.4257C95.8701 52.4321 95.9645 52.4604 96.0066 52.576C96.0325 52.6475 96.0184 52.7396 96.0184 52.8127C96.0184 53.0839 96.0184 53.3551 96.0184 53.6262C96.0184 53.8643 96.0207 54.1026 96.0184 54.3407C96.0177 54.4001 96.0237 54.4596 95.998 54.5151C95.9208 54.6817 95.7199 54.6442 95.5709 54.6442C95.0543 54.6442 94.5379 54.6442 94.0215 54.6442Z" fill="#ECEDF1" stroke="#303030" stroke-width="0.5" stroke-miterlimit="10" stroke-linecap="round" stroke-linejoin="round"/>
<path d="M91.2999 54.6442C91.1847 54.6433 91.1035 54.5609 91.0801 54.4529C91.0551 54.3361 91.078 54.1926 91.078 54.0744C91.078 53.7752 91.078 53.4763 91.078 53.1771C91.078 53.005 91.004 52.6681 91.124 52.5122C91.2263 52.3794 91.4433 52.4257 91.5849 52.4257C92.0865 52.4257 92.5974 52.3963 93.0981 52.4257C93.2084 52.4321 93.3024 52.4611 93.3443 52.576C93.3704 52.6475 93.356 52.7396 93.356 52.8127C93.356 53.0839 93.356 53.3551 93.356 53.6262C93.356 53.8705 93.3637 54.116 93.356 54.3601C93.3542 54.417 93.3588 54.4693 93.3324 54.5221C93.2471 54.6917 93.0187 54.6442 92.8662 54.6442C92.3438 54.6442 91.8218 54.6442 91.2999 54.6442Z" fill="#ECEDF1" stroke="#303030" stroke-width="0.5" stroke-miterlimit="10" stroke-linecap="round" stroke-linejoin="round"/>
</svg>
