<svg width="196" height="148" viewBox="0 0 196 148" fill="none" xmlns="http://www.w3.org/2000/svg">
<path d="M6.48187 1.73688V1.11133L1.49976 1.11133L1.49976 6.11438H2.12275L2.12275 100.163H1.49976L1.49976 139.312H6.48187V138.687L153.137 138.687V146.816H156.251V144.993H183.03V146.816H186.144V138.687H189.58V139.312H194.563V100.163H193.94L193.94 6.11438H194.563V1.11133L189.58 1.11133V1.73688L6.48187 1.73688Z" fill="#ECEDF1" stroke="#303030" stroke-miterlimit="10" stroke-linecap="round" stroke-linejoin="round"/>
<path d="M20.4095 87.1488C18.8859 79.8611 19.4368 70.8628 18.9291 66.5498C18.8533 65.9059 19.3421 65.2958 19.9905 65.2995C23.2889 65.3181 26.9445 65.4792 30.9499 66.8747C37.9414 66.3921 40.3078 63.2873 52.9384 62.1741C53.5656 62.1188 54.0805 62.659 54.0107 63.2848C51.7493 83.5708 54.2713 102.495 54.1608 119.073C54.1571 119.621 53.7102 120.06 53.1632 120.049C42.6263 119.851 39.129 116.514 30.9499 117.149C27.7277 119.86 23.9023 120.045 19.6584 120.058C19.1296 120.059 18.6913 119.644 18.6643 119.115C17.967 105.459 20.4095 97.0677 20.4095 87.1488Z" fill="white"/>
<path d="M20.4095 87.1488C18.8859 79.8611 19.4368 70.8628 18.9291 66.5498C18.8533 65.9059 19.3421 65.2958 19.9905 65.2995C23.2889 65.3181 26.9445 65.4792 30.9499 66.8747M20.4095 87.1488C20.4095 97.0677 17.967 105.459 18.6643 119.115C18.6913 119.644 19.1296 120.059 19.6584 120.058C23.9023 120.045 27.7277 119.86 30.9499 117.149M20.4095 87.1488C21.1471 89.4414 23.4156 99.6239 26.4216 102.48M30.9499 117.149C39.129 116.514 42.6263 119.851 53.1632 120.049C53.7102 120.06 54.1571 119.621 54.1608 119.073C54.2713 102.495 51.7493 83.5708 54.0107 63.2848C54.0805 62.659 53.5656 62.1188 52.9384 62.1741C40.3078 63.2873 37.9414 66.3921 30.9499 66.8747M30.9499 117.149C35.2602 116.261 43.774 114.149 45.6017 110.826M30.9499 66.8747C32.4308 67.218 38.291 68.291 40.451 70.9494" stroke="#303030" stroke-linecap="round"/>
<path d="M63.8792 74.5121C67.4162 87.6955 59.753 101.795 54.5764 119.973C50.5044 134.272 111.724 128.771 125.209 127.798C129.805 127.466 133.576 127.458 135.989 128.201C145.485 131.126 178.332 130.219 179.483 126.71C180.634 123.2 174.015 113.809 179.483 100.565C184.95 87.3206 184.16 54.3173 176.678 53.1474C169.196 51.9775 144.433 57.3813 134.361 59.1362C130.467 59.8147 126.736 59.4814 123.092 58.6594C117.311 57.3555 88.4053 53.1474 80.5619 53.1474C72.7185 53.1474 60.3422 61.3288 63.8792 74.5121Z" fill="white"/>
<path d="M179.483 100.565C184.95 87.3206 184.16 54.3173 176.678 53.1474C169.196 51.9775 144.433 57.3813 134.361 59.1362C130.467 59.8147 126.736 59.4814 123.092 58.6594M179.483 100.565C174.015 113.809 180.634 123.2 179.483 126.71C178.332 130.219 145.485 131.126 135.989 128.201C133.576 127.458 129.805 127.466 125.209 127.798M179.483 100.565C176.604 105.35 172.972 108.872 168.295 112.041M125.209 127.798C111.724 128.771 50.5044 134.272 54.5764 119.973C59.753 101.795 67.4162 87.6955 63.8792 74.5121C60.3422 61.3288 72.7185 53.1474 80.5619 53.1474C88.4053 53.1474 117.311 57.3555 123.092 58.6594M125.209 127.798C129.812 127.329 139.969 125.83 143.783 123.59M123.092 58.6594C128.663 60.654 134.7 65.5804 134.361 69.5948" stroke="#303030" stroke-linecap="round"/>
<path d="M63.8792 74.512C67.4162 87.6953 59.753 101.795 54.5764 119.973C53.5532 123.566 56.6522 125.908 62.0803 127.387C63.5199 127.387 57.253 123.236 70.7601 111.417C83.6149 100.169 72.9197 73.7031 82.332 74.2195C82.8095 74.2457 83.3389 74.3413 83.9256 74.512C101.872 79.7305 86.057 54.534 80.5619 53.1472C72.7185 53.1472 60.3422 61.3286 63.8792 74.512Z" fill="#ECEDF1"/>
<path d="M82.332 74.2195C82.8095 74.2457 83.3389 74.3413 83.9256 74.512C101.872 79.7305 86.057 54.534 80.5619 53.1472C72.7185 53.1472 60.3422 61.3286 63.8792 74.512C67.4162 87.6953 59.753 101.795 54.5764 119.973C53.5532 123.566 56.6522 125.908 62.0803 127.387C63.5199 127.387 57.253 123.236 70.7601 111.417C83.6149 100.169 72.9197 73.7031 82.332 74.2195ZM82.332 74.2195C79.1849 72.1752 72.4645 72.766 70.7601 77.9061" stroke="#303030" stroke-linecap="round"/>
<path d="M190.203 100.789L5.85938 100.789L5.85937 5.48901L190.203 5.48901L190.203 100.789Z" fill="white" stroke="#303030" stroke-miterlimit="10" stroke-linecap="round" stroke-linejoin="round"/>
<path d="M8.51831 93.4735L8.51877 93.5286L8.51968 93.5843L8.52106 93.6403L8.52335 93.6964L8.52609 93.7525L8.52975 93.809L8.53388 93.866L8.53845 93.923L8.54394 93.98L8.55035 94.037L8.55722 94.0944L8.56454 94.1524L8.57278 94.2098L8.58148 94.2677L8.59109 94.3256L8.60162 94.3836L8.61261 94.4419L8.62451 94.4998L8.63687 94.5582L8.65014 94.6166L8.66433 94.6749L8.67898 94.7333L8.69454 94.7917L8.71056 94.8496L8.72796 94.908L8.74535 94.9664L8.76412 95.0247L8.78335 95.0831L8.80349 95.141L8.82408 95.1989L8.84606 95.2569L8.86803 95.3148L8.89138 95.3722L8.91518 95.4301L8.9399 95.4871L8.96553 95.5446L8.99162 95.6016L9.01863 95.6581L9.04655 95.7146L9.07493 95.7712L9.10423 95.8272L9.13444 95.8829L9.16511 95.9385L9.19669 95.9936L9.22919 96.0483L9.26215 96.103L9.29602 96.1573L9.33035 96.211L9.36606 96.2643L9.40176 96.3172L9.43838 96.3701L9.47592 96.422L9.51437 96.4739L9.55282 96.5254L9.59264 96.576L9.63293 96.6265L9.67366 96.6762L9.71532 96.7258L9.75743 96.7745L9.8 96.8228L9.84349 96.8706L9.88789 96.9179L9.93229 96.9648L9.97761 97.0108L10.0234 97.0563L10.0701 97.1013L10.1172 97.1454L10.1648 97.1891L10.2129 97.2319L10.2614 97.2746L10.3108 97.316L10.3603 97.3574L10.4106 97.3973L10.461 97.4373L10.5123 97.4764L10.564 97.5145L10.6157 97.5522L10.6683 97.589L10.721 97.6253L10.7745 97.6607L10.8281 97.6952L10.8821 97.7292L10.9361 97.7623L10.9911 97.7949L11.046 97.8266L11.1009 97.8574L11.1568 97.8878L11.2121 97.9172L11.2685 97.9457L11.3248 97.9737L11.3811 98.0008L11.4378 98.027L11.495 98.0528L11.5523 98.0776L11.6095 98.1015L11.6667 98.1249L11.7244 98.1475L11.782 98.1691L11.8397 98.1897L11.8979 98.21L11.9555 98.2293L12.0137 98.2481L12.0718 98.266L12.1299 98.283L12.1881 98.2991L12.2462 98.3147L12.3043 98.3295L12.362 98.3437L12.4201 98.357L12.4783 98.3694L12.5364 98.3814L12.5941 98.3924L12.6518 98.403L12.7094 98.4126L12.7671 98.4214L12.8248 98.4296L12.882 98.4375L12.9392 98.4444L12.996 98.4503L13.0532 98.4558L13.1095 98.4604L13.1663 98.4646L13.2226 98.4683L13.2784 98.471L13.3343 98.4733L13.3901 98.4747L13.4455 98.4756L13.5009 98.4761L183.393 98.4761L183.448 98.4756L183.503 98.4747L183.559 98.4733L183.615 98.471L183.671 98.4683L183.727 98.4646L183.783 98.4604L183.84 98.4558L183.897 98.4503L183.954 98.4444L184.011 98.4375L184.069 98.4296L184.126 98.4214L184.184 98.4126L184.241 98.403L184.299 98.3924L184.357 98.3814L184.415 98.3694L184.473 98.357L184.531 98.3437L184.589 98.3295L184.647 98.3147L184.705 98.2991L184.764 98.283L184.822 98.266L184.88 98.2481L184.938 98.2293L184.996 98.21L185.054 98.1897L185.111 98.1691L185.169 98.1475L185.227 98.1249L185.284 98.1015L185.341 98.0776L185.398 98.0528L185.455 98.027L185.512 98.0008L185.569 97.9737L185.625 97.9457L185.681 97.9172L185.737 97.8878L185.792 97.8574L185.847 97.8266L185.902 97.7949L185.957 97.7623L186.011 97.7292L186.065 97.6952L186.119 97.6607L186.172 97.6253L186.225 97.589L186.277 97.5522L186.329 97.5145L186.381 97.4764L186.432 97.4373L186.483 97.3973L186.533 97.3574L186.583 97.316L186.632 97.2746L186.681 97.2319L186.729 97.1891L186.776 97.1454L186.823 97.1013L186.87 97.0563L186.916 97.0108L186.961 96.9648L187.006 96.9179L187.05 96.8706L187.093 96.8228L187.136 96.7745L187.178 96.7258L187.22 96.6762L187.261 96.6265L187.301 96.576L187.34 96.5254L187.379 96.4739L187.418 96.422L187.455 96.3701L187.492 96.3172L187.527 96.2643L187.563 96.211L187.597 96.1573L187.631 96.103L187.664 96.0483L187.697 95.9936L187.728 95.9385L187.759 95.8829L187.789 95.8272L187.819 95.7712L187.847 95.7146L187.875 95.6581L187.902 95.6016L187.928 95.5446L187.953 95.4871L187.978 95.4301L188.002 95.3722L188.025 95.3148L188.047 95.2569L188.069 95.1989L188.09 95.141L188.11 95.0831L188.129 95.0247L188.148 94.9664L188.165 94.908L188.182 94.8496L188.199 94.7917L188.214 94.7333L188.229 94.6749L188.243 94.6166L188.256 94.5582L188.269 94.4998L188.281 94.4419L188.292 94.3836L188.302 94.3256L188.312 94.2677L188.321 94.2098L188.329 94.1524L188.336 94.0944L188.343 94.037L188.35 93.98L188.355 93.923L188.36 93.866L188.364 93.809L188.367 93.7525L188.37 93.6964L188.372 93.6403L188.374 93.5843L188.375 93.5286V93.4735V12.8039V12.7487L188.374 12.6931L188.372 12.637L188.37 12.5809L188.367 12.5249L188.364 12.4683L188.36 12.4113L188.355 12.3543L188.35 12.2973L188.343 12.2403L188.336 12.1829L188.329 12.125L188.321 12.0675L188.312 12.0096L188.302 11.9517L188.292 11.8938L188.281 11.8354L188.269 11.7775L188.256 11.7191L188.243 11.6608L188.229 11.6024L188.214 11.544L188.199 11.4856L188.182 11.4273L188.165 11.3694L188.148 11.311L188.129 11.2526L188.11 11.1942L188.09 11.1363L188.069 11.0784L188.047 11.0205L188.025 10.9626L188.002 10.9047L187.978 10.8472L187.953 10.7902L187.928 10.7328L187.902 10.6758L187.875 10.6192L187.847 10.5627L187.819 10.5062L187.789 10.4501L187.759 10.3945L187.728 10.3389L187.697 10.2837L187.664 10.229L187.631 10.1743L187.597 10.1201L187.563 10.0663L187.527 10.013L187.492 9.96013L187.455 9.90728L187.418 9.85534L187.379 9.8034L187.34 9.75192L187.301 9.70137L187.261 9.6508L187.22 9.60071L187.178 9.55154L187.136 9.50281L187.093 9.45409L187.05 9.40675L187.006 9.35941L186.961 9.31252L186.916 9.26656L186.87 9.22105L186.823 9.17601L186.776 9.13189L186.729 9.08822L186.681 9.04502L186.632 9.00274L186.583 8.96136L186.533 8.92L186.483 8.87956L186.432 8.84003L186.381 8.80095L186.329 8.76281L186.277 8.72512L186.225 8.68835L186.172 8.65205L186.119 8.61664L186.065 8.58218L186.011 8.54816L185.957 8.51507L185.902 8.48243L185.847 8.45072L185.792 8.41993L185.737 8.38959L185.681 8.36018L185.625 8.33168L185.569 8.30364L185.512 8.27652L185.455 8.25032L185.398 8.22458L185.341 8.19977L185.284 8.17587L185.227 8.15243L185.169 8.1299L185.111 8.1083L185.054 8.08762L184.996 8.0674L184.938 8.04808L184.88 8.02925L184.822 8.01132L184.764 7.99432L184.705 7.97823L184.647 7.9626L184.589 7.94789L184.531 7.93364L184.473 7.92031L184.415 7.9079L184.357 7.89595L184.299 7.88492L184.241 7.87435L184.184 7.8647L184.126 7.85596L184.069 7.8477L184.011 7.83989L183.954 7.83298L183.897 7.82701L183.84 7.8215L183.783 7.8169L183.727 7.81276L183.671 7.80908L183.615 7.80633L183.559 7.80403L183.503 7.80264L183.448 7.80173L183.393 7.80127L13.5009 7.80127L13.4455 7.80173L13.3901 7.80264L13.3343 7.80403L13.2784 7.80633L13.2226 7.80908L13.1663 7.81276L13.1095 7.8169L13.0532 7.8215L12.996 7.82701L12.9392 7.83298L12.882 7.83989L12.8248 7.8477L12.7671 7.85596L12.7094 7.8647L12.6518 7.87435L12.5941 7.88492L12.5364 7.89595L12.4783 7.9079L12.4201 7.92031L12.362 7.93364L12.3043 7.94789L12.2462 7.9626L12.1881 7.97823L12.1299 7.99432L12.0718 8.01132L12.0137 8.02925L11.9555 8.04808L11.8979 8.0674L11.8397 8.08762L11.782 8.1083L11.7244 8.1299L11.6667 8.15243L11.6095 8.17587L11.5523 8.19977L11.495 8.22458L11.4378 8.25032L11.3811 8.27652L11.3248 8.30364L11.2685 8.33168L11.2121 8.36018L11.1568 8.38959L11.1009 8.41993L11.046 8.45072L10.9911 8.48243L10.9361 8.51507L10.8821 8.54816L10.8281 8.58218L10.7745 8.61664L10.721 8.65205L10.6683 8.68835L10.6157 8.72512L10.564 8.76281L10.5123 8.80095L10.461 8.84003L10.4106 8.87956L10.3603 8.92L10.3108 8.96136L10.2614 9.00274L10.2129 9.04502L10.1648 9.08822L10.1172 9.13189L10.0701 9.17601L10.0234 9.22105L9.97761 9.26656L9.93229 9.31252L9.88789 9.35941L9.84349 9.40675L9.8 9.45409L9.75743 9.50281L9.71532 9.55154L9.67366 9.60071L9.63293 9.6508L9.59264 9.70137L9.55282 9.75192L9.51437 9.8034L9.47592 9.85534L9.43838 9.90728L9.40176 9.96013L9.36606 10.013L9.33035 10.0663L9.29602 10.1201L9.26215 10.1743L9.22919 10.229L9.19669 10.2837L9.16511 10.3389L9.13444 10.3945L9.10423 10.4501L9.07493 10.5062L9.04655 10.5627L9.01863 10.6192L8.99162 10.6758L8.96553 10.7328L8.9399 10.7902L8.91518 10.8472L8.89138 10.9047L8.86803 10.9626L8.84606 11.0205L8.82408 11.0784L8.80349 11.1363L8.78335 11.1942L8.76412 11.2526L8.74535 11.311L8.72796 11.3694L8.71056 11.4273L8.69454 11.4856L8.67898 11.544L8.66433 11.6024L8.65014 11.6608L8.63687 11.7191L8.62451 11.7775L8.61261 11.8354L8.60162 11.8938L8.59109 11.9517L8.58148 12.0096L8.57278 12.0675L8.56454 12.125L8.55722 12.1829L8.55035 12.2403L8.54394 12.2973L8.53845 12.3543L8.53388 12.4113L8.52975 12.4683L8.52609 12.5249L8.52335 12.5809L8.52106 12.637L8.51968 12.6931L8.51877 12.7487L8.51831 12.8039L8.51831 93.4735Z" fill="white" stroke="#303030" stroke-miterlimit="10" stroke-linecap="round" stroke-linejoin="round"/>
<path d="M8.51831 104.541L8.51831 128.076L8.51877 128.131L8.51968 128.187L8.52106 128.243L8.52335 128.299L8.52609 128.355L8.52975 128.412L8.53388 128.469L8.53845 128.525L8.54394 128.583L8.55035 128.64L8.55722 128.697L8.56454 128.755L8.57278 128.813L8.58148 128.87L8.59109 128.928L8.60162 128.986L8.61261 129.044L8.62451 129.103L8.63687 129.161L8.65014 129.219L8.66433 129.277L8.67898 129.336L8.69454 129.394L8.71056 129.452L8.72796 129.511L8.74535 129.569L8.76412 129.627L8.78335 129.685L8.80349 129.744L8.82408 129.802L8.84606 129.86L8.86803 129.917L8.89138 129.975L8.91518 130.032L8.9399 130.09L8.96553 130.147L8.99162 130.204L9.01863 130.261L9.04655 130.317L9.07493 130.374L9.10423 130.429L9.13444 130.486L9.16511 130.541L9.19669 130.596L9.22919 130.651L9.26215 130.706L9.29602 130.76L9.33035 130.813L9.36606 130.867L9.40176 130.92L9.43838 130.973L9.47592 131.025L9.51437 131.077L9.55282 131.128L9.59264 131.179L9.63293 131.229L9.67366 131.279L9.71532 131.329L9.75743 131.377L9.8 131.425L9.84349 131.473L9.88789 131.521L9.93229 131.568L9.97761 131.613L10.0234 131.659L10.0701 131.704L10.1172 131.748L10.1648 131.792L10.2129 131.835L10.2614 131.877L10.3108 131.919L10.3603 131.96L10.4106 132L10.461 132.04L10.5123 132.079L10.564 132.117L10.6157 132.155L10.6683 132.192L10.721 132.228L10.7745 132.263L10.8281 132.298L10.8821 132.332L10.9361 132.365L10.9911 132.398L11.046 132.429L11.1009 132.46L11.1568 132.49L11.2121 132.52L11.2685 132.548L11.3248 132.576L11.3811 132.604L11.4378 132.63L11.495 132.655L11.5523 132.68L11.6095 132.704L11.6667 132.728L11.7244 132.75L11.782 132.772L11.8397 132.792L11.8979 132.813L11.9555 132.832L12.0137 132.851L12.0718 132.869L12.1299 132.886L12.1881 132.902L12.2462 132.917L12.3043 132.932L12.362 132.946L12.4201 132.96L12.4783 132.972L12.5364 132.984L12.5941 132.995L12.6518 133.006L12.7094 133.015L12.7671 133.024L12.8248 133.032L12.882 133.04L12.9392 133.047L12.996 133.053L13.0532 133.059L13.1095 133.063L13.1663 133.067L13.2226 133.071L13.2784 133.074L13.3343 133.076L13.3901 133.077L13.4455 133.078L13.5009 133.079L153.136 133.079" stroke="#303030" stroke-miterlimit="10" stroke-linecap="round" stroke-linejoin="round"/>
<path d="M186.144 132.246L186.21 132.202L186.275 132.156L186.34 132.109L186.404 132.062L186.467 132.013L186.529 131.963L186.591 131.912L186.652 131.86L186.712 131.807L186.771 131.752L186.83 131.698L186.887 131.642L186.944 131.585L187 131.527L187.054 131.468L187.109 131.408L187.161 131.348L187.213 131.287L187.264 131.225L187.314 131.162L187.363 131.099L187.41 131.035L187.457 130.97L187.502 130.904L187.547 130.838L187.59 130.771L187.632 130.704L187.673 130.636L187.713 130.568L187.751 130.499L187.789 130.43L187.825 130.361L187.86 130.29L187.894 130.22L187.927 130.149L187.959 130.078L187.989 130.007L188.018 129.935L188.046 129.863L188.073 129.792L188.098 129.719L188.123 129.647L188.146 129.575L188.168 129.502L188.189 129.43L188.208 129.357L188.227 129.285L188.245 129.212L188.261 129.14L188.276 129.068L188.29 128.995L188.303 128.923L188.315 128.851L188.325 128.779L188.335 128.708L188.344 128.636L188.351 128.565L188.357 128.494L188.363 128.424L188.367 128.354L188.371 128.283L188.373 128.214L188.374 128.145L188.375 128.076V104.541" stroke="#303030" stroke-miterlimit="10" stroke-linecap="round" stroke-linejoin="round"/>
<path d="M6.48187 1.11133L1.49976 1.11133L1.49976 6.11391L6.48187 6.11391L6.48187 1.11133Z" fill="white" stroke="#303030" stroke-miterlimit="10" stroke-linecap="round" stroke-linejoin="round"/>
<path d="M194.563 1.11133L189.581 1.11133V6.11391L194.563 6.11391V1.11133Z" fill="white" stroke="#303030" stroke-miterlimit="10" stroke-linecap="round" stroke-linejoin="round"/>
<path d="M193.94 6.1145L190.204 6.1145L190.204 100.163H193.94L193.94 6.1145Z" fill="white" stroke="#303030" stroke-miterlimit="10" stroke-linecap="round" stroke-linejoin="round"/>
<path d="M5.85939 6.1145L2.1228 6.1145L2.1228 100.163H5.85939L5.85939 6.1145Z" fill="white" stroke="#303030" stroke-miterlimit="10" stroke-linecap="round" stroke-linejoin="round"/>
<path d="M189.581 1.73706L6.48193 1.73706L6.48193 5.489L189.581 5.489V1.73706Z" fill="white" stroke="#303030" stroke-miterlimit="10" stroke-linecap="round" stroke-linejoin="round"/>
<path d="M189.581 100.789L6.48193 100.789L6.48193 104.541L189.581 104.541V100.789Z" fill="white" stroke="#303030" stroke-miterlimit="10" stroke-linecap="round" stroke-linejoin="round"/>
<path d="M153.137 104.541H150.023V110.169H153.137V104.541Z" stroke="#303030" stroke-miterlimit="10" stroke-linecap="round" stroke-linejoin="round"/>
<path d="M156.251 104.541H153.136V146.817H156.251V104.541Z" fill="white" stroke="#303030" stroke-miterlimit="10" stroke-linecap="round" stroke-linejoin="round"/>
<path d="M183.03 104.541H156.25V110.794H183.03V104.541Z" stroke="#303030" stroke-miterlimit="10" stroke-linecap="round" stroke-linejoin="round"/>
<path d="M183.03 115.94H156.25V122.193H183.03V115.94Z" stroke="#303030" stroke-miterlimit="10" stroke-linecap="round" stroke-linejoin="round"/>
<path d="M183.03 127.34H156.25V133.594H183.03V127.34Z" stroke="#303030" stroke-miterlimit="10" stroke-linecap="round" stroke-linejoin="round"/>
<path d="M183.03 138.74H156.25V144.993H183.03V138.74Z" stroke="#303030" stroke-miterlimit="10" stroke-linecap="round" stroke-linejoin="round"/>
<path d="M194.563 100.163H189.581V139.313H194.563V100.163Z" fill="white" stroke="#303030" stroke-miterlimit="10" stroke-linecap="round" stroke-linejoin="round"/>
<path d="M6.48187 100.163H1.49976L1.49976 139.313H6.48187L6.48187 100.163Z" fill="white" stroke="#303030" stroke-miterlimit="10" stroke-linecap="round" stroke-linejoin="round"/>
<path d="M153.137 138.687L6.48193 138.687L6.48193 134.935L153.137 134.935" fill="#ECEDF1"/>
<path d="M153.137 138.687L6.48193 138.687L6.48193 134.935L153.137 134.935" stroke="#303030" stroke-miterlimit="10" stroke-linecap="round" stroke-linejoin="round"/>
<path d="M186.144 104.541H183.03V146.817H186.144V104.541Z" fill="white" stroke="#303030" stroke-miterlimit="10" stroke-linecap="round" stroke-linejoin="round"/>
<path d="M186.144 134.935H189.58V138.687H186.144" fill="#ECEDF1"/>
<path d="M186.144 134.935H189.58V138.687H186.144" stroke="#303030" stroke-miterlimit="10" stroke-linecap="round" stroke-linejoin="round"/>
<path d="M62.9073 54.706C65.7832 45.4794 66.1386 33.7314 67.3667 28.4911C67.5146 27.8598 67.0891 27.21 66.4435 27.1501C62.1805 26.7546 57.4258 26.4634 52.0451 27.7755C43.2015 26.3032 40.6104 22.0409 24.4857 19.091C23.8663 18.9776 23.2959 19.476 23.3067 20.1055C23.7473 45.8229 18.2386 55.4192 16.3737 76.1049C16.3246 76.6498 16.7309 77.1399 17.2762 77.1843C30.8287 78.2876 35.6552 74.4312 45.991 76.2437C49.7955 80.1251 54.7047 80.787 60.1734 81.324C60.6996 81.3757 61.1775 80.9922 61.2582 80.4696C63.8541 63.6745 61.6932 67.3081 62.9073 54.706Z" fill="white"/>
<path d="M62.9073 54.706C65.7832 45.4794 66.1386 33.7314 67.3667 28.4911C67.5146 27.8598 67.0891 27.21 66.4435 27.1501C62.1805 26.7546 57.4258 26.4634 52.0451 27.7755M62.9073 54.706C61.6932 67.3081 63.854 63.6745 61.2582 80.4696C61.1775 80.9922 60.6996 81.3757 60.1734 81.324C54.7047 80.787 49.7955 80.1251 45.991 76.2437M62.9073 54.706C61.6949 57.5162 57.5844 70.1202 53.4338 73.3663M45.991 76.2437C35.6552 74.4312 30.8287 78.2876 17.2762 77.1843C16.7309 77.1399 16.3246 76.6498 16.3737 76.1049C18.2386 55.4192 23.7473 45.8229 23.3067 20.1055C23.2959 19.476 23.8663 18.9776 24.4857 19.091C40.6104 22.0409 43.2015 26.3032 52.0451 27.7755M45.991 76.2437C40.6469 74.5949 30.1346 70.8856 28.2277 66.4593M52.0451 27.7755C50.1299 28.0292 42.5863 28.6723 39.53 31.7719" stroke="#303030" stroke-linecap="round"/>
<path d="M68.1085 72.4812C71.6455 57.6965 63.9823 41.8841 58.8056 21.4982C54.7337 5.46263 115.953 11.6314 129.439 12.7228C134.034 13.0947 137.805 13.1046 140.218 12.271C149.714 8.9909 182.561 10.0072 183.712 13.9433C184.863 17.8794 178.244 28.411 183.712 43.264C189.179 58.1169 188.389 95.129 180.907 96.4411C173.426 97.7531 148.662 91.6928 138.59 89.7248C134.696 88.9639 130.965 89.3377 127.321 90.2595C121.54 91.7218 92.6345 96.4411 84.7911 96.4411C76.9478 96.4411 64.5715 87.2659 68.1085 72.4812Z" fill="white"/>
<path d="M183.712 43.264C189.179 58.1169 188.389 95.129 180.907 96.4411C173.426 97.7531 148.662 91.6928 138.59 89.7248C134.696 88.9639 130.965 89.3377 127.321 90.2595M183.712 43.264C178.244 28.411 184.863 17.8794 183.712 13.9433C182.561 10.0072 149.714 8.99091 140.218 12.271C137.805 13.1046 134.034 13.0947 129.439 12.7228M183.712 43.264C180.833 37.8971 177.201 33.9475 172.525 30.3939M129.439 12.7228C115.953 11.6315 54.7337 5.46263 58.8056 21.4982C63.9823 41.8841 71.6455 57.6965 68.1085 72.4812C64.5715 87.2659 76.9478 96.4411 84.7911 96.4411C92.6345 96.4411 121.54 91.7218 127.321 90.2595M129.439 12.7228C134.041 13.2493 144.199 14.9301 148.012 17.4418M127.321 90.2595C132.892 88.0226 138.929 82.4979 138.59 77.9958" stroke="#303030" stroke-linecap="round"/>
<path d="M68.1085 72.4815C71.6455 57.6968 63.9823 41.8845 58.8056 21.4986C57.7825 17.4694 60.8815 14.842 66.3096 13.1838C67.7492 13.1838 61.4822 17.8393 74.9893 31.0936C87.2934 43.1674 78.4347 69.656 85.5117 72.5641C85.8507 72.6391 86.2004 72.7208 86.5612 72.8095C92.417 74.2489 101.696 91.4513 101.696 94.4379C101.696 97.4245 102.039 104.194 84.7911 96.4414C76.9478 96.4414 64.5715 87.2662 68.1085 72.4815Z" fill="#ECEDF1"/>
<path d="M86.5612 72.8095C92.417 74.2489 101.696 91.4513 101.696 94.4379C101.696 97.4245 102.039 104.194 84.7911 96.4414C76.9478 96.4414 64.5715 87.2662 68.1085 72.4815C71.6455 57.6968 63.9823 41.8845 58.8056 21.4986C57.7825 17.4694 60.8815 14.842 66.3096 13.1838C67.7492 13.1838 61.4822 17.8393 74.9893 31.0936C87.8442 43.7078 77.5992 72.0564 86.5612 72.8095ZM86.5612 72.8095C78.182 70.7499 75.8347 72.4815 74.1933 73.5781" stroke="#303030" stroke-linecap="round"/>
</svg>
