<svg width="17" height="20" viewBox="0 0 17 20" fill="none" xmlns="http://www.w3.org/2000/svg">
<path d="M7 4C7 5.30622 6.16519 6.41746 5 6.82929L5 13.1707C6.16519 13.5825 7 14.6938 7 16C7 17.6569 5.65685 19 4 19C2.34315 19 1 17.6569 1 16C1 14.6938 1.83481 13.5825 3 13.1707L3 6.82929C1.83481 6.41746 1 5.30622 1 4C1 2.34315 2.34315 1 4 1C5.65685 1 7 2.34315 7 4Z" fill="white" stroke="#303030"/>
<path d="M16 4C16 5.30622 15.1652 6.41746 14 6.82929L14 13.1707C15.1652 13.5825 16 14.6938 16 16C16 17.6569 14.6569 19 13 19C11.3431 19 10 17.6569 10 16C10 14.6938 10.8348 13.5825 12 13.1707L12 6.82929C10.8348 6.41746 10 5.30622 10 4C10 2.34315 11.3431 1 13 1C14.6569 1 16 2.34315 16 4Z" fill="white" stroke="#303030"/>
</svg>
