<svg width="87" height="84" viewBox="0 0 87 84" fill="none" xmlns="http://www.w3.org/2000/svg">
<path d="M1.12055 39.3607C1.12055 41.3495 1.15071 43.3082 1.18084 45.2971C1.24111 47.4667 1.33148 49.6062 1.45202 51.7759C1.57255 53.8852 1.75336 55.9645 1.90403 58.0739C1.99443 59.0683 2.08483 60.0929 2.20537 61.0873C2.26564 61.6297 2.26565 62.2022 2.44646 62.7446C2.65739 63.3775 3.07927 63.95 3.65182 64.3116C4.31476 64.7335 5.09825 64.8841 5.91186 64.9143C6.96655 64.9143 8.05137 64.9444 9.10606 64.9143C9.55807 64.9143 10.0101 64.8239 10.432 64.6732C11.0648 64.4623 11.6373 64.0705 11.9989 63.5281C12.6016 62.6844 12.5715 61.5694 12.6619 60.575C12.7523 59.5504 12.8728 58.4957 12.9632 57.4712C12.9934 56.9288 13.0536 56.4165 13.0838 55.8741C13.1139 55.5727 13.1139 55.2714 13.144 54.9701C13.144 54.8194 13.1139 54.277 13.2043 54.1565C13.3549 53.9757 14.3193 54.1263 14.5905 54.1263C14.3795 57.5917 14.259 61.0571 14.3494 64.5225C14.4096 66.21 14.4699 67.8975 14.6206 69.5851C14.7713 71.1821 15.0425 72.7792 15.7054 74.2257C17.0012 77.0281 19.5324 78.8663 22.3048 80.0415C25.3483 81.3373 28.6329 81.9701 31.8873 82.3618C35.3226 82.7837 38.788 82.9645 42.2233 82.9947C45.6887 83.0248 49.1541 82.9344 52.6195 82.6331C55.9644 82.3317 59.3696 81.8496 62.5638 80.825C65.4868 79.8909 68.4399 78.4444 70.3082 75.9132C72.1765 73.3518 72.3874 70.1877 72.5381 67.1141C72.7189 63.6788 72.7189 60.2435 72.5381 56.8384C72.508 55.9343 72.4477 55.0605 72.3874 54.1564C72.5984 54.1564 72.8093 54.1564 73.0202 54.1564C73.1106 54.1564 73.6832 54.0962 73.7435 54.1564C73.8037 54.2167 73.7736 54.5181 73.7736 54.6085C73.8037 54.9399 73.8339 55.2714 73.8339 55.6029C73.8941 56.3864 73.9544 57.1397 74.0147 57.9232C74.1051 58.9779 74.2256 60.0326 74.316 61.0873C74.3763 61.5995 74.3763 62.1118 74.4968 62.594C74.768 63.7692 75.7624 64.5527 76.8774 64.8239C77.3294 64.9444 77.8115 64.9444 78.2937 64.9444C79.258 64.9444 80.1921 64.9745 81.1564 64.9444C81.8495 64.9444 82.5426 64.7937 83.1453 64.4321C84.8328 63.4678 84.652 61.479 84.8328 59.7915C85.1642 56.4165 85.4355 53.0415 85.556 49.6665C85.6163 47.9187 85.7067 46.1709 85.7368 44.393C85.7669 42.7055 85.8875 40.9577 85.7669 39.2702C85.7066 38.2457 85.0437 37.3115 84.1095 36.9198C83.5671 36.6787 83.0247 36.7089 82.4522 36.7089C80.3127 36.7089 78.1732 36.6787 76.0638 36.7089C75.0392 36.7089 74.1051 37.191 73.5928 38.095C73.3517 38.5169 73.2312 38.9689 73.2312 39.4511C73.2011 41.3194 73.2613 43.2178 73.2914 45.0861C73.3216 45.8696 73.3216 46.6832 73.3517 47.4667C72.9901 47.4667 72.6285 47.4667 72.2669 47.4667C72.1765 47.4667 71.9053 47.527 71.8149 47.4667C71.7546 47.4064 71.7546 47.1955 71.7546 47.1051C71.6944 46.5024 71.6039 45.8696 71.5135 45.2669C71.3327 44.152 71.1218 43.037 70.8205 41.922C70.2781 39.8428 69.5548 37.8238 68.4399 35.9856C67.3249 34.1776 65.8182 32.6106 64.0102 31.4957C62.0214 30.2602 59.7311 29.5972 57.4711 29.1452C56.2959 28.9042 55.0905 28.7535 53.9153 28.633C53.3126 28.5727 52.7401 28.5124 52.1374 28.4823C51.8963 28.4522 51.2936 28.5426 51.1128 28.3919C50.9019 28.2412 50.7512 27.6988 50.6307 27.4879C50.48 27.2167 50.3294 26.9455 50.1787 26.6441C52.8305 26.614 55.4822 26.5236 58.1039 26.3729C60.6653 26.2222 63.1966 25.9812 65.7278 25.6196C66.8428 25.4689 67.9577 25.2881 69.0124 24.9265C69.585 24.7457 70.1575 24.4745 70.5794 24.0526C71.4231 23.2088 71.3026 21.9432 70.9711 20.8885C70.6698 20.0146 70.1876 19.2613 69.7055 18.4778C69.0124 17.393 68.2892 16.278 67.7166 15.1028C67.1742 14.018 66.6921 12.8729 66.3907 11.6977C66.1195 10.6128 66.1196 9.55814 66.1798 8.44319C66.21 7.90078 66.2099 7.35836 66.2401 6.84609C66.2702 6.42421 66.3305 6.00233 66.3004 5.58046C66.2401 5.12845 66.0593 4.76684 65.7579 4.43537C65.2758 3.95322 64.643 3.62175 64.0102 3.35055C62.9555 2.89854 61.8405 2.56706 60.6955 2.29586C58.2245 1.72331 55.663 1.45211 53.1318 1.30144C50.6005 1.15077 48.0693 1.06036 45.5079 1.06036C42.7959 1.03023 40.0537 1.06037 37.3416 1.15077C34.7802 1.24117 32.2188 1.36171 29.6574 1.69318C27.307 1.99452 24.8661 2.44653 22.6965 3.41082C21.7322 3.86283 20.6172 4.49564 20.5268 5.64073C20.4967 6.09274 20.557 6.51462 20.5871 6.96663C20.6172 7.53918 20.6172 8.11172 20.6474 8.68427C20.7076 9.76909 20.6775 10.7936 20.3762 11.8483C19.7132 14.3193 18.327 16.5191 16.971 18.6586C16.2177 19.8338 15.4041 21.2803 15.5849 22.7568C15.7355 23.9923 16.7601 24.595 17.875 24.9566C20.1652 25.6798 22.6362 25.8305 25.0168 26.0716C27.5481 26.3126 30.1095 26.4935 32.6709 26.5537C33.9967 26.5839 35.3226 26.614 36.6485 26.6441C36.4979 26.9455 36.3472 27.2167 36.1965 27.518C36.1061 27.7289 35.9253 28.2714 35.7445 28.3919C35.5336 28.5426 34.9309 28.4522 34.6898 28.4823C34.4487 28.5124 34.1775 28.5124 33.9365 28.5426C32.7311 28.6631 31.4956 28.8138 30.2903 28.9946C27.9699 29.3863 25.6496 29.989 23.5704 31.0738C21.6418 32.0984 20.0145 33.5749 18.7791 35.3528C17.6038 37.0705 16.7902 39.0593 16.2177 41.0482C15.8862 42.1631 15.6451 43.3082 15.4342 44.4533C15.3438 44.9957 15.2534 45.5683 15.163 46.1107C15.1027 46.4422 15.0726 46.7736 15.0425 47.1352C15.0425 47.2256 15.0425 47.4064 14.9822 47.4667C14.9219 47.527 14.5904 47.4667 14.5 47.4667C14.1686 47.4667 13.807 47.4667 13.4755 47.4667C13.5056 46.0805 13.5659 44.7245 13.5659 43.3383C13.5659 41.9522 13.6864 40.5359 13.596 39.1799C13.5358 38.3361 13.0536 37.5225 12.3002 37.0705C11.9386 36.8595 11.5469 36.7089 11.1251 36.6787C9.91969 36.5582 8.68417 36.6787 7.47881 36.6787C6.18305 36.6787 4.82703 36.5883 3.53127 36.6787C3.10939 36.7089 2.71764 36.8294 2.35604 37.0403C1.60269 37.4622 1.09041 38.2457 1.00001 39.1196C1.12054 39.1497 1.12055 39.2401 1.12055 39.3607Z" fill="white" stroke="#303030" stroke-miterlimit="10" stroke-linecap="round" stroke-linejoin="round"/>
<path d="M43.4887 82.9042C40.1438 82.874 36.7689 82.7836 33.424 82.4521C30.2298 82.1207 27.0356 81.6084 23.992 80.5838C21.1594 79.6497 18.3269 78.1731 16.5489 75.7021C14.7409 73.1709 14.5601 70.0671 14.4094 67.0838C14.2286 63.7691 14.2286 60.4543 14.3793 57.1396C14.5299 53.8249 14.7108 50.48 15.1025 47.1954C15.4641 44.0615 16.0969 40.8673 17.3927 37.9744C18.5076 35.4733 20.165 33.2735 22.4552 31.7367C25.0467 29.9889 28.1806 29.2657 31.2242 28.8137C34.5389 28.3315 37.8838 28.211 41.2286 28.1507C44.4831 28.0904 47.7677 28.1206 50.9921 28.3315C54.1863 28.5424 57.4106 28.8739 60.4541 29.8382C63.2867 30.7422 65.818 32.3092 67.626 34.6898C69.3437 36.9197 70.308 39.6016 70.9709 42.3137C71.7845 45.6887 72.0256 49.1541 72.2666 52.6195C72.5077 55.874 72.6584 59.1586 72.6283 62.4432C72.6283 64.0704 72.568 65.6675 72.4776 67.2947C72.3872 68.8918 72.3269 70.4889 71.9653 72.0258C71.3024 74.9488 69.4943 77.2691 66.933 78.8059C64.2812 80.4332 61.1774 81.2769 58.1338 81.8193C54.8794 82.422 51.5948 82.6932 48.28 82.8439C46.713 82.874 45.1159 82.874 43.4887 82.9042Z" fill="#ECEDF1" stroke="#303030" stroke-miterlimit="10" stroke-linecap="round" stroke-linejoin="round"/>
<path d="M61.4791 55.4218C61.3586 53.8548 61.1778 52.2878 60.8764 50.751C60.5148 48.8224 59.9423 46.8938 59.0081 45.1762C58.1643 43.6695 57.0193 42.3436 55.5729 41.3793C53.9758 40.2945 52.1074 39.6918 50.209 39.3001C48.2503 38.9083 46.2313 38.7878 44.2123 38.7577C42.1632 38.7275 40.1141 38.7878 38.0951 39.0892C36.1666 39.3604 34.2681 39.8425 32.5505 40.7164C31.0136 41.4999 29.6877 42.645 28.6933 44.0613C27.5784 45.6282 26.9154 47.4664 26.4333 49.3347C25.9511 51.3236 25.6799 53.3727 25.5293 55.3916C25.4991 55.6026 25.4991 55.8135 25.469 55.9943" stroke="#303030" stroke-linecap="round" stroke-linejoin="round" stroke-dasharray="3 3"/>
<path d="M36.7389 26.5837L35.8047 28.3315" stroke="#303030" stroke-miterlimit="10" stroke-linecap="round" stroke-linejoin="round"/>
<path d="M51.1729 28.3315L50.2388 26.5837" stroke="#303030" stroke-miterlimit="10" stroke-linecap="round" stroke-linejoin="round"/>
<path d="M66.3003 7.44866C66.3305 6.45424 66.6318 5.33928 65.9086 4.52567C65.0648 3.56138 63.6787 3.10937 62.5035 2.74776C60.6352 2.14509 58.6463 1.81361 56.6876 1.57254C54.6385 1.33147 52.5894 1.21093 50.5402 1.12053C48.4007 1.03013 46.2612 0.999996 44.0916 0.999996C41.9822 0.999996 39.8728 1.03013 37.7634 1.06026C35.7445 1.12053 33.7255 1.21094 31.7065 1.39174C29.7177 1.57255 27.7288 1.84375 25.8003 2.32589C24.3237 2.6875 22.6964 3.13951 21.461 4.07367C20.798 4.58594 20.5268 5.18862 20.5569 6.03237C20.5871 6.48438 20.6474 6.93639 20.6474 7.3884" stroke="#303030" stroke-miterlimit="10" stroke-linecap="round" stroke-linejoin="round"/>
<path d="M43.4887 3.16964C40.7465 3.16964 38.0044 3.19977 35.2923 3.32031C32.4899 3.44084 29.6573 3.59151 26.8849 3.98326C25.6494 4.16406 24.3838 4.34487 23.1785 4.70648C22.5155 4.91741 21.8224 5.15848 21.3101 5.67076C20.2253 6.75559 20.828 8.65403 20.7677 9.97992C20.6773 12.4509 19.3816 14.9219 18.1159 16.971C17.1215 18.538 15.7354 20.1953 15.645 22.1239C15.5847 23.4197 16.338 24.2634 17.4831 24.7154C18.5378 25.1373 19.6829 25.3181 20.7979 25.4989C22.1238 25.7099 23.4798 25.8605 24.8358 25.9811C27.578 26.2523 30.3504 26.4331 33.1227 26.4933C35.9854 26.5837 38.8783 26.5837 41.741 26.5837C44.3024 26.5837 46.8939 26.5837 49.4553 26.5536C52.4084 26.5235 55.3314 26.4632 58.2846 26.2824C60.9665 26.1317 63.6484 25.8605 66.3002 25.4386C67.385 25.2578 68.5 25.077 69.5245 24.6552C70.0669 24.4442 70.5792 24.1429 70.9107 23.6306C71.6339 22.5759 71.2421 21.0692 70.7299 20.0145C70.1875 18.8996 69.4341 17.875 68.7712 16.8203C68.0479 15.6752 67.4453 14.4397 66.9631 13.1741C66.5412 12.0893 66.2098 10.9442 66.1796 9.79911C66.1495 8.80469 66.3604 7.75 66.2098 6.75558C65.9988 5.45981 64.7935 4.94754 63.6484 4.58593C61.1774 3.86271 58.5256 3.68191 55.9642 3.47097C53.1919 3.26004 50.4196 3.16964 47.6472 3.10937C47.376 3.19977 43.4887 3.1395 43.4887 3.16964Z" stroke="#303030" stroke-miterlimit="10" stroke-linecap="round" stroke-linejoin="round"/>
<path d="M1.12036 39.3607C1.12036 38.2758 1.78331 37.2814 2.77773 36.8595C3.38041 36.5883 4.01325 36.6486 4.64606 36.6486C6.75544 36.6486 8.83465 36.5883 10.944 36.6486C12.0289 36.6787 13.0233 37.2814 13.4452 38.306C13.7766 39.1196 13.6561 40.0236 13.6561 40.8674C13.6561 42.7357 13.626 44.604 13.5657 46.4723C13.4452 50.2089 13.2342 53.9154 12.9027 57.6219C12.8425 58.4656 12.7521 59.3395 12.6617 60.1833C12.6014 60.9366 12.5713 61.7201 12.4206 62.4433C12.3001 63.046 11.9987 63.6185 11.5166 64.0103C11.0646 64.402 10.5222 64.6732 9.94964 64.7937C9.40723 64.9143 8.83469 64.9143 8.26214 64.9143C7.32799 64.9143 6.39382 64.9746 5.45967 64.9143C4.16391 64.8239 2.89828 64.1609 2.44627 62.8953C2.32573 62.5638 2.29561 62.2324 2.26547 61.8708C2.17507 60.8161 2.05453 59.7312 1.96413 58.6766C1.78333 56.7781 1.66279 54.8495 1.51212 52.9511C1.27105 49.3652 1.1505 45.7792 1.12036 42.1933C1.12036 41.1988 1.12036 40.2647 1.12036 39.3607Z" stroke="#303030" stroke-miterlimit="10" stroke-linecap="round" stroke-linejoin="round"/>
<path d="M85.8572 39.3607C85.8572 38.2758 85.1942 37.2814 84.1998 36.8595C83.5971 36.5883 82.9643 36.6486 82.3315 36.6486C80.2221 36.6486 78.1428 36.5883 76.0335 36.6486C74.9486 36.6787 73.9542 37.2814 73.5324 38.306C73.2009 39.1196 73.3214 40.0236 73.3214 40.8674C73.3214 42.7357 73.3516 44.604 73.4118 46.4723C73.5324 50.2089 73.7433 53.9154 74.0748 57.6219C74.135 58.4656 74.2254 59.3395 74.3158 60.1833C74.3761 60.9366 74.4063 61.7201 74.5569 62.4433C74.6775 63.046 74.9788 63.6185 75.461 64.0103C75.913 64.402 76.4554 64.6732 77.0279 64.7938C77.5703 64.9143 78.1429 64.9143 78.7154 64.9143C79.6496 64.9143 80.5837 64.9746 81.5179 64.9143C82.8136 64.8239 84.0793 64.1609 84.5313 62.8953C84.6518 62.5638 84.6819 62.2324 84.7121 61.8707C84.8025 60.8161 84.923 59.7312 85.0134 58.6766C85.1942 56.7781 85.3148 54.8495 85.4654 52.9511C85.7065 49.3652 85.827 45.7792 85.8572 42.1933C85.8572 41.1988 85.8572 40.2647 85.8572 39.3607Z" stroke="#303030" stroke-miterlimit="10" stroke-linecap="round" stroke-linejoin="round"/>
<path d="M15.0725 47.4062L13.5356 47.4062" stroke="#303030" stroke-miterlimit="10" stroke-linecap="round" stroke-linejoin="round"/>
<path d="M13.2041 54.0659L14.5601 54.0659" stroke="#303030" stroke-miterlimit="10" stroke-linecap="round" stroke-linejoin="round"/>
<path d="M73.4421 47.4062L71.9053 47.4062" stroke="#303030" stroke-miterlimit="10" stroke-linecap="round" stroke-linejoin="round"/>
<path d="M72.4175 54.0659L73.8037 54.0659" stroke="#303030" stroke-miterlimit="10" stroke-linecap="round" stroke-linejoin="round"/>
</svg>
