<svg width="85" height="85" viewBox="0 0 85 85" fill="none" xmlns="http://www.w3.org/2000/svg">
<path d="M82.5 42.5C89.4999 67.5 65.4199 84 42.5001 84C19.5803 84 -2.49992 63 1.00008 42.5C4.50008 22 25.5802 1 48.5 1C71.4198 1 75.5001 17.5 82.5 42.5Z" fill="white" stroke="#303030"/>
<path d="M44 45C41.1667 43.1666 18.2339 26.5098 2.94531 36.1659" stroke="#303030" stroke-linecap="round"/>
<path d="M51.0001 45.0001C52.7709 43.8543 72.7498 20.8774 78.7849 30.5334" stroke="#303030" stroke-linecap="round"/>
<path d="M47.5 42.9999C49.2708 41.8541 50.2727 1.12665 33.0511 4.19586" stroke="#303030" stroke-linecap="round"/>
<path d="M73.9364 72.5238C77.0583 55.7057 64.1848 45.6409 49.8677 47.1457M16.8364 74.7392C16.1313 58.8277 29.5538 48.7516 44.8326 47.1457" stroke="#303030" stroke-linecap="round"/>
<ellipse cx="47.5" cy="45.5" rx="3.5" ry="2.5" fill="#ECEDF1" stroke="#303030"/>
</svg>
