<svg width="57" height="57" viewBox="0 0 57 57" fill="none" xmlns="http://www.w3.org/2000/svg">
<circle cx="28.5" cy="28.5" r="27.3162" fill="#ECEDF1" stroke="#303030"/>
<circle cx="28.4999" cy="28.4999" r="23.498" fill="white" stroke="#303030"/>
<circle cx="28.4998" cy="28.4998" r="3.12631" fill="white" stroke="#303030"/>
<rect x="25.3738" y="50.5684" width="6.25262" height="4.72335" rx="1" fill="#303030" stroke="#303030"/>
<rect x="25.9468" y="45.1804" width="5.10656" height="8.05144" rx="2" stroke="#303030"/>
<rect x="25.9465" y="34.6924" width="5.10656" height="8.05144" rx="2" stroke="#303030"/>
<path d="M28.5 39.7209L28.5 47.7724" stroke="#303030" stroke-linecap="round"/>
<path d="M28.5 28.4998L28.5 36.5512" stroke="#303030" stroke-linecap="round"/>
<rect x="31.6262" y="6.43164" width="6.25262" height="4.72335" rx="1" transform="rotate(180 31.6262 6.43164)" fill="#303030" stroke="#303030"/>
<rect x="31.0532" y="11.8196" width="5.10656" height="8.05144" rx="2" transform="rotate(180 31.0532 11.8196)" stroke="#303030"/>
<rect x="31.0535" y="22.3076" width="5.10656" height="8.05144" rx="2" transform="rotate(180 31.0535 22.3076)" stroke="#303030"/>
<path d="M28.5 17.2791L28.5 9.22761" stroke="#303030" stroke-linecap="round"/>
<path d="M28.5 28.5002L28.5 20.4488" stroke="#303030" stroke-linecap="round"/>
<rect x="5.90747" y="25.3738" width="6.25262" height="4.72335" rx="1" transform="rotate(90 5.90747 25.3738)" fill="#303030" stroke="#303030"/>
<rect x="11.2954" y="25.9468" width="5.10656" height="8.05144" rx="2" transform="rotate(90 11.2954 25.9468)" stroke="#303030"/>
<rect x="21.7834" y="25.9465" width="5.10656" height="8.05144" rx="2" transform="rotate(90 21.7834 25.9465)" stroke="#303030"/>
<path d="M16.7549 28.5L8.70344 28.5" stroke="#303030" stroke-linecap="round"/>
<path d="M27.9761 28.5L19.9246 28.5" stroke="#303030" stroke-linecap="round"/>
<rect x="51.0925" y="31.6262" width="6.25262" height="4.72335" rx="1" transform="rotate(-90 51.0925 31.6262)" fill="#303030" stroke="#303030"/>
<rect x="45.7046" y="31.0532" width="5.10656" height="8.05144" rx="2" transform="rotate(-90 45.7046 31.0532)" stroke="#303030"/>
<rect x="35.2166" y="31.0535" width="5.10656" height="8.05144" rx="2" transform="rotate(-90 35.2166 31.0535)" stroke="#303030"/>
<path d="M40.2451 28.5L48.2966 28.5" stroke="#303030" stroke-linecap="round"/>
<path d="M29.0239 28.5L37.0754 28.5" stroke="#303030" stroke-linecap="round"/>
</svg>
