<svg width="104" height="104" viewBox="0 0 104 104" fill="none" xmlns="http://www.w3.org/2000/svg">
<circle cx="52.2406" cy="52.0079" r="47.8151" fill="#ECEDF1" stroke="#303030"/>
<path d="M84.9346 16.9786L87.2699 15.1104" stroke="#303030" stroke-linecap="round"/>
<path d="M26.0854 28.6549C27.3658 28.0639 28.0738 26.7405 28.8878 25.8525" stroke="#303030" stroke-linecap="round"/>
<path d="M60.6477 30.4209C63.4427 30.8189 66.2721 29.9524 69.0547 29.5891" stroke="#303030" stroke-linecap="round"/>
<path d="M74.6594 42.6667C75.2256 42.6667 75.8962 42.6667 76.5277 42.6667" stroke="#303030" stroke-linecap="round"/>
<path d="M75.5936 53.876C73.0426 55.6819 70.001 56.544 67.1865 57.6124" stroke="#303030" stroke-linecap="round"/>
<path d="M47.5701 36.1279C47.5701 38.0506 47.5701 39.8655 47.5701 41.7326" stroke="#303030" stroke-linecap="round"/>
<path d="M33.5583 47.3374C34.2234 48.4679 35.4554 49.2798 36.3607 50.1397" stroke="#303030" stroke-linecap="round"/>
<path d="M31.6899 66.0195C32.4234 67.1197 33.5809 67.943 34.4923 68.8219" stroke="#303030" stroke-linecap="round"/>
<path d="M48.5042 61.349V58.5466" stroke="#303030" stroke-linecap="round"/>
<path d="M69.0547 76.2948C70.754 75.1804 71.6553 73.1726 72.7912 71.6243" stroke="#303030" stroke-linecap="round"/>
<path d="M48.5042 76.2949C51.287 76.689 54.1085 76.9286 56.9112 77.229" stroke="#303030" stroke-linecap="round"/>
<path d="M29.8219 78.1631L26.0854 79.0972" stroke="#303030" stroke-linecap="round"/>
<path d="M35.4265 34.2339C36.5129 34.3953 37.2399 33.7585 38.2289 33.3254" stroke="#303030" stroke-linecap="round"/>
<path d="M44.7676 23.9844C45.7325 23.9844 46.6272 23.9844 47.5699 23.9844" stroke="#303030" stroke-linecap="round"/>
<path d="M76.6632 23.0503C76.1743 24.5423 77.1406 26.2508 77.4617 27.7209" stroke="#303030" stroke-linecap="round"/>
<path d="M58.7793 43.6008C60.4954 45.0866 62.4836 45.6715 64.384 46.4032" stroke="#303030" stroke-linecap="round"/>
<path d="M28.8877 41.7327C27.029 42.8947 24.5094 43.1506 22.3489 43.6009" stroke="#303030" stroke-linecap="round"/>
<path d="M26.0854 57.6126C26.8941 57.4586 27.3927 57.0524 27.9537 56.6785" stroke="#303030" stroke-linecap="round"/>
<path d="M76.5276 63.2173C76.855 63.8227 77.1567 64.4457 77.4617 65.0855" stroke="#303030" stroke-linecap="round"/>
<path d="M78.3958 77.229C79.2448 78.0073 80.2801 77.9227 81.1981 78.1631" stroke="#303030" stroke-linecap="round"/>
<path d="M59.7136 68.8219C60.4895 67.8133 61.0034 66.2887 61.5819 65.0854" stroke="#303030" stroke-linecap="round"/>
<path d="M38.2288 58.5467C39.1908 58.3987 40.101 57.9508 41.0311 57.6125" stroke="#303030" stroke-linecap="round"/>
<path d="M53.1748 49.2056C54.0417 50.2191 55.0589 50.5079 55.9772 51.0738" stroke="#303030" stroke-linecap="round"/>
<path d="M58.7793 20.248C58.8941 21.3962 59.3252 22.0798 59.7134 23.0504" stroke="#303030" stroke-linecap="round"/>
<path d="M38.2288 76.2949C38.7491 77.7961 39.9137 78.8726 41.0311 80.0314" stroke="#303030" stroke-linecap="round"/>
<path d="M21.4148 68.822C22.554 69.2241 23.8991 69.4596 25.1513 69.7561" stroke="#303030" stroke-linecap="round"/>
<path d="M81.1982 49.2056C81.8393 49.0631 81.8623 48.6316 82.1324 48.2715" stroke="#303030" stroke-linecap="round"/>
<path d="M47.2534 81.947C47.9054 82.4839 48.6333 82.9239 49.3291 83.4" stroke="#303030" stroke-linecap="round"/>
<path d="M61.9906 85.4756C61.6316 86.1487 60.871 86.629 60.3301 87.1361" stroke="#303030" stroke-linecap="round"/>
<path d="M36.6675 90.2498C37.5773 91.7662 39.4179 92.7595 40.8188 93.7784" stroke="#303030" stroke-linecap="round"/>
<path d="M54.7258 94.6088L53.688 91.9104" stroke="#303030" stroke-linecap="round"/>
<path d="M72.9917 89.6271C73.7151 88.6254 73.8884 87.0322 74.2371 85.8909" stroke="#303030" stroke-linecap="round"/>
<path d="M85.2383 69.9083C87.1072 69.8693 88.9748 69.7739 90.8426 69.7007" stroke="#303030" stroke-linecap="round"/>
<path d="M85.2383 59.1148C86.206 58.5037 86.9508 57.4361 87.7291 56.624" stroke="#303030" stroke-linecap="round"/>
<path d="M88.9742 36.2825L88.7666 38.3581" stroke="#303030" stroke-linecap="round"/>
<path d="M93 47C93.8213 48.095 94.9258 48.9621 95.9059 49.9059" stroke="#303030" stroke-linecap="round"/>
<path d="M70.0859 16.9788C69.0834 15.8128 68.0538 14.7391 66.9724 13.6577" stroke="#303030" stroke-linecap="round"/>
<path d="M51.8201 10.3367L50.7822 15.1107" stroke="#303030" stroke-linecap="round"/>
<path d="M36 14.4151L38.0757 14" stroke="#303030" stroke-linecap="round"/>
<path d="M14.043 33.1689C14.5575 34.9649 15.1515 36.5048 15.9111 38.1505" stroke="#303030" stroke-linecap="round"/>
<path d="M10.5142 47.9061C12.4695 47.5776 14.2299 47.0197 16.1185 46.4531" stroke="#303030" stroke-linecap="round"/>
<path d="M12.3823 62.6434L13.005 58.9072" stroke="#303030" stroke-linecap="round"/>
<path d="M16.7412 76.1352C17.4767 75.5695 17.9925 75.3918 18.8169 75.0974" stroke="#303030" stroke-linecap="round"/>
<path d="M25 85C26.0062 85.6708 27.6069 85.7555 28.7362 86.0378" stroke="#303030" stroke-linecap="round"/>
<path d="M87.4268 19.5121C88.147 18.8976 88.8884 18.3586 89.6522 17.8042" stroke="#303030" stroke-linecap="round"/>
<path d="M90.0146 21.893C90.8287 21.4456 91.6416 21.0081 92.4988 20.6509" stroke="#303030" stroke-linecap="round"/>
<path d="M91.2048 23.9113C92.1287 23.4101 93.0623 22.9369 93.9995 22.4622" stroke="#303030" stroke-linecap="round"/>
<path d="M92.9646 26.5507C93.6108 26.2163 94.2703 25.9225 94.9312 25.6191" stroke="#303030" stroke-linecap="round"/>
<path d="M94.3401 29.0424C95.1547 28.7631 95.9301 28.4684 96.6883 28.064" stroke="#303030" stroke-linecap="round"/>
<path d="M95.4863 31.3951C96.0358 31.2763 96.5539 31.0535 97.0741 30.8455" stroke="#303030" stroke-linecap="round"/>
<path d="M96.4636 33.2271C97.1862 33.181 97.7695 32.9046 98.4178 32.6165" stroke="#303030" stroke-linecap="round"/>
<path d="M96.9521 35.1203C97.5632 35.0986 98.1234 34.9803 98.7232 34.876" stroke="#303030" stroke-linecap="round"/>
<path d="M98.2344 37.3799C99.03 37.0791 99.8226 36.7704 100.616 36.4639" stroke="#303030" stroke-linecap="round"/>
<path d="M98.4788 39.2119C99.2864 39.1477 100.067 38.9408 100.86 38.7844" stroke="#303030" stroke-linecap="round"/>
<path d="M99.0894 41.4716C100.112 41.2728 101.131 41.0407 102.143 40.7998" stroke="#303030" stroke-linecap="round"/>
<path d="M100.005 46.1129C100.568 46.1373 101.102 46.0882 101.654 45.9907" stroke="#303030" stroke-linecap="round"/>
<path d="M100.067 48.3722L101.654 48.189" stroke="#303030" stroke-linecap="round"/>
<path d="M100.25 51.0594C100.88 50.9997 101.509 50.9373 102.143 50.9373" stroke="#303030" stroke-linecap="round"/>
<path d="M99.8833 56.0671C100.798 56.2592 101.716 56.4337 102.631 56.6168" stroke="#303030" stroke-linecap="round"/>
<path d="M99.6389 58.8762C100.439 58.9619 101.235 59.079 102.021 59.2426" stroke="#303030" stroke-linecap="round"/>
<path d="M99.3337 61.197C100.216 61.6048 101.106 61.9696 102.021 62.2963" stroke="#303030" stroke-linecap="round"/>
<path d="M98.7839 63.4565C99.4899 63.9043 100.206 64.2509 100.982 64.5558" stroke="#303030" stroke-linecap="round"/>
<path d="M97.929 65.5327C98.5422 66.1215 99.413 66.5369 100.189 66.8762" stroke="#303030" stroke-linecap="round"/>
<path d="M97.1963 68.0977C98.2769 68.7008 99.4751 69.1527 100.677 69.4412" stroke="#303030" stroke-linecap="round"/>
<path d="M96.2803 70.9067C97.003 71.192 97.6878 71.73 98.3566 72.1281" stroke="#303030" stroke-linecap="round"/>
<path d="M95.3032 72.9221C96.1681 73.5925 97.0198 74.2479 97.9903 74.7542" stroke="#303030" stroke-linecap="round"/>
<path d="M94.2651 74.8152C94.9162 75.3084 95.4387 75.9703 96.0361 76.5251" stroke="#303030" stroke-linecap="round"/>
<path d="M92.7383 77.4412C93.2784 78.1703 93.8227 78.8636 94.4482 79.5175" stroke="#303030" stroke-linecap="round"/>
<path d="M90.9062 80.1282C91.6181 80.6769 92.3507 81.2672 92.9826 81.8992" stroke="#303030" stroke-linecap="round"/>
<path d="M89.4407 82.0212C90.3106 82.7824 91.1875 83.5238 92.0056 84.3419" stroke="#303030" stroke-linecap="round"/>
<path d="M87.7917 83.7925C88.4023 84.8407 89.0889 85.7324 89.9292 86.6017" stroke="#303030" stroke-linecap="round"/>
<path d="M86.1428 85.8687C86.8475 86.5699 87.562 87.258 88.2802 87.945" stroke="#303030" stroke-linecap="round"/>
<path d="M83.8833 87.9451C84.4977 88.8029 85.2107 89.589 85.8986 90.3878" stroke="#303030" stroke-linecap="round"/>
<path d="M81.6238 89.594C82.1512 90.2802 82.6846 91.0054 83.4559 91.4261" stroke="#303030" stroke-linecap="round"/>
<path d="M79.3643 91.304C79.7652 92.2341 80.1379 93.177 80.5246 94.1131" stroke="#303030" stroke-linecap="round"/>
<path d="M76.9214 92.9526C77.3448 93.6542 77.79 94.3065 78.2649 94.9679" stroke="#303030" stroke-linecap="round"/>
<path d="M74.845 94.2351C75.1521 94.9074 75.3816 95.6189 75.6389 96.3115" stroke="#303030" stroke-linecap="round"/>
<path d="M72.4023 95.5789C72.8679 96.0222 73.1664 96.6851 73.5016 97.2277" stroke="#303030" stroke-linecap="round"/>
<path d="M69.4099 96.9224C69.8572 97.3932 70.1983 98.1412 70.387 98.7544" stroke="#303030" stroke-linecap="round"/>
<path d="M66.9062 97.655C67.2386 98.112 67.3691 98.7744 67.5678 99.2971C67.7087 99.6676 67.8635 100.034 68.0055 100.403" stroke="#303030" stroke-linecap="round"/>
<path d="M64.28 98.7542C64.5431 99.3886 64.664 100.046 64.8297 100.708" stroke="#303030" stroke-linecap="round"/>
<path d="M61.5933 99.365C61.8687 100.004 62.07 100.651 62.265 101.319" stroke="#303030" stroke-linecap="round"/>
<path d="M58.9231 99.6831C59.0096 100.473 58.9937 101.27 59.0483 102.063" stroke="#303030" stroke-linecap="round"/>
<path d="M55.7292 99.9963C55.7786 100.978 55.7919 101.957 55.7919 102.94" stroke="#303030" stroke-linecap="round"/>
<path d="M52.7231 100.121C52.782 101.13 52.7643 102.119 52.7231 103.127" stroke="#303030" stroke-linecap="round"/>
<path d="M49.7172 99.9963C49.7002 100.901 49.6529 101.756 49.4041 102.627" stroke="#303030" stroke-linecap="round"/>
<path d="M47.1496 99.6831C46.7892 100.648 46.395 101.61 46.2102 102.626" stroke="#303030" stroke-linecap="round"/>
<path d="M44.5818 99.1821C44.2956 100.054 44.0174 100.915 43.8303 101.812" stroke="#303030" stroke-linecap="round"/>
<path d="M40.9496 98.7437C40.508 99.8057 39.9811 100.84 39.6345 101.938" stroke="#303030" stroke-linecap="round"/>
<path d="M38.5075 97.9924C38.1056 98.8036 37.7219 99.6263 37.3176 100.435" stroke="#303030" stroke-linecap="round"/>
<path d="M35.877 97.1155C35.4818 97.7083 35.1203 98.3294 34.7498 98.9316" stroke="#303030" stroke-linecap="round"/>
<path d="M33.3719 95.9258C32.6853 96.7255 32.0148 97.5364 31.3679 98.3682" stroke="#303030" stroke-linecap="round"/>
<path d="M29.9276 94.8611C29.3788 95.6636 28.7878 96.425 28.1741 97.1782" stroke="#303030" stroke-linecap="round"/>
<path d="M26.5459 92.4814C25.7616 93.1581 24.9646 93.7861 24.1035 94.3602" stroke="#303030" stroke-linecap="round"/>
<path d="M23.3522 90.1016C22.5153 90.8719 21.677 91.6407 20.8472 92.4187" stroke="#303030" stroke-linecap="round"/>
<path d="M20.5342 88.0349C19.8175 88.7804 19.0968 89.5195 18.3423 90.2268" stroke="#303030" stroke-linecap="round"/>
<path d="M18.1542 85.7178C17.0628 86.3563 15.9781 87.0032 14.8977 87.6591" stroke="#303030" stroke-linecap="round"/>
<path d="M15.8995 83.4006C14.9367 84.044 13.978 84.6932 13.0188 85.342" stroke="#303030" stroke-linecap="round"/>
<path d="M13.9583 81.522C13.0225 82.0923 12.0828 82.6543 11.1401 83.2128" stroke="#303030" stroke-linecap="round"/>
<path d="M12.8311 79.0793C11.6397 79.3478 10.4553 79.6377 9.26147 79.8935" stroke="#303030" stroke-linecap="round"/>
<path d="M10.2635 75.4473C9.66873 75.9764 9.04376 76.4884 8.51001 77.0755" stroke="#303030" stroke-linecap="round"/>
<path d="M8.82309 73.0049C8.16816 73.4545 7.51624 73.8798 6.81909 74.2574" stroke="#303030" stroke-linecap="round"/>
<path d="M7.88367 70.3745C7.01026 70.6106 6.1388 70.8191 5.25342 71.0008" stroke="#303030" stroke-linecap="round"/>
<path d="M6.94448 67.6191C5.93208 67.879 4.93682 68.1873 3.93848 68.4959" stroke="#303030" stroke-linecap="round"/>
<path d="M5.9425 64.2373C5.06482 64.3486 4.17929 64.4396 3.31226 64.6131" stroke="#303030" stroke-linecap="round"/>
<path d="M5.00278 61.6072C4.27811 61.6072 3.58971 61.64 2.87354 61.7324" stroke="#303030" stroke-linecap="round"/>
<path d="M4.62724 58.2253C3.41967 58.3182 2.23194 58.4417 1.05762 58.7263" stroke="#303030" stroke-linecap="round"/>
<path d="M4.18874 55.971C3.16561 55.9249 2.14373 55.8741 1.12012 55.8457" stroke="#303030" stroke-linecap="round"/>
<path d="M4.12624 53.3405C3.10206 53.117 2.07873 52.8873 1.05762 52.6516" stroke="#303030" stroke-linecap="round"/>
<path d="M4.06349 50.5852C3.08418 50.2853 2.10333 49.9945 1.12012 49.7085" stroke="#303030" stroke-linecap="round"/>
<path d="M4.31399 47.0154C3.23817 47.0632 2.15834 46.733 1.12012 46.5144" stroke="#303030" stroke-linecap="round"/>
<path d="M2.31006 43.8843L4.75243 44.761" stroke="#303030" stroke-linecap="round"/>
<path d="M5.19081 42.5693C4.20452 42.0953 3.19289 41.6786 2.18481 41.2542" stroke="#303030" stroke-linecap="round"/>
<path d="M5.81728 39.1874C4.76034 38.7773 3.71639 38.3446 2.68604 37.8723" stroke="#303030" stroke-linecap="round"/>
<path d="M6.81912 36.8701C5.7548 36.1755 4.66466 35.5279 3.62524 34.8035" stroke="#303030" stroke-linecap="round"/>
<path d="M7.75833 33.9895C6.6364 33.7346 5.55628 33.2772 4.43921 32.9875" stroke="#303030" stroke-linecap="round"/>
<path d="M8.50996 31.923C7.97338 31.4575 7.45706 30.974 6.94434 30.4827" stroke="#303030" stroke-linecap="round"/>
<path d="M9.88767 29.418C9.11934 29.1904 8.411 28.7663 7.6958 28.416" stroke="#303030" stroke-linecap="round"/>
<path d="M11.3908 26.8503C10.7076 26.4838 10.0151 26.1374 9.32422 25.7856" stroke="#303030" stroke-linecap="round"/>
<path d="M12.8935 24.5959C12.2618 24.0484 11.6112 23.5428 10.9521 23.0303" stroke="#303030" stroke-linecap="round"/>
<path d="M14.71 22.1534C13.8373 21.6721 12.9905 21.1697 12.1423 20.6504" stroke="#303030" stroke-linecap="round"/>
<path d="M16.213 19.9615C15.5632 19.1505 14.8861 18.3695 14.209 17.5818" stroke="#303030" stroke-linecap="round"/>
<path d="M18.5299 17.8324C17.7568 16.8808 16.8896 16.1634 15.8997 15.4526" stroke="#303030" stroke-linecap="round"/>
<path d="M20.6592 15.7657C20.2323 14.9518 19.7505 14.1759 19.2815 13.386" stroke="#303030" stroke-linecap="round"/>
<path d="M23.4775 13.3858C22.9973 12.6481 22.66 11.9208 22.2876 11.1313" stroke="#303030" stroke-linecap="round"/>
<path d="M25.6691 11.7577C25.6864 11.4462 25.4444 11.0385 25.3212 10.7696C25.1433 10.3814 24.9331 10.0038 24.7297 9.62842" stroke="#303030" stroke-linecap="round"/>
<path d="M29.0511 9.50315C29.0896 9.29143 28.7253 8.83874 28.6405 8.70295C28.3523 8.24138 28.0731 7.7795 27.7986 7.31128" stroke="#303030" stroke-linecap="round"/>
<path d="M31.744 8.81432C31.4872 7.97085 30.959 7.1693 30.4915 6.43457" stroke="#303030" stroke-linecap="round"/>
<path d="M34.4993 7.24877C34.1011 6.44145 33.7357 5.62861 33.3721 4.8064" stroke="#303030" stroke-linecap="round"/>
<path d="M36.7538 6.24678C36.4861 5.73873 36.2864 5.21021 36.0649 4.68115" stroke="#303030" stroke-linecap="round"/>
<path d="M38.7577 5.74561C38.6146 4.83951 38.3929 3.94743 38.1941 3.05273" stroke="#303030" stroke-linecap="round"/>
<path d="M42.0144 4.93162C41.8171 4.19177 41.499 3.46755 41.2629 2.73975" stroke="#303030" stroke-linecap="round"/>
<path d="M44.5818 4.55577C44.3129 3.76549 44.0683 2.97493 43.8303 2.17603" stroke="#303030" stroke-linecap="round"/>
<path d="M47.1497 3.99205C46.7483 3.27376 46.4085 2.42563 46.2729 1.6123" stroke="#303030" stroke-linecap="round"/>
<path d="M49.4666 3.86683C49.383 2.94788 49.2896 2.03088 49.2161 1.11133" stroke="#303030" stroke-linecap="round"/>
<path d="M52.9736 3.86681C53.007 3.07354 53.0363 2.28108 53.0363 1.48706" stroke="#303030" stroke-linecap="round"/>
<path d="M55.4788 4.0547C55.5868 3.06391 55.8338 2.08462 56.0424 1.11133" stroke="#303030" stroke-linecap="round"/>
<path d="M58.3594 4.17992C58.5189 3.3597 58.7735 2.55972 58.923 1.73755" stroke="#303030" stroke-linecap="round"/>
<path d="M60.927 4.80629C61.1703 3.78907 61.5934 2.79102 61.929 1.80029" stroke="#303030" stroke-linecap="round"/>
<path d="M63.6199 5.30724C63.928 4.50126 64.3382 3.71904 64.6845 2.92749" stroke="#303030" stroke-linecap="round"/>
<path d="M66.0623 5.55771C66.2019 4.88253 66.4498 4.23424 66.5633 3.55371" stroke="#303030" stroke-linecap="round"/>
<path d="M68.1289 6.93539C68.3077 6.2917 68.5705 5.67473 68.8178 5.05664" stroke="#303030" stroke-linecap="round"/>
<path d="M69.6946 7.24863C70.2851 6.65812 70.6596 5.80597 71.135 5.11938" stroke="#303030" stroke-linecap="round"/>
<path d="M72.2622 8.56383C73.0673 8.08075 73.4845 6.97664 73.8905 6.18408" stroke="#303030" stroke-linecap="round"/>
<path d="M74.8298 9.81637C75.4507 9.22359 76.0469 8.61423 76.646 8.00024" stroke="#303030" stroke-linecap="round"/>
<path d="M77.6477 11.0688C78.1279 10.5215 78.699 10.078 79.1507 9.50317" stroke="#303030" stroke-linecap="round"/>
<path d="M79.9651 12.697C80.3212 11.92 81.0174 11.2984 81.656 10.7556" stroke="#303030" stroke-linecap="round"/>
<path d="M81.656 14.0748C82.1517 13.4282 82.8251 12.888 83.4095 12.3213" stroke="#303030" stroke-linecap="round"/>
<path d="M83.4722 15.3898C84.042 14.9415 84.4839 14.4715 84.9752 13.9495" stroke="#303030" stroke-linecap="round"/>
<path d="M99.5247 43.7313C100.402 43.6281 101.256 43.4429 102.116 43.2419" stroke="#303030" stroke-linecap="round"/>
<path d="M100.216 53.6021C101.128 53.5804 102.031 53.4916 102.942 53.5566" stroke="#303030" stroke-linecap="round"/>
</svg>
