<svg width="166" height="35" viewBox="0 0 166 35" fill="none" xmlns="http://www.w3.org/2000/svg">
<rect x="34.562" y="16.4199" width="96.9811" height="2.17566" fill="white" stroke="#303030"/>
<path d="M34.4444 20.1666C34.4444 19.1686 34.4444 18.1703 34.4444 17.1723C34.4444 16.5612 34.4444 15.9499 34.4444 15.3388C34.4444 15.2422 34.4915 14.9879 34.4444 14.9009C34.4017 14.822 34.3094 14.8558 34.1913 14.8558C33.8743 14.8558 33.5574 14.8558 33.2401 14.8558C33.083 14.8558 32.9256 14.8558 32.7685 14.8558C32.7084 14.8558 32.4921 14.8204 32.4391 14.8558C32.3307 14.9286 32.402 15.4573 32.402 15.6061C32.402 16.8982 32.402 18.1902 32.402 19.4822C32.402 19.6516 32.3468 19.9313 32.402 20.093C32.4422 20.2104 32.4695 20.1669 32.6346 20.1669C33.2379 20.1666 33.8412 20.1666 34.4444 20.1666Z" fill="white" stroke="#303030" stroke-miterlimit="10" stroke-linecap="round" stroke-linejoin="round"/>
<path d="M31.764 33.9901C32.4153 33.9674 32.401 33.3722 32.401 32.9007C32.401 32.0939 32.4014 31.287 32.4014 30.4802C32.4017 27.5023 32.4017 24.5244 32.4017 21.5466C32.4017 18.0158 32.4017 14.485 32.4017 10.9542C32.4017 8.35432 32.4017 5.75441 32.4017 3.15481C32.4017 2.67181 32.4246 2.18229 32.4017 1.6996C32.3856 1.36082 32.1814 1.08109 31.8297 1.03665C31.1942 0.956457 30.5042 1.03292 29.864 1.0326C29.4331 1.0326 28.8313 0.921024 28.6144 1.41366C28.5543 1.55041 28.5605 1.68189 28.5605 1.82548C28.5602 2.47662 28.5602 3.12808 28.5602 3.77922C28.5599 6.57401 28.5599 9.36849 28.5599 12.1633C28.5599 15.7155 28.5599 19.2677 28.5599 22.82C28.5599 25.621 28.5599 28.4223 28.5599 31.2233C28.5599 31.8716 28.5599 32.5197 28.5599 33.168C28.5599 33.3181 28.5519 33.4661 28.6141 33.6075C28.8304 34.0995 29.4228 33.9895 29.8532 33.9895C30.4899 33.9898 31.127 33.9898 31.764 33.9901Z" fill="#ECEDF1" stroke="#303030" stroke-miterlimit="10" stroke-linecap="round" stroke-linejoin="round"/>
<path d="M27.922 33.9901C28.5733 33.9674 28.5591 33.3722 28.5591 32.9007C28.5591 32.0939 28.5594 31.287 28.5594 30.4802C28.5597 27.5023 28.5597 24.5244 28.5597 21.5466C28.5597 18.0158 28.5597 14.485 28.5597 10.9542C28.5597 8.35432 28.5597 5.75441 28.5597 3.15481C28.5597 2.67181 28.5826 2.18229 28.5597 1.6996C28.5436 1.36082 28.3394 1.08109 27.9877 1.03665C27.3522 0.956457 26.6622 1.03292 26.0221 1.0326C25.5911 1.0326 24.9894 0.921024 24.7725 1.41366C24.7124 1.55041 24.7186 1.68189 24.7182 1.82548C24.7179 2.47662 24.7179 3.12808 24.7179 3.77922C24.7176 6.57401 24.7176 9.36849 24.7176 12.1633C24.7176 15.7155 24.7176 19.2677 24.7176 22.82C24.7176 25.621 24.7176 28.4223 24.7176 31.2233C24.7176 31.8716 24.7176 32.5197 24.7176 33.168C24.7176 33.3181 24.7096 33.4661 24.7718 33.6075C24.9881 34.0995 25.5805 33.9895 26.0109 33.9895C26.6483 33.9898 27.2853 33.9898 27.922 33.9901Z" fill="#ECEDF1" stroke="#303030" stroke-miterlimit="10" stroke-linecap="round" stroke-linejoin="round"/>
<path d="M24.0804 33.9901C24.7317 33.9674 24.7175 33.3722 24.7175 32.9007C24.7175 32.0939 24.7178 31.287 24.7178 30.4802C24.7181 27.5023 24.7181 24.5244 24.7181 21.5466C24.7181 18.0158 24.7181 14.485 24.7181 10.9542C24.7181 8.35432 24.7181 5.75441 24.7181 3.15481C24.7181 2.67181 24.741 2.18229 24.7181 1.6996C24.702 1.36082 24.4978 1.08109 24.1461 1.03665C23.5106 0.956457 22.8206 1.03292 22.1804 1.0326C21.7495 1.0326 21.1477 0.921024 20.9308 1.41366C20.8707 1.55041 20.8769 1.68189 20.8769 1.82548C20.8766 2.47662 20.8766 3.12808 20.8766 3.77922C20.8763 6.57401 20.8763 9.36849 20.8763 12.1633C20.8763 15.7155 20.8763 19.2677 20.8763 22.82C20.8763 25.621 20.8763 28.4223 20.8763 31.2233C20.8763 31.8716 20.8763 32.5197 20.8763 33.168C20.8763 33.3181 20.8683 33.4661 20.9305 33.6075C21.1468 34.0995 21.7392 33.9895 22.1696 33.9895C22.8066 33.9898 23.4434 33.9898 24.0804 33.9901Z" fill="#ECEDF1" stroke="#303030" stroke-miterlimit="10" stroke-linecap="round" stroke-linejoin="round"/>
<path d="M20.8764 20.9283C20.8764 19.7581 20.8764 18.5879 20.8764 17.4181C20.8764 16.6317 20.8764 15.8454 20.8764 15.059C20.8764 14.9114 20.9656 14.176 20.8553 14.094C20.8058 14.057 20.5966 14.094 20.534 14.094C20.3283 14.094 20.1222 14.094 19.9165 14.094C19.7201 14.094 19.5239 14.094 19.3275 14.094C19.2163 14.094 18.9922 14.0473 18.8912 14.094C18.8076 14.1325 18.8339 14.1487 18.8339 14.2742C18.8339 14.5064 18.8339 14.7386 18.8339 14.9708C18.8339 16.5571 18.8339 18.1432 18.8339 19.7295C18.8339 20.0279 18.8339 20.326 18.8339 20.6244C18.8339 20.6918 18.8051 20.891 18.8494 20.9283C18.8968 20.9684 19.167 20.9283 19.2246 20.9283C19.4552 20.9283 19.6857 20.9283 19.9165 20.9283C20.2363 20.9283 20.5563 20.9283 20.8764 20.9283Z" fill="white" stroke="#303030" stroke-miterlimit="10" stroke-linecap="round" stroke-linejoin="round"/>
<path d="M18.8337 20.9283C18.8337 19.5934 18.8337 18.2585 18.8337 16.9236C18.8337 16.1434 18.8337 15.3633 18.8337 14.5832C18.8337 14.5048 18.887 14.1648 18.8337 14.1058C18.7773 14.0436 18.4037 14.094 18.3178 14.094C17.8741 14.094 17.4305 14.094 16.9868 14.094C16.7931 14.094 16.5998 14.094 16.4061 14.094C16.3225 14.094 16.1068 14.0523 16.0337 14.094C15.8884 14.1766 15.9832 14.916 15.9832 15.1041C15.9832 16.8086 15.9832 18.513 15.9832 20.2175C15.9832 20.3658 15.9079 20.7568 15.9832 20.887C16.0377 20.9812 16.3234 20.9283 16.4517 20.9283C17.2458 20.9283 18.0396 20.9283 18.8337 20.9283Z" fill="white" stroke="#303030" stroke-miterlimit="10" stroke-linecap="round" stroke-linejoin="round"/>
<path d="M15.9832 23.2887C15.9832 21.6721 15.9832 20.0559 15.9832 18.4394C15.9832 16.3281 15.9832 14.2171 15.9832 12.1058C15.9832 12.0477 16.0216 11.7754 15.9801 11.7337C15.9153 11.6682 15.44 11.7337 15.3499 11.7337C15.0676 11.7337 14.7853 11.7337 14.5034 11.7337C14.2985 11.7337 14.3525 11.7713 14.3525 11.9659C14.3525 12.2721 14.3525 12.5782 14.3525 12.8843C14.3525 15.2229 14.3525 17.5611 14.3525 19.8996C14.3525 20.8392 14.3525 21.7791 14.3525 22.7186C14.3525 22.8147 14.2911 23.1911 14.3525 23.2703C14.3838 23.3104 14.5003 23.289 14.5632 23.289C14.855 23.289 15.1466 23.289 15.4385 23.289C15.6197 23.2887 15.8016 23.2887 15.9832 23.2887Z" fill="white" stroke="#303030" stroke-miterlimit="10" stroke-linecap="round" stroke-linejoin="round"/>
<path d="M14.3522 19.1275C14.3522 18.5889 14.3522 18.05 14.3522 17.5113C14.3522 17.1449 14.3522 16.7781 14.3522 16.4117C14.3522 16.334 14.4077 15.952 14.3522 15.8951C14.2974 15.8389 13.8909 15.8951 13.8165 15.8951C13.3434 15.8951 12.8703 15.8951 12.3974 15.8951C9.41891 15.8951 6.44007 15.8951 3.46154 15.8951C2.92799 15.8951 2.39444 15.8951 1.8612 15.8951C1.68676 15.8951 1.51201 15.8951 1.33756 15.8951C1.28365 15.8951 1.11448 15.8647 1.06862 15.8951C0.937556 15.9825 1.03454 16.7629 1.03454 16.9394C1.03454 17.6201 1.01099 18.3051 1.03454 18.9852C1.04197 19.199 1.12656 19.1275 1.33725 19.1275C1.74377 19.1275 2.15029 19.1275 2.5568 19.1275C3.97093 19.1275 5.38506 19.1275 6.79918 19.1275C9.27267 19.1275 11.7461 19.1275 14.2196 19.1275C14.2636 19.1275 14.3079 19.1275 14.3522 19.1275Z" fill="white" stroke="#303030" stroke-miterlimit="10" stroke-linecap="round" stroke-linejoin="round"/>
<path d="M151.648 19.1275C151.648 18.5889 151.648 18.05 151.648 17.5113C151.648 17.1449 151.648 16.7781 151.648 16.4117C151.648 16.334 151.592 15.952 151.648 15.8951C151.703 15.8389 152.109 15.8951 152.183 15.8951C152.657 15.8951 153.13 15.8951 153.603 15.8951C156.581 15.8951 159.56 15.8951 162.538 15.8951C163.072 15.8951 163.606 15.8951 164.139 15.8951C164.313 15.8951 164.488 15.8951 164.662 15.8951C164.716 15.8951 164.885 15.8647 164.931 15.8951C165.062 15.9825 164.965 16.7629 164.965 16.9394C164.965 17.6201 164.989 18.3051 164.965 18.9852C164.958 19.199 164.873 19.1275 164.663 19.1275C164.256 19.1275 163.85 19.1275 163.443 19.1275C162.029 19.1275 160.615 19.1275 159.201 19.1275C156.727 19.1275 154.254 19.1275 151.78 19.1275C151.736 19.1275 151.692 19.1275 151.648 19.1275Z" fill="white" stroke="#303030" stroke-miterlimit="10" stroke-linecap="round" stroke-linejoin="round"/>
<path d="M150.017 23.2887C150.017 21.6721 150.017 20.0559 150.017 18.4394C150.017 16.3281 150.017 14.2171 150.017 12.1058C150.017 12.0477 149.979 11.7754 150.02 11.7337C150.085 11.6682 150.56 11.7337 150.65 11.7337C150.933 11.7337 151.215 11.7337 151.497 11.7337C151.702 11.7337 151.648 11.7713 151.648 11.9659C151.648 12.2721 151.648 12.5782 151.648 12.8843C151.648 15.2229 151.648 17.5611 151.648 19.8996C151.648 20.8392 151.648 21.7791 151.648 22.7186C151.648 22.8147 151.709 23.1911 151.648 23.2703C151.617 23.3104 151.5 23.289 151.437 23.289C151.145 23.289 150.854 23.289 150.562 23.289C150.38 23.2887 150.199 23.2887 150.017 23.2887Z" fill="white" stroke="#303030" stroke-miterlimit="10" stroke-linecap="round" stroke-linejoin="round"/>
<path d="M147.167 20.9283C147.167 19.5934 147.167 18.2585 147.167 16.9236C147.167 16.1434 147.167 15.3633 147.167 14.5832C147.167 14.5048 147.113 14.1648 147.167 14.1058C147.223 14.0436 147.597 14.094 147.683 14.094C148.126 14.094 148.57 14.094 149.014 14.094C149.207 14.094 149.401 14.094 149.594 14.094C149.678 14.094 149.894 14.0523 149.967 14.094C150.112 14.1766 150.017 14.916 150.017 15.1041C150.017 16.8086 150.017 18.513 150.017 20.2175C150.017 20.3658 150.093 20.7568 150.017 20.887C149.963 20.9812 149.677 20.9283 149.549 20.9283C148.755 20.9283 147.961 20.9283 147.167 20.9283Z" fill="white" stroke="#303030" stroke-miterlimit="10" stroke-linecap="round" stroke-linejoin="round"/>
<path d="M145.124 20.9283C145.124 19.7581 145.124 18.5879 145.124 17.4181C145.124 16.6317 145.124 15.8454 145.124 15.059C145.124 14.9114 145.035 14.176 145.145 14.094C145.195 14.057 145.404 14.094 145.466 14.094C145.672 14.094 145.878 14.094 146.084 14.094C146.28 14.094 146.476 14.094 146.673 14.094C146.784 14.094 147.008 14.0473 147.109 14.094C147.193 14.1325 147.166 14.1487 147.166 14.2742C147.166 14.5064 147.166 14.7386 147.166 14.9708C147.166 16.5571 147.166 18.1432 147.166 19.7295C147.166 20.0279 147.166 20.326 147.166 20.6244C147.166 20.6918 147.195 20.891 147.151 20.9283C147.104 20.9684 146.833 20.9283 146.776 20.9283C146.545 20.9283 146.315 20.9283 146.084 20.9283C145.764 20.9283 145.444 20.9283 145.124 20.9283Z" fill="white" stroke="#303030" stroke-miterlimit="10" stroke-linecap="round" stroke-linejoin="round"/>
<path d="M141.92 33.9901C141.269 33.9674 141.283 33.3722 141.283 32.9007C141.283 32.0939 141.283 31.287 141.283 30.4802C141.282 27.5023 141.282 24.5244 141.282 21.5466C141.282 18.0158 141.282 14.485 141.282 10.9542C141.282 8.35432 141.282 5.75441 141.282 3.15481C141.282 2.67181 141.259 2.18229 141.282 1.6996C141.299 1.36082 141.503 1.08109 141.854 1.03665C142.49 0.956457 143.18 1.03292 143.82 1.0326C144.251 1.0326 144.853 0.921024 145.07 1.41366C145.13 1.55041 145.124 1.68189 145.124 1.82548C145.124 2.47662 145.124 3.12808 145.124 3.77922C145.124 6.57401 145.124 9.36849 145.124 12.1633C145.124 15.7155 145.124 19.2677 145.124 22.82C145.124 25.621 145.124 28.4223 145.124 31.2233C145.124 31.8716 145.124 32.5197 145.124 33.168C145.124 33.3181 145.132 33.4661 145.07 33.6075C144.854 34.0995 144.261 33.9895 143.831 33.9895C143.194 33.9898 142.557 33.9898 141.92 33.9901Z" fill="#ECEDF1" stroke="#303030" stroke-miterlimit="10" stroke-linecap="round" stroke-linejoin="round"/>
<path d="M138.078 33.9901C137.427 33.9674 137.441 33.3722 137.441 32.9007C137.441 32.0939 137.44 31.287 137.44 30.4802C137.44 27.5023 137.44 24.5244 137.44 21.5466C137.44 18.0158 137.44 14.485 137.44 10.9542C137.44 8.35432 137.44 5.75441 137.44 3.15481C137.44 2.67181 137.417 2.18229 137.44 1.6996C137.456 1.36082 137.66 1.08109 138.012 1.03665C138.648 0.956457 139.338 1.03292 139.978 1.0326C140.409 1.0326 141.01 0.921024 141.227 1.41366C141.287 1.55041 141.281 1.68189 141.281 1.82548C141.282 2.47662 141.282 3.12808 141.282 3.77922C141.282 6.57401 141.282 9.36849 141.282 12.1633C141.282 15.7155 141.282 19.2677 141.282 22.82C141.282 25.621 141.282 28.4223 141.282 31.2233C141.282 31.8716 141.282 32.5197 141.282 33.168C141.282 33.3181 141.29 33.4661 141.228 33.6075C141.011 34.0995 140.419 33.9895 139.989 33.9895C139.352 33.9898 138.715 33.9898 138.078 33.9901Z" fill="#ECEDF1" stroke="#303030" stroke-miterlimit="10" stroke-linecap="round" stroke-linejoin="round"/>
<path d="M134.236 33.9901C133.585 33.9674 133.599 33.3722 133.599 32.9007C133.599 32.0939 133.599 31.287 133.599 30.4802C133.598 27.5023 133.598 24.5244 133.598 21.5466C133.598 18.0158 133.598 14.485 133.598 10.9542C133.598 8.35432 133.598 5.75441 133.598 3.15481C133.598 2.67181 133.575 2.18229 133.598 1.6996C133.614 1.36082 133.819 1.08109 134.17 1.03665C134.806 0.956457 135.496 1.03292 136.136 1.0326C136.567 1.0326 137.169 0.921024 137.386 1.41366C137.446 1.55041 137.439 1.68189 137.439 1.82548C137.44 2.47662 137.44 3.12808 137.44 3.77922C137.44 6.57401 137.44 9.36849 137.44 12.1633C137.44 15.7155 137.44 19.2677 137.44 22.82C137.44 25.621 137.44 28.4223 137.44 31.2233C137.44 31.8716 137.44 32.5197 137.44 33.168C137.44 33.3181 137.448 33.4661 137.386 33.6075C137.17 34.0995 136.577 33.9895 136.147 33.9895C135.51 33.9898 134.873 33.9898 134.236 33.9901Z" fill="#ECEDF1" stroke="#303030" stroke-miterlimit="10" stroke-linecap="round" stroke-linejoin="round"/>
<path d="M131.556 20.1666C131.556 19.1686 131.556 18.1703 131.556 17.1723C131.556 16.5612 131.556 15.9499 131.556 15.3388C131.556 15.2422 131.509 14.9879 131.556 14.9009C131.599 14.822 131.691 14.8558 131.809 14.8558C132.126 14.8558 132.443 14.8558 132.76 14.8558C132.918 14.8558 133.075 14.8558 133.232 14.8558C133.292 14.8558 133.508 14.8204 133.561 14.8558C133.67 14.9286 133.599 15.4573 133.599 15.6061C133.599 16.8982 133.599 18.1902 133.599 19.4822C133.599 19.6516 133.654 19.9313 133.599 20.093C133.558 20.2104 133.531 20.1669 133.366 20.1669C132.763 20.1666 132.159 20.1666 131.556 20.1666Z" fill="white" stroke="#303030" stroke-miterlimit="10" stroke-linecap="round" stroke-linejoin="round"/>
</svg>
