<svg width="72" height="62" viewBox="0 0 72 62" fill="none" xmlns="http://www.w3.org/2000/svg">
<path d="M61.5 32H10.5V61H61.5V32Z" fill="#ECEDF1" stroke="#303030" stroke-miterlimit="10" stroke-linecap="round" stroke-linejoin="round"/>
<path d="M68.5 6H3.5V35H68.5V6Z" fill="white" stroke="#303030" stroke-miterlimit="10" stroke-linecap="round" stroke-linejoin="round"/>
<path d="M62.2588 31.8206H10.1274" stroke="#303030" stroke-miterlimit="10" stroke-linecap="round" stroke-linejoin="round"/>
<path d="M62.2588 28.0488H10.1274" stroke="#303030" stroke-miterlimit="10" stroke-linecap="round" stroke-linejoin="round"/>
<path d="M62.2588 24.2769H10.1274" stroke="#303030" stroke-miterlimit="10" stroke-linecap="round" stroke-linejoin="round"/>
<path d="M62.2588 20.5051H10.1274" stroke="#303030" stroke-miterlimit="10" stroke-linecap="round" stroke-linejoin="round"/>
<path d="M62.2588 16.7332H10.1274" stroke="#303030" stroke-miterlimit="10" stroke-linecap="round" stroke-linejoin="round"/>
<path d="M62.2588 12.9614H10.1274" stroke="#303030" stroke-miterlimit="10" stroke-linecap="round" stroke-linejoin="round"/>
<path d="M62.2588 9.18921H10.1274" stroke="#303030" stroke-miterlimit="10" stroke-linecap="round" stroke-linejoin="round"/>
<path d="M68.7751 5.41748H62.2588V35H68.7751V5.41748Z" fill="white" stroke="#303030" stroke-miterlimit="10" stroke-linecap="round" stroke-linejoin="round"/>
<path d="M10.1264 5.41748H3.61011V35H10.1264V5.41748Z" fill="white" stroke="#303030" stroke-miterlimit="10" stroke-linecap="round" stroke-linejoin="round"/>
<path d="M8.5 59.5V27.5C8.5 26.6716 7.82843 26 7 26C6.17157 26 5.5 26.6716 5.5 27.5V59.5C5.5 60.3284 6.17157 61 7 61C7.82843 61 8.5 60.3284 8.5 59.5Z" fill="white" stroke="#303030" stroke-miterlimit="10" stroke-linecap="round" stroke-linejoin="round"/>
<path d="M67.0168 59.5V27.5C67.0168 26.6716 66.3453 26 65.5168 26C64.6884 26 64.0168 26.6716 64.0168 27.5V59.5C64.0168 60.3284 64.6884 61 65.5168 61C66.3453 61 67.0168 60.3284 67.0168 59.5Z" fill="white" stroke="#303030" stroke-miterlimit="10" stroke-linecap="round" stroke-linejoin="round"/>
<path d="M67.0168 38.4739V22.0051C67.0168 21.1767 66.3453 20.5051 65.5168 20.5051C64.6884 20.5051 64.0168 21.1767 64.0168 22.0051V38.4739C64.0168 39.3023 64.6884 39.9739 65.5168 39.9739C66.3453 39.9739 67.0168 39.3023 67.0168 38.4739Z" fill="white" stroke="#303030" stroke-miterlimit="10" stroke-linecap="round" stroke-linejoin="round"/>
<path d="M8.5 38.4739V22.0051C8.5 21.1767 7.82843 20.5051 7 20.5051C6.17157 20.5051 5.5 21.1767 5.5 22.0051V38.4739C5.5 39.3023 6.17157 39.9739 7 39.9739C7.82843 39.9739 8.5 39.3023 8.5 38.4739Z" fill="white" stroke="#303030" stroke-miterlimit="10" stroke-linecap="round" stroke-linejoin="round"/>
<path d="M70.5 1H1.5V6H70.5V1Z" fill="white" stroke="#303030" stroke-miterlimit="10" stroke-linecap="round" stroke-linejoin="round"/>
<path d="M24.5013 26C25.2314 26.0064 26.1723 25.9953 26.7315 26.789C27.4114 27.7545 27.4275 29.3691 27.4627 30.6424C27.5176 32.6217 27.4975 34.6087 27.4909 36.589C27.4882 37.4477 27.4753 38.3091 27.4287 39.1655C27.389 39.8978 27.3376 40.6837 27.1008 41.3486C26.6942 42.4908 25.7501 42.8987 24.9175 42.977C23.9888 43.0642 22.9052 42.9408 22.208 41.9508C21.9192 41.5406 21.7726 41.0004 21.6899 40.4396C21.5603 39.5613 21.5429 38.6464 21.5249 37.752C21.4861 35.8406 21.5005 33.9217 21.5159 32.0096C21.5232 31.1083 21.536 30.2022 21.6048 29.3056C21.6565 28.6326 21.7421 27.9377 21.9804 27.3427C22.339 26.4473 22.9437 26.1613 23.6373 26.0567C23.9245 26.0131 24.2129 26.0025 24.5013 26Z" fill="white" stroke="#303030" stroke-miterlimit="10" stroke-linecap="round" stroke-linejoin="round"/>
<path d="M46.5013 26C47.2314 26.0064 48.1723 25.9953 48.7315 26.789C49.4114 27.7545 49.4275 29.3691 49.4627 30.6424C49.5176 32.6217 49.4975 34.6087 49.4909 36.589C49.4882 37.4477 49.4753 38.3091 49.4287 39.1655C49.389 39.8978 49.3376 40.6837 49.1008 41.3486C48.6942 42.4908 47.7501 42.8987 46.9175 42.977C45.9888 43.0642 44.9052 42.9408 44.208 41.9508C43.9192 41.5406 43.7726 41.0004 43.6899 40.4396C43.5603 39.5613 43.5429 38.6464 43.5249 37.752C43.4861 35.8406 43.5005 33.9217 43.5159 32.0096C43.5232 31.1083 43.536 30.2022 43.6048 29.3056C43.6565 28.6326 43.7421 27.9377 43.9804 27.3427C44.339 26.4473 44.9437 26.1613 45.6373 26.0567C45.9245 26.0131 46.2129 26.0025 46.5013 26Z" fill="white" stroke="#303030" stroke-miterlimit="10" stroke-linecap="round" stroke-linejoin="round"/>
<path d="M24.4961 35L24.4961 6" stroke="#303030" stroke-linecap="round"/>
<path d="M46.5 35L46.5 6" stroke="#303030" stroke-linecap="round"/>
</svg>
