<svg width="112" height="64" viewBox="0 0 112 64" fill="none" xmlns="http://www.w3.org/2000/svg">
<path d="M110.038 0.699951H1.96191V53.2H110.038V0.699951Z" fill="white" stroke="#303030" stroke-miterlimit="10" stroke-linecap="round" stroke-linejoin="round"/>
<path d="M106.5 3H5.5V50H106.5V3Z" fill="#ECEDF1" stroke="#303030" stroke-miterlimit="10" stroke-linecap="round" stroke-linejoin="round"/>
<path d="M100.667 28.4744C93.7975 25.8847 88.4344 27.7123 84.5756 33.9578" stroke="#303030" stroke-linecap="round" stroke-linejoin="round"/>
<path d="M85.673 32.5275L90.3078 39.928L90.0063 42.1437L87.7907 41.8422L86.8547 43.7459L90.6726 47.199C95.3842 45.3631 95.3318 42.3013 95.3631 39.2618L101.042 37.3265C101.796 37.0698 102.416 36.5245 102.767 35.8105C103.118 35.0965 103.171 34.2723 102.914 33.5191" fill="white"/>
<path d="M85.673 32.5275L90.3078 39.928L90.0063 42.1437L87.7907 41.8422L86.8547 43.7459L90.6726 47.199C95.3842 45.3631 95.3318 42.3013 95.3631 39.2618L101.042 37.3265C101.796 37.0698 102.416 36.5245 102.767 35.8105C103.118 35.0965 103.171 34.2723 102.914 33.5191" stroke="#303030" stroke-linecap="round" stroke-linejoin="round"/>
<path d="M98.9247 28.0117L100.096 37.649" stroke="#303030" stroke-linecap="round" stroke-linejoin="round"/>
<path d="M95.6011 27.5595L95.3208 32.9373L91.5346 34.2276L88.0287 30.1399" stroke="#303030" stroke-linecap="round" stroke-linejoin="round"/>
<circle cx="62.5377" cy="35.7265" r="15.8815" fill="white" stroke="#303030"/>
<path d="M75.0876 44.353C70.01 49.4306 61.1228 48.9253 55.2313 43.0338C49.3398 37.1424 48.8345 28.2551 53.9121 23.1776C58.9897 18.1 67.8769 18.6052 73.7684 24.4967C79.6599 30.3882 80.1651 39.2754 75.0876 44.353Z" fill="white" stroke="#303030"/>
<path d="M69.9376 39.2031C67.3338 41.8069 64.3576 43.5111 61.6704 44.1789C58.9722 44.8494 56.6578 44.4604 55.2309 43.0335C53.804 41.6065 53.415 39.2922 54.0855 36.594C54.7533 33.9068 56.4575 30.9305 59.0613 28.3267C61.6651 25.7229 64.6413 24.0187 67.3285 23.3509C70.0267 22.6804 72.3411 23.0694 73.768 24.4964C75.1949 25.9233 75.584 28.2376 74.9134 30.9358C74.2457 33.6231 72.5414 36.5993 69.9376 39.2031Z" fill="white" stroke="#303030"/>
<path d="M67.3157 50.7429C59.8075 52.108 56.8487 44.1458 55.4256 42.7912C51.6168 42.7912 46.1563 39.8219 46.8388 35.044" stroke="#303030"/>
<path d="M58.0595 45.7841C57.6382 46.2721 56.9651 46.5147 56.1619 46.4555C55.3587 46.3962 54.4609 46.0331 53.678 45.3571C52.8951 44.6811 52.405 43.8459 52.2293 43.0599C52.0536 42.2739 52.1956 41.5726 52.6169 41.0847C53.0382 40.5968 53.7113 40.3541 54.5145 40.4133C55.3176 40.4726 56.2154 40.8357 56.9983 41.5117C57.7812 42.1877 58.2713 43.023 58.4471 43.8089C58.6228 44.5949 58.4808 45.2962 58.0595 45.7841Z" fill="white" stroke="#303030"/>
<mask id="path-13-inside-1_570_16715" fill="white">
<path fill-rule="evenodd" clip-rule="evenodd" d="M22.6192 49.1267C25.0308 50.4584 27.8143 50.558 30.3267 49.6409C30.6173 53.4227 32.392 57.6838 33.4973 59.0649C35.5211 61.5938 38.7394 62.3814 40.6854 60.824C42.6315 59.2666 42.5685 55.954 40.5447 53.4251C39.8348 52.5381 39.2308 50.9302 38.5971 49.2432C37.9158 47.4293 37.2001 45.524 36.2815 44.3252C37.14 42.858 38.4636 41.209 39.7988 39.5456C43.0681 35.4727 46.4073 31.3127 43.1603 29.5196C38.5023 26.9473 20.9619 27.2907 18.1624 32.3602C17.3482 33.8346 16.9906 35.652 17.0074 37.5514C16.2709 37.5147 15.509 37.5027 14.7616 37.491C12.9598 37.4627 11.2424 37.4358 10.1681 37.0663C7.10518 36.0127 3.96502 37.0694 3.15431 39.4264C2.3436 41.7834 4.16935 44.5482 7.23223 45.6017C9.16796 46.2675 15.0367 46.4781 18.8131 44.845C19.7805 46.7288 21.0887 48.2814 22.6192 49.1267Z"/>
</mask>
<path fill-rule="evenodd" clip-rule="evenodd" d="M22.6192 49.1267C25.0308 50.4584 27.8143 50.558 30.3267 49.6409C30.6173 53.4227 32.392 57.6838 33.4973 59.0649C35.5211 61.5938 38.7394 62.3814 40.6854 60.824C42.6315 59.2666 42.5685 55.954 40.5447 53.4251C39.8348 52.5381 39.2308 50.9302 38.5971 49.2432C37.9158 47.4293 37.2001 45.524 36.2815 44.3252C37.14 42.858 38.4636 41.209 39.7988 39.5456C43.0681 35.4727 46.4073 31.3127 43.1603 29.5196C38.5023 26.9473 20.9619 27.2907 18.1624 32.3602C17.3482 33.8346 16.9906 35.652 17.0074 37.5514C16.2709 37.5147 15.509 37.5027 14.7616 37.491C12.9598 37.4627 11.2424 37.4358 10.1681 37.0663C7.10518 36.0127 3.96502 37.0694 3.15431 39.4264C2.3436 41.7834 4.16935 44.5482 7.23223 45.6017C9.16796 46.2675 15.0367 46.4781 18.8131 44.845C19.7805 46.7288 21.0887 48.2814 22.6192 49.1267Z" fill="white"/>
<path d="M30.3267 49.6409L31.3238 49.5643L31.2228 48.2492L29.9838 48.7015L30.3267 49.6409ZM22.6192 49.1267L23.1026 48.2513L22.6192 49.1267ZM33.4973 59.0649L32.7166 59.6898H32.7166L33.4973 59.0649ZM40.6854 60.824L41.3103 61.6048H41.3103L40.6854 60.824ZM40.5447 53.4251L41.3254 52.8003V52.8003L40.5447 53.4251ZM38.5971 49.2432L37.661 49.5948L38.5971 49.2432ZM36.2815 44.3252L35.4184 43.8202L35.0791 44.4001L35.4877 44.9334L36.2815 44.3252ZM39.7988 39.5456L40.5786 40.1716L39.7988 39.5456ZM43.1603 29.5196L42.6769 30.395L43.1603 29.5196ZM18.1624 32.3602L17.287 31.8768V31.8768L18.1624 32.3602ZM17.0074 37.5514L16.9576 38.5502L18.0168 38.603L18.0074 37.5426L17.0074 37.5514ZM14.7616 37.491L14.7773 36.4911L14.7616 37.491ZM10.1681 37.0663L9.84281 38.0119L10.1681 37.0663ZM3.15431 39.4264L4.09993 39.7517L4.09993 39.7517L3.15431 39.4264ZM7.23223 45.6017L6.90698 46.5473L7.23223 45.6017ZM18.8131 44.845L19.7027 44.3882L19.2752 43.5557L18.4162 43.9271L18.8131 44.845ZM29.9838 48.7015C27.7167 49.5291 25.2374 49.4301 23.1026 48.2513L22.1358 50.002C24.8243 51.4867 27.9119 51.5869 30.6697 50.5802L29.9838 48.7015ZM34.2781 58.4401C33.8281 57.8778 33.1527 56.5894 32.547 54.9133C31.9498 53.2608 31.4603 51.3408 31.3238 49.5643L29.3297 49.7175C29.4837 51.7228 30.0268 53.8243 30.666 55.593C31.2966 57.3382 32.0612 58.8709 32.7166 59.6898L34.2781 58.4401ZM40.0606 60.0432C38.7236 61.1132 36.1189 60.7403 34.2781 58.4401L32.7166 59.6898C34.9234 62.4474 38.7552 63.6495 41.3103 61.6048L40.0606 60.0432ZM39.7639 54.0499C41.6047 56.3501 41.3977 58.9732 40.0606 60.0432L41.3103 61.6048C43.8653 59.56 43.5323 55.5579 41.3254 52.8003L39.7639 54.0499ZM37.661 49.5948C37.9754 50.4318 38.2949 51.2832 38.6272 52.0374C38.9552 52.7817 39.3256 53.5022 39.7639 54.0499L41.3254 52.8003C41.0539 52.461 40.7673 51.9341 40.4574 51.2309C40.1519 50.5376 39.8526 49.7416 39.5333 48.8916L37.661 49.5948ZM35.4877 44.9334C36.2957 45.9878 36.9598 47.7282 37.661 49.5948L39.5333 48.8916C38.8717 47.1304 38.1045 45.0602 37.0753 43.717L35.4877 44.9334ZM39.0189 38.9196C37.6989 40.5641 36.3221 42.2757 35.4184 43.8202L37.1446 44.8302C37.9579 43.4402 39.2282 41.8539 40.5786 40.1716L39.0189 38.9196ZM42.6769 30.395C43.2508 30.7119 43.4276 31.0522 43.4731 31.3998C43.5289 31.8252 43.406 32.4311 43.0189 33.2506C42.2433 34.8927 40.682 36.8478 39.0189 38.9196L40.5786 40.1716C42.1849 38.1705 43.9278 36.0091 44.8274 34.1048C45.2779 33.151 45.5854 32.1261 45.4562 31.14C45.3168 30.076 44.6934 29.2239 43.6438 28.6442L42.6769 30.395ZM19.0378 32.8436C19.5463 31.9228 20.8506 31.0525 22.9111 30.3645C24.9182 29.6942 27.4309 29.2667 30.0391 29.0715C32.642 28.8766 35.298 28.9163 37.5768 29.1597C39.8921 29.4071 41.695 29.8528 42.6769 30.395L43.6438 28.6442C42.2967 27.9003 40.1603 27.4243 37.7892 27.171C35.3816 26.9138 32.6042 26.8739 29.8898 27.077C27.1807 27.2798 24.4923 27.7279 22.2776 28.4674C20.1163 29.1892 18.1783 30.2629 17.287 31.8768L19.0378 32.8436ZM18.0074 37.5426C17.9916 35.7633 18.3287 34.1277 19.0378 32.8436L17.287 31.8768C16.3677 33.5415 15.9896 35.5407 16.0075 37.5603L18.0074 37.5426ZM17.0572 36.5527C16.3007 36.5149 15.5215 36.5028 14.7773 36.4911L14.7459 38.4909C15.4965 38.5027 16.2411 38.5145 16.9576 38.5502L17.0572 36.5527ZM14.7773 36.4911C13.8694 36.4769 13.0191 36.4632 12.2634 36.4091C11.4969 36.3543 10.9043 36.262 10.4933 36.1206L9.84281 38.0119C10.5062 38.2401 11.3094 38.346 12.1206 38.404C12.9427 38.4629 13.852 38.4769 14.7459 38.4909L14.7773 36.4911ZM10.4933 36.1206C7.1534 34.9718 3.2731 36.0066 2.20868 39.1012L4.09993 39.7517C4.65693 38.1323 7.05696 37.0537 9.84281 38.0119L10.4933 36.1206ZM2.20868 39.1012C1.14427 42.1958 3.56706 45.3985 6.90698 46.5473L7.55749 44.656C4.77164 43.6978 3.54293 41.3711 4.09993 39.7517L2.20868 39.1012ZM6.90698 46.5473C8.04537 46.9389 10.1394 47.1545 12.3637 47.0849C14.6074 47.0147 17.1595 46.6496 19.21 45.7628L18.4162 43.9271C16.6903 44.6735 14.4198 45.0196 12.3011 45.0859C10.163 45.1528 8.35483 44.9303 7.55749 44.656L6.90698 46.5473ZM23.1026 48.2513C21.8027 47.5334 20.6142 46.1631 19.7027 44.3882L17.9236 45.3018C18.9468 47.2945 20.3747 49.0295 22.1358 50.002L23.1026 48.2513Z" fill="#303030" mask="url(#path-13-inside-1_570_16715)"/>
<path d="M35.477 39.0466C33.5589 42.52 29.4607 43.8471 26.3558 42.1324C24.8312 41.2905 23.5712 39.3161 22.9493 37.0338C22.3288 34.7565 22.3865 32.3277 23.317 30.6427C23.7293 29.8961 24.7475 29.2415 26.2544 28.7383C27.7346 28.244 29.5782 27.9314 31.4826 27.7888C33.3844 27.6465 35.3258 27.6753 36.9943 27.8535C38.6811 28.0337 40.0273 28.3606 40.7812 28.777C41.1269 28.9678 41.3071 29.18 41.3979 29.3919C41.4906 29.6081 41.5136 29.879 41.4461 30.2243C41.3065 30.9377 40.8101 31.8278 40.0904 32.8454C39.5303 33.6373 38.8682 34.4622 38.1987 35.2962C38.0171 35.5224 37.835 35.7493 37.6543 35.9764C36.818 37.0269 36.008 38.085 35.477 39.0466Z" fill="white" stroke="#303030"/>
<mask id="path-16-inside-2_570_16715" fill="white">
<path fill-rule="evenodd" clip-rule="evenodd" d="M21.8742 59.7149C21.3261 59.6746 20.7724 59.5806 20.2202 59.4292C19.2683 59.1681 18.3996 58.7581 17.6353 58.2336C16.4963 59.39 14.7232 59.9043 12.9755 59.4251C10.4588 58.7349 8.94777 56.2456 9.60059 53.865C10.1561 51.8393 12.0992 50.5451 14.2168 50.6294C14.2591 50.3609 14.3167 50.0922 14.3902 49.8243C15.5179 45.7119 19.9565 43.3447 24.3041 44.5369C28.6516 45.7291 31.2618 50.0293 30.1341 54.1417C29.9638 54.7627 29.718 55.3439 29.4084 55.8791C30.8726 56.9809 31.6054 58.8327 31.1145 60.6231C30.4617 63.0037 27.8922 64.3741 25.3755 63.6839C23.4212 63.148 22.0734 61.5272 21.8742 59.7149Z"/>
</mask>
<path fill-rule="evenodd" clip-rule="evenodd" d="M21.8742 59.7149C21.3261 59.6746 20.7724 59.5806 20.2202 59.4292C19.2683 59.1681 18.3996 58.7581 17.6353 58.2336C16.4963 59.39 14.7232 59.9043 12.9755 59.4251C10.4588 58.7349 8.94777 56.2456 9.60059 53.865C10.1561 51.8393 12.0992 50.5451 14.2168 50.6294C14.2591 50.3609 14.3167 50.0922 14.3902 49.8243C15.5179 45.7119 19.9565 43.3447 24.3041 44.5369C28.6516 45.7291 31.2618 50.0293 30.1341 54.1417C29.9638 54.7627 29.718 55.3439 29.4084 55.8791C30.8726 56.9809 31.6054 58.8327 31.1145 60.6231C30.4617 63.0037 27.8922 64.3741 25.3755 63.6839C23.4212 63.148 22.0734 61.5272 21.8742 59.7149Z" fill="white"/>
<path d="M20.2202 59.4292L20.4847 58.4648L20.4847 58.4648L20.2202 59.4292ZM21.8742 59.7149L22.8682 59.6057L22.7773 58.7786L21.9475 58.7176L21.8742 59.7149ZM17.6353 58.2336L18.2011 57.4091L17.5106 56.9353L16.9229 57.5319L17.6353 58.2336ZM12.9755 59.4251L12.711 60.3895L12.9755 59.4251ZM9.60059 53.865L8.63619 53.6005L8.63619 53.6005L9.60059 53.865ZM14.2168 50.6294L14.1771 51.6286L15.0662 51.664L15.2047 50.785L14.2168 50.6294ZM14.3902 49.8243L13.4258 49.5599L14.3902 49.8243ZM30.1341 54.1417L31.0985 54.4062L31.0985 54.4062L30.1341 54.1417ZM29.4084 55.8791L28.5428 55.3783L28.0992 56.1453L28.8072 56.6781L29.4084 55.8791ZM31.1145 60.6231L32.0789 60.8875L32.0789 60.8875L31.1145 60.6231ZM25.3755 63.6839L25.111 64.6483L25.3755 63.6839ZM19.9557 60.3936C20.5707 60.5622 21.1883 60.6672 21.8009 60.7122L21.9475 58.7176C21.4638 58.682 20.9741 58.599 20.4847 58.4648L19.9557 60.3936ZM17.0695 59.0582C17.9251 59.6452 18.8954 60.1028 19.9557 60.3936L20.4847 58.4648C19.6412 58.2335 18.8742 57.871 18.2011 57.4091L17.0695 59.0582ZM12.711 60.3895C14.8027 60.9631 16.9509 60.3534 18.3477 58.9354L16.9229 57.5319C16.0416 58.4265 14.6436 58.8456 13.24 58.4607L12.711 60.3895ZM8.63619 53.6005C7.82365 56.5636 9.71291 59.5673 12.711 60.3895L13.24 58.4607C11.2046 57.9025 10.0719 55.9276 10.565 54.1295L8.63619 53.6005ZM14.2566 49.6302C11.7214 49.5293 9.32681 51.0821 8.63619 53.6005L10.565 54.1295C10.9853 52.5966 12.4771 51.561 14.1771 51.6286L14.2566 49.6302ZM13.4258 49.5599C13.3425 49.8637 13.2771 50.1687 13.229 50.4738L15.2047 50.785C15.2412 50.553 15.291 50.3207 15.3546 50.0888L13.4258 49.5599ZM24.5685 43.5725C19.7396 42.2483 14.7132 44.865 13.4258 49.5599L15.3546 50.0888C16.3226 46.5588 20.1734 44.4411 24.0396 45.5013L24.5685 43.5725ZM31.0985 54.4062C32.3859 49.7113 29.3975 44.8967 24.5685 43.5725L24.0396 45.5013C27.9058 46.5615 30.1377 50.3473 29.1697 53.8773L31.0985 54.4062ZM30.2741 56.3798C30.6261 55.7713 30.9053 55.1108 31.0985 54.4062L29.1697 53.8773C29.0223 54.4147 28.81 54.9165 28.5428 55.3783L30.2741 56.3798ZM28.8072 56.6781C29.9767 57.5582 30.5221 59.0021 30.1501 60.3586L32.0789 60.8875C32.6888 58.6634 31.7685 56.4035 30.0097 55.08L28.8072 56.6781ZM30.1501 60.3586C29.657 62.1568 27.6753 63.2776 25.64 62.7195L25.111 64.6483C28.1092 65.4705 31.2663 63.8506 32.0789 60.8875L30.1501 60.3586ZM25.64 62.7195C24.0683 62.2885 23.0212 60.9971 22.8682 59.6057L20.8802 59.8242C21.1256 62.0573 22.7742 64.0075 25.111 64.6483L25.64 62.7195Z" fill="#303030" mask="url(#path-16-inside-2_570_16715)"/>
<ellipse cx="22.1885" cy="51.666" rx="1.73951" ry="1.64542" transform="rotate(15.335 22.1885 51.666)" fill="#303030"/>
<path d="M18.6002 49.1413C18.8375 48.6366 19.2794 48.2467 19.8369 48.0632C20.3956 47.8792 21.0238 47.9187 21.5809 48.1807C22.1381 48.4427 22.5691 48.9013 22.7838 49.449C22.9981 49.9954 22.9796 50.5845 22.7423 51.0892" stroke="#303030"/>
<path d="M22.3218 50.6116C22.5592 50.1069 23.0011 49.7169 23.5586 49.5334C24.1173 49.3494 24.7455 49.3889 25.3026 49.6509C25.8598 49.9129 26.2908 50.3715 26.5055 50.9192C26.7198 51.4656 26.7013 52.0547 26.464 52.5594" stroke="#303030"/>
<path d="M110.5 1H1.5V35H110.5V1Z" fill="white" stroke="#303030" stroke-miterlimit="10" stroke-linecap="round" stroke-linejoin="round"/>
<path d="M110.5 1H1.5V32H110.5V1Z" fill="white" stroke="#303030" stroke-miterlimit="10" stroke-linecap="round" stroke-linejoin="round"/>
<path d="M64.5 23H47.5V27H64.5V23Z" fill="white" stroke="#303030" stroke-miterlimit="10" stroke-linecap="round" stroke-linejoin="round"/>
</svg>
