<svg width="150" height="43" viewBox="0 0 150 43" fill="none" xmlns="http://www.w3.org/2000/svg">
<path d="M1.5 21.5C1.5 10.7304 10.2304 2 21 2H147.5C148.052 2 148.5 2.44772 148.5 3V40C148.5 40.5523 148.052 41 147.5 41H21C10.2304 41 1.5 32.2696 1.5 21.5Z" fill="white" stroke="#303030"/>
<rect x="115.5" y="2" width="33" height="39" rx="1" fill="#ECEDF1" stroke="#303030"/>
<path d="M123.134 2.15454V41" stroke="#303030"/>
<path d="M141.5 2.15454V41" stroke="#303030"/>
<rect x="113.599" y="38.1001" width="3.80119" height="3.8999" rx="1.9006" fill="white" stroke="#303030"/>
<rect x="113.599" y="0.654541" width="3.80119" height="3.8999" rx="1.9006" fill="white" stroke="#303030"/>
<rect x="145.699" y="38.1001" width="3.80119" height="3.8999" rx="1.9006" fill="white" stroke="#303030"/>
<rect x="145.699" y="0.654541" width="3.80119" height="3.8999" rx="1.9006" fill="white" stroke="#303030"/>
<path d="M18.5 21.5C18.5005 20.7823 18.1893 20.0948 17.6498 19.6216C16.8941 18.9578 15.813 18.8116 14.9081 19.2509C14.0474 19.6687 13.4998 20.5432 13.5 21.5C13.4998 22.4568 14.0474 23.3314 14.9081 23.7491C15.8023 24.1833 16.8701 24.0459 17.6254 23.3996C18.1796 22.926 18.5005 22.229 18.5 21.5Z" stroke="#303030" stroke-miterlimit="10" stroke-linecap="round" stroke-linejoin="round"/>
<path d="M22.5 21.5C22.5013 19.6339 21.6922 17.8466 20.2894 16.6161C18.3246 14.8903 15.5137 14.5102 13.1612 15.6524C10.9233 16.7385 9.49953 19.0124 9.5 21.5C9.49953 23.9876 10.9233 26.2615 13.1612 27.3476C15.486 28.4765 18.2623 28.1194 20.2259 26.439C21.6668 25.2076 22.5013 23.3955 22.5 21.5Z" stroke="#303030" stroke-miterlimit="10" stroke-linecap="round" stroke-linejoin="round"/>
<path d="M26.5 21.5C26.5021 18.4855 25.1951 15.5983 22.9291 13.6105C19.755 10.8227 15.2145 10.2088 11.4142 12.0539C7.79915 13.8084 5.49924 17.4815 5.5 21.5C5.49924 25.5185 7.79912 29.1917 11.4142 30.9461C15.1698 32.7697 19.6545 32.1929 22.8265 29.4784C25.1541 27.4892 26.5021 24.5619 26.5 21.5Z" stroke="#303030" stroke-miterlimit="10" stroke-linecap="round" stroke-linejoin="round"/>
<path d="M18.5 21.5H26.5" stroke="#303030"/>
<path d="M13.5 21.5L5.5 21.5" stroke="#303030"/>
<path d="M16 19L16 11" stroke="#303030"/>
<path d="M16 24L16 32" stroke="#303030"/>
<path d="M25.5 15.5C25.5007 14.4952 25.065 13.5328 24.3097 12.8702C23.2517 11.9409 21.7382 11.7363 20.4714 12.3513C19.2664 12.9361 18.4997 14.1605 18.5 15.5C18.4997 16.8395 19.2664 18.0639 20.4714 18.6487C21.7233 19.2566 23.2182 19.0643 24.2755 18.1595C25.0514 17.4964 25.5007 16.5206 25.5 15.5Z" fill="white" stroke="#303030" stroke-miterlimit="10" stroke-linecap="round" stroke-linejoin="round"/>
<path d="M13.5 15.5C13.5007 14.4952 13.065 13.5328 12.3097 12.8702C11.2517 11.9409 9.73817 11.7363 8.47141 12.3513C7.26638 12.9361 6.49975 14.1605 6.5 15.5C6.49975 16.8395 7.26637 18.0639 8.47141 18.6487C9.72325 19.2566 11.2182 19.0643 12.2755 18.1595C13.0514 17.4964 13.5007 16.5206 13.5 15.5Z" fill="white" stroke="#303030" stroke-miterlimit="10" stroke-linecap="round" stroke-linejoin="round"/>
<path d="M13.5 27.5C13.5007 26.4952 13.065 25.5328 12.3097 24.8702C11.2517 23.9409 9.73817 23.7363 8.47141 24.3513C7.26638 24.9361 6.49975 26.1605 6.5 27.5C6.49975 28.8395 7.26637 30.0639 8.47141 30.6487C9.72325 31.2566 11.2182 31.0643 12.2755 30.1595C13.0514 29.4964 13.5007 28.5206 13.5 27.5Z" fill="white" stroke="#303030" stroke-miterlimit="10" stroke-linecap="round" stroke-linejoin="round"/>
<path d="M25.5 27.5C25.5007 26.4952 25.065 25.5328 24.3097 24.8702C23.2517 23.9409 21.7382 23.7363 20.4714 24.3513C19.2664 24.9361 18.4997 26.1605 18.5 27.5C18.4997 28.8395 19.2664 30.0639 20.4714 30.6487C21.7233 31.2566 23.2182 31.0643 24.2755 30.1595C25.0514 29.4964 25.5007 28.5206 25.5 27.5Z" fill="white" stroke="#303030" stroke-miterlimit="10" stroke-linecap="round" stroke-linejoin="round"/>
<path d="M23.5 27.5C23.5003 27.0694 23.3136 26.6569 22.9899 26.3729C22.5364 25.9747 21.8878 25.887 21.3449 26.1506C20.8285 26.4012 20.4999 26.9259 20.5 27.5C20.4999 28.0741 20.8284 28.5988 21.3449 28.8494C21.8814 29.11 22.5221 29.0276 22.9752 28.6398C23.3077 28.3556 23.5003 27.9374 23.5 27.5Z" fill="white" stroke="#303030" stroke-miterlimit="10" stroke-linecap="round" stroke-linejoin="round"/>
<path d="M23.5 15.5C23.5003 15.0694 23.3136 14.6569 22.9899 14.3729C22.5364 13.9747 21.8878 13.887 21.3449 14.1506C20.8285 14.4012 20.4999 14.9259 20.5 15.5C20.4999 16.0741 20.8284 16.5988 21.3449 16.8494C21.8814 17.11 22.5221 17.0276 22.9752 16.6398C23.3077 16.3556 23.5003 15.9374 23.5 15.5Z" fill="white" stroke="#303030" stroke-miterlimit="10" stroke-linecap="round" stroke-linejoin="round"/>
<path d="M11.5 27.5C11.5003 27.0694 11.3136 26.6569 10.9899 26.3729C10.5364 25.9747 9.88779 25.887 9.34489 26.1506C8.82845 26.4012 8.49989 26.9259 8.5 27.5C8.49989 28.0741 8.82845 28.5988 9.34489 28.8494C9.88139 29.11 10.5221 29.0276 10.9752 28.6398C11.3077 28.3556 11.5003 27.9374 11.5 27.5Z" fill="white" stroke="#303030" stroke-miterlimit="10" stroke-linecap="round" stroke-linejoin="round"/>
<path d="M11.5 15.5C11.5003 15.0694 11.3136 14.6569 10.9899 14.3729C10.5364 13.9747 9.88779 13.887 9.34489 14.1506C8.82845 14.4012 8.49989 14.9259 8.5 15.5C8.49989 16.0741 8.82845 16.5988 9.34489 16.8494C9.88139 17.11 10.5221 17.0276 10.9752 16.6398C11.3077 16.3556 11.5003 15.9374 11.5 15.5Z" fill="white" stroke="#303030" stroke-miterlimit="10" stroke-linecap="round" stroke-linejoin="round"/>
<path d="M122.579 31.0369C121.235 30.99 119.892 30.943 118.548 30.896C118.243 30.8854 117.771 30.7625 117.473 30.9136C117.362 30.9701 117.301 31.0523 117.272 31.1672C117.19 31.4897 117.24 31.9035 117.228 32.2366C117.217 32.5342 117.21 32.8317 117.201 33.1289C117.197 33.2867 117.165 33.4022 117.249 33.5295C117.304 33.6121 117.399 33.6682 117.493 33.6946C117.663 33.7431 117.87 33.7185 118.043 33.7243C118.769 33.7497 119.494 33.775 120.219 33.8003C121.592 33.8483 122.965 33.8832 124.336 33.9441C124.793 33.9643 125.23 34.0663 125.576 34.3807C125.995 34.7612 126.192 35.3163 126.555 35.7426C126.864 36.1058 127.271 36.3274 127.743 36.3997C128.252 36.4778 128.789 36.454 129.302 36.4719C130.724 36.5215 132.146 36.5714 133.569 36.6209C136.733 36.7313 139.898 36.8418 143.062 36.9526C143.837 36.9797 144.877 37.1998 145.286 36.3252C145.354 36.1788 145.382 36.0276 145.394 35.8677C145.432 35.3434 145.431 34.8132 145.449 34.2882C145.492 33.0625 145.624 31.8044 145.577 30.5787C145.563 30.2199 145.396 29.8842 145.104 29.6703C144.643 29.3316 143.965 29.4292 143.434 29.4109C142.805 29.3889 132.994 29.1125 132.365 29.0905" fill="white"/>
<path d="M122.579 31.0369C121.235 30.99 119.892 30.943 118.548 30.896C118.243 30.8854 117.771 30.7625 117.473 30.9136C117.362 30.9701 117.301 31.0523 117.272 31.1672C117.19 31.4897 117.24 31.9035 117.228 32.2366C117.217 32.5342 117.21 32.8317 117.201 33.1289C117.197 33.2867 117.165 33.4022 117.249 33.5295C117.304 33.6121 117.399 33.6682 117.493 33.6946C117.663 33.7431 117.87 33.7185 118.043 33.7243C118.769 33.7497 119.494 33.775 120.219 33.8003C121.592 33.8483 122.965 33.8832 124.336 33.9441C124.793 33.9643 125.23 34.0663 125.576 34.3807C125.995 34.7612 126.192 35.3163 126.555 35.7426C126.864 36.1058 127.271 36.3274 127.743 36.3997C128.252 36.4778 128.789 36.454 129.302 36.4719C130.724 36.5215 132.146 36.5714 133.569 36.6209C136.733 36.7313 139.898 36.8418 143.062 36.9526C143.837 36.9797 144.877 37.1998 145.286 36.3252C145.354 36.1788 145.382 36.0276 145.394 35.8677C145.432 35.3434 145.431 34.8132 145.449 34.2882C145.492 33.0625 145.624 31.8044 145.577 30.5787C145.563 30.2199 145.396 29.8842 145.104 29.6703C144.643 29.3316 143.965 29.4292 143.434 29.4109C142.805 29.3889 132.994 29.1125 132.365 29.0905L128.25 28.9767C127.686 28.9611 127.142 29.1842 126.751 29.5911L125.554 30.8385C125.354 31.0473 125.073 31.159 124.784 31.1449L122.579 31.0369Z" stroke="#303030" stroke-miterlimit="10" stroke-linecap="round" stroke-linejoin="round"/>
<rect x="140.5" y="28.0713" width="2" height="5" rx="1" fill="white" stroke="#303030"/>
<rect x="122.192" y="29.7004" width="2" height="3" rx="1" fill="white" stroke="#303030"/>
<path d="M122.579 19.6409C121.235 19.594 119.892 19.547 118.548 19.5C118.243 19.4894 117.771 19.3665 117.473 19.5176C117.362 19.5741 117.301 19.6563 117.272 19.7712C117.19 20.0937 117.24 20.5075 117.228 20.8406C117.217 21.1382 117.21 21.4357 117.201 21.7329C117.197 21.8907 117.165 22.0062 117.249 22.1335C117.304 22.2161 117.399 22.2722 117.493 22.2986C117.663 22.3471 117.87 22.3225 118.043 22.3283C118.769 22.3537 119.494 22.379 120.219 22.4043C121.592 22.4523 122.965 22.4872 124.336 22.5481C124.793 22.5683 125.23 22.6703 125.576 22.9847C125.995 23.3652 126.192 23.9203 126.555 24.3466C126.864 24.7098 127.271 24.9314 127.743 25.0037C128.252 25.0818 128.789 25.058 129.302 25.0759C130.724 25.1255 132.146 25.1754 133.569 25.2249C136.733 25.3353 139.898 25.4458 143.062 25.5566C143.837 25.5837 144.877 25.8038 145.286 24.9292C145.354 24.7828 145.382 24.6316 145.394 24.4717C145.432 23.9474 145.431 23.4173 145.449 22.8922C145.492 21.6665 145.624 20.4084 145.577 19.1827C145.563 18.8239 145.396 18.4882 145.104 18.2743C144.643 17.9356 143.965 18.0332 143.434 18.0149C142.805 17.9929 132.994 17.7165 132.365 17.6945" fill="white"/>
<path d="M122.579 19.6409C121.235 19.594 119.892 19.547 118.548 19.5C118.243 19.4894 117.771 19.3665 117.473 19.5176C117.362 19.5741 117.301 19.6563 117.272 19.7712C117.19 20.0937 117.24 20.5075 117.228 20.8406C117.217 21.1382 117.21 21.4357 117.201 21.7329C117.197 21.8907 117.165 22.0062 117.249 22.1335C117.304 22.2161 117.399 22.2722 117.493 22.2986C117.663 22.3471 117.87 22.3225 118.043 22.3283C118.769 22.3537 119.494 22.379 120.219 22.4043C121.592 22.4523 122.965 22.4872 124.336 22.5481C124.793 22.5683 125.23 22.6703 125.576 22.9847C125.995 23.3652 126.192 23.9203 126.555 24.3466C126.864 24.7098 127.271 24.9314 127.743 25.0037C128.252 25.0818 128.789 25.058 129.302 25.0759C130.724 25.1255 132.146 25.1754 133.569 25.2249C136.733 25.3353 139.898 25.4458 143.062 25.5566C143.837 25.5837 144.877 25.8038 145.286 24.9292C145.354 24.7828 145.382 24.6316 145.394 24.4717C145.432 23.9474 145.431 23.4173 145.449 22.8922C145.492 21.6665 145.624 20.4084 145.577 19.1827C145.563 18.8239 145.396 18.4882 145.104 18.2743C144.643 17.9356 143.965 18.0332 143.434 18.0149C142.805 17.9929 132.994 17.7165 132.365 17.6945L128.25 17.5807C127.686 17.5651 127.142 17.7882 126.751 18.1951L125.554 19.4425C125.354 19.6513 125.073 19.763 124.784 19.7489L122.579 19.6409Z" stroke="#303030" stroke-miterlimit="10" stroke-linecap="round" stroke-linejoin="round"/>
<rect x="140.5" y="16.6753" width="2" height="5" rx="1" fill="white" stroke="#303030"/>
<rect x="122.192" y="18.3044" width="2" height="3" rx="1" fill="white" stroke="#303030"/>
<path d="M122.579 8.24492C121.235 8.19796 119.892 8.151 118.548 8.10404C118.243 8.0934 117.771 7.97049 117.473 8.12165C117.362 8.17815 117.301 8.26033 117.272 8.37517C117.19 8.69766 117.24 9.1115 117.228 9.44463C117.217 9.74218 117.21 10.0397 117.201 10.3369C117.197 10.4947 117.165 10.6102 117.249 10.7375C117.304 10.8201 117.399 10.8762 117.493 10.9026C117.663 10.9511 117.87 10.9265 118.043 10.9323C118.769 10.9577 119.494 10.983 120.219 11.0083C121.592 11.0564 122.965 11.0912 124.336 11.1521C124.793 11.1723 125.23 11.2743 125.576 11.5887C125.995 11.9692 126.192 12.5243 126.555 12.9506C126.864 13.3138 127.271 13.5354 127.743 13.6077C128.252 13.6858 128.789 13.662 129.302 13.6799C130.724 13.7295 132.146 13.7794 133.569 13.8289C136.733 13.9393 139.898 14.0498 143.062 14.1606C143.837 14.1877 144.877 14.4078 145.286 13.5332C145.354 13.3868 145.382 13.2356 145.394 13.0757C145.432 12.5514 145.431 12.0213 145.449 11.4962C145.492 10.2705 145.624 9.01244 145.577 7.78668C145.563 7.42787 145.396 7.09217 145.104 6.87828C144.643 6.53965 143.965 6.63724 143.434 6.61889C142.805 6.59688 132.994 6.32051 132.365 6.2985" fill="white"/>
<path d="M122.579 8.24492C121.235 8.19796 119.892 8.151 118.548 8.10404C118.243 8.0934 117.771 7.97049 117.473 8.12165C117.362 8.17815 117.301 8.26033 117.272 8.37517C117.19 8.69766 117.24 9.1115 117.228 9.44463C117.217 9.74218 117.21 10.0397 117.201 10.3369C117.197 10.4947 117.165 10.6102 117.249 10.7375C117.304 10.8201 117.399 10.8762 117.493 10.9026C117.663 10.9511 117.87 10.9265 118.043 10.9323C118.769 10.9577 119.494 10.983 120.219 11.0083C121.592 11.0564 122.965 11.0912 124.336 11.1521C124.793 11.1723 125.23 11.2743 125.576 11.5887C125.995 11.9692 126.192 12.5243 126.555 12.9506C126.864 13.3138 127.271 13.5354 127.743 13.6077C128.252 13.6858 128.789 13.662 129.302 13.6799C130.724 13.7295 132.146 13.7794 133.569 13.8289C136.733 13.9393 139.898 14.0498 143.062 14.1606C143.837 14.1877 144.877 14.4078 145.286 13.5332C145.354 13.3868 145.382 13.2356 145.394 13.0757C145.432 12.5514 145.431 12.0213 145.449 11.4962C145.492 10.2705 145.624 9.01244 145.577 7.78668C145.563 7.42787 145.396 7.09217 145.104 6.87828C144.643 6.53965 143.965 6.63724 143.434 6.61889C142.805 6.59688 132.994 6.32051 132.365 6.2985L128.25 6.1847C127.686 6.1691 127.142 6.39224 126.751 6.79913L125.554 8.04649C125.354 8.25529 125.073 8.36704 124.784 8.35289L122.579 8.24492Z" stroke="#303030" stroke-miterlimit="10" stroke-linecap="round" stroke-linejoin="round"/>
<rect x="140.5" y="5.2793" width="2" height="5" rx="1" fill="white" stroke="#303030"/>
<rect x="122.192" y="6.90845" width="2" height="3" rx="1" fill="white" stroke="#303030"/>
</svg>
