<svg width="62" height="72" viewBox="0 0 62 72" fill="none" xmlns="http://www.w3.org/2000/svg">
<g filter="url(#filter0_d_560_18675)">
<path d="M13.2071 3.10046L13.2071 1.20508L9.0056 1.20508L9.0056 4.52318L8.6542 4.67546L8.30923 4.83122L7.971 4.99046L7.63918 5.15287L7.3141 5.31875L6.99546 5.48813L6.83872 5.57424L6.68356 5.66098L6.53003 5.74867L6.37809 5.83732C6.36492 5.84523 6.35176 5.85315 6.35176 5.85315C6.33859 5.86138 6.32574 5.86993 6.32574 5.86993C6.3129 5.87848 6.30004 5.88734 6.30004 5.88734C6.28719 5.8962 6.27467 5.90538 6.27467 5.90538C6.26215 5.91457 6.24962 5.92406 6.24962 5.92406C6.23709 5.93387 6.22488 5.94369 6.22488 5.94369C6.21267 5.95382 6.20078 5.96395 6.20078 5.96395C6.1889 5.9744 6.17702 5.98484 6.17702 5.98484C6.16546 5.99561 6.15388 6.00637 6.15388 6.00637C6.14232 6.01745 6.13108 6.02853 6.13108 6.02853C6.11984 6.03993 6.10891 6.05133 6.10891 6.05133C6.09799 6.06304 6.0874 6.07475 6.0874 6.07475C6.0768 6.08678 6.06652 6.09881 6.06652 6.09881C6.05624 6.11116 6.04629 6.12319 6.04629 6.12319C6.03633 6.13554 6.02669 6.1482 6.02669 6.1482C6.01705 6.16087 6.00773 6.17384 6.00773 6.17384C5.99841 6.18682 5.98944 6.1998 5.98944 6.1998C5.98044 6.2131 5.97175 6.2264 5.97175 6.2264C5.96308 6.23969 5.95473 6.25331 5.95473 6.25331C5.94638 6.26692 5.93836 6.28053 5.93836 6.28053C5.93066 6.29446 5.92294 6.30807 5.92294 6.30807C5.91555 6.322 5.90815 6.33625 5.90815 6.33625C5.90109 6.3505 5.89404 6.36474 5.89404 6.36474C5.88729 6.37899 5.88086 6.39324 5.88086 6.39324C5.87444 6.40749 5.86833 6.42204 5.86833 6.42204C5.86255 6.43661 5.85677 6.45117 5.85677 6.45117C5.85131 6.46574 5.84585 6.4803 5.84585 6.4803C5.84071 6.49486 5.83589 6.50974 5.83589 6.50974C5.83107 6.52462 5.82658 6.53918 5.82658 6.53918C5.8224 6.55406 5.81822 6.56894 5.81822 6.56894C5.81437 6.58382 5.81052 6.5987 5.81052 6.5987C5.80699 6.61358 5.80377 6.62846 5.80377 6.62846C5.80056 6.64334 5.79766 6.65822 5.79766 6.65822C5.79477 6.67341 5.79221 6.68829 5.79221 6.68829C5.78996 6.70349 5.7877 6.71869 5.7877 6.71869C5.78577 6.73388 5.78386 6.74939 5.78386 6.74939C5.78225 6.76491 5.78095 6.78042 5.78095 6.78042C5.77967 6.79593 5.77872 6.81144 5.77872 6.81144C5.77776 6.82696 5.77711 6.84279 5.77711 6.84279C5.77679 6.8583 5.77646 6.87413 5.77646 6.87413C5.77646 6.88996 5.77678 6.90547 5.77678 6.90547C5.7771 6.9213 5.77776 6.93681 5.77776 6.93681C5.77872 6.95264 5.77968 6.96847 5.77968 6.96847C5.78096 6.9843 5.78225 7.00013 5.78225 7.00013C5.78385 7.01596 5.78578 7.03147 5.78578 7.03147C5.7877 7.0473 5.79029 7.06281 5.79029 7.06281C5.79286 7.07832 5.79542 7.09415 5.79542 7.09415C5.79831 7.10966 5.80152 7.12518 5.80152 7.12518C5.80473 7.14069 5.80826 7.1562 5.80826 7.1562C5.81212 7.17171 5.81597 7.18691 5.81597 7.18691C5.82014 7.2021 5.82432 7.21762 5.82432 7.21762C5.82882 7.23281 5.83363 7.24801 5.83363 7.24801C5.83845 7.26321 5.84359 7.27809 5.84359 7.27809C5.84873 7.29297 5.85451 7.30784 5.85451 7.30784C5.86029 7.32272 5.86608 7.33729 5.86608 7.33729C5.87218 7.35185 5.87829 7.36641 5.87829 7.36641C5.88472 7.38066 5.89114 7.39491 5.89114 7.39491C5.89788 7.40915 5.90496 7.42308 5.90496 7.42308C5.91202 7.43701 5.91941 7.45094 5.91941 7.45094C5.92679 7.46455 5.9345 7.47817 5.9345 7.47817C5.94221 7.49147 5.95025 7.50508 5.95025 7.50508C5.95828 7.51837 5.96662 7.53135 5.96662 7.53135C5.97497 7.54433 5.98332 7.557 5.98332 7.557C5.99199 7.56966 6.00067 7.58232 6.00067 7.58232L6.33633 8.05467C6.34757 8.0705 6.35947 8.08601 6.35947 8.08601C6.37135 8.10152 6.38387 8.11703 6.38387 8.11703C6.39672 8.13254 6.40958 8.14774 6.40958 8.14774C6.42307 8.16294 6.43655 8.17781 6.43655 8.17781C6.45069 8.19269 6.46482 8.20726 6.46482 8.20726C6.4796 8.22182 6.49437 8.23607 6.49437 8.23607C6.50979 8.25031 6.52521 8.26424 6.52521 8.26424C6.54095 8.27785 6.55734 8.29147 6.55734 8.29147C6.57372 8.30476 6.59073 8.31774 6.59073 8.31774L6.60777 8.33072C6.61644 8.33706 6.62512 8.34339 6.62512 8.34339C6.63379 8.34972 6.64278 8.35573 6.64278 8.35573C6.65177 8.36175 6.66076 8.36777 6.66076 8.36777C6.66975 8.37378 6.67907 8.37948 6.67907 8.37948C6.68839 8.38518 6.6977 8.39088 6.6977 8.39088C6.70701 8.39657 6.71634 8.40227 6.71634 8.40227C6.72565 8.40765 6.73528 8.41335 6.73528 8.41335C6.74491 8.41874 6.75455 8.42412 6.75455 8.42412C6.76419 8.42918 6.77416 8.43456 6.77416 8.43456C6.78411 8.43963 6.79374 8.44469 6.79374 8.44469C6.8037 8.44944 6.81366 8.45451 6.81366 8.45451C6.82362 8.45926 6.83389 8.46369 6.83389 8.46369C6.84417 8.46812 6.85413 8.47255 6.85413 8.47255C6.8644 8.47699 6.87469 8.4811 6.87469 8.4811C6.88497 8.48522 6.89557 8.48933 6.89557 8.48933C6.90617 8.49345 6.91645 8.49725 6.91645 8.49725C6.92705 8.50105 6.93764 8.50485 6.93764 8.50485C6.94824 8.50833 6.95886 8.51213 6.95886 8.51213C6.96946 8.51561 6.98036 8.51877 6.98036 8.51877C6.99128 8.52194 7.00189 8.52511 7.00189 8.52511C7.01281 8.52827 7.02373 8.53112 7.02373 8.53112C7.03465 8.53397 7.04557 8.53682 7.04557 8.53682C7.05649 8.53935 7.06741 8.5422 7.06741 8.5422C7.07833 8.54473 7.08958 8.54695 7.08958 8.54695C7.10051 8.54917 7.11174 8.55139 7.11174 8.55139C7.12266 8.5536 7.13391 8.5555 7.13391 8.5555C7.14515 8.5574 7.15607 8.5593 7.15607 8.5593C7.16731 8.56088 7.17824 8.56246 7.17824 8.56246C7.18948 8.56404 7.20073 8.56531 7.20073 8.56531C7.21197 8.56658 7.22321 8.56784 7.22321 8.56784C7.23446 8.56879 7.24568 8.56975 7.24568 8.56975C7.25692 8.5707 7.26817 8.57133 7.26817 8.57133C7.27941 8.57196 7.29066 8.57259 7.29066 8.57259C7.3019 8.57291 7.31314 8.57354 7.31314 8.57354C7.32439 8.57386 7.33563 8.57386 7.33563 8.57386C7.34687 8.57386 7.35812 8.57386 7.35812 8.57386C7.36936 8.57386 7.38027 8.57354 7.38027 8.57354C7.39151 8.57323 7.40244 8.57291 7.40244 8.57291C7.41369 8.57228 7.4246 8.57164 7.4246 8.57164C7.43552 8.57101 7.44677 8.57006 7.44677 8.57006C7.45769 8.56911 7.46861 8.56816 7.46861 8.56816C7.47953 8.56721 7.49045 8.56594 7.49045 8.56594C7.50137 8.56468 7.51229 8.56341 7.51229 8.56341C7.52321 8.56183 7.53382 8.56025 7.53382 8.56025C7.54474 8.55867 7.55535 8.55677 7.55535 8.55677C7.5698 8.55423 7.58424 8.5517 7.58424 8.5517L7.61283 8.546L7.69764 8.52827L7.72591 8.52257C7.74004 8.52004 7.75416 8.51751 7.75416 8.51751C7.7683 8.51529 7.78243 8.51308 7.78243 8.51308L8.3937 8.45261L9.00721 8.38644L9.00721 16.061L7.57205 28.4113L6.9839 34.1189L6.48218 39.5151L6.06684 44.5997L5.73793 49.3725L5.49541 53.8338L5.40644 55.9476L5.33898 57.9836L5.33769 58.0422L5.33706 58.101L5.33706 58.1599L5.33802 58.2191L5.33963 58.2783L5.34186 58.3375L5.34508 58.397L5.34894 58.4566L5.35343 58.5161L5.3589 58.5756L5.365 58.6351L5.37174 58.6946L5.37945 58.7542L5.3878 58.8137L5.39713 58.8732L5.40707 58.9327L5.41768 58.9922L5.42925 59.0517L5.44146 59.1113L5.45461 59.1705L5.46844 59.2297L5.48289 59.2889L5.49829 59.3477L5.51437 59.4066L5.53139 59.4652L5.54905 59.5234L5.56736 59.5817L5.58664 59.6396L5.60656 59.6973L5.6271 59.7549L5.64863 59.8122L5.6708 59.8692L5.6936 59.9258L5.71705 59.9822L5.74146 60.0382L5.76651 60.0939L5.79222 60.1493L5.81855 60.2044L5.84554 60.2592L5.87348 60.3136L5.90206 60.3678L5.9313 60.4213L5.96117 60.4745L5.99168 60.5273L6.02285 60.5796L6.05465 60.6315L6.08708 60.6831L6.12017 60.7341L6.15358 60.7847L6.18763 60.8347L6.22232 60.8841L6.25765 60.9332L6.29362 60.9816L6.32993 61.0297L6.36687 61.0772L6.40445 61.1241L6.44235 61.1703L6.48089 61.2162L6.51977 61.2615L6.55927 61.3061L6.59909 61.3501L6.63957 61.3935L6.68037 61.4366L6.72149 61.479L6.76324 61.5208L6.80563 61.5622L6.84868 61.6034L6.89236 61.6439L6.93669 61.6841L6.98167 61.7237L7.02695 61.763L7.07289 61.8016L7.11947 61.8399L7.16668 61.8776L7.21422 61.9149L7.26239 61.9516L7.31123 61.9877L7.36038 62.0232L7.41016 62.0583L7.46058 62.0928L7.51134 62.1267L7.56273 62.1599L7.61445 62.1926L7.66681 62.2245L7.71949 62.2559L7.77248 62.2866L7.82612 62.3167L7.8801 62.3461L7.93438 62.3749L7.9893 62.4031L8.04454 62.4306L8.10013 62.4575L8.15602 62.4838L8.21223 62.5095L8.26875 62.5342L8.32561 62.5582L8.38279 62.5816L8.4403 62.6044L8.49811 62.6263L8.55624 62.6475L8.61439 62.6681L8.67285 62.6877L8.73163 62.7067L8.79041 62.7251L8.84952 62.7425L8.90894 62.7592L8.96836 62.7754L9.0281 62.7906L9.08786 62.8051L9.14759 62.8188L9.20766 62.8317L9.26774 62.8441L9.32781 62.8555L9.38786 62.8662L9.44826 62.8764L9.50864 62.8856L9.56903 62.8941L9.62941 62.9017L9.6898 62.9087L9.75018 62.915L9.81058 62.9204L9.87064 62.9251L9.93071 62.9292L9.99078 62.9324L10.0508 62.9349L10.1106 62.9368L10.1703 62.9378L10.2298 62.9381L31.0462 62.9381L51.8624 62.9381L51.9218 62.9378L51.9816 62.9368L52.0413 62.9349L52.1014 62.9324L52.1614 62.9292L52.2215 62.9251L52.2816 62.9204L52.342 62.915L52.4023 62.9087L52.4627 62.9017L52.5231 62.8941L52.5835 62.8855L52.6439 62.8764L52.7043 62.8662L52.7644 62.8555L52.8244 62.8441L52.8845 62.8317L52.9445 62.8188L53.0043 62.8051L53.064 62.7906L53.1238 62.7754L53.1832 62.7592L53.2426 62.7425L53.3017 62.725L53.3608 62.7067L53.4196 62.6877L53.4781 62.6681L53.5362 62.6475L53.5944 62.6263L53.6522 62.6044L53.7097 62.5816L53.7668 62.5582L53.8237 62.5341L53.8802 62.5095L53.9365 62.4838L53.9924 62.4575L54.0479 62.4306L54.1032 62.4031L54.1581 62.3749L54.2124 62.3461L54.2663 62.3166L54.32 62.2866L54.373 62.2559L54.4257 62.2245L54.478 62.1925L54.5297 62.1599L54.5811 62.1267L54.6319 62.0928L54.6823 62.0583L54.7321 62.0232L54.7812 61.9877L54.8301 61.9516L54.8783 61.9149L54.9258 61.8776L54.973 61.8399L55.0196 61.8016L55.0655 61.7629L55.1108 61.7237L55.1554 61.6841L55.1998 61.6439L55.2435 61.6034L55.2865 61.5622L55.3289 61.5208L55.3707 61.479L55.4118 61.4365L55.4526 61.3935L55.4931 61.3501L55.5329 61.3061L55.5724 61.2615L55.6113 61.2162L55.6498 61.1703L55.6877 61.1241L55.7253 61.0772L55.7622 61.0297L55.7985 60.9816L55.8345 60.9332L55.8698 60.8841L55.9045 60.8347L55.9386 60.7847L55.9723 60.7341L56.0054 60.6831L56.0378 60.6315L56.0696 60.5796L56.1008 60.5273L56.1313 60.4745L56.1612 60.4213L56.1904 60.3678L56.219 60.3136L56.2469 60.2592L56.2739 60.2044L56.3003 60.1493L56.3259 60.0939L56.351 60.0382L56.3754 59.9822L56.3989 59.9258L56.4217 59.8692L56.4438 59.8122L56.4654 59.7549L56.4859 59.6972L56.5058 59.6396L56.5251 59.5817L56.5434 59.5234L56.5611 59.4652L56.5781 59.4066L56.5942 59.3477L56.6096 59.2889L56.624 59.2296L56.6378 59.1705L56.651 59.1112L56.6632 59.0517L56.6748 58.9922L56.6854 58.9327L56.6953 58.8732L56.7047 58.8137L56.713 58.7541L56.7207 58.6946L56.7278 58.6351L56.7339 58.5756L56.7394 58.5161L56.7438 58.4566L56.7477 58.397L56.7509 58.3375L56.7532 58.2783L56.7548 58.2191L56.7557 58.1599L56.7557 58.101L56.7551 58.0422L56.7538 57.9836L56.6863 55.9476L56.5974 53.8338L56.3549 49.3725L56.0259 44.5997L55.6106 39.5151L55.1089 34.1189L54.5207 28.4113L53.0856 16.061L53.0856 8.38643L53.6991 8.4526L54.3103 8.51307C54.3245 8.51529 54.3386 8.5175 54.3386 8.5175C54.3527 8.52003 54.3669 8.52257 54.3669 8.52257L54.3951 8.52826L54.4799 8.54599L54.5085 8.55169C54.523 8.55422 54.5374 8.55676 54.5374 8.55676C54.548 8.55866 54.5589 8.56024 54.5589 8.56024C54.5699 8.56182 54.5805 8.56341 54.5805 8.56341C54.5914 8.56467 54.6023 8.56594 54.6023 8.56594C54.6132 8.5672 54.6242 8.56815 54.6242 8.56815C54.6351 8.5691 54.646 8.57005 54.646 8.57005C54.6569 8.571 54.6682 8.57164 54.6682 8.57164C54.6791 8.57227 54.6903 8.5729 54.6903 8.5729C54.7016 8.57322 54.7125 8.57353 54.7125 8.57353C54.7237 8.57385 54.7347 8.57385 54.7347 8.57385C54.7459 8.57385 54.7571 8.57385 54.7571 8.57385C54.7684 8.57354 54.7796 8.57353 54.7796 8.57353C54.7909 8.57322 54.8021 8.57258 54.8021 8.57258C54.8134 8.57195 54.8246 8.57132 54.8246 8.57132C54.8358 8.57068 54.8471 8.56974 54.8471 8.56974C54.8583 8.56879 54.8696 8.56783 54.8696 8.56783C54.8808 8.56657 54.892 8.5653 54.892 8.5653C54.9033 8.56404 54.9145 8.56245 54.9145 8.56245C54.9258 8.56087 54.9367 8.55929 54.9367 8.55929C54.9479 8.55739 54.9589 8.55549 54.9589 8.55549C54.9701 8.55359 54.981 8.55138 54.981 8.55138C54.992 8.54916 55.0032 8.54694 55.0032 8.54694C55.0141 8.54441 55.0254 8.54219 55.0254 8.54219C55.0363 8.53966 55.0472 8.53681 55.0472 8.53681C55.0581 8.53396 55.069 8.53111 55.069 8.53111C55.08 8.52826 55.0909 8.5251 55.0909 8.5251C55.1018 8.52193 55.1124 8.51876 55.1124 8.51876C55.123 8.51528 55.1339 8.51212 55.1339 8.51212C55.1445 8.50864 55.1551 8.50484 55.1551 8.50484C55.1657 8.50104 55.1763 8.49724 55.1763 8.49724C55.1869 8.49344 55.1972 8.48932 55.1972 8.48932C55.2075 8.48521 55.2181 8.4811 55.2181 8.4811C55.2284 8.47666 55.2386 8.47255 55.2386 8.47255C55.2489 8.46811 55.2589 8.46368 55.2589 8.46368C55.2688 8.45893 55.2791 8.4545 55.2791 8.4545C55.2891 8.44975 55.299 8.44469 55.299 8.44469C55.309 8.43962 55.3186 8.43456 55.3186 8.43456C55.3283 8.42949 55.3382 8.42411 55.3382 8.42411C55.3479 8.41873 55.3575 8.41335 55.3575 8.41335C55.3671 8.40796 55.3764 8.40226 55.3764 8.40226C55.3857 8.39656 55.3951 8.39087 55.3951 8.39087C55.4044 8.38517 55.4137 8.37947 55.4137 8.37947C55.423 8.37346 55.432 8.36776 55.432 8.36776C55.441 8.36174 55.45 8.35572 55.45 8.35572C55.459 8.34971 55.4677 8.34338 55.4677 8.34338C55.4763 8.33705 55.485 8.33072 55.485 8.33072L55.502 8.31774C55.5187 8.30476 55.5354 8.29146 55.5354 8.29146C55.5515 8.27784 55.5676 8.26423 55.5676 8.26423C55.5833 8.2503 55.5984 8.23606 55.5984 8.23606C55.6135 8.22181 55.6279 8.20725 55.6279 8.20725C55.6424 8.19269 55.6562 8.17781 55.6562 8.17781C55.67 8.16293 55.6832 8.14773 55.6832 8.14773C55.6964 8.13253 55.7089 8.11702 55.7089 8.11702C55.7214 8.10151 55.7333 8.086 55.7333 8.086C55.7449 8.07017 55.7564 8.05466 55.7564 8.05466L56.0921 7.58231C56.1008 7.56965 56.1095 7.55699 56.1095 7.55699C56.1178 7.54432 56.1265 7.53135 56.1265 7.53135C56.1348 7.51837 56.1429 7.50507 56.1429 7.50507C56.1509 7.49177 56.1586 7.47816 56.1586 7.47816C56.1663 7.46455 56.1737 7.45093 56.1737 7.45093C56.1811 7.437 56.1881 7.42307 56.1881 7.42307C56.1952 7.40914 56.2019 7.3949 56.2019 7.3949C56.2087 7.38065 56.2148 7.3664 56.2148 7.3664C56.2209 7.35184 56.227 7.33728 56.227 7.33728C56.2328 7.32272 56.2386 7.30784 56.2386 7.30784C56.244 7.29296 56.2495 7.27808 56.2495 7.27808C56.2546 7.2632 56.2595 7.248 56.2595 7.248C56.2643 7.23281 56.2688 7.21761 56.2688 7.21761C56.2729 7.20241 56.2771 7.1869 56.2771 7.1869C56.281 7.17139 56.2848 7.15619 56.2848 7.15619C56.2884 7.14068 56.2916 7.12517 56.2916 7.12517C56.2948 7.10966 56.2977 7.09414 56.2977 7.09414C56.3002 7.07863 56.3028 7.0628 56.3028 7.0628C56.3051 7.04697 56.307 7.03146 56.307 7.03146C56.3089 7.01563 56.3105 7.00012 56.3105 7.00012C56.3121 6.98429 56.3131 6.96846 56.3131 6.96846C56.3141 6.95263 56.315 6.9368 56.315 6.9368C56.3157 6.92097 56.316 6.90546 56.316 6.90546C56.3163 6.88963 56.3163 6.87412 56.3163 6.87412C56.316 6.85829 56.3157 6.84278 56.3157 6.84278C56.315 6.82726 56.314 6.81144 56.314 6.81144C56.3131 6.79592 56.3118 6.78041 56.3118 6.78041C56.3105 6.7649 56.3089 6.74939 56.3089 6.74939C56.307 6.73387 56.3051 6.71868 56.3051 6.71868C56.3028 6.70348 56.3006 6.68828 56.3006 6.68828C56.298 6.67309 56.2951 6.65821 56.2951 6.65821C56.2922 6.64333 56.289 6.62845 56.289 6.62845C56.2858 6.61357 56.2823 6.59869 56.2823 6.59869C56.2784 6.58381 56.2745 6.56893 56.2745 6.56893C56.2704 6.55405 56.2662 6.53917 56.2662 6.53917C56.2617 6.5243 56.2569 6.50973 56.2569 6.50973C56.2521 6.49485 56.2469 6.48029 56.2469 6.48029C56.2415 6.46573 56.236 6.45116 56.236 6.45116C56.2302 6.4366 56.2244 6.42204 56.2244 6.42204C56.2183 6.40747 56.2119 6.39323 56.2119 6.39323C56.2055 6.37898 56.1987 6.36473 56.1987 6.36473C56.192 6.35049 56.1846 6.33624 56.1846 6.33624C56.1772 6.32231 56.1698 6.30807 56.1698 6.30807C56.1621 6.29414 56.1544 6.28053 56.1544 6.28053C56.1464 6.26691 56.138 6.2533 56.138 6.2533C56.1297 6.23969 56.121 6.22639 56.121 6.22639C56.1123 6.21309 56.1033 6.1998 56.1033 6.1998C56.0943 6.18682 56.085 6.17384 56.085 6.17384C56.0757 6.16086 56.0661 6.14819 56.0661 6.14819C56.0564 6.13553 56.0465 6.12318 56.0465 6.12318C56.0365 6.11083 56.0262 6.09881 56.0262 6.09881C56.016 6.08678 56.0054 6.07474 56.0054 6.07474C55.9948 6.06303 55.9839 6.05132 55.9839 6.05132C55.9729 6.03992 55.9617 6.02852 55.9617 6.02852C55.9504 6.01744 55.9389 6.00637 55.9389 6.00637C55.9273 5.9956 55.9157 5.98484 55.9157 5.98484C55.9039 5.97439 55.892 5.96394 55.892 5.96394C55.8801 5.95381 55.8679 5.94368 55.8679 5.94368C55.8557 5.93387 55.8432 5.92405 55.8432 5.92405C55.8306 5.91455 55.8181 5.90538 55.8181 5.90538C55.8056 5.8962 55.7927 5.88733 55.7927 5.88733C55.7799 5.87846 55.767 5.86992 55.767 5.86992C55.7542 5.86137 55.741 5.85314 55.741 5.85314C55.7278 5.84491 55.7147 5.83731 55.7147 5.83731L55.5627 5.74866L55.4092 5.66097L55.2541 5.57423L55.0973 5.48812L54.7787 5.31874L54.4536 5.15286L54.1218 4.99045L53.7835 4.83121L53.4386 4.67545L53.0872 4.52317L53.0872 1.20507L48.8857 1.20507L48.8857 3.10045L48.4389 2.98395L47.985 2.87093L47.5241 2.76171L47.0558 2.65629L46.5804 2.55435L46.0979 2.45621L45.6084 2.36186L45.1118 2.27132L44.6078 2.18426L44.0968 2.101L43.5786 2.02154L43.0535 1.94556L41.9816 1.80499L40.8811 1.67899L39.752 1.56787L38.5944 1.47163L37.4082 1.39027L36.1933 1.32379L34.9499 1.27187L33.6779 1.23483L32.3773 1.21267L31.0482 1.20539L29.719 1.21267L28.4184 1.23483L27.1464 1.27187L25.903 1.32379L24.6881 1.39027L23.5019 1.47164L22.3443 1.56788L21.2152 1.679L20.1147 1.805L19.0429 1.94556L18.5177 2.02154L17.9995 2.10101L17.4885 2.18427L16.9845 2.27133L16.4879 2.36187L15.9984 2.45621L15.5159 2.55435L15.0405 2.65629L14.5722 2.76171L14.1113 2.87093L13.6574 2.98395L13.2071 3.10046Z" fill="#ECEDF1" stroke="#303030" stroke-miterlimit="10" stroke-linecap="round" stroke-linejoin="round"/>
<path d="M53.0833 16.0615L54.5185 28.4121L55.1067 34.1197L55.6084 39.5159L56.0237 44.6002L56.3526 49.373L56.5955 53.8343L56.6845 55.9481L56.7516 57.9837L56.7532 58.0676L56.7535 58.1515L56.7522 58.2351L56.7493 58.319L56.7448 58.4026L56.7394 58.4862L56.732 58.5697L56.7233 58.653L56.713 58.7363L56.7015 58.8192L56.6883 58.9021L56.6738 58.9848L56.6578 59.0671L56.6404 59.1491L56.6215 59.2308L56.6013 59.3121L56.5794 59.3932L56.5563 59.4736L56.5315 59.554L56.5055 59.6338L56.4782 59.7129L56.4493 59.7917L56.4191 59.8703L56.3876 59.9478L56.3546 60.0251L56.3205 60.102L56.2849 60.178L56.2479 60.2533L56.2094 60.328L56.1699 60.4024L56.1291 60.4759L56.0867 60.5484L56.0433 60.6206L55.9987 60.6918L55.9524 60.7624L55.9052 60.832L55.857 60.9007L55.8072 60.9688L55.7565 61.0359L55.7044 61.1021L55.6511 61.1676L55.5968 61.2319L55.5413 61.2955L55.4847 61.3582L55.4272 61.4196L55.3685 61.4804L55.3087 61.5399L55.2477 61.5985L55.186 61.6558L55.123 61.7121L55.0591 61.7675L54.9942 61.8217L54.9287 61.8749L54.8619 61.9268L54.7941 61.9777L54.7257 62.0275L54.6563 62.0759L54.5863 62.1231L54.5153 62.1693L54.4434 62.2139L54.3708 62.2576L54.2975 62.3L54.2233 62.3412L54.1485 62.3808L54.073 62.4194L53.9969 62.4567L53.9201 62.4925L53.8427 62.5273L53.7646 62.5606L53.6859 62.5922L53.6069 62.623L53.5273 62.6521L53.447 62.6799L53.3663 62.7065L53.2851 62.7315L53.2038 62.7553L53.1219 62.7778L53.0393 62.7987L52.9568 62.818L52.8736 62.836L52.7904 62.8528L52.7069 62.868L52.6227 62.8816L52.5389 62.8939L52.4544 62.905L52.3699 62.9142L52.2854 62.9224L52.2007 62.9288L52.1158 62.9338L52.0307 62.9376L51.9459 62.9398L51.8608 62.9405L10.2282 62.9405L10.1431 62.9399L10.0583 62.9376L9.97314 62.9338L9.88835 62.9288L9.80354 62.9224L9.71906 62.9142L9.63458 62.905L9.5501 62.894L9.46627 62.8816L9.38211 62.868L9.29861 62.8528L9.2154 62.836L9.13222 62.818L9.04966 62.7987L8.96744 62.7778L8.88519 62.7553L8.80393 62.7315L8.72266 62.7065L8.64205 62.6799L8.56174 62.6521L8.48207 62.623L8.40306 62.5922L8.32436 62.5606L8.24632 62.5274L8.16889 62.4925L8.09212 62.4567L8.01599 62.4194L7.94051 62.3808L7.86568 62.3412L7.79147 62.3L7.71823 62.2576L7.64565 62.2139L7.57368 62.1693L7.50271 62.1231L7.43268 62.0759L7.3633 62.0275L7.29487 61.9778L7.2271 61.9268L7.16062 61.8749L7.09476 61.8217L7.02987 61.7676L6.96596 61.7121L6.90332 61.6558L6.84133 61.5985L6.7803 61.5399L6.72056 61.4804L6.66176 61.4196L6.60428 61.3582L6.54774 61.2955L6.49218 61.2319L6.43789 61.1676L6.38456 61.1021L6.33253 61.0359L6.28177 60.9688L6.23231 60.9007L6.18381 60.832L6.13658 60.7624L6.09033 60.6918L6.04569 60.6206L6.00232 60.5484L5.95991 60.4759L5.91914 60.4024L5.87961 60.328L5.84107 60.2533L5.80413 60.178L5.76847 60.102L5.73443 60.0251L5.70134 59.9478L5.66987 59.8703L5.63966 59.7918L5.61076 59.7129L5.58345 59.6338L5.55744 59.554L5.53272 59.4736L5.50958 59.3932L5.48774 59.3121L5.46751 59.2308L5.44855 59.1491L5.4312 59.0671L5.41514 58.9848L5.40069 58.9022L5.38752 58.8192L5.37595 58.7363L5.36568 58.653L5.35701 58.5697L5.34994 58.4862L5.34415 58.4026L5.33966 58.319L5.33709 58.2351L5.33549 58.1515L5.3358 58.0676L5.33741 57.9837L5.40487 55.9481L5.49352 53.8343L5.73635 49.373L6.06527 44.6002L6.48061 39.5159L6.98234 34.1197L7.57048 28.4121L9.00564 16.0615" stroke="#303030" stroke-miterlimit="10" stroke-linecap="round" stroke-linejoin="round"/>
<path d="M13.2071 10.0586L48.8818 10.0586" stroke="#303030" stroke-miterlimit="10" stroke-linecap="round" stroke-linejoin="round"/>
<path d="M53.0833 8.38718L53.0833 16.0618L48.8818 16.0618L48.8818 7.97119" fill="white"/>
<path d="M53.0833 8.38718L53.0833 16.0618L48.8818 16.0618L48.8818 7.97119" stroke="#303030" stroke-miterlimit="10" stroke-linecap="round" stroke-linejoin="round"/>
<path d="M48.8818 3.10046L48.8818 1.20508L53.0833 1.20508L53.0833 4.5235" fill="white"/>
<path d="M48.8818 3.10046L48.8818 1.20508L53.0833 1.20508L53.0833 4.5235" stroke="#303030" stroke-miterlimit="10" stroke-linecap="round" stroke-linejoin="round"/>
<path d="M9.00566 8.38718L9.00566 16.0618L13.2071 16.0618L13.2071 7.97119" fill="white"/>
<path d="M9.00566 8.38718L9.00566 16.0618L13.2071 16.0618L13.2071 7.97119" stroke="#303030" stroke-miterlimit="10" stroke-linecap="round" stroke-linejoin="round"/>
<path d="M13.2071 3.10046L13.2071 1.20508L9.00566 1.20508L9.00566 4.5235" fill="white"/>
<path d="M13.2071 3.10046L13.2071 1.20508L9.00566 1.20508L9.00566 4.5235" stroke="#303030" stroke-miterlimit="10" stroke-linecap="round" stroke-linejoin="round"/>
<path d="M54.5352 8.55725L53.1919 8.39927L51.8319 8.25143L49.0621 7.98645L46.2258 7.76231L43.3227 7.579L40.353 7.43623L37.317 7.33429L34.214 7.27319L31.0446 7.25293L27.8749 7.27319L24.772 7.33429L21.7359 7.43623L18.7663 7.57901L15.8632 7.76231L13.0269 7.98645L10.2571 8.25143L8.89708 8.39928L7.55377 8.55725" stroke="#303030" stroke-miterlimit="10" stroke-linecap="round" stroke-linejoin="round"/>
<path d="M31.0446 1.20507L30.0033 1.2095L28.9792 1.22312L27.9729 1.24559L26.9839 1.27725L26.0122 1.31809L25.0582 1.3678L24.1216 1.42668L23.2022 1.49443L22.3006 1.57136L21.4163 1.65715L20.5494 1.75213L19.7001 1.85628L18.8681 1.96931L18.0535 2.0915L17.2566 2.22257L16.477 2.36282L15.7148 2.51225L14.9702 2.67054L14.243 2.83801L13.8858 2.92507L13.5331 3.01435L13.1849 3.10584L12.8409 3.19986L12.5014 3.29611L12.166 3.39456L11.8352 3.49524L11.5085 3.59812L11.1863 3.70323L10.8687 3.81055L10.5552 3.92041L10.2461 4.03248L9.94132 4.14676L9.64099 4.26326L9.34515 4.38198L9.0535 4.50292L8.76632 4.62607L8.48334 4.75175L8.20485 4.87965L7.93053 5.00977L7.66073 5.1421L7.39539 5.27665L7.13425 5.41341L6.8776 5.55239L6.62514 5.69391L6.37715 5.83763L6.35884 5.84872L6.34086 5.86011L6.32287 5.87183L6.3052 5.88385L6.28785 5.89589L6.27052 5.90823C6.2535 5.92089 6.23678 5.93419 6.23678 5.93419C6.22008 5.94749 6.20402 5.9611 6.20402 5.9611C6.18796 5.97503 6.17222 5.98928 6.17222 5.98928C6.15648 6.00384 6.14138 6.0184 6.14138 6.0184C6.12628 6.03328 6.11152 6.04848 6.11152 6.04848C6.09707 6.06399 6.0826 6.0795 6.0826 6.0795C6.06847 6.09533 6.05498 6.11179 6.05498 6.11179C6.04149 6.12826 6.02832 6.14472 6.02832 6.14472L6.01547 6.1615L6.00295 6.17859L5.99073 6.19601L5.97885 6.21342L5.96729 6.23115L5.95605 6.24919L5.94513 6.26724L5.93452 6.2856L5.92425 6.30396L5.91429 6.32264L5.90465 6.34132L5.89533 6.36031L5.88634 6.37931L5.87767 6.39862L5.86932 6.41793L5.86128 6.43756L5.85357 6.45719L5.84618 6.47713L5.83913 6.49707L5.83238 6.51702L5.82628 6.53728L5.8205 6.55754L5.81503 6.5778L5.80989 6.59838L5.80507 6.61896L5.80058 6.63954L5.79641 6.66011L5.79254 6.68101L5.78901 6.7019L5.78613 6.7228L5.78355 6.74369L5.78131 6.76459L5.77937 6.78548L5.77778 6.80638L5.77649 6.82727L5.77553 6.84848L5.77519 6.86969L5.77519 6.8909L5.77553 6.91212L5.77617 6.93333L5.77713 6.95422L5.77841 6.97512L5.78035 6.99601L5.78258 7.01691L5.78515 7.0378L5.78805 7.05869L5.79127 7.07959L5.7948 7.10048L5.79866 7.12106L5.80315 7.14164L5.80797 7.16222L5.81311 7.18279L5.81856 7.20306L5.82434 7.22332L5.83046 7.24358L5.83687 7.26352L5.84362 7.28347L5.85069 7.30341L5.85808 7.32304L5.8661 7.34267L5.87445 7.36198L5.88314 7.38129L5.89212 7.4006L5.90143 7.4196L5.91108 7.4386L5.92104 7.45727L5.93131 7.47563L5.94192 7.49399L5.95284 7.51204L5.96407 7.53008L5.97564 7.54781L5.98752 7.56523L5.99973 7.58264L6.33539 8.05498L6.34792 8.07208L6.36078 8.08917C6.37395 8.10595 6.38711 8.12241 6.38711 8.12241C6.40092 8.13887 6.41474 8.15502 6.41474 8.15502C6.42887 8.17085 6.44332 8.18637 6.44332 8.18637C6.4581 8.20188 6.4732 8.21675 6.4732 8.21675C6.48862 8.23163 6.50404 8.2462 6.50404 8.2462C6.51978 8.26044 6.53584 8.27469 6.53584 8.27469C6.55222 8.2883 6.5686 8.30191 6.5686 8.30191C6.5853 8.31521 6.60232 8.32787 6.60232 8.32787L6.61967 8.34054L6.63702 8.35288L6.65468 8.36492L6.67266 8.37663L6.69066 8.38803L6.70897 8.39911L6.7276 8.40987L6.74622 8.42032L6.76518 8.43045L6.78414 8.44026L6.80341 8.44976L6.82268 8.45894L6.84227 8.4678L6.86187 8.47636L6.88177 8.48458L6.90169 8.4925L6.92192 8.5001L6.94218 8.50706L6.96241 8.51371L6.98295 8.52004L7.00352 8.52606L7.02407 8.53175L7.04495 8.53713L7.06583 8.5422L7.08671 8.54695L7.10792 8.55139L7.12911 8.55518L7.1503 8.55867L7.17152 8.56183L7.19271 8.56468L7.2139 8.56721L7.23543 8.56943L7.25696 8.57101L7.27848 8.57228L7.29999 8.57323L7.32152 8.57386L7.34304 8.57418L7.36457 8.57418L7.38608 8.57386L7.4076 8.57291L7.42913 8.57164L7.45064 8.57006L7.47216 8.56816L7.49369 8.56594L7.51488 8.56341L7.5361 8.56025L7.55729 8.55677L7.57848 8.55296L7.5997 8.54885L7.62058 8.54442L7.64145 8.53967L7.66231 8.5346L7.68319 8.5289L7.70376 8.52289L7.72433 8.51656L7.74487 8.50991L7.7651 8.50295L7.78536 8.49566L7.80526 8.48806L7.82518 8.48015L7.84478 8.47192L7.86437 8.46337L7.88395 8.45451L7.90322 8.44501L7.92252 8.4352L7.94145 8.42507L7.96008 8.41462L7.97872 8.40386L8.17274 8.2921L8.37093 8.18162L8.57296 8.07239L8.77919 7.96412L8.98926 7.85712L9.2035 7.75138L9.42192 7.6469L9.64421 7.5437L9.87065 7.44176L10.101 7.34108L10.3354 7.24168L10.5741 7.14354L10.8166 7.04666L11.0633 6.95137L11.3142 6.85735L11.5692 6.76459L11.8281 6.67341L12.0912 6.5835L12.3585 6.49517L12.6299 6.40843L12.9051 6.32296L13.1846 6.23906L13.4682 6.15675L13.756 6.07602L14.3439 5.919L14.9484 5.76862L15.5693 5.62457L16.2069 5.48718L16.9711 5.33585L17.757 5.1937L18.5652 5.06105L19.3952 4.93759L20.2471 4.82362L21.1208 4.71914L22.0163 4.62449L22.9337 4.53933L23.8726 4.46398L24.833 4.39844L25.815 4.34273L26.8184 4.29714L27.8431 4.26168L28.889 4.23604L29.9564 4.22084L31.0446 4.21578L32.1329 4.22084L33.2003 4.23604L34.2462 4.26168L35.2708 4.29714L36.2743 4.34272L37.2562 4.39844L38.2167 4.46397L39.1556 4.53932L40.0729 4.62448L40.9685 4.71914L41.8422 4.82361L42.694 4.93758L43.524 5.06105L44.3322 5.1937L45.1182 5.33584L45.8824 5.48717L46.52 5.62457L47.1409 5.76861L47.7454 5.91899L48.3332 6.07602L48.621 6.15674L48.9047 6.23906L49.1841 6.32295L49.4594 6.40842L49.7308 6.49517L49.9981 6.5835L50.2612 6.67341L50.5201 6.76458L50.7751 6.85734L51.0259 6.95137L51.2726 7.04666L51.5152 7.14353L51.7538 7.24167L51.9883 7.34108L52.2186 7.44175L52.4451 7.54369L52.6674 7.6469L52.8858 7.75137L53.1 7.85711L53.3101 7.96411L53.5163 8.07239L53.7184 8.18161L53.9165 8.2921L54.1106 8.40385L54.1292 8.41461L54.1478 8.42506L54.1668 8.43519L54.186 8.445L54.2053 8.4545L54.2249 8.46337L54.2445 8.47191L54.2644 8.48014L54.2843 8.48806L54.3043 8.49566L54.3245 8.50294L54.3447 8.5099L54.3653 8.51655L54.3858 8.52288L54.4064 8.52889L54.4273 8.5346L54.4482 8.53966L54.469 8.54441L54.4899 8.54884L54.5111 8.55296L54.5323 8.55676L54.5535 8.56024L54.5747 8.56341L54.5959 8.56594L54.6174 8.56815L54.639 8.57005L54.6605 8.57164L54.682 8.5729L54.7035 8.57385L54.725 8.57417L54.7466 8.57417L54.7681 8.57385L54.7896 8.57322L54.8111 8.57227L54.8326 8.571L54.8542 8.56942L54.8757 8.5672L54.8969 8.56467L54.9181 8.56182L54.9393 8.55866L54.9605 8.55517L54.9817 8.55138L55.0026 8.54694L55.0234 8.54219L55.0443 8.53713L55.0652 8.53174L55.0858 8.52605L55.1063 8.52003L55.1269 8.5137L55.1471 8.50706L55.1673 8.50009L55.1876 8.49249L55.2075 8.48457L55.2274 8.47635L55.247 8.4678L55.2666 8.45893L55.2859 8.44975L55.3051 8.44025L55.3241 8.43044L55.343 8.42031L55.3617 8.40986L55.3803 8.3991L55.3986 8.38802L55.4166 8.37662L55.4346 8.36491L55.4523 8.35287L55.4696 8.34053L55.4869 8.32787C55.504 8.31489 55.5207 8.30191 55.5207 8.30191C55.5374 8.28829 55.5534 8.27468 55.5534 8.27468C55.5695 8.26075 55.5852 8.24619 55.5852 8.24619C55.6007 8.23163 55.6161 8.21675 55.6161 8.21675C55.6312 8.20155 55.646 8.18636 55.646 8.18636C55.6604 8.17084 55.6745 8.15501 55.6745 8.15501C55.6884 8.13886 55.7022 8.1224 55.7022 8.1224C55.7157 8.10594 55.7285 8.08916 55.7285 8.08916L55.7414 8.07207L55.7539 8.05497L56.0896 7.58263L56.1017 7.56522L56.1136 7.5478L56.1252 7.53008L56.1364 7.51203L56.1474 7.49399L56.158 7.47562L56.1682 7.45726L56.1782 7.43859L56.1878 7.41959L56.1971 7.40059L56.2061 7.38128L56.2148 7.36197L56.2232 7.34266L56.2312 7.32303L56.2386 7.30341L56.2456 7.28346L56.2524 7.26351L56.2588 7.24357L56.2649 7.22331L56.2707 7.20305L56.2762 7.18278L56.2813 7.16221L56.2861 7.14163L56.2903 7.12105L56.2941 7.10047L56.2977 7.07958L56.3009 7.05868L56.3038 7.03779L56.3064 7.0169L56.3086 6.996L56.3105 6.97511L56.3118 6.95421L56.3128 6.93332L56.3134 6.91211L56.3138 6.8909L56.3138 6.86968L56.3134 6.84847L56.3125 6.82726L56.3112 6.80637L56.3096 6.78548L56.3077 6.76458L56.3054 6.74369L56.3028 6.72279L56.2999 6.7019L56.2967 6.681L56.2929 6.66011L56.2887 6.63953L56.2842 6.61895L56.2794 6.59837L56.2743 6.5778L56.2688 6.55754L56.263 6.53728L56.2569 6.51701L56.2502 6.49707L56.2431 6.47712L56.2357 6.45718L56.228 6.43755L56.22 6.41792L56.2116 6.39861L56.2029 6.3793L56.1939 6.3603L56.1846 6.34131L56.175 6.32263L56.165 6.30395L56.1548 6.28559L56.1442 6.26723L56.1332 6.24918L56.122 6.23114L56.1104 6.21341L56.0985 6.196L56.0863 6.17858L56.0738 6.16149L56.061 6.14471C56.0478 6.12793 56.0343 6.11179 56.0343 6.11179C56.0205 6.09564 56.0067 6.07949 56.0067 6.07949C55.9925 6.06366 55.9778 6.04847 55.9778 6.04847C55.963 6.03327 55.9479 6.01839 55.9479 6.01839C55.9325 6.00383 55.9171 5.98927 55.9171 5.98927C55.9013 5.97502 55.8853 5.96109 55.8853 5.96109C55.8689 5.94748 55.8525 5.93418 55.8525 5.93418C55.8358 5.9212 55.8188 5.90822 55.8188 5.90822L55.8014 5.89588L55.7841 5.88385L55.7664 5.87182L55.7484 5.8601L55.7304 5.84871L55.7121 5.83763L55.4641 5.6939L55.2117 5.55238L54.955 5.41341L54.6939 5.27664L54.4286 5.14209L54.1587 5.00976L53.8844 4.87965L53.6059 4.75174L53.3229 4.62606L53.0358 4.50291L52.7441 4.38198L52.448 4.26326L52.1476 4.14676L51.8428 4.03247L51.5338 3.9204L51.2203 3.81055L50.9026 3.70322L50.5804 3.59812L50.2538 3.49523L49.9229 3.39456L49.5876 3.2961L49.248 3.19986L48.904 3.10583L48.5558 3.01434L48.2031 2.92507L47.846 2.838L47.1187 2.67053L46.3742 2.51224L45.6119 2.36281L44.8323 2.22257L44.0354 2.0915L43.2208 1.9693L42.3889 1.85628L41.5396 1.75213L40.6726 1.65715L39.7883 1.57136L38.8867 1.49443L37.9674 1.42668L37.0308 1.36779L36.0767 1.31809L35.1051 1.27725L34.1161 1.24559L33.1097 1.22312L32.0857 1.2095L31.0446 1.20507Z" fill="white" stroke="#303030" stroke-miterlimit="10" stroke-linecap="round" stroke-linejoin="round"/>
</g>
<defs>
<filter id="filter0_d_560_18675" x="0.499985" y="0.5" width="61" height="71" filterUnits="userSpaceOnUse" color-interpolation-filters="sRGB">
<feFlood flood-opacity="0" result="BackgroundImageFix"/>
<feColorMatrix in="SourceAlpha" type="matrix" values="0 0 0 0 0 0 0 0 0 0 0 0 0 0 0 0 0 0 127 0" result="hardAlpha"/>
<feOffset dy="4"/>
<feGaussianBlur stdDeviation="2"/>
<feComposite in2="hardAlpha" operator="out"/>
<feColorMatrix type="matrix" values="0 0 0 0 0 0 0 0 0 0 0 0 0 0 0 0 0 0 0.25 0"/>
<feBlend mode="normal" in2="BackgroundImageFix" result="effect1_dropShadow_560_18675"/>
<feBlend mode="normal" in="SourceGraphic" in2="effect1_dropShadow_560_18675" result="shape"/>
</filter>
</defs>
</svg>
