<svg width="98" height="77" viewBox="0 0 98 77" fill="none" xmlns="http://www.w3.org/2000/svg">
<path d="M96.5202 0.974609H1.4798V76.0252H96.5202V0.974609Z" fill="white" stroke="#303030" stroke-miterlimit="10" stroke-linecap="round" stroke-linejoin="round"/>
<path d="M68.1632 13.3535C69.8837 13.3535 71.6041 13.3535 73.3246 13.3535C76.5468 13.3535 79.7691 13.3535 82.9914 13.3535C84.8881 13.3535 86.7886 13.3195 88.6854 13.3535C89.36 13.3655 89.972 13.7409 90.2157 14.3735C90.3274 14.6628 90.3199 14.9509 90.3199 15.2519C90.3199 16.5381 90.3199 17.8244 90.3199 19.1103C90.3199 21.4924 90.3199 23.8745 90.3199 26.2566C90.3199 29.3031 90.3199 32.3499 90.3199 35.3964C90.3199 38.6681 90.3199 41.9394 90.3199 45.2111C90.3199 48.3085 90.3199 51.4059 90.3199 54.5033C90.3199 56.9604 90.3199 59.4174 90.3199 61.8742C90.3199 63.2878 90.3199 64.7017 90.3199 66.1153C90.3199 66.3411 90.3343 66.573 90.313 66.7982C90.2421 67.5434 89.6263 68.1526 88.8685 68.2247C88.3275 68.2763 87.7641 68.2321 87.2218 68.2321C85.7551 68.2321 84.2887 68.2321 82.822 68.2321C80.6069 68.2321 78.3918 68.2321 76.1767 68.2321C73.3998 68.2321 70.6233 68.2321 67.8464 68.2321C64.6806 68.2321 61.5151 68.2321 58.3493 68.2321C55.0282 68.2321 51.7068 68.2321 48.3857 68.2321C45.0734 68.2321 41.7608 68.2321 38.4485 68.2321C35.3501 68.2321 32.2517 68.2321 29.153 68.2321C26.4712 68.2321 23.7891 68.2321 21.1072 68.2321C19.0141 68.2321 16.9208 68.2321 14.8277 68.2321C13.5435 68.2321 12.2591 68.2321 10.9749 68.2321C10.3272 68.2321 9.59825 68.3253 9.04463 67.9256C8.26423 67.3617 8.38876 66.4447 8.38876 65.6138C8.38876 63.9642 8.38876 62.3143 8.38876 60.6648C8.38876 58.0436 8.38876 55.4225 8.38876 52.8013C8.38876 49.6413 8.38876 46.4813 8.38876 43.3216C8.38876 40.0623 8.38876 36.8029 8.38876 33.5436C8.38876 30.5847 8.38876 27.6258 8.38876 24.6669C8.38876 22.4729 8.38876 20.279 8.38876 18.085C8.38876 17.0606 8.38092 16.0363 8.38876 15.012C8.39629 14.0157 9.14469 13.3535 10.1349 13.3532C11.2444 13.3532 12.3538 13.3532 13.4632 13.3532C15.7147 13.3532 17.9659 13.3532 20.2174 13.3532C23.1868 13.3532 26.1566 13.3532 29.1261 13.3532C32.4312 13.3532 35.7362 13.3532 39.0413 13.3532C42.3075 13.3532 45.5734 13.3532 48.8396 13.3532C51.6306 13.3532 54.4213 13.3532 57.2122 13.3532C59.1595 13.3532 61.1067 13.3532 63.0536 13.3532C63.7512 13.3532 64.4488 13.3532 65.1464 13.3532" stroke="#303030" stroke-miterlimit="10" stroke-linecap="round" stroke-linejoin="round"/>
<path d="M65.147 17.4402C62.2559 17.4402 59.3646 17.4402 56.4735 17.4402C55.5165 17.4402 54.532 17.381 53.5775 17.4785C52.2965 17.6093 51.0613 18.0803 50.0236 18.8298C48.1392 20.1909 47.0683 22.3726 47.063 24.6594C47.0589 26.4598 47.063 28.2602 47.063 30.0605C47.063 33.5663 47.063 37.0718 47.063 40.5776C47.063 44.0988 47.063 47.6196 47.063 51.1409C47.063 53.0486 47.0614 54.9566 47.063 56.8643C47.0645 59.0722 48.0121 61.1715 49.7733 62.5672C50.7677 63.3552 51.974 63.8768 53.2368 64.0647C53.8836 64.1609 54.5338 64.1461 55.1853 64.1461C58.0961 64.1461 61.0069 64.1461 63.9181 64.1461C67.5359 64.1461 71.1537 64.1461 74.7712 64.1461C75.9135 64.1461 77.0559 64.1461 78.1983 64.1461C78.8792 64.1461 79.5549 64.1557 80.2296 64.04C82.7869 63.6014 84.9631 61.7964 85.8294 59.389C86.3598 57.9152 86.2472 56.3542 86.2472 54.8181C86.2472 51.8524 86.2472 48.8867 86.2472 45.921C86.2472 42.2111 86.2472 38.5011 86.2472 34.7915C86.2472 31.9609 86.2472 29.1306 86.2472 26.3C86.2472 24.6902 86.2924 23.1366 85.5945 21.6261C84.5161 19.2921 82.1736 17.6725 79.5752 17.4646C78.6007 17.3866 77.6048 17.4405 76.6287 17.4405C74.7916 17.4405 72.9544 17.4405 71.1173 17.4405C70.1324 17.4405 69.1478 17.4405 68.1629 17.4405" fill="#ECEDF1"/>
<path d="M65.147 17.4402C62.2559 17.4402 59.3646 17.4402 56.4735 17.4402C55.5165 17.4402 54.532 17.381 53.5775 17.4785C52.2965 17.6093 51.0613 18.0803 50.0236 18.8298C48.1392 20.1909 47.0683 22.3726 47.063 24.6594C47.0589 26.4598 47.063 28.2602 47.063 30.0605C47.063 33.5663 47.063 37.0718 47.063 40.5776C47.063 44.0988 47.063 47.6197 47.063 51.1408C47.063 53.0486 47.0614 54.9566 47.063 56.8643C47.0645 59.0722 48.0121 61.1715 49.7733 62.5672C50.7677 63.3552 51.974 63.8768 53.2368 64.0647C53.8836 64.1609 54.5338 64.1461 55.1853 64.1461C58.0961 64.1461 61.0069 64.1461 63.9181 64.1461C67.5359 64.1461 71.1537 64.1461 74.7712 64.1461C75.9135 64.1461 77.0559 64.1461 78.1983 64.1461C78.8792 64.1461 79.5549 64.1557 80.2296 64.04C82.7869 63.6014 84.9631 61.7964 85.8294 59.389C86.3598 57.9152 86.2472 56.3542 86.2472 54.8181C86.2472 51.8524 86.2472 48.8867 86.2472 45.921C86.2472 42.2111 86.2472 38.5011 86.2472 34.7915C86.2472 31.9609 86.2472 29.1306 86.2472 26.3C86.2472 24.6902 86.2924 23.1366 85.5945 21.6261C84.5161 19.2921 82.1736 17.6725 79.5752 17.4646C78.6007 17.3866 77.6048 17.4405 76.6287 17.4405C74.7916 17.4405 72.9544 17.4405 71.1173 17.4405C70.1324 17.4405 69.1478 17.4405 68.1629 17.4405" stroke="#303030" stroke-miterlimit="10" stroke-linecap="round" stroke-linejoin="round"/>
<path d="M66.6552 37.0056C65.8645 37.0072 65.084 37.2488 64.4373 37.6967C63.7917 38.1439 63.2953 38.7855 63.0293 39.5166C62.7631 40.2477 62.7328 41.0532 62.943 41.8016C63.1534 42.5503 63.6006 43.2267 64.211 43.7197C64.8193 44.211 65.5777 44.5102 66.3625 44.569C67.1528 44.6284 67.9538 44.4422 68.6337 44.0419C69.3113 43.6429 69.8547 43.0394 70.1751 42.3297C70.4945 41.6225 70.5862 40.8238 70.4345 40.0642C70.2825 39.3018 69.8889 38.5942 69.3182 38.0569C68.7497 37.5216 68.0166 37.1665 67.2387 37.0493C67.0458 37.0203 66.8505 37.0056 66.6552 37.0056Z" fill="#303030" stroke="#303030" stroke-miterlimit="10" stroke-linecap="round" stroke-linejoin="round"/>
<path d="M43.7485 40.7927H13.5884" stroke="#303030" stroke-miterlimit="10" stroke-linecap="round" stroke-linejoin="round"/>
<path d="M43.7485 24.585H13.5884" stroke="#303030" stroke-miterlimit="10" stroke-linecap="round" stroke-linejoin="round"/>
<path d="M43.7485 32.6887H13.5884" stroke="#303030" stroke-miterlimit="10" stroke-linecap="round" stroke-linejoin="round"/>
<path d="M43.7485 48.897H13.5884" stroke="#303030" stroke-miterlimit="10" stroke-linecap="round" stroke-linejoin="round"/>
<path d="M43.7485 57.001H13.5884" stroke="#303030" stroke-miterlimit="10" stroke-linecap="round" stroke-linejoin="round"/>
<path d="M66.6551 31.262C66.003 31.2569 65.4127 30.8758 65.2163 30.3153C65.1128 30.0196 65.147 29.6905 65.147 29.3849C65.147 27.5984 65.147 25.8122 65.147 24.0256C65.147 21.3807 65.147 18.736 65.147 16.0911C65.147 13.856 65.147 11.6209 65.147 9.38602C65.147 8.82949 65.147 8.27295 65.147 7.71614C65.147 7.11295 65.3616 6.54967 66.0306 6.27702C66.9791 5.89054 68.097 6.49879 68.1604 7.43169C68.1814 7.73806 68.1629 8.04978 68.1629 8.35615C68.1629 10.2835 68.1629 12.2111 68.1629 14.1385C68.1629 16.8067 68.1629 19.4747 68.1629 22.143C68.1629 24.2564 68.1629 26.3695 68.1629 28.483C68.1629 29.2967 68.3953 30.4291 67.5603 30.991C67.2994 31.167 66.981 31.2594 66.6551 31.262Z" fill="white" stroke="#303030" stroke-miterlimit="10" stroke-linecap="round" stroke-linejoin="round"/>
<path d="M68.1632 27.6892C68.1512 28.855 66.3784 29.4102 65.4926 28.5023C65.2705 28.2747 65.1479 27.9845 65.1473 27.6892" stroke="#303030" stroke-miterlimit="10" stroke-linecap="round" stroke-linejoin="round"/>
<path d="M68.1631 10.2069C69.0637 9.69306 69.644 8.73781 69.67 7.71316C69.6963 6.69005 69.1666 5.70364 68.2927 5.14813C67.4188 4.59232 66.2868 4.52199 65.3486 4.96523C64.4108 5.40846 63.759 6.32146 63.6542 7.33963C63.5494 8.35781 64.0018 9.38061 64.8305 9.99996C64.9315 10.0755 65.0372 10.1443 65.1469 10.2069" stroke="#303030" stroke-miterlimit="10" stroke-linecap="round" stroke-linejoin="round"/>
<path d="M75.3514 7.63841C75.3379 7.25409 74.8427 7.06255 74.587 7.37223C74.3483 7.66124 74.5989 8.1054 74.9753 8.0579C75.1911 8.03045 75.3458 7.84908 75.3514 7.63841Z" stroke="#303030" stroke-miterlimit="10" stroke-linecap="round" stroke-linejoin="round"/>
<path d="M68.4135 10.0481C69.3435 10.0481 70.2735 10.0481 71.2035 10.0481C71.4601 10.0481 71.7167 10.0481 71.9729 10.0481C72.0752 10.0481 72.338 10.0975 72.4299 10.0481C72.5322 9.99292 72.4738 9.64345 72.4738 9.51113C72.4738 8.3742 72.4738 7.23728 72.4738 6.10004C72.4738 5.90017 72.4738 5.7003 72.4738 5.50043C72.4738 5.46095 72.5033 5.26416 72.4738 5.23177C72.4531 5.20895 72.2954 5.22931 72.2637 5.22931C72.0482 5.22931 71.833 5.22931 71.6175 5.22931C70.5495 5.22931 69.4815 5.22931 68.4135 5.22931" stroke="#303030" stroke-miterlimit="10" stroke-linecap="round" stroke-linejoin="round"/>
<path d="M72.4736 9.81079H72.9199" stroke="#303030" stroke-miterlimit="10" stroke-linecap="round" stroke-linejoin="round"/>
<path d="M72.4736 5.46606H72.9199" stroke="#303030" stroke-miterlimit="10" stroke-linecap="round" stroke-linejoin="round"/>
<path d="M72.9199 10.0479C73.4509 10.0479 73.982 10.0479 74.513 10.0479C74.8797 10.0479 75.2464 10.0479 75.613 10.0479C75.688 10.0479 76.1099 10.104 76.167 10.0479C76.2008 10.0146 76.1685 9.79251 76.1685 9.74563C76.1685 9.47173 76.1685 9.19752 76.1685 8.92363C76.1685 8.17657 76.1685 7.42921 76.1685 6.68216C76.1685 6.37002 76.1685 6.05787 76.1685 5.74573C76.1685 5.65258 76.2247 5.33149 76.1685 5.25407C76.129 5.19978 75.9556 5.22877 75.8731 5.22877C75.5437 5.22877 75.2147 5.22877 74.8853 5.22877C74.5017 5.22877 74.1181 5.22877 73.7345 5.22877C73.5513 5.22877 73.1432 5.15074 72.9745 5.22877C72.8324 5.29447 72.9199 5.92894 72.9199 6.09982C72.9199 7.41564 72.9199 8.73177 72.9199 10.0479Z" stroke="#303030" stroke-miterlimit="10" stroke-linecap="round" stroke-linejoin="round"/>
</svg>
