<svg width="101" height="100" viewBox="0 0 101 100" fill="none" xmlns="http://www.w3.org/2000/svg">
<path d="M1.5675 89.1735V94.0563H7.15727V98.9391H11.2424V94.0563H99.6067V89.1735V0.876221H1.5675V89.1735Z" fill="white" stroke="#303030" stroke-miterlimit="10" stroke-linecap="round" stroke-linejoin="round"/>
<path d="M57.9272 36.7076L52.3184 44.08V44.198L61.2289 43.0192V47.0303L52.3184 45.9682V46.0862L57.9803 53.1656L54.2675 55.2885L50.7271 47.0303H50.6078L46.7758 55.3481L43.4079 53.2253L49.0167 46.0279V45.9099L40.2784 47.0303V43.0192L48.9504 44.1397V44.0217L43.4079 36.8256L47.0145 34.7597L50.6609 42.9609H50.7802L54.3868 34.7014L57.9272 36.7076Z" fill="#303030"/>
<path d="M99.6067 89.1733H1.56744V94.0562H99.6067V89.1733Z" stroke="#303030" stroke-miterlimit="10" stroke-linecap="round" stroke-linejoin="round"/>
<path d="M99.6067 0.875977H1.5675V89.1736H99.6067V0.875977Z" stroke="#303030" stroke-miterlimit="10" stroke-linecap="round" stroke-linejoin="round"/>
<path d="M11.2423 94.0562H7.15723V98.939H11.2423V94.0562Z" stroke="#303030" stroke-miterlimit="10" stroke-linecap="round" stroke-linejoin="round"/>
</svg>
