<svg width="89" height="83" viewBox="0 0 89 83" fill="none" xmlns="http://www.w3.org/2000/svg">
<rect x="76.6083" y="74.3472" width="5.8381" height="4.53687" fill="white" stroke="#303030"/>
<rect x="6.34271" y="74.3472" width="5.8381" height="4.53687" fill="white" stroke="#303030"/>
<path d="M44.545 74.9941C44.8826 74.9941 45.2427 74.9941 45.5803 74.9941C46.5256 74.9941 47.4709 74.9941 48.3936 74.9941C49.789 74.9941 51.2069 74.9941 52.6023 74.9941C54.3353 74.9941 56.0458 74.9941 57.7788 74.9941C59.6918 74.9941 61.6049 74.9941 63.5179 74.9941C65.4985 74.9941 67.4565 74.9941 69.4371 74.9941C71.3276 74.9941 73.2182 74.9941 75.1087 74.9941C76.7742 74.9941 78.4397 74.9941 80.1051 74.9941C81.4105 74.9941 82.7384 74.9941 84.0438 74.9941C84.8765 74.9941 85.6867 74.9941 86.5195 74.9941C86.9021 74.9941 87.3522 75.062 87.6673 74.8358C88.0274 74.587 88.0274 74.2026 88.0274 73.8181C88.0274 73.3432 88.0274 72.8682 88.0274 72.3933C88.0274 71.5565 88.0274 70.7423 88.0274 69.9056C88.0274 68.7748 88.0274 67.6214 88.0274 66.4906C88.0274 65.0884 88.0274 63.6862 88.0274 62.3067C88.0274 60.7009 88.0274 59.0952 88.0274 57.4895C88.0274 55.7255 88.0274 53.9388 88.0274 52.1748C88.0274 50.275 88.0274 48.3979 88.0274 46.4982C88.0274 44.5306 88.0274 42.5857 88.0274 40.6181C88.0274 38.6279 88.0274 36.6603 88.0274 34.6701C88.0274 32.7252 88.0274 30.7576 88.0274 28.8126C88.0274 26.9355 88.0274 25.0358 88.0274 23.1587C88.0274 21.3947 88.0274 19.6306 88.0274 17.844C88.0274 16.2383 88.0274 14.6325 88.0274 13.0494C88.0274 11.6699 88.0274 10.2677 88.0274 8.88812C88.0274 7.75733 88.0274 6.62654 88.0274 5.51837C88.0274 4.7042 88.0274 3.89003 88.0274 3.05324C88.0274 2.60093 88.0274 2.126 88.0274 1.67368C88.0274 1.2666 87.9824 0.859511 87.5773 0.633353C87.2622 0.452427 86.7896 0.520274 86.452 0.520274C85.5967 0.520274 84.764 0.520274 83.9087 0.520274C82.5808 0.520274 81.253 0.520274 79.9251 0.520274C78.2371 0.520274 76.5716 0.520274 74.8837 0.520274C72.9931 0.520274 71.1026 0.520274 69.212 0.520274C67.2315 0.520274 65.2734 0.520274 63.2929 0.520274C61.3798 0.520274 59.4668 0.520274 57.5537 0.520274C55.8433 0.520274 54.1103 0.520274 52.3998 0.520274C51.0269 0.520274 49.6315 0.520274 48.2586 0.520274C47.3358 0.520274 46.4131 0.520274 45.4903 0.520274C45.1752 0.520274 44.8601 0.520274 44.5225 0.520274C44.1624 0.520274 43.7798 0.520274 43.4197 0.520274C42.4519 0.520274 41.5067 0.520274 40.5389 0.520274C39.121 0.520274 37.7031 0.520274 36.2852 0.520274C34.5522 0.520274 32.8192 0.520274 31.0862 0.520274C29.1732 0.520274 27.2376 0.520274 25.3246 0.520274C23.3665 0.520274 21.386 0.520274 19.4279 0.520274C17.5374 0.520274 15.6693 0.520274 13.7788 0.520274C12.1133 0.520274 10.4704 0.520274 8.80489 0.520274C7.52202 0.520274 6.21665 0.520274 4.93379 0.520274C4.12356 0.520274 3.33583 0.520274 2.5256 0.520274C2.12048 0.520274 1.67035 0.452427 1.35526 0.746432C1.06268 1.01782 1.06268 1.35706 1.06268 1.71891C1.06268 2.21646 1.06268 2.69139 1.06268 3.18894C1.06268 4.02572 1.06268 4.88512 1.06268 5.72191C1.06268 6.87532 1.06268 8.02872 1.06268 9.15951C1.06268 10.5617 1.06268 11.9639 1.06268 13.3661C1.06268 14.9718 1.06268 16.6001 1.06268 18.2058C1.06268 19.9925 1.06268 21.7565 1.06268 23.5432C1.06268 25.4429 1.06268 27.3426 1.06268 29.2197C1.06268 31.1873 1.06268 33.1549 1.06268 35.0998C1.06268 37.09 1.06268 39.0576 1.06268 41.0478C1.06268 43.0154 1.06268 44.9603 1.06268 46.9279C1.06268 48.805 1.06268 50.7047 1.06268 52.5819C1.06268 54.3459 1.06268 56.1099 1.06268 57.874C1.06268 59.4571 1.06268 61.0402 1.06268 62.6459C1.06268 64.0255 1.06268 65.405 1.06268 66.7846C1.06268 67.8928 1.06268 69.0236 1.06268 70.1317C1.06268 70.9459 1.06268 71.7374 1.06268 72.5516C1.06268 73.0039 1.06268 73.4562 1.06268 73.8859C1.06268 74.3157 1.15271 74.7453 1.60284 74.9263C1.91793 75.062 2.36805 74.9941 2.70565 74.9941C3.5834 74.9941 4.43865 74.9941 5.3164 74.9941C6.66678 74.9941 8.01716 74.9941 9.34503 74.9941C11.033 74.9941 12.721 74.9941 14.409 74.9941C16.2995 74.9941 18.2126 74.9941 20.1031 74.9941C22.0611 74.9941 24.0192 74.9941 25.9998 74.9941C27.9128 74.9941 29.8034 74.9941 31.7164 74.9941C33.4269 74.9941 35.1374 74.9941 36.8479 74.9941C38.2207 74.9941 39.5936 74.9941 40.9665 74.9941C41.8668 74.9941 42.767 74.9941 43.6673 74.9941C43.9599 74.9941 44.2525 74.9941 44.545 74.9941Z" fill="white" stroke="#303030" stroke-miterlimit="10" stroke-linecap="round" stroke-linejoin="round"/>
<path d="M44.545 74.996C44.2074 74.996 43.8473 74.996 43.5097 74.996C42.5644 74.996 41.6191 74.996 40.6964 74.996C39.301 74.996 37.8831 74.996 36.4877 74.996C34.7547 74.996 33.0442 74.996 31.3112 74.996C29.3982 74.996 27.4851 74.996 25.5721 74.996C23.5915 74.996 21.6335 74.996 19.6529 74.996C17.7624 74.996 15.8718 74.996 13.9813 74.996C12.3158 74.996 10.6503 74.996 8.98488 74.996C7.6795 74.996 6.35163 74.996 5.04626 74.996C4.21352 74.996 3.40329 74.996 2.57055 74.996C2.18794 74.996 1.73781 75.0563 1.42272 74.8553C1.06262 74.6342 1.06262 74.2925 1.06262 73.9508C1.06262 73.5287 1.06262 73.1067 1.06262 72.6846C1.06262 71.9409 1.06262 71.2173 1.06262 70.4736C1.06262 69.4687 1.06262 68.4436 1.06262 67.4386C1.06262 66.1925 1.06262 64.9463 1.06262 63.7202C1.06262 62.2932 1.06262 60.8661 1.06262 59.4391C1.06262 57.8713 1.06262 56.2835 1.06262 54.7157C1.06262 53.0274 1.06262 51.3591 1.06262 49.6708C1.06262 47.9221 1.06262 46.1936 1.06262 44.4449C1.06262 42.6762 1.06262 40.9275 1.06262 39.1588C1.06262 37.4302 1.06262 35.6816 1.06262 33.953C1.06262 32.2848 1.06262 30.5964 1.06262 28.9282C1.06262 27.3604 1.06262 25.7927 1.06262 24.2048C1.06262 22.7778 1.06262 21.3507 1.06262 19.9437C1.06262 18.7177 1.06262 17.4715 1.06262 16.2455C1.06262 15.2405 1.06262 14.2355 1.06262 13.2506C1.06262 12.5271 1.06262 11.8035 1.06262 11.0598C1.06262 10.6578 1.06262 10.2357 1.06262 9.83375C1.06262 9.47196 1.10763 9.11017 1.51275 8.90918C1.82784 8.74838 2.30047 8.80868 2.63807 8.80868C3.49331 8.80868 4.32605 8.80868 5.18129 8.80868C6.50917 8.80868 7.83705 8.80868 9.16492 8.80868C10.8529 8.80868 12.5184 8.80868 14.2064 8.80868C16.0969 8.80868 17.9874 8.80868 19.878 8.80868C21.8585 8.80868 23.8166 8.80868 25.7972 8.80868C27.7102 8.80868 29.6232 8.80868 31.5363 8.80868C33.2468 8.80868 34.9798 8.80868 36.6902 8.80868C38.0631 8.80868 39.4585 8.80868 40.8314 8.80868C41.7542 8.80868 42.6769 8.80868 43.5997 8.80868C43.9148 8.80868 44.2299 8.80868 44.5675 8.80868C44.9276 8.80868 45.3102 8.80868 45.6703 8.80868C46.6381 8.80868 47.5833 8.80868 48.5511 8.80868C49.969 8.80868 51.3869 8.80868 52.8048 8.80868C54.5378 8.80868 56.2708 8.80868 58.0038 8.80868C59.9168 8.80868 61.8524 8.80868 63.7654 8.80868C65.7235 8.80868 67.7041 8.80868 69.6621 8.80868C71.5527 8.80868 73.4207 8.80868 75.3112 8.80868C76.9767 8.80868 78.6197 8.80868 80.2851 8.80868C81.568 8.80868 82.8734 8.80868 84.1562 8.80868C84.9665 8.80868 85.7542 8.80868 86.5644 8.80868C86.9695 8.80868 87.4197 8.74838 87.7347 9.00968C88.0273 9.25087 88.0273 9.55236 88.0273 9.87395C88.0273 10.3161 88.0273 10.7382 88.0273 11.1804C88.0273 11.9241 88.0273 12.6879 88.0273 13.4315C88.0273 14.4566 88.0273 15.4817 88.0273 16.4867C88.0273 17.7328 88.0273 18.979 88.0273 20.2251C88.0273 21.6522 88.0273 23.0994 88.0273 24.5264C88.0273 26.1143 88.0273 27.682 88.0273 29.2699C88.0273 30.9582 88.0273 32.6466 88.0273 34.3148C88.0273 36.0635 88.0273 37.8121 88.0273 39.5407C88.0273 41.3094 88.0273 43.0581 88.0273 44.8268C88.0273 46.5755 88.0273 48.304 88.0273 50.0527C88.0273 51.7209 88.0273 53.4092 88.0273 55.0775C88.0273 56.6453 88.0273 58.213 88.0273 59.7808C88.0273 61.1877 88.0273 62.5947 88.0273 64.0217C88.0273 65.2478 88.0273 66.4739 88.0273 67.6999C88.0273 68.6848 88.0273 69.6898 88.0273 70.6746C88.0273 71.3982 88.0273 72.1017 88.0273 72.8253C88.0273 73.2273 88.0273 73.6292 88.0273 74.0111C88.0273 74.393 87.9373 74.7749 87.4872 74.9357C87.1721 75.0563 86.722 74.996 86.3844 74.996C85.5066 74.996 84.6514 74.996 83.7736 74.996C82.4232 74.996 81.0729 74.996 79.745 74.996C78.057 74.996 76.369 74.996 74.681 74.996C72.7905 74.996 70.8775 74.996 68.9869 74.996C67.0289 74.996 65.0708 74.996 63.0902 74.996C61.1772 74.996 59.2867 74.996 57.3736 74.996C55.6631 74.996 53.9527 74.996 52.2422 74.996C50.8693 74.996 49.4964 74.996 48.1235 74.996C47.2232 74.996 46.323 74.996 45.4227 74.996C45.1301 74.996 44.8376 74.996 44.545 74.996Z" fill="white" stroke="#303030" stroke-miterlimit="10" stroke-linecap="round" stroke-linejoin="round"/>
<path d="M72.4448 54.1991C72.4348 53.4355 72.3248 52.6719 72.0948 51.9485C71.8649 51.2351 71.5349 50.5519 71.105 49.939C70.665 49.3161 70.1351 48.7535 69.5252 48.2913C68.9252 47.8291 68.2553 47.4674 67.5454 47.2162C66.8455 46.965 66.0956 46.8244 65.3557 46.7942C64.5958 46.7641 63.8259 46.8545 63.086 47.0655C62.3661 47.2664 61.6762 47.5779 61.0463 47.9899C60.4163 48.4018 59.8364 48.9142 59.3565 49.507C58.8766 50.0998 58.4866 50.7629 58.2066 51.4763C57.9267 52.1695 57.7567 52.913 57.7067 53.6565C57.6467 54.4201 57.7067 55.1938 57.8867 55.9473C58.0567 56.6808 58.3466 57.3841 58.7366 58.0372C59.1265 58.6902 59.6065 59.273 60.1664 59.7754C60.7363 60.2878 61.3862 60.6997 62.0861 61.0112C62.766 61.3126 63.496 61.5135 64.2359 61.5939C64.9958 61.6843 65.7557 61.6442 66.5056 61.5035C67.2455 61.3528 67.9654 61.0916 68.6253 60.7299C69.2852 60.3681 69.8851 59.906 70.3951 59.3634C70.925 58.8108 71.3649 58.1678 71.6949 57.4846C72.0248 56.8114 72.2448 56.088 72.3548 55.3445C72.4148 54.9426 72.4448 54.5708 72.4448 54.1991Z" fill="#303030"/>
<path d="M65.0645 40.2795V68.2732" stroke="#303030" stroke-linecap="round"/>
<path d="M51.0677 54.2764L79.0613 54.2764" stroke="#303030" stroke-linecap="round"/>
<path d="M76.5002 54.19C76.4847 53.0069 76.3143 51.8237 75.958 50.7028C75.6016 49.5974 75.0904 48.5388 74.4242 47.5891C73.7425 46.6239 72.9214 45.7521 71.9763 45.0359C71.0467 44.3198 70.0087 43.7593 68.9087 43.3701C67.8242 42.9809 66.6622 42.763 65.5158 42.7163C64.3383 42.6696 63.1454 42.8097 61.9989 43.1366C60.8834 43.448 59.8144 43.9306 58.8383 44.5689C57.8623 45.2072 56.9637 46.0012 56.22 46.9197C55.4764 47.8382 54.8722 48.8657 54.4383 49.9711C54.0045 51.0453 53.7412 52.1973 53.6637 53.3494C53.5707 54.5326 53.6637 55.7313 53.9426 56.8989C54.206 58.0354 54.6552 59.1252 55.2595 60.1371C55.8637 61.149 56.6074 62.052 57.475 62.8304C58.358 63.6244 59.3651 64.2627 60.4496 64.7453C61.5031 65.2123 62.6341 65.5237 63.7806 65.6483C64.958 65.7884 66.1355 65.7261 67.2975 65.5081C68.4439 65.2746 69.5594 64.8698 70.5819 64.3094C71.6045 63.7489 72.534 63.0328 73.3242 62.1921C74.1453 61.3359 74.827 60.3395 75.3383 59.2809C75.8495 58.2378 76.1904 57.1169 76.3608 55.9648C76.4538 55.3421 76.5002 54.7661 76.5002 54.19Z" stroke="#303030" stroke-miterlimit="10" stroke-linecap="round" stroke-linejoin="round"/>
<path d="M70.0095 26.5587C70.0028 26.0471 69.9291 25.5355 69.775 25.0508C69.6209 24.5728 69.3998 24.115 69.1118 23.7044C68.817 23.287 68.4619 22.91 68.0533 22.6003C67.6513 22.2907 67.2025 22.0483 66.7268 21.88C66.2578 21.7117 65.7554 21.6175 65.2596 21.5973C64.7505 21.5771 64.2346 21.6377 63.7389 21.7791C63.2565 21.9137 62.7943 22.1224 62.3722 22.3984C61.9502 22.6744 61.5616 23.0177 61.24 23.4149C60.9185 23.8121 60.6572 24.2564 60.4696 24.7344C60.282 25.1989 60.1681 25.697 60.1346 26.1952C60.0944 26.7068 60.1346 27.2252 60.2552 27.7301C60.3691 28.2215 60.5634 28.6927 60.8247 29.1303C61.0859 29.5679 61.4075 29.9583 61.7827 30.2949C62.1645 30.6383 62.6 30.9143 63.069 31.123C63.5245 31.3249 64.0136 31.4596 64.5093 31.5134C65.0185 31.574 65.5276 31.5471 66.0301 31.4528C66.5258 31.3518 67.0082 31.1768 67.4503 30.9345C67.8925 30.6921 68.2944 30.3824 68.6361 30.0189C68.9912 29.6487 69.286 29.2178 69.507 28.7601C69.7281 28.309 69.8755 27.8243 69.9492 27.3262C69.9894 27.0569 70.0095 26.8078 70.0095 26.5587Z" fill="#303030"/>
<path d="M65.0645 17.2324V35.9888" stroke="#303030" stroke-linecap="round"/>
<path d="M55.6863 26.6106L74.4427 26.6106" stroke="#303030" stroke-linecap="round"/>
<path d="M72.7267 26.5529C72.7163 25.7602 72.6021 24.9674 72.3633 24.2164C72.1246 23.4758 71.782 22.7665 71.3357 22.1302C70.8789 21.4834 70.3287 20.8993 69.6955 20.4195C69.0727 19.9396 68.3772 19.5641 67.6402 19.3033C66.9135 19.0426 66.135 18.8965 65.3668 18.8652C64.5779 18.8339 63.7786 18.9278 63.0104 19.1469C62.263 19.3555 61.5468 19.6789 60.8928 20.1065C60.2388 20.5342 59.6368 21.0662 59.1385 21.6816C58.6402 22.2971 58.2354 22.9855 57.9447 23.7261C57.6541 24.4458 57.4776 25.2177 57.4257 25.9896C57.3634 26.7824 57.4257 27.5856 57.6125 28.3679C57.789 29.1294 58.0901 29.8596 58.4949 30.5376C58.8997 31.2156 59.398 31.8206 59.9793 32.3421C60.571 32.8741 61.2457 33.3018 61.9724 33.6252C62.6783 33.9381 63.4361 34.1467 64.2042 34.2302C64.9931 34.324 65.7821 34.2823 66.5606 34.1363C67.3288 33.9798 68.0762 33.7086 68.7613 33.3331C69.4464 32.9576 70.0692 32.4777 70.5986 31.9145C71.1488 31.3408 71.6056 30.6732 71.9481 29.9639C72.2907 29.265 72.5191 28.514 72.6332 27.7421C72.6955 27.3248 72.7267 26.9389 72.7267 26.5529Z" stroke="#303030" stroke-miterlimit="10" stroke-linecap="round" stroke-linejoin="round"/>
<path d="M30.0801 56.897C30.072 56.2724 29.982 55.6477 29.7939 55.0559C29.6057 54.4724 29.3358 53.9135 28.9841 53.4121C28.6242 52.9026 28.1907 52.4423 27.6918 52.0642C27.201 51.6861 26.653 51.3903 26.0723 51.1848C25.4997 50.9793 24.8863 50.8642 24.281 50.8396C23.6594 50.8149 23.0296 50.8889 22.4243 51.0615C21.8354 51.2259 21.2711 51.4807 20.7558 51.8176C20.2405 52.1546 19.7661 52.5738 19.3735 53.0587C18.9809 53.5436 18.6619 54.0861 18.4329 54.6697C18.2038 55.2368 18.0648 55.845 18.0239 56.4532C17.9748 57.0778 18.0239 57.7107 18.1711 58.3271C18.3102 58.9271 18.5474 59.5024 18.8664 60.0367C19.1854 60.5709 19.578 61.0476 20.036 61.4586C20.5022 61.8777 21.0339 62.2147 21.6064 62.4695C22.1626 62.7161 22.7597 62.8805 23.365 62.9462C23.9866 63.0202 24.6082 62.9873 25.2217 62.8722C25.8269 62.749 26.4158 62.5353 26.9557 62.2394C27.4955 61.9435 27.9862 61.5654 28.4034 61.1216C28.8369 60.6695 29.1968 60.1435 29.4667 59.5846C29.7366 59.034 29.9166 58.4422 30.0065 57.834C30.0556 57.5052 30.0801 57.2011 30.0801 56.897Z" fill="#303030"/>
<path d="M24.0428 45.5105V68.4102" stroke="#303030" stroke-linecap="round"/>
<path d="M12.593 56.9604L35.4927 56.9604" stroke="#303030" stroke-linecap="round"/>
<path d="M33.3976 56.8899C33.3849 55.922 33.2455 54.9541 32.954 54.0372C32.6625 53.133 32.2443 52.267 31.6993 51.4901C31.1417 50.7006 30.47 49.9874 29.6969 49.4016C28.9364 48.8157 28.0873 48.3573 27.1875 48.0389C26.3003 47.7205 25.3498 47.5422 24.4119 47.504C23.4487 47.4658 22.4729 47.5804 21.535 47.8478C20.6225 48.1025 19.748 48.4973 18.9496 49.0195C18.1511 49.5416 17.4161 50.1911 16.8077 50.9425C16.1994 51.6939 15.7051 52.5344 15.3502 53.4386C14.9954 54.3174 14.7799 55.2598 14.7166 56.2022C14.6405 57.1701 14.7166 58.1507 14.9447 59.1059C15.1601 60.0355 15.5277 60.927 16.022 61.7548C16.5162 62.5826 17.1246 63.3212 17.8343 63.958C18.5567 64.6075 19.3805 65.1297 20.2676 65.5244C21.1295 65.9065 22.0546 66.1612 22.9925 66.2631C23.9557 66.3777 24.9189 66.3268 25.8694 66.1485C26.8073 65.9574 27.7198 65.6263 28.5562 65.1679C29.3927 64.7094 30.1531 64.1236 30.7995 63.4359C31.4712 62.7354 32.0288 61.9204 32.4471 61.0544C32.8653 60.2011 33.1441 59.2841 33.2835 58.3417C33.3596 57.8323 33.3976 57.3611 33.3976 56.8899Z" stroke="#303030" stroke-miterlimit="10" stroke-linecap="round" stroke-linejoin="round"/>
<path d="M31.4323 26.5332C31.4223 25.7687 31.3122 25.0041 31.0819 24.2798C30.8517 23.5656 30.5213 22.8815 30.0908 22.2679C29.6503 21.6442 29.1197 21.0808 28.5091 20.6181C27.9084 20.1553 27.2377 19.7932 26.5269 19.5417C25.8261 19.2902 25.0753 19.1494 24.3345 19.1192C23.5736 19.089 22.8028 19.1795 22.0619 19.3908C21.3411 19.592 20.6504 19.9038 20.0197 20.3163C19.389 20.7287 18.8083 21.2418 18.3278 21.8353C17.8473 22.4288 17.4568 23.0928 17.1765 23.807C16.8962 24.5012 16.726 25.2456 16.676 25.99C16.6159 26.7545 16.676 27.5291 16.8562 28.2836C17.0264 29.018 17.3167 29.7222 17.7071 30.3761C18.0975 31.0299 18.5781 31.6134 19.1387 32.1164C19.7093 32.6294 20.36 33.0419 21.0608 33.3537C21.7416 33.6555 22.4724 33.8567 23.2132 33.9372C23.9741 34.0277 24.7349 33.9875 25.4857 33.8467C26.2265 33.6958 26.9473 33.4342 27.6081 33.0721C28.2688 32.7099 28.8695 32.2472 29.38 31.7039C29.9106 31.1507 30.3511 30.5068 30.6815 29.8228C31.0118 29.1488 31.2321 28.4245 31.3422 27.68C31.4023 27.2776 31.4323 26.9054 31.4323 26.5332Z" fill="#303030"/>
<path d="M24.0428 12.5964V40.6248" stroke="#303030" stroke-linecap="round"/>
<path d="M10.0287 26.6106L38.057 26.6106" stroke="#303030" stroke-linecap="round"/>
<path d="M35.4927 26.5243C35.4772 25.3397 35.3066 24.155 34.9498 23.0327C34.593 21.926 34.0811 20.8661 33.4141 19.9152C32.7316 18.9488 31.9094 18.0759 30.9632 17.3589C30.0325 16.6419 28.9932 16.0807 27.8918 15.691C26.806 15.3013 25.6426 15.0831 24.4947 15.0364C23.3157 14.9896 22.1213 15.1299 20.9734 15.4572C19.8565 15.769 18.7862 16.2522 17.809 16.8913C16.8317 17.5304 15.932 18.3253 15.1874 19.245C14.4428 20.1646 13.8379 21.1934 13.4035 22.3001C12.9692 23.3757 12.7055 24.5291 12.6279 25.6826C12.5348 26.8673 12.6279 28.0675 12.9071 29.2366C13.1708 30.3744 13.6207 31.4656 14.2257 32.4788C14.8306 33.4919 15.5752 34.396 16.4439 35.1754C17.3281 35.9704 18.3364 36.6094 19.4222 37.0927C20.477 37.5603 21.6094 37.872 22.7573 37.9967C23.9362 38.137 25.1151 38.0747 26.2786 37.8564C27.4264 37.6226 28.5433 37.2174 29.5671 36.6562C30.5909 36.0951 31.5216 35.378 32.3127 34.5363C33.1349 33.679 33.8174 32.6814 34.3293 31.6214C34.8412 30.5771 35.1825 29.4548 35.3531 28.3013C35.4462 27.6778 35.4927 27.1011 35.4927 26.5243Z" stroke="#303030" stroke-miterlimit="10" stroke-linecap="round" stroke-linejoin="round"/>
<path d="M4.101 77.8435C3.83093 77.8209 3.60587 78.0018 3.58336 78.2506C3.53835 78.6125 3.58336 79.0195 3.58336 79.3814C3.58336 79.6302 3.60587 79.8563 3.85344 79.9694C4.12352 80.0825 4.4611 80.0825 4.73118 80.1051C6.10407 80.3086 7.47697 80.4896 8.87236 80.6705C10.2002 80.8288 11.5281 80.9871 12.856 81.1228C14.2064 81.2585 15.5343 81.3942 16.8846 81.4847C18.4151 81.5977 19.9455 81.7108 21.4759 81.8013C22.6913 81.8691 23.9066 81.937 25.122 82.0048C26.4724 82.0727 27.8002 82.1179 29.1506 82.1631C30.591 82.2084 32.0089 82.2536 33.4493 82.2762C34.8447 82.2988 36.2401 82.3441 37.6355 82.3441C38.9859 82.3667 40.3138 82.3667 41.6642 82.3893C42.9921 82.3893 44.3199 82.4119 45.6478 82.3893C47.0207 82.3893 48.3936 82.3893 49.744 82.3667C51.1394 82.3441 52.5123 82.3441 53.9077 82.2988C55.3256 82.2762 56.7435 82.231 58.1614 82.1858C59.6468 82.1405 61.1322 82.0953 62.6176 82.0274C64.0355 81.9596 65.4759 81.8917 66.8938 81.8239C68.1317 81.7561 69.3696 81.6656 70.6074 81.5751C71.9803 81.4847 73.3307 81.3716 74.7036 81.2359C76.0765 81.1002 77.4268 80.9645 78.7997 80.8062C80.1951 80.6479 81.5905 80.467 82.9859 80.2634C83.6836 80.1729 84.4038 80.1051 85.1015 79.9468C85.3491 79.9016 85.4841 79.7206 85.4841 79.4719C85.5066 79.0874 85.5066 78.6577 85.4841 78.2732C85.4616 77.5721 84.6739 77.8209 84.2463 77.8888C83.6161 77.9792 82.9634 78.0697 82.3332 78.1601C80.9378 78.3411 79.5424 78.5446 78.147 78.6803C76.7742 78.8386 75.4013 78.9743 74.0059 79.0874C72.678 79.2005 71.3501 79.3136 70.0222 79.404C68.5593 79.4945 67.0964 79.5849 65.6335 79.6754C64.1706 79.7432 62.7077 79.8111 61.2673 79.8789C59.9619 79.9242 58.6565 79.9694 57.3511 80.0146C56.0233 80.0599 54.7179 80.0825 53.39 80.1051C51.9721 80.1277 50.5542 80.1503 49.1138 80.1729C47.6284 80.1956 46.143 80.1956 44.6575 80.1956C43.2396 80.1956 41.8442 80.1956 40.4263 80.1729C39.0759 80.1729 37.703 80.1503 36.3527 80.1277C34.9798 80.1051 33.6069 80.0825 32.234 80.0373C30.8836 80.0146 29.5332 79.9468 28.1828 79.9016C26.99 79.8563 25.7972 79.8111 24.6043 79.7433C23.1414 79.6754 21.701 79.5849 20.2381 79.4945C18.9102 79.404 17.6048 79.3136 16.277 79.2005C14.9041 79.0874 13.5537 78.9743 12.1808 78.816C10.8304 78.6803 9.50254 78.522 8.15216 78.3411C6.84678 78.228 5.47389 78.0245 4.101 77.8435Z" fill="#ECEDF1" stroke="#303030" stroke-miterlimit="10" stroke-linecap="round" stroke-linejoin="round"/>
<path d="M88.0274 4.7041C87.6448 4.7041 87.2396 4.7041 86.857 4.7041C85.7992 4.7041 84.7414 4.7041 83.6836 4.7041C82.1307 4.7041 80.5552 4.7041 79.0023 4.7041C77.1118 4.7041 75.1987 4.7041 73.3082 4.7041C71.2151 4.7041 69.1445 4.7041 67.0514 4.7041C64.9358 4.7041 62.8427 4.7041 60.7271 4.7041C58.769 4.7041 56.811 4.7041 54.8529 4.7041C53.1875 4.7041 51.522 4.7041 49.879 4.7041C48.6862 4.7041 47.4934 4.7041 46.3005 4.7041C45.7379 4.7041 45.1752 4.7041 44.6125 4.7041C44.365 4.7041 44.1174 4.7041 43.8473 4.7041C42.9471 4.7041 42.0243 4.7041 41.124 4.7041C39.6611 4.7041 38.2207 4.7041 36.7578 4.7041C34.9123 4.7041 33.0893 4.7041 31.2437 4.7041C29.1956 4.7041 27.1476 4.7041 25.0995 4.7041C22.9839 4.7041 20.8683 4.7041 18.7527 4.7041C16.7496 4.7041 14.724 4.7041 12.721 4.7041C10.9655 4.7041 9.23248 4.7041 7.47698 4.7041C6.14911 4.7041 4.84374 4.7041 3.51586 4.7041C2.79566 4.7041 2.05295 4.7041 1.33274 4.7041C1.24272 4.7041 1.15269 4.7041 1.04016 4.7041" stroke="#303030" stroke-miterlimit="10" stroke-linecap="round" stroke-linejoin="round"/>
<path d="M88.0274 8.79761C87.6448 8.79761 87.2396 8.79761 86.857 8.79761C85.7992 8.79761 84.7414 8.79761 83.6836 8.79761C82.1307 8.79761 80.5552 8.79761 79.0023 8.79761C77.1118 8.79761 75.1987 8.79761 73.3082 8.79761C71.2151 8.79761 69.1445 8.79761 67.0514 8.79761C64.9358 8.79761 62.8427 8.79761 60.7271 8.79761C58.769 8.79761 56.811 8.79761 54.8529 8.79761C53.1875 8.79761 51.522 8.79761 49.879 8.79761C48.6862 8.79761 47.4934 8.79761 46.3005 8.79761C45.7379 8.79761 45.1752 8.79761 44.6125 8.79761C44.365 8.79761 44.1174 8.79761 43.8473 8.79761C42.9471 8.79761 42.0243 8.79761 41.124 8.79761C39.6611 8.79761 38.2207 8.79761 36.7578 8.79761C34.9123 8.79761 33.0893 8.79761 31.2437 8.79761C29.1956 8.79761 27.1476 8.79761 25.0995 8.79761C22.9839 8.79761 20.8683 8.79761 18.7527 8.79761C16.7496 8.79761 14.724 8.79761 12.721 8.79761C10.9655 8.79761 9.23248 8.79761 7.47698 8.79761C6.14911 8.79761 4.84374 8.79761 3.51586 8.79761C2.79566 8.79761 2.05295 8.79761 1.33274 8.79761C1.24272 8.79761 1.15269 8.79761 1.04016 8.79761" stroke="#303030" stroke-miterlimit="10" stroke-linecap="round" stroke-linejoin="round"/>
</svg>
