<svg width="43" height="35" viewBox="0 0 43 35" fill="none" xmlns="http://www.w3.org/2000/svg">
<path d="M33.926 20.8053C32.8436 26.0828 29.1959 30.5311 24.208 32.6564C20.1359 34.4019 15.4701 34.4488 11.3633 32.7849C7.17974 31.1027 3.83229 27.7534 2.1722 23.5886C0.609267 19.6984 0.609267 15.3015 2.1722 11.4113C3.80755 7.30811 7.08496 3.99102 11.1873 2.28726C15.2723 0.577946 19.9357 0.570595 24.0261 2.26728C29.1034 4.36037 32.8295 8.84905 33.9259 14.1947C34.3312 14.1836 34.7378 14.2813 35.0974 14.466C35.3578 14.544 35.6042 14.6684 35.8241 14.8269L36.2278 14.8538C36.2833 14.8583 36.3417 14.8655 36.3965 14.8749C36.5258 14.8458 36.6599 14.8297 36.7926 14.8279C36.9022 14.8298 38.4703 14.8235 38.5368 14.8316C38.6498 14.839 38.7632 14.8566 38.873 14.8836C39.2025 14.9644 39.5079 15.1329 39.7606 15.3565C40.1755 15.7225 40.4776 16.2124 40.5809 16.7602C41.2743 16.7602 42.4928 16.7602 42.4928 16.7602V18.24C42.4928 18.24 41.275 18.24 40.5809 18.24C40.5332 18.67 40.1754 19.2777 39.7606 19.6437C39.5077 19.8673 39.2025 20.0357 38.873 20.1166C38.7566 20.1453 38.6361 20.1633 38.5163 20.1697L38.4957 20.1707C38.4543 20.173 38.4058 20.1723 38.3642 20.172L36.7926 20.1722C36.6599 20.1704 36.526 20.1544 36.3965 20.1252C36.2683 20.15 35.9578 20.1625 35.8241 20.1732C35.6042 20.3317 35.3578 20.4561 35.0974 20.534C34.7381 20.7188 34.3313 20.8164 33.926 20.8053Z" fill="#ECEDF1" stroke="#303030" stroke-miterlimit="10" stroke-linecap="round" stroke-linejoin="round"/>
<path d="M28.383 19.2554C28.7552 19.8473 29.4198 20.3384 30.2384 20.546C30.4363 20.5968 30.643 20.631 30.8507 20.6474C30.946 20.6686 33.1321 20.655 33.2979 20.6586" stroke="#303030" stroke-miterlimit="10" stroke-linecap="round" stroke-linejoin="round"/>
<path d="M33.2979 14.3415C33.1216 14.3455 30.9516 14.3309 30.8506 14.3526C30.6429 14.369 30.4363 14.4032 30.2383 14.454C29.4196 14.6617 28.7551 15.1527 28.383 15.7446" stroke="#303030" stroke-miterlimit="10" stroke-linecap="round" stroke-linejoin="round"/>
<path d="M36.4574 15.1611C36.4306 15.1423 34.9646 15.0533 34.8827 15.0447C34.2347 15.009 33.6811 15.4031 33.3533 15.949C33.0737 16.4118 32.9474 16.9598 32.9468 17.4999C32.9473 18.04 33.0737 18.5881 33.3533 19.0508C33.6811 19.5969 34.2347 19.9908 34.8827 19.9551C34.9685 19.9464 36.4281 19.8578 36.4574 19.8387" stroke="#303030" stroke-miterlimit="10" stroke-linecap="round" stroke-linejoin="round"/>
<path d="M37.9632 14.8862C37.6411 14.9399 37.3355 15.0853 37.0792 15.2918C36.8308 15.4912 36.6261 15.7463 36.4718 16.0282C36.2277 16.4747 36.1065 16.9887 36.1064 17.5C36.1064 18.0113 36.2276 18.5253 36.4718 18.9718C36.6261 19.2536 36.8308 19.5089 37.0792 19.7082C37.3355 19.9147 37.6411 20.0601 37.9632 20.1138" stroke="#303030" stroke-miterlimit="10" stroke-linecap="round" stroke-linejoin="round"/>
<path d="M34.7021 14.5999C34.1196 14.28 33.4386 14.2532 32.8374 14.5339C32.3733 14.7478 31.9862 15.125 31.7134 15.5722C31.0241 16.7036 31.0177 18.2556 31.6938 19.3954C31.9623 19.8473 32.3458 20.2309 32.8082 20.4523C33.4161 20.7468 34.1091 20.7256 34.702 20.4" stroke="#303030" stroke-miterlimit="10" stroke-linecap="round" stroke-linejoin="round"/>
<path d="M23.4681 15.7447C22.7366 12.8466 20.2849 10.8281 17.5 10.8298C14.7151 10.8279 12.2631 12.8474 11.5319 15.7447" fill="white"/>
<path d="M23.4681 15.7447C22.7366 12.8466 20.2849 10.8281 17.5 10.8298C14.7151 10.8279 12.2631 12.8474 11.5319 15.7447" stroke="#303030" stroke-miterlimit="10" stroke-linecap="round" stroke-linejoin="round"/>
<path d="M11.5319 19.2554C12.2635 22.1534 14.7151 24.172 17.5 24.1703C20.2849 24.1722 22.737 22.1527 23.4681 19.2554" fill="white"/>
<path d="M11.5319 19.2554C12.2635 22.1534 14.7151 24.172 17.5 24.1703C20.2849 24.1722 22.737 22.1527 23.4681 19.2554" stroke="#303030" stroke-miterlimit="10" stroke-linecap="round" stroke-linejoin="round"/>
<path d="M5.27222 17.5003C5.2706 18.5169 5.68193 19.4463 6.29973 19.8207C6.4302 19.9003 6.56879 19.9546 6.7082 19.9805C6.77269 19.9923 6.84016 19.9988 6.90505 19.9988C7.05151 19.995 28.0454 20.0056 28.1793 19.9955C28.2721 19.988 28.3676 19.9679 28.4581 19.9362C28.6592 19.8661 28.8526 19.7359 29.0223 19.5566C29.5439 19.0091 29.814 18.0258 29.7032 17.0713C29.6211 16.3312 29.3099 15.6658 28.8784 15.3086C28.7222 15.1778 28.5506 15.0859 28.3752 15.0391C28.3019 15.0198 28.2254 15.0074 28.1511 15.0034C28.0712 14.9945 6.96847 15.0063 6.87688 15.0024C6.82242 15.004 6.76226 15.0101 6.7082 15.0202C6.56892 15.0461 6.43006 15.1004 6.29973 15.18C5.68274 15.5536 5.27033 16.4828 5.27222 17.5003Z" fill="white" stroke="#303030" stroke-miterlimit="10" stroke-linecap="round" stroke-linejoin="round"/>
</svg>
