<svg width="85" height="61" viewBox="0 0 85 61" fill="none" xmlns="http://www.w3.org/2000/svg">
<path d="M1 2C1 1.44772 1.44772 1 2 1H83C83.5523 1 84 1.44772 84 2V52H1V2Z" fill="white" stroke="#303030"/>
<path d="M34.6553 35C33.7207 33.4762 31.4512 31.7347 34.6553 27.8163C37.8593 23.898 34.5218 21.068 33.0532 19" stroke="#303030" stroke-linecap="round"/>
<path d="M43.207 35C41.961 33.4762 38.9349 31.7347 43.207 27.8163C47.4791 23.898 43.029 21.068 41.071 19" stroke="#303030" stroke-linecap="round"/>
<path d="M51.6553 35C50.7207 33.4762 48.4512 31.7347 51.6553 27.8163C54.8593 23.898 51.5218 21.068 50.0532 19" stroke="#303030" stroke-linecap="round"/>
<path d="M1 56C1 56.5523 1.44772 57 2 57H70V52H1V56Z" fill="white" stroke="#303030"/>
<path d="M54.8352 57H65V59C65 59.5523 64.5523 60 64 60H59.3227C59.1129 60 58.9084 59.934 58.7382 59.8114L54.8352 57Z" fill="white" stroke="#303030"/>
<path d="M70 57H83C83.5523 57 84 56.5523 84 56V52H70V57Z" fill="white" stroke="#303030"/>
<path d="M72.3189 58.1611C72.3189 58.7134 72.7667 59.1611 73.3189 59.1611H75.6958C76.2481 59.1611 76.6958 58.7134 76.6958 58.1611V57H72.3189V58.1611Z" fill="white" stroke="#303030"/>
</svg>
