<svg width="150" height="81" viewBox="0 0 150 81" fill="none" xmlns="http://www.w3.org/2000/svg">
  <path d="M1.50644 78.1934C1.48684 78.1466 1.51941 2.81012 1.5073 2.76648C1.51105 2.67776 1.51969 2.587 1.53612 2.49972C1.56668 2.33449 1.62 2.17246 1.69495 2.02235C1.87481 1.65842 2.18092 1.36024 2.54843 1.19297C2.72397 1.11268 2.91277 1.06061 3.10446 1.04112C3.14049 0.921843 146.625 1.10774 146.712 1.03181C146.98 1.03181 147.248 1.09406 147.488 1.21217C147.964 1.44286 148.325 1.89667 148.443 2.41652C148.469 2.53143 148.485 2.64896 148.489 2.76678C148.523 2.83659 148.467 78.1553 148.489 78.2336C148.487 78.3005 148.483 78.3709 148.473 78.4372C148.432 78.7453 148.309 79.0423 148.12 79.2884C147.878 79.6075 147.526 79.84 147.139 79.9357C147.031 79.9621 146.922 79.9796 146.811 79.9854C146.723 80.0273 3.31603 79.9633 3.20534 79.9866C2.94189 79.9746 2.68045 79.9028 2.44784 79.7771C2.14518 79.6148 1.89066 79.3617 1.72608 79.058C1.58282 78.7941 1.50586 78.4939 1.50644 78.1934Z" fill="white" stroke="#303030" stroke-miterlimit="10" stroke-linecap="round" stroke-linejoin="round" />
  <path d="M3.06745 25.2411V24.6924H2.73975V24.963L2.87943 24.7751L2.8311 24.7075L2.69141 24.8954L2.8311 25.0908L2.87406 25.0231L2.73975 24.8352V25.1058H3.07821C11.1529 25.1058 20.2806 22.8358 28.1458 19.987C36.0163 17.1306 42.6136 13.6955 45.6544 11.3278C48.996 8.70443 53.3906 4.83331 55.3892 1.04491L55.228 0.887089L55.2602 1.15768L55.3247 1.14263L55.2979 0.872041L55.1045 0.917185L55.1152 1.00738L55.3032 0.962237L55.1474 0.804416C53.2295 4.45752 48.8402 8.3662 45.5093 10.967C42.5276 13.2971 35.925 16.7397 28.0706 19.581C20.2161 22.4374 11.1045 24.6924 3.06745 24.6924V25.2411C11.1529 25.2336 20.2914 22.9711 28.1727 20.1073C36.0486 17.2509 42.6566 13.8158 45.6974 11.4405C49.0498 8.8172 53.4605 4.93111 55.4644 1.12767C55.4912 1.06754 55.5074 0.992359 55.4966 0.924709L55.4859 0.834512C55.4805 0.759346 55.4536 0.69922 55.4107 0.65412C55.3677 0.60902 55.3193 0.593935 55.2656 0.601452L55.2011 0.6165C55.1528 0.631533 55.1044 0.669135 55.0722 0.729268C53.165 4.36734 48.7865 8.25342 45.461 10.8467C42.4847 13.1768 35.8927 16.6194 28.0491 19.4607C20.2054 22.302 11.0992 24.5646 3.07821 24.5646H2.73975C2.69139 24.5646 2.63767 24.5871 2.60544 24.6397L2.5571 24.7075C2.48189 24.8127 2.48188 24.9781 2.55173 25.0908L2.60006 25.1509C2.63767 25.2035 2.68602 25.2336 2.73975 25.2336C2.84719 25.2336 2.96001 25.2411 3.06745 25.2411Z" fill="#303030" />
  <path d="M10.2169 38.9308V38.4158C7.73869 38.4158 5.2659 38.3156 2.75516 38.1153L2.73887 38.38L2.8853 38.2011L2.84194 38.1367L2.69551 38.3084L2.82565 38.5016L2.87987 38.4443L2.7443 38.2512L2.73344 38.5088C5.25503 38.7091 7.73327 38.8092 10.2169 38.8092C18.2643 38.8092 26.3605 37.7504 36.0347 35.504C39.7222 34.6527 44.0604 33.4795 48.1817 31.2617C51.0883 29.7022 53.8214 27.6633 56.3701 25.7102C62.6497 20.9099 68.8859 15.759 74.9051 10.4077C77.8822 7.7536 84.8125 2.93892 88.3265 1.07887L88.256 0.835661L88.1801 1.07171L88.2397 1.10752L88.3157 0.871466L88.1367 0.771299L88.1096 0.849983L88.2885 0.95015L88.218 0.714011C84.6607 2.59552 77.7575 7.39593 74.737 10.0787C68.7232 15.4299 62.4924 20.5736 56.2237 25.374C53.675 27.327 50.9474 29.3516 48.0679 30.8969C43.9791 33.0932 39.668 34.2664 35.9859 35.1178C26.3171 37.3641 18.2372 38.4158 10.2169 38.4158V38.9308C18.2643 38.9308 26.3713 37.8792 36.051 35.6328C39.7439 34.7744 44.0875 33.5939 48.2142 31.3761C51.1263 29.8166 53.8702 27.7706 56.4189 25.8175C62.6984 21.0172 68.9347 15.8663 74.9539 10.5079C77.931 7.86093 84.8505 3.05341 88.3644 1.19336L88.4729 1.05748L88.5 0.971545V0.771299L88.3916 0.635327L88.3319 0.599609H88.1855C84.6173 2.48827 77.7087 7.28861 74.6828 9.97852C68.6744 15.3226 62.4436 20.4663 56.1749 25.2667C53.6316 27.2126 50.9094 29.2371 48.0299 30.7824C43.9519 32.9715 39.6463 34.1448 35.9696 34.9961C26.3117 37.2425 18.2372 38.2941 10.2169 38.2941C7.74411 38.2941 5.27133 38.1939 2.76058 37.9936C2.70636 37.9865 2.65754 38.0151 2.61416 38.0581L2.56537 38.1153C2.48403 38.2154 2.47859 38.38 2.54909 38.4801L2.59787 38.5517C2.63041 38.6017 2.67928 38.6303 2.72808 38.6375C5.24967 38.8307 7.73327 38.9308 10.2169 38.9308Z" fill="#303030" />
  <path d="M133.22 45.7756V45.2645H133.031C123.257 45.0728 115.711 44.292 108.409 43.5325C101.107 42.7658 93.5509 41.985 83.7718 41.7934H83.7013L83.6959 42.0489L83.8802 42.1483L83.9073 42.0631C84.4656 40.3595 85.5172 39.1386 86.7694 38.2442C88.027 37.3427 89.4744 36.7605 90.7971 36.3275C96.0282 34.6168 101.471 33.5946 106.74 32.6008C113.207 31.387 119.907 30.1235 126.265 27.568C130.927 25.6941 144.425 20.9452 149.266 20.285H149.271L149.315 20.2779L149.293 20.0224L149.098 20.0437L149.109 20.1714L149.304 20.1431L149.282 19.8875L149.233 19.8946H149.239C144.317 20.5689 130.868 25.3178 126.179 27.1989C119.853 29.7402 113.169 30.9966 106.696 32.2176C101.427 33.2043 95.9794 34.2335 90.7266 35.9513C89.4094 36.3843 87.9566 36.9593 86.6719 37.8679C85.3871 38.7765 84.2704 40.0329 83.6579 41.8217C83.6362 41.8998 83.6416 41.9921 83.6742 42.0631C83.7121 42.1412 83.7718 42.1837 83.8368 42.1837C93.5726 42.3754 101.102 43.1563 108.388 43.9158C115.689 44.6754 123.246 45.4632 133.025 45.6549H133.22C134.912 45.6549 138.251 45.2858 141.509 44.7392C143.14 44.4623 144.75 44.1429 146.122 43.8022C147.493 43.4544 148.621 43.0923 149.309 42.709L149.353 42.6878L149.277 42.4535L149.098 42.5529L149.136 42.6665L149.315 42.5671L149.239 42.3258L149.195 42.3541C148.556 42.7019 147.434 43.071 146.073 43.4118C141.991 44.441 135.714 45.2645 133.22 45.2645V45.7756C134.917 45.7756 138.262 45.4136 141.53 44.8599C143.162 44.583 144.777 44.2636 146.149 43.9158C147.526 43.568 148.653 43.2059 149.347 42.8226L149.391 42.8013L149.494 42.6594V42.4677L149.461 42.3541C149.418 42.2192 149.304 42.1625 149.201 42.2122L149.157 42.2406C148.523 42.5884 147.401 42.9575 146.046 43.2983C141.969 44.3204 135.703 45.1438 133.22 45.1438H133.031C123.262 44.9522 115.717 44.1642 108.415 43.4047C101.129 42.6451 93.5888 41.8643 83.8422 41.6727V41.9282L84.0211 42.0347C84.5794 40.3808 85.6202 39.1953 86.8562 38.3222C88.0921 37.442 89.5177 36.8741 90.8242 36.4482C96.0444 34.7375 101.487 33.7153 106.75 32.7215C113.223 31.5077 119.928 30.2442 126.298 27.6888C130.954 25.8148 144.436 21.0659 149.277 20.4057H149.282L149.325 20.3986C149.434 20.3844 149.51 20.2566 149.499 20.1147L149.488 19.994C149.483 19.923 149.461 19.8662 149.418 19.8236C149.38 19.7739 149.325 19.7598 149.271 19.7669L149.228 19.774C144.3 20.4483 130.841 25.1971 126.152 27.0782C119.831 29.6195 113.152 30.8759 106.685 32.0969C101.416 33.0836 95.9577 34.1128 90.7049 35.8307C89.366 36.2708 87.8861 36.8528 86.5851 37.7898C85.2787 38.7268 84.1512 40.0188 83.5441 41.8644L83.5169 41.9495C83.4898 42.0276 83.4953 42.1199 83.5332 42.1909C83.5712 42.2618 83.6308 42.3045 83.6959 42.3045H83.7663C93.5292 42.4961 101.075 43.284 108.377 44.0435C115.684 44.8031 123.241 45.591 133.025 45.7756H133.22Z" fill="#303030" />
  <path d="M137.998 64.9412V64.4053C120.048 64.4053 102.676 63.6492 81.9406 61.9901C81.0836 61.924 80.2265 61.8506 79.364 61.7772C73.611 61.3074 67.665 60.8229 61.7941 60.8229C61.6387 60.8229 61.4781 60.8229 61.3174 60.8303C59.6461 60.8376 57.9427 60.8817 56.2982 60.933C54.4876 60.9844 52.6503 61.0358 50.8076 61.0358C49.2755 61.0358 47.7435 60.9991 46.2276 60.8963C41.0744 60.5439 35.9374 59.4208 30.961 57.5488L30.7467 57.468L30.6932 57.725L30.7253 57.9819L40.5173 55.9852C42.6064 55.5594 44.7759 55.1116 46.849 54.2454C49.4041 53.1662 51.7878 51.4411 53.8127 49.9142C61.7191 43.9606 69.3202 36.9205 76.6642 30.1227C79.4819 27.5093 82.3959 24.8152 85.2886 22.2165C88.3204 19.4856 91.3041 16.8942 94.5717 15.0002C99.2427 12.2987 104.498 11.6967 109.603 11.1241C115.061 10.5075 125.873 4.63942 130.844 1.3433L130.763 1.10108L130.699 1.358L130.763 1.38739L130.822 1.13039L130.64 1.04965L130.619 1.13039L130.801 1.21847L130.72 0.983601C125.819 4.22833 115.05 10.1038 109.576 10.7204C104.482 11.3004 99.1945 11.8876 94.4592 14.6258C91.1595 16.5418 88.1544 19.1479 85.1278 21.8787C82.2352 24.4775 79.3212 27.179 76.4982 29.785C69.1542 36.5902 61.5584 43.6156 53.668 49.5618C51.6432 51.0887 49.2809 52.7918 46.7632 53.8563C44.7223 54.7152 42.569 55.1556 40.4745 55.5814L31.1164 57.4974C31.0253 57.5121 30.961 57.6148 30.9556 57.7396C30.9503 57.8718 31.0092 57.982 31.0949 58.0113C36.0284 59.8466 41.1119 60.9477 46.2115 61.3001C47.7381 61.4029 49.2755 61.4395 50.8076 61.4395C52.6556 61.4395 54.4983 61.3881 56.3035 61.3367C57.948 61.2854 59.6514 61.2413 61.3227 61.234C61.478 61.2266 61.6387 61.2266 61.7941 61.2266C67.6543 61.2266 73.5949 61.7112 79.3479 62.181C80.205 62.2544 81.0675 62.3205 81.9245 62.3939C102.66 64.053 120.043 64.809 137.993 64.809C141.716 64.809 145.46 64.7797 149.263 64.7136V64.4493L149.124 64.6402L149.172 64.699L149.306 64.5155L149.167 64.3246L149.124 64.3906L149.263 64.5742L149.258 64.3099C145.46 64.376 141.711 64.4053 137.998 64.4053V64.9412C141.716 64.9412 145.46 64.9045 149.263 64.8384C149.317 64.8384 149.365 64.8091 149.403 64.765L149.446 64.699C149.483 64.6476 149.505 64.5815 149.499 64.5081C149.499 64.4347 149.483 64.3686 149.446 64.3246L149.397 64.2585C149.36 64.2071 149.312 64.1851 149.258 64.1851C145.455 64.2438 141.711 64.2805 137.993 64.2805C120.048 64.2805 102.682 63.5171 81.9513 61.8654C81.0889 61.792 80.2318 61.7259 79.3694 61.6524C73.6163 61.1826 67.6704 60.6981 61.7941 60.6981H61.3174C59.6461 60.7054 57.9427 60.7568 56.2982 60.8009C54.493 60.8522 52.6503 60.911 50.8076 60.911C49.2809 60.911 47.7489 60.8742 46.2329 60.7715C41.1601 60.4264 36.1034 59.3253 31.1967 57.5047L31.1485 57.7617L31.1753 58.0186L40.5334 56.1099C42.6225 55.6842 44.7973 55.2364 46.8757 54.3628C49.4416 53.2836 51.8253 51.5512 53.8555 50.0243C61.7673 44.0707 69.3685 37.0306 76.7179 30.2255C79.5355 27.6194 82.4495 24.9179 85.3368 22.3192C88.3686 19.5957 91.3469 17.0043 94.6091 15.1177C99.2641 12.4235 104.514 11.8216 109.608 11.249C115.077 10.6323 125.899 4.76425 130.886 1.46079C130.935 1.42408 130.967 1.37263 130.988 1.30656L131.01 1.21847C131.026 1.15241 131.02 1.07907 130.999 1.02034L130.886 0.880816L130.827 0.851423C130.779 0.8294 130.726 0.836756 130.677 0.86612C125.792 4.10351 115.034 9.97896 109.57 10.5956C104.465 11.1682 99.1677 11.7629 94.4217 14.5084C91.1166 16.4244 88.1115 19.0378 85.0743 21.7686C82.1817 24.3673 79.2676 27.0689 76.45 29.6823C69.1006 36.48 61.5102 43.5128 53.6251 49.4517C51.6056 50.9713 49.2434 52.6743 46.7364 53.7315C44.7009 54.5904 42.5529 55.0308 40.4638 55.4566L30.6664 57.4608C30.5753 57.4754 30.5057 57.5782 30.5003 57.703C30.495 57.8351 30.5539 57.9452 30.645 57.9746L30.8592 58.0553C35.8623 59.942 41.0262 61.0725 46.2061 61.4248C47.7328 61.5276 49.2702 61.5644 50.8076 61.5644C52.6556 61.5644 54.4983 61.513 56.3088 61.4616C57.9533 61.4175 59.6514 61.3661 61.3227 61.3588H61.7941C67.6489 61.3588 73.5895 61.8433 79.3426 62.3132C80.1997 62.3792 81.0621 62.4526 81.9192 62.5186C102.66 64.1777 120.037 64.9412 137.998 64.9412Z" fill="#303030" />
  <path d="M88.1391 80.6067V80.0628C81.1971 80.0628 74.1258 79.7908 67.1191 78.2271C63.1607 77.3433 59.1861 76.0365 55.3354 74.7599C54.0375 74.3368 52.6965 73.8912 51.3716 73.4682C35.8611 68.5429 21.6431 65.2342 2.73964 65.136V65.4079L2.87967 65.2191L2.83122 65.1511L2.69119 65.34L2.83122 65.5364L2.87428 65.4684L2.73964 65.2796V65.5515C21.6162 65.6497 35.8019 68.9508 51.307 73.876C52.6265 74.2915 53.9729 74.7372 55.2708 75.1678C59.1161 76.4369 63.0961 77.7513 67.076 78.6351C74.1042 80.2063 81.1917 80.4783 88.1445 80.4783C90.0456 80.4783 91.9359 80.4556 93.8155 80.4405C99.8635 80.3725 106.008 80.2517 111.954 80.1383C115.331 80.0704 118.826 80.0099 122.262 79.9495V79.6776L122.122 79.874L122.171 79.9344L122.305 79.7455L122.165 79.5491L122.122 79.6172L122.262 79.806L122.257 79.5341C118.821 79.5945 115.331 79.6625 111.949 79.7229C106.003 79.8362 99.8581 79.957 93.8101 80.025C91.9359 80.0401 90.0402 80.0628 88.1391 80.0628V80.6067C90.0456 80.6067 91.9359 80.5916 93.8155 80.569C99.8635 80.501 106.008 80.3877 111.954 80.2668C115.336 80.2064 118.826 80.1384 122.262 80.0779C122.316 80.0779 122.365 80.0477 122.402 80.0024L122.445 79.9344C122.483 79.8815 122.505 79.8135 122.499 79.738C122.499 79.6624 122.483 79.5944 122.445 79.5491L122.397 79.4811C122.359 79.4283 122.311 79.4056 122.257 79.4056C118.821 79.4585 115.326 79.5265 111.949 79.5945C106.003 79.7078 99.8581 79.8287 93.8101 79.8891C91.9359 79.9118 90.0402 79.9344 88.1445 79.9344C81.2025 79.9344 74.1312 79.6549 67.1353 78.0988C63.1769 77.215 59.2077 75.908 55.357 74.6314C54.059 74.2084 52.718 73.7627 51.3932 73.3397C35.8719 68.4145 21.6539 65.1058 2.73964 65C2.69117 65 2.63731 65.0303 2.605 65.0832L2.55655 65.1436C2.48115 65.2493 2.48115 65.4231 2.55655 65.5364L2.59961 65.5968C2.63731 65.6497 2.68578 65.6799 2.73964 65.6799C21.6108 65.7856 35.7857 69.0792 51.2854 74.0045C52.6049 74.4199 53.9513 74.8656 55.2492 75.2962C59.0945 76.5653 63.0799 77.8797 67.0599 78.7635C74.0988 80.3348 81.1863 80.6067 88.1391 80.6067Z" fill="#303030" />
  <rect x="75.0264" y="12.4305" width="38.4214" height="36.9052" rx="0.5" transform="rotate(45 75.0264 12.4305)" fill="#ECEDF1" stroke="#303030" />
  <path d="M71.2265 31.8608C75.2527 30.0252 80.0194 31.8202 81.87 35.8791C83.7206 39.9379 81.9497 44.7137 77.9236 46.5494C73.8974 48.3851 69.1307 46.59 67.2801 42.5312C65.4295 38.4723 67.2003 33.6965 71.2265 31.8608Z" fill="white" stroke="#303030" />
  <path d="M74.7503 38.6671C74.7275 38.6125 74.7169 38.5526 74.7095 38.4942C74.6935 38.3734 74.6922 38.1378 74.6874 38.0107C74.6781 37.714 74.6433 37.4129 74.531 37.136C74.4385 36.9018 74.3085 36.6809 74.1707 36.4706C73.8588 35.9967 73.413 35.4351 73.1146 34.9546C72.7795 34.4283 72.5016 33.8603 72.3202 33.2625C71.9971 32.2053 71.8939 31.0861 71.8958 29.9842C71.9084 28.1371 72.2212 26.2904 72.77 24.5282C73.1223 23.4083 73.5823 22.3096 74.1682 21.2911C74.5849 20.5718 75.0673 19.8767 75.6575 19.2882C75.9937 18.9565 76.37 18.6549 76.7991 18.4524C77.0777 18.3219 77.3823 18.2363 77.6912 18.2354C78.4234 18.2316 79.0504 18.7089 79.5235 19.2273C80.0052 19.7589 80.3854 20.381 80.7088 21.019C81.1457 21.8875 81.4824 22.8177 81.7368 23.7558C82.4864 26.5273 82.4936 29.6446 81.0801 32.2097C80.0698 34.0713 78.2382 35.5086 76.6675 36.8855C76.351 37.1769 76.0198 37.4762 75.806 37.8545C75.6694 38.0911 75.5875 38.3711 75.4737 38.6185C75.6947 38.4883 75.9507 38.4238 76.1965 38.3572C76.6251 38.2485 77.1578 38.1215 77.5732 37.9824C77.9581 37.8555 78.3405 37.6998 78.6992 37.5113C79.1456 37.278 79.5668 36.9828 79.9619 36.671C81.0667 35.805 82.599 34.1999 83.6205 33.2116C84.6387 32.2341 85.7131 31.2616 86.9173 30.5189C87.9747 29.8659 89.1451 29.3897 90.3535 29.1013C92.6765 28.5456 95.1184 28.6543 97.4508 29.101C98.5041 29.3113 99.5632 29.5955 100.532 30.0674C101.04 30.3194 101.534 30.6286 101.917 31.0517C102.168 31.3289 102.364 31.664 102.44 32.0323C102.585 32.7401 102.331 33.4595 102.002 34.08C101.717 34.6125 101.351 35.1071 100.96 35.5661C100.433 36.1792 99.8403 36.7462 99.2223 37.266C97.2176 38.9457 94.8689 40.2163 92.3709 40.9885C89.9897 41.7217 87.4505 42.0219 84.9722 41.706C84.0553 41.5876 83.1305 41.3789 82.2416 41.1262C81.2587 40.8577 79.6085 40.2571 78.6313 39.948C78.3118 39.8469 77.9645 39.7516 77.6355 39.6855C77.2963 39.6175 76.9442 39.576 76.599 39.5529C76.3969 39.5417 75.8051 39.509 75.6127 39.4948C75.6555 39.5223 75.7039 39.5572 75.7449 39.5876L76.0313 39.8054C76.1507 39.8946 76.2756 39.977 76.406 40.0484C76.5316 40.1162 76.6689 40.1767 76.8027 40.2274C77.5361 40.4949 78.4565 40.6895 79.1992 40.9329C79.843 41.139 80.4818 41.3932 81.0766 41.7151C81.6377 42.0166 82.1733 42.3884 82.6697 42.7873C84.1138 43.9589 85.3268 45.4049 86.3561 46.9481C87.7833 49.1133 88.8883 51.526 89.4022 54.0759C89.5805 54.9767 89.6893 55.9018 89.6718 56.8211C89.6572 57.4304 89.5906 58.0488 89.403 58.6308C89.2185 59.2042 88.8818 59.7817 88.3149 60.0421C87.3184 60.4971 85.9367 59.9557 85.0176 59.4969C84.0093 58.9871 83.0655 58.328 82.1889 57.6175C80.9958 56.6425 79.8985 55.5265 78.9804 54.2883C77.856 52.775 76.9876 51.0558 76.5238 49.2246C76.2633 48.2125 76.1448 47.1484 76.0705 46.1071C76.0132 45.2406 75.95 43.6943 75.8419 42.8528C75.7937 42.4698 75.7273 42.0805 75.6217 41.7087C75.4858 41.2077 75.2348 40.7536 74.966 40.3129C74.7775 40.4887 74.6091 40.7043 74.4161 40.8755C74.2521 41.0214 74.0701 41.1678 73.9406 41.343C73.8396 41.4757 73.762 41.6267 73.7115 41.7855C73.6552 41.9616 73.6302 42.1485 73.6164 42.3322C73.559 43.211 73.744 44.8012 73.7748 45.6929C73.8241 46.7716 73.8096 47.873 73.6617 48.9436C73.5448 49.7964 73.3423 50.6497 73.0435 51.4572C72.6022 52.6462 71.9671 53.7683 71.2362 54.8022C70.5796 55.7253 69.8276 56.5991 69.0001 57.373C68.4039 57.9261 67.757 58.4458 67.0524 58.8543C66.6687 59.0749 66.2605 59.2684 65.8317 59.3829C65.5305 59.4624 65.2127 59.5032 64.9029 59.4552L64.875 59.4506L64.8475 59.4454L64.8201 59.4399L64.793 59.4339L64.7659 59.4274L64.7392 59.4203L64.7127 59.4128L64.6865 59.4049L64.6605 59.3965L64.6347 59.3875L64.6092 59.378L64.584 59.368L64.5589 59.3577L64.5342 59.3468L64.5099 59.3354L64.4857 59.3235L64.462 59.3111L64.4384 59.2984L64.415 59.2852L64.3919 59.2713L64.369 59.257L64.3463 59.2423L64.324 59.227L64.3018 59.2113L64.2799 59.1953L64.2583 59.1787L64.237 59.1616L64.2158 59.1442L64.1949 59.1264L64.1743 59.108L64.1538 59.089C63.9627 58.9093 63.8176 58.6847 63.7047 58.4491C63.5519 58.1296 63.4535 57.7825 63.3829 57.4359C63.2525 56.7821 63.2191 56.1032 63.2268 55.4374C63.2427 54.4267 63.3624 53.4052 63.5426 52.4109C63.8677 50.6594 64.3762 48.9248 65.1337 47.3096C65.6798 46.1542 66.3669 45.0559 67.1884 44.0761C68.0862 43.0143 69.1432 42.0548 70.3823 41.4085C70.6103 41.2917 70.8543 41.1852 71.096 41.0998C71.3409 41.0095 71.7387 40.902 71.9874 40.8278C72.3095 40.7331 72.6324 40.6119 72.9115 40.4219C73.3007 40.1653 73.6653 39.7735 74.0501 39.5118C73.818 39.4525 73.5664 39.3777 73.3311 39.3576C73.1515 39.3397 72.9677 39.3491 72.7884 39.3698C72.0954 39.4583 71.2669 39.654 70.5721 39.7221C69.7083 39.8172 68.8202 39.817 67.9534 39.7626C65.9999 39.6332 64.0526 39.2247 62.2136 38.5527C59.3721 37.4951 56.7412 35.8579 54.4903 33.8306C53.9571 33.3426 53.4249 32.8206 52.9641 32.2631C52.677 31.9129 52.4067 31.5395 52.2088 31.1308C51.9414 30.5767 51.8278 29.9495 52.2462 29.4347C52.5064 29.1147 52.8721 28.8998 53.2415 28.7279C54.1428 28.3246 55.1314 28.1426 56.1065 28.0237C57.2378 27.8932 58.4054 27.8757 59.5422 27.9434C61.6169 28.0682 63.6854 28.5299 65.5808 29.3923C67.558 30.2863 69.3448 31.6228 70.7149 33.3097C71.2869 34.0102 71.8069 34.7816 72.2748 35.5554C72.6927 36.2269 73.187 37.1898 73.5747 37.8831C73.6382 37.9976 73.7225 38.1411 73.8008 38.2486C73.8438 38.3065 73.892 38.3621 73.9507 38.4047C73.9854 38.4298 74.0241 38.45 74.0646 38.4644C74.0869 38.4724 74.1114 38.4794 74.1345 38.4845L74.1438 38.4865L74.1532 38.4884L74.1664 38.4909L74.18 38.4933C74.218 38.4996 74.2943 38.51 74.3322 38.5166C74.479 38.5413 74.6211 38.5932 74.7503 38.6671Z" fill="white" stroke="#303030" stroke-miterlimit="10" stroke-linecap="round" stroke-linejoin="round" />
  <path d="M67.7067 36.5372C67.848 36.2013 68.1493 35.9005 68.6097 35.6525C69.0688 35.4051 69.6529 35.2293 70.292 35.1304C71.5828 34.9306 72.9777 35.061 73.8256 35.4178C75.4854 36.116 76.2637 38.0161 75.5729 39.6582C74.882 41.3003 72.9794 42.0726 71.3197 41.3743C70.4518 41.0092 69.3464 40.1674 68.5593 39.187C68.1681 38.6997 67.874 38.2007 67.7214 37.7342C67.5695 37.2696 67.567 36.8692 67.7067 36.5372Z" fill="white" stroke="#303030" />
</svg>