<svg width="101" height="100" viewBox="0 0 101 100" fill="none" xmlns="http://www.w3.org/2000/svg">
  <circle cx="50.5" cy="50" r="49.0566" fill="white" stroke="#303030" />
  <path d="M41 2C35 12 19.5 21 9.5 23" stroke="#303030" />
  <path d="M72 6C64 11 58.5 18 42.5 30C26.5 42 19.5 41 2 44" stroke="#303030" />
  <path d="M72 94C50.0308 94 28 80 14 83" stroke="#303030" />
  <path d="M98 38C89.5 40.5 77 40.5 74.5 48.5C83.5784 49.0236 88.5 49 99.5 50.5" stroke="#303030" />
  <path d="M84 14C57 19.5 45 59.5 4 66" stroke="#303030" />
  <path d="M93.5 73C24 66 21.5 74.5 4 66" stroke="#303030" />
  <circle cx="50.5" cy="50" r="42.2181" fill="#ECEDF1" stroke="#303030" />
  <path d="M56.0839 48.9923C54.6888 50.7346 52.3262 51.0588 50.8187 49.8517C49.2767 48.6169 48.8236 45.9511 50.1352 44.2559C51.5283 43.1764 52.2475 42.3192 52.881 41.564C52.9302 41.5054 52.9789 41.4473 53.0274 41.3898C53.6329 40.6715 54.2042 40.0346 55.3376 39.3088C55.6352 39.6224 55.956 40.0858 56.2546 40.6717C56.6356 41.4192 56.9624 42.3311 57.1532 43.3066C57.5373 45.27 57.3569 47.4026 56.0839 48.9923Z" fill="white" stroke="#303030" />
  <path d="M55.0569 46.8618C52.8358 47.082 51.2763 48.8862 51.4668 50.808C51.6617 52.7739 53.6499 54.6066 55.786 54.4308C57.4503 53.8511 58.561 53.7154 59.5394 53.5957C59.6154 53.5865 59.6906 53.5773 59.7652 53.568C60.6975 53.4518 61.5429 53.3199 62.7692 52.7652C62.6683 52.3447 62.4547 51.8232 62.1262 51.2535C61.7072 50.5267 61.1207 49.7557 60.4068 49.064C58.9699 47.672 57.0835 46.6609 55.0569 46.8618Z" fill="white" stroke="#303030" />
  <path d="M48.5944 45.383C50.5633 46.4344 51.316 48.6973 50.4063 50.4008C49.4673 52.159 46.8928 53.0951 44.98 52.0737C42.9575 50.9936 41.1166 49.4252 39.0698 46.9805C39.3159 46.6605 39.7067 46.3141 40.2315 45.9816C40.8999 45.5582 41.7472 45.1823 42.6874 44.927C44.5757 44.4143 46.7656 44.4064 48.5944 45.383Z" fill="white" stroke="#303030" />
  <path d="M55.7185 49.6698C54.1028 48.863 52.1164 49.5349 51.2888 51.1921C50.8731 52.0245 50.7874 53.049 51.0211 53.9714C51.2547 54.893 51.792 55.6617 52.5675 56.049C53.499 56.5142 54.7875 57.1047 55.9427 57.3527C56.5215 57.4769 57.0228 57.5049 57.4111 57.4185C57.7782 57.3369 58.0343 57.1579 58.1932 56.8399C58.6051 56.0151 58.7803 54.6033 58.4345 53.1858C58.0929 51.7855 57.2582 50.4387 55.7185 49.6698Z" fill="white" stroke="#303030" />
  <path d="M56.2663 51.2254C54.1885 51.8855 52.2538 51.0153 51.7882 49.5497C51.5503 48.8009 51.6831 47.8828 52.1544 47.0523C52.6228 46.2267 53.4038 45.5298 54.3937 45.2153C55.5128 44.8598 57.063 44.4117 58.3923 44.2714C59.0607 44.2009 59.6282 44.2136 60.0427 44.3273C60.4438 44.4372 60.6356 44.6181 60.7119 44.8584C60.947 45.5985 60.8212 46.8791 60.1107 48.1577C59.4125 49.4145 58.1734 50.6196 56.2663 51.2254Z" fill="white" stroke="#303030" />
  <path d="M52.109 49.9141C53.1818 49.914 55.462 49.6745 56.0009 48.7166" stroke="#303030" stroke-linecap="round" />
  <path d="M54.5653 52.6887C53.735 51.085 51.734 50.4579 50.089 51.3095C49.236 51.7512 48.6225 52.3686 48.2406 53.1835C47.8551 54.0062 47.6896 55.0652 47.7988 56.4082C47.9052 57.7175 48.4323 59.012 49.1286 59.8478C49.8366 60.6974 50.5701 60.9348 51.2005 60.6084C52.0334 60.1772 53.2999 58.955 54.1421 57.4143C54.9829 55.8764 55.3279 54.1617 54.5653 52.6887Z" fill="white" stroke="#303030" />
  <path d="M51.66 50.9619C52.109 51.935 52.8724 54.1954 52.3336 55.4526" stroke="#303030" stroke-linecap="round" />
  <path d="M51.2988 51.4891C50.8398 50.6026 50.3088 49.929 49.6816 49.5203C49.07 49.1218 48.3295 48.9503 47.3826 49.1308C46.4975 49.2996 45.4004 50.1278 44.5346 51.3253C43.6764 52.5124 43.1358 53.94 43.2369 55.1828C43.3515 56.5922 43.5498 57.671 43.8956 58.2753C44.0598 58.5621 44.2239 58.6829 44.376 58.7245C44.5332 58.7675 44.7886 58.7568 45.1968 58.5454C46.1349 58.0597 48.1019 56.9939 49.6135 55.6493C50.3706 54.9758 50.9796 54.2616 51.3013 53.547C51.6147 52.8511 51.6517 52.1707 51.2988 51.4891Z" fill="white" stroke="#303030" />
  <path d="M52.6258 45.4788C53.134 47.2649 52.2123 49.0096 50.6841 49.4445C49.0962 49.8963 47.0535 48.8967 46.5627 47.1718C46.2776 46.1697 45.9293 44.7905 45.8703 43.6113C45.8407 43.0191 45.887 42.5231 46.0196 42.1636C46.1454 41.8227 46.3326 41.637 46.6014 41.5606C47.3686 41.3423 48.6375 41.4595 49.8538 42.0897C51.051 42.7101 52.1493 43.8042 52.6258 45.4788Z" fill="white" stroke="#303030" />
  <path d="M51.0612 49.0159C51.0363 48.467 50.7918 47.1597 50.0134 46.3215" stroke="#303030" stroke-linecap="round" />
  <path d="M50.238 50.363C49.1403 50.5876 46.87 51.396 46.5706 52.833" stroke="#303030" stroke-linecap="round" />
</svg>