<svg width="113" height="60" viewBox="0 0 113 60" fill="none" xmlns="http://www.w3.org/2000/svg">
<path d="M60.4764 56.583L60.4648 56.6113L60.4538 56.6396L60.4428 56.6678L60.4324 56.6961L60.4226 56.725L60.4128 56.7539L60.4043 56.7834L60.3957 56.8129L60.3878 56.8418L60.3804 56.8719L60.3737 56.9014L60.3676 56.9309L60.3621 56.961L60.3566 56.9912L60.3517 57.0213L60.3474 57.0514L60.3438 57.0815L60.3407 57.1122L60.3382 57.1424L60.3358 57.1731L60.3346 57.2032L60.3334 57.234L60.3328 57.2641V57.2948L60.3334 57.3249L60.3346 57.3557L60.3358 57.3858L60.3382 57.4165L60.3407 57.4466L60.3438 57.4774L60.3474 57.5075L60.3517 57.5376L60.3566 57.5677L60.3621 57.5979L60.3676 57.628L60.3737 57.6575L60.381 57.687L60.3884 57.7165L60.3957 57.746L60.4043 57.7755L60.4134 57.8044L60.4226 57.8339L60.4324 57.8628L60.4428 57.8911L60.4538 57.9193L60.4648 57.9476L60.477 57.9759L60.4892 58.0035L60.5021 58.0312L60.5155 58.0589L60.529 58.0859L60.5436 58.113L60.5583 58.1394L60.573 58.1658L60.5889 58.1923L60.6048 58.2181L60.6212 58.2433L60.6384 58.2685L60.6555 58.2937L60.6738 58.3183L60.6915 58.3429L60.7105 58.3668L60.7294 58.3902L60.749 58.4135L60.7692 58.4369L60.7893 58.4596L60.8101 58.4818L60.8309 58.5039L60.8523 58.5254L60.8743 58.5463L60.8963 58.5672L60.9189 58.5875L60.9415 58.6078L60.9648 58.6275L60.9886 58.6465L61.0124 58.665L61.0369 58.6834L61.0613 58.7012L61.0858 58.719L61.1108 58.7356L61.1365 58.7522L61.1622 58.7688L61.1884 58.7842L61.2147 58.7996L61.241 58.8143L61.2679 58.8285L61.2948 58.8426L61.3217 58.8561L61.3492 58.869L61.3773 58.8813L61.4048 58.893L61.4329 58.9047L61.4617 58.9157L61.4898 58.9256L61.5185 58.936L61.5472 58.9452L61.5766 58.9539L61.6053 58.9625L61.6347 58.9704L61.664 58.9778L61.6939 58.9846L61.7233 58.9907L61.7532 58.9969L61.7832 59.0018L61.8131 59.0067L61.8431 59.011L61.873 59.0147L61.903 59.0178L61.9335 59.0209L61.9635 59.0227L61.994 59.0245L62.024 59.0252L62.0545 59.0258H62.0851L62.115 59.0252L62.1456 59.0245L62.1755 59.0227L62.2061 59.0209L62.2361 59.0178L62.2666 59.0147L62.2966 59.011L62.3265 59.0067L62.3565 59.0018L62.3864 58.9969L62.4158 58.9907L62.4457 58.9846L62.4751 58.9778L62.5044 58.9704L62.5337 58.9625L62.5631 58.9539L62.5918 58.9452L62.6205 58.936L62.6493 58.9256L62.678 58.9157L62.7061 58.9047L62.7342 58.893L62.7623 58.8813L62.7898 58.869L62.8174 58.8561L62.8448 58.8426L62.8717 58.8285L62.8986 58.8143L62.9249 58.7996L62.9512 58.7842L62.9775 58.7688L63.0031 58.7522L63.0282 58.7356L63.0533 58.719L63.0783 58.7012L63.1028 58.6834L63.1272 58.665L63.1511 58.6465L63.1743 58.6275L63.1975 58.6078L63.2207 58.5875L63.2433 58.5672L63.2654 58.5463L63.2874 58.5254L63.3087 58.5039L63.3295 58.4818L63.3503 58.4596L63.3705 58.4369L63.3907 58.4135L63.4102 58.3902L63.4292 58.3668L63.4475 58.3429L63.4658 58.3183L63.4836 58.2937L63.5013 58.2685L63.5178 58.2433L63.5343 58.2181L63.5508 58.1923L63.5661 58.1658L63.5814 58.1394L63.596 58.113L63.6101 58.0859L63.6241 58.0589L63.6376 58.0312L63.6504 58.0035L63.6627 57.9759L63.6743 57.9476L63.6859 57.9193L63.6969 57.8911L63.7073 57.8628L63.7171 57.8339L63.7262 57.8044L63.7354 57.7755L63.7433 57.746L63.7513 57.7165L63.7586 57.687L63.7653 57.6575L63.772 57.628L63.7776 57.5979L63.783 57.5677L63.7873 57.5376L63.7916 57.5075L63.7953 57.4774L63.7989 57.4466L63.8014 57.4165L63.8032 57.3858L63.8051 57.3557L63.8063 57.3249L63.8069 57.2948V57.2641L63.8063 57.234L63.8051 57.2032L63.8032 57.1731L63.8014 57.1424L63.7989 57.1122L63.7953 57.0815L63.7916 57.0514L63.7879 57.0213L63.783 56.9912L63.7776 56.961L63.772 56.9309L63.7653 56.9014L63.7586 56.8719L63.7513 56.8418L63.7433 56.8129L63.7354 56.7834L63.7262 56.7539L63.7171 56.725L63.7073 56.6961L63.6969 56.6678L63.6859 56.6396L63.6749 56.6113L63.6627 56.583" fill="white"/>
<path d="M60.4764 56.583L60.4648 56.6113L60.4538 56.6396L60.4428 56.6678L60.4324 56.6961L60.4226 56.725L60.4128 56.7539L60.4043 56.7834L60.3957 56.8129L60.3878 56.8418L60.3804 56.8719L60.3737 56.9014L60.3676 56.9309L60.3621 56.961L60.3566 56.9912L60.3517 57.0213L60.3474 57.0514L60.3438 57.0815L60.3407 57.1122L60.3382 57.1424L60.3358 57.1731L60.3346 57.2032L60.3334 57.234L60.3328 57.2641V57.2948L60.3334 57.3249L60.3346 57.3557L60.3358 57.3858L60.3382 57.4165L60.3407 57.4466L60.3438 57.4774L60.3474 57.5075L60.3517 57.5376L60.3566 57.5677L60.3621 57.5979L60.3676 57.628L60.3737 57.6575L60.381 57.687L60.3884 57.7165L60.3957 57.746L60.4043 57.7755L60.4134 57.8044L60.4226 57.8339L60.4324 57.8628L60.4428 57.8911L60.4538 57.9193L60.4648 57.9476L60.477 57.9759L60.4892 58.0035L60.5021 58.0312L60.5155 58.0589L60.529 58.0859L60.5436 58.113L60.5583 58.1394L60.573 58.1658L60.5889 58.1923L60.6048 58.2181L60.6212 58.2433L60.6384 58.2685L60.6555 58.2937L60.6738 58.3183L60.6915 58.3429L60.7105 58.3668L60.7294 58.3902L60.749 58.4135L60.7692 58.4369L60.7893 58.4596L60.8101 58.4818L60.8309 58.5039L60.8523 58.5254L60.8743 58.5463L60.8963 58.5672L60.9189 58.5875L60.9415 58.6078L60.9648 58.6275L60.9886 58.6465L61.0124 58.665L61.0369 58.6834L61.0613 58.7012L61.0858 58.719L61.1108 58.7356L61.1365 58.7522L61.1622 58.7688L61.1884 58.7842L61.2147 58.7996L61.241 58.8143L61.2679 58.8285L61.2948 58.8426L61.3217 58.8561L61.3492 58.869L61.3773 58.8813L61.4048 58.893L61.4329 58.9047L61.4617 58.9157L61.4898 58.9256L61.5185 58.936L61.5472 58.9452L61.5766 58.9539L61.6053 58.9625L61.6347 58.9704L61.664 58.9778L61.6939 58.9846L61.7233 58.9907L61.7532 58.9969L61.7832 59.0018L61.8131 59.0067L61.8431 59.011L61.873 59.0147L61.903 59.0178L61.9335 59.0209L61.9635 59.0227L61.994 59.0245L62.024 59.0252L62.0545 59.0258H62.0851L62.115 59.0252L62.1456 59.0245L62.1755 59.0227L62.2061 59.0209L62.2361 59.0178L62.2666 59.0147L62.2966 59.011L62.3265 59.0067L62.3565 59.0018L62.3864 58.9969L62.4158 58.9907L62.4457 58.9846L62.4751 58.9778L62.5044 58.9704L62.5337 58.9625L62.5631 58.9539L62.5918 58.9452L62.6205 58.936L62.6493 58.9256L62.678 58.9157L62.7061 58.9047L62.7342 58.893L62.7623 58.8813L62.7898 58.869L62.8174 58.8561L62.8448 58.8426L62.8717 58.8285L62.8986 58.8143L62.9249 58.7996L62.9512 58.7842L62.9775 58.7688L63.0031 58.7522L63.0282 58.7356L63.0533 58.719L63.0783 58.7012L63.1028 58.6834L63.1272 58.665L63.1511 58.6465L63.1743 58.6275L63.1975 58.6078L63.2207 58.5875L63.2433 58.5672L63.2654 58.5463L63.2874 58.5254L63.3087 58.5039L63.3295 58.4818L63.3503 58.4596L63.3705 58.4369L63.3907 58.4135L63.4102 58.3902L63.4292 58.3668L63.4475 58.3429L63.4658 58.3183L63.4836 58.2937L63.5013 58.2685L63.5178 58.2433L63.5343 58.2181L63.5508 58.1923L63.5661 58.1658L63.5814 58.1394L63.596 58.113L63.6101 58.0859L63.6241 58.0589L63.6376 58.0312L63.6504 58.0035L63.6627 57.9759L63.6743 57.9476L63.6859 57.9193L63.6969 57.8911L63.7073 57.8628L63.7171 57.8339L63.7262 57.8044L63.7354 57.7755L63.7433 57.746L63.7513 57.7165L63.7586 57.687L63.7653 57.6575L63.772 57.628L63.7776 57.5979L63.783 57.5677L63.7873 57.5376L63.7916 57.5075L63.7953 57.4774L63.7989 57.4466L63.8014 57.4165L63.8032 57.3858L63.8051 57.3557L63.8063 57.3249L63.8069 57.2948V57.2641L63.8063 57.234L63.8051 57.2032L63.8032 57.1731L63.8014 57.1424L63.7989 57.1122L63.7953 57.0815L63.7916 57.0514L63.7879 57.0213L63.783 56.9912L63.7776 56.961L63.772 56.9309L63.7653 56.9014L63.7586 56.8719L63.7513 56.8418L63.7433 56.8129L63.7354 56.7834L63.7262 56.7539L63.7171 56.725L63.7073 56.6961L63.6969 56.6678L63.6859 56.6396L63.6749 56.6113L63.6627 56.583" stroke="#303030" stroke-miterlimit="10" stroke-linecap="round" stroke-linejoin="round"/>
<path d="M49.4366 56.583L49.4251 56.611L49.4136 56.639L49.4028 56.6669L49.3925 56.6949L49.3828 56.7235L49.3737 56.7521L49.3647 56.7813L49.3568 56.8105L49.3489 56.8391L49.3417 56.8689L49.335 56.8981L49.3284 56.9272L49.3229 56.957L49.3175 56.9869L49.3132 57.0167L49.309 57.0465L49.3054 57.0763L49.3024 57.1067L49.2993 57.1365L49.2975 57.1669L49.2957 57.1967L49.2945 57.2271V57.2569V57.2873V57.3171L49.2957 57.3475L49.2975 57.3773L49.2993 57.4077L49.3024 57.4375L49.3054 57.4679L49.309 57.4977L49.3132 57.5275L49.3175 57.5573L49.3229 57.5871L49.329 57.6169L49.335 57.6461L49.3417 57.6753L49.3489 57.7045L49.3568 57.7337L49.3653 57.7629L49.3737 57.7915L49.3828 57.8207L49.3931 57.8493L49.4033 57.8773L49.4136 57.9052L49.4251 57.9332L49.4366 57.9612L49.4487 57.9886L49.4614 58.0159L49.4747 58.0433L49.4886 58.0701L49.5025 58.0968L49.517 58.123L49.5322 58.1491L49.5473 58.1753L49.5636 58.2008L49.5799 58.2258L49.5963 58.2507L49.6138 58.2756L49.6314 58.3L49.6495 58.3243L49.6676 58.348L49.687 58.3711L49.7057 58.3942L49.7257 58.4173L49.7457 58.4398L49.7662 58.4617L49.7874 58.4836L49.8085 58.5049L49.8297 58.5256L49.8521 58.5463L49.8739 58.5664L49.8969 58.5864L49.9198 58.6059L49.9428 58.6247L49.9664 58.643L49.9906 58.6612L50.0148 58.6789L50.0396 58.6965L50.0644 58.7129L50.0898 58.7293L50.1152 58.7458L50.1406 58.761L50.1666 58.7762L50.1926 58.7908L50.2192 58.8048L50.2458 58.8188L50.273 58.8321L50.3002 58.8449L50.3274 58.8571L50.3553 58.8686L50.3831 58.8802L50.4109 58.8911L50.4393 58.9009L50.4677 58.9112L50.4962 58.9203L50.5246 58.9288L50.5536 58.9373L50.5826 58.9453L50.6117 58.9526L50.6407 58.9592L50.6704 58.9653L50.6994 58.9714L50.729 58.9763L50.7586 58.9811L50.7883 58.9854L50.8185 58.989L50.8482 58.9921L50.8778 58.9951L50.908 58.997L50.9376 58.9988L50.9679 58.9994L50.9981 59H51.0278L51.058 58.9994L51.0876 58.9988L51.1179 58.997L51.1475 58.9951L51.1777 58.9921L51.2074 58.989L51.237 58.9854L51.2666 58.9811L51.2963 58.9763L51.3259 58.9714L51.3555 58.9653L51.3846 58.9592L51.4142 58.9526L51.4432 58.9453L51.4723 58.9373L51.5007 58.9288L51.5297 58.9203L51.5581 58.9112L51.5865 58.9009L51.6144 58.8911L51.6428 58.8802L51.6706 58.8686L51.6978 58.8571L51.7257 58.8449L51.7529 58.8321L51.7795 58.8188L51.8061 58.8048L51.8327 58.7908L51.8593 58.7762L51.8853 58.761L51.9107 58.7458L51.9361 58.7293L51.9615 58.7129L51.9863 58.6965L52.0105 58.6789L52.0353 58.6612L52.0589 58.643L52.0825 58.6247L52.106 58.6059L52.129 58.5864L52.1514 58.5664L52.1738 58.5463L52.1956 58.5256L52.2173 58.5049L52.2385 58.4836L52.2597 58.4617L52.2796 58.4398L52.3002 58.4173L52.3195 58.3942L52.3389 58.3711L52.3576 58.348L52.3764 58.3243L52.3945 58.3L52.4121 58.2756L52.429 58.2507L52.4459 58.2258L52.4622 58.2008L52.478 58.1753L52.4937 58.1491L52.5088 58.123L52.5233 58.0968L52.5372 58.0701L52.5505 58.0433L52.5639 58.0159L52.5766 57.9886L52.5887 57.9612L52.6007 57.9332L52.6116 57.9052L52.6225 57.8773L52.6328 57.8493L52.6425 57.8207L52.6522 57.7915L52.6606 57.7629L52.6691 57.7337L52.677 57.7045L52.6842 57.6753L52.6909 57.6461L52.6969 57.6169L52.7024 57.5871L52.7078 57.5573L52.7126 57.5275L52.7169 57.4977L52.7205 57.4679L52.7235 57.4375L52.7259 57.4077L52.7283 57.3773L52.7296 57.3475L52.7308 57.3171L52.7314 57.2873V57.2569L52.7308 57.2271L52.7296 57.1967L52.7283 57.1669L52.7259 57.1365L52.7235 57.1067L52.7205 57.0763L52.7169 57.0465L52.7126 57.0167L52.7078 56.9869L52.7029 56.957L52.6969 56.9272L52.6909 56.8981L52.6842 56.8689L52.677 56.8391L52.6691 56.8105L52.6606 56.7813L52.6522 56.7521L52.6425 56.7235L52.6328 56.6949L52.6225 56.6669L52.6123 56.639L52.6007 56.611L52.5893 56.583" fill="white"/>
<path d="M49.4366 56.583L49.4251 56.611L49.4136 56.639L49.4028 56.6669L49.3925 56.6949L49.3828 56.7235L49.3737 56.7521L49.3647 56.7813L49.3568 56.8105L49.3489 56.8391L49.3417 56.8689L49.335 56.8981L49.3284 56.9272L49.3229 56.957L49.3175 56.9869L49.3132 57.0167L49.309 57.0465L49.3054 57.0763L49.3024 57.1067L49.2993 57.1365L49.2975 57.1669L49.2957 57.1967L49.2945 57.2271V57.2569V57.2873V57.3171L49.2957 57.3475L49.2975 57.3773L49.2993 57.4077L49.3024 57.4375L49.3054 57.4679L49.309 57.4977L49.3132 57.5275L49.3175 57.5573L49.3229 57.5871L49.329 57.6169L49.335 57.6461L49.3417 57.6753L49.3489 57.7045L49.3568 57.7337L49.3653 57.7629L49.3737 57.7915L49.3828 57.8207L49.3931 57.8493L49.4033 57.8773L49.4136 57.9052L49.4251 57.9332L49.4366 57.9612L49.4487 57.9886L49.4614 58.0159L49.4747 58.0433L49.4886 58.0701L49.5025 58.0968L49.517 58.123L49.5322 58.1491L49.5473 58.1753L49.5636 58.2008L49.5799 58.2258L49.5963 58.2507L49.6138 58.2756L49.6314 58.3L49.6495 58.3243L49.6676 58.348L49.687 58.3711L49.7057 58.3942L49.7257 58.4173L49.7457 58.4398L49.7662 58.4617L49.7874 58.4836L49.8085 58.5049L49.8297 58.5256L49.8521 58.5463L49.8739 58.5664L49.8969 58.5864L49.9198 58.6059L49.9428 58.6247L49.9664 58.643L49.9906 58.6612L50.0148 58.6789L50.0396 58.6965L50.0644 58.7129L50.0898 58.7293L50.1152 58.7458L50.1406 58.761L50.1666 58.7762L50.1926 58.7908L50.2192 58.8048L50.2458 58.8188L50.273 58.8321L50.3002 58.8449L50.3274 58.8571L50.3553 58.8686L50.3831 58.8802L50.4109 58.8911L50.4393 58.9009L50.4677 58.9112L50.4962 58.9203L50.5246 58.9288L50.5536 58.9373L50.5826 58.9453L50.6117 58.9526L50.6407 58.9592L50.6704 58.9653L50.6994 58.9714L50.729 58.9763L50.7586 58.9811L50.7883 58.9854L50.8185 58.989L50.8482 58.9921L50.8778 58.9951L50.908 58.997L50.9376 58.9988L50.9679 58.9994L50.9981 59H51.0278L51.058 58.9994L51.0876 58.9988L51.1179 58.997L51.1475 58.9951L51.1777 58.9921L51.2074 58.989L51.237 58.9854L51.2666 58.9811L51.2963 58.9763L51.3259 58.9714L51.3555 58.9653L51.3846 58.9592L51.4142 58.9526L51.4432 58.9453L51.4723 58.9373L51.5007 58.9288L51.5297 58.9203L51.5581 58.9112L51.5865 58.9009L51.6144 58.8911L51.6428 58.8802L51.6706 58.8686L51.6978 58.8571L51.7257 58.8449L51.7529 58.8321L51.7795 58.8188L51.8061 58.8048L51.8327 58.7908L51.8593 58.7762L51.8853 58.761L51.9107 58.7458L51.9361 58.7293L51.9615 58.7129L51.9863 58.6965L52.0105 58.6789L52.0353 58.6612L52.0589 58.643L52.0825 58.6247L52.106 58.6059L52.129 58.5864L52.1514 58.5664L52.1738 58.5463L52.1956 58.5256L52.2173 58.5049L52.2385 58.4836L52.2597 58.4617L52.2796 58.4398L52.3002 58.4173L52.3195 58.3942L52.3389 58.3711L52.3576 58.348L52.3764 58.3243L52.3945 58.3L52.4121 58.2756L52.429 58.2507L52.4459 58.2258L52.4622 58.2008L52.478 58.1753L52.4937 58.1491L52.5088 58.123L52.5233 58.0968L52.5372 58.0701L52.5505 58.0433L52.5639 58.0159L52.5766 57.9886L52.5887 57.9612L52.6007 57.9332L52.6116 57.9052L52.6225 57.8773L52.6328 57.8493L52.6425 57.8207L52.6522 57.7915L52.6606 57.7629L52.6691 57.7337L52.677 57.7045L52.6842 57.6753L52.6909 57.6461L52.6969 57.6169L52.7024 57.5871L52.7078 57.5573L52.7126 57.5275L52.7169 57.4977L52.7205 57.4679L52.7235 57.4375L52.7259 57.4077L52.7283 57.3773L52.7296 57.3475L52.7308 57.3171L52.7314 57.2873V57.2569L52.7308 57.2271L52.7296 57.1967L52.7283 57.1669L52.7259 57.1365L52.7235 57.1067L52.7205 57.0763L52.7169 57.0465L52.7126 57.0167L52.7078 56.9869L52.7029 56.957L52.6969 56.9272L52.6909 56.8981L52.6842 56.8689L52.677 56.8391L52.6691 56.8105L52.6606 56.7813L52.6522 56.7521L52.6425 56.7235L52.6328 56.6949L52.6225 56.6669L52.6123 56.639L52.6007 56.611L52.5893 56.583" stroke="#303030" stroke-miterlimit="10" stroke-linecap="round" stroke-linejoin="round"/>
<path d="M111.802 53.7917H56.532V56.5828H111.802V53.7917Z" fill="white" stroke="#303030" stroke-miterlimit="10" stroke-linecap="round" stroke-linejoin="round"/>
<path d="M56.532 53.7917H1.2619V56.5828H56.532V53.7917Z" fill="white" stroke="#303030" stroke-miterlimit="10" stroke-linecap="round" stroke-linejoin="round"/>
<path d="M111.802 0.766113H1.2619V53.7917H111.802V0.766113Z" fill="#ECEDF1" stroke="#303030" stroke-miterlimit="10" stroke-linecap="round" stroke-linejoin="round"/>
<path d="M6.10004 4.88501L108.547 49.9619" stroke="#303030"/>
<path d="M108.547 4.88501L6.10004 49.9619" stroke="#303030"/>
</svg>
