<svg width="151" height="29" viewBox="0 0 151 29" fill="none" xmlns="http://www.w3.org/2000/svg">
<g clip-path="url(#clip0_204_3)">
<path d="M14.2102 8.11252L16.4102 8.63525L17.8769 12.2943H14.9435C14.9435 12.2943 14.7707 13.3398 14.2102 13.3398C13.6934 13.3398 13.4769 12.2943 13.4769 12.2943H10.5435L12.0102 8.63525L14.2102 8.11252Z" fill="#FFBC2A"/>
<path d="M19.5 26H25V8.65254C24.3928 6.76836 21.3847 3 14.2102 3C7.03567 3 3.74735 6.76836 3 8.65254V26H9.71338M19.5 26H14H9.71338M19.5 26L17.8185 22.1017M9.71338 26L12.0102 22.1017M12.0102 22.1017H17.8185M12.0102 22.1017C9.03949 21.5559 8 17.2381 7.29363 15.572C6.99733 14.8732 8.37605 14.8041 9.01019 14.9734C9.98166 15.2327 10.394 15.5969 11.0771 16.1429C11.7602 16.6888 12.5287 18.8717 14 18.8717C15.4713 18.8717 17.4331 18.8717 18.6943 18.8717C19.3949 18.8717 19.8153 20.2353 19.8153 20.6398C19.8153 21.322 19.8153 22.1017 19.8153 22.1017H17.8185M14.2102 5.09091V8.11252M14.2102 8.11252L12.0102 8.63525L10.5435 12.2943H13.4769C13.4769 12.2943 13.6934 13.3398 14.2102 13.3398C14.7707 13.3398 14.9435 12.2943 14.9435 12.2943H17.8769L16.4102 8.63525L14.2102 8.11252Z" stroke="#FFBB27" stroke-width="1.5"/>
<g filter="url(#filter0_d_204_3)">
<path d="M29.873 22C29.465 22 29.1533 21.9377 28.938 21.813C28.7227 21.677 28.5697 21.456 28.479 21.15C28.3883 20.8327 28.343 20.3793 28.343 19.79V10.78H30.553V19.79C30.553 20.368 30.6323 20.7987 30.791 21.082C30.9497 21.354 31.267 21.49 31.743 21.49H31.913V22H29.873ZM34.6791 13.585V22H33.8291V12.82C33.8291 12.344 33.7101 11.97 33.4721 11.698C33.2454 11.426 32.8544 11.29 32.2991 11.29H32.2141V10.78H33.4041C34.0388 10.78 34.5544 10.865 34.9511 11.035C35.3591 11.1937 35.6991 11.4487 35.9711 11.8L41.8191 18.6V10.78H42.6691V22.051H41.8871L34.6791 13.585ZM47.8776 11.545H46.6706C46.0359 11.545 45.5486 11.7037 45.2086 12.021C44.8799 12.3383 44.7156 12.8597 44.7156 13.585H44.2056V12.14C44.2056 11.2333 44.6873 10.78 45.6506 10.78H53.6406V11.545H50.0876V22H47.8776V11.545ZM55.3269 12.99C55.3269 12.412 55.2476 11.987 55.0889 11.715C54.9302 11.4317 54.6129 11.29 54.1369 11.29H53.9669V10.78H61.4639C62.4272 10.78 62.9089 11.2333 62.9089 12.14V13.585H62.3989C62.3989 12.8823 62.2176 12.3667 61.8549 12.038C61.5036 11.7093 60.9766 11.545 60.2739 11.545H57.5369V15.795H61.9569V16.56H57.5369V21.235H60.4439C61.0899 21.235 61.6282 21.0933 62.0589 20.81C62.4896 20.5153 62.8466 20.011 63.1299 19.297L63.5889 19.467L63.0959 20.81C62.9486 21.218 62.7729 21.5183 62.5689 21.711C62.3649 21.9037 62.0476 22 61.6169 22H55.3269V12.99ZM73.4253 22.17C72.8019 22.17 72.2353 21.9887 71.7253 21.626C71.2153 21.252 70.6826 20.6117 70.1273 19.705L68.4273 16.866H67.7473V22H65.5203V12.99C65.5203 12.412 65.4409 11.987 65.2823 11.715C65.1236 11.4317 64.8063 11.29 64.3303 11.29H64.1603V10.78H68.8523C70.0309 10.78 71.0906 10.9953 72.0313 11.426C72.9719 11.8567 73.4423 12.684 73.4423 13.908C73.4423 15.3247 72.5243 16.2653 70.6883 16.73L72.4733 19.705C73.1419 20.827 73.8446 21.4503 74.5813 21.575V22C74.4906 22.0453 74.3263 22.085 74.0883 22.119C73.8503 22.153 73.6293 22.17 73.4253 22.17ZM68.7673 16.186C69.4019 16.186 69.9403 15.999 70.3823 15.625C70.8356 15.2397 71.0623 14.639 71.0623 13.823C71.0623 13.0183 70.8413 12.4233 70.3993 12.038C69.9573 11.6527 69.4416 11.46 68.8523 11.46C68.5236 11.46 68.2686 11.4827 68.0873 11.528L67.7473 11.579V16.186H68.7673ZM77.2539 22C76.8459 22 76.5342 21.9377 76.3189 21.813C76.1035 21.677 75.9505 21.456 75.8599 21.15C75.7692 20.8327 75.7239 20.3793 75.7239 19.79V10.78H77.9339V19.79C77.9339 20.368 78.0132 20.7987 78.1719 21.082C78.3305 21.354 78.6479 21.49 79.1239 21.49H79.2939V22H77.2539ZM85.6833 22.34C84.584 22.34 83.6037 22.0793 82.7423 21.558C81.8923 21.0367 81.235 20.3227 80.7703 19.416C80.3057 18.5093 80.0733 17.5007 80.0733 16.39C80.0733 15.2793 80.3057 14.2707 80.7703 13.364C81.235 12.4573 81.8923 11.7433 82.7423 11.222C83.6037 10.7007 84.584 10.44 85.6833 10.44C86.7827 10.44 87.7573 10.7007 88.6073 11.222C89.4573 11.7433 90.1147 12.4573 90.5793 13.364C91.044 14.2707 91.2763 15.2793 91.2763 16.39C91.2763 17.5007 91.044 18.5093 90.5793 19.416C90.1147 20.3227 89.4573 21.0367 88.6073 21.558C87.7573 22.0793 86.7827 22.34 85.6833 22.34ZM85.6833 21.575C86.7147 21.575 87.5137 21.1273 88.0803 20.232C88.647 19.3253 88.9303 18.0447 88.9303 16.39C88.9303 14.7353 88.647 13.4603 88.0803 12.565C87.5137 11.6583 86.7147 11.205 85.6833 11.205C84.652 11.205 83.853 11.6583 83.2863 12.565C82.731 13.4603 82.4533 14.7353 82.4533 16.39C82.4533 18.0447 82.731 19.3253 83.2863 20.232C83.853 21.1273 84.652 21.575 85.6833 21.575ZM101.333 22.17C100.709 22.17 100.142 21.9887 99.6325 21.626C99.1225 21.252 98.5898 20.6117 98.0345 19.705L96.3345 16.866H95.6545V22H93.4275V12.99C93.4275 12.412 93.3482 11.987 93.1895 11.715C93.0308 11.4317 92.7135 11.29 92.2375 11.29H92.0675V10.78H96.7595C97.9382 10.78 98.9978 10.9953 99.9385 11.426C100.879 11.8567 101.35 12.684 101.35 13.908C101.35 15.3247 100.432 16.2653 98.5955 16.73L100.381 19.705C101.049 20.827 101.752 21.4503 102.489 21.575V22C102.398 22.0453 102.234 22.085 101.996 22.119C101.758 22.153 101.537 22.17 101.333 22.17ZM96.6745 16.186C97.3092 16.186 97.8475 15.999 98.2895 15.625C98.7428 15.2397 98.9695 14.639 98.9695 13.823C98.9695 13.0183 98.7485 12.4233 98.3065 12.038C97.8645 11.6527 97.3488 11.46 96.7595 11.46C96.4308 11.46 96.1758 11.4827 95.9945 11.528L95.6545 11.579V16.186H96.6745ZM108.153 12.99C108.153 12.412 108.074 11.987 107.915 11.715C107.756 11.4317 107.439 11.29 106.963 11.29H106.793V10.78H108.833C109.241 10.78 109.553 10.848 109.768 10.984C109.983 11.12 110.136 11.3467 110.227 11.664C110.318 11.97 110.363 12.412 110.363 12.99V21.235H116.228V22H108.153V12.99ZM121.441 22.17C118.381 22.17 116.851 20.4813 116.851 17.104V12.99C116.851 12.412 116.772 11.987 116.613 11.715C116.454 11.4317 116.137 11.29 115.661 11.29V10.78H117.531C117.939 10.78 118.251 10.848 118.466 10.984C118.681 11.12 118.834 11.3467 118.925 11.664C119.016 11.97 119.061 12.412 119.061 12.99L119.078 17.614C119.089 18.8153 119.322 19.7503 119.775 20.419C120.24 21.0763 120.908 21.405 121.781 21.405C122.937 21.405 123.776 21.065 124.297 20.385C124.83 19.6937 125.096 18.6 125.096 17.104V10.78H125.946V17.104C125.946 18.77 125.595 20.0337 124.892 20.895C124.189 21.745 123.039 22.17 121.441 22.17ZM131.562 16.713L129.148 12.99C128.853 12.514 128.49 12.0947 128.06 11.732C127.629 11.3693 127.232 11.1653 126.87 11.12V10.78H128.74C129.318 10.78 129.839 10.9613 130.304 11.324C130.78 11.6867 131.182 12.1287 131.511 12.65L132.99 14.928L136.271 10.78H137.376L133.483 15.693L136.152 19.79C136.446 20.266 136.809 20.6853 137.24 21.048C137.67 21.4107 138.067 21.6147 138.43 21.66V22H136.56C135.982 22 135.455 21.8187 134.979 21.456C134.514 21.0933 134.117 20.6513 133.789 20.13L132.072 17.478L128.485 22H127.38L131.562 16.713ZM139.713 12.99C139.713 12.412 139.633 11.987 139.475 11.715C139.316 11.4317 138.999 11.29 138.523 11.29H138.353V10.78H145.85C146.813 10.78 147.295 11.2333 147.295 12.14V13.585H146.785C146.785 12.8823 146.603 12.3667 146.241 12.038C145.889 11.7093 145.362 11.545 144.66 11.545H141.923V15.795H146.343V16.56H141.923V21.235H144.83C145.476 21.235 146.014 21.0933 146.445 20.81C146.875 20.5153 147.232 20.011 147.516 19.297L147.975 19.467L147.482 20.81C147.334 21.218 147.159 21.5183 146.955 21.711C146.751 21.9037 146.433 22 146.003 22H139.713V12.99Z" fill="white"/>
</g>
</g>
<defs>
<filter id="filter0_d_204_3" x="24.3428" y="10.4399" width="127.632" height="19.9001" filterUnits="userSpaceOnUse" color-interpolation-filters="sRGB">
<feFlood flood-opacity="0" result="BackgroundImageFix"/>
<feColorMatrix in="SourceAlpha" type="matrix" values="0 0 0 0 0 0 0 0 0 0 0 0 0 0 0 0 0 0 127 0" result="hardAlpha"/>
<feOffset dy="4"/>
<feGaussianBlur stdDeviation="2"/>
<feComposite in2="hardAlpha" operator="out"/>
<feColorMatrix type="matrix" values="0 0 0 0 0 0 0 0 0 0 0 0 0 0 0 0 0 0 0.25 0"/>
<feBlend mode="normal" in2="BackgroundImageFix" result="effect1_dropShadow_204_3"/>
<feBlend mode="normal" in="SourceGraphic" in2="effect1_dropShadow_204_3" result="shape"/>
</filter>
<clipPath id="clip0_204_3">
<rect width="151" height="29" fill="white"/>
</clipPath>
</defs>
</svg>
