<svg width="130" height="25" viewBox="0 0 130 25" fill="none" xmlns="http://www.w3.org/2000/svg">
<g clip-path="url(#clip0_204_3)">
<path d="M13.2102 6.66795L15.4102 7.14522L16.8769 10.4861H13.9435C13.9435 10.4861 13.7707 11.4407 13.2102 11.4407C12.6934 11.4407 12.4769 10.4861 12.4769 10.4861H9.54353L11.0102 7.14522L13.2102 6.66795Z" fill="#FFBC2A"/>
<path d="M18.5 23H24V7.16102C23.3928 5.44068 20.3847 2 13.2102 2C6.03567 2 2.74735 5.44068 2 7.16102V23H8.71338M18.5 23H13H8.71338M18.5 23L16.8185 19.4407M8.71338 23L11.0102 19.4407M11.0102 19.4407H16.8185M11.0102 19.4407C8.03949 18.9424 7 15 6.29363 13.4788C5.99733 12.8407 7.37605 12.7777 8.01019 12.9322C8.98166 13.169 9.39397 13.5016 10.0771 14C10.7602 14.4984 11.5287 16.4915 13 16.4915C14.4713 16.4915 16.4331 16.4915 17.6943 16.4915C18.3949 16.4915 18.8153 17.7365 18.8153 18.1059C18.8153 18.7288 18.8153 19.4407 18.8153 19.4407H16.8185M13.2102 3.90909V6.66795M13.2102 6.66795L11.0102 7.14522L9.54353 10.4861H12.4769C12.4769 10.4861 12.6934 11.4407 13.2102 11.4407C13.7707 11.4407 13.9435 10.4861 13.9435 10.4861H16.8769L15.4102 7.14522L13.2102 6.66795Z" stroke="#FFBB27" stroke-width="1.5"/>
<g filter="url(#filter0_d_204_3)">
<path d="M29.366 18C29.03 18 28.7733 17.9487 28.596 17.846C28.4187 17.734 28.2927 17.552 28.218 17.3C28.1433 17.0387 28.106 16.6653 28.106 16.18V8.76H29.926V16.18C29.926 16.656 29.9913 17.0107 30.122 17.244C30.2527 17.468 30.514 17.58 30.906 17.58H31.046V18H29.366ZM33.324 11.07V18H32.624V10.44C32.624 10.048 32.526 9.74 32.33 9.516C32.1433 9.292 31.8213 9.18 31.364 9.18H31.294V8.76H32.274C32.7966 8.76 33.2213 8.83 33.548 8.97C33.884 9.10067 34.164 9.31067 34.388 9.6L39.204 15.2V8.76H39.904V18.042H39.26L33.324 11.07ZM44.1933 9.39H43.1993C42.6766 9.39 42.2753 9.52067 41.9953 9.782C41.7246 10.0433 41.5893 10.4727 41.5893 11.07H41.1693V9.88C41.1693 9.13333 41.566 8.76 42.3593 8.76H48.9393V9.39H46.0133V18H44.1933V9.39ZM50.328 10.58C50.328 10.104 50.2627 9.754 50.132 9.53C50.0014 9.29667 49.74 9.18 49.348 9.18H49.208V8.76H55.382C56.1754 8.76 56.572 9.13333 56.572 9.88V11.07H56.152C56.152 10.4913 56.0027 10.0667 55.704 9.796C55.4147 9.52533 54.9807 9.39 54.402 9.39H52.148V12.89H55.788V13.52H52.148V17.37H54.542C55.074 17.37 55.5174 17.2533 55.872 17.02C56.2267 16.7773 56.5207 16.362 56.754 15.774L57.132 15.914L56.726 17.02C56.6047 17.356 56.46 17.6033 56.292 17.762C56.124 17.9207 55.8627 18 55.508 18H50.328V10.58ZM65.2326 18.14C64.7192 18.14 64.2526 17.9907 63.8326 17.692C63.4126 17.384 62.9739 16.8567 62.5166 16.11L61.1166 13.772H60.5566V18H58.7226V10.58C58.7226 10.104 58.6572 9.754 58.5266 9.53C58.3959 9.29667 58.1346 9.18 57.7426 9.18H57.6026V8.76H61.4666C62.4372 8.76 63.3099 8.93733 64.0846 9.292C64.8592 9.64667 65.2466 10.328 65.2466 11.336C65.2466 12.5027 64.4906 13.2773 62.9786 13.66L64.4486 16.11C64.9992 17.034 65.5779 17.5473 66.1846 17.65V18C66.1099 18.0373 65.9746 18.07 65.7786 18.098C65.5826 18.126 65.4006 18.14 65.2326 18.14ZM61.3966 13.212C61.9192 13.212 62.3626 13.058 62.7266 12.75C63.0999 12.4327 63.2866 11.938 63.2866 11.266C63.2866 10.6033 63.1046 10.1133 62.7406 9.796C62.3766 9.47867 61.9519 9.32 61.4666 9.32C61.1959 9.32 60.9859 9.33867 60.8366 9.376L60.5566 9.418V13.212H61.3966ZM68.3855 18C68.0495 18 67.7929 17.9487 67.6155 17.846C67.4382 17.734 67.3122 17.552 67.2375 17.3C67.1629 17.0387 67.1255 16.6653 67.1255 16.18V8.76H68.9455V16.18C68.9455 16.656 69.0109 17.0107 69.1415 17.244C69.2722 17.468 69.5335 17.58 69.9255 17.58H70.0655V18H68.3855ZM75.3275 18.28C74.4221 18.28 73.6148 18.0653 72.9055 17.636C72.2055 17.2067 71.6641 16.6187 71.2815 15.872C70.8988 15.1253 70.7075 14.2947 70.7075 13.38C70.7075 12.4653 70.8988 11.6347 71.2815 10.888C71.6641 10.1413 72.2055 9.55333 72.9055 9.124C73.6148 8.69467 74.4221 8.48 75.3275 8.48C76.2328 8.48 77.0355 8.69467 77.7355 9.124C78.4355 9.55333 78.9768 10.1413 79.3595 10.888C79.7421 11.6347 79.9335 12.4653 79.9335 13.38C79.9335 14.2947 79.7421 15.1253 79.3595 15.872C78.9768 16.6187 78.4355 17.2067 77.7355 17.636C77.0355 18.0653 76.2328 18.28 75.3275 18.28ZM75.3275 17.65C76.1768 17.65 76.8348 17.2813 77.3015 16.544C77.7681 15.7973 78.0015 14.7427 78.0015 13.38C78.0015 12.0173 77.7681 10.9673 77.3015 10.23C76.8348 9.48333 76.1768 9.11 75.3275 9.11C74.4781 9.11 73.8201 9.48333 73.3535 10.23C72.8961 10.9673 72.6675 12.0173 72.6675 13.38C72.6675 14.7427 72.8961 15.7973 73.3535 16.544C73.8201 17.2813 74.4781 17.65 75.3275 17.65ZM88.215 18.14C87.7017 18.14 87.235 17.9907 86.815 17.692C86.395 17.384 85.9563 16.8567 85.499 16.11L84.099 13.772H83.539V18H81.705V10.58C81.705 10.104 81.6397 9.754 81.509 9.53C81.3783 9.29667 81.117 9.18 80.725 9.18H80.585V8.76H84.449C85.4197 8.76 86.2923 8.93733 87.067 9.292C87.8417 9.64667 88.229 10.328 88.229 11.336C88.229 12.5027 87.473 13.2773 85.961 13.66L87.431 16.11C87.9817 17.034 88.5603 17.5473 89.167 17.65V18C89.0923 18.0373 88.957 18.07 88.761 18.098C88.565 18.126 88.383 18.14 88.215 18.14ZM84.379 13.212C84.9017 13.212 85.345 13.058 85.709 12.75C86.0823 12.4327 86.269 11.938 86.269 11.266C86.269 10.6033 86.087 10.1133 85.723 9.796C85.359 9.47867 84.9343 9.32 84.449 9.32C84.1783 9.32 83.9683 9.33867 83.819 9.376L83.539 9.418V13.212H84.379ZM93.832 10.58C93.832 10.104 93.7666 9.754 93.636 9.53C93.5053 9.29667 93.244 9.18 92.852 9.18H92.712V8.76H94.392C94.728 8.76 94.9846 8.816 95.162 8.928C95.3393 9.04 95.4653 9.22667 95.54 9.488C95.6146 9.74 95.652 10.104 95.652 10.58V17.37H100.482V18H93.832V10.58ZM104.775 18.14C102.255 18.14 100.995 16.7493 100.995 13.968V10.58C100.995 10.104 100.93 9.754 100.799 9.53C100.668 9.29667 100.407 9.18 100.015 9.18V8.76H101.555C101.891 8.76 102.148 8.816 102.325 8.928C102.502 9.04 102.628 9.22667 102.703 9.488C102.778 9.74 102.815 10.104 102.815 10.58L102.829 14.388C102.838 15.3773 103.03 16.1473 103.403 16.698C103.786 17.2393 104.336 17.51 105.055 17.51C106.007 17.51 106.698 17.23 107.127 16.67C107.566 16.1007 107.785 15.2 107.785 13.968V8.76H108.485V13.968C108.485 15.34 108.196 16.3807 107.617 17.09C107.038 17.79 106.091 18.14 104.775 18.14ZM113.11 13.646L111.122 10.58C110.879 10.188 110.58 9.84267 110.226 9.544C109.871 9.24533 109.544 9.07733 109.246 9.04V8.76H110.786C111.262 8.76 111.691 8.90933 112.074 9.208C112.466 9.50667 112.797 9.87067 113.068 10.3L114.286 12.176L116.988 8.76H117.898L114.692 12.806L116.89 16.18C117.132 16.572 117.431 16.9173 117.786 17.216C118.14 17.5147 118.467 17.6827 118.766 17.72V18H117.226C116.75 18 116.316 17.8507 115.924 17.552C115.541 17.2533 115.214 16.8893 114.944 16.46L113.53 14.276L110.576 18H109.666L113.11 13.646ZM119.822 10.58C119.822 10.104 119.757 9.754 119.626 9.53C119.496 9.29667 119.234 9.18 118.842 9.18H118.702V8.76H124.876C125.67 8.76 126.066 9.13333 126.066 9.88V11.07H125.646C125.646 10.4913 125.497 10.0667 125.198 9.796C124.909 9.52533 124.475 9.39 123.896 9.39H121.642V12.89H125.282V13.52H121.642V17.37H124.036C124.568 17.37 125.012 17.2533 125.366 17.02C125.721 16.7773 126.015 16.362 126.248 15.774L126.626 15.914L126.22 17.02C126.099 17.356 125.954 17.6033 125.786 17.762C125.618 17.9207 125.357 18 125.002 18H119.822V10.58Z" fill="white"/>
</g>
</g>
<defs>
<filter id="filter0_d_204_3" x="24.106" y="8.47998" width="106.52" height="17.8" filterUnits="userSpaceOnUse" color-interpolation-filters="sRGB">
<feFlood flood-opacity="0" result="BackgroundImageFix"/>
<feColorMatrix in="SourceAlpha" type="matrix" values="0 0 0 0 0 0 0 0 0 0 0 0 0 0 0 0 0 0 127 0" result="hardAlpha"/>
<feOffset dy="4"/>
<feGaussianBlur stdDeviation="2"/>
<feComposite in2="hardAlpha" operator="out"/>
<feColorMatrix type="matrix" values="0 0 0 0 0 0 0 0 0 0 0 0 0 0 0 0 0 0 0.25 0"/>
<feBlend mode="normal" in2="BackgroundImageFix" result="effect1_dropShadow_204_3"/>
<feBlend mode="normal" in="SourceGraphic" in2="effect1_dropShadow_204_3" result="shape"/>
</filter>
<clipPath id="clip0_204_3">
<rect width="130" height="25" fill="white"/>
</clipPath>
</defs>
</svg>
