<svg width="183" height="33" viewBox="0 0 183 33" fill="none" xmlns="http://www.w3.org/2000/svg">
<path d="M16.7389 9.00165L19.2389 9.61529L20.9055 13.9107H17.5722C17.5722 13.9107 17.3758 15.138 16.7389 15.138C16.1516 15.138 15.9055 13.9107 15.9055 13.9107H12.5722L14.2389 9.61529L16.7389 9.00165Z" fill="#FFBC2A"/>
<path d="M22.75 30H29V9.63559C28.31 7.42373 24.8917 3 16.7389 3C8.58599 3 4.84926 7.42373 4 9.63559V30H11.6288M22.75 30H16.5H11.6288M22.75 30L20.8392 25.4237M11.6288 30L14.2389 25.4237M14.2389 25.4237H20.8392M14.2389 25.4237C10.8631 24.7831 9.68182 19.7143 8.87913 17.7585C8.54242 16.9381 10.1092 16.857 10.8298 17.0557C11.9337 17.3601 12.4022 17.7877 13.1785 18.4286C13.9547 19.0694 14.828 21.632 16.5 21.632C18.172 21.632 20.4013 21.632 21.8344 21.632C22.6306 21.632 23.1083 23.2327 23.1083 23.7076C23.1083 24.5085 23.1083 25.4237 23.1083 25.4237H20.8392M16.7389 5.45455V9.00165M16.7389 9.00165L14.2389 9.61529L12.5722 13.9107H15.9055C15.9055 13.9107 16.1516 15.138 16.7389 15.138C17.3758 15.138 17.5722 13.9107 17.5722 13.9107H20.9055L19.2389 9.61529L16.7389 9.00165Z" stroke="#FFBB27" stroke-width="1.5"/>
<g filter="url(#filter0_d_204_14)">
<path d="M37.38 24C36.9 24 36.5333 23.9267 36.28 23.78C36.0267 23.62 35.8467 23.36 35.74 23C35.6333 22.6267 35.58 22.0933 35.58 21.4V10.8H38.18V21.4C38.18 22.08 38.2733 22.5867 38.46 22.92C38.6467 23.24 39.02 23.4 39.58 23.4H39.78V24H37.38ZM43.0342 14.1V24H42.0342V13.2C42.0342 12.64 41.8942 12.2 41.6142 11.88C41.3476 11.56 40.8876 11.4 40.2342 11.4H40.1342V10.8H41.5342C42.2809 10.8 42.8876 10.9 43.3542 11.1C43.8342 11.2867 44.2342 11.5867 44.5542 12L51.4342 20V10.8H52.4342V24.06H51.5142L43.0342 14.1ZM58.5619 11.7H57.1419C56.3952 11.7 55.8219 11.8867 55.4219 12.26C55.0352 12.6333 54.8419 13.2467 54.8419 14.1H54.2419V12.4C54.2419 11.3333 54.8085 10.8 55.9419 10.8H65.3419V11.7H61.1619V24H58.5619V11.7ZM67.3258 13.4C67.3258 12.72 67.2324 12.22 67.0458 11.9C66.8591 11.5667 66.4858 11.4 65.9258 11.4H65.7258V10.8H74.5458C75.6791 10.8 76.2458 11.3333 76.2458 12.4V14.1H75.6458C75.6458 13.2733 75.4324 12.6667 75.0058 12.28C74.5924 11.8933 73.9724 11.7 73.1458 11.7H69.9258V16.7H75.1258V17.6H69.9258V23.1H73.3458C74.1058 23.1 74.7391 22.9333 75.2458 22.6C75.7524 22.2533 76.1724 21.66 76.5058 20.82L77.0458 21.02L76.4658 22.6C76.2924 23.08 76.0858 23.4333 75.8458 23.66C75.6058 23.8867 75.2324 24 74.7258 24H67.3258V13.4ZM88.618 24.2C87.8846 24.2 87.218 23.9867 86.618 23.56C86.018 23.12 85.3913 22.3667 84.738 21.3L82.738 17.96H81.938V24H79.318V13.4C79.318 12.72 79.2246 12.22 79.038 11.9C78.8513 11.5667 78.478 11.4 77.918 11.4H77.718V10.8H83.238C84.6246 10.8 85.8713 11.0533 86.978 11.56C88.0846 12.0667 88.638 13.04 88.638 14.48C88.638 16.1467 87.558 17.2533 85.398 17.8L87.498 21.3C88.2846 22.62 89.1113 23.3533 89.978 23.5V24C89.8713 24.0533 89.678 24.1 89.398 24.14C89.118 24.18 88.858 24.2 88.618 24.2ZM83.138 17.16C83.8846 17.16 84.518 16.94 85.038 16.5C85.5713 16.0467 85.838 15.34 85.838 14.38C85.838 13.4333 85.578 12.7333 85.058 12.28C84.538 11.8267 83.9313 11.6 83.238 11.6C82.8513 11.6 82.5513 11.6267 82.338 11.68L81.938 11.74V17.16H83.138ZM93.1222 24C92.6422 24 92.2755 23.9267 92.0222 23.78C91.7689 23.62 91.5889 23.36 91.4822 23C91.3755 22.6267 91.3222 22.0933 91.3222 21.4V10.8H93.9222V21.4C93.9222 22.08 94.0155 22.5867 94.2022 22.92C94.3889 23.24 94.7622 23.4 95.3222 23.4H95.5222V24H93.1222ZM103.039 24.4C101.746 24.4 100.593 24.0933 99.5792 23.48C98.5792 22.8667 97.8059 22.0267 97.2592 20.96C96.7126 19.8933 96.4392 18.7067 96.4392 17.4C96.4392 16.0933 96.7126 14.9067 97.2592 13.84C97.8059 12.7733 98.5792 11.9333 99.5792 11.32C100.593 10.7067 101.746 10.4 103.039 10.4C104.333 10.4 105.479 10.7067 106.479 11.32C107.479 11.9333 108.253 12.7733 108.799 13.84C109.346 14.9067 109.619 16.0933 109.619 17.4C109.619 18.7067 109.346 19.8933 108.799 20.96C108.253 22.0267 107.479 22.8667 106.479 23.48C105.479 24.0933 104.333 24.4 103.039 24.4ZM103.039 23.5C104.253 23.5 105.193 22.9733 105.859 21.92C106.526 20.8533 106.859 19.3467 106.859 17.4C106.859 15.4533 106.526 13.9533 105.859 12.9C105.193 11.8333 104.253 11.3 103.039 11.3C101.826 11.3 100.886 11.8333 100.219 12.9C99.5659 13.9533 99.2392 15.4533 99.2392 17.4C99.2392 19.3467 99.5659 20.8533 100.219 21.92C100.886 22.9733 101.826 23.5 103.039 23.5ZM121.45 24.2C120.717 24.2 120.05 23.9867 119.45 23.56C118.85 23.12 118.223 22.3667 117.57 21.3L115.57 17.96H114.77V24H112.15V13.4C112.15 12.72 112.057 12.22 111.87 11.9C111.683 11.5667 111.31 11.4 110.75 11.4H110.55V10.8H116.07C117.457 10.8 118.703 11.0533 119.81 11.56C120.917 12.0667 121.47 13.04 121.47 14.48C121.47 16.1467 120.39 17.2533 118.23 17.8L120.33 21.3C121.117 22.62 121.943 23.3533 122.81 23.5V24C122.703 24.0533 122.51 24.1 122.23 24.14C121.95 24.18 121.69 24.2 121.45 24.2ZM115.97 17.16C116.717 17.16 117.35 16.94 117.87 16.5C118.403 16.0467 118.67 15.34 118.67 14.38C118.67 13.4333 118.41 12.7333 117.89 12.28C117.37 11.8267 116.763 11.6 116.07 11.6C115.683 11.6 115.383 11.6267 115.17 11.68L114.77 11.74V17.16H115.97ZM129.474 13.4C129.474 12.72 129.381 12.22 129.194 11.9C129.008 11.5667 128.634 11.4 128.074 11.4H127.874V10.8H130.274C130.754 10.8 131.121 10.88 131.374 11.04C131.628 11.2 131.808 11.4667 131.914 11.84C132.021 12.2 132.074 12.72 132.074 13.4V23.1H138.974V24H129.474V13.4ZM145.107 24.2C141.507 24.2 139.707 22.2133 139.707 18.24V13.4C139.707 12.72 139.614 12.22 139.427 11.9C139.241 11.5667 138.867 11.4 138.307 11.4V10.8H140.507C140.987 10.8 141.354 10.88 141.607 11.04C141.861 11.2 142.041 11.4667 142.147 11.84C142.254 12.2 142.307 12.72 142.307 13.4L142.327 18.84C142.341 20.2533 142.614 21.3533 143.147 22.14C143.694 22.9133 144.481 23.3 145.507 23.3C146.867 23.3 147.854 22.9 148.467 22.1C149.094 21.2867 149.407 20 149.407 18.24V10.8H150.407V18.24C150.407 20.2 149.994 21.6867 149.167 22.7C148.341 23.7 146.987 24.2 145.107 24.2ZM157.014 17.78L154.174 13.4C153.827 12.84 153.401 12.3467 152.894 11.92C152.387 11.4933 151.921 11.2533 151.494 11.2V10.8H153.694C154.374 10.8 154.987 11.0133 155.534 11.44C156.094 11.8667 156.567 12.3867 156.954 13L158.694 15.68L162.554 10.8H163.854L159.274 16.58L162.414 21.4C162.761 21.96 163.187 22.4533 163.694 22.88C164.201 23.3067 164.667 23.5467 165.094 23.6V24H162.894C162.214 24 161.594 23.7867 161.034 23.36C160.487 22.9333 160.021 22.4133 159.634 21.8L157.614 18.68L153.394 24H152.094L157.014 17.78ZM166.603 13.4C166.603 12.72 166.51 12.22 166.323 11.9C166.136 11.5667 165.763 11.4 165.203 11.4H165.003V10.8H173.823C174.956 10.8 175.523 11.3333 175.523 12.4V14.1H174.923C174.923 13.2733 174.71 12.6667 174.283 12.28C173.87 11.8933 173.25 11.7 172.423 11.7H169.203V16.7H174.403V17.6H169.203V23.1H172.623C173.383 23.1 174.016 22.9333 174.523 22.6C175.03 22.2533 175.45 21.66 175.783 20.82L176.323 21.02L175.743 22.6C175.57 23.08 175.363 23.4333 175.123 23.66C174.883 23.8867 174.51 24 174.003 24H166.603V13.4Z" fill="white"/>
</g>
<defs>
<filter id="filter0_d_204_14" x="31.5801" y="10.3999" width="148.743" height="22" filterUnits="userSpaceOnUse" color-interpolation-filters="sRGB">
<feFlood flood-opacity="0" result="BackgroundImageFix"/>
<feColorMatrix in="SourceAlpha" type="matrix" values="0 0 0 0 0 0 0 0 0 0 0 0 0 0 0 0 0 0 127 0" result="hardAlpha"/>
<feOffset dy="4"/>
<feGaussianBlur stdDeviation="2"/>
<feComposite in2="hardAlpha" operator="out"/>
<feColorMatrix type="matrix" values="0 0 0 0 0 0 0 0 0 0 0 0 0 0 0 0 0 0 0.25 0"/>
<feBlend mode="normal" in2="BackgroundImageFix" result="effect1_dropShadow_204_14"/>
<feBlend mode="normal" in="SourceGraphic" in2="effect1_dropShadow_204_14" result="shape"/>
</filter>
</defs>
</svg>
